<?xml version="1.0" encoding="UTF-8" standalone="no"?>
<svg
   xmlns:dc="http://purl.org/dc/elements/1.1/"
   xmlns:cc="http://creativecommons.org/ns#"
   xmlns:rdf="http://www.w3.org/1999/02/22-rdf-syntax-ns#"
   xmlns:svg="http://www.w3.org/2000/svg"
   xmlns="http://www.w3.org/2000/svg"
   xmlns:sodipodi="http://sodipodi.sourceforge.net/DTD/sodipodi-0.dtd"
   xmlns:inkscape="http://www.inkscape.org/namespaces/inkscape"
   inkscape:version="1.0 (4035a4fb49, 2020-05-01)"
   sodipodi:docname="A_Bola.svg"
   id="svg7592"
   version="1.1"
   viewBox="0 0 121.6578 174.9958"
   style="clip-rule:evenodd;fill-rule:evenodd;image-rendering:optimizeQuality;shape-rendering:geometricPrecision;text-rendering:geometricPrecision"
   height="174.9958mm"
   width="121.6578mm"
   xml:space="preserve"><metadata
   id="metadata7596"><rdf:RDF><cc:Work
       rdf:about=""><dc:format>image/svg+xml</dc:format><dc:type
         rdf:resource="http://purl.org/dc/dcmitype/StillImage" /></cc:Work></rdf:RDF></metadata><sodipodi:namedview
   inkscape:current-layer="svg7592"
   inkscape:window-maximized="0"
   inkscape:window-y="0"
   inkscape:window-x="0"
   inkscape:cy="328.58039"
   inkscape:cx="245.50639"
   inkscape:zoom="0.49085999"
   showgrid="false"
   id="namedview7594"
   inkscape:window-height="480"
   inkscape:window-width="803"
   inkscape:pageshadow="2"
   inkscape:pageopacity="0"
   guidetolerance="10"
   gridtolerance="10"
   objecttolerance="10"
   borderopacity="1"
   bordercolor="#666666"
   pagecolor="#ffffff" />
 <defs
   id="defs7497">
  <style
   id="style7495"
   type="text/css">
   <![CDATA[
    .str3 {stroke:#2A2A29;stroke-width:0.2}
    .str1 {stroke:#2A2A29;stroke-width:0.25}
    .str2 {stroke:#2A2A29;stroke-width:0.5}
    .str0 {stroke:#2A2A29;stroke-width:0.85}
    .fil0 {fill:none}
    .fil2 {fill:black}
    .fil5 {fill:#0071BC}
    .fil4 {fill:#008F4C}
    .fil1 {fill:gray}
    .fil3 {fill:#94C8EB}
   ]]>
  </style>
 </defs>
 <g
   transform="translate(-40.043101,-61.563106)"
   id="Capa_x0020_1">
  <metadata
   id="CorelCorpID_0Corel-Layer" />
  <g
   id="_188212056">
   <ellipse
   ry="87.072899"
   rx="60.4039"
   cy="149.061"
   cx="100.872"
   class="fil0 str0"
   id="_181859952" />
   <g
   id="g7588">
    <g
   id="g7503">
     <path
   d="m 100.872,61.8531 c 33.3601,0 60.4039,38.9838 60.4039,87.0729 0,48.0891 -27.0438,87.0729 -60.4039,87.0729 -33.3601,0 -60.404,-38.9838 -60.404,-87.0729 0,-48.0891 27.0439,-87.0729 60.404,-87.0729 z m 0,8.9593 c 29.9275,0 54.1887,34.9726 54.1887,78.1136 0,43.141 -24.2612,78.1136 -54.1887,78.1136 -29.9275,0 -54.1888,-34.9726 -54.1888,-78.1136 0,-43.141 24.2613,-78.1136 54.1888,-78.1136 z"
   class="fil1 str1"
   id="_181857312" />
     <path
   d="m 101.099,70.8575 c 29.9275,0 54.1887,35.0095 54.1887,78.1959 0,43.1865 -24.2612,78.196 -54.1887,78.196 -29.9275,0 -54.1888,-35.0095 -54.1888,-78.196 0,-43.1864 24.2613,-78.1959 54.1888,-78.1959 z m 50.3621,30.8726 -10.5127,-5.6668 -0.5041,-12.5238 -11.8114,-1.8499 -4.1443,-12.5298 -14.1808,2.8223 -10.9369,-9.7026 -10.9325,10.7238 -13.8653,-2.0774 -2.9855,12.5343 -11.8073,2.3645 0.2803,12.1617 -10.7042,5.8935 2.6045,12.1641 -8.6577,6.904 4.7823,9.8309 -7.3905,8.8799 6.2519,10.3007 -5.8638,9.9476 7.804,8.1491 -4.0038,12.1367 9.2616,5.9216 -2.4281,11.9738 10.7622,3.8177 0.0139,12.8243 12.4475,0.8212 4.8349,13.5671 13.4115,-4.6968 11.026,9.8462 8.9007,-10.9474 12.4131,3.3643 2.772,-11.9848 12.2624,-1.5058 -0.2594,-12.1557 10.8558,-5.4541 -2.4576,-11.132 8.9653,-7.4046 -4.1872,-9.8792 7.3633,-9.3459 -5.5632,-9.2765 5.6145,-9.6675 -6.7386,-7.8148 3.9838,-11.5117 -8.4446,-7.1417 z"
   class="fil2 str1"
   id="_181867584" />
    </g>
    <g
   id="g7586">
     <ellipse
   ry="78.113602"
   rx="54.188702"
   cy="149.06"
   cx="100.871"
   class="fil3 str1"
   id="_181862880" />
     <g
   id="g7515">
      <circle
   r="4.9916"
   cy="85.454597"
   cx="98.456596"
   class="fil1 str2"
   id="_181865592" />
      <circle
   r="4.9916"
   cy="92.645897"
   cx="78.028702"
   class="fil1 str2"
   id="_181866936" />
      <circle
   r="4.9916"
   cy="92.645897"
   cx="120.499"
   class="fil1 str2"
   id="_181861704" />
      <circle
   r="4.9916"
   cy="107.705"
   cx="65.676697"
   class="fil1 str2"
   id="_181862592" />
      <circle
   r="4.9916"
   cy="107.705"
   cx="134.543"
   class="fil1 str2"
   id="_181868040" />
      <circle
   r="4.9916"
   cy="126.995"
   cx="59.923698"
   class="fil1 str2"
   id="_181870032" />
      <circle
   r="4.9916"
   cy="126.995"
   cx="141.819"
   class="fil1 str2"
   id="_181861344" />
      <circle
   r="4.9916"
   cy="147.976"
   cx="63.984699"
   class="fil1 str2"
   id="_181865424" />
      <circle
   r="4.9916"
   cy="147.976"
   cx="136.743"
   class="fil1 str2"
   id="_181871664" />
     </g>
     <path
   d="M 100.872,227.173 C 79.73,227.3325 60.9093,210.3422 51.6776,181.8595 l 48.1873,-28.8077 50.8547,26.6933 c -8.4594,28.2749 -25.9527,46.7957 -49.8476,47.4279 z"
   class="fil4 str3"
   id="_181868640" />
     <path
   d="m 83.1339,222.893 c 12.2811,5.9963 24.8695,5.6405 37.2105,-0.7744 l -20.48,-69.066 z"
   class="fil5 str3"
   id="_181872288" />
     <g
   id="g7584">
      <path
   d="m 147.719,188.421 c 3.1007,-7.6288 5.0726,-15.289 6.1464,-22.9741 L 120.2356,147.9266 H 78.9366 L 48.109,166.9432 c 1.2249,7.8948 3.291,15.5329 6.5031,22.8216 h 27.8107 l 6.3022,-4.83 c -0.8823,-10.6521 5.2327,-19.7665 11.5315,-22.1245 6.4533,1.6094 13.54,8.764 14.4815,21.1858 l 6.8384,4.4249 z"
   class="fil1 str2"
   id="_181860840" />
      <path
   d="m 121.577,188.421 c -0.4824,-14.0631 -7.2673,-24.9124 -21.3963,-29.4097 -14.9167,6.9233 -18.3262,18.1025 -17.7573,30.7535"
   class="fil0 str2"
   id="_181868760" />
      <polyline
   points="114.383,181.023 121.173,183.801 149.469,183.801 "
   class="fil0 str2"
   id="_181864368" />
      <polyline
   points="113.634,177.665 120.311,179.559 150.719,179.559 "
   class="fil0 str2"
   id="_181868472" />
      <polyline
   points="112.711,174.954 118.423,174.338 152.157,174.338 "
   class="fil0 str2"
   id="_181865016" />
      <polyline
   points="111.114,171.672 115.912,170.009 153.063,170.009 "
   class="fil0 str2"
   id="_188213448" />
      <polyline
   points="108.178,167.706 111.768,165.392 144.258,165.392 "
   class="fil0 str2"
   id="_188214096" />
      <polyline
   points="153.063,170.009 119.657,152.493 81.4993,152.493 49.1105,172.249 "
   class="fil0 str2"
   id="_188211576" />
      <polyline
   points="104.203,164.47 106.292,161.585 136.871,161.585 "
   class="fil0 str2"
   id="_188211288" />
      <line
   y2="156.834"
   x2="74.096703"
   y1="156.834"
   x1="127.936"
   class="fil0 str2"
   id="_188211000" />
      <line
   y2="159.19501"
   x2="141.86501"
   y1="163.077"
   x1="139.842"
   class="fil0 str2"
   id="_188211720" />
      <line
   y2="153.724"
   x2="131.364"
   y1="157.578"
   x1="129.356"
   class="fil0 str2"
   id="_188211792" />
      <line
   y2="147.927"
   x2="120.236"
   y1="152.493"
   x1="119.657"
   class="fil0 str2"
   id="_188212080" />
      <line
   y2="147.927"
   x2="107.891"
   y1="152.493"
   x1="107.891"
   class="fil0 str2"
   id="_188212368" />
      <line
   y2="147.927"
   x2="92.946503"
   y1="152.493"
   x1="92.946503"
   class="fil0 str2"
   id="_188210784" />
      <line
   y2="147.927"
   x2="78.936996"
   y1="152.493"
   x1="81.499298"
   class="fil0 str2"
   id="_188210496" />
      <line
   y2="154.84"
   x2="67.729599"
   y1="159.237"
   x1="70.442101"
   class="fil0 str2"
   id="_188208840" />
      <line
   y2="160.76601"
   x2="58.123798"
   y1="165.11501"
   x1="60.806599"
   class="fil0 str2"
   id="_188213592" />
      <line
   y2="183.80099"
   x2="145.96899"
   y1="188.42101"
   x1="145.96899"
   class="fil0 str2"
   id="_188213088" />
      <line
   y2="174.338"
   x2="146.049"
   y1="179.55901"
   x1="146.049"
   class="fil0 str2"
   id="_188211312" />
      <line
   y2="166.33099"
   x2="145.89"
   y1="170.009"
   x1="145.89"
   class="fil0 str2"
   id="_188211240" />
      <line
   y2="183.80099"
   x2="131.58099"
   y1="188.42101"
   x1="131.58099"
   class="fil0 str2"
   id="_188208312" />
      <line
   y2="165.392"
   x2="131.74001"
   y1="170.009"
   x1="131.74001"
   class="fil0 str2"
   id="_188210904" />
      <line
   y2="158.735"
   x2="131.50101"
   y1="161.58501"
   x1="131.50101"
   class="fil0 str2"
   id="_188209920" />
      <line
   y2="179.55901"
   x2="138.576"
   y1="183.80099"
   x1="138.576"
   class="fil0 str2"
   id="_188214288" />
      <line
   y2="170.009"
   x2="138.49699"
   y1="172.048"
   x1="138.49699"
   class="fil0 str2"
   id="_188213640" />
      <line
   y2="179.55901"
   x2="126.096"
   y1="183.80099"
   x1="126.096"
   class="fil0 str2"
   id="_188210616" />
      <line
   y2="170.009"
   x2="125.857"
   y1="174.338"
   x1="125.857"
   class="fil0 str2"
   id="_188212536" />
      <line
   y2="161.58501"
   x2="125.698"
   y1="165.392"
   x1="125.698"
   class="fil0 str2"
   id="_188212680" />
      <line
   y2="162.435"
   x2="138.49699"
   y1="165.392"
   x1="138.49699"
   class="fil0 str2"
   id="_188212344" />
      <line
   y2="174.338"
   x2="120.045"
   y1="178.617"
   x1="120.045"
   class="fil0 str2"
   id="_188214000" />
      <line
   y2="165.392"
   x2="120.054"
   y1="170.009"
   x1="120.054"
   class="fil0 str2"
   id="_188209272" />
      <line
   y2="156.834"
   x2="120.054"
   y1="161.58501"
   x1="120.054"
   class="fil0 str2"
   id="_188212176" />
      <line
   y2="161.58501"
   x2="113.297"
   y1="164.974"
   x1="113.297"
   class="fil0 str2"
   id="_188213280" />
      <line
   y2="152.493"
   x2="113.377"
   y1="156.834"
   x1="113.377"
   class="fil0 str2"
   id="_188211264" />
      <line
   y2="156.834"
   x2="106.292"
   y1="161.58501"
   x1="106.292"
   class="fil0 str2"
   id="_188212608" />
      <line
   y2="159.011"
   x2="100.257"
   y1="162.81"
   x1="100.257"
   class="fil0 str2"
   id="_188212848" />
      <line
   y2="152.493"
   x2="86.309998"
   y1="156.834"
   x1="86.309998"
   class="fil0 str2"
   id="_188210592" />
      <path
   d="m 142.949,179.559 c 0.2105,-8.9602 -16.5601,-11.1521 -18.3633,0"
   class="fil0 str2"
   id="_188210424" />
      <polyline
   points="88.6866,181.356 82.4498,184.36 52.6228,184.36 "
   class="fil0 str2"
   id="_188209968" />
      <polyline
   points="89.0258,178.511 82.9226,180.221 51.2541,180.221 "
   class="fil0 str2"
   id="_188212968" />
      <polyline
   points="89.8914,175.084 84.2908,175.022 49.7649,175.022 "
   class="fil0 str2"
   id="_188207712" />
      <polyline
   points="91.506,171.296 86.6397,170.213 52.0626,170.213 "
   class="fil0 str2"
   id="_188207928" />
      <polyline
   points="93.662,167.199 90.2168,165.742 59.4201,165.742 "
   class="fil0 str2"
   id="_188206920" />
      <polyline
   points="98.0992,163.885 95.5539,161.517 66.4948,161.517 "
   class="fil0 str2"
   id="_188207640" />
      <path
   d="m 77.938,180.176 c 0.2105,-8.9602 -16.5601,-11.1521 -18.3633,0"
   class="fil0 str2"
   id="_188207448" />
      <line
   y2="184.36"
   x2="76.3321"
   y1="189.765"
   x1="76.3321"
   class="fil0 str2"
   id="_188207616" />
      <line
   y2="184.36"
   x2="64.248901"
   y1="189.765"
   x1="64.248901"
   class="fil0 str2"
   id="_188207280" />
      <line
   y2="180.22099"
   x2="71.9599"
   y1="184.36"
   x1="71.9599"
   class="fil0 str2"
   id="_188207976" />
      <line
   y2="170.213"
   x2="71.892998"
   y1="173.037"
   x1="71.892998"
   class="fil0 str2"
   id="_188212992" />
      <line
   y2="180.22099"
   x2="56.617401"
   y1="184.36"
   x1="56.617401"
   class="fil0 str2"
   id="_188210136" />
      <line
   y2="170.213"
   x2="56.617401"
   y1="175.022"
   x1="56.617401"
   class="fil0 str2"
   id="_188210112" />
      <line
   y2="165.742"
   x2="64.248901"
   y1="170.213"
   x1="64.248901"
   class="fil0 str2"
   id="_188209536" />
      <line
   y2="165.742"
   x2="80.147903"
   y1="170.213"
   x1="80.147903"
   class="fil0 str2"
   id="_188206584" />
      <line
   y2="175.022"
   x2="80.068398"
   y1="180.22099"
   x1="80.068398"
   class="fil0 str2"
   id="_188208192" />
      <line
   y2="156.834"
   x2="80.147903"
   y1="161.517"
   x1="80.147903"
   class="fil0 str2"
   id="_188207880" />
      <line
   y2="161.517"
   x2="86.427902"
   y1="165.742"
   x1="86.427902"
   class="fil0 str2"
   id="_188209152" />
      <line
   y2="156.834"
   x2="93.184998"
   y1="161.517"
   x1="93.184998"
   class="fil0 str2"
   id="_188211672" />
      <line
   y2="161.517"
   x2="71.721397"
   y1="165.742"
   x1="71.721397"
   class="fil0 str2"
   id="_188207304" />
      <rect
   height="5.2617998"
   width="24.443001"
   y="142.66499"
   x="88.154602"
   class="fil1 str2"
   id="_188208600" />
      <line
   y2="147.927"
   x2="99.9524"
   y1="142.66499"
   x1="99.9524"
   class="fil0 str2"
   id="_188213016" />
      <rect
   height="10.4943"
   width="15.2525"
   y="132.17101"
   x="92.652199"
   class="fil1 str2"
   id="_188208216" />
      <line
   y2="138.36301"
   x2="92.6521"
   y1="138.36301"
   x1="107.905"
   class="fil0 str2"
   id="_188211480" />
      <line
   y2="132.17101"
   x2="99.887299"
   y1="138.36301"
   x1="99.887299"
   class="fil0 str2"
   id="_188207232" />
      <ellipse
   ry="17.1047"
   rx="22.82"
   cy="118.562"
   cx="100.239"
   class="fil1 str2"
   id="_188207256" />
     </g>
    </g>
   </g>
  </g>
 </g>
</svg>
