<?xml version="1.0" encoding="UTF-8" standalone="no"?>
<svg
   xmlns:dc="http://purl.org/dc/elements/1.1/"
   xmlns:cc="http://creativecommons.org/ns#"
   xmlns:rdf="http://www.w3.org/1999/02/22-rdf-syntax-ns#"
   xmlns:svg="http://www.w3.org/2000/svg"
   xmlns="http://www.w3.org/2000/svg"
   xmlns:sodipodi="http://sodipodi.sourceforge.net/DTD/sodipodi-0.dtd"
   xmlns:inkscape="http://www.inkscape.org/namespaces/inkscape"
   inkscape:version="1.0 (4035a4fb49, 2020-05-01)"
   sodipodi:docname="Barro.svg"
   id="svg321"
   version="1.1"
   viewBox="0 0 155.91399 271.28961"
   style="clip-rule:evenodd;fill-rule:evenodd;image-rendering:optimizeQuality;shape-rendering:geometricPrecision;text-rendering:geometricPrecision"
   height="271.28961mm"
   width="155.91399mm"
   xml:space="preserve"><metadata
   id="metadata325"><rdf:RDF><cc:Work
       rdf:about=""><dc:format>image/svg+xml</dc:format><dc:type
         rdf:resource="http://purl.org/dc/dcmitype/StillImage" /></cc:Work></rdf:RDF></metadata><sodipodi:namedview
   inkscape:current-layer="svg321"
   inkscape:window-maximized="0"
   inkscape:window-y="0"
   inkscape:window-x="0"
   inkscape:cy="513.58753"
   inkscape:cx="292.61202"
   inkscape:zoom="0.49085999"
   showgrid="false"
   id="namedview323"
   inkscape:window-height="480"
   inkscape:window-width="803"
   inkscape:pageshadow="2"
   inkscape:pageopacity="0"
   guidetolerance="10"
   gridtolerance="10"
   objecttolerance="10"
   borderopacity="1"
   bordercolor="#666666"
   pagecolor="#ffffff" />
 <defs
   id="defs10">
  <style
   id="style2"
   type="text/css">
   <![CDATA[
    .str9 {stroke:#2A2A29;stroke-width:0.2}
    .str2 {stroke:black;stroke-width:0.0762}
    .str1 {stroke:black;stroke-width:0.2844}
    .str0 {stroke:#010101;stroke-width:0.2844}
    .str3 {stroke:black;stroke-width:0.5688}
    .str7 {stroke:#2A2A29;stroke-width:0.7011;stroke-linecap:round;stroke-linejoin:round}
    .str11 {stroke:#2A2A29;stroke-width:0.7522;stroke-linecap:round;stroke-linejoin:round}
    .str12 {stroke:black;stroke-width:0.8467}
    .str4 {stroke:black;stroke-width:0.8532}
    .str10 {stroke:#FEFEFE;stroke-width:0.9027;stroke-linecap:round;stroke-linejoin:round}
    .str5 {stroke:black;stroke-width:1.1377}
    .str6 {stroke:black;stroke-width:1.4221}
    .str8 {stroke:#FFDD00;stroke-width:2.1034;stroke-linecap:round;stroke-linejoin:round}
    .fil5 {fill:none}
    .fil12 {fill:none;fill-rule:nonzero}
    .fil13 {fill:#00A0E3}
    .fil11 {fill:#4D897C}
    .fil9 {fill:#9D9E9E}
    .fil14 {fill:#FEFEFE}
    .fil10 {fill:#FFDD00}
    .fil4 {fill:#0071BC}
    .fil7 {fill:#008F4C}
    .fil1 {fill:#E3E4E5}
    .fil2 {fill:#EAC102}
    .fil8 {fill:#ED1C24}
    .fil6 {fill:#E3E4E5;fill-rule:nonzero}
    .fil0 {fill:#EAC102;fill-rule:nonzero}
    .fil3 {fill:#ED1C24;fill-rule:nonzero}
   ]]>
  </style>
     <clipPath
   style="clip-rule:nonzero"
   id="id0">
      <path
   id="path4"
   d="M 156.996,260.983 35.226,114.427 h 140.71 c -0.0579,34.0773 0.1157,68.1577 -0.0882,102.232 -0.5876,16.5429 -7.7076,32.3107 -18.8524,44.3233 z" />
     </clipPath>
     <clipPath
   style="clip-rule:nonzero"
   id="id1">
      <path
   id="path7"
   d="M 156.998,260.982 35.227,114.427 v 91.9977 c -0.7701,16.0846 2.6723,32.6083 12.0195,45.9603 15.609,23.8746 46.5653,35.9805 74.2181,29.2449 13.7214,-2.965 26.0766,-10.4547 35.5334,-20.6483 z" />
     </clipPath>
 </defs>
 <g
   transform="translate(-27.579736,-12.6133)"
   id="Capa_x0020_1">
  <metadata
   id="CorelCorpID_0Corel-Layer" />
  <g
   id="_542887608">
   <g
   id="g259">
    <polygon
   points="35.4246,68.7883 42.2509,61.962 41.6821,60.5399 41.3976,59.1177 41.9665,57.4111 43.3886,55.4201 45.3797,53.7135 48.224,52.0069 51.6371,50.3004 55.6192,48.8782 59.8856,47.7405 64.4365,46.8872 69.8407,45.7495 75.5293,44.0429 81.5023,42.0519 87.4754,40.0609 93.164,38.0698 98.2837,36.6477 100.559,36.3633 102.835,36.0788 104.541,36.0788 105.963,36.3633 103.403,32.3812 102.266,32.3812 100.844,32.9501 97.7149,34.3722 94.3017,35.7944 91.173,36.6477 86.0532,38.3543 79.5113,40.6297 72.9694,42.9052 66.9964,44.6117 64.1521,45.465 61.5922,46.0339 57.0413,46.8872 52.4904,48.0249 48.7928,49.4471 45.3797,51.1537 42.5354,53.1447 40.5443,54.8512 39.1222,56.8423 38.8378,57.6956 38.5533,58.5488 38.8378,59.971 39.4066,61.3931 33.718,67.0818 34.5713,67.9351 "
   class="fil0 str0"
   id="_543780136" />
    <polygon
   points="38.8378,59.971 38.5533,58.5488 38.8378,57.6956 39.1222,56.8423 40.5443,54.8512 42.5354,53.1447 45.3797,51.1537 48.7928,49.4471 52.4904,48.0249 57.0413,46.8872 61.5922,46.0339 64.1521,45.465 66.9964,44.6117 72.9694,42.9052 79.5113,40.6297 86.0532,38.3543 91.173,36.6477 83.2089,38.6387 74.9604,40.9142 66.9964,42.9052 63.2988,43.7585 59.8856,44.6117 54.7659,45.7495 49.9305,47.1716 45.3797,49.1626 41.3976,51.4381 37.9845,53.998 35.1402,56.8423 33.4336,59.6866 33.1491,61.1087 32.8647,62.5309 33.1491,64.8063 33.4336,65.944 33.718,67.0818 39.4066,61.3931 "
   class="fil0 str0"
   id="_543780064" />
    <polygon
   points="96.8616,34.3722 96.0083,34.9411 94.8706,35.2255 93.7328,34.9411 92.8796,34.3722 92.0263,33.2345 91.7418,32.0968 92.0263,30.9591 92.8796,30.1058 93.7328,29.2525 94.8706,29.2525 96.0083,29.5369 96.8616,30.1058 97.4304,30.9591 97.7149,32.0968 97.4304,33.2345 "
   class="fil1 str1"
   id="_543779992" />
    <polygon
   points="88.6131,36.9321 87.4754,37.7854 86.3377,37.7854 85.1999,37.7854 84.3466,36.9321 83.7778,36.0788 83.4934,34.9411 83.7778,33.8034 84.3466,32.6657 85.1999,32.0968 86.3377,31.8124 87.4754,32.0968 88.6131,32.9501 89.182,33.8034 89.4664,34.9411 89.182,36.0788 "
   class="fil1 str1"
   id="_543779920" />
    <polygon
   points="79.7958,39.492 78.658,40.0609 77.5203,40.3453 76.3826,40.0609 75.5293,39.492 74.9604,38.6387 74.676,37.2166 74.9604,36.0788 75.5293,35.2255 76.3826,34.6567 77.5203,34.3722 78.658,34.6567 79.7958,35.2255 80.3646,36.3633 80.649,37.501 80.3646,38.6387 "
   class="fil1 str1"
   id="_543779848" />
    <polygon
   points="70.4095,41.7674 69.5563,42.3363 68.4185,42.6207 67.2808,42.3363 66.4275,41.7674 65.8587,40.9142 65.5742,39.7764 65.8587,38.6387 66.4275,37.501 67.2808,36.9321 68.4185,36.6477 69.5563,36.9321 70.4095,37.501 70.9784,38.6387 71.2628,39.7764 70.9784,40.9142 "
   class="fil1 str1"
   id="_543779776" />
    <polygon
   points="61.5922,44.0429 60.4545,44.6117 59.3168,44.8962 58.179,44.6117 57.3257,44.0429 56.7569,42.9052 56.4725,41.7674 56.7569,40.6297 57.3257,39.7764 58.179,38.9231 59.3168,38.9231 60.4545,38.9231 61.5922,39.7764 62.1611,40.6297 62.4455,41.7674 62.1611,42.9052 "
   class="fil1 str1"
   id="_543779704" />
    <polygon
   points="52.4904,46.6028 51.3527,47.1716 50.215,47.4561 49.0773,47.1716 48.224,46.6028 47.6551,45.465 47.3707,44.3273 47.6551,43.1896 48.224,42.3363 49.0773,41.7674 50.215,41.483 51.3527,41.7674 52.4904,42.3363 53.0593,43.1896 53.3437,44.3273 53.0593,45.465 "
   class="fil1 str1"
   id="_543779632" />
    <polygon
   points="43.3886,50.5848 42.2509,51.1537 41.1132,51.4381 39.9755,51.1537 39.1222,50.5848 38.5533,49.4471 38.2689,48.3093 38.5533,47.1716 39.1222,46.3183 39.9755,45.465 41.1132,45.465 42.2509,45.7495 43.3886,46.3183 43.9575,47.1716 43.9575,48.3093 43.9575,49.4471 "
   class="fil1 str1"
   id="_543779560" />
    <polygon
   points="35.9935,56.8423 35.1402,57.4111 34.0024,57.4111 32.8647,57.4111 32.0114,56.5578 31.4426,55.7045 31.1581,54.5668 31.4426,53.4291 32.0114,52.2914 32.8647,51.7225 34.0024,51.4381 35.1402,51.7225 35.9935,52.5758 36.8467,53.4291 36.8467,54.5668 36.8467,55.7045 "
   class="fil1 str1"
   id="_543779488" />
    <polygon
   points="175.649,68.7883 168.538,61.962 169.391,60.5399 169.676,59.1177 169.107,57.4111 167.685,55.4201 165.694,53.7135 162.85,52.0069 159.436,50.3004 155.454,48.8782 151.188,47.7405 146.637,46.8872 141.233,45.7495 135.544,44.0429 129.571,42.0519 123.598,40.0609 117.909,38.0698 112.79,36.6477 110.514,36.3633 108.239,36.0788 106.532,36.0788 105.11,36.3633 107.67,32.3812 108.808,32.3812 110.23,32.9501 113.359,34.3722 116.772,35.7944 119.616,36.6477 125.02,38.3543 131.562,40.6297 138.104,42.9052 144.077,44.6117 146.921,45.465 149.481,46.0339 154.032,46.8872 158.583,48.0249 162.281,49.4471 165.694,51.1537 168.538,53.1447 170.529,54.8512 171.951,56.8423 172.236,57.6956 172.52,58.5488 172.236,59.971 171.667,61.3931 177.355,67.0818 176.502,67.9351 "
   class="fil0 str0"
   id="_543779416" />
    <polygon
   points="172.236,59.971 172.52,58.5488 172.236,57.6956 171.951,56.8423 170.529,54.8512 168.538,53.1447 165.694,51.1537 162.281,49.4471 158.583,48.0249 154.032,46.8872 149.481,46.0339 146.921,45.465 144.077,44.6117 138.104,42.9052 131.562,40.6297 125.02,38.3543 119.616,36.6477 127.864,38.6387 136.113,40.9142 144.077,42.9052 147.775,43.7585 151.188,44.6117 156.308,45.7495 161.143,47.1716 165.694,49.1626 169.676,51.4381 173.089,53.998 175.933,56.8423 177.355,59.6866 177.924,61.1087 178.209,62.5309 177.924,64.8063 177.64,65.944 177.355,67.0818 171.667,61.3931 "
   class="fil0 str0"
   id="_543779344" />
    <polygon
   points="114.212,34.3722 115.065,34.9411 116.203,35.2255 117.341,34.9411 118.194,34.3722 119.047,33.2345 119.332,32.0968 119.047,30.9591 118.194,30.1058 117.341,29.2525 116.203,29.2525 115.065,29.5369 114.212,30.1058 113.643,30.9591 113.359,32.0968 113.643,33.2345 "
   class="fil1 str1"
   id="_543779272" />
    <polygon
   points="122.46,36.9321 123.598,37.7854 124.736,37.7854 125.874,37.7854 126.727,36.9321 127.296,36.0788 127.58,34.9411 127.296,33.8034 126.727,32.6657 125.874,32.0968 124.736,31.8124 123.598,32.0968 122.46,32.9501 121.892,33.8034 121.607,34.9411 121.892,36.0788 "
   class="fil1 str1"
   id="_543779200" />
    <polygon
   points="131.278,39.492 132.415,40.0609 133.553,40.3453 134.691,40.0609 135.544,39.492 136.113,38.6387 136.397,37.2166 136.113,36.0788 135.544,35.2255 134.691,34.6567 133.553,34.3722 132.415,34.6567 131.278,35.2255 130.709,36.3633 130.424,37.501 130.709,38.6387 "
   class="fil1 str1"
   id="_543779128" />
    <polygon
   points="140.664,41.7674 141.517,42.3363 142.655,42.6207 143.793,42.3363 144.646,41.7674 145.215,40.9142 145.499,39.7764 145.215,38.6387 144.646,37.501 143.793,36.9321 142.655,36.6477 141.517,36.9321 140.664,37.501 140.095,38.6387 139.811,39.7764 140.095,40.9142 "
   class="fil1 str1"
   id="_543779056" />
    <polygon
   points="149.481,44.0429 150.619,44.6117 151.757,44.8962 152.894,44.6117 153.748,44.0429 154.317,42.9052 154.601,41.7674 154.317,40.6297 153.748,39.7764 152.894,38.9231 151.757,38.9231 150.619,38.9231 149.481,39.7764 148.912,40.6297 148.628,41.7674 148.912,42.9052 "
   class="fil1 str1"
   id="_543778984" />
    <polygon
   points="158.583,46.6028 159.721,47.1716 160.858,47.4561 161.996,47.1716 162.85,46.6028 163.418,45.465 163.703,44.3273 163.418,43.1896 162.85,42.3363 161.996,41.7674 160.858,41.483 159.721,41.7674 158.583,42.3363 158.014,43.1896 157.73,44.3273 158.014,45.465 "
   class="fil1 str1"
   id="_543778912" />
    <polygon
   points="167.685,50.5848 168.822,51.1537 169.96,51.4381 171.098,51.1537 171.951,50.5848 172.52,49.4471 172.805,48.3093 172.52,47.1716 171.951,46.3183 171.098,45.465 169.96,45.465 168.822,45.7495 167.685,46.3183 167.116,47.1716 166.832,48.3093 167.116,49.4471 "
   class="fil1 str1"
   id="_543778840" />
    <polygon
   points="175.08,56.8423 175.933,57.4111 177.071,57.4111 178.209,57.4111 179.062,56.5578 179.631,55.7045 179.915,54.5668 179.631,53.4291 179.062,52.2914 178.209,51.7225 177.071,51.4381 175.933,51.7225 175.08,52.5758 174.227,53.4291 174.227,54.5668 174.227,55.7045 "
   class="fil1 str1"
   id="_543778768" />
    <polygon
   points="96.8616,33.8034 96.2927,34.6567 96.0083,35.51 96.2927,36.6477 96.8616,37.501 97.4304,38.0698 98.2837,38.0698 99.137,38.0698 99.7059,37.501 100.275,36.6477 100.275,35.7944 100.275,34.6567 99.7059,33.8034 99.137,33.519 98.2837,33.2345 97.4304,33.2345 "
   class="fil1 str1"
   id="_543778696" />
    <polygon
   points="92.8796,36.9321 92.3107,37.501 92.3107,38.6387 92.3107,39.492 92.8796,40.3453 93.4484,40.9142 94.3017,41.1986 95.155,40.9142 95.7239,40.3453 96.2927,39.492 96.2927,38.6387 96.2927,37.7854 95.7239,36.9321 95.155,36.3633 94.3017,36.0788 93.4484,36.3633 "
   class="fil1 str1"
   id="_543778624" />
    <polygon
   points="88.6131,39.492 88.0442,40.3453 88.0442,41.483 88.0442,42.3363 88.6131,43.1896 89.182,43.7585 90.0353,44.0429 90.8885,43.7585 91.4574,43.1896 92.0263,42.3363 92.0263,41.483 92.0263,40.6297 91.4574,39.7764 90.8885,39.2076 90.0353,38.9231 89.182,39.2076 "
   class="fil1 str1"
   id="_543778552" />
    <polygon
   points="84.3466,42.0519 84.0622,42.6207 83.7778,43.7585 84.0622,44.6117 84.3466,45.465 84.9155,46.0339 85.7688,46.3183 86.6221,46.0339 87.4754,45.465 87.7598,44.6117 88.0442,43.7585 87.7598,42.9052 87.4754,42.0519 86.6221,41.483 85.7688,41.1986 85.1999,41.483 "
   class="fil1 str1"
   id="_543778480" />
    <polygon
   points="80.0802,44.3273 79.5113,44.8962 79.5113,46.0339 79.5113,46.8872 80.0802,47.7405 80.649,48.3093 81.5023,48.5938 82.3556,48.3093 82.9245,47.7405 83.4934,47.1716 83.7778,46.0339 83.4934,45.1806 82.9245,44.3273 82.3556,43.7585 81.5023,43.474 80.649,43.7585 "
   class="fil1 str1"
   id="_543778408" />
    <polygon
   points="75.8137,46.6028 75.2449,47.4561 75.2449,48.5938 75.2449,49.4471 75.8137,50.3004 76.3826,50.8692 77.2359,51.1537 78.0892,50.8692 78.658,50.3004 79.2269,49.4471 79.2269,48.5938 79.2269,47.7405 78.658,46.8872 78.0892,46.3183 77.2359,46.0339 76.3826,46.3183 "
   class="fil1 str1"
   id="_543778336" />
    <polygon
   points="71.5473,49.7315 70.9784,50.5848 70.9784,51.4381 70.9784,52.5758 71.5473,53.4291 72.1161,53.998 72.9694,53.998 73.8227,53.998 74.3916,53.4291 74.9604,52.5758 75.2449,51.7225 74.9604,50.5848 74.3916,49.7315 73.8227,49.1626 72.9694,49.1626 72.1161,49.1626 "
   class="fil1 str1"
   id="_543778264" />
    <polygon
   points="67.8497,54.5668 67.2808,55.1357 67.2808,56.2734 67.2808,57.1267 67.8497,57.98 68.4185,58.5488 69.2718,58.8333 70.1251,58.5488 70.694,57.98 71.2628,57.1267 71.2628,56.2734 71.2628,55.1357 70.694,54.5668 70.1251,53.998 69.2718,53.7135 68.4185,53.998 "
   class="fil1 str1"
   id="_543778192" />
    <polygon
   points="101.128,32.0968 100.844,32.6657 97.4304,35.7944 94.0173,38.6387 90.8885,40.9142 88.0442,42.9052 85.4844,44.6117 82.9245,46.0339 78.3736,48.5938 74.676,50.5848 71.2628,52.8602 68.703,55.7045 67.5652,57.4111 66.4275,59.6866 66.9964,61.1087 67.5652,62.5309 67.5652,66.5129 67.5652,70.7794 68.1341,73.3392 68.703,75.8991 70.9784,76.1835 70.9784,72.2015 70.9784,68.2195 71.8317,64.8063 72.685,63.3842 73.8227,61.962 74.9604,58.5488 76.9514,55.7045 80.0802,52.8602 83.4934,50.5848 87.7598,47.7405 92.5951,44.6117 97.7149,40.6297 100.559,38.3543 103.403,35.7944 103.403,31.2435 101.697,31.5279 "
   class="fil2 str1"
   id="_543778120" />
    <polygon
   points="114.212,33.8034 114.781,34.6567 115.065,35.51 114.781,36.6477 114.212,37.501 113.643,38.0698 112.79,38.0698 111.936,38.0698 111.368,37.501 110.799,36.6477 110.799,35.7944 110.799,34.6567 111.368,33.8034 111.936,33.519 112.79,33.2345 113.643,33.2345 "
   class="fil1 str1"
   id="_543778048" />
    <polygon
   points="118.194,36.9321 118.763,37.501 118.763,38.6387 118.763,39.492 118.194,40.3453 117.625,40.9142 116.772,41.1986 115.918,40.9142 115.35,40.3453 114.781,39.492 114.781,38.6387 114.781,37.7854 115.35,36.9321 115.918,36.3633 116.772,36.0788 117.625,36.3633 "
   class="fil1 str1"
   id="_543777976" />
    <polygon
   points="122.46,39.492 123.029,40.3453 123.029,41.483 123.029,42.3363 122.46,43.1896 121.892,43.7585 121.038,44.0429 120.185,43.7585 119.616,43.1896 119.047,42.3363 118.763,41.483 119.047,40.6297 119.616,39.7764 120.185,39.2076 121.038,38.9231 121.892,39.2076 "
   class="fil1 str1"
   id="_543777904" />
    <polygon
   points="126.727,42.0519 127.011,42.6207 127.296,43.7585 127.011,44.6117 126.727,45.465 126.158,46.0339 125.305,46.3183 124.451,46.0339 123.598,45.465 123.314,44.6117 123.029,43.7585 123.314,42.9052 123.598,42.0519 124.451,41.483 125.305,41.1986 125.874,41.483 "
   class="fil1 str1"
   id="_543777832" />
    <polygon
   points="130.993,44.3273 131.562,44.8962 131.562,46.0339 131.562,46.8872 130.993,47.7405 130.424,48.3093 129.571,48.5938 128.718,48.3093 128.149,47.7405 127.58,47.1716 127.296,46.0339 127.58,45.1806 128.149,44.3273 128.718,43.7585 129.571,43.474 130.424,43.7585 "
   class="fil1 str1"
   id="_543777760" />
    <polygon
   points="135.26,46.6028 135.829,47.4561 135.829,48.5938 135.829,49.4471 135.26,50.3004 134.691,50.8692 133.838,51.1537 132.984,50.8692 132.415,50.3004 131.846,49.4471 131.846,48.5938 131.846,47.7405 132.415,46.8872 132.984,46.3183 133.838,46.0339 134.691,46.3183 "
   class="fil1 str1"
   id="_543777688" />
    <polygon
   points="139.526,49.7315 140.095,50.5848 140.095,51.4381 140.095,52.5758 139.526,53.4291 138.957,53.998 138.104,53.998 137.251,53.998 136.682,53.4291 136.113,52.5758 135.829,51.7225 136.113,50.5848 136.397,49.7315 137.251,49.1626 138.104,49.1626 138.957,49.1626 "
   class="fil1 str1"
   id="_543777616" />
    <polygon
   points="143.224,54.5668 143.793,55.1357 143.793,56.2734 143.793,57.1267 143.224,57.98 142.655,58.5488 141.802,58.8333 140.948,58.5488 140.38,57.98 139.811,57.1267 139.811,56.2734 139.811,55.1357 140.38,54.5668 140.948,53.998 141.802,53.7135 142.655,53.998 "
   class="fil1 str1"
   id="_543777544" />
    <polygon
   points="109.945,32.0968 110.23,32.6657 113.643,35.7944 117.056,38.6387 120.185,40.9142 123.029,42.9052 125.589,44.6117 128.149,46.0339 132.7,48.5938 136.397,50.5848 139.811,52.8602 142.37,55.7045 143.508,57.4111 144.646,59.6866 144.077,61.1087 143.508,62.5309 143.508,66.5129 143.224,70.7794 142.939,73.3392 142.37,75.8991 140.095,76.1835 140.095,72.2015 140.095,68.2195 139.242,64.8063 138.388,63.3842 137.251,61.962 136.113,58.5488 134.122,55.7045 130.993,52.8602 127.58,50.5848 123.314,47.7405 118.478,44.6117 113.359,40.6297 110.514,38.3543 107.67,35.7944 107.67,31.2435 109.376,31.5279 "
   class="fil2 str1"
   id="_543777472" />
    <polygon
   points="112.505,44.3273 119.616,45.465 123.029,46.3183 126.158,47.1716 128.718,48.0249 130.424,49.1626 133.553,50.8692 136.113,52.2914 138.957,53.1447 141.802,53.7135 144.362,54.2824 146.352,54.2824 148.628,54.2824 150.619,54.2824 153.748,54.5668 157.161,55.7045 161.143,57.4111 164.841,59.6866 166.547,60.8243 167.685,62.2464 168.538,63.3842 169.107,64.8063 170.529,67.3662 171.951,69.9261 153.748,104.342 57.3257,104.342 39.1222,69.9261 40.8288,67.3662 41.9665,64.8063 43.6731,62.2464 44.8108,60.8243 46.5174,59.6866 50.215,57.4111 54.197,55.7045 57.6102,54.5668 60.4545,54.2824 62.7299,54.2824 65.0054,54.2824 66.9964,54.2824 69.8407,53.7135 72.4006,53.1447 75.2449,52.2914 78.0892,50.8692 80.9335,49.1626 82.6401,48.0249 85.1999,47.1716 88.0442,46.3183 91.173,45.465 98.2837,44.3273 105.394,43.7585 108.808,44.0429 "
   class="fil3 str1"
   id="_543777400" />
    <path
   d="m 111.652,27.2615 c 0,3.4132 -2.8443,6.2575 -6.2575,6.2575 -3.1287,0 -5.973,-2.8443 -5.973,-6.2575 0,-3.1287 2.8443,-5.9731 5.973,-5.9731 3.4132,0 6.2575,2.8444 6.2575,5.9731 z"
   class="fil4 str1"
   id="_543777328" />
    <polygon
   points="102.55,15.031 102.55,16.4531 104.826,16.4531 104.826,21.5729 106.248,21.5729 106.248,16.4531 108.523,16.4531 108.523,15.031 106.248,15.031 106.248,12.7555 104.826,12.7555 104.826,15.031 "
   class="fil2 str1"
   id="_543777256" />
    <polygon
   points="102.835,25.5549 101.697,25.5549 100.559,25.8393 99.9903,25.8393 99.137,26.1238 98.8526,26.4082 98.8526,26.4082 98.8526,28.6836 98.8526,28.6836 98.8526,28.6836 99.137,28.6836 99.7059,28.9681 99.4215,28.6836 99.4215,28.3992 100.275,28.1148 101.412,28.1148 103.119,27.8303 105.679,27.8303 107.954,27.8303 109.661,28.1148 110.799,28.1148 111.652,28.3992 111.652,28.6836 111.368,28.9681 111.936,28.6836 112.221,28.6836 112.221,28.6836 112.221,28.6836 112.221,26.4082 112.221,26.4082 112.221,26.4082 111.936,26.1238 111.083,25.8393 110.514,25.8393 109.376,25.5549 108.239,25.5549 106.532,25.5549 106.532,21.004 104.541,21.004 104.541,25.5549 "
   class="fil2 str1"
   id="_543777184" />
    <polygon
   points="153.748,61.6776 153.179,62.5309 152.326,63.0997 151.757,63.3842 150.903,63.6686 150.05,63.953 145.784,55.989 146.352,55.7045 146.921,55.7045 147.206,55.4201 147.49,54.5668 147.49,53.4291 146.352,52.0069 144.646,50.8692 142.086,49.4471 139.242,48.3093 136.113,47.1716 129.571,45.1806 125.305,43.474 121.323,41.483 113.074,36.9321 109.376,34.9411 105.963,33.519 103.119,32.6657 101.981,32.6657 100.844,32.9501 102.55,32.3812 104.541,32.0968 107.101,32.3812 109.945,33.2345 110.23,33.2345 114.496,35.51 119.047,38.0698 123.598,40.3453 128.149,42.3363 130.424,43.1896 132.415,43.7585 136.682,44.8962 140.38,46.3183 143.793,47.7405 146.637,49.4471 148.912,51.1537 150.619,52.8602 151.188,54.2824 151.188,55.1357 151.188,55.7045 150.619,56.5578 150.619,57.1267 150.05,57.4111 149.481,57.4111 148.344,57.4111 151.472,61.6776 153.179,60.8243 154.601,59.4021 154.885,58.8333 154.317,60.8243 "
   class="fil0 str0"
   id="_543777112" />
    <polygon
   points="153.179,60.8243 151.472,61.6776 148.344,57.1267 149.766,57.1267 150.619,56.5578 151.188,55.4201 151.188,54.2824 150.619,52.8602 148.912,51.1537 146.637,49.4471 143.793,47.7405 140.38,46.3183 136.682,44.8962 132.415,43.7585 130.424,43.1896 128.149,42.3363 123.598,40.3453 119.047,38.0698 114.496,35.51 110.23,33.2345 109.945,33.2345 115.634,35.2255 121.607,37.7854 127.864,40.3453 133.553,42.0519 138.104,43.1896 142.37,44.8962 146.637,46.6028 150.05,48.5938 153.179,50.8692 154.032,52.0069 154.885,53.1447 155.454,54.5668 155.739,55.989 155.454,57.4111 154.885,58.8333 154.601,59.4021 "
   class="fil0 str0"
   id="_543777040" />
    <polygon
   points="111.652,34.0878 112.505,34.6567 113.643,34.9411 114.781,34.9411 115.634,34.3722 116.487,33.519 116.772,32.0968 116.487,30.9591 116.203,30.1058 115.35,29.2525 114.212,28.9681 113.074,28.9681 111.936,29.5369 111.368,30.6747 110.799,31.8124 111.083,32.9501 "
   class="fil1 str1"
   id="_543776968" />
    <polygon
   points="140.38,44.6117 141.233,45.465 142.37,45.7495 143.508,45.465 144.362,44.8962 145.215,44.0429 145.499,42.9052 145.215,41.7674 144.93,40.6297 144.077,39.7764 142.939,39.492 141.802,39.7764 140.664,40.3453 140.095,41.1986 139.526,42.3363 139.811,43.474 "
   class="fil1 str1"
   id="_543776896" />
    <polygon
   points="146.068,47.1716 146.921,48.0249 148.059,48.3093 149.197,48.0249 150.334,47.4561 150.903,46.6028 151.188,45.465 151.188,44.3273 150.619,43.1896 149.766,42.3363 148.628,42.0519 147.49,42.3363 146.637,42.9052 145.784,43.7585 145.499,44.8962 145.499,46.0339 "
   class="fil1 str1"
   id="_543776824" />
    <polygon
   points="150.619,51.7225 151.472,52.5758 152.61,52.8602 153.748,52.5758 154.601,52.0069 155.454,51.1537 155.739,50.0159 155.454,48.8782 155.17,47.7405 154.317,46.8872 153.179,46.6028 152.041,46.8872 150.903,47.4561 150.05,48.3093 149.766,49.4471 150.05,50.8692 "
   class="fil1 str1"
   id="_543776752" />
    <polygon
   points="117.056,36.3633 117.909,37.2166 119.047,37.501 120.185,37.501 121.323,36.9321 121.892,35.7944 122.46,34.6567 122.176,33.519 121.607,32.3812 120.754,31.8124 119.616,31.5279 118.478,31.5279 117.625,32.0968 116.772,32.9501 116.487,34.0878 116.487,35.51 "
   class="fil1 str1"
   id="_543776680" />
    <polygon
   points="122.745,39.2076 123.598,39.7764 124.736,40.0609 125.874,40.0609 126.727,39.492 127.58,38.3543 127.864,37.2166 127.58,36.0788 127.296,34.9411 126.442,34.3722 125.305,34.0878 124.167,34.0878 123.029,34.6567 122.46,35.7944 121.892,36.9321 122.176,38.0698 "
   class="fil1 str1"
   id="_543776608" />
    <polygon
   points="128.433,40.9142 129.287,41.7674 130.424,42.0519 131.562,41.7674 132.415,41.1986 133.269,40.3453 133.553,39.2076 133.553,38.0698 132.984,36.9321 132.131,36.0788 130.993,35.7944 129.856,36.0788 128.718,36.6477 128.149,37.501 127.58,38.6387 127.864,40.0609 "
   class="fil1 str1"
   id="_543776536" />
    <polygon
   points="134.122,42.6207 134.975,43.474 136.113,43.7585 137.251,43.7585 138.388,43.1896 138.957,42.0519 139.242,40.9142 139.242,39.7764 138.673,38.6387 137.82,38.0698 136.682,37.7854 135.544,37.7854 134.691,38.3543 133.838,39.2076 133.553,40.6297 133.553,41.7674 "
   class="fil1 str1"
   id="_543776464" />
    <polygon
   points="57.3257,61.6776 57.8946,62.5309 58.7479,63.0997 59.3168,63.3842 60.17,63.6686 61.0233,63.953 65.2898,55.989 64.7209,55.7045 64.1521,55.7045 63.8676,55.4201 63.5832,54.5668 63.5832,53.4291 64.7209,52.0069 66.4275,50.8692 68.9874,49.4471 71.8317,48.3093 74.9604,47.1716 81.5023,45.1806 85.7688,43.474 89.7508,41.483 97.9993,36.9321 101.697,34.9411 105.11,33.519 107.954,32.6657 109.092,32.6657 110.23,32.9501 108.523,32.3812 106.532,32.0968 103.972,32.3812 101.128,33.2345 100.844,33.2345 96.5772,35.51 92.0263,38.0698 87.4754,40.3453 82.9245,42.3363 80.649,43.1896 78.658,43.7585 74.3916,44.8962 70.694,46.3183 67.2808,47.7405 64.4365,49.4471 62.1611,51.1537 60.4545,52.8602 59.8856,54.2824 59.8856,55.7045 60.4545,56.5578 60.4545,57.1267 61.0233,57.4111 61.5922,57.4111 62.7299,57.4111 59.6012,61.6776 57.6102,60.8243 56.4725,59.4021 56.188,58.8333 56.7569,60.8243 "
   class="fil0 str0"
   id="_543776392" />
    <polygon
   points="57.6102,60.8243 59.6012,61.6776 62.7299,57.1267 61.3078,57.1267 60.4545,56.5578 59.8856,55.4201 59.8856,54.2824 60.4545,52.8602 62.1611,51.1537 64.4365,49.4471 67.2808,47.7405 70.694,46.3183 74.3916,44.8962 78.658,43.7585 80.649,43.1896 82.9245,42.3363 87.4754,40.3453 92.0263,38.0698 96.5772,35.51 100.844,33.2345 101.128,33.2345 95.4394,35.2255 89.4664,37.7854 83.2089,40.3453 77.5203,42.0519 72.9694,43.1896 68.703,44.8962 64.4365,46.6028 61.0233,48.5938 57.8946,50.8692 57.0413,52.0069 56.188,53.1447 55.6192,54.5668 55.3347,55.989 55.6192,57.4111 56.188,58.8333 56.4725,59.4021 "
   class="fil0 str0"
   id="_543776320" />
    <polygon
   points="99.4215,34.0878 98.5682,34.6567 97.4304,34.9411 96.2927,34.9411 95.4394,34.3722 94.5861,33.519 94.3017,32.0968 94.3017,30.9591 94.8706,30.1058 95.7239,29.2525 96.8616,28.9681 97.9993,28.9681 99.137,29.5369 99.7059,30.6747 100.275,31.8124 99.9903,32.9501 "
   class="fil1 str1"
   id="_543776248" />
    <polygon
   points="70.694,44.6117 69.8407,45.465 68.703,45.7495 67.5652,45.465 66.712,44.8962 65.8587,44.0429 65.5742,42.9052 65.8587,41.7674 66.1431,40.6297 66.9964,39.7764 68.1341,39.492 69.2718,39.7764 70.4095,40.3453 70.9784,41.1986 71.5473,42.3363 71.2628,43.474 "
   class="fil1 str1"
   id="_543776176" />
    <polygon
   points="65.0054,47.1716 64.1521,48.0249 63.0144,48.3093 61.8766,48.0249 60.7389,47.4561 60.17,46.6028 59.6012,45.465 59.8856,44.3273 60.4545,43.1896 61.3078,42.3363 62.4455,42.0519 63.5832,42.3363 64.4365,42.9052 65.2898,43.7585 65.5742,44.8962 65.5742,46.0339 "
   class="fil1 str1"
   id="_543776104" />
    <polygon
   points="60.4545,51.7225 59.6012,52.5758 58.4635,52.8602 57.3257,52.5758 56.4725,52.0069 55.6192,51.1537 55.3347,50.0159 55.3347,48.8782 55.9036,47.7405 56.7569,46.8872 57.8946,46.6028 59.0323,46.8872 60.17,47.4561 60.7389,48.3093 61.3078,49.4471 61.0233,50.8692 "
   class="fil1 str1"
   id="_543776032" />
    <polygon
   points="94.0173,36.3633 93.164,37.2166 92.0263,37.501 90.8885,37.501 89.7508,36.9321 89.182,35.7944 88.6131,34.6567 88.8975,33.519 89.4664,32.3812 90.3197,31.8124 91.4574,31.5279 92.5951,31.5279 93.4484,32.0968 94.3017,32.9501 94.5861,34.0878 94.5861,35.51 "
   class="fil1 str1"
   id="_543775960" />
    <polygon
   points="88.3287,39.2076 87.4754,39.7764 86.3377,40.0609 85.1999,40.0609 84.3466,39.492 83.4934,38.3543 83.2089,37.2166 83.2089,36.0788 83.7778,34.9411 84.6311,34.3722 85.7688,34.0878 86.9065,34.0878 88.0442,34.6567 88.6131,35.7944 89.182,36.9321 88.8975,38.0698 "
   class="fil1 str1"
   id="_543775888" />
    <polygon
   points="82.6401,40.9142 81.7868,41.7674 80.649,42.0519 79.5113,41.7674 78.658,41.1986 77.8047,40.3453 77.5203,39.2076 77.5203,38.0698 78.0892,36.9321 78.9425,36.0788 80.0802,35.7944 81.2179,36.0788 82.3556,36.6477 82.9245,37.501 83.2089,38.6387 83.2089,40.0609 "
   class="fil1 str1"
   id="_543775816" />
    <polygon
   points="76.9514,42.6207 76.0982,43.474 74.9604,43.7585 73.8227,43.7585 72.685,43.1896 72.1161,42.0519 71.8317,40.9142 71.8317,39.7764 72.4006,38.6387 73.2539,38.0698 74.3916,37.7854 75.5293,37.7854 76.3826,38.3543 77.2359,39.2076 77.5203,40.6297 77.5203,41.7674 "
   class="fil1 str1"
   id="_543775744" />
    <polygon
   points="100.275,34.3722 99.7059,36.9321 99.7059,39.7764 99.7059,40.3453 99.7059,40.9142 99.4215,44.0429 98.8526,46.6028 98.2837,48.8782 97.7149,50.8692 105.679,56.5578 113.359,50.8692 112.505,48.8782 111.936,46.6028 111.652,44.0429 111.368,40.9142 111.368,40.3453 111.368,39.7764 111.368,36.9321 110.799,34.3722 109.945,32.9501 108.523,32.0968 108.523,34.0878 108.523,34.6567 108.523,34.9411 108.523,36.0788 108.523,37.501 108.523,38.9231 108.523,40.6297 108.523,42.0519 108.808,43.1896 108.808,43.474 108.808,47.1716 109.376,48.5938 109.661,49.7315 105.679,53.4291 101.412,49.7315 101.697,48.5938 102.266,47.1716 102.266,43.474 102.266,43.1896 102.266,42.0519 102.55,40.6297 102.55,38.9231 102.55,37.501 102.55,36.0788 102.55,34.9411 102.55,34.6567 102.55,34.0878 102.55,32.0968 101.128,32.9501 "
   class="fil0 str1"
   id="_543775672" />
    <polygon
   points="102.55,34.6567 102.55,34.9411 102.55,36.0788 102.55,37.501 102.55,38.9231 102.55,40.6297 102.266,42.0519 102.266,43.1896 102.266,43.474 102.266,47.1716 101.697,48.5938 101.412,49.7315 105.679,53.4291 109.661,49.7315 109.376,48.5938 108.808,47.1716 108.808,43.474 108.808,43.1896 108.523,42.0519 108.523,40.6297 108.523,38.9231 108.523,37.501 108.523,36.0788 108.523,34.9411 108.523,34.6567 108.523,34.0878 108.523,32.0968 107.101,31.5279 105.679,31.2435 105.679,31.2435 103.972,31.5279 102.55,32.0968 102.55,34.0878 "
   class="fil0 str1"
   id="_543775600" />
    <path
   d="m 108.808,32.9501 c 0,1.991 -1.4222,3.6976 -3.4132,3.6976 -1.7066,0 -3.1287,-1.7066 -3.1287,-3.6976 0,-1.7066 1.4221,-3.4132 3.1287,-3.4132 1.991,0 3.4132,1.7066 3.4132,3.4132 z"
   class="fil1 str1"
   id="_543775528" />
    <path
   d="m 108.808,35.2255 c 0,1.9911 -1.4222,3.4132 -3.4132,3.4132 -1.7066,0 -3.1287,-1.4221 -3.1287,-3.4132 0,-1.991 1.4221,-3.4131 3.1287,-3.4131 1.991,0 3.4132,1.4221 3.4132,3.4131 z"
   class="fil1 str1"
   id="_543775456" />
    <path
   d="m 108.808,36.9321 c 0,1.991 -1.4222,3.6976 -3.4132,3.6976 -1.7066,0 -3.1287,-1.7066 -3.1287,-3.6976 0,-1.7066 1.4221,-3.4131 3.1287,-3.4131 1.991,0 3.4132,1.7065 3.4132,3.4131 z"
   class="fil1 str1"
   id="_543775384" />
    <path
   d="m 108.808,38.0698 c 0,1.9911 -1.4222,3.4132 -3.4132,3.4132 -1.7066,0 -3.1287,-1.4221 -3.1287,-3.4132 0,-1.991 1.4221,-3.4131 3.1287,-3.4131 1.991,0 3.4132,1.4221 3.4132,3.4131 z"
   class="fil1 str1"
   id="_543775312" />
    <path
   d="m 108.808,39.2076 c 0,1.7066 -1.4222,3.4131 -3.4132,3.4131 -1.7066,0 -3.1287,-1.7065 -3.1287,-3.4131 0,-1.991 1.4221,-3.6976 3.1287,-3.6976 1.991,0 3.4132,1.7066 3.4132,3.6976 z"
   class="fil1 str1"
   id="_543775240" />
    <path
   d="m 108.808,40.3453 c 0,1.7066 -1.4222,3.4132 -3.4132,3.4132 -1.7066,0 -3.1287,-1.7066 -3.1287,-3.4132 0,-1.991 1.4221,-3.6976 3.1287,-3.6976 1.991,0 3.4132,1.7066 3.4132,3.6976 z"
   class="fil1 str1"
   id="_543775168" />
    <path
   d="m 108.808,42.0519 c 0,1.991 -1.4222,3.4131 -3.4132,3.4131 -1.7066,0 -3.1287,-1.4221 -3.1287,-3.4131 0,-1.991 1.4221,-3.4132 3.1287,-3.4132 1.991,0 3.4132,1.4222 3.4132,3.4132 z"
   class="fil1 str1"
   id="_543775096" />
    <path
   d="m 108.808,46.6028 c 0,1.7065 -1.4222,3.4131 -3.4132,3.4131 -1.7066,0 -3.1287,-1.7066 -3.1287,-3.4131 0,-1.9911 1.4221,-3.6976 3.1287,-3.6976 1.991,0 3.4132,1.7065 3.4132,3.6976 z"
   class="fil1 str1"
   id="_543775024" />
    <polygon
   points="49.3617,96.6625 50.4994,97.8003 51.3527,98.6535 52.206,99.2224 53.0593,99.2224 53.3437,98.938 53.3437,98.0847 53.3437,96.6625 52.7749,94.6715 48.7928,86.9919 48.224,86.423 47.3707,86.423 46.8018,86.9919 46.5174,87.5608 45.6641,90.1206 47.6551,93.5338 "
   class="fil2 str1"
   id="_543774952" />
    <polygon
   points="48.7928,91.2584 47.0862,88.9829 45.3797,86.423 43.6731,83.2943 43.1042,83.0099 42.2509,83.0099 41.6821,83.2943 41.6821,83.8632 44.2419,88.1296 46.233,91.2584 47.9395,93.5338 49.3617,94.956 49.9305,92.9649 "
   class="fil2 str1"
   id="_543774880" />
    <polygon
   points="161.712,96.6625 160.574,97.8003 159.721,98.6535 158.867,99.2224 158.014,99.2224 157.73,98.938 157.73,98.0847 157.73,96.6625 158.299,94.6715 162.281,86.9919 162.85,86.423 163.703,86.423 164.272,86.9919 164.556,87.5608 165.409,90.1206 163.418,93.5338 "
   class="fil2 str1"
   id="_543774808" />
    <polygon
   points="163.134,93.5338 164.841,91.2584 166.832,88.1296 169.391,83.8632 169.391,83.2943 168.822,83.0099 167.969,83.0099 167.4,83.2943 165.694,86.423 163.703,88.9829 162.281,91.2584 160.858,92.9649 161.712,94.956 "
   class="fil2 str1"
   id="_543774736" />
    <polygon
   points="31.4426,64.2375 32.8647,64.5219 35.4246,65.6596 37.1312,67.0818 37.7,67.9351 37.9845,68.5039 38.8378,68.2195 39.4066,67.9351 41.1132,68.2195 40.8288,69.3572 40.8288,70.7794 40.5443,71.9171 40.2599,73.3392 41.6821,73.9081 42.2509,74.7614 43.3886,74.1925 44.5264,73.9081 44.5264,75.6147 44.5264,76.7524 44.2419,77.6057 43.9575,78.1745 43.3886,79.0278 43.1042,79.3123 43.3886,79.8811 45.3797,77.8901 47.6551,77.8901 48.224,78.1745 48.7928,78.7434 49.3617,79.3123 50.215,79.3123 49.6461,80.1656 49.0773,81.3033 47.9395,83.2943 46.8018,83.8632 45.3797,83.5787 47.0862,84.432 48.224,85.2853 49.0773,86.423 49.6461,87.5608 48.224,87.5608 47.3707,87.5608 49.3617,90.4051 51.3527,92.3961 50.4994,92.6805 45.6641,90.4051 41.3976,86.7075 36.5623,79.8811 36.2779,69.0728 34.8557,67.9351 33.4336,66.7973 32.8647,66.2285 31.727,65.6596 30.3048,65.3752 28.3138,65.3752 29.736,64.5219 "
   class="fil2 str1"
   id="_543774664" />
    <polygon
   points="32.2959,67.3662 33.4336,69.0728 34.5713,71.0638 35.709,75.6147 35.9935,77.8901 36.5623,80.1656 41.1132,86.7075 42.8198,88.6985 44.5264,90.4051 45.9485,91.8272 47.3707,92.6805 48.5084,92.6805 49.0773,92.6805 49.6461,92.6805 50.7838,92.6805 49.6461,92.1116 48.7928,91.2584 47.6551,89.8362 46.8018,88.9829 45.6641,88.1296 43.9575,87.2763 41.9665,86.423 42.5354,86.1386 43.1042,86.1386 44.5264,86.9919 45.9485,87.5608 47.0862,87.5608 48.7928,87.5608 47.3707,85.8542 45.9485,85.0009 44.5264,84.1476 43.3886,83.5787 44.5264,83.2943 45.3797,83.5787 46.233,83.8632 46.8018,83.5787 47.6551,83.0099 48.224,81.8721 48.5084,80.7344 49.3617,79.5967 48.224,79.0278 47.0862,78.459 45.9485,77.8901 44.5264,78.1745 43.9575,78.7434 43.3886,79.3123 42.5354,80.1656 41.6821,80.7344 41.6821,79.3123 42.2509,78.459 42.8198,77.8901 43.1042,77.0368 43.3886,76.468 43.3886,75.8991 43.1042,75.0458 43.3886,74.1925 41.6821,74.7614 40.5443,75.6147 39.9755,76.468 39.6911,77.3213 39.1222,78.7434 38.5533,79.5967 37.9845,80.1656 37.9845,79.0278 37.9845,78.459 38.5533,77.6057 39.4066,76.468 39.9755,75.8991 40.8288,74.7614 40.2599,74.1925 39.6911,73.9081 38.8378,73.6237 39.4066,72.4859 39.4066,71.3482 39.6911,69.9261 39.9755,68.5039 38.8378,68.2195 37.9845,68.5039 37.1312,69.3572 36.8467,68.5039 36.2779,67.6506 35.4246,66.7973 34.2869,65.944 32.8647,65.0907 31.4426,64.8063 29.736,64.8063 28.0294,65.3752 30.5893,66.2285 "
   class="fil2 str1"
   id="_543774592" />
    <polyline
   points="38.2689,71.3482 37.4156,73.6237 36.8467,75.8991 36.8467,78.1745 36.8467,80.45 "
   class="fil5 str2"
   id="_543774520" />
    <polyline
   points="40.5443,78.7434 39.6911,80.45 37.9845,81.8721 "
   class="fil5 str2"
   id="_543774448" />
    <polyline
   points="45.6641,81.0189 44.2419,81.3033 42.8198,81.8721 41.3976,82.7254 40.2599,83.0099 39.1222,83.0099 "
   class="fil5 str2"
   id="_543774376" />
    <polyline
   points="39.6911,84.1476 42.5354,84.7165 44.8108,85.5697 "
   class="fil5 str2"
   id="_543774304" />
    <polyline
   points="40.8288,86.1386 42.5354,87.8452 44.2419,88.9829 45.3797,89.8362 46.233,90.6895 "
   class="fil5 str2"
   id="_543774232" />
    <polygon
   points="39.4066,86.423 38.2689,86.423 37.1312,85.8542 36.2779,85.0009 35.709,83.8632 35.709,82.7254 35.9935,81.5877 36.8467,81.0189 36.8467,80.7344 40.5443,86.1386 "
   class="fil6 str1"
   id="_543774160" />
    <polygon
   points="40.5443,86.7075 41.1132,86.423 38.8378,82.7254 37.7,81.3033 36.8467,80.1656 35.9935,80.7344 "
   class="fil0 str1"
   id="_543774088" />
    <polygon
   points="179.631,64.2375 178.209,64.5219 175.649,65.6596 173.942,67.0818 173.373,67.9351 173.089,68.5039 172.236,68.2195 171.667,67.9351 169.96,68.2195 170.245,69.3572 170.245,70.7794 170.245,71.9171 170.814,73.3392 169.391,73.9081 168.822,74.7614 167.685,74.1925 166.547,73.9081 166.547,75.6147 166.547,76.7524 166.832,77.6057 167.116,78.1745 167.685,79.0278 167.969,79.3123 167.685,79.8811 165.694,77.8901 163.418,77.8901 162.85,78.1745 162.281,78.7434 161.712,79.3123 160.858,79.3123 161.427,80.1656 161.996,81.3033 163.134,83.2943 164.272,83.8632 165.694,83.5787 163.987,84.432 162.85,85.2853 161.996,86.423 161.427,87.5608 162.85,87.5608 163.703,87.5608 161.712,90.4051 159.721,92.3961 160.574,92.6805 165.409,90.4051 169.676,86.7075 174.511,79.8811 174.796,69.0728 176.218,67.9351 177.64,66.7973 178.209,66.2285 179.346,65.6596 180.769,65.3752 182.76,65.3752 181.337,64.5219 "
   class="fil2 str1"
   id="_543774016" />
    <polygon
   points="178.778,67.3662 177.64,69.0728 176.502,71.0638 175.364,75.6147 175.08,77.8901 174.511,80.1656 169.96,86.7075 168.254,88.6985 166.547,90.4051 165.125,91.8272 163.703,92.6805 162.565,92.6805 161.996,92.6805 161.427,92.6805 160.29,92.6805 161.427,92.1116 162.281,91.2584 163.418,89.8362 164.272,88.9829 165.409,88.1296 166.832,87.2763 169.107,86.423 168.538,86.1386 167.685,86.1386 166.547,86.9919 165.125,87.5608 163.987,87.5608 162.281,87.5608 163.703,85.8542 165.125,85.0009 166.547,84.1476 167.685,83.5787 166.547,83.2943 165.694,83.5787 164.841,83.8632 164.272,83.5787 163.418,83.0099 162.85,81.8721 162.565,80.7344 161.712,79.5967 162.85,79.0278 163.987,78.459 165.125,77.8901 166.547,78.1745 167.116,78.7434 167.685,79.3123 168.538,80.1656 169.391,80.7344 169.391,79.3123 168.822,78.459 168.254,77.8901 167.685,77.0368 167.685,76.468 167.685,75.8991 167.685,75.0458 167.685,74.1925 169.391,74.7614 170.529,75.6147 171.098,76.468 171.382,77.3213 171.951,78.7434 172.52,79.5967 173.089,80.1656 173.089,79.0278 173.089,78.459 172.52,77.6057 171.667,76.468 171.098,75.8991 170.245,74.7614 170.814,74.1925 171.382,73.9081 171.951,73.6237 171.667,72.4859 171.667,71.3482 171.382,69.9261 171.098,68.5039 172.236,68.2195 173.089,68.5039 173.942,69.3572 174.227,68.5039 174.796,67.6506 175.649,66.7973 176.787,65.944 178.209,65.0907 179.631,64.8063 181.337,64.8063 183.044,65.3752 180.484,66.2285 "
   class="fil2 str1"
   id="_543773944" />
    <polyline
   points="172.805,71.3482 173.658,73.6237 174.227,75.8991 174.227,78.1745 174.227,80.45 "
   class="fil5 str2"
   id="_543773872" />
    <polyline
   points="170.529,78.7434 170.814,79.8811 171.382,80.45 173.089,81.8721 "
   class="fil5 str2"
   id="_543773800" />
    <polyline
   points="165.409,81.0189 166.832,81.3033 168.254,81.8721 169.676,82.7254 170.814,83.0099 171.951,83.0099 "
   class="fil5 str2"
   id="_543773728" />
    <polyline
   points="171.382,84.1476 168.538,84.7165 166.263,85.5697 "
   class="fil5 str2"
   id="_543773656" />
    <polyline
   points="170.245,86.1386 168.538,87.8452 166.832,88.9829 165.694,89.8362 164.841,90.6895 "
   class="fil5 str2"
   id="_543773584" />
    <polygon
   points="171.667,86.423 172.805,86.423 173.942,85.8542 174.796,85.0009 175.364,83.8632 175.364,82.7254 175.08,81.5877 174.227,81.0189 174.227,80.7344 170.529,86.1386 "
   class="fil6 str1"
   id="_543773512" />
    <polygon
   points="170.529,86.7075 169.96,86.423 171.951,82.7254 173.089,81.3033 174.227,80.1656 175.08,80.7344 "
   class="fil0 str1"
   id="_543773440" />
    <polygon
   points="104.826,75.0458 104.257,79.0278 103.403,81.0189 102.55,83.0099 101.412,84.7165 99.9903,86.423 97.9993,87.5608 95.4394,88.1296 92.8796,88.1296 90.6041,87.2763 88.3287,85.8542 86.3377,83.8632 84.6311,81.8721 83.4934,79.5967 82.6401,77.6057 82.3556,75.8991 82.0712,75.3302 81.2179,75.0458 80.649,75.3302 80.3646,75.8991 80.649,80.1656 80.0802,84.1476 79.5113,85.8542 78.3736,87.2763 77.2359,88.414 75.5293,89.2673 73.8227,89.2673 71.8317,88.9829 70.1251,87.8452 68.1341,86.7075 66.4275,84.7165 64.7209,82.7254 61.8766,77.8901 61.3078,77.0368 60.4545,77.0368 59.8856,77.3213 59.8856,77.8901 60.7389,80.45 61.3078,83.0099 61.5922,85.0009 61.5922,86.9919 61.5922,88.6985 61.0233,89.8362 60.4545,90.9739 59.6012,91.5428 58.4635,91.5428 57.3257,90.9739 55.9036,89.8362 54.197,88.1296 52.7749,86.423 51.0683,84.432 48.5084,80.1656 47.9395,79.8811 47.0862,79.8811 46.5174,80.1656 46.5174,80.7344 47.9395,84.1476 49.6461,87.2763 50.4994,90.6895 51.0683,93.8182 49.9305,92.9649 49.3617,94.956 50.4994,95.8092 51.3527,96.3781 52.206,96.3781 52.7749,96.0937 53.3437,95.2404 53.3437,93.8182 53.0593,91.8272 52.206,89.2673 54.4814,90.9739 56.7569,92.6805 57.8946,93.2494 59.3168,93.5338 60.17,93.5338 61.3078,92.9649 62.7299,91.5428 63.5832,89.5518 63.8676,87.2763 63.8676,84.432 66.4275,87.2763 69.5563,89.8362 70.9784,90.6895 72.685,91.2584 74.3916,91.5428 75.8137,91.2584 78.658,90.1206 80.649,88.1296 81.7868,85.2853 82.6401,81.8721 84.9155,85.0009 87.7598,87.8452 89.7508,88.9829 91.4574,89.8362 93.7328,90.4051 95.7239,90.4051 97.9993,89.8362 99.7059,88.9829 101.128,87.5608 102.55,86.1386 104.541,83.2943 105.11,82.1566 105.679,81.0189 105.963,82.1566 106.532,83.2943 108.523,86.1386 109.661,87.5608 111.368,88.9829 113.074,89.8362 115.35,90.4051 117.341,90.4051 119.616,89.8362 121.323,88.9829 123.314,87.8452 126.158,85.0009 128.433,81.8721 129.287,85.2853 130.424,88.1296 132.415,90.1206 135.26,91.2584 136.682,91.5428 138.388,91.2584 140.095,90.6895 141.517,89.8362 144.646,87.2763 147.206,84.432 147.206,87.2763 147.49,89.5518 148.344,91.5428 149.766,92.9649 150.903,93.5338 151.757,93.5338 153.179,93.2494 154.317,92.6805 156.592,90.9739 158.867,89.2673 158.014,91.8272 157.73,93.8182 157.73,95.2404 158.299,96.0937 158.867,96.3781 159.721,96.3781 160.574,95.8092 161.712,94.956 160.858,92.9649 160.005,93.8182 160.574,90.6895 161.427,87.2763 163.134,84.1476 164.556,80.7344 164.556,80.1656 163.987,79.8811 163.134,79.8811 162.565,80.1656 160.005,84.432 158.299,86.423 156.876,88.1296 155.17,89.8362 153.748,90.9739 152.61,91.5428 151.472,91.5428 150.619,90.9739 150.05,89.8362 149.481,88.6985 149.481,86.9919 149.481,85.0009 149.766,83.0099 150.334,80.45 151.188,77.8901 151.188,77.3213 150.619,77.0368 149.766,77.0368 149.197,77.8901 146.352,82.7254 144.646,84.7165 142.939,86.7075 140.948,87.8452 139.242,88.9829 137.251,89.2673 135.544,89.2673 133.838,88.414 132.7,87.2763 131.562,85.8542 130.993,84.1476 130.424,80.1656 130.709,75.8991 130.424,75.3302 129.856,75.0458 129.287,75.0458 128.718,75.8991 128.433,77.6057 127.58,79.5967 126.442,81.8721 124.736,83.8632 122.745,85.8542 120.469,87.2763 118.194,88.1296 115.634,88.1296 113.074,87.5608 111.083,86.423 109.661,84.7165 108.523,83.0099 107.67,81.0189 106.817,79.0278 106.248,75.0458 105.963,74.7614 105.679,74.477 105.11,74.7614 "
   class="fil2 str1"
   id="_543773368" />
    <path
   d="m 132.984,75.0458 c 0,1.7066 -1.4222,3.1287 -3.1288,3.1287 -1.991,0 -3.4131,-1.4221 -3.4131,-3.1287 0,-1.4221 1.4221,-2.8443 3.4131,-2.8443 1.7066,0 3.1288,1.4222 3.1288,2.8443 z"
   class="fil1 str1"
   id="_543773296" />
    <polygon
   points="131.278,77.8901 131.278,78.459 130.709,78.459 130.709,78.7434 130.424,79.0278 130.424,79.3123 130.14,79.3123 129.002,79.5967 128.149,79.3123 127.864,79.0278 127.864,78.7434 127.864,78.459 127.58,78.1745 127.58,77.8901 127.296,77.3213 129.287,77.8901 "
   class="fil2 str1"
   id="_543773224" />
    <path
   d="m 84.6311,75.0458 c 0,1.7066 -1.4222,3.1287 -3.1288,3.1287 -1.991,0 -3.4131,-1.4221 -3.4131,-3.1287 0,-1.4221 1.4221,-2.8443 3.4131,-2.8443 1.7066,0 3.1288,1.4222 3.1288,2.8443 z"
   class="fil1 str1"
   id="_543773152" />
    <polygon
   points="79.7958,77.8901 79.7958,78.459 80.0802,78.459 80.3646,78.7434 80.3646,79.0278 80.649,79.3123 80.9335,79.3123 81.7868,79.5967 82.9245,79.3123 83.2089,79.0278 83.2089,78.7434 83.2089,78.459 83.4934,78.1745 83.4934,77.8901 83.7778,77.3213 81.7868,77.8901 "
   class="fil2 str1"
   id="_543773080" />
    <polygon
   points="45.6641,82.7254 46.8018,82.7254 48.224,82.7254 49.3617,82.1566 49.9305,81.0189 50.4994,79.8811 50.215,78.7434 49.6461,77.6057 48.5084,77.0368 47.3707,76.7524 45.9485,77.0368 45.0952,77.6057 44.2419,78.459 43.9575,79.5967 43.9575,80.7344 44.8108,81.8721 "
   class="fil1 str1"
   id="_543773008" />
    <polygon
   points="46.5174,82.7254 46.8018,83.2943 47.0862,83.2943 47.3707,83.2943 47.6551,83.8632 48.224,83.8632 49.0773,83.5787 49.9305,83.0099 50.215,82.7254 50.215,82.7254 49.9305,82.1566 49.9305,81.8721 50.215,81.5877 49.9305,81.3033 48.5084,82.1566 "
   class="fil2 str1"
   id="_543772936" />
    <polygon
   points="165.409,82.7254 164.272,82.7254 162.85,82.7254 161.712,82.1566 161.143,81.0189 160.574,79.8811 160.858,78.7434 161.427,77.6057 162.565,77.0368 163.703,76.7524 165.125,77.0368 165.978,77.6057 166.832,78.459 167.116,79.5967 167.116,80.7344 166.263,81.8721 "
   class="fil1 str1"
   id="_543772864" />
    <polygon
   points="164.556,82.7254 164.272,83.2943 163.987,83.2943 163.703,83.2943 163.418,83.8632 162.85,83.8632 161.996,83.5787 161.143,83.0099 160.858,82.7254 160.858,82.7254 161.143,82.1566 161.143,81.8721 160.858,81.5877 161.143,81.3033 162.565,82.1566 "
   class="fil2 str1"
   id="_543772792" />
    <polygon
   points="93.164,62.5309 94.3017,62.8153 96.0083,63.3842 96.8616,63.953 97.4304,64.8063 99.137,66.2285 101.128,66.7973 102.55,67.0818 103.119,67.0818 103.403,67.0818 101.412,72.7704 90.3197,68.5039 90.3197,68.2195 90.6041,67.9351 91.4574,67.6506 92.3107,67.6506 93.4484,67.9351 94.3017,68.5039 95.4394,68.7883 96.8616,68.7883 92.5951,62.5309 "
   class="fil2 str1"
   id="_543772720" />
    <polygon
   points="117.909,62.5309 116.772,62.8153 115.065,63.3842 114.212,63.953 113.643,64.8063 111.936,66.2285 109.945,66.7973 108.523,67.0818 107.954,67.0818 107.67,67.0818 109.661,72.7704 120.754,68.5039 120.754,68.2195 120.469,67.9351 119.616,67.6506 118.763,67.6506 117.625,67.9351 116.772,68.5039 115.634,68.7883 114.212,68.7883 118.478,62.5309 "
   class="fil2 str1"
   id="_543772648" />
    <polygon
   points="102.835,50.5848 101.981,52.5758 101.412,54.8512 100.275,54.2824 99.137,53.998 97.9993,54.5668 96.8616,54.8512 97.146,55.989 97.146,57.4111 97.4304,59.1177 97.7149,60.8243 97.146,61.1087 96.5772,61.3931 95.4394,62.5309 95.7239,63.0997 96.5772,63.6686 98.5682,64.5219 100.844,65.944 101.697,66.7973 102.266,67.9351 100.275,67.3662 99.137,66.7973 97.9993,65.944 97.4304,65.0907 96.5772,64.2375 95.7239,63.3842 94.3017,62.8153 92.3107,62.5309 92.3107,64.2375 92.5951,65.3752 92.8796,66.2285 93.4484,66.7973 94.8706,67.6506 95.155,68.5039 95.4394,69.3572 94.3017,69.0728 93.4484,68.5039 92.8796,67.9351 91.7418,67.9351 90.3197,68.2195 89.182,69.3572 88.3287,70.2105 87.1909,71.0638 88.6131,71.9171 89.7508,72.7704 90.8885,73.6237 92.3107,74.1925 93.164,74.1925 93.7328,73.6237 94.5861,73.3392 95.7239,73.3392 95.155,74.1925 94.5861,74.7614 93.4484,75.6147 92.8796,76.7524 92.8796,77.6057 93.164,78.7434 95.155,78.7434 96.5772,78.459 97.4304,77.6057 97.9993,77.0368 99.137,75.6147 99.9903,75.3302 101.412,75.3302 99.4215,76.7524 98.2837,78.1745 97.4304,79.3123 97.146,80.1656 97.4304,82.1566 97.146,83.2943 96.8616,84.432 99.137,83.5787 100.844,83.2943 102.835,82.7254 104.257,81.8721 105.679,81.0189 106.817,81.8721 108.239,82.7254 110.23,83.2943 111.936,83.5787 114.212,84.432 113.927,83.2943 113.643,82.1566 113.927,80.1656 113.643,79.3123 112.79,78.1745 111.652,76.7524 109.661,75.3302 111.083,75.3302 111.936,75.6147 112.79,77.0368 113.643,77.6057 114.496,78.459 115.918,78.7434 117.909,78.7434 118.194,77.6057 118.194,76.7524 117.625,75.6147 116.487,74.7614 115.918,74.1925 115.35,73.3392 116.487,73.3392 117.341,73.6237 117.909,74.1925 118.763,74.1925 120.185,73.6237 121.323,72.7704 122.46,71.9171 123.882,71.0638 122.745,70.2105 121.892,69.3572 120.754,68.2195 119.332,67.9351 118.194,67.9351 117.625,68.5039 116.772,69.0728 115.634,69.3572 115.918,68.5039 116.203,67.6506 117.625,66.7973 118.194,66.2285 118.478,65.3752 118.763,64.2375 118.763,62.5309 116.772,62.8153 115.35,63.3842 114.496,64.2375 113.643,65.0907 113.074,65.944 111.936,66.7973 110.799,67.3662 108.808,67.9351 109.376,66.7973 110.23,65.944 112.505,64.5219 114.496,63.6686 115.065,63.0997 115.634,62.5309 114.496,61.3931 113.927,61.1087 113.359,60.8243 113.643,59.1177 113.927,57.4111 113.927,55.989 114.212,54.8512 113.074,54.5668 111.936,53.998 110.799,54.2824 109.661,54.8512 109.092,52.5758 108.239,50.5848 107.101,48.8782 105.679,47.1716 105.679,47.1716 105.394,47.1716 103.972,48.8782 "
   class="fil2 str1"
   id="_543772576" />
    <polyline
   points="105.679,68.2195 105.679,67.9351 105.679,67.3662 105.394,66.5129 105.394,65.3752 105.394,62.5309 105.394,59.1177 105.679,55.989 105.679,53.1447 105.679,52.0069 105.679,51.1537 105.679,50.5848 105.679,50.3004 "
   class="fil5 str2"
   id="_543772504" />
    <polyline
   points="104.541,74.477 103.972,76.1835 102.835,78.1745 101.412,79.8811 99.9903,81.3033 "
   class="fil5 str2"
   id="_543772432" />
    <polyline
   points="102.266,72.4859 100.844,73.0548 98.8526,73.6237 97.4304,74.477 96.0083,75.3302 "
   class="fil5 str2"
   id="_543772360" />
    <polyline
   points="101.981,71.9171 99.9903,71.9171 97.9993,71.9171 95.155,71.0638 93.164,70.4949 92.3107,70.4949 91.4574,70.7794 "
   class="fil5 str2"
   id="_543772288" />
    <polyline
   points="102.266,69.9261 101.981,69.9261 101.128,69.6416 100.275,69.3572 98.8526,69.0728 98.2837,68.7883 97.4304,67.9351 96.2927,66.5129 "
   class="fil5 str2"
   id="_543772216" />
    <polyline
   points="104.826,67.9351 104.826,67.6506 104.541,66.7973 103.972,65.3752 103.403,63.3842 102.266,61.3931 101.128,59.6866 100.559,58.8333 100.275,58.5488 "
   class="fil5 str2"
   id="_543772144" />
    <polyline
   points="106.532,74.477 107.101,76.1835 108.239,78.1745 109.661,79.8811 111.083,81.3033 "
   class="fil5 str2"
   id="_543772072" />
    <polyline
   points="108.808,72.4859 110.23,73.0548 111.936,73.6237 113.643,74.477 115.065,75.3302 "
   class="fil5 str2"
   id="_543772000" />
    <polyline
   points="109.092,71.9171 111.083,71.9171 113.074,71.9171 115.918,71.0638 117.909,70.4949 118.763,70.4949 119.616,70.7794 "
   class="fil5 str2"
   id="_543771928" />
    <polyline
   points="108.808,69.9261 109.092,69.9261 109.945,69.6416 110.799,69.3572 112.221,69.0728 112.79,68.7883 113.643,67.9351 114.781,66.5129 "
   class="fil5 str2"
   id="_543771856" />
    <polyline
   points="106.248,67.9351 106.248,67.6506 106.532,66.7973 107.101,65.3752 107.67,63.3842 108.808,61.3931 109.945,59.6866 110.514,58.8333 110.799,58.5488 "
   class="fil5 str2"
   id="_543771784" />
    <path
   d="m 109.661,71.3482 c 0,1.991 -1.7066,3.6976 -3.9821,3.6976 -2.2754,0 -3.982,-1.7066 -3.982,-3.6976 0,-1.991 1.7066,-3.6976 3.982,-3.6976 2.2755,0 3.9821,1.7066 3.9821,3.6976 z"
   class="fil2 str1"
   id="_543771712" />
    <path
   d="m 108.808,71.3482 c 0,1.7066 -1.4222,3.1288 -3.1288,3.1288 -1.7066,0 -3.1287,-1.4222 -3.1287,-3.1288 0,-1.7066 1.4221,-3.1287 3.1287,-3.1287 1.7066,0 3.1288,1.4221 3.1288,3.1287 z"
   class="fil1 str1"
   id="_543771640" />
    <polygon
   points="81.5023,90.4051 69.5563,91.5428 63.5832,92.3961 57.6102,93.2494 54.7659,94.1027 51.9216,94.956 49.3617,96.3781 48.5084,97.5158 47.9395,98.6535 47.9395,99.7913 48.224,100.645 49.9305,102.067 51.9216,103.204 53.9126,104.058 58.4635,105.195 62.7299,106.049 71.8317,107.187 81.2179,107.755 90.3197,108.04 104.541,108.324 118.763,108.324 132.984,107.471 147.206,106.049 151.188,105.48 154.885,104.627 158.867,103.489 162.281,101.498 162.85,100.645 163.134,99.5068 163.134,98.6535 162.565,97.5158 161.143,96.0937 159.152,95.2404 155.454,93.8182 151.757,92.9649 144.362,91.8272 136.682,90.9739 129.002,90.4051 117.341,90.1206 105.394,89.8362 93.4484,90.1206 "
   class="fil2 str1"
   id="_543771568" />
    <polygon
   points="93.4484,93.8182 88.0442,94.1027 83.2089,94.1027 79.7958,94.3871 74.9604,94.6715 70.694,95.2404 66.712,95.5248 63.5832,95.8092 60.7389,96.3781 58.179,96.947 56.188,97.2314 54.7659,97.8003 53.6281,98.0847 51.9216,98.938 51.0683,99.5068 50.7838,99.7913 50.4994,100.076 50.215,100.36 50.215,100.645 53.0593,110.884 63.0144,110.884 148.059,110.884 158.014,110.884 160.858,100.645 160.858,100.36 160.574,100.076 160.29,99.7913 159.436,98.938 158.299,98.6535 157.161,98.0847 157.161,98.0847 155.739,97.5158 153.748,97.2314 151.472,96.6625 148.628,96.0937 145.215,95.5248 141.233,95.2404 136.682,94.6715 131.278,94.3871 131.278,94.3871 127.864,94.1027 123.029,94.1027 117.625,93.8182 111.936,93.8182 105.679,93.8182 99.137,93.8182 "
   class="fil2 str1"
   id="_543771496" />
    <path
   d="m 130.424,98.938 c 0,1.991 -1.7066,3.6976 -3.4132,3.6976 -1.991,0 -3.6976,-1.7066 -3.6976,-3.6976 0,-1.991 1.7066,-3.6976 3.6976,-3.6976 1.7066,0 3.4132,1.7066 3.4132,3.6976 z"
   class="fil2 str1"
   id="_543771424" />
    <path
   d="m 130.709,98.938 c 0,1.991 -1.7066,3.6976 -3.6976,3.6976 -1.7066,0 -3.4131,-1.7066 -3.4131,-3.6976 0,-1.991 1.7065,-3.6976 3.4131,-3.6976 1.991,0 3.6976,1.7066 3.6976,3.6976 z"
   class="fil2 str1"
   id="_543771352" />
    <path
   d="m 130.424,98.938 c 0,1.7066 -1.4222,3.1287 -3.1287,3.1287 -1.7066,0 -3.1288,-1.4221 -3.1288,-3.1287 0,-1.7066 1.4222,-3.1288 3.1288,-3.1288 1.7065,0 3.1287,1.4222 3.1287,3.1288 z"
   class="fil1 str1"
   id="_543771280" />
    <path
   d="m 87.7598,98.938 c 0,1.991 -1.7066,3.6976 -3.4132,3.6976 -1.991,0 -3.6976,-1.7066 -3.6976,-3.6976 0,-1.991 1.7066,-3.6976 3.6976,-3.6976 1.7066,0 3.4132,1.7066 3.4132,3.6976 z"
   class="fil2 str1"
   id="_543771208" />
    <path
   d="m 87.4754,98.938 c 0,1.991 -1.7066,3.6976 -3.6976,3.6976 -1.7066,0 -3.4132,-1.7066 -3.4132,-3.6976 0,-1.991 1.7066,-3.6976 3.4132,-3.6976 1.991,0 3.6976,1.7066 3.6976,3.6976 z"
   class="fil2 str1"
   id="_543771136" />
    <path
   d="m 86.9065,98.938 c 0,1.7066 -1.4221,3.1287 -3.1287,3.1287 -1.7066,0 -3.1288,-1.4221 -3.1288,-3.1287 0,-1.7066 1.4222,-3.1288 3.1288,-3.1288 1.7066,0 3.1287,1.4222 3.1287,3.1288 z"
   class="fil1 str1"
   id="_543771064" />
    <polygon
   points="66.9964,96.6625 72.4006,99.5068 72.9694,99.2224 67.2808,96.3781 "
   class="fil5 str1"
   id="_543770992" />
    <polygon
   points="66.9964,104.342 72.4006,99.5068 72.9694,99.2224 67.2808,104.058 "
   class="fil5 str1"
   id="_543770920" />
    <polyline
   points="66.9964,104.342 61.5922,101.498 66.712,96.6625 "
   class="fil5 str1"
   id="_543770848" />
    <polygon
   points="62.7299,101.213 66.712,97.5158 70.9784,99.7913 66.712,103.489 "
   class="fil7 str1"
   id="_543770776" />
    <polygon
   points="63.8676,100.929 65.8587,98.938 68.1341,100.076 65.8587,102.067 "
   class="fil5 str1"
   id="_543770704" />
    <line
   y2="102.067"
   x2="65.858704"
   y1="103.489"
   x1="66.711998"
   class="fil5 str1"
   id="_543770632" />
    <line
   y2="100.929"
   x2="63.867599"
   y1="101.213"
   x1="62.7299"
   class="fil5 str1"
   id="_543770560" />
    <line
   y2="99.791298"
   x2="70.978401"
   y1="100.076"
   x1="68.134102"
   class="fil5 str1"
   id="_543770488" />
    <line
   y2="97.5158"
   x2="66.711998"
   y1="98.938004"
   x1="65.858704"
   class="fil5 str1"
   id="_543770416" />
    <polygon
   points="144.077,96.6625 138.673,99.5068 138.104,99.2224 143.793,96.3781 "
   class="fil5 str1"
   id="_543770344" />
    <polygon
   points="144.077,104.342 138.673,99.5068 138.104,99.2224 143.793,104.058 "
   class="fil5 str1"
   id="_543770272" />
    <polyline
   points="144.077,104.342 149.481,101.498 144.362,96.6625 "
   class="fil5 str1"
   id="_543770200" />
    <polygon
   points="148.344,101.213 144.362,97.5158 140.095,99.7913 144.362,103.489 "
   class="fil7 str1"
   id="_543770128" />
    <polygon
   points="147.206,100.929 145.215,98.938 142.939,100.076 145.215,102.067 "
   class="fil5 str1"
   id="_543770056" />
    <line
   y2="102.067"
   x2="145.215"
   y1="103.489"
   x1="144.362"
   class="fil5 str1"
   id="_543769984" />
    <line
   y2="100.929"
   x2="147.20599"
   y1="101.213"
   x1="148.34399"
   class="fil5 str1"
   id="_543769912" />
    <line
   y2="99.791298"
   x2="140.095"
   y1="100.076"
   x1="142.939"
   class="fil5 str1"
   id="_543769840" />
    <line
   y2="97.5158"
   x2="144.362"
   y1="98.938004"
   x1="145.215"
   class="fil5 str1"
   id="_543769768" />
    <polygon
   points="110.514,94.956 111.936,95.8092 112.79,96.947 113.074,98.3691 112.79,99.7913 111.936,101.213 110.514,101.782 109.092,102.067 101.981,102.067 100.559,101.782 99.137,101.213 98.2837,99.7913 97.9993,98.3691 98.2837,96.947 99.137,95.8092 100.559,94.956 101.981,94.6715 109.092,94.6715 "
   class="fil0 str1"
   id="_543769696" />
    <polygon
   points="110.23,95.5248 111.083,96.0937 111.936,97.2314 112.221,98.3691 111.936,99.7913 111.083,100.645 110.23,101.498 108.808,101.782 102.266,101.782 100.844,101.498 99.9903,100.645 99.137,99.7913 98.8526,98.3691 99.137,97.2314 99.9903,96.0937 100.844,95.5248 102.266,95.2404 108.808,95.2404 "
   class="fil3 str1"
   id="_543769624" />
    <path
   d="m 49.9305,92.9649 -0.8532,1.7066 0.5688,0.2845 0.5689,-1.7066 z m 111.212,0 v 0 l -0.2844,0.2845 0.5688,1.7066 0.5689,-0.2845 z"
   class="fil2 str1"
   id="_543769552" />
    <polygon
   points="55.6192,54.2824 56.7569,54.5668 57.6102,55.1357 58.4635,55.989 59.6012,58.2644 60.17,59.971 62.7299,59.4021 64.4365,59.4021 65.8587,59.6866 65.5742,61.1087 65.5742,61.962 65.2898,63.3842 65.0054,65.0907 66.1431,65.3752 66.9964,65.944 67.2808,66.2285 67.8497,66.5129 65.5742,67.9351 63.2988,69.0728 61.8766,70.2105 61.3078,71.0638 61.0233,71.9171 65.2898,71.3482 66.4275,69.6416 67.5652,68.2195 68.9874,67.0818 70.1251,66.5129 71.2628,66.5129 71.2628,67.9351 71.2628,68.7883 70.694,69.6416 70.1251,70.2105 68.9874,71.0638 68.4185,71.9171 68.1341,73.0548 69.2718,73.0548 70.9784,73.0548 74.1071,73.0548 75.5293,73.0548 76.667,73.0548 77.5203,73.3392 77.8047,73.6237 76.667,74.1925 76.0982,74.7614 74.9604,75.6147 74.3916,76.468 73.2539,77.0368 72.4006,77.3213 71.5473,76.7524 70.9784,76.1835 70.1251,75.8991 69.2718,76.1835 69.2718,76.1835 69.8407,76.468 70.9784,77.0368 72.4006,77.6057 73.8227,78.7434 74.3916,79.5967 74.3916,80.7344 74.3916,81.0189 72.1161,81.3033 70.4095,81.0189 69.2718,80.45 68.1341,79.8811 69.2718,81.0189 70.1251,81.8721 71.2628,83.5787 72.1161,85.0009 72.685,85.8542 73.2539,86.7075 72.685,86.7075 69.5563,86.423 67.2808,85.8542 65.0054,84.7165 62.7299,83.8632 62.7299,85.0009 62.1611,86.1386 61.3078,87.2763 60.4545,88.414 60.17,88.414 57.6102,82.7254 57.3257,83.0099 57.0413,83.2943 56.4725,83.2943 53.6281,76.468 52.7749,75.8991 52.206,75.0458 52.206,74.477 51.9216,73.6237 52.4904,73.6237 52.7749,73.6237 53.3437,73.6237 52.206,70.7794 51.9216,68.7883 52.7749,69.0728 53.0593,69.3572 53.3437,69.9261 53.9126,71.6326 54.4814,73.3392 55.9036,68.7883 53.3437,60.8243 54.7659,60.2554 54.7659,59.4021 54.7659,58.8333 55.0503,57.4111 55.0503,56.5578 55.0503,55.989 54.197,55.4201 53.0593,54.8512 54.197,54.2824 "
   class="fil2 str1"
   id="_543769480" />
    <polygon
   points="55.3347,54.5668 56.4725,55.1357 57.6102,55.7045 58.7479,57.6956 59.3168,59.971 62.1611,59.4021 63.5832,59.4021 65.0054,59.6866 64.4365,61.3931 64.4365,62.8153 64.4365,64.2375 63.5832,65.6596 65.0054,65.6596 65.5742,65.944 66.1431,66.2285 66.712,66.7973 65.5742,67.6506 64.1521,68.5039 61.8766,69.3572 60.4545,70.4949 59.8856,71.3482 59.6012,72.4859 61.5922,71.6326 62.7299,71.0638 63.5832,70.4949 64.1521,69.9261 64.7209,68.7883 65.2898,68.2195 65.8587,67.6506 68.1341,66.7973 70.694,66.5129 70.694,67.9351 70.4095,69.0728 70.1251,69.9261 69.5563,70.4949 68.1341,71.3482 67.5652,71.9171 66.9964,73.0548 68.9874,72.4859 70.1251,71.9171 71.2628,71.0638 72.4006,70.7794 73.5383,70.7794 74.9604,71.6326 77.5203,73.3392 76.3826,73.9081 75.5293,74.477 74.3916,75.8991 73.2539,76.7524 72.1161,77.0368 71.2628,76.7524 70.4095,76.468 69.5563,76.1835 68.4185,76.7524 69.8407,77.3213 71.5473,78.1745 72.9694,79.0278 73.5383,79.8811 73.8227,81.0189 72.4006,81.3033 70.9784,81.0189 68.1341,80.45 65.5742,79.5967 62.7299,79.0278 64.4365,79.5967 65.8587,79.8811 68.1341,81.0189 69.2718,82.1566 70.1251,83.0099 70.694,83.8632 70.9784,85.0009 71.5473,85.8542 72.685,86.7075 70.694,86.423 68.4185,86.423 65.8587,85.8542 64.4365,85.2853 62.7299,84.432 62.4455,85.2853 61.5922,86.1386 60.7389,87.2763 60.17,88.414 59.3168,86.423 58.179,85.0009 57.3257,83.0099 57.3257,81.5877 57.3257,80.1656 57.0413,80.7344 57.0413,81.8721 57.0413,82.7254 56.7569,83.2943 56.188,83.2943 55.3347,82.441 54.7659,81.3033 54.4814,79.5967 54.4814,79.3123 54.197,79.3123 53.9126,79.5967 53.6281,79.3123 53.3437,79.0278 52.4904,78.1745 51.3527,77.0368 51.3527,76.1835 51.3527,75.0458 51.6371,74.1925 51.9216,73.6237 52.4904,74.477 53.3437,74.7614 52.7749,73.3392 51.9216,72.2015 51.9216,71.6326 51.6371,70.7794 51.9216,68.7883 52.4904,69.9261 52.7749,71.3482 53.3437,72.2015 54.4814,73.0548 54.197,71.6326 53.9126,70.7794 52.7749,69.6416 52.4904,69.3572 52.206,68.7883 52.206,67.9351 52.7749,66.7973 52.7749,65.944 52.7749,64.8063 52.7749,62.5309 52.7749,61.3931 53.0593,60.8243 53.3437,60.8243 53.9126,61.1087 53.9126,59.1177 54.197,57.1267 53.9126,55.7045 53.6281,55.1357 52.7749,54.8512 54.197,54.5668 "
   class="fil2 str1"
   id="_543769408" />
    <polyline
   points="56.188,72.4859 55.9036,69.3572 55.6192,66.7973 55.9036,64.5219 55.9036,62.5309 56.188,59.1177 56.188,57.4111 55.6192,55.989 "
   class="fil5 str2"
   id="_543769336" />
    <polyline
   points="61.8766,63.3842 59.6012,65.6596 58.179,67.9351 57.3257,70.2105 57.0413,72.4859 "
   class="fil5 str2"
   id="_543769264" />
    <polyline
   points="60.7389,75.6147 63.8676,75.3302 66.712,74.7614 69.2718,73.9081 72.685,73.6237 "
   class="fil5 str2"
   id="_543769192" />
    <polyline
   points="60.4545,74.477 62.7299,73.6237 64.4365,72.7704 65.5742,71.3482 66.4275,70.2105 "
   class="fil5 str2"
   id="_543769120" />
    <polyline
   points="60.7389,76.468 63.0144,76.7524 65.2898,77.0368 66.9964,77.6057 68.1341,78.459 "
   class="fil5 str2"
   id="_543769048" />
    <polyline
   points="59.3168,79.0278 60.4545,80.1656 61.5922,81.0189 63.5832,82.1566 65.2898,82.7254 67.2808,83.5787 "
   class="fil5 str2"
   id="_543768976" />
    <polyline
   points="58.7479,78.7434 58.7479,80.7344 59.0323,82.1566 59.3168,83.5787 59.8856,84.7165 "
   class="fil5 str2"
   id="_543768904" />
    <line
   y2="80.165604"
   x2="55.619202"
   y1="78.459"
   x1="56.188"
   class="fil5 str2"
   id="_543768832" />
    <polyline
   points="55.0503,76.7524 54.197,76.7524 53.6281,76.7524 53.0593,76.7524 52.206,76.7524 "
   class="fil5 str2"
   id="_543768760" />
    <polyline
   points="55.0503,74.477 54.197,74.1925 53.3437,73.3392 "
   class="fil5 str2"
   id="_543768688" />
    <polyline
   points="55.6192,73.0548 55.0503,69.0728 54.197,66.7973 53.3437,64.2375 "
   class="fil5 str2"
   id="_543768616" />
    <polygon
   points="57.3257,79.0278 58.4635,79.0278 59.6012,78.7434 60.4545,77.8901 61.0233,76.7524 61.0233,75.3302 60.4545,73.9081 59.6012,73.0548 58.4635,72.2015 57.3257,72.2015 56.188,72.4859 55.3347,73.3392 54.7659,74.7614 54.7659,75.8991 55.3347,77.3213 56.188,78.459 "
   class="fil2 str1"
   id="_543768544" />
    <polygon
   points="57.0413,79.0278 58.179,79.3123 59.3168,79.0278 60.17,78.1745 60.7389,76.7524 60.7389,75.6147 60.17,74.1925 59.3168,73.0548 58.179,72.4859 57.0413,72.4859 55.9036,72.7704 55.0503,73.6237 54.4814,74.7614 54.7659,76.1835 55.0503,77.3213 55.9036,78.459 "
   class="fil2 str1"
   id="_543768472" />
    <polygon
   points="57.0413,78.7434 58.179,78.7434 59.0323,78.459 59.8856,77.8901 60.17,76.7524 60.17,75.6147 59.8856,74.477 59.0323,73.6237 58.179,73.0548 57.0413,72.7704 55.9036,73.0548 55.3347,73.9081 55.0503,75.0458 55.0503,76.1835 55.3347,77.3213 56.188,78.1745 "
   class="fil1 str1"
   id="_543768400" />
    <polygon
   points="155.454,54.2824 154.317,54.5668 153.463,55.1357 152.61,55.989 151.472,58.2644 150.903,59.971 148.344,59.4021 146.637,59.4021 145.215,59.6866 145.499,61.1087 145.499,61.962 145.784,63.3842 146.068,65.0907 144.93,65.3752 144.077,65.944 143.793,66.2285 143.224,66.5129 145.499,67.9351 147.775,69.0728 149.197,70.2105 149.766,71.0638 150.05,71.9171 145.784,71.3482 144.646,69.6416 143.508,68.2195 142.086,67.0818 140.948,66.5129 139.811,66.5129 139.811,67.9351 139.811,68.7883 140.38,69.6416 140.948,70.2105 142.086,71.0638 142.655,71.9171 142.939,73.0548 141.802,73.0548 140.095,73.0548 136.966,73.0548 135.544,73.0548 134.406,73.0548 133.553,73.3392 133.269,73.6237 134.406,74.1925 134.975,74.7614 136.113,75.6147 136.682,76.468 137.82,77.0368 138.673,77.3213 139.526,76.7524 140.095,76.1835 140.948,75.8991 141.802,76.1835 141.802,76.1835 141.233,76.468 140.095,77.0368 138.673,77.6057 137.251,78.7434 136.682,79.5967 136.682,80.7344 136.682,81.0189 138.957,81.3033 140.664,81.0189 141.802,80.45 142.939,79.8811 141.802,81.0189 140.664,81.8721 139.811,83.5787 138.957,85.0009 138.388,85.8542 137.82,86.7075 138.388,86.7075 141.517,86.423 143.793,85.8542 146.068,84.7165 148.344,83.8632 148.344,85.0009 148.912,86.1386 149.766,87.2763 150.619,88.414 150.903,88.414 153.463,82.7254 153.748,83.0099 154.032,83.2943 154.601,83.2943 157.445,76.468 158.299,75.8991 158.867,75.0458 158.867,74.477 159.152,73.6237 158.583,73.6237 158.299,73.6237 157.73,73.6237 158.867,70.7794 159.152,68.7883 158.299,69.0728 158.014,69.3572 157.73,69.9261 157.161,71.6326 156.592,73.3392 155.17,68.7883 157.73,60.8243 156.308,60.2554 156.308,59.4021 156.308,58.8333 156.023,57.4111 155.739,56.5578 156.023,55.989 156.876,55.4201 158.014,54.8512 156.876,54.2824 "
   class="fil2 str1"
   id="_543768328" />
    <polygon
   points="155.739,54.5668 154.601,55.1357 153.463,55.7045 152.326,57.6956 151.757,59.971 148.912,59.4021 147.49,59.4021 146.068,59.6866 146.637,61.3931 146.637,62.8153 146.637,64.2375 147.49,65.6596 146.068,65.6596 145.499,65.944 144.93,66.2285 144.362,66.7973 145.499,67.6506 146.921,68.5039 149.197,69.3572 150.619,70.4949 151.188,71.3482 151.472,72.4859 149.481,71.6326 148.344,71.0638 147.49,70.4949 146.921,69.9261 146.352,68.7883 145.784,68.2195 145.215,67.6506 142.939,66.7973 140.38,66.5129 140.38,67.9351 140.664,69.0728 140.948,69.9261 141.517,70.4949 142.939,71.3482 143.508,71.9171 144.077,73.0548 142.086,72.4859 140.948,71.9171 139.811,71.0638 138.673,70.7794 137.535,70.7794 136.113,71.6326 133.269,73.3392 134.691,73.9081 135.544,74.477 136.682,75.8991 137.82,76.7524 138.957,77.0368 139.811,76.7524 140.664,76.468 141.517,76.1835 142.655,76.7524 141.233,77.3213 139.526,78.1745 138.104,79.0278 137.535,79.8811 137.251,81.0189 138.673,81.3033 140.095,81.0189 142.939,80.45 145.499,79.5967 148.344,79.0278 146.637,79.5967 145.215,79.8811 142.939,81.0189 141.802,82.1566 140.948,83.0099 140.38,83.8632 140.095,85.0009 139.526,85.8542 138.388,86.7075 140.38,86.423 142.655,86.423 145.215,85.8542 146.637,85.2853 148.344,84.432 148.628,85.2853 149.481,86.1386 150.334,87.2763 150.903,88.414 151.757,86.423 152.894,85.0009 153.748,83.0099 153.748,81.5877 153.748,80.1656 154.032,80.7344 154.032,81.8721 154.032,82.7254 154.317,83.2943 154.885,83.2943 155.739,82.441 156.308,81.3033 156.592,79.5967 156.592,79.3123 156.876,79.3123 157.161,79.5967 157.161,79.3123 157.73,79.0278 158.583,78.1745 159.721,77.0368 159.721,76.1835 159.721,75.0458 159.436,74.1925 159.152,73.6237 158.583,74.477 157.73,74.7614 158.299,73.3392 158.867,72.2015 159.152,71.6326 159.152,70.7794 159.152,68.7883 158.583,69.9261 158.299,71.3482 157.73,72.2015 156.592,73.0548 156.876,71.6326 157.161,70.7794 158.299,69.6416 158.583,69.3572 158.867,68.7883 158.867,67.9351 158.299,66.7973 158.299,65.944 158.299,64.8063 158.299,62.5309 158.299,61.3931 158.014,60.8243 157.73,60.8243 157.161,61.1087 157.161,59.1177 156.876,57.1267 157.161,55.7045 157.445,55.1357 158.299,54.8512 156.876,54.5668 "
   class="fil2 str1"
   id="_543768256" />
    <polyline
   points="154.885,72.4859 155.17,69.3572 155.454,66.7973 155.17,64.5219 155.17,62.5309 154.885,59.1177 154.885,57.4111 155.454,55.989 "
   class="fil5 str2"
   id="_543768184" />
    <polyline
   points="149.197,63.3842 151.472,65.6596 152.894,67.9351 153.748,70.2105 154.032,72.4859 "
   class="fil5 str2"
   id="_543768112" />
    <polyline
   points="150.334,75.6147 147.206,75.3302 144.362,74.7614 141.802,73.9081 138.388,73.6237 "
   class="fil5 str2"
   id="_543768040" />
    <polyline
   points="150.619,74.477 148.344,73.6237 146.637,72.7704 145.499,71.3482 144.646,70.2105 "
   class="fil5 str2"
   id="_543767968" />
    <polyline
   points="150.334,76.468 148.059,76.7524 145.784,77.0368 144.077,77.6057 142.939,78.459 "
   class="fil5 str2"
   id="_543767896" />
    <polyline
   points="151.757,79.0278 150.619,80.1656 149.481,81.0189 147.49,82.1566 145.784,82.7254 143.793,83.5787 "
   class="fil5 str2"
   id="_543767824" />
    <polyline
   points="152.326,78.7434 152.326,80.7344 152.041,82.1566 151.757,83.5787 151.188,84.7165 "
   class="fil5 str2"
   id="_543767752" />
    <line
   y2="80.165604"
   x2="155.45399"
   y1="78.459"
   x1="154.88499"
   class="fil5 str2"
   id="_543767680" />
    <polyline
   points="156.023,76.7524 156.876,76.7524 157.445,76.7524 158.014,76.7524 158.867,76.7524 "
   class="fil5 str2"
   id="_543767608" />
    <polyline
   points="156.023,74.477 156.876,74.1925 157.73,73.3392 "
   class="fil5 str2"
   id="_543767536" />
    <polyline
   points="155.454,73.0548 156.023,69.0728 156.592,66.7973 157.73,64.2375 "
   class="fil5 str2"
   id="_543767464" />
    <polygon
   points="153.748,79.0278 152.61,79.0278 151.472,78.7434 150.619,77.8901 150.05,76.7524 150.05,75.3302 150.619,73.9081 151.472,73.0548 152.61,72.2015 153.748,72.2015 154.885,72.4859 155.739,73.3392 156.308,74.7614 156.308,75.8991 155.739,77.3213 154.885,78.459 "
   class="fil2 str1"
   id="_543767392" />
    <polygon
   points="154.032,79.0278 152.894,79.3123 151.757,79.0278 150.903,78.1745 150.334,76.7524 150.334,75.6147 150.903,74.1925 151.757,73.0548 152.894,72.4859 154.032,72.4859 155.17,72.7704 156.023,73.6237 156.592,74.7614 156.308,76.1835 156.023,77.3213 155.17,78.459 "
   class="fil2 str1"
   id="_543767320" />
    <polygon
   points="154.032,78.7434 152.894,78.7434 152.041,78.459 151.188,77.8901 150.903,76.7524 150.903,75.6147 151.188,74.477 152.041,73.6237 152.894,73.0548 154.032,72.7704 154.885,73.0548 155.739,73.9081 156.023,75.0458 156.023,76.1835 155.739,77.3213 154.885,78.1745 "
   class="fil1 str1"
   id="_543767248" />
    <polyline
   points="80.649,78.7434 81.7868,78.7434 83.2089,78.459 "
   class="fil5 str2"
   id="_543767176" />
    <polyline
   points="130.709,78.7434 129.287,78.7434 127.864,78.459 "
   class="fil5 str2"
   id="_543767104" />
    <polyline
   points="163.418,83.2943 162.281,83.0099 161.143,82.1566 "
   class="fil5 str2"
   id="_543767032" />
    <polyline
   points="47.6551,83.2943 48.7928,83.0099 49.9305,82.1566 "
   class="fil5 str2"
   id="_543766960" />
    <polygon
   points="51.6371,109.177 50.4994,108.609 49.3617,107.755 48.7928,106.618 48.5084,105.195 48.7928,103.773 49.6461,102.92 50.4994,102.351 50.4994,102.351 53.0593,109.177 52.7749,109.177 "
   class="fil3 str1"
   id="_543766888" />
    <polygon
   points="52.4904,109.746 53.3437,109.462 52.206,104.911 51.6371,103.204 50.7838,101.498 49.9305,101.782 "
   class="fil0 str1"
   id="_543766816" />
    <polygon
   points="56.7569,99.5068 57.6102,100.645 57.8946,102.067 58.179,103.489 58.4635,104.911 58.179,105.764 57.6102,106.333 57.6102,106.333 57.6102,106.333 56.188,106.902 55.6192,104.627 55.0503,102.92 54.4814,101.213 53.9126,98.938 55.6192,98.6535 56.188,98.938 "
   class="fil2 str1"
   id="_543766744" />
    <polygon
   points="54.7659,106.049 55.6192,106.618 56.188,106.902 56.7569,106.333 57.0413,105.48 57.0413,104.058 56.7569,102.636 56.188,100.929 55.6192,99.7913 54.7659,99.2224 53.9126,98.938 53.6281,99.5068 53.3437,100.36 53.3437,101.782 53.6281,103.204 54.197,104.911 "
   class="fil2 str1"
   id="_543766672" />
    <polygon
   points="52.7749,101.213 52.4904,102.351 52.7749,103.489 53.0593,104.627 53.9126,105.48 54.7659,106.333 55.9036,106.618 56.4725,106.049 56.7569,104.911 56.4725,102.636 55.9036,101.213 55.3347,100.36 54.7659,99.5068 53.9126,99.5068 53.0593,100.36 "
   class="fil1 str1"
   id="_543766600" />
    <polygon
   points="159.436,109.177 160.574,108.609 161.712,107.755 162.281,106.618 162.565,105.195 162.281,103.773 161.427,102.92 160.574,102.351 160.29,102.351 158.014,109.177 158.299,109.177 "
   class="fil3 str1"
   id="_543766528" />
    <polygon
   points="158.583,109.746 157.73,109.462 158.867,104.911 159.436,103.204 160.29,101.498 161.143,101.782 "
   class="fil0 str1"
   id="_543766456" />
    <polygon
   points="154.317,99.5068 153.463,100.645 153.179,102.067 152.894,103.489 152.61,104.911 152.894,105.764 153.463,106.333 153.463,106.333 153.463,106.333 154.885,106.902 155.454,104.627 156.023,102.92 156.592,101.213 157.161,98.938 155.454,98.6535 154.885,98.938 "
   class="fil2 str1"
   id="_543766384" />
    <polygon
   points="156.308,106.049 155.454,106.618 154.885,106.902 154.317,106.333 154.032,105.48 154.032,104.058 154.317,102.636 154.885,100.929 155.454,99.7913 156.308,99.2224 156.876,98.938 157.445,99.5068 157.73,100.36 157.73,101.782 157.445,103.204 156.876,104.911 "
   class="fil2 str1"
   id="_543766312" />
    <polygon
   points="158.299,101.213 158.583,102.351 158.299,103.489 158.014,104.627 157.161,105.48 156.308,106.333 154.885,106.618 154.601,106.049 154.317,104.911 154.601,102.636 155.17,101.213 155.739,100.36 156.308,99.5068 157.161,99.5068 158.014,100.36 "
   class="fil1 str1"
   id="_543766240" />
    <polygon
   points="57.6102,111.168 58.4635,110.884 59.3168,110.6 60.7389,110.315 62.4455,109.746 64.7209,109.462 67.2808,108.893 70.1251,108.324 73.5383,108.04 77.5203,107.471 82.0712,107.187 86.9065,106.902 92.5951,106.618 98.8526,106.333 105.679,106.333 112.221,106.333 118.478,106.618 124.167,106.902 129.002,107.187 133.553,107.471 137.535,108.04 140.948,108.324 143.793,108.893 146.352,109.462 148.628,109.746 150.334,110.315 151.757,110.6 152.61,110.884 153.463,111.168 153.748,111.453 153.748,111.453 153.463,111.737 152.894,112.022 151.757,112.306 150.619,112.591 148.912,113.16 146.921,113.444 144.646,114.013 141.517,114.297 138.104,114.866 134.122,115.15 129.856,115.719 124.736,116.004 119.047,116.288 112.505,116.288 105.679,116.573 98.5682,116.288 92.0263,116.288 86.3377,116.004 81.2179,115.719 76.667,115.15 72.685,114.866 69.2718,114.297 66.4275,114.013 64.1521,113.444 62.1611,113.16 60.4545,112.591 59.0323,112.306 58.179,112.022 57.6102,111.737 57.0413,111.453 57.3257,111.453 "
   class="fil8 str1"
   id="_543766168" />
    <line
   y2="105.48"
   x2="93.164001"
   y1="117.141"
   x1="93.164001"
   class="fil5 str2"
   id="_543766096" />
    <line
   y2="105.48"
   x2="90.888496"
   y1="117.141"
   x1="90.888496"
   class="fil5 str1"
   id="_543766024" />
    <line
   y2="105.48"
   x2="88.897499"
   y1="117.141"
   x1="88.897499"
   class="fil5 str1"
   id="_543765952" />
    <line
   y2="105.48"
   x2="86.906502"
   y1="117.141"
   x1="86.906502"
   class="fil5 str1"
   id="_543765880" />
    <line
   y2="105.48"
   x2="84.915497"
   y1="117.141"
   x1="84.915497"
   class="fil5 str3"
   id="_543765808" />
    <line
   y2="106.049"
   x2="81.502296"
   y1="116.573"
   x1="81.502296"
   class="fil5 str3"
   id="_543765736" />
    <line
   y2="105.764"
   x2="83.2089"
   y1="116.857"
   x1="83.2089"
   class="fil5 str3"
   id="_543765664" />
    <line
   y2="106.333"
   x2="78.089203"
   y1="116.288"
   x1="78.089203"
   class="fil5 str3"
   id="_543765592" />
    <line
   y2="106.049"
   x2="79.795799"
   y1="116.288"
   x1="79.795799"
   class="fil5 str3"
   id="_543765520" />
    <line
   y2="106.902"
   x2="73.822701"
   y1="115.719"
   x1="73.822701"
   class="fil5 str3"
   id="_543765448" />
    <line
   y2="106.618"
   x2="75.244904"
   y1="115.719"
   x1="75.244904"
   class="fil5 str3"
   id="_543765376" />
    <line
   y2="106.618"
   x2="76.667"
   y1="116.004"
   x1="76.667"
   class="fil5 str3"
   id="_543765304" />
    <line
   y2="107.187"
   x2="72.400597"
   y1="115.435"
   x1="72.400597"
   class="fil5 str4"
   id="_543765232" />
    <line
   y2="107.471"
   x2="70.978401"
   y1="115.15"
   x1="70.978401"
   class="fil5 str4"
   id="_543765160" />
    <line
   y2="107.755"
   x2="69.271797"
   y1="114.866"
   x1="69.271797"
   class="fil5 str4"
   id="_543765088" />
    <line
   y2="108.609"
   x2="66.143097"
   y1="114.297"
   x1="66.143097"
   class="fil5 str4"
   id="_543765016" />
    <line
   y2="108.04"
   x2="67.849701"
   y1="114.582"
   x1="67.849701"
   class="fil5 str4"
   id="_543764944" />
    <line
   y2="108.609"
   x2="64.436501"
   y1="113.728"
   x1="64.436501"
   class="fil5 str4"
   id="_543764872" />
    <line
   y2="109.177"
   x2="63.0144"
   y1="113.444"
   x1="63.0144"
   class="fil5 str5"
   id="_543764800" />
    <line
   y2="109.462"
   x2="61.592201"
   y1="112.875"
   x1="61.592201"
   class="fil5 str5"
   id="_543764728" />
    <line
   y2="110.031"
   x2="59.885601"
   y1="112.591"
   x1="59.885601"
   class="fil5 str5"
   id="_543764656" />
    <line
   y2="110.884"
   x2="58.179001"
   y1="112.022"
   x1="58.179001"
   class="fil5 str6"
   id="_543764584" />
    <line
   y2="106.049"
   x2="101.981"
   y1="116.573"
   x1="101.981"
   class="fil5 str2"
   id="_543764512" />
    <line
   y2="105.764"
   x2="98.283699"
   y1="116.857"
   x1="98.283699"
   class="fil5 str2"
   id="_543764440" />
    <line
   y2="105.48"
   x2="95.4394"
   y1="117.141"
   x1="95.4394"
   class="fil5 str2"
   id="_543764368" />
    <line
   y2="105.48"
   x2="117.909"
   y1="117.141"
   x1="117.909"
   class="fil5 str2"
   id="_543764296" />
    <line
   y2="105.48"
   x2="120.185"
   y1="117.141"
   x1="120.185"
   class="fil5 str1"
   id="_543764224" />
    <line
   y2="105.48"
   x2="122.176"
   y1="117.141"
   x1="122.176"
   class="fil5 str1"
   id="_543764152" />
    <line
   y2="105.48"
   x2="124.167"
   y1="117.141"
   x1="124.167"
   class="fil5 str1"
   id="_543764080" />
    <line
   y2="105.48"
   x2="126.158"
   y1="117.141"
   x1="126.158"
   class="fil5 str3"
   id="_543764008" />
    <line
   y2="106.049"
   x2="129.571"
   y1="116.573"
   x1="129.571"
   class="fil5 str3"
   id="_543763936" />
    <line
   y2="105.764"
   x2="127.864"
   y1="116.857"
   x1="127.864"
   class="fil5 str3"
   id="_543763864" />
    <line
   y2="106.333"
   x2="132.98399"
   y1="116.288"
   x1="132.98399"
   class="fil5 str3"
   id="_543763792" />
    <line
   y2="106.049"
   x2="131.278"
   y1="116.288"
   x1="131.278"
   class="fil5 str3"
   id="_543763720" />
    <line
   y2="106.902"
   x2="137.25101"
   y1="115.719"
   x1="137.25101"
   class="fil5 str3"
   id="_543763648" />
    <line
   y2="106.618"
   x2="135.82899"
   y1="115.719"
   x1="135.82899"
   class="fil5 str3"
   id="_543763576" />
    <line
   y2="106.618"
   x2="134.40601"
   y1="116.004"
   x1="134.40601"
   class="fil5 str3"
   id="_543763504" />
    <line
   y2="107.187"
   x2="138.673"
   y1="115.435"
   x1="138.673"
   class="fil5 str4"
   id="_543763432" />
    <line
   y2="107.471"
   x2="140.095"
   y1="115.15"
   x1="140.095"
   class="fil5 str4"
   id="_543763360" />
    <line
   y2="107.755"
   x2="141.802"
   y1="114.866"
   x1="141.802"
   class="fil5 str4"
   id="_543763288" />
    <line
   y2="108.609"
   x2="144.92999"
   y1="114.297"
   x1="144.92999"
   class="fil5 str4"
   id="_543763216" />
    <line
   y2="108.04"
   x2="143.224"
   y1="114.582"
   x1="143.224"
   class="fil5 str4"
   id="_543763144" />
    <line
   y2="108.609"
   x2="146.63699"
   y1="113.728"
   x1="146.63699"
   class="fil5 str4"
   id="_543763072" />
    <line
   y2="109.177"
   x2="148.05901"
   y1="113.444"
   x1="148.05901"
   class="fil5 str5"
   id="_543763000" />
    <line
   y2="109.462"
   x2="149.481"
   y1="112.875"
   x1="149.481"
   class="fil5 str5"
   id="_543762928" />
    <line
   y2="110.031"
   x2="151.188"
   y1="112.591"
   x1="151.188"
   class="fil5 str5"
   id="_543762856" />
    <line
   y2="110.884"
   x2="152.894"
   y1="112.022"
   x1="152.894"
   class="fil5 str6"
   id="_543762784" />
    <line
   y2="106.049"
   x2="109.092"
   y1="116.573"
   x1="109.092"
   class="fil5 str2"
   id="_543762712" />
    <line
   y2="105.764"
   x2="112.79"
   y1="116.857"
   x1="112.79"
   class="fil5 str2"
   id="_543762640" />
    <line
   y2="105.48"
   x2="115.634"
   y1="117.141"
   x1="115.634"
   class="fil5 str2"
   id="_543762568" />
    <path
   d="M 105.394,102.92 H 94.5856 l -11.0927,0.5689 -11.0928,0.8533 -10.8084,1.7065 -2.8443,0.5689 -2.5599,0.8533 -2.2754,1.4221 -0.8533,0.8533 -0.5689,1.1378 v 1.1377 l 0.2845,0.8533 1.4221,1.4221 1.991,0.8533 1.7066,0.5689 8.2485,1.991 8.5329,1.1377 8.2485,0.5689 8.5329,0.2844 13.0838,0.2844 13.0838,-0.2844 13.0838,-0.5689 13.0838,-1.1377 3.6976,-0.8533 3.6976,-0.5688 3.4132,-1.4222 3.1287,-1.7066 0.5689,-0.8533 0.2844,-0.8532 v -0.8533 l -0.2844,-0.8533 -1.4222,-1.4222 -1.991,-0.8533 -6.8263,-1.991 -6.8264,-1.1377 -7.1107,-0.8533 -7.1108,-0.2844 -10.8083,-0.5689 z m 0.2844,3.4132 h 6.5419 l 6.2575,0.2844 5.6886,0.2844 4.8353,0.2845 4.5509,0.2844 3.982,0.5689 3.4132,0.2844 2.8443,0.5688 2.5599,0.5689 2.2754,0.2844 1.7066,0.5689 1.4222,0.2844 0.8533,0.2845 0.8533,0.2844 0.2844,0.2844 v 0 l -0.2844,0.2845 -0.5689,0.2844 -1.1377,0.2844 -1.1377,0.2844 -1.7066,0.5689 -1.991,0.2844 -2.2755,0.5689 -3.1287,0.2844 -3.4132,0.5689 -3.982,0.2844 -4.2665,0.5689 -5.1197,0.2844 -5.6886,0.2844 h -6.5419 l -6.8264,0.2845 -7.1107,-0.2845 h -6.5419 l -5.6886,-0.2844 -5.1198,-0.2844 -4.5509,-0.5689 -3.982,-0.2844 -3.4132,-0.5689 -2.8443,-0.2844 -2.2754,-0.5689 -1.991,-0.2844 -1.7066,-0.5689 -1.1377,-0.2844 -1.1378,-0.2844 -0.5688,-0.2844 -0.2845,-0.2845 v 0 l 0.2845,-0.2844 0.8533,-0.2844 0.8533,-0.2845 1.4221,-0.2844 1.7066,-0.5689 2.2754,-0.2844 2.5599,-0.5689 2.8443,-0.5688 3.4132,-0.2844 3.982,-0.5689 4.5509,-0.2844 4.8353,-0.2845 5.6886,-0.2844 6.2575,-0.2844 z"
   class="fil2 str1"
   id="_543762496" />
   </g>
   <g
   id="g316">
    <path
   d="M 156.996,260.983 35.226,114.427 h 140.71 c -0.0579,34.0773 0.1157,68.1577 -0.0882,102.232 -0.5876,16.5429 -7.7076,32.3107 -18.8524,44.3233 z"
   class="fil6"
   id="_544349112" />
    <g
   id="g276"
   clip-path="url(#id0)">
     <g
   id="g274">
      <g
   id="g272">
       <path
   d="m 120.578,134.936 c 0,-1.0102 0,-1.3824 0,-5.1042 2.8977,0 1.9406,0 8.6931,0 v 5.1042 h 6.1676 c 0,-1.0102 0,-1.3824 0,-5.1042 2.8977,0 1.9407,0 8.6931,0 0,1.8609 0,1.6748 0,5.1042 h 6.1676 v -5.1042 h 8.6931 v 25.1223 l -53.2487,-12.5213 v -6.5132 h -0.0265 v -6.0878 h 8.6931 v 5.1042 z"
   class="fil9 str7"
   id="_5428873921" />
       <path
   d="m 62.0394,148.308 c 6.3802,-17.0407 27.0895,-20.7359 36.8992,-6.5664 l -12.601,35.703 z"
   class="fil10 str7"
   id="_542887320" />
       <path
   d="m 81.7119,172.526 c 10.6869,-8.4272 9.7033,-12.92 13.6378,-26.1059 3.8282,-6.274 2.685,-5.8486 9.8363,-6.4601 3.1635,0.0798 4.8383,-3.0306 9.1184,-2.685 3.4294,0.5583 5.4764,2.3395 8.2146,1.6217 4.1738,0.5582 4.546,-1.7546 7.683,-1.6217 2.8977,0.9039 3.4825,3.8814 6.2473,5.184 5.2371,1.409 9.0121,4.0408 13.2125,5.7422 8.9058,2.7117 15.9241,8.0817 16.9875,17.8648 v 71.0603 c -1.1432,9.5704 -4.3599,17.2799 -12.1225,20.8688 C 130.2551,229.4966 105.9835,200.998 81.7119,172.526 Z"
   class="fil11 str7"
   id="_542887248" />
       <line
   y2="122.521"
   x2="107.26"
   y1="135.866"
   x1="97.317001"
   class="fil5 str8"
   id="_542887176" />
       <line
   y2="120.208"
   x2="97.689102"
   y1="131.24001"
   x1="91.654503"
   class="fil5 str8"
   id="_542887104" />
       <line
   y2="120.74"
   x2="87.055298"
   y1="129.80499"
   x1="84.556396"
   class="fil5 str8"
   id="_542887032" />
       <line
   y2="118.427"
   x2="78.707802"
   y1="129.80499"
   x1="78.893898"
   class="fil5 str8"
   id="_542886960" />
       <line
   y2="118.613"
   x2="68.260101"
   y1="131.586"
   x1="72.327499"
   class="fil5 str8"
   id="_542886888" />
       <line
   y2="119.331"
   x2="57.626301"
   y1="136.39799"
   x1="66.6651"
   class="fil5 str8"
   id="_542886816" />
       <line
   y2="127.492"
   x2="51.405602"
   y1="140.651"
   x1="62.757099"
   class="fil5 str8"
   id="_542886744" />
      </g>
     </g>
    </g>
    <path
   id="path278"
   d="M 156.996,260.983 35.226,114.427 h 140.71 c -0.0579,34.0773 0.1157,68.1577 -0.0882,102.232 -0.5876,16.5429 -7.7076,32.3107 -18.8524,44.3233 z"
   class="fil12 str9" />
    <path
   d="M 156.998,260.982 35.227,114.427 v 91.9977 c -0.7701,16.0846 2.6723,32.6083 12.0195,45.9603 15.609,23.8746 46.5653,35.9805 74.2181,29.2449 13.7214,-2.965 26.0766,-10.4547 35.5334,-20.6483 z"
   class="fil6"
   id="_544351320" />
    <g
   id="g312"
   clip-path="url(#id1)">
     <g
   id="g310">
      <g
   id="g308">
       <path
   d="m 34.9508,182.441 c 1.2264,-0.9697 2.5098,-1.1123 3.8218,-1.1123 1.9964,0.2852 2.4242,1.483 3.7932,1.3975 1.3975,0.2281 0.8271,-1.0838 3.8218,-1.7968 1.7112,0.2852 2.1961,1.3404 3.451,1.0552 1.3119,-0.0285 1.3975,-0.9697 3.6506,-1.3404 1.7683,-0.0571 1.7112,1.0552 3.1943,0.713 1.8823,-0.0285 2.4242,-1.4546 4.5633,-1.2834 1.6256,0.0285 2.6524,1.7682 4.6488,1.6542 1.9109,-0.0571 2.5384,-1.7683 4.7915,-1.6828 1.5971,0.1997 1.9109,1.5687 3.3654,1.5972 1.6257,0 1.4831,-1.7968 3.9073,-1.8824 2.4243,0.0571 1.7968,1.4831 4.164,1.5972 2.1391,-0.1426 2.4813,-1.5972 6.4457,-1.6827 l 76.9484,89.3263 c -16.1047,8.2271 -38.8225,9.6518 -52.8486,17.312 -2.6227,1.3167 -4.7416,3.389 -6.3565,6.2175 -1.987,-4.6766 -6.1476,-7.2744 -11.7255,-8.927 L 51.4357,271.967 35.5498,257.6211 33.6674,230.2984 c 0.4278,-15.9715 0.8556,-31.9144 1.2834,-47.8574 z"
   class="fil13"
   id="_5428875361" />
       <path
   d="m 45.5034,253.257 c 2.9947,-0.1426 4.2211,1.7968 6.7309,1.5971 2.738,0.2567 2.5668,-1.426 5.9608,-2.0249 3.2513,0.0285 3.9929,2.0535 6.6453,1.9394 2.1675,0.057 2.3387,-1.5401 5.2477,-0.7416"
   class="fil5 str10"
   id="_542886672" />
       <path
   d="m 43.3929,258.619 c 1.4546,0.5419 2.2246,1.8539 4.3922,1.6828 2.5383,-0.1426 4.7059,-1.7683 7.0731,-1.4546 2.2816,-0.2282 4.2495,1.8824 6.3886,1.2549"
   class="fil5 str10"
   id="_542886600" />
       <path
   d="m 54.3448,264.323 c 2.1105,1.1123 3.9073,2.5953 6.3886,2.7379 3.9929,0.0286 4.5633,-2.2246 10.1533,-2.7379 2.5098,0.1711 4.3066,0.713 5.5045,1.6542"
   class="fil5 str10"
   id="_542886528" />
       <path
   d="m 66.1523,258.448 c 3.0232,-0.3137 2.9091,2.1391 6.5597,1.9394 2.2532,-0.3422 2.1961,-1.5116 5.2478,-2.1105 2.8236,-0.0856 4.164,1.6257 6.5597,1.5401 2.025,0.0571 3.1943,-1.1123 5.0767,-0.8556"
   class="fil5 str10"
   id="_542886456" />
       <path
   d="m 71.229,270.997 c 2.7379,0 5.3048,-1.5116 7.3583,-1.7968 2.7665,-0.5134 4.9055,1.2834 7.615,1.5401"
   class="fil5 str10"
   id="_542886384" />
       <path
   d="m 79.4429,253.885 c 1.2549,0.9697 2.5954,1.5116 4.1355,1.6542 2.4242,-0.2567 3.6791,-1.7682 6.4741,-1.9964 2.6239,-0.1426 5.0767,1.1693 7.615,1.1123"
   class="fil5 str10"
   id="_542886312" />
       <path
   d="m 87.7709,267.147 c 1.2834,0.77 2.5954,1.0267 3.9358,1.2264 2.4243,-0.1426 4.1355,-2.1391 7.3583,-2.082 2.7095,-0.1711 3.8503,1.5401 6.7309,1.4545"
   class="fil5 str10"
   id="_542886240" />
       <path
   d="m 91.7067,273.65 c 0.3708,-0.9412 2.7665,-1.0838 5.0767,-1.312 3.6221,0.4564 5.1052,2.082 8.7558,2.3387 1.369,0 2.738,-0.3137 3.5936,-1.0267"
   class="fil5 str10"
   id="_542886168" />
       <path
   d="m 100.548,280.409 c 3.1943,-1.3404 6.3601,-1.2549 9.6114,0.2567"
   class="fil5 str10"
   id="_542886096" />
       <path
   d="m 111.3,266.092 c 3.7647,0.8271 4.4492,-1.9964 7.7006,-2.9091 2.795,0.1997 3.2513,2.4243 7.1016,2.1961"
   class="fil5 str10"
   id="_542886024" />
       <path
   d="m 116.035,270.741 c 1.1979,0.9412 2.8236,1.426 4.9911,1.5116 3.1088,-0.0856 4.5919,-2.4813 8.5847,-2.3958 1.2835,0.0571 2.5098,0.4279 3.6507,1.1123"
   class="fil5 str10"
   id="_542885952" />
       <path
   d="m 109.218,257.478 c 1.1979,0.7701 2.4243,0.7416 3.6792,0.6275 2.3387,-0.2567 2.852,-1.2834 5.8467,-1.8539 2.4528,0.0286 4.3636,2.2532 7.2727,1.5687"
   class="fil5 str10"
   id="_542885880" />
       <path
   d="m 130.038,256.338 c 1.5687,-1.2834 3.1658,-1.6257 4.82,-1.5686 3.3084,0.5419 5.59,2.9946 8.6417,2.9376 1.8824,0.1996 3.1088,-0.656 3.7647,-1.7968"
   class="fil5 str10"
   id="_542885808" />
       <path
   d="m 137.824,262.584 c 2.7665,-0.1141 4.763,-1.426 7.7862,-2.1105 2.3101,-0.1141 3.8788,1.3405 6.0463,1.1408"
   class="fil5 str10"
   id="_542885736" />
       <path
   d="m 132.234,265.921 c 1.8824,0 3.1373,1.6542 5.6756,1.3975 2.082,0 3.2514,-1.7112 5.7897,-1.5116 2.5383,0.1997 4.5918,1.8824 6.902,1.3975 1.483,0.2852 2.5383,-0.9982 3.9358,-0.4278"
   class="fil5 str10"
   id="_542885664" />
       <path
   d="m 94.8725,185.407 v 47.4012 c 0,4.5632 -2.3102,11.9215 -5.0196,16.4563 2.6809,0.1141 5.1622,0.5419 7.4438,1.8538 5.0197,-2.5668 6.2175,1.2264 9.9822,1.369 3.5651,-2.3387 7.0731,-2.1105 10.4956,0.7986 2.8235,-2.4528 5.7326,-1.7968 9.8681,-0.057 2.9947,-0.9412 6.0178,-1.5401 8.7843,0.114 2.1676,-1.0552 5.2478,-1.1693 8.328,-0.5989 4.0785,0.1997 4.6489,-1.5116 6.189,-2.7094 z"
   class="fil11"
   id="_542885592" />
       <g
   id="g300">
        <path
   d="m 111.472,228.473 c -0.3423,-4.7344 2.0249,-6.7593 5.2477,-8.0428 -3.4795,0.1997 -6.3315,1.4261 -6.4171,5.533 -2.9661,-1.3404 -5.533,-0.6845 -7.3298,1.9965 3.6221,-1.8824 6.3316,-1.7398 8.4992,0.5133 z"
   class="fil14"
   id="_542885520" />
        <path
   d="m 119.15,236.269 c 0.6659,-4.6997 2.5448,-6.1025 6.2952,-5.9045 -3.1846,-1.3304 -5.9563,-0.7917 -6.9078,3.2044 -3.3714,-2.6255 -6.0573,-1.1345 -7.237,1.3532 3.9424,-2.4448 6.2072,-1.3133 7.8496,1.3469 z"
   class="fil14"
   id="_542885472" />
       </g>
       <path
   d="m 94.8725,185.407 v 47.4012 c 0,4.5632 -2.3102,11.9215 -5.0196,16.4563"
   class="fil5 str11"
   id="_542885352" />
       <path
   d="m 34.2378,246.355 c 1.6542,0.9412 3.0802,1.9394 5.4189,2.1391 1.7683,-0.1141 1.8824,-1.2264 4.107,-1.2264 1.8538,0.0855 2.9091,1.5686 5.0766,1.5401 2.0535,0.1426 3.2229,-1.0838 4.9911,-1.1694 2.3958,0.2567 4.107,1.9109 6.4742,1.968 2.082,-0.0286 3.3084,-1.7683 5.2763,-1.968 2.8235,0 5.7326,2.681 8.6702,2.7951 2.4813,-0.0856 4.3352,-1.7398 6.5883,-1.7683 2.082,0.0285 4.0214,1.483 6.5027,1.4545 1.6256,-0.0855 1.8823,-0.8841 3.8503,-1.1123 2.4242,0.1711 4.2495,1.9679 6.1604,2.2531 1.6257,0 2.3102,-1.3404 4.1069,-1.1978 2.2247,0.3422 2.7951,2.5954 5.2478,2.6809 2.1391,-0.1426 3.2514,-2.0535 5.7327,-1.6542 2.1105,0.2282 3.4509,2.025 5.2477,2.3102 1.8539,-0.3993 2.9377,-1.8824 4.9056,-1.7968 1.9109,0.1426 3.0802,1.5401 5.0196,1.5686 1.7968,-0.2852 2.9376,-1.369 5.3048,-1.0838 2.082,0.1997 2.1676,1.1409 3.7932,1.1979 1.5687,0 1.9965,-1.0267 3.6792,-1.1979 1.3975,-0.0285 2.3672,1.0268 3.7647,1.0553 2.6524,0.1426 4.5348,-1.4545 5.6471,-3.0232"
   class="fil5 str11"
   id="_542885280" />
       <path
   d="m 41.7958,185.578 c 2.5383,-0.713 4.4492,-0.3707 6.1034,0.4278 m -10.8664,1.8539 c 1.8824,0.9982 3.7647,-0.4278 5.6471,-0.656 m 6.303,1.5401 c 1.7113,-1.8823 3.0232,-1.2549 4.2496,-0.77 m 3.2513,-3.0517 c 4.7915,-1.3976 6.5883,0.057 9.8967,0.114 m -7.7006,3.2514 c 2.2532,-1.1694 4.5063,-0.3993 6.7309,0 m 6.5312,-0.1141 c 1.4831,-0.8271 2.4813,-0.6275 3.3654,0 m 0.4278,-3.0517 c 3.9073,-0.656 7.7861,-0.4563 11.6364,0.1141 m -48.4564,54.1035 c -0.3423,-3.1088 -0.1141,-6.132 0,-9.1551 m 4.9055,13.0339 c -0.4563,-2.4813 1.3405,-4.7915 1.3975,-7.4154 m 7.558,7.0446 c -0.1141,-2.3672 -0.2282,-4.7059 -0.3423,-7.0446 m 7.7006,5.2763 c 0,-2.0535 0,-4.1069 0,-6.1604 m 7.5579,8.9839 c 1.2549,-1.4545 0,-3.4224 0,-5.1051 m 7.558,7.5864 c 0,-1.9394 0,-3.8788 0,-5.8182 m 9.4688,5.9894 c 0.4278,-1.7683 0.3993,-3.5651 0,-5.2763 m 4.7629,-2.6525 c 0.6275,-2.3957 0.2852,-4.7344 0,-7.0445 m -6.5027,7.2157 c 0.9127,-2.3958 0.3993,-4.7344 0,-7.0446 m -9.8396,2.4813 c 0.1141,-1.9679 0.0286,-3.8218 0,-5.6471 m -7.4153,3.9358 c 0,-2.8805 0.5704,-6.1889 0.5704,-9.041 m -8.0998,7.558 c 0,-2.4243 0.656,-4.763 0.656,-7.1587 m -6.7024,5.4474 c -0.1996,-2.6524 -0.9697,-6.2174 -1.1408,-8.8413 m -5.4189,9.3262 c 0,-2.4242 0,-4.82 0,-7.2157 m -4.5918,2.2816 c -2.1105,-2.6809 1.2549,-3.8788 0.5419,-7.9287 m -2.8236,-7.5579 c 0,-2.1961 0.7701,-4.3637 0.7701,-6.5312 m -1.4545,-7.558 c 0.8841,-2.0534 1.2263,-3.4224 0,-4.934 m 4.221,6.5027 c 0,-1.9394 0.4848,-3.7933 0.4848,-5.7327 m 2.1391,23.1872 c 0.5419,-1.9679 0.7415,-4.278 0.713,-6.8734 m 5.6185,4.5633 c 0.1141,-2.3102 0.2282,-4.5918 0.3423,-6.8735 m -4.9341,-6.8449 c 0,-1.8253 -0.5989,-2.9661 -0.5989,-4.7915 m 2.8806,6.7309 c 0,-2.3672 0.5989,-4.0499 0.5989,-6.3886 m 4.9626,5.0196 c 0.3422,-0.3993 0.8841,-3.5365 0.5989,-5.8752 m 3.508,5.1051 c -0.4278,-1.0267 -0.4278,-2.0249 0,-2.9946 m -0.1996,14.4314 c -0.057,2.3387 -0.6275,3.9929 -0.6845,6.3601 m 5.4474,-4.0499 c 0,3.0517 0.5134,6.36 -0.4848,9.3262 m -1.7968,-15.3156 c 0,-1.483 0,-2.9376 0,-4.3921 m 3.508,-5.1052 c 0.3423,-1.5401 0.2567,-3.1087 0,-4.5918 m 7.558,-1.2264 c -0.0571,1.8824 -0.1712,3.7077 0,5.6186 m 4.221,-4.3922 c 0,1.3405 0,2.6809 0,4.0499 m -3.1087,5.8182 c -0.0571,2.5668 -1.0553,4.4207 -1.1123,7.0161 m -4.9056,-6.845 c -0.1426,2.2246 -0.5133,4.4492 -0.6274,6.7023 m 4.3066,3.8788 c -0.0571,1.9965 -1.0268,6.0179 -1.0838,8.0143 m 8.4421,-2.1961 c 0.3422,3.394 0.7986,6.7309 -0.1711,10.2104 m 4.7344,-13.5758 c 0.4563,3.2228 0.7985,7.4154 0.3422,10.6952 m 5.8182,-7.3298 c 0,2.2817 -0.3422,5.0767 -0.3422,7.3583 m 2.6238,-22.3316 c -0.5704,2.9662 -0.7985,5.5045 0,7.2157 m -7.9001,-5.1051 c 0.0285,2.1675 0.0285,4.2495 -0.1712,6.6738 m -3.3939,-8.328 c 0.1141,2.3957 -0.1711,4.3066 -1.1408,6.5597 m 4.164,-17.2549 c 0.1711,1.2264 0.2852,2.3957 0,3.7076 m 4.221,-5.4474 c 0.057,1.369 0.4849,2.6239 0,4.0499 m 4.7344,-0.8841 c -0.1141,1.7968 -0.5704,3.451 0,5.2763 m -0.1426,-11.7219 c 0.1426,1.3404 0.1141,2.6238 -0.3708,3.7932 m -7.9001,-2.9947 c 1.426,-0.6559 2.8805,-0.6559 4.3921,0"
   class="fil5 str10"
   id="_542885208" />
       <path
   d="m 34.9508,182.441 c 1.2264,-0.9697 2.5098,-1.1123 3.8218,-1.1123 1.9964,0.2852 2.4242,1.483 3.7932,1.3975 1.3975,0.2281 0.8271,-1.0838 3.8218,-1.7968 1.7112,0.2852 2.1961,1.3404 3.451,1.0552 1.3119,-0.0285 1.3975,-0.9697 3.6506,-1.3404 1.7683,-0.0571 1.7112,1.0552 3.1943,0.713 1.8823,-0.0285 2.4242,-1.4546 4.5633,-1.2834 1.6256,0.0285 2.6524,1.7682 4.6488,1.6542 1.9109,-0.0571 2.5384,-1.7683 4.7915,-1.6828 1.5971,0.1997 1.9109,1.5687 3.3654,1.5972 1.6257,0 1.4831,-1.7968 3.9073,-1.8824 2.4243,0.0571 1.7968,1.4831 4.164,1.5972 2.1391,-0.1426 2.4813,-1.5972 6.4457,-1.6827"
   class="fil5 str11"
   id="_542885136" />
       <path
   d="m 40.1701,162.79 c 1.7397,-1.3405 4.221,-1.369 6.4171,0.3993 1.4831,-2.8806 3.9644,-3.9073 7.558,-3.1373 -4.4492,1.4261 -7.2157,3.2514 -6.3886,6.2175 -1.1123,-2.1105 -3.7648,-3.4795 -7.5865,-3.4795 z"
   class="fil14"
   id="_542884920" />
       <path
   d="m 48.8974,170.947 c 3.4224,-1.7112 6.5597,-1.5401 9.5258,0.3993 3.1658,-2.8806 6.189,-4.9911 8.328,-2.1391 -4.164,0.0286 -6.4741,2.1961 -7.9572,5.4189 -1.8823,-3.0231 -5.533,-3.8217 -9.8966,-3.6791 z"
   class="fil14"
   id="_542884896" />
      </g>
     </g>
    </g>
    <path
   id="path314"
   d="M 156.998,260.982 35.227,114.427 v 91.9977 c -0.7701,16.0846 2.6723,32.6083 12.0195,45.9603 15.609,23.8746 46.5653,35.9805 74.2181,29.2449 13.7214,-2.965 26.0766,-10.4547 35.5334,-20.6483 z"
   class="fil12 str9" />
   </g>
   <path
   d="m 175.937,114.427 c -0.0579,34.0773 0.1157,68.1577 -0.0882,102.232 -1.0862,30.5798 -24.4934,58.5114 -54.3846,64.9704 -27.6528,6.7356 -58.6091,-5.3703 -74.2181,-29.2449 -9.3472,-13.352 -12.7896,-29.8757 -12.0195,-45.9603 v -91.9977 h 140.71 z"
   class="fil12 str12"
   id="_544351344" />
  </g>
 </g>
</svg>
