<?xml version="1.0" encoding="UTF-8" standalone="no"?>
<svg
   xmlns:dc="http://purl.org/dc/elements/1.1/"
   xmlns:cc="http://creativecommons.org/ns#"
   xmlns:rdf="http://www.w3.org/1999/02/22-rdf-syntax-ns#"
   xmlns:svg="http://www.w3.org/2000/svg"
   xmlns="http://www.w3.org/2000/svg"
   xmlns:sodipodi="http://sodipodi.sourceforge.net/DTD/sodipodi-0.dtd"
   xmlns:inkscape="http://www.inkscape.org/namespaces/inkscape"
   inkscape:version="1.0 (4035a4fb49, 2020-05-01)"
   sodipodi:docname="CampoLameiro.svg"
   id="svg33938"
   version="1.1"
   viewBox="0 0 155.81114 271.75708"
   style="clip-rule:evenodd;fill-rule:evenodd;image-rendering:optimizeQuality;shape-rendering:geometricPrecision;text-rendering:geometricPrecision"
   height="271.75708mm"
   width="155.81114mm"
   xml:space="preserve"><metadata
   id="metadata33942"><rdf:RDF><cc:Work
       rdf:about=""><dc:format>image/svg+xml</dc:format><dc:type
         rdf:resource="http://purl.org/dc/dcmitype/StillImage" /></cc:Work></rdf:RDF></metadata><sodipodi:namedview
   inkscape:current-layer="svg33938"
   inkscape:window-maximized="0"
   inkscape:window-y="0"
   inkscape:window-x="0"
   inkscape:cy="514.30545"
   inkscape:cx="291.67931"
   inkscape:zoom="0.49085999"
   showgrid="false"
   id="namedview33940"
   inkscape:window-height="480"
   inkscape:window-width="803"
   inkscape:pageshadow="2"
   inkscape:pageopacity="0"
   guidetolerance="10"
   gridtolerance="10"
   objecttolerance="10"
   borderopacity="1"
   bordercolor="#666666"
   pagecolor="#ffffff" />
 <defs
   id="defs33635">
  <style
   id="style33630"
   type="text/css">
   <![CDATA[
    .str10 {stroke:#2A2A29;stroke-width:0.2}
    .str9 {stroke:#2A2A29;stroke-width:0.5}
    .str2 {stroke:black;stroke-width:0.0762}
    .str1 {stroke:black;stroke-width:0.2843}
    .str0 {stroke:#010101;stroke-width:0.2843}
    .str8 {stroke:#2A2A29;stroke-width:0.5;stroke-linecap:round;stroke-linejoin:round}
    .str7 {stroke:#2A2A29;stroke-width:0.5001;stroke-linecap:round;stroke-linejoin:round}
    .str3 {stroke:black;stroke-width:0.5686}
    .str11 {stroke:black;stroke-width:0.8467}
    .str4 {stroke:black;stroke-width:0.853}
    .str5 {stroke:black;stroke-width:1.1373}
    .str6 {stroke:black;stroke-width:1.4217}
    .fil5 {fill:none}
    .fil10 {fill:none;fill-rule:nonzero}
    .fil9 {fill:#2A2A29}
    .fil4 {fill:#0071BC}
    .fil7 {fill:#008F4C}
    .fil1 {fill:#E3E4E5}
    .fil2 {fill:#EAC102}
    .fil8 {fill:#ED1C24}
    .fil6 {fill:#E3E4E5;fill-rule:nonzero}
    .fil0 {fill:#EAC102;fill-rule:nonzero}
    .fil3 {fill:#ED1C24;fill-rule:nonzero}
   ]]>
  </style>
    <clipPath
   id="id0">
     <path
   id="path33632"
   d="m 175.982,114.705 c -0.0579,34.0776 0.1157,68.1577 -0.0882,102.233 -1.0862,30.5802 -24.4934,58.5114 -54.3846,64.9704 -27.6528,6.7374 -58.6091,-5.3703 -74.2181,-29.2446 -9.3472,-13.3519 -12.7896,-29.876 -12.0195,-45.9606 v -91.9977 h 140.71 z" />
    </clipPath>
 </defs>
 <g
   transform="translate(-27.826516,-12.42335)"
   id="Capa_x0020_1">
  <metadata
   id="CorelCorpID_0Corel-Layer" />
  <g
   id="_180894440">
   <g
   id="g33884">
    <polygon
   points="35.6411,68.5813 42.4654,61.7571 41.8967,60.3354 41.6124,58.9136 42.1811,57.2076 43.6028,55.2172 45.5932,53.5111 48.4366,51.805 51.8488,50.099 55.8296,48.6773 60.0947,47.5399 64.6443,46.6868 70.0468,45.5495 75.7337,43.8434 81.7049,41.853 87.6761,39.8626 93.363,37.8722 98.4812,36.4505 100.756,36.1661 103.031,35.8818 104.737,35.8818 106.159,36.1661 103.599,32.1853 102.462,32.1853 101.04,32.754 97.9125,34.1757 94.5004,35.5974 91.3726,36.4505 86.2544,38.1565 79.7145,40.4313 73.1746,42.706 67.2034,44.6964 64.3599,45.2651 61.8008,45.8338 57.2513,46.6868 52.7018,47.8242 49.0053,49.2459 45.5932,50.952 42.7498,52.9424 40.7593,54.6485 39.3376,56.6389 39.0533,57.4919 38.7689,58.345 39.0533,59.7667 39.622,61.1884 33.9351,66.8753 34.7881,67.7283 "
   class="fil0 str0"
   id="_185353480" />
    <polygon
   points="39.0533,59.7667 38.7689,58.345 39.0533,57.4919 39.3376,56.6389 40.7593,54.6485 42.7498,52.9424 45.5932,50.952 49.0053,49.2459 52.7018,47.8242 57.2513,46.6868 61.8008,45.8338 64.3599,45.2651 67.2034,44.6964 73.1746,42.706 79.7145,40.4313 86.2544,38.1565 91.3726,36.4505 83.411,38.4409 75.165,40.7156 67.2034,42.706 63.5069,43.5591 60.0947,44.4121 54.9766,45.5495 50.1427,46.9712 45.5932,48.9616 41.6124,51.2364 38.2002,53.7954 35.3568,56.6389 33.6507,59.4823 33.3664,60.9041 33.0821,62.3258 33.3664,64.6005 33.6507,65.7379 33.9351,66.8753 39.622,61.1884 "
   class="fil0 str0"
   id="_185355856" />
    <polygon
   points="97.0595,34.1757 96.2065,34.7444 95.0691,35.0287 93.9317,34.7444 93.0787,34.1757 92.2256,33.0383 91.9413,31.9009 92.2256,30.7636 93.0787,29.9105 93.9317,29.3418 95.0691,29.0575 96.2065,29.3418 97.0595,29.9105 97.6282,30.7636 97.9125,31.9009 97.6282,33.0383 "
   class="fil1 str1"
   id="_185348248" />
    <polygon
   points="88.8135,36.7348 87.6761,37.5878 86.5388,37.8722 85.4014,37.5878 84.5483,36.7348 83.9797,35.8818 83.6953,34.7444 83.9797,33.607 84.5483,32.4696 85.4014,31.9009 86.5388,31.6166 87.6761,31.9009 88.8135,32.754 89.3822,33.607 89.6665,34.7444 89.3822,35.8818 "
   class="fil1 str1"
   id="_185354272" />
    <polygon
   points="79.9988,39.2939 78.8615,39.8626 77.7241,40.1469 76.5867,39.8626 75.7337,39.2939 75.165,38.4409 74.8806,37.3035 75.165,36.1661 75.7337,35.0287 76.5867,34.46 77.7241,34.1757 78.8615,34.46 79.9988,35.0287 80.5675,36.1661 80.8519,37.3035 80.5675,38.4409 "
   class="fil1 str1"
   id="_185352832" />
    <polygon
   points="70.6155,41.5686 69.7624,42.1373 68.6251,42.4217 67.4877,42.1373 66.6347,41.5686 66.066,40.7156 65.7816,39.5782 66.066,38.4409 66.6347,37.3035 67.4877,36.7348 68.6251,36.4505 69.7624,36.7348 70.6155,37.3035 71.1842,38.4409 71.4685,39.5782 71.1842,40.7156 "
   class="fil1 str1"
   id="_185349544" />
    <polygon
   points="61.8008,43.8434 60.6634,44.4121 59.5261,44.6964 58.3887,44.4121 57.5356,43.8434 56.967,42.706 56.6826,41.5686 56.967,40.4313 57.5356,39.5782 58.3887,38.7252 59.5261,38.7252 60.6634,39.0096 61.8008,39.5782 62.3695,40.4313 62.6538,41.5686 62.3695,42.706 "
   class="fil1 str1"
   id="_185349616" />
    <polygon
   points="52.7018,46.4025 51.5644,46.9712 50.427,47.2555 49.2897,46.9712 48.4366,46.4025 47.8679,45.2651 47.5836,44.1277 47.8679,42.9904 48.4366,42.1373 49.2897,41.5686 50.427,41.2843 51.5644,41.5686 52.7018,42.1373 53.2705,42.9904 53.5548,44.1277 53.2705,45.2651 "
   class="fil1 str1"
   id="_185351488" />
    <polygon
   points="43.6028,50.3833 42.4654,50.952 41.328,51.2364 40.1907,50.952 39.3376,50.3833 38.7689,49.2459 38.4846,48.1086 38.7689,46.9712 39.3376,46.1182 40.1907,45.5495 41.328,45.2651 42.4654,45.5495 43.6028,46.1182 44.1715,46.9712 44.1715,48.1086 44.1715,49.2459 "
   class="fil1 str1"
   id="_185352448" />
    <polygon
   points="36.2098,56.3545 35.3568,57.2076 34.2194,57.4919 33.0821,57.2076 32.229,56.3545 31.6603,55.5015 31.376,54.3641 31.6603,53.2268 32.229,52.0894 33.0821,51.5207 34.2194,51.2364 35.3568,51.5207 36.2098,52.3737 37.0629,53.2268 37.0629,54.3641 37.0629,55.5015 "
   class="fil1 str1"
   id="_185348512" />
    <polygon
   points="175.823,68.5813 168.714,61.7571 169.567,60.3354 169.851,58.9136 169.283,57.2076 167.861,55.2172 165.871,53.5111 163.027,51.805 159.615,50.099 155.634,48.6773 151.369,47.5399 146.82,46.6868 141.417,45.5495 135.73,43.8434 129.759,41.853 123.788,39.8626 118.101,37.8722 112.983,36.4505 110.708,36.1661 108.433,35.8818 106.727,35.8818 105.305,36.1661 107.865,32.1853 109.002,32.1853 110.424,32.754 113.551,34.1757 116.964,35.5974 119.807,36.4505 125.21,38.1565 131.75,40.4313 138.289,42.706 144.261,44.6964 147.104,45.2651 149.663,45.8338 154.213,46.6868 158.762,47.8242 162.459,49.2459 165.871,50.952 168.714,52.9424 170.705,54.6485 172.126,56.6389 172.411,57.4919 172.695,58.345 172.411,59.7667 171.842,61.1884 177.529,66.8753 176.676,67.7283 "
   class="fil0 str0"
   id="_185348224" />
    <polygon
   points="172.411,59.7667 172.695,58.345 172.411,57.4919 172.126,56.6389 170.705,54.6485 168.714,52.9424 165.871,50.952 162.459,49.2459 158.762,47.8242 154.213,46.6868 149.663,45.8338 147.104,45.2651 144.261,44.6964 138.289,42.706 131.75,40.4313 125.21,38.1565 119.807,36.4505 128.053,38.4409 136.299,40.7156 144.261,42.706 147.957,43.5591 151.369,44.4121 156.487,45.5495 161.321,46.9712 165.871,48.9616 169.851,51.2364 173.264,53.7954 176.107,56.6389 177.529,59.4823 178.098,60.9041 178.382,62.3258 178.098,64.6005 177.813,65.7379 177.529,66.8753 171.842,61.1884 "
   class="fil0 str0"
   id="_185352520" />
    <polygon
   points="114.405,34.1757 115.257,34.7444 116.395,35.0287 117.532,34.7444 118.385,34.1757 119.238,33.0383 119.523,31.9009 119.238,30.7636 118.385,29.9105 117.532,29.3418 116.395,29.0575 115.257,29.3418 114.405,29.9105 113.836,30.7636 113.551,31.9009 113.836,33.0383 "
   class="fil1 str1"
   id="_185355208" />
    <polygon
   points="122.65,36.7348 123.788,37.5878 124.925,37.8722 126.063,37.5878 126.916,36.7348 127.484,35.8818 127.769,34.7444 127.484,33.607 126.916,32.4696 126.063,31.9009 124.925,31.6166 123.788,31.9009 122.65,32.754 122.082,33.607 121.797,34.7444 122.082,35.8818 "
   class="fil1 str1"
   id="_185351776" />
    <polygon
   points="131.465,39.2939 132.602,39.8626 133.74,40.1469 134.877,39.8626 135.73,39.2939 136.299,38.4409 136.583,37.3035 136.299,36.1661 135.73,35.0287 134.877,34.46 133.74,34.1757 132.602,34.46 131.465,35.0287 130.896,36.1661 130.612,37.3035 130.896,38.4409 "
   class="fil1 str1"
   id="_185348968" />
    <polygon
   points="140.849,41.5686 141.702,42.1373 142.839,42.4217 143.976,42.1373 144.829,41.5686 145.398,40.7156 145.682,39.5782 145.398,38.4409 144.829,37.3035 143.976,36.7348 142.839,36.4505 141.702,36.7348 140.849,37.3035 140.28,38.4409 139.995,39.5782 140.28,40.7156 "
   class="fil1 str1"
   id="_185352736" />
    <polygon
   points="149.663,43.8434 150.801,44.4121 151.938,44.6964 153.075,44.4121 153.928,43.8434 154.497,42.706 154.781,41.5686 154.497,40.4313 153.928,39.5782 153.075,38.7252 151.938,38.7252 150.801,39.0096 149.663,39.5782 149.095,40.4313 148.81,41.5686 149.095,42.706 "
   class="fil1 str1"
   id="_185350864" />
    <polygon
   points="158.762,46.4025 159.899,46.9712 161.037,47.2555 162.174,46.9712 163.027,46.4025 163.596,45.2651 163.88,44.1277 163.596,42.9904 163.027,42.1373 162.174,41.5686 161.037,41.2843 159.899,41.5686 158.762,42.1373 158.194,42.9904 157.909,44.1277 158.194,45.2651 "
   class="fil1 str1"
   id="_185355928" />
    <polygon
   points="167.861,50.3833 168.999,50.952 170.136,51.2364 171.273,50.952 172.126,50.3833 172.695,49.2459 172.979,48.1086 172.695,46.9712 172.126,46.1182 171.273,45.5495 170.136,45.2651 168.999,45.5495 167.861,46.1182 167.293,46.9712 167.008,48.1086 167.293,49.2459 "
   class="fil1 str1"
   id="_185353552" />
    <polygon
   points="175.254,56.3545 176.107,57.2076 177.244,57.4919 178.382,57.2076 179.235,56.3545 179.803,55.5015 180.088,54.3641 179.803,53.2268 179.235,52.0894 178.382,51.5207 177.244,51.2364 176.107,51.5207 175.254,52.3737 174.401,53.2268 174.401,54.3641 174.401,55.5015 "
   class="fil1 str1"
   id="_185349160" />
    <polygon
   points="97.0595,33.607 96.4908,34.46 96.2065,35.3131 96.4908,36.4505 97.0595,37.3035 97.6282,37.8722 98.4812,37.8722 99.3342,37.8722 99.9029,37.3035 100.472,36.4505 100.472,35.5974 100.472,34.46 99.9029,33.607 99.3342,33.0383 98.4812,33.0383 97.6282,33.0383 "
   class="fil1 str1"
   id="_185349520" />
    <polygon
   points="93.0787,36.7348 92.51,37.3035 92.51,38.4409 92.51,39.2939 93.0787,40.1469 93.6474,40.7156 94.5004,41 95.3534,40.7156 95.9221,40.1469 96.4908,39.2939 96.4908,38.4409 96.4908,37.3035 95.9221,36.7348 95.3534,36.1661 94.5004,35.8818 93.6474,36.1661 "
   class="fil1 str1"
   id="_185348152" />
    <polygon
   points="88.8135,39.5782 88.2448,40.1469 88.2448,41.2843 88.2448,42.1373 88.8135,42.9904 89.3822,43.5591 90.2352,43.8434 91.0883,43.5591 91.6569,42.9904 92.2256,42.1373 92.2256,41.2843 92.2256,40.4313 91.6569,39.5782 91.0883,39.0096 90.2352,38.7252 89.3822,39.0096 "
   class="fil1 str1"
   id="_185356072" />
    <polygon
   points="84.5483,41.853 84.264,42.4217 83.9797,43.5591 84.264,44.4121 84.5483,45.2651 85.117,45.8338 85.9701,46.1182 86.8231,45.8338 87.6761,45.2651 87.9605,44.6964 88.2448,43.5591 87.9605,42.706 87.6761,41.853 86.8231,41.2843 85.9701,41 85.4014,41.2843 "
   class="fil1 str1"
   id="_185353624" />
    <polygon
   points="80.2832,44.1277 79.7145,44.6964 79.7145,45.8338 79.7145,46.6868 80.2832,47.5399 80.8519,48.1086 81.7049,48.3929 82.5579,48.1086 83.1266,47.5399 83.6953,46.9712 83.9797,45.8338 83.6953,44.9808 83.1266,44.1277 82.5579,43.5591 81.7049,43.2747 80.8519,43.5591 "
   class="fil1 str1"
   id="_185350672" />
    <polygon
   points="76.018,46.6868 75.4493,47.2555 75.4493,48.3929 75.4493,49.2459 76.018,50.099 76.5867,50.6677 77.4397,50.952 78.2928,50.6677 78.8615,50.099 79.4301,49.2459 79.4301,48.3929 79.4301,47.5399 78.8615,46.6868 78.2928,46.1182 77.4397,45.8338 76.5867,46.1182 "
   class="fil1 str1"
   id="_185349592" />
    <polygon
   points="71.7529,49.5303 71.1842,50.3833 71.1842,51.2364 71.1842,52.3737 71.7529,53.2268 72.3215,53.7954 73.1746,53.7954 74.0276,53.7954 74.5963,53.2268 75.165,52.3737 75.4493,51.5207 75.165,50.3833 74.5963,49.5303 74.0276,49.2459 73.1746,48.9616 72.3215,48.9616 "
   class="fil1 str1"
   id="_185349112" />
    <polygon
   points="68.0564,54.3641 67.4877,54.9328 67.4877,56.0702 67.4877,56.9232 68.0564,57.7763 68.6251,58.345 69.4781,58.6293 70.3311,58.345 70.8998,57.7763 71.4685,56.9232 71.4685,56.0702 71.4685,55.2172 70.8998,54.3641 70.3311,53.7954 69.4781,53.5111 68.6251,53.7954 "
   class="fil1 str1"
   id="_185354920" />
    <polygon
   points="101.325,31.9009 101.04,32.4696 97.6282,35.5974 94.216,38.4409 91.0883,40.7156 88.2448,42.706 85.6857,44.4121 83.1266,45.8338 78.5771,48.3929 74.8806,50.3833 71.4685,52.6581 68.9094,55.5015 67.772,57.2076 66.6347,59.4823 67.2034,60.9041 67.772,62.3258 67.772,66.3066 67.772,70.5718 68.3407,73.1309 68.9094,75.6899 71.1842,75.9743 71.1842,71.9935 71.1842,68.0127 72.0372,64.6005 72.8902,63.1788 74.0276,61.7571 75.165,58.345 77.1554,55.5015 80.2832,52.6581 83.6953,50.3833 87.9605,47.5399 92.7943,44.4121 97.9125,40.4313 100.756,38.1565 103.599,35.5974 103.599,31.0479 101.893,31.3323 "
   class="fil2 str1"
   id="_185349664" />
    <polygon
   points="114.405,33.607 114.973,34.46 115.257,35.3131 114.973,36.4505 114.405,37.3035 113.836,37.8722 112.983,37.8722 112.13,37.8722 111.561,37.3035 110.992,36.4505 110.992,35.5974 110.992,34.46 111.561,33.607 112.13,33.0383 112.983,33.0383 113.836,33.0383 "
   class="fil1 str1"
   id="_185351056" />
    <polygon
   points="118.385,36.7348 118.954,37.3035 118.954,38.4409 118.954,39.2939 118.385,40.1469 117.817,40.7156 116.964,41 116.111,40.7156 115.542,40.1469 114.973,39.2939 114.973,38.4409 114.973,37.3035 115.542,36.7348 116.111,36.1661 116.964,35.8818 117.817,36.1661 "
   class="fil1 str1"
   id="_185355784" />
    <polygon
   points="122.65,39.5782 123.219,40.1469 123.219,41.2843 123.219,42.1373 122.65,42.9904 122.082,43.5591 121.229,43.8434 120.376,43.5591 119.807,42.9904 119.238,42.1373 118.954,41.2843 119.238,40.4313 119.807,39.5782 120.376,39.0096 121.229,38.7252 122.082,39.0096 "
   class="fil1 str1"
   id="_185349232" />
    <polygon
   points="126.916,41.853 127.2,42.4217 127.484,43.5591 127.2,44.4121 126.916,45.2651 126.347,45.8338 125.494,46.1182 124.641,45.8338 123.788,45.2651 123.504,44.6964 123.219,43.5591 123.504,42.706 123.788,41.853 124.641,41.2843 125.494,41 126.063,41.2843 "
   class="fil1 str1"
   id="_185349400" />
    <polygon
   points="131.181,44.1277 131.75,44.6964 131.75,45.8338 131.75,46.6868 131.181,47.5399 130.612,48.1086 129.759,48.3929 128.906,48.1086 128.337,47.5399 127.769,46.9712 127.484,45.8338 127.769,44.9808 128.337,44.1277 128.906,43.5591 129.759,43.2747 130.612,43.5591 "
   class="fil1 str1"
   id="_185353984" />
    <polygon
   points="135.446,46.6868 136.015,47.2555 136.015,48.3929 136.015,49.2459 135.446,50.099 134.877,50.6677 134.024,50.952 133.171,50.6677 132.602,50.099 132.034,49.2459 132.034,48.3929 132.034,47.5399 132.602,46.6868 133.171,46.1182 134.024,45.8338 134.877,46.1182 "
   class="fil1 str1"
   id="_185348824" />
    <polygon
   points="139.711,49.5303 140.28,50.3833 140.28,51.2364 140.28,52.3737 139.711,53.2268 139.142,53.7954 138.289,53.7954 137.436,53.7954 136.868,53.2268 136.299,52.3737 136.015,51.5207 136.299,50.3833 136.583,49.5303 137.436,49.2459 138.289,48.9616 139.142,48.9616 "
   class="fil1 str1"
   id="_185355496" />
    <polygon
   points="143.408,54.3641 143.976,54.9328 143.976,56.0702 143.976,56.9232 143.408,57.7763 142.839,58.345 141.986,58.6293 141.133,58.345 140.564,57.7763 139.995,56.9232 139.995,56.0702 139.995,55.2172 140.564,54.3641 141.133,53.7954 141.986,53.5111 142.839,53.7954 "
   class="fil1 str1"
   id="_185350888" />
    <polygon
   points="110.139,31.9009 110.424,32.4696 113.836,35.5974 117.248,38.4409 120.376,40.7156 123.219,42.706 125.778,44.4121 128.337,45.8338 132.887,48.3929 136.583,50.3833 139.995,52.6581 142.555,55.5015 143.692,57.2076 144.829,59.4823 144.261,60.9041 143.692,62.3258 143.692,66.3066 143.408,70.5718 143.123,73.1309 142.555,75.6899 140.28,75.9743 140.28,71.9935 140.28,68.0127 139.427,64.6005 138.574,63.1788 137.436,61.7571 136.299,58.345 134.309,55.5015 131.181,52.6581 127.769,50.3833 123.504,47.5399 118.67,44.4121 113.551,40.4313 110.708,38.1565 107.865,35.5974 107.865,31.0479 109.571,31.3323 "
   class="fil2 str1"
   id="_185351080" />
    <polygon
   points="112.698,44.1277 119.807,45.2651 123.219,46.1182 126.347,46.9712 128.906,47.8242 130.612,48.9616 133.74,50.6677 136.299,52.0894 139.142,52.9424 141.986,53.5111 144.545,54.0798 146.535,54.3641 148.81,54.0798 150.801,54.0798 153.928,54.3641 157.341,55.5015 161.321,57.2076 165.018,59.4823 166.724,60.6197 167.861,62.0414 168.714,63.1788 169.283,64.6005 170.705,67.1596 172.126,69.7187 153.928,104.124 57.5356,104.124 39.3376,69.7187 41.0437,67.1596 42.1811,64.6005 43.8871,62.0414 45.0245,60.6197 46.7306,59.4823 50.427,57.2076 54.4079,55.5015 57.82,54.3641 60.6634,54.0798 62.9382,54.0798 65.2129,54.3641 67.2034,54.0798 70.0468,53.5111 72.6059,52.9424 75.4493,52.0894 78.2928,50.6677 81.1362,48.9616 82.8423,47.8242 85.4014,46.9712 88.2448,46.1182 91.3726,45.2651 98.4812,44.1277 105.59,43.5591 109.002,43.8434 "
   class="fil3 str1"
   id="_185351296" />
    <path
   d="m 111.845,27.0671 c 0,3.4121 -2.8435,6.2556 -6.2556,6.2556 -3.1278,0 -5.9712,-2.8435 -5.9712,-6.2556 0,-3.1278 2.8434,-5.9712 5.9712,-5.9712 3.4121,0 6.2556,2.8434 6.2556,5.9712 z"
   class="fil4 str1"
   id="_185351512" />
    <polygon
   points="102.746,14.8403 102.746,16.262 105.021,16.262 105.021,21.3802 106.443,21.3802 106.443,16.262 108.718,16.262 108.718,14.8403 106.443,14.8403 106.443,12.5655 105.021,12.5655 105.021,14.8403 "
   class="fil2 str1"
   id="_185351728" />
    <polygon
   points="103.031,25.361 101.893,25.361 100.756,25.6454 100.187,25.6454 99.3342,25.9297 99.0499,26.2141 99.0499,26.2141 99.0499,28.4888 99.0499,28.4888 99.0499,28.4888 99.3342,28.4888 99.9029,28.7732 99.6186,28.4888 99.6186,28.2045 100.472,27.9201 101.609,27.9201 103.315,27.6358 105.59,27.6358 108.149,27.6358 109.855,27.9201 110.992,27.9201 111.845,28.2045 111.845,28.4888 111.561,28.7732 112.13,28.4888 112.414,28.4888 112.414,28.4888 112.414,28.4888 112.414,26.2141 112.414,26.2141 112.414,26.2141 112.13,25.9297 111.277,25.6454 110.708,25.6454 109.571,25.361 108.433,25.361 106.727,25.361 106.727,20.8115 104.737,20.8115 104.737,25.361 "
   class="fil2 str1"
   id="_185351944" />
    <polygon
   points="153.928,61.4727 153.36,62.3258 152.507,62.8945 151.938,63.1788 151.085,63.4631 150.232,63.7475 145.967,55.7859 146.535,55.5015 147.104,55.5015 147.388,55.2172 147.673,54.3641 147.673,53.2268 146.535,51.805 144.829,50.6677 142.27,49.5303 139.427,48.1086 136.299,46.9712 129.759,44.9808 125.494,43.2747 121.513,41.2843 113.267,36.7348 109.571,34.7444 106.159,33.3227 103.315,32.4696 102.178,32.4696 101.04,32.754 102.746,32.1853 104.737,31.9009 107.296,32.1853 110.139,33.0383 110.424,33.0383 114.689,35.3131 119.238,37.8722 123.788,40.1469 128.337,42.1373 130.612,42.9904 132.602,43.5591 136.868,44.6964 140.564,46.1182 143.976,47.5399 146.82,49.2459 149.095,50.952 150.801,52.6581 151.369,54.0798 151.369,54.9328 151.369,55.5015 150.801,56.3545 150.801,56.9232 150.232,57.2076 149.663,57.2076 148.526,57.2076 151.654,61.4727 153.36,60.6197 154.781,59.198 155.066,58.6293 154.497,60.6197 "
   class="fil0 str0"
   id="_185352112" />
    <polygon
   points="153.36,60.6197 151.654,61.4727 148.526,56.9232 149.947,56.9232 150.801,56.3545 151.369,55.2172 151.369,54.0798 150.801,52.6581 149.095,50.952 146.82,49.2459 143.976,47.5399 140.564,46.1182 136.868,44.6964 132.602,43.5591 130.612,42.9904 128.337,42.1373 123.788,40.1469 119.238,37.8722 114.689,35.3131 110.424,33.0383 110.139,33.0383 115.826,35.0287 121.797,37.5878 128.053,40.1469 133.74,41.853 138.289,42.9904 142.555,44.6964 146.82,46.4025 150.232,48.3929 153.36,50.6677 154.213,51.805 155.066,52.9424 155.634,54.3641 155.919,55.7859 155.634,57.2076 155.066,58.6293 154.781,59.198 "
   class="fil0 str0"
   id="_185352328" />
    <polygon
   points="111.845,33.8914 112.698,34.46 113.836,34.7444 114.973,34.7444 115.826,34.1757 116.679,33.3227 116.964,31.9009 116.679,30.7636 116.395,29.9105 115.542,29.0575 114.405,28.7732 113.267,28.7732 112.13,29.3418 111.561,30.4792 110.992,31.6166 111.277,32.754 "
   class="fil1 str1"
   id="_185352544" />
    <polygon
   points="140.564,44.4121 141.417,45.2651 142.555,45.5495 143.692,45.2651 144.545,44.6964 145.398,43.8434 145.682,42.706 145.398,41.5686 145.114,40.4313 144.261,39.5782 143.123,39.2939 141.986,39.5782 140.849,40.1469 140.28,41 139.711,42.1373 139.995,43.5591 "
   class="fil1 str1"
   id="_185352784" />
    <polygon
   points="146.251,46.9712 147.104,47.8242 148.241,48.1086 149.379,47.8242 150.516,47.2555 151.085,46.4025 151.369,45.2651 151.369,44.1277 150.801,42.9904 149.947,42.1373 148.81,41.853 147.673,42.1373 146.82,42.706 145.967,43.5591 145.682,44.6964 145.682,45.8338 "
   class="fil1 str1"
   id="_185352928" />
    <polygon
   points="150.801,51.5207 151.654,52.3737 152.791,52.6581 153.928,52.3737 154.781,51.805 155.634,50.952 155.919,49.8146 155.634,48.6773 155.35,47.5399 154.497,46.6868 153.36,46.4025 152.222,46.6868 151.085,47.2555 150.232,48.1086 149.947,49.2459 150.232,50.6677 "
   class="fil1 str1"
   id="_185353144" />
    <polygon
   points="117.248,36.1661 118.101,37.0191 119.238,37.3035 120.376,37.3035 121.513,36.7348 122.082,35.5974 122.65,34.46 122.366,33.3227 121.797,32.1853 120.944,31.6166 119.807,31.3323 118.67,31.3323 117.817,31.9009 116.964,32.754 116.679,34.1757 116.679,35.3131 "
   class="fil1 str1"
   id="_185353360" />
    <polygon
   points="122.935,39.0096 123.788,39.5782 124.925,39.8626 126.063,39.8626 126.916,39.2939 127.769,38.4409 128.053,37.0191 127.769,35.8818 127.484,35.0287 126.631,34.1757 125.494,33.8914 124.357,33.8914 123.219,34.46 122.65,35.5974 122.082,36.7348 122.366,37.8722 "
   class="fil1 str1"
   id="_185353576" />
    <polygon
   points="128.622,40.7156 129.475,41.5686 130.612,41.853 131.75,41.5686 132.602,41 133.456,40.1469 133.74,39.0096 133.74,37.8722 133.171,36.7348 132.318,35.8818 131.181,35.5974 130.043,35.8818 128.906,36.4505 128.337,37.3035 127.769,38.4409 128.053,39.8626 "
   class="fil1 str1"
   id="_185353792" />
    <polygon
   points="134.309,42.706 135.162,43.2747 136.299,43.5591 137.436,43.5591 138.574,42.9904 139.142,42.1373 139.427,40.7156 139.427,39.5782 138.858,38.4409 138.005,37.8722 136.868,37.5878 135.73,37.5878 134.877,38.1565 134.024,39.2939 133.74,40.4313 133.74,41.5686 "
   class="fil1 str1"
   id="_185354008" />
    <polygon
   points="57.5356,61.4727 58.1043,62.3258 58.9574,62.8945 59.5261,63.1788 60.3791,63.4631 61.2321,63.7475 65.4973,55.7859 64.9286,55.5015 64.3599,55.5015 64.0756,55.2172 63.7912,54.3641 63.7912,53.2268 64.9286,51.805 66.6347,50.6677 69.1938,49.5303 72.0372,48.1086 75.165,46.9712 81.7049,44.9808 85.9701,43.2747 89.9509,41.2843 98.1969,36.7348 101.893,34.7444 105.305,33.3227 108.149,32.4696 109.286,32.4696 110.424,32.754 108.718,32.1853 106.727,31.9009 104.168,32.1853 101.325,33.0383 101.04,33.0383 96.7751,35.3131 92.2256,37.8722 87.6761,40.1469 83.1266,42.1373 80.8519,42.9904 78.8615,43.5591 74.5963,44.6964 70.8998,46.1182 67.4877,47.5399 64.6443,49.2459 62.3695,50.952 60.6634,52.6581 60.0947,54.0798 60.0947,55.5015 60.6634,56.3545 60.6634,56.9232 61.2321,57.2076 61.8008,57.2076 62.9382,57.2076 59.8104,61.4727 57.82,60.6197 56.6826,59.198 56.3983,58.6293 56.967,60.6197 "
   class="fil0 str0"
   id="_185354224" />
    <polygon
   points="57.82,60.6197 59.8104,61.4727 62.9382,56.9232 61.5165,56.9232 60.6634,56.3545 60.0947,55.2172 60.0947,54.0798 60.6634,52.6581 62.3695,50.952 64.6443,49.2459 67.4877,47.5399 70.8998,46.1182 74.5963,44.6964 78.8615,43.5591 80.8519,42.9904 83.1266,42.1373 87.6761,40.1469 92.2256,37.8722 96.7751,35.3131 101.04,33.0383 101.325,33.0383 95.6378,35.0287 89.6665,37.5878 83.411,40.1469 77.7241,41.853 73.1746,42.9904 68.9094,44.6964 64.6443,46.4025 61.2321,48.3929 58.1043,50.6677 57.2513,51.805 56.3983,52.9424 55.8296,54.3641 55.5452,55.7859 55.8296,57.2076 56.3983,58.6293 56.6826,59.198 "
   class="fil0 str0"
   id="_185354440" />
    <polygon
   points="99.6186,33.8914 98.7656,34.46 97.6282,34.7444 96.4908,34.7444 95.6378,34.1757 94.7847,33.3227 94.5004,31.9009 94.5004,30.7636 95.0691,29.9105 95.9221,29.0575 97.0595,28.7732 98.1969,28.7732 99.3342,29.3418 99.9029,30.4792 100.472,31.6166 100.187,32.754 "
   class="fil1 str1"
   id="_185354656" />
    <polygon
   points="70.8998,44.4121 70.0468,45.2651 68.9094,45.5495 67.772,45.2651 66.919,44.6964 66.066,43.8434 65.7816,42.706 66.066,41.5686 66.3503,40.4313 67.2034,39.5782 68.3407,39.2939 69.4781,39.5782 70.6155,40.1469 71.1842,41 71.7529,42.1373 71.4685,43.5591 "
   class="fil1 str1"
   id="_185354872" />
    <polygon
   points="65.2129,46.9712 64.3599,47.8242 63.2225,48.1086 62.0852,47.8242 60.9478,47.2555 60.3791,46.4025 59.8104,45.2651 60.0947,44.1277 60.6634,42.9904 61.5165,42.1373 62.6538,41.853 63.7912,42.1373 64.6443,42.706 65.4973,43.5591 65.7816,44.6964 65.7816,45.8338 "
   class="fil1 str1"
   id="_185355088" />
    <polygon
   points="60.6634,51.5207 59.8104,52.3737 58.673,52.6581 57.5356,52.3737 56.6826,51.805 55.8296,50.952 55.5452,49.8146 55.5452,48.6773 56.1139,47.5399 56.967,46.6868 58.1043,46.4025 59.2417,46.6868 60.3791,47.2555 60.9478,48.1086 61.5165,49.2459 61.2321,50.6677 "
   class="fil1 str1"
   id="_185355304" />
    <polygon
   points="94.216,36.1661 93.363,37.0191 92.2256,37.3035 91.0883,37.3035 89.9509,36.7348 89.3822,35.5974 88.8135,34.46 89.0979,33.3227 89.6665,32.1853 90.5196,31.6166 91.6569,31.3323 92.7943,31.3323 93.6474,31.9009 94.5004,32.754 94.7847,34.1757 94.7847,35.3131 "
   class="fil1 str1"
   id="_185355520" />
    <polygon
   points="88.5292,39.0096 87.6761,39.5782 86.5388,39.8626 85.4014,39.8626 84.5483,39.2939 83.6953,38.4409 83.411,37.0191 83.411,35.8818 83.9797,35.0287 84.8327,34.1757 85.9701,33.8914 87.1074,33.8914 88.2448,34.46 88.8135,35.5974 89.3822,36.7348 89.0979,37.8722 "
   class="fil1 str1"
   id="_185355736" />
    <polygon
   points="82.8423,40.7156 81.9892,41.5686 80.8519,41.853 79.7145,41.5686 78.8615,41 78.0084,40.1469 77.7241,39.0096 77.7241,37.8722 78.2928,36.7348 79.1458,35.8818 80.2832,35.5974 81.4206,35.8818 82.5579,36.4505 83.1266,37.3035 83.411,38.4409 83.411,39.8626 "
   class="fil1 str1"
   id="_185355952" />
    <polygon
   points="77.1554,42.706 76.3024,43.2747 75.165,43.5591 74.0276,43.5591 72.8902,42.9904 72.3215,42.1373 72.0372,40.7156 72.0372,39.5782 72.6059,38.4409 73.4589,37.8722 74.5963,37.5878 75.7337,37.5878 76.5867,38.1565 77.4397,39.2939 77.7241,40.4313 77.7241,41.5686 "
   class="fil1 str1"
   id="_185356168" />
    <polygon
   points="100.472,34.1757 99.9029,36.7348 99.9029,39.5782 99.9029,40.1469 99.9029,41 99.6186,43.8434 99.0499,46.4025 98.4812,48.6773 97.9125,50.6677 105.874,56.3545 113.551,50.6677 112.698,48.6773 112.13,46.4025 111.845,43.8434 111.561,41 111.561,40.1469 111.561,39.5782 111.561,36.7348 110.992,34.1757 110.139,32.754 108.718,31.9009 108.718,33.8914 108.718,34.46 108.718,34.7444 108.718,35.8818 108.718,37.3035 108.718,38.7252 108.718,40.4313 108.718,41.853 109.002,42.9904 109.002,43.2747 109.002,46.9712 109.571,48.3929 109.855,49.5303 105.874,53.2268 101.609,49.5303 101.893,48.3929 102.462,46.9712 102.462,43.2747 102.462,42.9904 102.462,41.853 102.746,40.4313 102.746,38.7252 102.746,37.3035 102.746,35.8818 102.746,34.7444 102.746,34.46 102.746,33.8914 102.746,31.9009 101.325,32.754 "
   class="fil0 str1"
   id="_185350960" />
    <polygon
   points="102.746,34.46 102.746,34.7444 102.746,35.8818 102.746,37.3035 102.746,38.7252 102.746,40.4313 102.462,41.853 102.462,42.9904 102.462,43.2747 102.462,46.9712 101.893,48.3929 101.609,49.5303 105.874,53.2268 109.855,49.5303 109.571,48.3929 109.002,46.9712 109.002,43.2747 109.002,42.9904 108.718,41.853 108.718,40.4313 108.718,38.7252 108.718,37.3035 108.718,35.8818 108.718,34.7444 108.718,34.46 108.718,33.8914 108.718,31.9009 107.296,31.3323 105.874,31.0479 105.874,31.0479 104.168,31.3323 102.746,31.9009 102.746,33.8914 "
   class="fil0 str1"
   id="_185351176" />
    <path
   d="m 109.002,32.754 c 0,1.9904 -1.4217,3.6965 -3.4121,3.6965 -1.7061,0 -3.1278,-1.7061 -3.1278,-3.6965 0,-1.7061 1.4217,-3.4122 3.1278,-3.4122 1.9904,0 3.4121,1.7061 3.4121,3.4122 z"
   class="fil1 str1"
   id="_185351392" />
    <path
   d="m 109.002,35.0287 c 0,1.9904 -1.4217,3.4122 -3.4121,3.4122 -1.7061,0 -3.1278,-1.4218 -3.1278,-3.4122 0,-1.9904 1.4217,-3.4121 3.1278,-3.4121 1.9904,0 3.4121,1.4217 3.4121,3.4121 z"
   class="fil1 str1"
   id="_185351608" />
    <path
   d="m 109.002,36.7348 c 0,1.9904 -1.4217,3.6965 -3.4121,3.6965 -1.7061,0 -3.1278,-1.7061 -3.1278,-3.6965 0,-1.7061 1.4217,-3.4121 3.1278,-3.4121 1.9904,0 3.4121,1.706 3.4121,3.4121 z"
   class="fil1 str1"
   id="_185351824" />
    <path
   d="m 109.002,37.8722 c 0,1.9904 -1.4217,3.6964 -3.4121,3.6964 -1.7061,0 -3.1278,-1.706 -3.1278,-3.6964 0,-1.7061 1.4217,-3.4122 3.1278,-3.4122 1.9904,0 3.4121,1.7061 3.4121,3.4122 z"
   class="fil1 str1"
   id="_185352040" />
    <path
   d="m 109.002,39.0096 c 0,1.706 -1.4217,3.4121 -3.4121,3.4121 -1.7061,0 -3.1278,-1.7061 -3.1278,-3.4121 0,-1.9905 1.4217,-3.6965 3.1278,-3.6965 1.9904,0 3.4121,1.706 3.4121,3.6965 z"
   class="fil1 str1"
   id="_185352280" />
    <path
   d="m 109.002,40.1469 c 0,1.7061 -1.4217,3.4122 -3.4121,3.4122 -1.7061,0 -3.1278,-1.7061 -3.1278,-3.4122 0,-1.9904 1.4217,-3.6964 3.1278,-3.6964 1.9904,0 3.4121,1.706 3.4121,3.6964 z"
   class="fil1 str1"
   id="_185352496" />
    <path
   d="m 109.002,41.853 c 0,1.9904 -1.4217,3.6965 -3.4121,3.6965 -1.7061,0 -3.1278,-1.7061 -3.1278,-3.6965 0,-1.7061 1.4217,-3.4121 3.1278,-3.4121 1.9904,0 3.4121,1.706 3.4121,3.4121 z"
   class="fil1 str1"
   id="_185352712" />
    <path
   d="m 109.002,46.4025 c 0,1.7061 -1.4217,3.4121 -3.4121,3.4121 -1.7061,0 -3.1278,-1.706 -3.1278,-3.4121 0,-1.9904 1.4217,-3.6965 3.1278,-3.6965 1.9904,0 3.4121,1.7061 3.4121,3.6965 z"
   class="fil1 str1"
   id="_185352952" />
    <polygon
   points="49.574,96.4471 50.7114,97.5844 51.5644,98.4375 52.4175,99.0062 53.2705,99.0062 53.5548,98.7218 53.5548,97.8688 53.5548,96.4471 52.9861,94.4567 49.0053,86.7794 48.4366,86.2107 47.5836,86.2107 47.0149,86.7794 46.7306,87.3481 45.8775,89.9072 47.8679,93.3193 "
   class="fil2 str1"
   id="_185353168" />
    <polygon
   points="49.0053,91.0445 47.2993,88.7698 45.5932,86.2107 43.8871,83.0829 43.3184,82.7986 42.4654,82.7986 41.8967,83.0829 41.8967,83.6516 44.4558,87.9167 46.4462,91.0445 48.1523,93.3193 49.574,94.741 50.1427,92.7506 "
   class="fil2 str1"
   id="_185353384" />
    <polygon
   points="161.89,96.4471 160.753,97.5844 159.899,98.4375 159.047,99.0062 158.194,99.0062 157.909,98.7218 157.909,97.8688 157.909,96.4471 158.478,94.4567 162.459,86.7794 163.027,86.2107 163.88,86.2107 164.449,86.7794 164.733,87.3481 165.586,89.9072 163.596,93.3193 "
   class="fil2 str1"
   id="_185353600" />
    <polygon
   points="163.312,93.3193 165.018,91.0445 167.008,87.9167 169.567,83.6516 169.567,83.0829 168.999,82.7986 168.145,82.7986 167.577,83.0829 165.871,86.2107 163.88,88.7698 162.459,91.0445 161.037,92.7506 161.89,94.741 "
   class="fil2 str1"
   id="_185353816" />
    <polygon
   points="31.6603,64.0318 33.0821,64.3162 35.6411,65.4536 37.3472,66.8753 37.9159,67.7283 38.2002,68.297 39.0533,68.0127 39.622,67.7283 41.328,68.0127 41.0437,69.15 41.0437,70.5718 40.7593,71.7091 40.475,73.1309 41.8967,73.6995 42.4654,74.5526 43.6028,73.9839 44.7402,73.9839 44.7402,75.4056 44.7402,76.8273 44.4558,77.396 44.1715,77.9647 43.6028,78.8177 43.3184,79.1021 43.6028,79.9551 45.5932,77.6804 47.8679,77.6804 48.4366,77.9647 49.0053,78.5334 49.574,79.1021 50.427,79.3864 49.8584,80.2395 49.2897,81.0925 48.1523,83.0829 47.0149,83.6516 45.5932,83.3672 47.2993,84.2203 48.4366,85.0733 49.2897,86.2107 49.8584,87.3481 48.4366,87.3481 47.5836,87.3481 49.574,90.1915 51.5644,92.4663 50.7114,92.4663 45.8775,90.4758 41.6124,86.495 36.7785,79.6708 36.4942,68.8657 35.0725,67.7283 33.6507,66.5909 33.0821,66.0222 31.9447,65.4536 30.523,65.1692 28.5325,65.1692 29.9543,64.3162 "
   class="fil2 str1"
   id="_185354032" />
    <polygon
   points="32.5134,67.1596 33.6507,68.8657 34.7881,70.8561 35.9255,75.4056 36.2098,77.6804 36.7785,79.9551 41.328,86.495 43.0341,88.4854 44.7402,90.1915 46.1619,91.6132 47.5836,92.4663 48.721,92.4663 49.2897,92.4663 49.8584,92.4663 50.9957,92.4663 49.8584,91.8976 49.0053,91.3289 47.8679,89.6228 47.0149,88.7698 45.8775,87.9167 44.1715,87.0637 42.1811,86.2107 42.7498,85.9263 43.3184,85.9263 44.7402,86.7794 46.1619,87.3481 47.2993,87.3481 49.0053,87.3481 47.5836,85.642 46.1619,84.789 44.7402,83.9359 43.6028,83.3672 44.7402,83.0829 45.5932,83.3672 46.4462,83.6516 47.0149,83.3672 47.8679,82.7986 48.4366,81.6612 48.721,80.5238 49.574,79.3864 48.4366,78.8177 47.2993,78.249 46.1619,77.6804 44.7402,77.9647 44.1715,78.5334 43.6028,79.1021 42.7498,79.9551 41.8967,80.5238 41.8967,79.1021 42.4654,78.249 43.0341,77.6804 43.3184,76.8273 43.6028,76.2586 43.6028,75.6899 43.3184,74.8369 43.6028,73.9839 41.8967,74.5526 40.7593,75.4056 40.1907,76.2586 39.9063,77.1117 39.3376,78.5334 38.7689,79.3864 38.2002,79.9551 38.2002,78.8177 38.2002,78.249 38.7689,77.396 39.622,76.543 40.1907,75.6899 41.0437,74.5526 40.475,73.9839 39.9063,73.6995 39.0533,73.4152 39.622,72.2778 39.622,71.1404 39.9063,69.7187 40.1907,68.297 39.0533,68.0127 38.2002,68.297 37.3472,69.15 37.0629,68.297 36.4942,67.444 35.6411,66.5909 34.5038,65.7379 33.0821,64.8849 31.6603,64.6005 29.9543,64.6005 28.2482,65.4536 30.8073,66.0222 "
   class="fil2 str1"
   id="_185354248" />
    <polyline
   points="38.4846,71.1404 37.6316,73.4152 37.0629,75.6899 37.0629,77.9647 37.0629,80.2395 "
   class="fil5 str2"
   id="_185354464" />
    <polyline
   points="40.7593,78.5334 39.9063,80.2395 38.2002,81.6612 "
   class="fil5 str2"
   id="_185354680" />
    <polyline
   points="45.8775,80.8081 44.4558,81.0925 43.0341,81.6612 41.6124,82.5142 40.475,82.7986 39.3376,83.0829 "
   class="fil5 str2"
   id="_185354896" />
    <polyline
   points="39.9063,83.9359 42.7498,84.5046 45.0245,85.3577 "
   class="fil5 str2"
   id="_185355112" />
    <polyline
   points="41.0437,85.9263 42.7498,87.6324 44.4558,88.7698 45.5932,89.6228 46.4462,90.4758 "
   class="fil5 str2"
   id="_185355328" />
    <polygon
   points="39.622,86.2107 38.4846,86.2107 37.3472,85.642 36.4942,84.789 35.9255,83.6516 35.9255,82.5142 36.2098,81.3768 37.0629,80.8081 37.0629,80.5238 40.7593,85.9263 "
   class="fil6 str1"
   id="_185355544" />
    <polygon
   points="40.7593,86.495 41.328,86.2107 39.0533,82.5142 37.9159,81.0925 37.0629,79.9551 36.2098,80.5238 "
   class="fil0 str1"
   id="_185355760" />
    <polygon
   points="179.803,64.0318 178.382,64.3162 175.823,65.4536 174.117,66.8753 173.548,67.7283 173.264,68.297 172.411,68.0127 171.842,67.7283 170.136,68.0127 170.42,69.15 170.42,70.5718 170.42,71.7091 170.989,73.1309 169.567,73.6995 168.999,74.5526 167.861,73.9839 166.724,73.9839 166.724,75.4056 166.724,76.8273 167.008,77.396 167.293,77.9647 167.861,78.8177 168.145,79.1021 167.861,79.9551 165.871,77.6804 163.596,77.6804 163.027,77.9647 162.459,78.5334 161.89,79.1021 161.037,79.3864 161.606,80.2395 162.174,81.0925 163.312,83.0829 164.449,83.6516 165.871,83.3672 164.165,84.2203 163.027,85.0733 162.174,86.2107 161.606,87.3481 163.027,87.3481 163.88,87.3481 161.89,90.1915 159.899,92.4663 160.753,92.4663 165.586,90.4758 169.851,86.495 174.685,79.6708 174.97,68.8657 176.391,67.7283 177.813,66.5909 178.382,66.0222 179.519,65.4536 180.941,65.1692 182.931,65.1692 181.51,64.3162 "
   class="fil2 str1"
   id="_185355976" />
    <polygon
   points="178.951,67.1596 177.813,68.8657 176.676,70.8561 175.538,75.4056 175.254,77.6804 174.685,79.9551 170.136,86.495 168.43,88.4854 166.724,90.1915 165.302,91.6132 163.88,92.4663 162.743,92.4663 162.174,92.4663 161.606,92.4663 160.468,92.4663 161.606,91.8976 162.459,91.3289 163.596,89.6228 164.449,88.7698 165.586,87.9167 167.008,87.0637 169.283,86.2107 168.714,85.9263 167.861,85.9263 166.724,86.7794 165.302,87.3481 164.165,87.3481 162.459,87.3481 163.88,85.642 165.302,84.789 166.724,83.9359 167.861,83.3672 166.724,83.0829 165.871,83.3672 165.018,83.6516 164.449,83.3672 163.596,82.7986 163.027,81.6612 162.743,80.5238 161.89,79.3864 163.027,78.8177 164.165,78.249 165.302,77.6804 166.724,77.9647 167.293,78.5334 167.861,79.1021 168.714,79.9551 169.567,80.5238 169.567,79.1021 168.999,78.249 168.43,77.6804 167.861,76.8273 167.861,76.2586 167.861,75.6899 167.861,74.8369 167.861,73.9839 169.567,74.5526 170.705,75.4056 171.273,76.2586 171.558,77.1117 172.126,78.5334 172.695,79.3864 173.264,79.9551 173.264,78.8177 173.264,78.249 172.695,77.396 171.842,76.543 171.273,75.6899 170.42,74.5526 170.989,73.9839 171.558,73.6995 172.126,73.4152 171.842,72.2778 171.842,71.1404 171.558,69.7187 171.273,68.297 172.411,68.0127 173.264,68.297 174.117,69.15 174.401,68.297 174.97,67.444 175.823,66.5909 176.96,65.7379 178.382,64.8849 179.803,64.6005 181.51,64.6005 183.216,65.4536 180.657,66.0222 "
   class="fil2 str1"
   id="_185348056" />
    <polyline
   points="172.979,71.1404 173.832,73.4152 174.401,75.6899 174.401,77.9647 174.401,80.2395 "
   class="fil5 str2"
   id="_185348272" />
    <polyline
   points="170.705,78.5334 170.989,79.6708 171.558,80.2395 173.264,81.6612 "
   class="fil5 str2"
   id="_185348488" />
    <polyline
   points="165.586,80.8081 167.008,81.0925 168.43,81.6612 169.851,82.5142 170.989,82.7986 172.126,83.0829 "
   class="fil5 str2"
   id="_185348704" />
    <polyline
   points="171.558,83.9359 168.714,84.5046 166.44,85.3577 "
   class="fil5 str2"
   id="_185348920" />
    <polyline
   points="170.42,85.9263 168.714,87.6324 167.008,88.7698 165.871,89.6228 165.018,90.4758 "
   class="fil5 str2"
   id="_185349136" />
    <polygon
   points="171.842,86.2107 172.979,86.2107 174.117,85.642 174.97,84.789 175.538,83.6516 175.538,82.5142 175.254,81.3768 174.401,80.8081 174.401,80.5238 170.705,85.9263 "
   class="fil6 str1"
   id="_185349352" />
    <polygon
   points="170.705,86.495 170.136,86.2107 172.126,82.5142 173.264,81.0925 174.401,79.9551 175.254,80.5238 "
   class="fil0 str1"
   id="_179366968" />
    <polygon
   points="105.021,74.8369 104.452,78.8177 103.599,80.8081 102.746,82.7986 101.609,84.5046 100.187,86.2107 98.1969,87.3481 95.6378,87.9167 93.0787,87.9167 90.8039,87.0637 88.5292,85.642 86.5388,83.6516 84.8327,81.6612 83.6953,79.3864 82.8423,77.396 82.5579,75.6899 82.2736,75.1213 81.4206,74.8369 80.8519,75.1213 80.5675,75.6899 80.8519,79.9551 80.2832,83.9359 79.7145,85.642 78.5771,87.3481 77.4397,88.2011 75.7337,89.0541 74.0276,89.0541 72.0372,88.7698 70.3311,87.9167 68.3407,86.495 66.6347,84.5046 64.9286,82.5142 62.0852,77.6804 61.5165,76.8273 60.6634,76.8273 60.0947,77.1117 60.0947,77.6804 60.9478,80.2395 61.5165,82.7986 61.8008,85.0733 61.8008,86.7794 61.8008,88.4854 61.2321,89.6228 60.6634,90.7602 59.8104,91.3289 58.673,91.3289 57.5356,90.7602 56.1139,89.6228 54.4079,87.9167 52.9861,86.2107 51.2801,84.2203 48.721,79.9551 48.1523,79.6708 47.2993,79.6708 46.7306,79.9551 46.7306,80.5238 48.1523,83.9359 49.8584,87.0637 50.7114,90.4758 51.2801,93.6036 50.1427,92.7506 49.574,94.741 50.7114,95.594 51.5644,96.1627 52.4175,96.1627 52.9861,95.8784 53.5548,95.0254 53.5548,93.6036 53.2705,91.6132 52.4175,89.0541 54.6922,90.7602 56.967,92.4663 58.1043,93.0349 59.5261,93.3193 60.3791,93.3193 61.5165,92.7506 62.9382,91.3289 63.7912,89.3385 64.0756,87.0637 64.0756,84.2203 66.6347,87.0637 69.7624,89.6228 71.1842,90.4758 72.8902,91.0445 74.5963,91.3289 76.018,91.0445 78.8615,89.9072 80.8519,87.9167 81.9892,85.0733 82.8423,81.6612 85.117,84.789 87.9605,87.9167 89.9509,89.0541 91.6569,89.6228 93.9317,90.1915 95.9221,90.1915 98.1969,89.6228 99.9029,88.7698 101.325,87.3481 102.746,85.9263 104.737,83.0829 105.305,81.9455 105.59,80.8081 106.159,81.9455 106.727,83.0829 108.718,85.9263 109.855,87.3481 111.561,88.7698 113.267,89.6228 115.542,90.1915 117.532,90.1915 119.807,89.6228 121.513,89.0541 123.504,87.9167 126.347,84.789 128.622,81.6612 129.475,85.0733 130.612,87.9167 132.602,89.9072 135.446,91.0445 136.868,91.3289 138.574,91.0445 140.28,90.4758 141.702,89.6228 144.829,87.0637 147.388,84.2203 147.388,87.0637 147.673,89.3385 148.526,91.3289 149.947,92.7506 151.085,93.3193 151.938,93.3193 153.36,93.0349 154.497,92.4663 156.772,90.7602 159.047,89.0541 158.194,91.6132 157.909,93.6036 157.909,95.0254 158.478,95.8784 159.047,96.1627 159.899,96.1627 160.753,95.8784 161.89,94.741 161.037,92.7506 160.184,93.6036 160.753,90.4758 161.606,87.0637 163.312,83.9359 164.733,80.5238 164.733,79.9551 164.165,79.6708 163.312,79.6708 162.743,79.9551 160.184,84.2203 158.478,86.2107 157.056,87.9167 155.35,89.6228 153.928,90.7602 152.791,91.3289 151.654,91.3289 150.801,90.7602 150.232,89.6228 149.663,88.4854 149.663,86.7794 149.663,85.0733 149.947,82.7986 150.516,80.2395 151.369,77.6804 151.369,77.1117 150.801,76.8273 149.947,76.8273 149.379,77.6804 146.535,82.5142 144.829,84.5046 143.123,86.495 141.133,87.9167 139.427,88.7698 137.436,89.0541 135.73,89.0541 134.024,88.2011 132.887,87.3481 131.75,85.642 131.181,83.9359 130.612,79.9551 130.896,75.6899 130.612,75.1213 130.043,74.8369 129.475,75.1213 128.906,75.6899 128.622,77.396 127.769,79.3864 126.631,81.6612 124.925,83.6516 122.935,85.642 120.66,87.0637 118.385,87.9167 115.826,87.9167 113.267,87.3481 111.277,86.2107 109.855,84.5046 108.718,82.7986 107.865,80.8081 107.012,78.8177 106.443,74.8369 106.159,74.5526 105.59,74.2682 105.305,74.5526 "
   class="fil2 str1"
   id="_179365816" />
    <path
   d="m 133.171,74.8369 c 0,1.7061 -1.4217,3.1278 -3.1278,3.1278 -1.9904,0 -3.4121,-1.4217 -3.4121,-3.1278 0,-1.4217 1.4217,-2.8434 3.4121,-2.8434 1.7061,0 3.1278,1.4217 3.1278,2.8434 z"
   class="fil1 str1"
   id="_179364664" />
    <polygon
   points="131.465,77.6804 131.465,78.249 130.896,78.249 130.896,78.5334 130.612,78.8177 130.612,79.1021 130.328,79.3864 129.19,79.3864 128.337,79.1021 128.053,78.8177 128.053,78.5334 128.053,78.249 127.769,77.9647 127.769,77.6804 127.484,77.396 129.475,77.6804 "
   class="fil2 str1"
   id="_179364616" />
    <path
   d="m 84.8327,74.8369 c 0,1.7061 -1.4217,3.1278 -3.1278,3.1278 -1.9904,0 -3.4121,-1.4217 -3.4121,-3.1278 0,-1.4217 1.4217,-2.8434 3.4121,-2.8434 1.7061,0 3.1278,1.4217 3.1278,2.8434 z"
   class="fil1 str1"
   id="_179364544" />
    <polygon
   points="79.9988,77.6804 79.9988,78.249 80.2832,78.249 80.5675,78.5334 80.5675,78.8177 80.8519,79.1021 81.1362,79.3864 81.9892,79.3864 83.1266,79.1021 83.411,78.8177 83.411,78.5334 83.411,78.249 83.6953,77.9647 83.6953,77.6804 83.9797,77.396 81.9892,77.6804 "
   class="fil2 str1"
   id="_179364472" />
    <polygon
   points="45.8775,82.5142 47.0149,82.7986 48.4366,82.5142 49.574,81.9455 50.1427,80.8081 50.7114,79.6708 50.427,78.5334 49.8584,77.396 48.721,76.8273 47.5836,76.543 46.1619,76.8273 45.3088,77.396 44.4558,78.249 44.1715,79.3864 44.1715,80.5238 45.0245,81.6612 "
   class="fil1 str1"
   id="_179364400" />
    <polygon
   points="46.7306,82.7986 47.0149,83.0829 47.2993,83.0829 47.5836,83.0829 47.8679,83.6516 48.4366,83.6516 49.2897,83.3672 50.1427,82.7986 50.427,82.5142 50.427,82.5142 50.1427,81.9455 50.1427,81.6612 50.427,81.3768 50.1427,81.0925 48.721,81.9455 "
   class="fil2 str1"
   id="_179364328" />
    <polygon
   points="165.586,82.5142 164.449,82.7986 163.027,82.5142 161.89,81.9455 161.321,80.8081 160.753,79.6708 161.037,78.5334 161.606,77.396 162.743,76.8273 163.88,76.543 165.302,76.8273 166.155,77.396 167.008,78.249 167.293,79.3864 167.293,80.5238 166.44,81.6612 "
   class="fil1 str1"
   id="_179364256" />
    <polygon
   points="164.733,82.7986 164.449,83.0829 164.165,83.0829 163.88,83.0829 163.596,83.6516 163.027,83.6516 162.174,83.3672 161.321,82.7986 161.037,82.5142 161.037,82.5142 161.321,81.9455 161.321,81.6612 161.037,81.3768 161.321,81.0925 162.743,81.9455 "
   class="fil2 str1"
   id="_179364184" />
    <polygon
   points="93.363,62.3258 94.5004,62.6101 96.2065,63.1788 97.0595,63.7475 97.6282,64.6005 99.3342,66.0222 101.325,66.5909 102.746,66.8753 103.315,66.8753 103.599,66.8753 101.609,72.8465 90.5196,68.297 90.5196,68.0127 90.8039,67.7283 91.6569,67.444 92.51,67.444 93.6474,67.7283 94.5004,68.297 95.6378,68.5813 97.0595,68.5813 92.7943,62.3258 "
   class="fil2 str1"
   id="_179364112" />
    <polygon
   points="118.101,62.3258 116.964,62.6101 115.257,63.1788 114.405,63.7475 113.836,64.6005 112.13,66.0222 110.139,66.5909 108.718,66.8753 108.149,66.8753 107.865,66.8753 109.855,72.8465 120.944,68.297 120.944,68.0127 120.66,67.7283 119.807,67.444 118.954,67.444 117.817,67.7283 116.964,68.297 115.826,68.5813 114.405,68.5813 118.67,62.3258 "
   class="fil2 str1"
   id="_179364040" />
    <polygon
   points="103.031,50.6677 102.178,52.6581 101.609,54.9328 100.472,54.0798 99.3342,54.0798 98.1969,54.3641 97.0595,54.6485 97.3438,55.7859 97.3438,57.2076 97.6282,58.9136 97.9125,60.6197 97.3438,60.9041 96.7751,61.1884 95.6378,62.3258 95.9221,62.8945 96.7751,63.4631 98.7656,64.3162 101.04,65.7379 101.893,66.5909 102.462,67.7283 100.472,67.1596 99.3342,66.5909 98.1969,65.7379 97.6282,64.8849 96.7751,64.0318 95.9221,63.4631 94.5004,62.6101 92.51,62.3258 92.51,64.0318 92.7943,65.1692 93.0787,66.0222 93.6474,66.5909 95.0691,67.7283 95.3534,68.297 95.6378,69.15 94.5004,68.8657 93.6474,68.5813 93.0787,68.0127 91.9413,67.7283 90.5196,68.0127 89.3822,69.15 88.5292,70.0031 87.3918,70.8561 88.8135,71.7091 89.9509,72.5622 91.0883,73.4152 92.51,73.9839 93.363,73.9839 93.9317,73.4152 94.7847,73.1309 95.9221,73.1309 95.3534,73.9839 94.7847,74.5526 93.6474,75.4056 93.0787,76.543 93.0787,77.396 93.363,78.5334 95.3534,78.5334 96.7751,78.249 97.6282,77.6804 98.1969,76.8273 99.3342,75.4056 100.187,75.1213 101.609,75.1213 99.6186,76.543 98.4812,77.9647 97.6282,79.1021 97.3438,79.9551 97.6282,81.9455 97.3438,83.0829 97.0595,84.2203 99.3342,83.6516 101.04,83.0829 103.031,82.5142 104.452,81.6612 105.59,80.8081 107.012,81.6612 108.433,82.5142 110.424,83.0829 112.13,83.6516 114.405,84.2203 114.12,83.0829 113.836,81.9455 114.12,79.9551 113.836,79.1021 112.983,77.9647 111.845,76.543 109.855,75.1213 111.277,75.1213 112.13,75.4056 112.983,76.8273 113.836,77.6804 114.689,78.249 116.111,78.5334 118.101,78.5334 118.385,77.396 118.385,76.543 117.817,75.4056 116.679,74.5526 116.111,73.9839 115.542,73.1309 116.679,73.1309 117.532,73.4152 118.101,73.9839 118.954,73.9839 120.376,73.4152 121.513,72.5622 122.65,71.7091 124.072,70.8561 122.935,70.0031 122.082,69.15 120.944,68.0127 119.523,67.7283 118.385,68.0127 117.817,68.5813 116.964,68.8657 115.826,69.15 116.111,68.297 116.395,67.7283 117.817,66.5909 118.385,66.0222 118.67,65.1692 118.954,64.0318 118.954,62.3258 116.964,62.6101 115.542,63.4631 114.689,64.0318 113.836,64.8849 113.267,65.7379 112.13,66.5909 110.992,67.1596 109.002,67.7283 109.571,66.5909 110.424,65.7379 112.698,64.3162 114.689,63.4631 115.257,62.8945 115.826,62.3258 114.689,61.1884 114.12,60.9041 113.551,60.6197 113.836,58.9136 114.12,57.2076 114.12,55.7859 114.405,54.6485 113.267,54.3641 112.13,54.0798 110.992,54.0798 109.855,54.9328 109.286,52.6581 108.433,50.6677 107.296,48.6773 105.874,46.9712 105.59,46.9712 104.168,48.6773 "
   class="fil2 str1"
   id="_179363968" />
    <polyline
   points="105.874,68.0127 105.874,67.7283 105.59,67.1596 105.59,66.3066 105.59,65.1692 105.59,62.3258 105.59,58.9136 105.59,55.7859 105.874,52.9424 105.874,51.805 105.874,50.952 105.874,50.3833 105.874,50.099 "
   class="fil5 str2"
   id="_179363896" />
    <polyline
   points="104.737,74.2682 104.168,75.9743 103.031,77.9647 101.609,79.6708 100.187,81.0925 "
   class="fil5 str2"
   id="_179363872" />
    <polyline
   points="102.462,72.5622 101.04,72.8465 99.0499,73.4152 97.6282,74.2682 96.2065,75.1213 "
   class="fil5 str2"
   id="_179362912" />
    <polyline
   points="102.178,71.7091 100.187,71.7091 98.1969,71.7091 95.3534,70.8561 93.363,70.2874 92.51,70.2874 91.6569,70.5718 "
   class="fil5 str2"
   id="_179362888" />
    <polyline
   points="102.462,69.7187 102.178,69.7187 101.325,69.4344 100.472,69.15 99.0499,68.8657 98.4812,68.5813 97.6282,67.7283 96.4908,66.3066 "
   class="fil5 str2"
   id="_179362864" />
    <polyline
   points="105.021,67.7283 105.021,67.444 104.737,66.5909 104.168,65.1692 103.599,63.1788 102.462,61.1884 101.325,59.4823 100.756,58.6293 100.472,58.345 "
   class="fil5 str2"
   id="_179362720" />
    <polyline
   points="106.727,74.2682 107.296,75.9743 108.433,77.9647 109.855,79.6708 111.277,81.0925 "
   class="fil5 str2"
   id="_179362624" />
    <polyline
   points="109.002,72.5622 110.424,72.8465 112.13,73.4152 113.836,74.2682 115.257,75.1213 "
   class="fil5 str2"
   id="_179362528" />
    <polyline
   points="109.286,71.7091 111.277,71.7091 113.267,71.7091 116.111,70.8561 118.101,70.2874 118.954,70.2874 119.807,70.5718 "
   class="fil5 str2"
   id="_179363464" />
    <polyline
   points="109.002,69.7187 109.286,69.7187 110.139,69.4344 110.992,69.15 112.414,68.8657 112.983,68.5813 113.836,67.7283 114.973,66.3066 "
   class="fil5 str2"
   id="_179363512" />
    <polyline
   points="106.443,67.7283 106.443,67.444 106.727,66.5909 107.296,65.1692 107.865,63.1788 109.002,61.1884 110.139,59.4823 110.708,58.6293 110.992,58.345 "
   class="fil5 str2"
   id="_179363584" />
    <path
   d="m 109.855,71.1404 c 0,1.9905 -1.7061,3.6965 -3.9808,3.6965 -2.2748,0 -3.9809,-1.706 -3.9809,-3.6965 0,-1.9904 1.7061,-3.6964 3.9809,-3.6964 2.2747,0 3.9808,1.706 3.9808,3.6964 z"
   class="fil2 str1"
   id="_179363680" />
    <path
   d="m 109.002,71.1404 c 0,1.7061 -1.4217,3.1278 -3.1277,3.1278 -1.7061,0 -3.1278,-1.4217 -3.1278,-3.1278 0,-1.706 1.4217,-3.1277 3.1278,-3.1277 1.706,0 3.1277,1.4217 3.1277,3.1277 z"
   class="fil1 str1"
   id="_179363032" />
    <polygon
   points="81.7049,90.1915 69.7624,91.3289 63.7912,92.1819 57.82,93.0349 54.9766,93.888 52.1331,94.741 49.574,96.1627 48.721,97.3001 48.1523,98.4375 48.1523,99.5749 48.4366,100.428 50.1427,102.134 52.1331,102.987 54.1235,103.84 58.673,104.977 62.9382,105.83 72.0372,106.968 81.4206,107.536 90.5196,108.105 104.737,108.105 118.954,108.105 133.171,107.536 147.388,105.83 151.369,105.262 155.066,104.409 159.047,103.271 162.459,101.281 163.027,100.428 163.312,99.2905 163.312,98.4375 162.743,97.3001 161.321,95.8784 159.331,95.0254 155.634,93.6036 151.938,92.7506 144.545,91.6132 136.868,90.7602 129.19,90.1915 117.532,89.9072 105.59,89.9072 93.6474,89.9072 "
   class="fil2 str1"
   id="_179363752" />
    <polygon
   points="93.6474,93.6036 88.2448,93.888 83.411,94.1723 79.9988,94.1723 75.165,94.4567 70.8998,95.0254 66.919,95.3097 63.7912,95.8784 60.9478,96.1627 58.3887,96.7314 56.3983,97.3001 54.9766,97.5844 53.8392,97.8688 52.1331,98.7218 51.2801,99.2905 50.9957,99.5749 50.7114,99.8592 50.427,100.143 50.427,100.428 53.2705,110.664 63.2225,110.664 148.241,110.664 158.194,110.664 161.037,100.428 161.037,100.143 160.753,99.8592 160.468,99.5749 159.615,98.7218 158.478,98.4375 157.341,97.8688 157.341,97.8688 155.919,97.3001 153.928,97.0158 151.654,96.4471 148.81,95.8784 145.398,95.3097 141.417,95.0254 136.868,94.4567 131.465,94.1723 131.465,94.1723 128.053,94.1723 123.219,93.888 117.817,93.6036 112.13,93.6036 105.59,93.6036 99.3342,93.6036 "
   class="fil2 str1"
   id="_179360272" />
    <path
   d="m 130.612,98.7218 c 0,1.9904 -1.7061,3.6965 -3.4121,3.6965 -1.9904,0 -3.6965,-1.7061 -3.6965,-3.6965 0,-1.9904 1.7061,-3.6964 3.6965,-3.6964 1.706,0 3.4121,1.706 3.4121,3.6964 z"
   class="fil2 str1"
   id="_179363656" />
    <path
   d="m 130.896,98.7218 c 0,1.9904 -1.706,3.6965 -3.6964,3.6965 -1.7061,0 -3.4122,-1.7061 -3.4122,-3.6965 0,-1.9904 1.7061,-3.6964 3.4122,-3.6964 1.9904,0 3.6964,1.706 3.6964,3.6964 z"
   class="fil2 str1"
   id="_179360920" />
    <path
   d="m 130.612,98.7218 c 0,1.7061 -1.4217,3.1278 -3.1278,3.1278 -1.7061,0 -3.1278,-1.4217 -3.1278,-3.1278 0,-1.706 1.4217,-3.1278 3.1278,-3.1278 1.7061,0 3.1278,1.4218 3.1278,3.1278 z"
   class="fil1 str1"
   id="_179367016" />
    <path
   d="m 87.9605,98.7218 c 0,1.9904 -1.7061,3.6965 -3.4122,3.6965 -1.9904,0 -3.6964,-1.7061 -3.6964,-3.6965 0,-1.9904 1.706,-3.6964 3.6964,-3.6964 1.7061,0 3.4122,1.706 3.4122,3.6964 z"
   class="fil2 str1"
   id="_179361568" />
    <path
   d="m 87.6761,98.7218 c 0,1.9904 -1.706,3.6965 -3.6964,3.6965 -1.7061,0 -3.4122,-1.7061 -3.4122,-3.6965 0,-1.9904 1.7061,-3.6964 3.4122,-3.6964 1.9904,0 3.6964,1.706 3.6964,3.6964 z"
   class="fil2 str1"
   id="_179367256" />
    <path
   d="m 87.1074,98.7218 c 0,1.7061 -1.4217,3.1278 -3.1277,3.1278 -1.7061,0 -3.1278,-1.4217 -3.1278,-3.1278 0,-1.706 1.4217,-3.1278 3.1278,-3.1278 1.706,0 3.1277,1.4218 3.1277,3.1278 z"
   class="fil1 str1"
   id="_179362216" />
    <polygon
   points="67.2034,96.4471 72.6059,99.2905 73.1746,99.0062 67.4877,96.4471 "
   class="fil5 str1"
   id="_179367184" />
    <polygon
   points="67.2034,104.124 72.6059,99.2905 73.1746,99.0062 67.4877,103.84 "
   class="fil5 str1"
   id="_179363152" />
    <polyline
   points="67.2034,104.124 61.8008,101.281 66.919,96.4471 "
   class="fil5 str1"
   id="_179367040" />
    <polygon
   points="62.9382,100.997 66.919,97.3001 71.1842,99.5749 66.919,103.271 "
   class="fil7 str1"
   id="_179363368" />
    <polygon
   points="64.0756,100.712 66.066,99.0062 68.3407,100.143 66.066,101.85 "
   class="fil5 str1"
   id="_179367064" />
    <line
   y2="101.85"
   x2="66.066002"
   y1="103.271"
   x1="66.918999"
   class="fil5 str1"
   id="_179362312" />
    <line
   y2="100.712"
   x2="64.0756"
   y1="100.997"
   x1="62.938202"
   class="fil5 str1"
   id="_179367472" />
    <line
   y2="99.574898"
   x2="71.184196"
   y1="100.143"
   x1="68.340698"
   class="fil5 str1"
   id="_179362096" />
    <line
   y2="97.300102"
   x2="66.918999"
   y1="99.006203"
   x1="66.066002"
   class="fil5 str1"
   id="_179367520" />
    <polygon
   points="144.261,96.4471 138.858,99.2905 138.289,99.0062 143.976,96.4471 "
   class="fil5 str1"
   id="_179361880" />
    <polygon
   points="144.261,104.124 138.858,99.2905 138.289,99.0062 143.976,103.84 "
   class="fil5 str1"
   id="_179367160" />
    <polyline
   points="144.261,104.124 149.663,101.281 144.545,96.4471 "
   class="fil5 str1"
   id="_179361664" />
    <polygon
   points="148.526,100.997 144.545,97.3001 140.28,99.5749 144.545,103.271 "
   class="fil7 str1"
   id="_179367976" />
    <polygon
   points="147.388,100.712 145.398,99.0062 143.123,100.143 145.398,101.85 "
   class="fil5 str1"
   id="_179361448" />
    <line
   y2="101.85"
   x2="145.39799"
   y1="103.271"
   x1="144.545"
   class="fil5 str1"
   id="_179367880" />
    <line
   y2="100.712"
   x2="147.388"
   y1="100.997"
   x1="148.526"
   class="fil5 str1"
   id="_179361232" />
    <line
   y2="99.574898"
   x2="140.28"
   y1="100.143"
   x1="143.123"
   class="fil5 str1"
   id="_179367784" />
    <line
   y2="97.300102"
   x2="144.545"
   y1="99.006203"
   x1="145.39799"
   class="fil5 str1"
   id="_179361016" />
    <polygon
   points="110.708,94.741 112.13,95.594 112.983,96.7314 113.267,98.1531 112.983,99.5749 112.13,100.997 110.708,101.565 109.286,102.134 102.178,102.134 100.756,101.565 99.3342,100.997 98.4812,99.5749 98.1969,98.1531 98.4812,96.7314 99.3342,95.594 100.756,94.741 102.178,94.4567 109.286,94.4567 "
   class="fil0 str1"
   id="_179367736" />
    <polygon
   points="110.424,95.3097 111.277,95.8784 112.13,97.0158 112.414,98.1531 112.13,99.5749 111.277,100.428 110.424,101.281 109.002,101.565 102.462,101.565 101.04,101.281 100.187,100.428 99.3342,99.5749 99.0499,98.1531 99.3342,97.0158 100.187,95.8784 101.04,95.3097 102.462,95.0254 109.002,95.0254 "
   class="fil3 str1"
   id="_179367664" />
    <path
   d="m 50.1427,92.7506 -0.853,1.7061 0.5687,0.2843 0.5686,-1.7061 z m 111.179,0 v 0 l -0.2844,0.2843 0.5687,1.7061 0.5687,-0.2843 z"
   class="fil2 str1"
   id="_179360656" />
    <polygon
   points="55.8296,54.0798 56.967,54.3641 57.82,54.9328 58.673,55.7859 59.8104,58.0606 60.3791,60.051 62.9382,59.198 64.6443,59.198 66.066,59.4823 65.7816,60.9041 65.7816,61.7571 65.4973,63.1788 65.2129,64.8849 66.3503,65.1692 67.2034,65.7379 67.4877,66.0222 68.0564,66.3066 65.7816,67.7283 63.5069,68.8657 62.0852,70.0031 61.5165,70.8561 61.2321,71.7091 65.4973,71.1404 66.6347,69.7187 67.772,68.0127 69.1938,66.8753 70.3311,66.3066 71.4685,66.3066 71.4685,67.7283 71.4685,68.5813 70.8998,69.4344 70.3311,70.0031 69.1938,70.8561 68.6251,71.7091 68.3407,72.8465 69.4781,72.8465 71.1842,72.8465 74.312,72.8465 75.7337,72.8465 76.8711,72.8465 77.7241,73.1309 78.0084,73.4152 76.8711,73.9839 76.3024,74.5526 75.165,75.4056 74.5963,76.2586 73.4589,76.8273 72.6059,77.1117 71.7529,76.543 71.1842,75.9743 70.3311,75.6899 69.4781,75.9743 69.4781,75.9743 70.0468,76.543 71.1842,76.8273 72.6059,77.6804 74.0276,78.5334 74.5963,79.6708 74.5963,80.5238 74.5963,80.8081 72.3215,81.0925 70.6155,80.8081 69.4781,80.2395 68.3407,79.6708 69.4781,80.8081 70.3311,81.6612 71.4685,83.3672 72.3215,84.789 72.8902,85.642 73.4589,86.495 72.8902,86.495 69.7624,86.2107 67.4877,85.642 65.2129,84.5046 62.9382,83.6516 62.9382,84.789 62.3695,85.9263 61.5165,87.0637 60.6634,88.2011 60.3791,88.2011 57.82,82.5142 57.5356,82.7986 57.2513,83.0829 56.6826,83.0829 53.8392,76.2586 52.9861,75.6899 52.4175,75.1213 52.4175,74.2682 52.1331,73.4152 52.7018,73.4152 52.9861,73.4152 53.5548,73.4152 52.4175,70.5718 52.1331,68.5813 52.9861,68.8657 53.2705,69.15 53.5548,69.7187 54.1235,71.4248 54.6922,73.1309 56.1139,68.5813 53.5548,60.6197 54.9766,60.051 54.9766,59.198 54.9766,58.6293 55.2609,57.2076 55.2609,56.3545 55.2609,55.7859 54.4079,55.2172 53.2705,54.6485 54.4079,54.0798 "
   class="fil2 str1"
   id="_179367592" />
    <polygon
   points="55.5452,54.3641 56.6826,54.9328 57.82,55.5015 58.9574,57.4919 59.5261,59.7667 62.3695,59.198 63.7912,59.198 65.2129,59.4823 64.6443,61.1884 64.6443,62.6101 64.6443,64.0318 63.7912,65.4536 65.2129,65.4536 65.7816,65.7379 66.3503,66.0222 66.919,66.5909 65.7816,67.444 64.3599,68.297 62.0852,69.15 60.6634,70.2874 60.0947,71.1404 59.8104,72.2778 61.8008,71.4248 62.9382,70.8561 63.7912,70.2874 64.3599,69.7187 64.9286,68.5813 65.4973,68.0127 66.066,67.444 68.3407,66.5909 70.8998,66.3066 70.8998,67.7283 70.6155,68.8657 70.3311,69.7187 69.7624,70.2874 68.3407,71.1404 67.772,71.7091 67.2034,72.8465 69.1938,72.2778 70.3311,71.7091 71.4685,70.8561 72.6059,70.5718 73.7433,70.5718 75.165,71.4248 77.7241,73.4152 76.5867,73.6995 75.7337,74.5526 74.5963,75.6899 73.4589,76.543 72.3215,77.1117 71.4685,76.543 70.6155,76.2586 69.7624,76.2586 68.6251,76.543 70.0468,77.1117 71.7529,77.9647 73.1746,78.8177 73.7433,79.6708 74.0276,80.8081 72.6059,81.0925 71.1842,81.0925 68.3407,80.2395 65.7816,79.3864 62.9382,78.8177 64.6443,79.3864 66.066,79.9551 68.3407,80.8081 69.4781,81.9455 70.3311,82.7986 70.8998,83.6516 71.1842,84.789 71.7529,85.642 72.8902,86.495 70.8998,86.2107 68.6251,86.2107 66.066,85.642 64.6443,85.0733 62.9382,84.2203 62.6538,85.0733 61.8008,85.9263 60.9478,87.0637 60.3791,88.2011 59.5261,86.495 58.3887,84.789 57.5356,82.7986 57.5356,81.3768 57.5356,79.9551 57.2513,80.5238 57.2513,81.6612 57.2513,82.7986 56.967,83.0829 56.3983,83.0829 55.5452,82.2299 54.9766,81.0925 54.6922,79.3864 54.6922,79.1021 54.4079,79.1021 54.1235,79.3864 53.8392,79.1021 53.5548,78.8177 52.7018,77.9647 51.5644,76.8273 51.5644,75.9743 51.5644,74.8369 51.8488,73.9839 52.1331,73.4152 52.7018,74.2682 53.5548,74.5526 52.9861,73.1309 52.1331,71.9935 52.1331,71.4248 51.8488,70.5718 52.1331,68.5813 52.7018,69.7187 52.9861,71.1404 53.5548,71.9935 54.6922,72.8465 54.4079,71.4248 54.1235,70.5718 52.9861,69.7187 52.7018,69.15 52.4175,68.5813 52.4175,67.7283 52.9861,66.5909 52.9861,65.7379 52.9861,64.6005 52.9861,62.3258 52.9861,61.1884 53.2705,60.6197 53.5548,60.6197 54.1235,60.9041 54.1235,58.9136 54.4079,56.9232 54.1235,55.5015 53.8392,54.9328 52.9861,54.6485 54.4079,54.3641 "
   class="fil2 str1"
   id="_179360368" />
    <polyline
   points="56.3983,72.2778 56.1139,69.15 55.8296,66.5909 56.1139,64.3162 56.1139,62.3258 56.3983,58.9136 56.3983,57.4919 55.8296,55.7859 "
   class="fil5 str2"
   id="_179360152" />
    <polyline
   points="62.0852,63.1788 59.8104,65.4536 58.3887,67.7283 57.5356,70.0031 57.2513,72.2778 "
   class="fil5 str2"
   id="_179359936" />
    <polyline
   points="60.9478,75.4056 64.0756,75.1213 66.919,74.5526 69.4781,73.6995 72.8902,73.4152 "
   class="fil5 str2"
   id="_179365912" />
    <polyline
   points="60.6634,74.2682 62.9382,73.4152 64.6443,72.5622 65.7816,71.1404 66.6347,70.0031 "
   class="fil5 str2"
   id="_179365696" />
    <polyline
   points="60.9478,76.2586 63.2225,76.543 65.4973,76.8273 67.2034,77.396 68.3407,78.249 "
   class="fil5 str2"
   id="_179365480" />
    <polyline
   points="59.5261,78.8177 60.6634,79.9551 61.8008,80.8081 63.7912,81.9455 65.4973,82.5142 67.4877,83.3672 "
   class="fil5 str2"
   id="_179365264" />
    <polyline
   points="58.9574,78.5334 58.9574,80.5238 59.2417,81.9455 59.5261,83.3672 60.0947,84.5046 "
   class="fil5 str2"
   id="_179365048" />
    <line
   y2="79.955101"
   x2="55.829601"
   y1="78.249001"
   x1="56.3983"
   class="fil5 str2"
   id="_179364832" />
    <polyline
   points="55.2609,76.543 54.4079,76.8273 53.8392,76.543 53.2705,76.543 52.4175,76.543 "
   class="fil5 str2"
   id="_179365000" />
    <polyline
   points="55.2609,74.5526 54.4079,73.9839 53.5548,73.1309 "
   class="fil5 str2"
   id="_179365216" />
    <polyline
   points="55.8296,72.8465 55.2609,68.8657 54.4079,66.5909 53.5548,64.0318 "
   class="fil5 str2"
   id="_179365432" />
    <polygon
   points="57.5356,78.8177 58.673,78.8177 59.8104,78.5334 60.6634,77.6804 61.2321,76.543 61.2321,75.1213 60.6634,73.6995 59.8104,72.8465 58.673,71.9935 57.5356,71.9935 56.3983,72.2778 55.5452,73.1309 54.9766,74.5526 54.9766,75.6899 55.5452,77.1117 56.3983,78.249 "
   class="fil2 str1"
   id="_179365648" />
    <polygon
   points="57.2513,78.8177 58.3887,79.1021 59.5261,78.8177 60.3791,77.9647 60.9478,76.543 60.9478,75.4056 60.3791,73.9839 59.5261,72.8465 58.3887,72.2778 57.2513,72.2778 56.1139,72.5622 55.2609,73.4152 54.6922,74.5526 54.9766,75.9743 55.2609,77.1117 56.1139,78.249 "
   class="fil2 str1"
   id="_179365864" />
    <polygon
   points="57.2513,78.5334 58.3887,78.8177 59.2417,78.249 60.0947,77.6804 60.3791,76.543 60.3791,75.4056 60.0947,74.2682 59.2417,73.4152 58.3887,72.8465 57.2513,72.5622 56.1139,72.8465 55.5452,73.6995 55.2609,74.8369 55.2609,75.9743 55.5452,77.1117 56.3983,77.9647 "
   class="fil1 str1"
   id="_179366032" />
    <polygon
   points="155.634,54.0798 154.497,54.3641 153.644,54.9328 152.791,55.7859 151.654,58.0606 151.085,60.051 148.526,59.198 146.82,59.198 145.398,59.4823 145.682,60.9041 145.682,61.7571 145.967,63.1788 146.251,64.8849 145.114,65.1692 144.261,65.7379 143.976,66.0222 143.408,66.3066 145.682,67.7283 147.957,68.8657 149.379,70.0031 149.947,70.8561 150.232,71.7091 145.967,71.1404 144.829,69.7187 143.692,68.0127 142.27,66.8753 141.133,66.3066 139.995,66.3066 139.995,67.7283 139.995,68.5813 140.564,69.4344 141.133,70.0031 142.27,70.8561 142.839,71.7091 143.123,72.8465 141.986,72.8465 140.28,72.8465 137.152,72.8465 135.73,72.8465 134.593,72.8465 133.74,73.1309 133.456,73.4152 134.593,73.9839 135.162,74.5526 136.299,75.4056 136.868,76.2586 138.005,76.8273 138.858,77.1117 139.711,76.543 140.28,75.9743 141.133,75.6899 141.986,75.9743 141.986,75.9743 141.417,76.543 140.28,76.8273 138.858,77.6804 137.436,78.5334 136.868,79.6708 136.868,80.5238 136.868,80.8081 139.142,81.0925 140.849,80.8081 141.986,80.2395 143.123,79.6708 141.986,80.8081 140.849,81.6612 139.995,83.3672 139.142,84.789 138.574,85.642 138.005,86.495 138.574,86.495 141.702,86.2107 143.976,85.642 146.251,84.5046 148.526,83.6516 148.526,84.789 149.095,85.9263 149.947,87.0637 150.801,88.2011 151.085,88.2011 153.644,82.5142 153.928,82.7986 154.213,83.0829 154.781,83.0829 157.625,76.2586 158.478,75.6899 159.047,75.1213 159.047,74.2682 159.331,73.4152 158.762,73.4152 158.478,73.4152 157.909,73.4152 159.047,70.5718 159.331,68.5813 158.478,68.8657 158.194,69.15 157.909,69.7187 157.341,71.4248 156.772,73.1309 155.35,68.5813 157.909,60.6197 156.487,60.051 156.487,59.198 156.487,58.6293 156.203,57.2076 155.919,56.3545 156.203,55.7859 157.056,55.2172 158.194,54.6485 157.056,54.0798 "
   class="fil2 str1"
   id="_179366104" />
    <polygon
   points="155.919,54.3641 154.781,54.9328 153.644,55.5015 152.507,57.4919 151.938,59.7667 149.095,59.198 147.673,59.198 146.251,59.4823 146.82,61.1884 146.82,62.6101 146.82,64.0318 147.673,65.4536 146.251,65.4536 145.682,65.7379 145.114,66.0222 144.545,66.5909 145.682,67.444 147.104,68.297 149.379,69.15 150.801,70.2874 151.369,71.1404 151.654,72.2778 149.663,71.4248 148.526,70.8561 147.673,70.2874 147.104,69.7187 146.535,68.5813 145.967,68.0127 145.398,67.444 143.123,66.5909 140.564,66.3066 140.564,67.7283 140.849,68.8657 141.133,69.7187 141.702,70.2874 143.123,71.1404 143.692,71.7091 144.261,72.8465 142.27,72.2778 141.133,71.7091 139.995,70.8561 138.858,70.5718 137.721,70.5718 136.299,71.4248 133.456,73.4152 134.877,73.6995 135.73,74.5526 136.868,75.6899 138.005,76.543 139.142,77.1117 139.995,76.543 140.849,76.2586 141.702,76.2586 142.839,76.543 141.417,77.1117 139.711,77.9647 138.289,78.8177 137.721,79.6708 137.436,80.8081 138.858,81.0925 140.28,81.0925 143.123,80.2395 145.682,79.3864 148.526,78.8177 146.82,79.3864 145.398,79.9551 143.123,80.8081 141.986,81.9455 141.133,82.7986 140.564,83.6516 140.28,84.789 139.711,85.642 138.574,86.495 140.564,86.2107 142.839,86.2107 145.398,85.642 146.82,85.0733 148.526,84.2203 148.81,85.0733 149.663,85.9263 150.516,87.0637 151.085,88.2011 151.938,86.495 153.075,84.789 153.928,82.7986 153.928,81.3768 153.928,79.9551 154.213,80.5238 154.213,81.6612 154.213,82.7986 154.497,83.0829 155.066,83.0829 155.919,82.2299 156.487,81.0925 156.772,79.3864 156.772,79.1021 157.056,79.1021 157.341,79.3864 157.341,79.1021 157.909,78.8177 158.762,77.9647 159.899,76.8273 159.899,75.9743 159.899,74.8369 159.615,73.9839 159.331,73.4152 158.762,74.2682 157.909,74.5526 158.478,73.1309 159.047,71.9935 159.331,71.4248 159.331,70.5718 159.331,68.5813 158.762,69.7187 158.478,71.1404 157.909,71.9935 156.772,72.8465 157.056,71.4248 157.341,70.5718 158.478,69.7187 158.762,69.15 159.047,68.5813 159.047,67.7283 158.478,66.5909 158.478,65.7379 158.478,64.6005 158.478,62.3258 158.478,61.1884 158.194,60.6197 157.909,60.6197 157.341,60.9041 157.341,58.9136 157.056,56.9232 157.341,55.5015 157.625,54.9328 158.478,54.6485 157.056,54.3641 "
   class="fil2 str1"
   id="_179366176" />
    <polyline
   points="155.066,72.2778 155.35,69.15 155.634,66.5909 155.35,64.3162 155.35,62.3258 155.066,58.9136 155.066,57.4919 155.634,55.7859 "
   class="fil5 str2"
   id="_179366248" />
    <polyline
   points="149.379,63.1788 151.654,65.4536 153.075,67.7283 153.928,70.0031 154.213,72.2778 "
   class="fil5 str2"
   id="_179366320" />
    <polyline
   points="150.516,75.4056 147.388,75.1213 144.545,74.5526 141.986,73.6995 138.574,73.4152 "
   class="fil5 str2"
   id="_179366392" />
    <polyline
   points="150.801,74.2682 148.526,73.4152 146.82,72.5622 145.682,71.1404 144.829,70.0031 "
   class="fil5 str2"
   id="_179366464" />
    <polyline
   points="150.516,76.2586 148.241,76.543 145.967,76.8273 144.261,77.396 143.123,78.249 "
   class="fil5 str2"
   id="_179366536" />
    <polyline
   points="151.938,78.8177 150.801,79.9551 149.663,80.8081 147.673,81.9455 145.967,82.5142 143.976,83.3672 "
   class="fil5 str2"
   id="_179366608" />
    <polyline
   points="152.507,78.5334 152.507,80.5238 152.222,81.9455 151.938,83.3672 151.369,84.5046 "
   class="fil5 str2"
   id="_179366680" />
    <line
   y2="79.955101"
   x2="155.634"
   y1="78.249001"
   x1="155.06599"
   class="fil5 str2"
   id="_179366752" />
    <polyline
   points="156.203,76.543 157.056,76.8273 157.625,76.543 158.194,76.543 159.047,76.543 "
   class="fil5 str2"
   id="_179366824" />
    <polyline
   points="156.203,74.5526 157.056,73.9839 157.909,73.1309 "
   class="fil5 str2"
   id="_179363416" />
    <polyline
   points="155.634,72.8465 156.203,68.8657 156.772,66.5909 157.909,64.0318 "
   class="fil5 str2"
   id="_179363200" />
    <polygon
   points="153.928,78.8177 152.791,78.8177 151.654,78.5334 150.801,77.6804 150.232,76.543 150.232,75.1213 150.801,73.6995 151.654,72.8465 152.791,71.9935 153.928,71.9935 155.066,72.2778 155.919,73.1309 156.487,74.5526 156.487,75.6899 155.919,77.1117 155.066,78.249 "
   class="fil2 str1"
   id="_179362360" />
    <polygon
   points="154.213,78.8177 153.075,79.1021 151.938,78.8177 151.085,77.9647 150.516,76.543 150.516,75.4056 151.085,73.9839 151.938,72.8465 153.075,72.2778 154.213,72.2778 155.35,72.5622 156.203,73.4152 156.772,74.5526 156.487,75.9743 156.203,77.1117 155.35,78.249 "
   class="fil2 str1"
   id="_179361712" />
    <polygon
   points="154.213,78.5334 153.075,78.8177 152.222,78.249 151.369,77.6804 151.085,76.543 151.085,75.4056 151.369,74.2682 152.222,73.4152 153.075,72.8465 154.213,72.5622 155.066,72.8465 155.919,73.6995 156.203,74.8369 156.203,75.9743 155.919,77.1117 155.066,77.9647 "
   class="fil1 str1"
   id="_179361064" />
    <polyline
   points="80.8519,78.5334 81.9892,78.5334 83.411,78.249 "
   class="fil5 str2"
   id="_179360416" />
    <polyline
   points="130.896,78.5334 129.475,78.5334 128.053,78.249 "
   class="fil5 str2"
   id="_179364712" />
    <polyline
   points="163.596,83.0829 162.459,82.7986 161.321,81.9455 "
   class="fil5 str2"
   id="_179366992" />
    <polyline
   points="47.8679,83.0829 49.0053,82.7986 50.1427,81.9455 "
   class="fil5 str2"
   id="_179360344" />
    <polygon
   points="51.8488,108.958 50.7114,108.674 49.574,107.536 49.0053,106.399 48.721,104.977 49.0053,103.84 49.8584,102.703 50.7114,102.134 50.7114,102.134 53.2705,108.958 52.9861,108.958 "
   class="fil3 str1"
   id="_179360992" />
    <polygon
   points="52.7018,109.527 53.5548,109.243 52.4175,104.977 51.8488,102.987 50.9957,101.281 50.1427,101.565 "
   class="fil0 str1"
   id="_179361640" />
    <polygon
   points="56.967,99.5749 57.82,100.428 58.1043,101.85 58.3887,103.271 58.673,104.693 58.3887,105.546 57.82,106.115 57.82,106.115 57.82,106.399 56.3983,106.684 55.8296,104.409 55.2609,102.703 54.6922,100.997 54.1235,98.7218 55.8296,98.4375 56.3983,98.7218 "
   class="fil2 str1"
   id="_179362288" />
    <polygon
   points="54.9766,105.83 55.8296,106.399 56.3983,106.684 56.967,106.115 57.2513,105.262 57.2513,103.84 56.967,102.418 56.3983,100.997 55.8296,99.5749 54.9766,99.0062 54.1235,98.7218 53.8392,99.2905 53.5548,100.143 53.5548,101.565 53.8392,102.987 54.4079,104.693 "
   class="fil2 str1"
   id="_179363176" />
    <polygon
   points="52.9861,100.997 52.7018,102.134 52.9861,103.271 53.2705,104.409 54.1235,105.262 54.9766,106.115 56.1139,106.399 56.6826,105.83 56.967,104.693 56.6826,102.418 56.1139,100.997 55.5452,100.143 54.9766,99.5749 54.1235,99.2905 53.2705,100.143 "
   class="fil1 str1"
   id="_179363392" />
    <polygon
   points="159.615,108.958 160.753,108.674 161.89,107.536 162.459,106.399 162.743,104.977 162.459,103.84 161.606,102.703 160.753,102.134 160.468,102.134 158.194,108.958 158.478,108.958 "
   class="fil3 str1"
   id="_179362336" />
    <polygon
   points="158.762,109.527 157.909,109.243 159.047,104.977 159.615,102.987 160.468,101.281 161.321,101.565 "
   class="fil0 str1"
   id="_179362120" />
    <polygon
   points="154.497,99.5749 153.644,100.428 153.36,101.85 153.075,103.271 152.791,104.693 153.075,105.546 153.644,106.115 153.644,106.115 153.644,106.399 155.066,106.684 155.634,104.409 156.203,102.703 156.772,100.997 157.341,98.7218 155.634,98.4375 155.066,98.7218 "
   class="fil2 str1"
   id="_179361904" />
    <polygon
   points="156.487,105.83 155.634,106.399 155.066,106.684 154.497,106.115 154.213,105.262 154.213,103.84 154.497,102.418 155.066,100.997 155.634,99.5749 156.487,99.0062 157.056,98.7218 157.625,99.2905 157.909,100.143 157.909,101.565 157.625,102.987 157.056,104.693 "
   class="fil2 str1"
   id="_179361688" />
    <polygon
   points="158.478,100.997 158.762,102.134 158.478,103.271 158.194,104.409 157.341,105.262 156.487,106.115 155.066,106.399 154.781,105.83 154.497,104.693 154.781,102.418 155.35,100.997 155.919,100.143 156.487,99.5749 157.341,99.2905 158.194,100.143 "
   class="fil1 str1"
   id="_179361472" />
    <polygon
   points="57.82,110.949 58.673,110.664 59.5261,110.38 60.9478,110.096 62.6538,109.527 64.9286,109.243 67.4877,108.674 70.3311,108.105 73.7433,107.821 77.7241,107.252 82.2736,106.968 87.1074,106.684 92.7943,106.399 99.0499,106.115 105.59,106.115 112.414,106.115 118.67,106.399 124.357,106.684 129.19,106.968 133.74,107.252 137.721,107.821 141.133,108.105 143.976,108.674 146.535,109.243 148.81,109.527 150.516,110.096 151.938,110.38 152.791,110.664 153.644,110.949 153.928,111.233 153.928,111.233 153.644,111.517 153.075,111.802 151.938,112.086 150.801,112.37 149.095,112.939 147.104,113.223 144.829,113.792 141.702,114.076 138.289,114.645 134.309,115.214 130.043,115.498 124.925,115.783 119.238,116.067 112.698,116.067 105.59,116.351 98.7656,116.067 92.2256,116.067 86.5388,115.783 81.4206,115.498 76.8711,115.214 72.8902,114.645 69.4781,114.076 66.6347,113.792 64.3599,113.223 62.3695,112.939 60.6634,112.37 59.2417,112.086 58.3887,111.802 57.82,111.517 57.2513,111.233 57.5356,111.233 "
   class="fil8 str1"
   id="_179361256" />
    <line
   y2="105.262"
   x2="93.362999"
   y1="116.92"
   x1="93.362999"
   class="fil5 str2"
   id="_179361040" />
    <line
   y2="105.262"
   x2="91.088303"
   y1="116.92"
   x1="91.088303"
   class="fil5 str1"
   id="_179360824" />
    <line
   y2="105.262"
   x2="89.0979"
   y1="116.92"
   x1="89.0979"
   class="fil5 str1"
   id="_179360608" />
    <line
   y2="105.262"
   x2="87.107399"
   y1="116.92"
   x1="87.107399"
   class="fil5 str1"
   id="_180889448" />
    <line
   y2="105.262"
   x2="85.116997"
   y1="116.92"
   x1="85.116997"
   class="fil5 str3"
   id="_180894608" />
    <line
   y2="105.83"
   x2="81.704903"
   y1="116.351"
   x1="81.704903"
   class="fil5 str3"
   id="_180890888" />
    <line
   y2="105.546"
   x2="83.411003"
   y1="116.635"
   x1="83.411003"
   class="fil5 str3"
   id="_180889712" />
    <line
   y2="106.115"
   x2="78.292801"
   y1="116.067"
   x1="78.292801"
   class="fil5 str3"
   id="_180887648" />
    <line
   y2="105.83"
   x2="79.998802"
   y1="116.351"
   x1="79.998802"
   class="fil5 str3"
   id="_180893168" />
    <line
   y2="106.968"
   x2="74.027603"
   y1="115.498"
   x1="74.027603"
   class="fil5 str3"
   id="_180895688" />
    <line
   y2="106.399"
   x2="75.449303"
   y1="115.498"
   x1="75.449303"
   class="fil5 str3"
   id="_180888416" />
    <line
   y2="106.399"
   x2="76.871101"
   y1="115.783"
   x1="76.871101"
   class="fil5 str3"
   id="_180889568" />
    <line
   y2="106.968"
   x2="72.605904"
   y1="115.214"
   x1="72.605904"
   class="fil5 str4"
   id="_180893840" />
    <line
   y2="107.252"
   x2="71.184196"
   y1="114.929"
   x1="71.184196"
   class="fil5 str4"
   id="_180894560" />
    <line
   y2="107.536"
   x2="69.478104"
   y1="114.645"
   x1="69.478104"
   class="fil5 str4"
   id="_180889040" />
    <line
   y2="108.39"
   x2="66.350304"
   y1="114.076"
   x1="66.350304"
   class="fil5 str4"
   id="_180889856" />
    <line
   y2="107.821"
   x2="68.056396"
   y1="114.361"
   x1="68.056396"
   class="fil5 str4"
   id="_180890768" />
    <line
   y2="108.674"
   x2="64.644302"
   y1="113.508"
   x1="64.644302"
   class="fil5 str4"
   id="_180890072" />
    <line
   y2="108.958"
   x2="63.2225"
   y1="113.223"
   x1="63.2225"
   class="fil5 str5"
   id="_180889424" />
    <line
   y2="109.243"
   x2="61.8008"
   y1="112.655"
   x1="61.8008"
   class="fil5 str5"
   id="_180894056" />
    <line
   y2="109.811"
   x2="60.0947"
   y1="112.37"
   x1="60.0947"
   class="fil5 str5"
   id="_180895424" />
    <line
   y2="110.664"
   x2="58.388699"
   y1="111.802"
   x1="58.388699"
   class="fil5 str6"
   id="_180888608" />
    <line
   y2="105.83"
   x2="102.178"
   y1="116.351"
   x1="102.178"
   class="fil5 str2"
   id="_180891176" />
    <line
   y2="105.546"
   x2="98.481201"
   y1="116.92"
   x1="98.481201"
   class="fil5 str2"
   id="_180892088" />
    <line
   y2="105.262"
   x2="95.637802"
   y1="116.92"
   x1="95.637802"
   class="fil5 str2"
   id="_180893216" />
    <line
   y2="105.262"
   x2="118.101"
   y1="116.92"
   x1="118.101"
   class="fil5 str2"
   id="_180890864" />
    <line
   y2="105.262"
   x2="120.376"
   y1="116.92"
   x1="120.376"
   class="fil5 str1"
   id="_180894368" />
    <line
   y2="105.262"
   x2="122.366"
   y1="116.92"
   x1="122.366"
   class="fil5 str1"
   id="_180892496" />
    <line
   y2="105.262"
   x2="124.357"
   y1="116.92"
   x1="124.357"
   class="fil5 str1"
   id="_180891992" />
    <line
   y2="105.262"
   x2="126.347"
   y1="116.92"
   x1="126.347"
   class="fil5 str3"
   id="_180893408" />
    <line
   y2="105.83"
   x2="129.759"
   y1="116.351"
   x1="129.759"
   class="fil5 str3"
   id="_180891248" />
    <line
   y2="105.546"
   x2="128.05299"
   y1="116.635"
   x1="128.05299"
   class="fil5 str3"
   id="_180894464" />
    <line
   y2="106.115"
   x2="133.17101"
   y1="116.067"
   x1="133.17101"
   class="fil5 str3"
   id="_180888032" />
    <line
   y2="105.83"
   x2="131.465"
   y1="116.351"
   x1="131.465"
   class="fil5 str3"
   id="_180891152" />
    <line
   y2="106.968"
   x2="137.436"
   y1="115.498"
   x1="137.436"
   class="fil5 str3"
   id="_180894800" />
    <line
   y2="106.399"
   x2="136.015"
   y1="115.498"
   x1="136.015"
   class="fil5 str3"
   id="_180889016" />
    <line
   y2="106.399"
   x2="134.593"
   y1="115.783"
   x1="134.593"
   class="fil5 str3"
   id="_180895448" />
    <line
   y2="106.968"
   x2="138.858"
   y1="115.214"
   x1="138.858"
   class="fil5 str4"
   id="_180893744" />
    <line
   y2="107.252"
   x2="140.28"
   y1="114.929"
   x1="140.28"
   class="fil5 str4"
   id="_180890000" />
    <line
   y2="107.536"
   x2="141.98599"
   y1="114.645"
   x1="141.98599"
   class="fil5 str4"
   id="_180892328" />
    <line
   y2="108.39"
   x2="145.114"
   y1="114.076"
   x1="145.114"
   class="fil5 str4"
   id="_180895784" />
    <line
   y2="107.821"
   x2="143.408"
   y1="114.361"
   x1="143.408"
   class="fil5 str4"
   id="_180895400" />
    <line
   y2="108.674"
   x2="146.82001"
   y1="113.508"
   x1="146.82001"
   class="fil5 str4"
   id="_180895136" />
    <line
   y2="108.958"
   x2="148.241"
   y1="113.223"
   x1="148.241"
   class="fil5 str5"
   id="_180894752" />
    <line
   y2="109.243"
   x2="149.66299"
   y1="112.655"
   x1="149.66299"
   class="fil5 str5"
   id="_180887696" />
    <line
   y2="109.811"
   x2="151.369"
   y1="112.37"
   x1="151.369"
   class="fil5 str5"
   id="_180892640" />
    <line
   y2="110.664"
   x2="153.075"
   y1="111.802"
   x1="153.075"
   class="fil5 str6"
   id="_180888104" />
    <line
   y2="105.83"
   x2="109.286"
   y1="116.351"
   x1="109.286"
   class="fil5 str2"
   id="_180890264" />
    <line
   y2="105.546"
   x2="112.983"
   y1="116.92"
   x1="112.983"
   class="fil5 str2"
   id="_180892280" />
    <line
   y2="105.262"
   x2="115.826"
   y1="116.92"
   x1="115.826"
   class="fil5 str2"
   id="_180892256" />
    <path
   d="m 105.59,102.703 -10.8051,0.2844 -11.0894,0.2843 -11.0894,0.8531 -10.8051,1.706 -2.8434,0.5687 -2.5591,0.8531 -2.2748,1.4217 -0.853,0.853 -0.5687,1.1374 v 1.1374 l 0.2843,0.853 1.4218,1.4217 1.9904,0.853 1.706,0.8531 8.246,1.706 8.5303,1.1374 8.246,0.5687 8.5303,0.2844 13.0799,0.2843 13.0798,-0.2843 13.0798,-0.5687 13.0799,-1.1374 3.6964,-0.853 3.6965,-0.5687 3.4122,-1.1374 3.1277,-1.9904 0.5687,-0.8531 0.2844,-0.853 v -0.853 l -0.2844,-0.8531 -1.4217,-1.4217 -1.9904,-0.853 -6.8243,-1.9904 -6.8242,-1.1374 -7.1086,-0.5687 -7.1086,-0.5687 -10.8051,-0.5687 z m 0,3.4122 h 6.8243 l 6.2555,0.2843 5.6869,0.2844 4.8339,0.2843 4.5495,0.2844 3.9808,0.5686 3.4121,0.2844 2.8435,0.5687 2.5591,0.5687 2.2747,0.2843 1.7061,0.5687 1.4217,0.2843 0.853,0.2844 0.8531,0.2843 0.2843,0.2844 v 0 l -0.2843,0.2843 -0.5687,0.2844 -1.1374,0.2843 -1.1374,0.2843 -1.706,0.5687 -1.9904,0.2844 -2.2748,0.5687 -3.1278,0.2843 -3.4121,0.5687 -3.9808,0.5687 -4.2652,0.2843 -5.1182,0.2844 -5.6869,0.2843 h -6.5399 l -7.1086,0.2844 -6.8242,-0.2844 h -6.54 l -5.6868,-0.2843 -5.1182,-0.2844 -4.5495,-0.2843 -3.9809,-0.5687 -3.4121,-0.5687 -2.8434,-0.2843 -2.2748,-0.5687 -1.9904,-0.2844 -1.7061,-0.5687 -1.1373,-0.2843 -1.1374,-0.2843 -0.5687,-0.2844 -0.2844,-0.2843 v 0 l 0.2844,-0.2844 0.853,-0.2843 0.8531,-0.2844 1.4217,-0.2843 1.706,-0.5687 2.2748,-0.2843 2.5591,-0.5687 2.8434,-0.5687 3.4122,-0.2844 3.9808,-0.5686 4.5495,-0.2844 4.8338,-0.2843 5.6869,-0.2844 6.2556,-0.2843 z"
   class="fil2 str1"
   id="_180894512" />
   </g>
   <path
   d="m 175.982,114.705 c -0.0579,34.0776 0.1157,68.1577 -0.0882,102.233 -1.0862,30.5802 -24.4934,58.5114 -54.3846,64.9704 -27.6528,6.7374 -58.6091,-5.3703 -74.2181,-29.2446 -9.3472,-13.3519 -12.7896,-29.876 -12.0195,-45.9606 v -91.9977 h 140.71 z"
   class="fil7"
   id="_184827776" />
   <g
   id="g33931"
   clip-path="url(#id0)">
    <g
   id="g33929">
     <path
   d="m 29.799,207.331 c 4.5693,-3.7013 8.4007,-8.8803 12.4884,-13.5468 1.412,-2.8182 3.0815,-4.6065 4.8684,-5.9267 3.1582,-2.8546 5.5786,-7.187 8.2551,-11.0068 1.8873,-2.962 4.2745,-3.9271 6.5617,-5.2917 2.3597,-2.2967 3.107,-15.5805 4.4451,-18.8994 1.1165,-4.5196 3.4516,-6.1978 5.715,-8.0434 5.4328,0 10.8656,0 16.2985,0 3.2383,4.3522 5.1979,16.3769 6.5637,22.2268 1.1046,2.3688 5.734,4.6854 8.8881,7.6793 1.9875,3.9756 1.4939,3.6015 5.717,5.0089 1.5043,0.43 3.3129,1.7731 4.4431,5.5746 1.5856,-1.749 2.7615,-4.1124 3.5984,-6.9851 1.7509,-4.7392 5.9401,-5.9183 9.8831,-8.4667 2.5608,-3.1404 3.8156,-8.3262 7.262,-12.2768 1.6227,-1.6228 3.2455,-3.2455 4.8684,-4.8684 2.0242,-3.558 4.423,-3.558 7.1967,0 1.7617,1.6261 2.2151,6.5579 4.0217,9.7368 1.0348,2.8458 2.3988,5.3624 3.8101,7.8317 1.9872,0.9836 2.7568,4.8089 3.5983,8.4667 0.5915,2.2581 1.9319,3.3922 4.0217,5.6498 1.9744,1.7999 1.9515,5.722 2.3284,8.3204 0.5859,2.6762 3.867,2.5614 5.715,5.5033 1.3232,2.1632 2.3463,4.7269 4.8684,5.2918 1.6226,0.6354 3.2452,1.459 4.8684,3.5983 2.4694,3.4989 4.9385,6.1775 7.4084,5.9267 0.635,2.0461 1.27,4.0922 1.905,6.1384 0,7.5498 0,15.0996 0,22.6495 -3.6593,15.7625 -10.7894,21.1129 -18.4152,24.976 l -62.4422,26.0352 C 86.1028,283.1788 63.666,273.7243 41.2291,264.2698 37.0662,257.7785 32.9034,251.2874 28.7406,244.7963 29.0935,232.3079 29.4463,219.8194 29.799,207.331 Z"
   class="fil2 str7"
   id="_1808895441" />
     <path
   d="m 48.8492,260.248 c 1.7593,-3.4625 5.0068,-4.942 8.4667,-6.1384 6.0948,-1.6822 9.9639,-10.043 14.6051,-16.0868 2.971,-5.6325 7.6277,-8.7369 11.8535,-12.4884 3.1507,-2.9885 3.8473,-9.204 9.7367,-10.5835 7.7716,-4.96 8.8658,-11.0341 12.2768,-16.7218 0.7712,-1.4627 5.1546,-2.6241 5.9267,-5.2917 0.448,-3.0352 0.4269,-5.929 2.5401,-7.8317"
   class="fil5 str7"
   id="_180893288" />
     <path
   d="m 100.029,270.08 c 3.895,-6.4689 9.3076,-11.4201 15.2695,-15.8227 2.8406,-0.4458 -2.3496,5.0284 -0.5533,5.975 8.4744,-2.4398 11.667,2.8303 17.1505,3.3195 7.2574,-2.7759 10.6142,-10.2096 15.0482,-9.5158 -4.509,4.0941 -5.3021,8.1881 -0.6639,12.282 -0.1451,1.257 -0.5122,2.2551 -2.4342,1.4384 -4.0204,-1.8072 -7.3031,-1.6966 -9.8477,0.3319 -2.2316,-1.8814 -4.5553,-2.287 -7.0815,0.5533 -4.3966,0.9541 -8.8687,2.0389 -12.0607,0.8852 -4.5905,-0.3963 -10.0473,-1.8149 -11.1755,1.881 0.1475,-4.7579 -4.9423,1.6597 -3.6514,-1.3278 z"
   class="fil9 str7"
   id="_180888824" />
     <path
   d="m 144.308,186.787 c 4.4045,-3.3453 8.1183,-5.8269 9.3646,-5.2245 -1.2523,3.056 -2.1752,6.1114 -0.7886,9.1675 0.1351,1.0757 -5.2058,0.9516 -4.8302,-0.1972 0.5948,-2.9082 -1.6594,-3.2516 -3.7458,-3.7458 z"
   class="fil9 str7"
   id="_180888392" />
     <path
   d="m 70.1085,169.89 c -3.1634,1.0773 -4.0624,3.8536 -5.4145,6.2903 0.1035,1.7815 1.3226,3.2699 3.9812,2.2294 2.442,-1.5201 3.3705,-2.33 5.8126,-2.7868 3.0563,-0.4971 2.4219,1.2989 1.5925,3.185 -0.8479,2.9202 9.3074,1.3678 13.8546,2.9461 0.5873,-0.3821 1.0814,-1.1522 -0.5724,-1.423 -3.9165,-0.6413 -12.9089,-0.6855 -11.0527,-2.0009 0.5556,-1.8367 1.3215,-4.8997 -3.1054,-4.6978 -0.0662,-3.1371 0.7949,-5.1406 -5.0959,-3.7423 z"
   class="fil9 str7"
   id="_180888776" />
     <path
   d="m 32.5299,240.359 c 5.2942,-3.7205 6.2263,0.8474 8.4863,2.8931 2.8015,2.9989 7.8712,-5.8792 10.8008,-3.8575 2.7483,2.9101 5.3199,2.1063 7.8112,-0.3857"
   class="fil5 str7"
   id="_180889808" />
     <path
   d="m 53.3018,208.941 c 5.6093,6.4564 22.372,-0.8119 25.9492,10.8894 -3.2062,-3.0557 -6.7206,-5.0287 -8.6883,-2.2011 -2.9166,1.8876 -13.4713,2.7774 -17.2609,-8.6883 z"
   class="fil9 str7"
   id="_180889736" />
     <path
   d="m 31.8743,224.013 c 7.5925,-2.603 13.4633,-8.4782 19.2785,-14.4589 1.1891,-2.0554 2.0691,-1.0174 2.9049,0.4622"
   class="fil5 str7"
   id="_180891536" />
     <path
   d="m 80.3542,190.283 c 3.4021,0.159 6.4249,-5.2536 13.6372,-6.9935 -2.8996,1.9816 -5.2892,4.1088 -6.5564,6.5564 2.2745,-0.1358 8.4553,-4.9653 9.0041,-4.1961 0.1924,0.7516 1.1302,0.9442 -1.6609,3.9338 2.452,-0.5847 4.5525,-0.9938 4.1961,-0.1748 -0.7148,0.583 -1.6789,1.1651 -1.3987,1.7483 0.6993,0.3789 1.3987,0.2913 2.098,-0.2622 -0.2661,1.4011 -0.2103,2.5972 2.0981,2.3603"
   class="fil5 str7"
   id="_180890600" />
     <path
   d="m 64.0051,197.502 c 5.3305,-2.4957 8.3115,-2.7227 6.1236,2.0412 0.2916,0.8424 1.1015,1.1664 2.4299,0.972 1.2386,-1.5598 -0.3078,1.5228 2.5272,2.5272 1.2636,0.2592 3.1752,-0.5184 5.7348,-2.3328 -0.2268,3.3047 1.1016,3.8879 3.9852,1.7496 -1.3608,4.3739 1.296,5.6375 7.9703,3.7907"
   class="fil5 str7"
   id="_180889280" />
     <path
   d="m 48.5916,195.059 c 1.8296,-5.2636 5.5036,-7.2084 8.7058,-10.0024 2.1104,-3.6322 4.488,-7.3111 2.3154,-10.1876"
   class="fil5 str7"
   id="_180889592" />
     <path
   d="m 122.165,179.089 c 4.5927,-4.4524 6.3841,-4.3524 7.6873,-3.4593 1.0594,1.5182 0.4756,4.0888 2.9212,4.7662 0.9478,-0.0818 1.8958,-1.6868 2.8443,-1.1531 1.6088,-0.2767 1.6736,1.6926 4.228,1.7681 1.3319,0.6834 2.6648,-0.0239 3.9974,-0.3075"
   class="fil5 str7"
   id="_180891368" />
     <path
   d="m 138.385,171.786 c 5.0226,-2.3096 4.5355,0.2787 5.458,1.6143 5.3649,-3.3904 5.8092,-1.3681 6.9186,-0.0769 1.6767,0.2624 0.911,0.9158 -2.5368,1.9987 3.2591,0.1495 4.7175,1.7398 5.9192,3.5362"
   class="fil5 str7"
   id="_180892736" />
     <path
   d="m 133.927,166.713 c 5.2222,-7.0619 5.7977,-3.4641 7.3029,-1.9987 1.6272,-1.5503 3.1902,-2.396 4.6124,-1.6912"
   class="fil5 str7"
   id="_180891656" />
     <path
   d="m 158.388,183.603 c 1.3738,2.4404 2.2321,5.4996 2.0715,9.7819 3.9897,1.4192 5.4473,3.2604 5.754,5.2937 2.3655,2.7122 6.684,3.8583 6.3294,8.7461 -1.2986,1.7314 3.2857,1.2378 6.0993,2.3016 1.5355,1.0846 3.0308,2.7972 4.258,4.0278"
   class="fil5 str7"
   id="_180891824" />
     <path
   d="m 95.7843,219.969 c 7.1949,2.8576 11.2752,-4.0742 16.1112,-8.6311 5.5622,-11.0859 10.3956,-17.0701 14.7303,-19.5636 -14.0488,9.7132 -13.5839,27.1073 -22.4407,31.3018"
   class="fil5 str7"
   id="_180888368" />
     <path
   d="m 132.84,190.969 c 7.0116,-0.7903 2.661,4.3037 4.6032,7.135 2.6187,1.0227 5.4008,-1.4715 7.3651,-0.4603 0.3583,3.3032 0.2663,7.0365 7.8255,3.4524 2.2249,-0.729 3.9895,-0.0769 5.2937,1.9563"
   class="fil5 str7"
   id="_180893912" />
     <path
   d="m 74.3793,249.66 c 8.7811,5.8892 11.7267,-5.0002 16.9168,-9.4366 3.5344,-3.8878 5.1817,-2.9234 6.5596,-1.2659 3.6103,-3.7342 5.6032,-2.6164 7.3652,-0.8055 3.5289,-2.4555 6.8663,-3.7596 9.7818,-2.5318 3.0916,1.3044 2.5009,-3.529 2.6469,-7.135 0.4459,-10.1511 6.0138,-11.6758 12.3136,-11.9683 7.3732,0.568 0.9149,5.4213 7.1349,4.1429 2.1517,-0.0337 2.9559,-1.685 3.5675,-3.5675 -0.7566,-2.0373 2.1461,-0.7481 4.8334,0.3452 1.7291,0.0469 0.5792,-2.5752 4.0278,-4.0278 1.5725,-0.5118 3.145,1.3258 4.7183,0 1.6107,-0.4418 3.2218,-2.6973 4.8334,-2.4167 3.218,0.7016 2.9261,3.2748 7.2501,4.6032 2.4783,0.2858 4.6241,-0.7592 6.7897,-1.7262"
   class="fil5 str7"
   id="_180888560" />
     <path
   d="m 120.039,248.095 c 3.7785,0.281 7.3072,-0.6869 10.5863,-2.9043 -3.4665,1.4053 -5.9334,5.0588 -7.4011,10.9611"
   class="fil5 str7"
   id="_180888728" />
     <path
   d="m 129.594,245.846 c 4.9675,-2.7215 7.4276,-6.2981 13.3032,-10.3052 4.5986,-3.2674 8.6111,-2.2355 12.46,0 4.6136,2.9433 9.3759,2.1782 14.24,-1.1243"
   class="fil5 str7"
   id="_180894032" />
     <path
   d="m 149.362,252.685 c 18.367,-3.842 10.0878,4.2447 22.6716,6.4642"
   class="fil5 str7"
   id="_180892352" />
     <g
   id="g33927">
      <rect
   height="7.7758498"
   width="11.884"
   y="136.841"
   x="71.886497"
   class="fil1 str8"
   id="_180894224" />
      <g
   id="g33912">
       <rect
   height="2.49417"
   width="1.36927"
   y="138.42999"
   x="73.231201"
   class="fil1 str9"
   id="_180891032" />
       <rect
   height="2.49417"
   width="1.36927"
   y="138.42999"
   x="76.532402"
   class="fil1 str9"
   id="_180892520" />
       <rect
   height="2.49417"
   width="1.36927"
   y="138.42999"
   x="79.686798"
   class="fil1 str9"
   id="_180890720" />
      </g>
      <polygon
   points="73.8977,131.852 82.6211,131.852 82.6211,137.931 68.9239,137.931 "
   class="fil1 str7"
   id="_180890336" />
      <polygon
   points="88.614,127.764 85.5261,125.935 82.546,127.71 82.546,144.614 88.614,144.614 "
   class="fil1 str7"
   id="_180889112" />
      <rect
   height="2.49417"
   width="1.36927"
   y="133.96899"
   x="84.895302"
   class="fil1 str9"
   id="_180887936" />
      <path
   d="m 86.6681,140.631 v 3.8824 h -2.1762 v -3.8824 c 0,-1.4417 2.1762,-1.4415 2.1762,0 z"
   class="fil1 str9"
   id="_180887744" />
      <g
   id="g33920">
       <rect
   height="2.49417"
   width="1.36927"
   y="129.20799"
   x="83.793602"
   class="fil1 str9"
   id="_180894848" />
       <rect
   height="2.49417"
   width="1.36927"
   y="129.20799"
   x="85.997101"
   class="fil1 str9"
   id="_180895064" />
      </g>
      <g
   id="g33924">
       <line
   y2="119.888"
   x2="85.5951"
   y1="124.905"
   x1="85.5951"
   class="fil5 str7"
   id="_180895544" />
       <line
   y2="121.154"
   x2="86.6633"
   y1="121.154"
   x1="84.526901"
   class="fil5 str7"
   id="_180895760" />
      </g>
      <polygon
   points="89.6784,130.422 85.58,126.324 81.4817,130.422 80.2006,129.141 85.58,123.762 90.9594,129.141 "
   class="fil1 str8"
   id="_180892712" />
     </g>
    </g>
   </g>
   <path
   id="path33933"
   d="m 175.982,114.705 c -0.0579,34.0776 0.1157,68.1577 -0.0882,102.233 -1.0862,30.5802 -24.4934,58.5114 -54.3846,64.9704 -27.6528,6.7374 -58.6091,-5.3703 -74.2181,-29.2446 -9.3472,-13.3519 -12.7896,-29.876 -12.0195,-45.9606 v -91.9977 h 140.71 z"
   class="fil5 str10" />
   <path
   d="m 175.982,114.705 c -0.0578,34.0762 0.1157,68.1563 -0.0882,102.231 -1.0858,30.5813 -24.4934,58.5128 -54.3842,64.9704 -27.6532,6.737 -58.6095,-5.3703 -74.2185,-29.2449 C 37.9439,239.3099 34.5015,222.7858 35.272,206.7012 v -91.9963 h 140.71"
   class="fil10 str11"
   id="_184828256" />
  </g>
 </g>
</svg>
