<svg version="1.2" xmlns="http://www.w3.org/2000/svg" viewBox="0 0 643 1000" width="643" height="1000">
	<title>cospeito1</title>
	<style>
		.s0 { fill: #1a1a1a } 
		.s1 { fill: #c91020 } 
		.s2 { fill: #ffcc00 } 
		.s3 { fill: #ffffff } 
		.s4 { fill: #0065bd } 
		.s5 { fill: #0b8837 } 
	</style>
	<g id="Background">
		<path id="negro" fill-rule="evenodd" class="s0" d="m324.7 10c9 0 12.5 0.3 12.9 1.3 0.3 0.7-1.1 4.4-3 8.3-1.9 3.8-3.3 7.2-3 7.5 0.2 0.3 1.3 0.1 2.2-0.4 1-0.5 3.9-1.6 6.6-2.5q4.8-1.6 5.8-0.6c0.5 0.5 1 5.5 1 11.1 0 5.5-0.3 11.1-0.5 12.3-0.3 1.2-1.2 2.3-2 2.3-0.9 0-2.6-0.7-3.8-1.4-1.3-0.8-3.8-1.7-5.6-2-2.2-0.5-3.3-0.3-3.5 0.6-0.1 0.7 0.8 3 2.1 5 1.3 2.4 2 4.7 1.6 6.1-0.4 1.8 0.1 2.6 3.1 4 2.2 1.1 4.9 3.8 7.1 7.3 1.9 3 3.5 6.2 3.5 7 0 0.9 0.9 2.3 2 3.3 1.4 1.3 2 3 2 6.1 0 2.3-0.6 5.4-1.2 6.8-0.7 1.4-1.9 2.5-2.6 2.5-0.7 0-2.4 1.2-3.7 2.7-1.4 1.6-2.6 3.1-2.6 3.6 0 0.4 1.4 1.8 3.1 3.2 2 1.7 3.2 3.9 3.7 6.7 0.5 2.3 1.1 4.3 1.6 4.5 0.4 0.2 2.1-0.7 3.7-2.1 1.8-1.5 4.3-2.5 6.1-2.5 1.6 0 4.2 0.6 5.8 1.4 1.5 0.7 3.3 2.5 4 4 0.7 1.4 1.2 4 1.2 5.6 0 1.7 0.5 3.1 1.1 3.1 0.5 0 1.9-1.3 3.1-2.8 1.1-1.5 3.5-3.3 5.3-4.1 1.7-0.7 3.8-1.2 4.6-1.2 0.9 0 2.9 0.6 4.6 1.4 1.6 0.8 4 3.1 5.3 5.1 1.2 2 2.2 4.9 2.2 6.6 0 2.9 0.2 3 3.7 2.8 3-0.2 4-0.9 5.3-3.3 1-1.8 3.6-4 6.7-5.4 4.3-2.1 5.4-2.3 8.5-1.4 1.9 0.7 4.8 2.1 6.3 3.2 1.5 1.2 3.6 3.9 4.8 6.1 1.1 2.2 2 5.4 2 7.1 0 2.7 0.2 3 3.5 3 3.2 0 3.5-0.3 3.5-2.8 0-1.5 0.6-3.7 1.4-4.8 0.7-1.1 2.9-3 4.7-4.2 2.3-1.5 5.1-2.3 8-2.3 2.9 0 6 0.9 8.5 2.3 2.3 1.2 5 4 6.3 6.2 1.3 2.3 2.3 5.8 2.3 7.8 0 3.5 0.3 3.8 2.8 3.8 1.5 0 4.4 0.4 6.5 0.8 3.5 0.7 3.7 0.6 4.3-2.3 0.4-1.6 0.9-3.7 1.1-4.5 0.2-0.8 1.7-2.9 3.3-4.5 1.6-1.7 4.8-3.6 7.1-4.3 3.3-1 5-1 8.3 0 2.3 0.7 4.3 1.8 4.5 2.5 0.2 0.7 1.1 1.3 1.9 1.3 0.8 0 2.3 1.2 3.4 2.7 1 1.5 2.3 4.6 2.8 6.8 0.6 2.2 0.8 5.4 0.6 7.1-0.4 2.8-0.2 3.1 4.4 4.7 2.7 0.9 4.9 1.6 4.9 1.5 0.1-0.1 1.4-2 3.1-4.2 1.6-2.1 4.4-4.5 6.2-5.2 1.8-0.8 5.4-1.4 8.1-1.3 2.6 0 5.7 0.6 6.8 1.2 1.2 0.7 3.4 2.3 4.8 3.5 1.5 1.3 2.7 2.6 2.7 3 0.1 0.4 0.8 1.6 1.8 2.7 1.4 1.4 1.7 3.7 1.7 10.7 0 8.5 0.2 8.9 2.8 11 2.7 2 2.9 2 8.3 0.3 5.4-1.7 5.8-1.7 11.2 0.3 3.1 1.1 6.4 2.9 7.4 4 1 1.1 2.9 4 4.1 6.5 1.7 3.2 2.3 6.3 2.3 10.6 0 4.5-0.6 7.1-2.3 10.1-2.2 3.8-2.2 4.1-0.7 7.8 0.9 2 2.1 3.5 2.7 3.2 0.5-0.2 3.4 0.1 6.3 0.7 3.5 0.8 6.3 2.3 8.3 4.3 1.6 1.7 3.8 4.2 4.8 5.6 1.2 1.7 1.7 4.4 1.7 8.3 0 4.4-0.6 6.7-2.4 9.6-1.4 2.1-2.2 4.2-1.8 4.8 0.5 0.5 1.4 2.8 2.1 5 0.9 2.6 1.1 5.6 0.6 8.5-0.4 2.5-1.3 5.7-2 7.1-0.7 1.4-3 4.6-5 7-2.1 2.5-5.4 5.8-7.4 7.3-2.1 1.5-5.2 3.6-6.9 4.6-2.8 1.5-3.1 2.1-2.3 4 0.5 1.2 1 4.1 1 6.3 0 2.2-1 6.1-2.1 8.5-1.1 2.5-4.1 6.6-6.8 9.1-2.6 2.5-5.4 4.6-6.2 4.6-0.9-0.1-4.3 2.5-7.6 5.7-3.5 3.4-8.8 7.2-19.6 12.4l3.2 2.3c1.8 1.2 3.8 3.5 4.3 5 0.7 2 0.7 3.3-0.1 4.5-0.6 1-1.4 3.3-1.9 5.3-0.4 1.9-1.1 4-1.6 4.5-0.6 0.6 2 3.8 6.6 8.3 4.2 4 7.6 8 7.6 8.8 0 1.1-2 1.8-7.3 2.6-4 0.5-8.7 1.2-10.3 1.5-2.4 0.4-3.4 1.4-4.8 4.5-1.7 3.8-1.7 4.1 0 6.1 1.4 1.6 1.6 2.9 0.2 10h13.6c12 0 13.7 0.2 14.3 1.7 0.4 1 0.1 10.9-0.6 21.9-0.7 11.1-1.5 29.2-1.7 40.3-0.2 11.1-0.8 24.9-1.4 30.7-0.5 5.8-1.2 19.9-1.5 31.2-0.3 11.4-0.8 25.4-1.1 31.2-0.4 5.9-0.8 11.7-1 13.1-0.1 1.4-0.6 12.1-0.9 23.7-0.3 11.6-1.1 26.6-1.6 33.2-0.6 6.7-1.2 21.1-1.5 32.2-0.3 11.1-1 26.5-1.5 34.3-0.6 7.7-1.3 24-1.5 36.2-0.3 12.2-0.9 24.2-1.5 26.7-0.5 2.5-1.4 8.2-2 12.8-0.5 4.6-1.2 8.8-1.5 9.3-0.3 0.6-0.8 3.6-1.1 6.8-0.4 3.2-2.2 10.3-4.1 15.9-1.9 5.5-4.1 11.4-4.8 13.1-0.8 1.6-2.4 5.2-3.6 8-1.2 2.8-3.4 7.5-4.7 10.6-1.4 3-3.4 7.3-4.5 9.5-1.1 2.3-2.5 5-3.1 6.1-0.7 1.1-2.5 4-4.2 6.5-1.6 2.5-5.5 8-8.6 12.1-3 4.2-12.3 14.4-20.7 22.7-8.3 8.4-17.9 17.6-21.2 20.7-3.4 3-7.9 6.8-10 8.5-2.1 1.6-4.6 3.7-5.4 4.6-0.9 0.9-3.5 2.6-5.7 3.8-2.2 1.2-5.1 3-6.5 4-1.4 1-5.1 3.5-8.3 5.6-3.2 2-6.5 3.6-7.3 3.6-0.9 0-1.8 0.5-2 1-0.3 0.6-4.5 2.9-9.4 5.1-4.8 2.3-10.3 5-12.3 6-1.9 1-6.5 2.8-10.1 3.9-3.6 1.2-8.5 2.8-11 3.5-2.5 0.8-7.1 2.1-10.1 3-3 0.9-8.9 2.3-13.1 3.1-4.1 0.8-10.7 1.8-14.6 2.3-3.9 0.4-12.7 0.8-19.6 0.8-6.9 0-17.4-0.2-23.2-0.4-5.8-0.3-13.7-1.1-17.6-1.8-3.9-0.7-9.3-1.5-12.1-1.7-2.7-0.2-5.9-0.8-7-1.4-1.1-0.5-3.8-1.3-6.1-1.7-2.2-0.4-6.1-1.4-8.8-2.1-2.6-0.8-7.1-2.2-10-3-2.9-0.9-8.7-3-12.9-4.7-4.1-1.7-10.6-4.6-14.3-6.5-3.8-1.8-7.1-3.2-7.6-2.9-0.4 0.3-1.2 0.1-1.7-0.4-0.6-0.5-4.2-2.6-8.1-4.6-3.9-2.1-9-5-11.3-6.6-2.4-1.7-4.4-3-4.5-2.9-0.2 0-3.5-2.1-7.3-4.6-3.9-2.5-9.8-6.5-13.1-8.8-3.3-2.4-9.2-7.1-13.1-10.6-3.9-3.4-7.4-6.3-7.8-6.3-0.4 0-4.1-3.5-8.2-7.8-4.1-4.3-9.5-10.3-12-13.3-2.5-3.1-8.2-10.5-12.5-16.6-4.4-6.1-9-12.7-10.2-14.6-1.2-2-3.6-6.5-5.3-10.1-1.7-3.6-3.9-8.1-4.9-10.1-1-1.9-3-7.1-4.6-11.5-1.5-4.5-3.1-9.9-3.5-12.1-0.4-2.2-1.9-8.6-3.4-14.1-1.4-5.6-2.6-11.6-2.6-13.4 0-1.8-0.7-7.9-1.5-13.5-1.2-7.9-1.9-30.6-3-96.9-0.7-47.7-1.4-103.8-1.5-124.9 0-21-0.3-52.7-0.5-70.5-0.3-17.7-0.8-39.9-1.1-49.3-0.4-9.4-0.6-18.2-0.6-19.6 0-1.4 0.2-2.7 0.4-2.8 0.1-0.2 4-0.3 8.5-0.3 6 0 8.4-0.3 8.4-1.2 0-0.7-0.5-1.7-1.1-2.3-0.8-0.7-0.6-2.1 0.5-4.7 1.1-2.8 1.3-5 0.8-8.1-0.7-3.5-1.2-4.3-3.3-4.5-1.4-0.2-4.3-0.7-6.5-1.3-2.2-0.5-5.5-1.2-7.3-1.5-2-0.3-3.3-1.1-3.3-2 0-0.8 0.9-2.1 1.9-2.8 1-0.7 4.3-3.9 7.3-7.1 5-5.4 5.3-6 4.1-8-0.8-1.3-1.2-2.9-1.1-3.8 0.1-0.8-0.3-2.6-1-4-0.9-1.8-1-3.2-0.2-5.3 0.6-1.5 2.2-3.2 3.6-3.7 1.4-0.6 2.5-1.4 2.5-1.8 0-0.4-1-1.4-2.2-2.2-1.3-0.8-4.5-2.5-7.1-3.8-2.6-1.2-6.2-3.8-8.1-5.6-1.8-1.8-3.6-4-4-5-0.4-1-2.2-2.4-4-3.1-1.8-0.7-4.5-2.7-6.1-4.3-1.6-1.6-3.9-4.5-5.1-6.5-1.3-1.9-2.8-5.5-3.5-8-0.7-3.1-0.8-5.6-0.1-7.8 1-3.3 0.9-3.3-4.3-5.7-2.9-1.4-6.2-3.3-7.3-4.3-1.1-1-3.5-3.7-5.2-5.9-1.8-2.2-3.5-5.2-3.8-6.8-0.3-1.5-0.9-2.7-1.3-2.7-0.5 0-1.6-2.4-2.6-5.3-1.6-4.4-1.7-6-0.8-9.3 0.6-2.2 1.5-4.7 2-5.6 0.6-1 0.3-2.9-1-5.5-1-2.2-1.9-5.4-1.8-7.1 0-1.6 0.8-4.8 1.7-7 0.9-2.3 2.5-5.1 3.5-6.3 1-1.2 3.9-3.4 6.3-4.8 2.5-1.4 5.8-2.5 7.5-2.5 2.4 0 3.3-0.6 4.5-3.3 0.8-1.8 2.1-4.1 2.8-5.1 1-1.5 1-2-0.2-3-0.9-0.6-2.1-2.3-2.8-3.7-0.7-1.4-1.5-4.1-1.7-6-0.2-2 0.2-5.6 1-8.1 0.8-2.6 2.7-5.8 4.7-7.6 1.8-1.6 5-3.8 7.1-4.7 2-1 4.8-1.8 6-1.8 1.2 0 4.2 0.7 10.8 3l4.3-4c3.8-3.6 4.1-4.2 3-6-0.7-1.1-1.2-3.2-1.2-4.6 0-1.3 0.7-4.4 1.6-6.8 0.9-2.3 2.9-5.5 4.3-7.1 1.4-1.6 3.9-3.5 5.4-4.3 1.5-0.8 4.8-1.4 7.3-1.4 2.5 0 6 0.7 7.8 1.6 1.8 0.9 4.1 2.5 5 3.6 1 1 2.2 3 2.8 4.4 0.6 1.4 1.6 2.3 2.3 2 0.7-0.2 3.2-1 9.8-3v-5.3c0-2.9 0.4-5.5 1-5.8 0.5-0.3 0.8-1 0.5-1.5-0.3-0.6 1.1-2.6 3-4.5 1.9-2 4-3.6 4.5-3.6 0.6 0 2.7-0.7 4.8-1.6 3.1-1.4 4.4-1.5 7.6-0.5 2.1 0.6 5.5 3 7.8 5.4 2.2 2.4 4.1 5.4 4.3 6.8 0.1 1.6 0.8 2.5 2 2.5 0.9 0 4-0.1 11.8-0.5v-3.8c0-2 0.9-5.1 2-6.8 1-1.6 3.1-3.9 4.7-5.1 1.6-1.1 4.2-2.3 5.9-2.7 1.6-0.3 4.8-0.2 7 0.3 2.2 0.6 5.3 2.2 6.8 3.8 1.6 1.5 2.8 3.3 2.8 4 0 0.7 0.4 1.5 1 1.8 0.6 0.2 2.6 0 4.5-0.5 2.9-0.9 3.6-1.5 3.6-3.8 0-1.5 1-4 2.3-5.4 1.2-1.5 3.3-3.4 4.7-4.3 1.6-1.1 4.7-1.7 8.6-1.8 5.5-0.1 6.2 0.2 8.5 2.9 1.4 1.6 3 3.8 3.5 4.7 0.9 1.5 1.7 1.6 4.6 0.9 2.9-0.8 3.6-1.5 4.2-4.4 0.4-1.9 1.8-4.5 3-5.7 1.3-1.3 3.9-2.8 5.9-3.4 1.9-0.6 4.4-0.9 5.5-0.6 1.1 0.3 3.3 1.5 4.8 2.7 1.5 1.1 2.7 2.9 2.7 4.1 0 1.1 0.5 2 1 2 0.6 0 1.7-0.3 2.6-0.5 0.9-0.3 1.5-1.8 1.5-3.6 0-1.6 0.6-4.2 1.3-5.7 0.8-1.6 2.7-3.4 4.3-4.2 2.3-1 3.8-1.1 6.7-0.2 2.1 0.6 4.5 1.8 5.3 2.6 1.2 1.2 1.8 1.3 3.1 0.2 0.8-0.6 1.5-2.2 1.5-3.5-0.1-1.2 1.3-3.6 2.9-5.3 1.7-1.6 3.6-3 4.3-3 0.7 0-0.9-1.9-3.5-4.3-4.3-3.7-4.9-4.9-5.6-9.5-0.6-5-0.5-5.5 2.1-7.8q2.7-2.5 2.7-5.6c0-2.3 1.3-4.2 5.1-8 2.7-2.8 5.5-5.1 6-5.1 0.6 0 1-0.7 1-1.7 0-1 1.1-4.4 2.5-7.6 1.4-3.2 2.4-5.9 2.3-6.2-0.1-0.2-2.7 0.7-5.8 2.1-3 1.4-6 2.4-6.5 2.1-0.6-0.3-1-5.3-0.8-12.4 0.1-6.6 0.2-12.8 0.2-13.8 0.1-1 0.9-1.7 2.1-1.7 1.1 0 4 0.9 6.5 2 2.5 1.1 4.8 2 5.1 2 0.2 0 0.5-0.4 0.5-1 0-0.6-1.4-3.6-3-6.8-2.2-4.3-2.6-6.1-1.8-7 0.8-0.9 4.9-1.3 13.5-1.3zm17.7 127.7c-0.2 0.7 0.2 1.2 0.7 1.2 0.6 0 1.1 0.8 1.1 1.7 0 1 0.7 3.1 1.5 4.8 0.8 1.7 1.5 3.8 1.5 4.8 0 1 0.4 2 1 2.3 0.5 0.2 1.5 2.8 2 5.7l1 5.3c14.4 5.3 21.1 8.5 24.2 10.6 3 2 7.7 5.1 10.3 6.9 2.6 1.7 4.9 3.5 5.1 3.9 0.2 0.4 4.9 3.8 10.3 7.4 5.5 3.6 12.7 7.8 16 9.2 3.4 1.5 9.3 3.3 13.1 4.2 3.9 0.8 9.5 2 12.4 2.6 2.9 0.6 5.7 0.8 6.3 0.5 0.6-0.3 0.6-1.6 0-3.7-0.5-1.8-2.3-5.9-4-9.1-1.7-3.2-5.1-7.7-7.6-10.1-2.4-2.3-6.4-5.2-8.8-6.4-2.4-1.2-7.9-3.6-12.4-5.3-4.4-1.8-8.6-3.2-9.3-3.1-0.7 0-4.7-1.2-9-2.6-4.3-1.5-12.1-4.5-17.4-6.6-5.3-2.2-11.9-5.3-14.9-7-2.9-1.6-6.5-4-8-5.2-1.5-1.3-4.7-4.1-7.3-6.3-2.5-2.3-5.2-4.7-6.1-5.4-1-1-1.6-1-1.7-0.3zm-50.1 6.8c-3.3 3-7.4 6.2-9.1 7-1.6 0.9-5.5 2.9-8.5 4.5-3.1 1.7-8 3.9-11.1 5-3 1.1-8 2.8-11.1 3.9-3 1-8.7 2.9-12.5 4.1-3.9 1.2-8 2.6-9.1 3.1-1.1 0.5-5.9 2.7-10.6 4.8-5.1 2.4-10.1 5.6-12.6 8-2.2 2.3-5.5 6.6-7.3 9.7-3.2 5.6-3.2 5.7-1 5.7 1.3 0 7.1-0.7 12.9-1.4 5.8-0.8 11.9-2 13.6-2.7 1.6-0.7 4.3-1.9 6-2.6 1.7-0.8 3.9-2 5-2.7 1.1-0.6 6.4-4 11.6-7.4 5.3-3.3 13-8.2 17.1-10.7 4.2-2.5 10.3-5.5 13.6-6.6 3.3-1.1 7.6-2.3 9.6-2.6 1.9-0.4 4.1-1.2 4.8-1.9 0.7-0.6 1.3-2 1.3-3-0.1-0.9 1.5-5.6 3.4-10.3 2-4.7 3.5-8.7 3.5-8.8 0-0.2-0.8-0.4-1.8-0.4-0.9-0.1-4.4 2.3-7.7 5.3zm165.7 21.2c-0.1 0.5 1 2 2.4 3.4 2.4 2.3 2.9 2.4 6.3 1.2 2.1-0.6 4.9-1.2 6.3-1.2 1.4 0 4.5 0.9 6.8 2 2.5 1.2 5.6 3.8 7.3 6.3 1.7 2.3 3.4 5.8 3.7 7.8 0.3 1.9 0 5.9-0.8 8.7-1.3 5-1.2 5.6 0.8 9.6 1.2 2.4 2.5 6 2.8 8.1 0.4 2.9 1.1 3.9 2.8 4.2 1.3 0.2 7 1.2 12.9 2.1 5.8 0.9 13.3 2.4 16.6 3.2 3.3 0.9 6.7 1.8 7.5 2.1 0.9 0.3 2.2 0.7 3 0.8 0.9 0.2 2.7 0.6 4.1 1 1.4 0.3 5.4 2 9 3.7 3.6 1.7 9 4.9 12 7.2 3 2.3 7.6 6.7 10.3 9.9 4 4.8 4.9 5.4 4.9 3.6 0-1.3-1-6.2-2.1-10.9-1.2-4.7-3.4-11.4-5-14.8-1.6-3.5-4.8-8.9-7.1-12.1-2.4-3.2-7.9-8.6-12.4-12.1-4.5-3.5-9.7-7.2-11.6-8.3-2-1-7.6-3.8-12.6-6.2-5-2.3-10.7-4.9-12.6-5.6-1.9-0.7-5.3-1.9-7.6-2.7-2.2-0.7-7.4-2.3-11.5-3.5-4.2-1.2-8.9-2.6-10.6-3.2-1.7-0.5-6.9-1.6-11.6-2.5-4.7-0.9-9.7-1.9-11.2-2.2-1.4-0.3-2.7-0.1-2.8 0.4zm-297.2 4c-0.3 0.3-3.4 1-7 1.4-3.5 0.4-10.1 1.8-14.5 3-4.4 1.2-9.4 2.5-11.1 3-1.7 0.4-4.8 1.5-7 2.3-2.3 0.8-6.8 3-10.1 4.8-3.3 1.8-8.1 4.6-10.6 6.3-2.5 1.7-7 5.1-10 7.7-3.1 2.5-6.5 5.7-7.6 7.1-1.1 1.3-3.4 4.7-5.1 7.5-1.7 2.8-4.5 8.7-6.2 13.1-1.7 4.5-3.5 11-3.8 14.6l-0.7 6.6c9.9-11.5 14.8-16.3 17.3-18 2.5-1.7 5.5-3.7 6.6-4.4 1.1-0.7 3.1-1.8 4.5-2.4 1.4-0.6 4.8-2 7.5-3.1 2.8-1.1 7.3-2.6 10.1-3.5 2.8-0.8 13-3.1 22.7-5l17.6-3.6c2-7.4 1.9-9.1 0.9-11.9-0.7-1.9-1.4-5.3-1.4-7.5 0-2.2 1-6 2.3-8.5 1.2-2.5 3.8-5.7 5.7-7.3 2.2-1.8 3-2.8 2-2.8-0.9 0-1.9 0.2-2.1 0.6z"/>
		<path id="vermello" fill-rule="evenodd" class="s1" d="m290.3 168.2c0.6-0.1 0.9 0.7 0.8 1.6-0.2 1-0.3 5-0.4 8.8 0 3.9 0.2 8.4 0.6 10.1 0.3 1.7 1.6 5.2 2.8 7.8 1.2 2.7 2.6 4.8 3 4.8 0.4 0 0.7 0.4 0.7 1 0 0.5-1.4 2.2-3.1 3.8-2 1.8-3.3 4.1-3.8 6.8-0.4 2.2-0.3 6.3 0.1 9 0.5 2.8 0.7 5.2 0.6 5.3-0.2 0.1-2.1-0.1-4.3-0.6-2.7-0.5-5.9-0.3-9.6 0.6-4 1.1-6.2 2.3-8 4.6-1.7 2.2-2.5 4.5-2.5 7.5-0.1 4.1-0.2 4.3-3.1 4.3-1.6 0-4.8 1.1-7 2.4-2.4 1.5-5 4.3-6.3 6.8-1.3 2.4-2.3 3.6-2.3 2.6 0-1-1.7-3.4-3.8-5.3-2.9-2.8-4.5-3.6-7.5-3.5-3.4 0-3.8-0.3-3.8-2.5 0-1.4-0.4-3.6-0.8-4.8-0.5-1.3-2-3.5-3.3-5-2.2-2.5-3.1-2.7-10-2.8-5.8 0-8.3 0.5-10.8 2-1.8 1.1-3.5 1.8-3.8 1.5-0.3-0.3 0-1.5 0.7-2.8 0.7-1.4 0.9-4.5 0.5-8.3-0.4-3.3-1.6-7.6-2.7-9.5-1.7-2.8-1.8-3.7-0.8-4.2 0.7-0.4 3.1-1.3 5.3-1.9 2.3-0.7 5.9-1.9 8.1-2.7 2.2-0.9 7.4-3.1 11.6-5 4.1-1.9 9.1-4.5 11-5.7 2-1.3 7.4-4.8 12.1-7.9 4.7-3.1 9.7-6.2 11.1-6.9 1.4-0.7 2.7-1.5 3-1.9 0.3-0.3 3-1.8 6.1-3.4 3-1.5 8.4-3.6 12-4.6 3.6-1.1 7-2 7.6-2zm68.7 5.9c1.2 0 4 0.8 6 1.7 2.1 1 9 5.7 15.2 10.4 6.3 4.7 13.7 10 16.4 11.8 2.7 1.8 5.4 3.3 5.9 3.3 0.6 0 2.5 0.6 4.3 1.3 1.8 0.8 6.2 2.4 9.8 3.7 3.6 1.3 10.9 3.4 16.1 4.7 5.3 1.3 10.9 2.4 12.4 2.4 1.5 0 2.7 0.2 2.7 0.5 0 0.2-1 1.3-2.2 2.3-1.3 1-3 4.1-4 6.8-0.9 2.7-1.8 7.1-2 9.7-0.2 2.7-0.4 4.8-0.6 4.8-0.1 0-2.6-1.2-5.5-2.6-3.5-1.8-7-2.7-10.3-2.7-2.9 0-6.5 0.7-8.3 1.6-1.8 1-3.8 2.7-4.4 4-0.7 1.2-1.1 3.7-1 5.5 0.1 3-0.2 3.3-2.7 3.2-1.5 0-3.4 0.7-4.3 1.6-0.8 0.9-2 1.6-2.7 1.6-0.7-0.1-2.5 1.6-3.9 3.7-2.1 3.1-2.5 4.5-2 7.8 0.4 2.5 1.7 5.1 3.4 6.8 2 1.9 3.8 2.7 6.5 2.7 2.3 0 3.8 0.5 3.8 1.3 0 0.7-0.5 1.7-1 2.3-0.8 0.7-0.7 1.9 0 4 0.6 1.7 1.9 3.9 2.8 4.9 0.9 1.1 3.6 2.8 6 3.8 3 1.3 6.6 1.9 12.3 1.9 5.4 0 9.2-0.6 11.3-1.7 1.8-0.9 4.6-2.8 6.1-4.2 2.8-2.7 2.8-2.7 2.8-0.4 0 1.2-0.8 3.7-1.7 5.5-0.9 1.8-3.9 6-6.7 9.3-2.8 3.3-7.3 7.5-10.2 9.3-4.3 2.7-6.1 3.3-11.1 3.3-5.8 0-6.3-0.1-10.3-4.3-2.4-2.3-5-6.2-5.8-8.5-1.4-3.7-1.4-4.8-0.2-7.6 1-2.4 1.1-4.3 0.5-7.3-0.5-2.2-2-5-3.2-6.2-1.2-1.2-3.6-2.3-5.2-2.4-1.7-0.1-4.4-0.2-6.1-0.1-2.2 0.1-4.3 1.3-10.4 7.7l-0.3-5.3c-0.3-4.1 0-5.3 1.2-5.3 0.8 0 3.4-0.9 5.8-2 2.4-1.1 5.1-3.4 6.3-5.3 1.1-1.8 2-4.5 2-6 0-1.5-0.8-4.3-1.8-6.3-1-1.9-3.3-4.4-5.3-5.5-1.9-1.1-4.7-2-6.3-2-2.4 0-2.7-0.3-2.2-2.8 0.3-1.7-0.3-4.4-1.5-7.1-1.8-3.8-2.6-4.4-7.8-5.9-4.9-1.4-6.9-1.5-12.4-0.6-3.6 0.6-6.6 0.9-6.8 0.7-0.1-0.2 0.2-1.3 0.8-2.5 0.5-1.1 1-4.2 1-7 0-2.9-0.9-7.1-4.1-14.6l3.5-7c2.3-4.8 3.6-9.1 4-13 0.3-3.3 1.1-6.8 1.8-7.8 0.7-1.1 2.3-1.9 3.6-1.9zm-208.4 40.4c1.8-0.1 3.3 0.3 3.3 0.9 0 0.5-0.5 1-1 1-0.6 0-1.9 1.5-3 3.3-1.4 2.2-2 5.1-2 9.3 0 4.6 0.5 7 5 14.6h-6.3c-3.5 0.1-8.1 0.8-10.4 1.8-2.2 0.9-5.4 2.6-6.9 3.7-2.2 1.6-2.9 3-3.3 7-0.5 4.8-0.8 5.2-4.7 7.1-2.2 1.1-4.9 3.4-5.9 5-1.2 2.2-1.6 4.2-1.2 7.1 0.3 2.2 1.1 5 1.8 6.3 0.6 1.3 2.6 3 4.4 3.8 1.8 0.8 5.1 1.5 7.3 1.5 3.4 0 4 0.3 4 2 0 1.1-0.4 2-1 2-0.5 0-1.2-0.5-1.5-1-0.3-0.6-2.2-1-4.3-1-2 0-5 0.7-9.3 3l0.3-4c0.1-2.7-0.4-4.8-1.9-6.8-1.1-1.5-3.2-3.4-4.5-4-1.3-0.7-3.9-1.3-5.7-1.3-1.8 0-4.9 0.7-6.8 1.5-3.4 1.5-3.5 1.4-3.5-0.8 0-1.2-0.8-3.4-1.7-4.7-0.9-1.4-1.9-2.8-2.1-3.1-0.2-0.2-4.3-0.7-17.9-1.5l-1.7-3.5c-0.9-1.9-1.7-4.9-1.7-6.5 0-1.7 1-5.1 2.2-7.6 1.2-2.5 4.6-6.9 7.5-9.8 2.8-2.9 5.9-5.3 6.8-5.3 0.8 0 1.5-0.4 1.5-1 0-0.6 3.3-2.5 7.3-4.3 4-1.9 9.8-4.1 12.9-5 3-0.9 8-2.3 11-3.2 3.1-0.8 9.4-2.3 14.1-3.2 4.7-0.9 10.2-2 12.1-2.4 2-0.5 5-0.9 6.8-0.9zm356.6 9c3.6 0 9.3 0.6 12.6 1.4 3.4 0.8 8.6 2.1 11.6 2.8 3.1 0.8 9.3 3.4 14 5.9 4.6 2.4 10.8 6.7 13.6 9.5 3.5 3.3 6.5 7.6 8.9 12.5 2 4.2 3.9 9.2 4.2 11.1 0.3 2 0.2 4.1-0.2 4.8-0.5 1-1.4 1.1-3.5 0.3-1.5-0.6-4.9-1-7.5-1-4 0-5.2 0.4-7.1 2.7-1.3 1.5-2.3 3.4-2.3 4 0 0.7-0.5 1.3-1.2 1.3-0.7 0-1.7-0.4-2.3-1-0.5-0.6-3-1.1-5.5-1.3-3.3-0.1-5.5 0.5-7.8 2.1-1.8 1.2-4 3.6-4.8 5.2-1.3 2.6-1.3 3.7-0.3 7.2 0.7 2.3 2.8 5.5 7.9 9.9l-2.1 3.8c-1.1 2.1-2 4.9-2 6.3 0 1.4 0.7 3.6 1.5 4.8 0.9 1.2 3.5 3.4 5.8 4.7 2.4 1.3 6.8 2.9 9.8 3.6 4 0.8 6.6 0.8 9.4 0.1 2-0.6 3.7-0.8 3.7-0.3 0 0.4-2.1 2.1-4.8 3.9-2.6 1.7-6 3.7-7.5 4.3-1.5 0.6-4.1 1.1-5.8 1.1-1.7 0-4.3-0.7-5.8-1.5-1.5-0.7-4-2.7-5.5-4.2-1.5-1.6-3.4-5.2-4.2-7.9-0.9-2.9-1.1-5.5-0.6-6.1 0.4-0.5 1.4-3 2-5.5 0.9-3.7 0.8-5.2-0.4-8.3-0.9-2.1-3.1-4.7-4.9-5.9-2.2-1.4-4.3-1.9-6.8-1.6-1.9 0.3-4.3 0.8-5.3 1.1-1.4 0.5-1.6 0.2-1-2 0.7-2.2 1.5-2.7 4.8-2.9 2.2-0.1 5.2-1 6.6-1.9 1.3-1 3.3-3.1 4.2-4.7 1-1.7 1.8-4.5 1.8-6.3-0.1-2.4-1-4.1-3.6-6.5-1.9-1.8-5.3-3.7-7.5-4.3-2.2-0.5-4-1.6-4-2.3 0.1-0.7 0.7-2.1 1.5-3.2 0.9-1.2 1.3-3 0.9-4.6-0.4-1.3-1.8-3.7-3.3-5.3-1.4-1.5-4.2-3.2-6.1-3.8-2-0.5-6.4-0.9-16.2-0.9l2.2-4.3c1.2-2.4 2.4-6.6 2.6-9.3 0.3-3 1.2-5.6 2.1-6.3 1-0.7 4.5-1.3 8.2-1.2zm-257.4 34.7l1.5 3c0.9 1.6 2.3 3.7 3.2 4.6 0.9 0.9 3 2.4 4.8 3.3 1.8 0.9 4.3 1.7 5.6 1.7 2.1 0 2.2 0.4 1.9 4.7-0.3 4.2 0 5.2 2.5 7.8 2.7 2.8 3.4 3 12.4 3.4 8 0.3 10.6 0 15.6-1.8 3.4-1.2 6.5-2.7 7.1-3.4 0.5-0.7 2.3-2.3 6.8-6.2l-0.7 3c-0.4 1.7-1.5 4.8-2.6 7-1 2.3-4 6.5-6.7 9.5-2.7 3-6.8 6.2-9.1 7.3-2.4 1-5.9 1.9-7.8 1.9-2 0-5.3-0.9-7.3-2-2.1-1.1-4.2-1.8-4.6-1.5-0.4 0.2-2.5-1.7-4.8-4.3-3.7-4.5-3.9-5.1-3.4-9.3 0.5-3.2 0.2-5.5-1-7.8-0.9-1.8-3.1-4.2-4.9-5.3-1.8-1.1-4.5-2-6-2-1.5 0-4 0.5-5.5 1.2-1.5 0.7-3.7 2.2-4.9 3.3-1.3 1.1-2.6 3.9-3 6.5-0.6 3.7-0.3 5.2 3.6 12.1l-3.3 4.2c-1.8 2.3-4.6 5-6.3 6-1.7 0.9-4.5 1.8-6.3 1.8-1.8 0.1-5-0.8-7-1.8-2.1-1.1-6.3-4.6-9.5-7.8-3.1-3.3-6.6-7.8-7.8-10.2-1.1-2.3-1.8-4.3-1.4-4.3 0.5 0 1.3 0.5 1.8 1 0.6 0.6 3.5 2 6.6 3.1 3 1 8.7 2 12.5 2.1 5.2 0.2 7.8-0.2 9.9-1.4 1.5-1 3.4-3.2 4.3-5 0.9-1.8 1.5-4.7 1.3-6.3-0.1-1.7 0-3.6 0.4-4.3 0.4-0.7 1.6-1.3 2.7-1.3 1.1 0 3.4-1.4 5.2-3.2 1.7-1.8 3.4-4.7 3.7-6.3zm-49.9 3.5c1 0 2.1 0.3 2.5 0.7 0.4 0.5 0 1.3-1 2-1 0.6-2.1 1-2.5 0.7-0.4-0.2-0.8-1.1-0.8-1.9 0-0.8 0.8-1.5 1.8-1.5zm135.4 16.1l3.7 2.5c2 1.4 5 3.1 6.6 3.9 1.7 0.8 4.3 1.9 5.8 2.5 1.5 0.7 5.4 1.5 8.6 1.8 4.2 0.4 6.5 0.2 8.8-1 1.6-0.9 3.3-1.6 3.7-1.6 0.5 0 1.7-1.1 4.8-4.6v3.3c0 1.8 0.8 4.9 3.6 10.3l-3.1 2.9c-1.6 1.6-5.3 4.1-8 5.6-2.8 1.5-6.5 2.6-8.3 2.6-1.8 0-4.8-0.7-6.6-1.7-1.8-0.9-5-3-7.1-4.7-2.1-1.8-5.3-6.1-7.2-9.7-1.9-3.6-3.8-7.8-4.3-9.3zm-161 6c0.5 0 1.2 1.7 1.4 3.8 0.3 2.1-0.3 6.2-1.3 9.3-0.9 3.1-2.6 6.7-3.7 8.1-1 1.3-1.9 2.9-1.9 3.5 0 0.5-1.4 2.5-3.2 4.3-2.9 2.9-3.9 3.3-8.8 3.3-4.6 0-6.3-0.5-9.8-3.1-2.4-1.6-4.5-3.5-4.8-4-0.3-0.6-0.9-0.8-1.5-0.5-0.6 0.3-1.6-0.3-2.3-1.2-0.7-0.9-1.3-3.6-1.7-10.4l6.8 0.6c4.7 0.4 8.7 0.1 13.1-1 3.4-0.9 8.1-2.8 10.3-4.4 2.3-1.5 4.6-4 5.3-5.5 0.6-1.5 1.5-2.8 2.1-2.8zm299.3 1.9c1 0.8 1.7 1.9 1.6 2.5-0.2 0.6 1 2.5 2.6 4.2 1.5 1.6 5.1 4.1 7.8 5.5 3.9 2 6.5 2.5 12.1 2.5 4.9 0 7.7-0.4 8.8-1.5 1.6-1.4 1.6-1 1 4.6-0.4 3.6-1.3 6.5-2.3 7.2-0.8 0.7-3.4 2.2-5.6 3.3-2.4 1.2-6.1 2-9.1 2-4.6 0.1-5.3-0.3-9.2-4.2-2.6-2.6-5-6.5-6.2-9.9-1.1-3-2.3-8.2-2.7-11.5-0.6-5.7-0.5-6 1.2-4.7zm-362.9 12.3c0.5-0.1 0.8 1.8 0.8 4.2 0 3.4 0.5 4.9 3 7.3 1.6 1.7 3 3.9 3 5 0 1.1-1.1 4.3-2.5 7.1-1.5 3-3.8 5.8-5.8 6.9-2.6 1.6-4.3 1.8-8.8 1.3-3-0.4-7.3-1.6-9.5-2.7-2.2-1.1-5.4-3.2-10.1-7l8.6-0.1c6.6 0 9.3-0.5 12-2 2-1.1 4.4-3.3 5.3-5 1-1.7 1.8-4 1.8-5.3-0.1-1.2-0.8-3-1.8-4-1.6-1.6-1.6-1.8 0.8-3.7 1.4-1.1 2.8-2 3.2-2zm-18.8 70.8c1.6 0.3 4.5 1.1 9.6 3.1l-10.6 11.7-6.8-1.1c-3.8-0.5-7.1-1.5-7.3-2-0.3-0.6 2.3-3.6 5.8-6.6 5.4-4.9 6.7-5.6 9.3-5.1zm460.1 4.7c1.1 0 4.7 2 8 4.6 4.7 3.6 5.7 4.8 4.5 5.5-0.8 0.4-4.4 1-14.6 2l-3.2-4.3c-1.8-2.4-3.3-4.7-3.5-5.1-0.1-0.4 1.3-1.1 3.3-1.7 1.9-0.5 4.3-0.9 5.5-1zm-228.6 4.1c13.3-0.1 29.2 0.4 39.8 1.4 9.7 0.8 22.6 2.2 28.7 2.9 6.1 0.8 14.2 1.5 18.1 1.6 3.9 0.1 7.3 0.3 7.6 0.5 0.2 0.2 6.3 1.4 13.5 2.5 7.2 1.2 14.7 2.4 16.7 2.7 1.9 0.2 6.2 1.1 9.5 1.9 3.3 0.7 8.6 1.6 11.6 1.8 3 0.3 9.2 1.5 13.6 2.7 4.4 1.2 9.6 2.5 11.6 3 1.9 0.4 6.2 1.8 9.5 3 3.4 1.2 7.1 2.5 8.5 2.9 1.3 0.3 2.9 1.2 3.5 1.9 0.6 0.7 0.9 1.5 0.6 1.7-0.3 0.2-2.5 0.9-5 1.5-3.2 0.8-36.2 0.9-113.3 0.4-59.8-0.4-117.1-0.8-127.3-0.8-10.3-0.1-44.9-0.4-77-0.9-32.2-0.4-58.8-1-59.2-1.2-0.4-0.3-0.7-1.1-0.7-2 0-0.8 1.2-2 2.7-2.6 1.5-0.6 4.1-1.8 5.8-2.5 1.7-0.8 7.6-2.6 13.1-4 5.5-1.5 12.8-3.3 16.1-4.1 3.3-0.8 7-1.7 8.1-1.9 1.1-0.2 7.2-1.1 13.6-2 6.3-0.9 12.9-2.1 14.5-2.6 1.7-0.6 8.5-1.4 15.1-2 6.7-0.5 13.5-1.1 15.2-1.4 1.6-0.2 9.8-0.7 18.1-1 8.3-0.4 16-0.9 17.1-1.3 1.1-0.3 7.9-0.9 15.1-1.2 7.2-0.4 23-0.8 35.2-0.9zm-243.2 38.1l117.6 0.6c64.6 0.3 117.8 0.8 118.1 1.1 0.3 0.3 0.4 21.7 0.2 47.7-0.2 38.4-0.5 48.5-1.8 54-0.8 3.8-2 8.4-2.5 10.4-0.4 1.9-1.1 6-1.5 9-0.3 3.1-1.5 8.3-2.4 11.6-1 3.3-2.3 7.9-2.9 10.1-0.6 2.2-2.6 8.8-4.3 14.6-1.8 5.8-3.8 12.1-4.5 14.1-0.7 1.9-2.1 6.4-3.1 10-1 3.6-3 9.5-4.5 13.1-1.4 3.6-4.1 9.5-5.8 13.1-1.7 3.6-3.1 7-3.1 7.6 0 0.5-0.6 1.5-1.3 2.1-0.7 0.6-1.6 2.6-2 4.3-0.5 1.7-3.8 8.4-7.6 15-3.7 6.5-6.9 12.5-7 13.3-0.1 0.8-1.6 3.2-3.3 5.3-1.7 2.1-3 4-3 4.3 0 0.2-5.3 7.4-11.7 15.8-6.4 8.5-16.3 20.3-21.9 26.3-5.6 6-10.9 12-11.7 13.2-0.9 1.3-3.8 4.3-6.6 6.8-2.7 2.4-8.4 6.8-12.6 9.8-4.1 3-11.1 8-15.6 11.1-4.4 3.1-11.5 7.8-15.8 10.4-4.3 2.6-8.2 4.7-8.6 4.7-0.4 0-2.1 1.2-3.8 2.8-1.6 1.5-4.8 3.7-7 4.9-2.2 1.1-5.6 3-7.6 4.1-1.9 1.2-9.4 5.1-16.6 8.7-7.2 3.6-14.9 7.3-17.1 8.2-2.2 0.9-4.9 1.5-5.9 1.3-1.4-0.2-2.4-2-3.7-6.3-1-3.5-2.4-15.6-3.4-28.2-0.9-12.2-1.9-22.7-2.1-23.4-0.3-0.7-0.5-13.9-0.5-29.2 0-15.4-0.5-52.9-1-83.3-0.6-30.5-1.3-92.2-1.6-137.2zm242.6 1.2l36.1 0.4c19.8 0.3 72.3 0.6 116.6 0.9 44.3 0.2 83.4 0.4 93.1 0.5l-0.5 16.9c-0.3 9.3-0.7 24.8-1 34.5-0.2 9.7-0.9 23.9-1.4 31.7-0.6 7.7-1 22-1.1 31.7 0 9.7-0.5 23.5-1 30.7-0.6 7.2-1.2 26.2-1.5 42.3-0.3 16-0.7 31.7-1.1 34.7-0.3 3.1-0.7 12.6-0.9 21.2-0.2 8.5-0.6 21.7-1 29.1-0.3 7.5-0.8 23.6-1 35.8-0.3 12.2-0.8 24.2-1.1 26.7-0.3 2.5-1 6.3-1.5 8.5-0.5 2.2-0.9 6.1-0.9 8.6-0.1 2.5-0.5 6.1-1 8-0.6 2-1.5 8.1-2 13.6-0.6 5.6-1.5 10.5-2.1 11.1-0.6 0.6-1 1.8-1 2.8 0 1.4-0.6 1.6-3.8 1.2-2.1-0.3-7.4-2-11.8-3.7-4.4-1.6-8.5-3.4-9.1-3.8-0.5-0.4-2.2-1-3.7-1.4-1.6-0.3-6.8-2.6-11.6-5-4.9-2.4-10.6-5.4-12.9-6.7-2.2-1.2-8.5-5.2-14.1-8.9-5.5-3.7-14.3-9.9-19.6-13.8-5.2-4-10.5-8.3-11.6-9.5-1.1-1.3-6.3-6-11.5-10.6-5.3-4.6-13.2-12.1-17.7-16.7-4.4-4.6-9.6-10-11.6-11.9-2-2-8.1-9.5-13.4-16.7-5.4-7.2-11-14.9-12.6-17.1-1.5-2.2-4.6-6.9-6.8-10.4-2.1-3.5-4.1-6.3-4.4-6.2-0.3 0-2.3-3.4-4.5-7.5-2.2-4.2-4.4-7.6-4.8-7.6-0.4 0-0.8-0.6-0.8-1.3 0-0.7-0.6-2.4-1.3-3.8-0.8-1.3-2.7-5.2-4.4-8.5-1.7-3.3-4.2-8.6-5.6-11.6-1.3-3-3-7.1-3.8-9.1-0.7-1.9-1.7-3.9-2.1-4.5-0.5-0.5-0.9-1.7-0.9-2.5 0-0.8-1.1-4-2.6-7.1-1.5-3-3.3-8-4.1-11-0.8-3.1-2.1-8.3-2.9-11.6-0.8-3.3-2.2-9-3-12.6-0.8-3.6-1.9-9-2.4-12.1-0.5-3-1.4-6.8-2-8.3-0.6-1.5-1.1-4.6-1.1-6.8 0-2.2-0.3-4.2-0.8-4.4-0.4-0.2-1.3-5.1-2-10.8-0.8-7-1.1-20.2-0.8-40.1 0.2-16.4 0.4-38.2 0.4-48.5z"/>
		<path id="amarelo" fill-rule="evenodd" class="s2" d="m322.7 15.2c2.9 0.2 5.8 0.9 6.5 1.5 1.1 1 1 2-0.9 5.3-1.2 2.3-2.3 5.2-2.3 6.6 0 2.3 0.5 2.5 3.8 2.6 2.2 0 4.4-0.6 5.3-1.6 0.8-0.9 2.4-1.5 3.5-1.3 1.6 0.3 2.1 1.2 2.3 4.4 0.1 2.2-0.3 4.5-1 5.2-0.7 0.7-2.9 1.5-4.8 1.9-1.9 0.3-4.7 0-6-0.7-1.4-0.6-3.4-0.9-4.3-0.5-1.7 0.6-1.7 1 0.2 6.9 1.1 3.4 1.8 6.8 1.5 7.5-0.2 0.7-3.1 2-6.3 2.8-3.1 0.9-6 1.3-6.2 1-0.3-0.3 0-0.9 0.6-1.3 0.6-0.4 2.5-3.8 4.3-7.5 1.7-3.7 3.1-7.2 3.1-7.8 0-0.6-0.4-1.2-1-1.5-0.6-0.3-3.6 0.4-6.8 1.5-3.2 1.2-6.4 1.9-7 1.6-0.9-0.4-1.3-3-1.3-14.7l2.8 0.7c1.5 0.4 4.8 1.5 7.3 2.6 2.5 1 4.9 1.5 5.3 1.1 0.4-0.5-0.3-3.4-1.7-6.4-1.3-3-2.7-6.2-3-7-0.3-0.9-0.2-1.9 0.2-2.4 0.4-0.5 3-0.7 5.9-0.5zm-6 46.1h3.2c1.7 0 3.9 0.8 4.9 1.8 1.3 1.2 2.1 4 3.2 16.4l3.3 0.1c1.8 0.1 4 0.1 4.8 0.1 0.8-0.1 3.9 0.5 6.8 1.3 4.8 1.3 5.2 1.7 4.3 3.5-0.6 1.1-2.5 2.4-4.3 2.9-1.8 0.4-10.1 0.9-18.4 1-9.8 0.2-16.5 0.8-19.1 1.7-2.2 0.8-5.1 1.4-6.3 1.4-1.7 0-2.3-0.6-2.5-2.5-0.2-1.4-0.3-3.3-0.3-4.2 0-1.3 1.2-2 4.1-2.6 2.2-0.4 6.9-1.1 17.1-2.2zm16.1 57.4c0.4 0 2.9 2.4 5.5 5.3 2.6 2.9 4.8 5.6 4.8 6 0 0.4-0.3 0.7-0.8 0.8-0.4 0-1.8-1.9-3.2-4.1-1.4-2.2-3.6-4.3-4.8-4.5-1.3-0.3-2.3-1.2-2.3-2 0-0.9 0.4-1.5 0.8-1.5zm-23.3 11.5c0.1 0.2-0.2 2.6-0.7 5.3-0.5 2.6-2.1 11.1-3.5 18.9-1.4 7.7-2.9 15.7-3.5 17.6-0.5 1.9-1 5.3-1 7.6 0 2.2 0.9 6.5 1.9 9.5 1 3.1 2.2 7.3 2.5 9.3 0.4 2.6 0.2 4-0.6 4.5-0.7 0.3-1.8-0.2-2.5-1.3-0.7-1-1.6-2.4-2.1-2.9-0.5-0.6-1.9-3.3-3.1-6.1-1.5-3.4-2.3-7.3-2.4-12-0.2-4.6 0.4-9.2 1.7-13.1 1-3.3 3.6-10.6 5.7-16.1 2-5.6 4-11.7 4.4-13.6 0.4-2 1.2-4.6 1.8-5.8 0.6-1.3 1.2-2.1 1.4-1.8zm-9.7 0.6c0.3 0-2.4 2.7-6 6.1-3.6 3.4-8.4 7.4-10.6 8.8-2.2 1.4-5.8 3.4-8.1 4.5-2.2 1-4.4 2.2-5 2.6-0.5 0.4-5.7 2.4-11.5 4.5-5.9 2-11.2 3.7-11.9 3.7-0.7-0.1-2 0.4-3 0.9-1 0.5-7 2.6-13.4 4.6-6.3 2-13.5 4.6-15.8 5.8-2.4 1.2-7.2 4.9-10.7 8.3-3.7 3.5-7.8 8.7-9.8 12.4-1.9 3.6-4.2 7-5.1 7.6-1 0.6-2.1 0.8-2.6 0.4-0.4-0.5-0.1-2.3 0.7-4.1 0.8-1.8 3.3-6 5.6-9.3 2.3-3.3 6.7-8 9.7-10.3 2.9-2.4 6.5-5.2 7.9-6.3 1.4-1.1 4.3-2.5 6.6-3.1 2.2-0.7 4.7-1.5 5.5-2 0.8-0.4 4.4-1.5 8-2.5 3.6-0.9 10.7-2.9 15.6-4.5 5-1.5 11.3-3.4 14-4.1 2.7-0.8 5.1-1.8 5.3-2.2 0.2-0.4 1.5-0.7 2.9-0.7 1.4 0 2.6-0.4 2.8-0.8 0.1-0.4 3.2-2.5 6.8-4.7 3.6-2.1 8.5-5.3 10.9-7 2.4-1.7 5.8-4.4 7.5-5.9 1.8-1.5 3.4-2.7 3.7-2.7zm35.8 1.9c0.4 0 1.7 2.5 3.1 5.6 1.3 3 2.4 6.5 2.4 7.8 0 1.2 0.4 2.7 0.8 3.3 0.5 0.5 1.9 4.1 3 8 1.2 3.9 2.6 10.2 3.3 14.1 0.7 4 0.9 9.2 0.5 12.1-0.4 2.8-1.5 6.8-2.4 9-0.9 2.1-2.9 5-4.5 6.3-1.5 1.2-3.6 2.3-4.7 2.3-1.3 0-2-0.7-2-1.8 0-0.9 1.2-3.3 2.7-5.2 1.5-2 3.2-5.8 4-8.6 0.7-2.8 1.3-6.8 1.3-9.1 0-2.2-0.7-7.6-1.5-12-0.8-4.5-1.9-9.7-2.5-11.6-0.6-2-1-4.7-1-6.1 0-1.3-0.7-3.8-1.6-5.5-0.8-1.7-1.5-4.3-1.5-5.8 0-1.5 0.3-2.8 0.6-2.8zm16.1 5.7c1.6 1 4.6 3 6.5 4.5 1.9 1.4 4.2 2.9 5 3.3 0.9 0.3 2.3 1.1 3.3 1.6 1 0.6 2.6 1.5 3.5 2.1 1 0.5 2.5 1.2 3.3 1.6 0.8 0.3 2.6 1.1 4 1.8 1.4 0.7 6.2 2.6 10.6 4.1 4.4 1.6 8.5 3.2 9.1 3.7 0.5 0.5 2.1 0.9 3.5 0.8 1.4 0 6.8 1.6 12.1 3.4 5.2 1.9 12.5 4.7 16.1 6.3 3.6 1.6 8.1 3.8 10 5 2 1.2 5.5 4.4 7.8 7.1 2.4 2.7 4.3 5.4 4.3 5.9 0 0.6 0.6 1.6 1.3 2.4 0.7 0.7 2 3.9 3 7 0.9 3.2 1.7 6.6 1.8 7.7 0 1.2-0.7 3-1.5 4.1-1.4 1.9-1.5 1.7-1.5-2.3 0-2.3-0.4-4.3-0.8-4.2-0.4 0-1.3-1.7-2-3.8-0.6-2.1-1.8-5-2.5-6.4-0.7-1.3-2.7-4.4-4.3-6.7-1.7-2.3-6-6.1-9.6-8.5-3.6-2.4-10.6-6-15.6-8.1-5-2-12-4.4-15.6-5.3-3.6-0.9-8.4-2.3-10.6-3.2-2.2-0.9-4.9-1.9-6-2.3-1.1-0.5-7-3.2-13.1-6.2-6.1-2.9-11.6-5.9-12.3-6.7-0.7-0.7-1.6-1.3-2-1.3-0.5 0-3.1-2.1-5.8-4.6q-5-4.6-2-2.8zm-145.6 1.4c0.9 0 2.5 0.6 3.6 1.4 1.9 1.4 1.8 1.5-1.6 1.3-2.1-0.1-3.6-0.7-3.6-1.4 0-0.7 0.7-1.3 1.6-1.3zm-37.4 9.2c1.8-0.1 3.3 0.3 3.3 0.9 0 0.5-2.7 1.1-5.8 1.3-3.2 0.2-6.3 0-6.8-0.3-0.6-0.3 0.5-0.8 2.5-1.2 1.9-0.3 5-0.6 6.8-0.7zm252.2 0.9c0.7 0 2.4 0.9 6.3 3.9l-2.3 0.1c-1.3 0-2.9-0.2-3.8-0.5-0.8-0.3-1.5-1.2-1.5-2 0-0.9 0.6-1.5 1.3-1.5zm52.6 1.1c1.1 0 3.8 0.7 10 2.8l-4.5-0.5c-2.5-0.3-5.2-1-6-1.5-1.3-0.7-1.2-0.9 0.5-0.8zm-294.3 7c1 0 1.8 0.1 1.8 0.4 0 0.3-2.1 1.5-4.8 2.7-2.6 1.2-7.2 2.5-10.3 2.9-3 0.5-9.6 1.6-14.6 2.5-5 0.9-11.1 2.2-13.6 3-2.5 0.7-7.2 2.1-10.5 3.1-3.4 0.9-9.5 3.2-13.6 5.1-4.2 1.9-10.5 5.4-14.1 7.8-3.6 2.4-9.1 6.6-12.1 9.3-3.1 2.7-6.5 6-7.6 7.3-1.1 1.4-3.2 4.5-4.7 7.1-1.6 2.5-4.3 7.8-6.2 11.6-1.8 3.9-3.9 8.4-4.7 10.1-0.8 1.9-1.4 8.2-1.6 16.4-0.2 7.3-0.6 13.3-0.9 13.3-0.3 0-1.6-0.7-3-1.5-2.1-1.3-2.5-2.3-2.5-6.3 0-2.6 0.7-8.9 1.7-13.8 0.9-5 2.8-11.8 4.3-15.1 1.5-3.4 4-8.1 5.6-10.6 1.6-2.5 2.9-4.8 3-5 0-0.3 0.9-1.9 2-3.6 1-1.6 2.8-4.2 4-5.6 1.1-1.4 5-5.1 8.6-8.2 3.6-3 9.5-7.2 13.1-9.2 3.6-2.1 8.3-4.6 10.5-5.6 2.2-1.1 8.1-3.3 13.1-4.9 5-1.7 10.7-3.3 12.6-3.7 1.9-0.4 4-1.1 4.5-1.5 0.6-0.4 2.9-1.2 5.1-1.8 2.2-0.7 7.2-1.7 11-2.2 3.9-0.6 10.5-1.7 14.6-2.5 4.2-0.8 8.4-1.4 9.3-1.5zm-54 0.7c0.7 0.3 1.4 0.7 1.4 1.1 0.1 0.3-2.4 1.3-5.4 2.1-3.1 0.9-5.9 1.2-6.3 0.8-0.5-0.4-0.2-1.3 0.5-2 0.7-0.7 2.9-1.5 4.8-1.8 2-0.3 4.2-0.4 5-0.2zm335.5 0.6c0.9 0.3 4.9 1.1 8.7 1.7 3.9 0.6 13.2 2.7 20.7 4.5 7.5 1.9 15.6 4 18.1 4.9 2.5 0.8 9.5 3.5 15.6 6.1 6.1 2.5 12.2 5.3 13.6 6.2 1.4 0.8 3.9 2.2 5.5 3 1.7 0.8 4.7 2.5 6.8 3.7 2.1 1.2 7.4 5.9 11.9 10.3 4.5 4.4 10 11 12.1 14.6 2.2 3.6 4.9 9 6.1 12.1 1.2 3 2.8 8.7 3.6 12.6 0.9 4.5 1.3 9.6 0.9 14.3-0.3 4-1.5 9.3-2.6 11.8-1.1 2.5-2 5.1-2 5.8 0 0.7-0.5 1.8-1.2 2.5-0.7 0.7-1.8 1.3-2.5 1.3-1 0-1.1-0.7-0.4-2.8 0.5-1.5 1.6-5.2 2.6-8.3 1.1-3.5 1.7-8.8 1.7-14.6 0-6.3-0.7-11.1-2.1-15.8-1.2-3.8-2.5-7.6-3-8.6-0.5-1-1.9-3.8-3.2-6.3-1.3-2.5-4.1-6.8-6.3-9.5-2.1-2.8-6.5-7.3-9.6-9.9-3.2-2.7-8.7-6.9-12.3-9.5-3.6-2.5-8.1-5.1-10-5.8-2-0.7-4.5-1.7-5.6-2.2-1.1-0.6-3.6-1.8-5.5-2.6-1.9-0.9-5.3-2.4-7.6-3.3-2.2-0.9-6-2.3-8.5-3.2-2.5-0.8-6.1-1.9-8.1-2.4-1.9-0.4-6.2-1.5-9.5-2.3-3.3-0.8-8.8-2.2-12.1-3.1-3.3-0.9-7-1.8-8.1-2-1.1-0.2-3.7-0.6-5.8-0.9-2-0.4-3.7-1.1-3.6-1.7 0-0.6 0.8-0.9 1.7-0.6zm58.1 1.6c0.8 0 3.1 0.7 5 1.5 1.9 0.9 3.5 2.2 3.5 3.1 0 0.8-0.4 1.5-1 1.5-0.5 0-1.3-0.5-1.6-1-0.4-0.5-2.4-1.4-4.6-2-2.1-0.6-3.6-1.5-3.3-2.1 0.3-0.5 1.2-1 2-1zm-333.5 4.2c1-0.1 1.8 0.3 1.8 0.9 0 0.5-1.2 1.7-2.6 2.5-1.8 1.1-3.1 1.2-5 0.5-1.4-0.6-2.6-1.2-2.7-1.5-0.1-0.3 1.3-0.9 3.2-1.4 2-0.5 4.3-1 5.3-1zm4.2 4.2c0.6 0.2 1.1 1.2 1.1 2.3 0 1.2-0.8 2-2.3 2.2-1.2 0.1-2.3-0.4-2.5-1.1-0.1-0.7 0.5-1.8 1.3-2.5 0.7-0.7 1.8-1.1 2.4-0.9zm264.9 3.7c0.8 0 1.7 1 2 2.3 0.4 1.2 0.2 2.6-0.2 3-0.5 0.5-1.6-0.1-2.6-1.2-1-1.2-1.5-2.5-1.2-3.1 0.3-0.5 1.2-1 2-1zm-256.3 1.1c1.1 0 0.9 0.5-0.7 1.7-1.2 1-3.1 2.9-4.2 4.3-1.1 1.3-2.1 1.9-2.1 1.2 0-0.7 1.2-2.6 2.7-4.2 1.6-1.6 3.5-3 4.3-3zm-116.4 2.2c0.6 0.2 1.2 1.3 1.2 2.3 0 1-1.3 2.6-2.8 3.4-2.2 1.3-2.9 1.4-4 0.3-1.1-1.1-0.8-1.8 1.6-3.9 1.6-1.3 3.4-2.3 4-2.1zm479.8 4.8c0.6 0 1.9 1.1 2.8 2.5 1.4 2.1 1.5 2.8 0.5 3.8-1 1-1.7 0.7-3.5-1-1.4-1.4-2-2.8-1.5-3.8 0.4-0.8 1.2-1.5 1.7-1.5zm-472.4 1c0.2 0 0.3 0.1 0.3 0.2 0 0.2-2.3 2.3-5.2 4.8-3.6 3.1-4.9 3.8-4.1 2.3 0.7-1.3 2.9-3.4 5-4.8 2.1-1.4 3.9-2.5 4-2.5zm464.9 4c0.6 0 2.8 1.3 5 2.8 2.1 1.5 4.1 3.3 4.2 4 0.2 0.7 0 1.2-0.4 1.2-0.4 0-2.8-1.8-5.3-4-2.5-2.3-4-4-3.5-4zm-234.2 3c0.9 0 2.7 0.7 3.9 1.5 1.3 0.9 3 2.9 3.8 4.6 0.8 1.6 1.5 5.1 1.5 7.8 0 2.6-0.6 6.8-1.5 9.3-1 2.8-1.2 4.9-0.6 5.5 0.6 0.7 1.5 0 2.4-2 0.8-1.7 2.6-4.2 3.9-5.6 1.3-1.4 3.3-2.9 4.4-3.3 1.1-0.4 2.8-0.1 3.8 0.6 0.9 0.7 2.4 3.1 3.1 5.3 1.1 3.3 1.2 4.9 0 9.5-0.9 4.1-2.2 6.4-4.9 8.9-2.3 2.1-4.6 3.2-6.6 3.2-2 0-3.7-0.8-5.3-2.7-1.3-1.6-2.8-5.1-3.5-7.8-0.6-2.8-1.4-10.1-1.7-16.1-0.4-6.1-0.9-11.6-1.2-12.1q-0.6-1-1.5 0c-0.6 0.5-1 6.3-0.9 12.8 0 8.3-0.4 13.3-1.6 16.6-0.9 2.6-2.6 5.8-3.8 7.1-1.4 1.5-3.3 2.3-5.4 2.3-1.8-0.1-4.7-1-6.5-2-1.8-1.1-4.2-3.5-5.2-5.3-1.3-2.4-1.9-5.1-1.8-9.4 0.1-4.3 0.6-6.5 1.9-7.8 1.1-1.1 3.3-1.8 5.6-1.8 2 0 4.3 0.6 5 1.4 0.7 0.7 1.9 2.7 2.8 4.5 0.8 1.8 1.8 3.3 2.2 3.3 0.5-0.1 0.8-1.6 0.7-3.4 0-1.8-0.6-5.3-1.3-7.8-1-3.7-0.9-5.2 0.3-8.9 0.9-2.5 2.7-5.3 4-6.3 1.3-1 3.2-1.9 4-1.9zm-146.9 9.1c1.4 0 4 0.9 5.8 2 1.9 1.1 4.2 3.9 5.3 6.3 1.7 3.9 1.8 4.8 0.6 10.3-0.7 3.3-1.4 6.7-1.7 7.4-0.2 0.8 0.1 1.6 0.6 1.8 0.6 0.2 1.9-1.2 3-3.3 1.2-2 2.9-4.4 3.8-5.5 1-1 2.7-1.9 3.8-1.9 1.1 0 3 1 4.1 2.3 1.8 1.9 2.1 3.3 1.8 10.3-0.3 6.3-0.8 8.7-2.6 11.3-1.3 1.8-3.3 3.7-4.6 4.2-1.2 0.5-3.5 0.6-5.2 0.2-1.6-0.3-3.9-2-5.2-3.6-1.8-2.3-2.7-6-4.1-15.4-1-6.8-2.3-12.4-2.8-12.3-0.6 0-0.9 3.4-0.7 8.8 0.2 4.8-0.2 11.5-0.8 14.8-0.7 3.8-2 7-3.3 8.4q-2.3 2.3-5.8 2.3c-2.6-0.1-4.3-0.9-6.8-3.3-2-2-3.8-5.3-4.6-8.4-0.8-2.7-1.2-6.3-0.8-7.9 0.3-1.7 1.5-3.6 2.6-4.4 1.3-0.8 3.3-1.2 5.3-0.8 2 0.3 4 1.6 5.2 3.3 1.1 1.5 2.3 2.4 2.8 2 0.5-0.4 0-3.4-1.1-6.5-1.1-3.2-1.9-8.1-1.9-10.8 0-3.7 0.6-6 2.3-8.3 1.6-2.3 3.2-3.3 5-3.3zm300.8 2.6c1.5 0.4 3.7 1.5 4.8 2.6 1.6 1.5 2 3.1 1.9 7.7 0 4.1-0.8 7.2-2.7 11-1.5 2.9-2.7 6-2.7 6.8 0 0.8 0.3 1.5 0.7 1.5 0.5 0 2.3-1.8 4.1-4 2.2-2.8 4-4.1 5.8-4.1 1.4 0 3.1 1 4 2.3 0.8 1.3 1.5 4.2 1.5 6.6 0 2.3-0.9 6-2 8.3-1.1 2.2-3.5 5.1-5.3 6.5-1.8 1.3-4.3 2.5-5.5 2.5-1.3 0-3.6-1.1-5.1-2.4-2.4-2.2-2.8-3.3-3.1-9.8-0.2-4.3 0.3-10.7 1.3-15.5 0.9-4.4 1.6-9.3 1.6-10.8 0-1.8-0.6-2.8-1.5-2.8-0.9 0-1.8 1.1-2 2.3-0.3 1.3-0.5 3.6-0.6 5.3 0 1.7-1.2 6.9-2.6 11.6-1.4 4.7-2.7 9.4-3 10.5-0.2 1.2-1.9 3.7-3.7 5.8-2.2 2.6-4.1 3.7-6 3.8-2 0-3.6-1-5.8-3.8-2.6-3.2-3-4.6-3-9.5 0-3.2 0.5-7.1 1.1-8.6 0.5-1.5 2-3.8 3.2-5 1.2-1.3 2.8-2.3 3.5-2.3 0.7 0 2.4 1.3 3.7 2.8 1.4 1.5 2.8 4.2 3.1 6 0.3 2 1 3.1 1.7 2.9 0.7-0.2 1.1-1 1-1.7-0.2-0.8-0.1-5.3 0.3-10 0.6-8.1 0.8-8.7 4.5-12.9 3.4-3.7 4.4-4.2 6.8-3.6zm-313.8 2.4c0.4 0 0.5 1.9 0.3 4.3-0.3 2.4-0.8 4.7-1.2 5.3-0.3 0.5-0.9-0.8-1.2-3-0.3-2.3-0.1-4.6 0.4-5.3 0.5-0.7 1.2-1.3 1.7-1.3zm326.6 3c0.8 1.4 1.5 4.3 1.5 6.3 0.1 2.1-0.4 3.8-0.9 3.8-0.6 0-1-2-1-4.5 0-2.5-0.3-5.3-0.6-6.3-0.3-1 0.1-0.6 1 0.7zm-435.7 7.1c0.7 0 1.6 0.6 1.9 1.2 0.4 0.7 0.1 2.3-0.5 3.6-0.6 1.2-2 2.7-3.1 3.2-1.1 0.6-2.3 0.8-2.7 0.5-0.5-0.2 0.1-2.3 1.1-4.5 1-2.2 2.5-4 3.3-4zm10.6 3c0.4 0 0.8 0.5 0.8 1 0 0.6-0.3 1.2-0.7 1.4-0.5 0.2-1.8 3.1-3.1 6.5-1.2 3.4-2.7 6-3.2 5.7-0.6-0.3-1-1.3-1.1-2.3 0-0.9 0.8-3.3 1.7-5.2 0.9-2 2.4-4.4 3.2-5.3 0.8-1 1.9-1.8 2.4-1.8zm529.3 3c0.6 0 1.3 0.7 1.6 1.5 0.2 0.9 0.5 2.5 0.5 3.6 0 1.1-0.4 2.2-0.8 2.4-0.4 0.3-1.4-0.5-2.1-1.7-0.8-1.2-1.1-3-0.8-4 0.3-1 1.1-1.8 1.6-1.8zm-6.7 2.2c0.5 0.2 1.8 2.3 2.9 4.6 1.1 2.6 1.5 4.5 0.8 4.8-0.5 0.3-1.2-0.3-1.6-1.3-0.3-0.9-1.2-3-2-4.5-0.8-1.5-1.3-3-1.3-3.3 0.1-0.4 0.6-0.5 1.2-0.3zm-300.8 10.2c4.4 0.2 8.5 1.2 11.1 2.5 2.2 1.1 5.3 3.3 6.8 4.9 1.7 1.8 3 4.4 3.4 6.9 0.4 3.2 0.1 4.4-1.3 5.7-1 0.8-3.5 2.1-5.4 2.7-2.1 0.7-10 1.2-19.4 1.2-13.4 0-15.8 0.2-15.8 1.5 0 1.2 1.7 1.5 9.3 1.5 5.1 0 13.1 0.5 17.8 1 4.7 0.6 9.7 1.6 11.1 2.3q2.4 1.2 3.8 5.8c1.1 4 1.1 4.7-0.6 7-1.1 1.4-4.3 3.7-7.3 5.2-4.6 2.3-6.8 2.8-13.5 2.8-6.1 0-8.6-0.4-10.4-1.7-2-1.4-2.3-2.3-1.8-4.8 0.4-1.7 0.8-3.6 0.9-4.4 0.1-0.7 2.7-2.3 5.7-3.5 3-1.2 5.6-2.7 5.8-3.4 0.1-0.7-0.3-1.3-1-1.2-0.7 0-3.3 0.5-5.7 1-2.5 0.5-5.9 1.2-7.6 1.5-1.7 0.3-4.6 0-6.5-0.7-2-0.7-4.4-2.1-5.3-3.1-1-1-2-2.8-2.4-4.1-0.3-1.2 0-3.5 0.6-5 0.5-1.5 2.4-3.4 4-4.3 1.7-0.8 5.7-1.5 8.8-1.5 3.2 0 7.2 0.5 8.9 1.1 1.6 0.6 4.1 0.9 5.5 0.7 2.5-0.4 2.5-0.4-0.9-2.3-1.8-1.1-4.8-2.9-6.5-4-2.3-1.5-3.2-3-3.4-5.3-0.2-2.4 0.3-3.7 2-4.9 1.7-1.2 4-1.4 9.3-1.1zm75.8-0.3c2.3 0 5.6 0.7 7.3 1.5 1.6 0.8 3 1.9 3.1 2.3 0 0.4 0.1 1.8 0.2 3.1 0.1 1.3-0.8 3.5-2.1 4.8-1.2 1.3-3.7 2.7-5.4 3.2-1.7 0.4-3.6 1.3-4.3 2-0.9 1-0.6 1.3 1.4 1.3 1.4 0 4.8-0.7 7.6-1.5 4-1.2 5.9-1.2 9.7-0.3 2.5 0.7 5.8 2.4 7.3 3.7 1.6 1.6 2.6 3.6 2.6 5.3 0 1.8-1 3.7-2.8 5.2-1.8 1.7-4.4 2.7-7.8 3-2.8 0.3-8 0.1-11.6-0.4-3.6-0.5-6.7-0.7-7-0.4-0.3 0.2 0.2 1.1 1 1.9 0.8 0.9 2.6 1.8 4 2.1 1.4 0.4 4 1.7 5.8 3.1 2.3 1.7 3.3 3.2 3.3 5.2 0 2-0.8 3.2-3 4.5-1.9 1.1-5.2 1.8-8.8 1.8-3.6 0-7.6-0.8-10.4-1.9-2.5-1.1-6-3.5-7.8-5.4-2.2-2.3-3.3-4.3-3.3-6.3 0-1.7 0.7-4.1 1.6-5.3 0.8-1.3 3.2-2.8 5.3-3.4 2-0.6 10.4-1.4 18.6-1.7 8.8-0.4 14.8-1.1 14.8-1.7 0-0.6-4.7-1.4-10.8-1.8-5.9-0.4-13.5-1.4-16.9-2.2-4.3-1-6.7-2.2-8.3-4.3-1.8-2-2.2-3.5-1.7-5.3 0.3-1.4 1.3-3.5 2.1-4.8 0.8-1.2 3.8-3.4 6.7-4.8 3-1.4 7.1-2.5 9.6-2.5zm-140.7 3.8c1.3 0.3 3.6 1.1 5 1.8 1.4 0.6 2.8 2 3.2 3.1 0.4 1.1-0.2 3.2-1.3 5.2-1 1.8-3.5 3.9-5.4 4.7-2 0.9-3.6 2-3.6 2.6 0 0.5 1.4 0.7 3.3 0.4 1.8-0.4 5.6-1.3 8.3-2.2 4.8-1.4 5.3-1.4 9.3 0.6 2.6 1.3 4.6 3.1 5.1 4.7 0.5 1.4 0.7 3.7 0.5 5.3-0.2 2-1.3 3.2-4.1 4.6-2.8 1.4-5.5 1.7-11 1.5-4-0.2-7.3 0-7.3 0.4 0 0.4 2.6 2 5.8 3.5 4.5 2.2 5.8 3.3 6 5.3 0.1 1.4-0.3 3.3-1 4.2-0.7 1-3.3 2.2-5.8 2.6-3 0.6-6.1 0.6-9.1-0.2-2.4-0.6-6-2-7.9-3.1-1.9-1.1-4.5-3.4-8.2-8.5l3.3-3.5c2.4-2.5 4.9-3.8 9.3-4.9 3.3-0.9 8.3-1.9 11.1-2.4 2.8-0.4 4.8-1.2 4.5-1.8-0.3-0.6-5.3-0.9-13.1-0.6-12.2 0.4-12.6 0.3-14.9-2-1.9-2-2.2-3.2-1.8-6.5 0.4-2.9 1.7-5.1 4.9-8.3 2.4-2.3 6.1-4.9 8.3-5.7 2.2-0.7 5.2-1.1 6.6-0.8zm204.3 2.3c3.1-0.1 6.6 0.9 10.6 2.9 4.5 2.2 6.9 4.1 9.3 7.8 1.8 2.7 3.3 5.5 3.3 6.4 0 0.8-0.4 2-0.8 2.5-0.4 0.6-1.9 1.9-3.2 2.8-1.5 1-4.5 1.7-7.3 1.7-2.7 0-10.1-0.9-16.7-2-6.5-1.1-12.1-2-12.5-2-0.5 0-0.8 0.7-0.8 1.5 0 0.9 1.3 1.7 3.3 2.1 1.8 0.3 8.9 1.9 15.8 3.6 7 1.7 13.9 4 15.4 5 2 1.4 2.8 2.7 2.8 5.2 0 2.1-0.8 4-2.3 5.3-1.2 1.2-4.4 2.7-7.1 3.3-2.6 0.7-6.2 1.1-8 1.1-1.8-0.1-4.9-0.7-6.8-1.4-1.9-0.7-4.3-2.3-5.3-3.7-1-1.3-1.6-3.2-1.3-4.1 0.3-1 2.2-2.3 4.3-2.8 2.1-0.6 5.2-1 6.9-1 1.7 0 3.4-0.4 3.8-0.8 0.3-0.4 0.1-1.3-0.6-2-0.9-0.9-4.5-1.3-12.1-1.3-10.8 0.1-10.8 0.1-13.3-3-1.8-2.1-2.4-3.7-1.9-5.3 0.3-1.2 1.2-3.2 2-4.5 0.8-1.2 2.6-2.5 4.2-2.9 1.5-0.3 5-0.4 7.8 0 2.7 0.3 6.7 1.3 8.8 2.1 2 0.9 4.4 1.6 5.3 1.6 0.8 0 1.5-0.7 1.5-1.5 0-0.9-1.3-1.8-3.3-2.2-1.8-0.3-4.8-1.7-6.6-3-2.4-1.8-3.3-3.2-3.4-5.9-0.1-2.5 0.4-3.7 1.8-4.5 1-0.5 3.9-1 6.4-1zm-281.1 10c1 0 4.7 0.6 8.3 1.2 3.7 0.7 7.3 2 8.3 3 1 1 2.2 2.8 2.8 3.9 0.7 1.4 0.6 2.9-0.4 5.3-0.8 1.8-2.3 4-3.3 4.9-1 0.9-3.2 1.8-4.9 2.1-1.6 0.3-7.5 1.5-13.1 2.8-5.5 1.3-10.6 2.8-11.3 3.4-0.8 0.6-1 1.4-0.5 1.8 0.4 0.4 3 0.2 5.8-0.3 2.8-0.5 8.2-1.4 12.1-2 3.8-0.5 9.3-0.7 12.1-0.3 2.7 0.4 5.8 1.5 6.9 2.3 1.4 1.2 1.7 2.4 1.2 4.4-0.3 1.5-2.5 4.6-4.9 6.8-2.3 2.3-5.4 4.4-6.8 4.6-1.4 0.3-3.6 0.8-5 1.1-1.4 0.3-4.1 0.7-6 0.9-2.3 0.1-4.2-0.4-5.4-1.4-1-0.9-1.8-2.4-1.7-3.2 0-0.8 1.6-2.9 3.6-4.5 2.1-1.7 4.3-3.4 5.1-3.8 0.8-0.4 1.4-1.2 1.4-1.8 0-0.5-0.9-1-2-1-1.1 0-2.3 0.5-2.6 1-0.2 0.6-1.7 1.5-3.2 2.2-1.5 0.6-4.6 1.5-6.8 1.9-2.2 0.4-5.4 0.5-7 0.1-1.8-0.4-3.7-1.9-4.8-3.7-1-1.6-1.8-3.9-1.8-5-0.1-1.1 0.7-3 1.7-4.1 1-1.2 2.9-2.8 4.3-3.5 1.4-0.8 6.6-1.6 11.6-1.9 5.2-0.3 9-1 8.9-1.6-0.2-0.5-2.2-1.3-4.6-1.6-2.4-0.3-5.3-1.1-6.6-1.8-1.3-0.6-2.2-2.1-2.2-3.4-0.1-1.2 0.9-3.3 2-4.5 1.1-1.3 3.2-2.3 4.5-2.3 1.4 0 2.5-0.4 2.5-1 0-0.5 0.8-1 1.8-1zm356.9 2.1c3.2 0 6.9 0.4 8.3 0.9 1.4 0.6 3.1 2.2 3.8 3.6 1 2 1 3 0 5-0.9 1.8-2.6 2.8-5.8 3.5-2.9 0.7-4.6 1.6-4.6 2.5 0 1.2 1.3 1.5 5.6 1.5 3 0 7.8 0.5 10.6 1.1q5 1 6.5 3.2c0.8 1.3 1.5 3.4 1.5 4.8 0 1.4-1 3.6-2.3 4.8-1.7 1.8-3.3 2.3-7 2.3-2.6 0-7-1-9.8-2.1-2.8-1.1-5.5-2-6.1-2-0.5 0-1 0.5-1 1 0 0.6 1.8 2.2 4.1 3.6 2.5 1.6 4.2 3.5 4.6 5.2 0.4 1.8 0.1 3.3-0.8 4.1-0.7 0.7-3.6 1.6-6.4 1.9-3.4 0.4-6.7 0-10.5-1.3-3.1-1-6.6-3-7.8-4.4-1.3-1.4-2.5-4-2.8-5.8-0.3-1.8 0.1-4 0.8-4.9 0.7-0.9 2.7-2.3 4.5-3.1 1.8-0.7 5.9-1.3 9.1-1.3 3.1 0 9.3 0.7 13.5 1.5 4.3 0.8 8.5 1.5 9.4 1.5 0.8 0 1.3-0.6 1.1-1.2-0.2-0.7-1.6-1.6-3.2-2-1.7-0.4-7.3-1.6-12.5-2.8-5.3-1.1-11.6-3.1-14.1-4.4-4.2-2.1-4.6-2.6-4.8-6.4-0.2-3.4 0.3-4.5 2.5-6.2 1.5-1.1 3.9-2.5 5.3-3 1.4-0.6 5.1-1.1 8.3-1.1zm-468.9 7c0.8 0 2.9 0.7 4.5 1.5 1.7 0.8 4.4 3.4 6 5.8 1.6 2.3 3.2 5.4 3.5 6.8 0.4 1.4 1.5 3.1 2.6 3.7 1.1 0.7 2.2 1.1 2.5 0.8 0.3-0.3 0.1-1.4-0.5-2.5-0.5-1.1-0.8-3.4-0.5-5 0.3-1.7 1.4-3.5 2.5-4.1 1.1-0.5 3.1-0.8 4.3-0.5 1.3 0.3 2.8 1.6 3.5 2.8 0.7 1.2 1.9 4.5 2.7 7.3 1.3 4.6 1.3 5.4-0.3 9.6-1.2 2.9-2.8 5-4.7 5.9-1.6 0.8-4.8 1.4-7 1.4-2.2 0-5.4-0.7-7-1.6-1.7-0.8-4.8-3.5-6.9-5.9-2.1-2.4-4.1-4.8-4.6-5.4-0.4-0.5-1.5-2.1-2.3-3.5-0.9-1.4-2-4.8-2.3-7.6-0.5-3.7-0.3-5.6 0.9-7.3 0.9-1.2 2.3-2.2 3.1-2.2zm579.5 2c1.8 0 3.2 0.7 3.8 1.8 0.4 0.9 1.1 3.6 1.5 6 0.5 3.3 0.1 5.5-1.7 9.6-1.4 3.1-4.5 7.3-7.7 10.3-2.9 2.7-6.5 5.4-8 5.8-1.4 0.4-4.1 0.5-5.9 0.2-2.6-0.4-3.8-1.4-5.8-5-1.8-3.2-2.5-6.1-2.5-9.8 0-4.6 0.4-5.8 3.4-9.1 1.8-2.1 3.9-3.8 4.5-3.8 0.6 0 2.3 1.1 3.8 2.3 1.9 1.7 2.8 3.6 3.3 7.6 0.4 3.2 1.1 5.3 1.9 5.2 0.9 0 1.2-2.1 1.1-7.4-0.1-6.8 0.1-7.8 2.6-10.6 1.9-2.1 3.6-3.1 5.7-3.1zm-526.6 15.1c2 0 4 0.5 4.7 1.5 0.7 0.8 1.1 2.8 0.8 4.3-0.3 1.5-1.4 4-2.5 5.5-1.1 1.5-1.8 3.1-1.5 3.5 0.3 0.5 1.3 0.2 2.3-0.5 0.9-0.7 2.8-2 4.3-3 1.4-1 5.2-2.3 8.5-3.1 5.6-1.2 6.2-1.2 8.5 0.6 1.4 1.1 2.7 3.2 2.9 4.9 0.2 1.9-0.5 3.9-2.1 5.9-1.4 1.7-5 4-8.2 5.3-3.1 1.3-7 2.3-8.7 2.3-1.7 0-3 0.5-3 1.2 0 0.8 2.1 1.5 5.8 1.9 3.2 0.3 6.3 0.9 7 1.2 0.7 0.4 1.3 2.1 1.3 3.7 0 1.9-0.9 3.8-2.3 5-1.8 1.6-3.8 2-10.3 2-5.6 0.1-8.8-0.4-10.3-1.4-1.6-1.1-2.3-2.5-2.3-4.8 0.1-1.8 1.1-4.8 2.3-6.7 1.2-1.9 4.1-4.7 6.3-6.2 2.2-1.5 6.2-3.7 8.8-4.9 2.6-1.1 4.8-2.6 4.8-3.1 0-0.6-0.4-1.2-0.8-1.4-0.4-0.2-3 0.7-5.8 2-2.7 1.4-7.1 3.2-9.5 4-2.5 0.9-6.6 1.5-9.1 1.6-3 0-5.1-0.6-6.3-1.9-1-1-1.8-2.7-1.8-3.8 0-1.1 0.6-3.4 1.3-5.1 0.7-1.7 2.8-4.5 4.8-6.2 1.9-1.6 4.2-3.3 5-3.6 0.8-0.3 3.1-0.6 5.1-0.7zm478.6 0c1.1 0 3.8 1.5 6 3.3 2.2 1.8 5.2 5.5 6.8 8.3 1.6 2.7 2.8 6.5 2.9 8.3 0 1.8-0.6 3.6-1.3 4-0.7 0.4-4 0.7-7.3 0.6-3.3 0-7.4-0.7-9.1-1.6-1.6-0.8-4.1-2-5.5-2.7-1.4-0.6-4.8-2.5-7.5-4.2-2.8-1.6-5.4-2.7-5.8-2.2-0.5 0.4 3.2 3.4 8 6.6 4.9 3.1 10.3 7.1 12.1 8.8 1.8 1.6 3.6 4 3.9 5.3 0.3 1.2 0.4 3.4 0 4.8-0.3 1.6-1.8 3.1-4.3 4.3-2.9 1.4-5 1.6-8.4 1.1-2.5-0.4-6-1.3-7.8-2.1-1.8-0.7-4-2.4-4.8-3.6-0.8-1.2-1.5-2.9-1.5-3.8-0.1-0.8 0.9-2.4 2.1-3.5 1.7-1.6 3.3-2 8.1-1.8 4.7 0.2 5.9 0 5.9-1.2 0-0.9-0.9-1.5-2.3-1.5-1.2 0-3.6-0.7-5.2-1.6-1.7-0.8-3.4-1.5-3.8-1.5-0.4 0-2.6-1.4-4.8-3.2-3.1-2.5-4.1-4-4.1-6.3 0-1.7 0.8-4 1.8-5.2 1-1.1 3.2-2.4 4.8-2.8 2.4-0.5 4.1 0.1 8.1 2.5 2.7 1.8 6 4.5 7.3 6.1 1.2 1.6 2.7 2.9 3.2 2.9 0.6 0 1.1-0.6 1.1-1.2 0-0.7-0.9-2.5-2-4.1-1.2-1.5-2.2-4.2-2.3-5.9-0.1-2 0.6-3.9 1.7-5.1 1-1 2.8-1.8 4-1.8zm-243.4 2c0.7 0 2.6 0.5 4.1 1.1 1.5 0.6 3.8 2 5.1 3.3 1.3 1.2 3.8 5 5.5 8.6 2.2 4.3 5.5 8.6 10.3 13.1 5 4.7 8.4 7.1 11.6 8 2.8 0.8 6.2 1.1 9 0.6 2.5-0.4 5.9-1.4 7.6-2.2 1.6-0.9 5.3-3.8 8-6.4 5-4.7 5.2-4.8 10.1-4.2 2.8 0.3 5.7 1 6.4 1.7 0.8 0.6 2 2.4 2.7 4.1 0.7 1.7 2.4 4.2 3.6 5.6 1.3 1.5 4 3.6 5.9 4.8 2.6 1.6 5.2 2.2 9.6 2.1 4.2 0 7.3-0.6 10.4-2.2 2.4-1.2 6.7-4.3 9.6-6.9 2.8-2.5 7.1-7.4 9.4-10.8 2.4-3.4 4.3-6.9 4.3-7.7 0-0.8 0.4-1.5 0.8-1.5 0.4 0 2.8 0.9 5.3 2 2.5 1.2 5.2 2.4 6 2.9 0.8 0.5 2.7 4.4 4.2 8.8 1.5 4.3 4.2 9.9 6 12.4 1.9 2.5 5 5.6 6.9 6.8 2.6 1.7 4.9 2.4 8.6 2.3 2.7 0 6.8-0.9 9-1.9 2.2-1 5.5-3 7.3-4.5 1.8-1.4 3.6-2.7 4.1-2.7 0.4 0 1.3 0.6 2 1.3 0.7 0.7 3.4 2 6.1 2.9 4.1 1.3 5 2.2 7.5 7 1.5 3 4 6.7 5.5 8.1q2.8 2.7 9.3 4.2c5.6 1.2 7.3 1.2 11.3 0.1 2.7-0.8 6-2.4 7.6-3.7 1.5-1.2 4-3.5 5.6-5 1.6-1.5 3.3-2.8 3.8-2.8 0.5 0 0.9 0.8 0.9 1.8 0 1-0.5 3.3-1.2 5.2-0.8 2.1-2.9 4.5-5.3 6.1-2.3 1.5-7 3.5-10.6 4.5-4.1 1.1-8.5 1.6-11.6 1.3-2.8-0.3-6.4-1-8-1.7-1.7-0.6-5.4-3.7-8.3-6.9-3.8-4.1-5.8-7.4-7.1-11.5-1-3.2-2.3-5.8-3-5.8-0.7 0-2.5 1.2-4 2.6-1.6 1.4-5.8 4.2-9.4 6.2-3.5 2-9 4.3-12 5.1-4.5 1.1-6.4 1.1-9.6 0.2-2.2-0.7-5.6-2.5-7.5-4-2-1.5-4.8-4.7-6.2-7.2-1.5-2.4-3.8-7.9-5.3-12.2-1.4-4.3-2.6-8.5-2.6-9.3 0-0.9-0.2-1.5-0.4-1.5-0.3 0-4.6 4-9.6 9-5 5-11.5 10.5-14.5 12.3-4.8 2.9-6 3.1-14.3 3.2-7.5 0.1-9.9-0.3-13.6-2.2-2.7-1.3-6-4.2-8-7-2-2.6-4.4-6.5-5.3-8.6-1-2-2-3.7-2.3-3.7-0.3 0-3.1 2.6-6.3 5.8-3.2 3.2-7.1 6.5-8.8 7.5-1.7 0.9-5.3 2.4-8.1 3.2-4.4 1.4-5.6 1.4-11 0-3.3-0.8-7.8-2.3-9.9-3.2-2.1-1-4-2.3-4.2-3-0.3-0.7-1.1-1.2-1.8-1.2-0.7 0-3.1-2.4-5.3-5.3-2.3-2.9-4.9-6.7-5.8-8.4-0.9-1.6-2.6-5.7-3.6-9-1.1-3.3-2.6-6.1-3.3-6.1-0.7 0-1.5 1.4-1.9 3.1-0.3 1.6-2.5 6.4-5 10.5-2.4 4.2-6.5 9.7-9 12.2-2.5 2.5-6.9 5.6-9.6 6.9-4.3 1.9-6.4 2.2-13.6 1.9-6.2-0.3-9.8-1-13.1-2.6-2.5-1.3-6.3-4-8.6-6-2.2-2.1-4.6-5.1-5.2-6.6-1.3-2.6-1.2-2.7 1.5-2.8 1.7 0 4 1.2 6.3 3.4 1.9 1.9 4.6 4.1 6 4.9 1.4 0.9 5.2 2.1 8.6 2.8 5.2 1.1 6.8 1 12.5-0.6 4.2-1.2 7.9-3.2 10.5-5.5 2.3-2 5.8-6.1 7.8-9.1 2.1-3 4.7-8.2 6-11.7 1.2-3.5 2.8-6.3 3.6-6.3zm-129.9 11.8c2.7 0.3 5.9 1.1 7.2 1.9 1.2 0.8 3 2.9 3.9 4.7 0.9 1.8 4.2 5.6 7.3 8.6 3.1 2.9 7.7 6.2 10.1 7.4 2.5 1.1 5.9 2.3 7.6 2.6 1.8 0.3 4.8-0.3 7.5-1.5 2.5-1 6.1-3.5 8-5.4 1.8-1.9 3.9-4.5 4.5-5.9 0.8-1.7 2-2.5 3.7-2.5 2.1 0 2.4 0.4 2.2 2.7-0.1 1.5-2.3 5.4-4.9 8.6-2.6 3.2-6.1 6.7-7.8 7.8-1.7 1.2-4.9 2.6-7.2 3.3-2.2 0.6-5.9 1.2-8.3 1.2-3.1 0-6-1-11-3.9-3.8-2.2-8.4-5.7-10.2-7.8-1.9-2.2-4.7-6.2-6.2-8.9-1.6-2.8-3.4-5.2-4.2-5.3-0.8-0.2-2.2 2.1-3.6 6.3-1.2 3.6-4.5 9.9-7.3 14.1-2.8 4.1-6.5 8.6-8.3 10-1.8 1.3-5.5 3-8.3 3.6-2.8 0.7-6.6 1-8.6 0.7-1.9-0.2-6.2-1.8-9.5-3.4-3.4-1.5-8.2-5-10.9-7.6-2.6-2.7-4.9-4.5-5.1-4.1-0.3 0.4-1 2.8-1.7 5.3-0.7 2.5-2.3 6.2-3.6 8.3-1.3 2.1-2.4 4.1-2.4 4.5-0.1 0.5-2.3 2.5-5.1 4.6-4.5 3.4-5.7 3.8-13.3 4.4-5.6 0.4-9.6 0.2-12.3-0.6-2.2-0.7-6-2.2-8.3-3.2-2.4-1-6.1-3.7-8.3-5.9-2.2-2.2-3.8-4.5-3.4-5.1 0.3-0.5 2.3-1 4.5-1 2.8 0 5.9 1.2 10.7 4.1 3.8 2.2 8.4 4.3 10.3 4.6 2 0.4 5.4 0.5 7.6 0.2 2.2-0.3 5.7-1.6 7.7-2.9 2-1.3 4.9-4.4 6.3-6.7 1.4-2.4 3-6 4.2-11.8l7.8-0.3c5.4-0.2 8.1 0.2 9 1.1 0.7 0.7 3.7 2.8 6.8 4.5 3.8 2.2 6.9 3.2 9.8 3.2 2.3 0 5.7-0.6 7.5-1.3 1.8-0.8 5.3-3.5 7.8-6.2 2.5-2.6 5.6-6.8 6.8-9.2 1.3-2.4 2.3-5.2 2.3-6.2 0-1 0.6-3.3 1.3-5.3 0.8-1.9 1.6-4.2 1.9-5.1 0.4-1.4 1.5-1.6 5.5-1.2zm134.4 8.3c0.5 0.9 1.8 3.2 2.9 5.3 1.1 2.1 4.8 6.6 14.6 16.3l-9.6-0.7c-5.3-0.4-12.9-0.7-24.3-0.7l3.3-3.3c1.7-1.8 4.9-5.5 6.9-8.3 2.1-2.8 4.1-6.2 4.5-7.6 0.6-2 0.9-2.2 1.7-1zm-123.7 17.3c3.4 3.3 7.2 6.3 8.3 6.6 1.1 0.3 2.6 1.2 3.3 2 1 1.1 0.8 1.4-1.1 1.9-1.2 0.3-7.7 1.4-14.3 2.5-6.6 1-13.2 1.9-17.1 2l3.2-3.3c1.7-1.8 4.8-5.7 6.8-8.6 2-2.9 3.5-5.9 3.4-6.6-0.1-0.7 0.1-1.6 0.5-1.9 0.4-0.4 3.5 2.1 7 5.4zm55.9-5.1c0.1 0 2.1 1.5 4.5 3.5 2.3 1.9 5.8 4.3 11.3 7l-4.5 0.2c-2.5 0.2-8.5 0.4-21.9 0.8l5.1-5.7c2.9-3.2 5.3-5.8 5.5-5.8zm133.4 2.3l5.4 5.3c3 3 5.3 5.6 5.1 5.9-0.1 0.3-4.3 0-9.3-0.6-5-0.7-9.6-1.5-10.4-1.8-0.8-0.4 0.5-2 4-4.7zm66.8-0.3c0.7 0 1.3 0.5 1.3 1.2 0 0.7 1.3 4 2.9 7.3 1.7 3.3 4.4 7.4 6.1 9.1 1.7 1.6 3.1 3.3 3.1 3.7 0 0.5-2.4 0.5-5.3 0.2-2.9-0.3-7.8-1.2-10.8-2-3.1-0.8-7.4-1.4-9.6-1.5-2.2-0.1-5.2-0.5-6.5-0.9-2.6-0.7-2.6-0.7 1-2.5 1.9-1 5-3.3 6.9-5 1.8-1.7 4.8-4.6 6.5-6.3 1.7-1.8 3.7-3.3 4.4-3.3zm-135.1 10.7c13.8 0.2 27 0.8 29.2 1.3 2.2 0.6 8.2 1 13.3 1 5.1 0 14 0.7 19.6 1.5 5.7 0.8 15.6 1.7 21.9 2 6.4 0.2 12.9 0.9 14.4 1.5 1.5 0.6 4.5 1.1 6.5 1.1 2.1 0 6.3 0.7 9.3 1.5 3.1 0.8 7.3 1.5 9.4 1.5 2 0 5 0.5 6.5 1.1 1.5 0.6 6.4 1.5 10.8 2 4.4 0.6 9.4 1.2 11.1 1.4 1.7 0.1 5.7 0.6 9.1 1 3.3 0.4 8.5 1.3 11.5 2 3.1 0.8 9 2.1 13.1 2.9 4.2 0.9 14.6 2.8 23.2 4.2 9.5 1.6 17.6 3.6 20.9 5.1 3.8 1.8 5.2 3 5.2 4.5 0 1.2-0.8 2.2-2.2 2.6-1.3 0.3-4.3 0-6.8-0.7-2.5-0.6-6.8-1.4-9.6-1.6-2.7-0.3-6.4-0.9-8-1.4-1.7-0.5-5.5-1.3-8.6-1.8-3-0.5-11.2-2.1-18.1-3.6-6.9-1.5-15.5-3.4-19.1-4.2-3.6-0.8-8.4-1.4-10.6-1.4-2.2 0-7-0.7-10.6-1.5-3.6-0.8-12-2.3-18.6-3.5-6.6-1.1-17.5-2.7-24.2-3.5-6.6-0.8-15.4-1.5-19.6-1.5-4.2-0.1-12.3-0.8-18.1-1.6-5.8-0.8-14.9-1.6-20.2-1.9-5.2-0.3-17.7-1.2-27.6-2.1-13.2-1.2-23.5-1.4-37.8-1-10.8 0.4-23.2 1.3-27.7 2-4.4 0.8-12.9 1.6-18.9 1.9-5.9 0.3-11.1 0.8-11.5 1-0.4 0.2-7.4 0.9-15.4 1.6-8 0.6-14.8 1.5-15.1 2-0.3 0.4-3.9 1-8 1.4-4.2 0.3-11.2 1.3-15.6 2.1-4.5 0.9-16.3 3.2-26.2 5.2-10 1.9-20.4 4-23.2 4.5-2.7 0.6-8.4 1.6-12.6 2.4-4.1 0.8-12.5 2.2-18.6 3.1-6.1 0.9-12.4 1.5-14 1.3-1.6-0.2-3.4-1.2-4-2.2-0.9-1.5-0.7-2.2 1.4-3.8 1.4-1.1 3.9-2.2 5.5-2.4 1.7-0.2 6.5-0.8 10.6-1.4 4.2-0.5 10.5-1.7 14.1-2.6 3.6-0.9 10.3-2 14.9-2.6 4.5-0.5 9.1-1.4 10-1.8 1-0.5 4.3-1.5 7.3-2.1 3.1-0.7 9.2-1.6 13.6-2 4.4-0.5 11.5-1.4 15.6-2 4.2-0.7 11.9-1.9 17.1-2.8 5.3-0.8 11.9-1.9 14.6-2.5 2.8-0.5 11.6-1.6 19.7-2.4 8-0.9 22.3-2 31.7-2.5 9.4-0.6 20.9-1.5 25.6-1.9 4.8-0.5 19.9-0.7 33.8-0.4zm-187.6 2.3l3.7 2.9c2 1.5 5 3.3 6.7 4 1.6 0.6 4.4 1.7 9 3.6l-4.5 0.7c-2.5 0.4-6.3 1.2-8.5 1.8-2.3 0.6-6.4 1.1-9.4 1.1-2.9 0-5.2-0.4-5.2-1 0-0.5 0.3-1 0.7-1 0.4 0 2.3-2.7 4.2-6zm379.8 3c0.8 0 1.5 0.6 1.5 1.3 0 0.7 2.2 4.2 4.9 7.8 2.8 3.6 4.9 6.6 4.8 6.7-0.1 0.1-2.6-0.3-5.7-0.8-3-0.5-8.2-1.6-11.6-2.4-3.3-0.8-7.1-1.6-8.5-1.7-2.1-0.3-1.3-1 4.8-4.6 4-2.3 7.5-4.7 7.8-5.3 0.3-0.5 1.2-1 2-1zm-192.3 5.2c1.1-0.1 5.9 1.7 10.6 4.1 4.7 2.3 8.7 4.3 9 4.3 0.3 0 3.1 1.6 6.3 3.6 3.2 1.9 5.8 3.7 5.9 4 0 0.2-1.5 1.1-3.3 1.8-1.8 0.8-4.7 2-6.4 2.8-1.6 0.8-6.6 3.4-11 5.9-4.5 2.4-9.3 4.5-10.9 4.5-1.5 0-4.7-1.2-7-2.8-2.4-1.6-6.1-4-8.3-5.4-2.2-1.4-7.1-4.3-17.6-10.4l7.8-3.6c4.3-2.1 10.3-4.6 13.3-5.8 3.1-1.1 6.5-2.2 7.6-2.4 1.1-0.3 2.9-0.6 4-0.6zm-23.2 1.9l-2.5 1.9c-1.4 1.1-4.9 3.1-7.8 4.5-4.1 2.1-5.2 3.1-5 4.7 0.2 1.5 2.3 3.3 6.8 5.7 3.6 2 7.2 4.1 8 4.8 0.9 0.7 2.3 1.5 3.3 1.9 1 0.3 1.8 1.1 1.8 1.6 0 0.6-1.1 1.3-2.3 1.5-1.2 0.3-12.9 1.4-25.9 2.6-13 1.1-28.7 2.5-34.8 3.1-6 0.5-11.9 1.2-13 1.5-1.1 0.4-5.2 1-9.1 1.5-3.9 0.4-9.3 1.2-12.1 1.8-2.8 0.6-10.5 1.7-17.1 2.6-6.6 0.9-15.9 2.2-20.6 3-4.7 0.8-10.3 1.7-16.1 2.6l1.4-2.8c0.8-1.5 1.3-3.8 1-5-0.4-1.9 0-2.3 2.3-2.2 1.6 0 3.3-0.6 4-1.3 0.6-0.7 1.4-2.6 1.7-4.1 0.5-2 0.1-3.3-1.6-4.9-1.6-1.5-3.2-2-5.2-1.8-2.2 0.3-3.7-0.3-5.8-2.3-1.6-1.6-3.6-2.6-4.4-2.3-0.8 0.3-1.5 0-1.5-0.5 0-0.6 1.5-1 3.3-1 1.8 0 5.7-0.7 8.8-1.4 3-0.8 9.1-2.2 13.6-3 4.4-0.9 10.5-2 13.6-2.6 3-0.6 9.8-1.5 15.1-2.1 5.2-0.5 10-1.4 10.5-1.9 0.6-0.4 4.9-0.9 9.6-1 4.7-0.2 8.8-0.4 9.1-0.6 0.2-0.2 2.5-0.6 5-0.9 2.5-0.3 11.8-0.9 20.6-1.2 8.9-0.3 17.5-1 19.2-1.4 1.6-0.5 8.2-0.9 26.1-1zm62 2.6c4.1 0.3 11.8 1 17.1 1.6 9.5 1.1 9.5 1.2 7.3 3-1.3 1-2.3 2.4-2.3 3.1q0 1.2-3.8 0.9c-2.6-0.2-4.3 0.3-5.5 1.5-1 1-2 2.7-2.3 3.6-0.3 1 0.5 2.9 1.8 4.3 1.3 1.5 3.4 2.5 5 2.5 2.1 0 2.8 0.5 2.8 2 0 1.2 1.3 3 3 4.1 1.9 1.2 4 1.8 5.5 1.5 1.6-0.3 3-1.6 3.8-3.5 1-2.3 1.6-2.7 2.8-2 0.8 0.5 2.3 0.9 3.3 0.9 0.9 0 2.6-0.9 3.7-2 1.1-1.1 2.1-3.2 2.1-4.7 0-1.6-0.8-3.5-1.8-4.4-1-0.9-2.5-1.9-3.3-2.2-0.8-0.2-2.3-0.1-3.3 0.4-1.4 0.7-1.7 0.4-1.7-1.9-0.1-1.5-0.7-3.4-1.5-4.3-1.2-1.3-0.2-1.5 8.9-1.2 5.6 0.1 15.4 0.7 21.8 1.3 6.3 0.6 14.5 1.7 18.1 2.4 5 1 5.7 1.4 3 1.4-1.9 0.1-6.2-0.4-9.6-1-5.2-0.9-6.5-0.8-10 0.8-2.1 1-4.8 3-5.8 4.4-1.1 1.5-1.9 4.1-1.9 6.5 0 3.3 0.7 4.7 3.8 7.9 2.6 2.5 6.2 4.6 10.9 6.2 4.2 1.4 6.1 2.5 4.6 2.5-1.4 0-5-0.6-8.1-1.4-3-0.8-9.6-1.7-14.6-2-5-0.3-13.4-1-18.6-1.6-5.3-0.7-14.2-1.8-19.9-2.6-5.7-0.8-13.3-1.4-16.9-1.4-3.6 0-8.7-0.5-16.1-2.3l2.6-1.9c1.3-1 2.9-1.8 3.5-1.9 0.5 0 3.5-1 6.5-2.2 3.1-1.3 6.1-2.9 6.8-3.6 0.7-0.7 1.3-1.7 1.3-2.2 0-0.6-3.2-3.1-7.1-5.6-3.9-2.5-7.1-4.9-7.3-5.4-0.1-0.5 0.7-1.2 1.8-1.4 1.1-0.3 5.4-0.3 9.6-0.1zm27.9 6.6c0.9 0.2 1.7 0.8 1.9 1.3 0.2 0.6-0.1 1.7-0.6 2.6-0.9 1.3-1.2 1.3-2.6 0-1-0.9-1.4-2.1-1-2.9 0.4-0.7 1.5-1.1 2.3-1zm63.4 1.9c1.3 0 5.6 0.7 9.6 1.5 4 0.9 9.1 1.7 11.3 1.9 2.2 0.2 6.1 0.9 8.6 1.5 2.5 0.6 6.5 1.6 9 2.3 2.5 0.6 6.6 1.4 9.1 1.8 2.5 0.4 8.5 1.9 13.3 3.4 4.9 1.5 9.8 2.6 10.9 2.6 1.1 0 4.2 1 6.8 2.2 4.5 2 4.6 2.2 2.7 3.6-1.1 0.7-4 1.9-6.4 2.6-2.4 0.7-4.6 1.6-4.8 2-0.2 0.4 0.9 2.3 2.4 4.3 1.5 2 3.8 4.9 5 6.5 1.6 2.1 2.1 3.6 1.5 5.1-0.6 1.9-1.2 2-5.7 1.4-2.8-0.3-6.9-1.1-9.1-1.7-2.2-0.6-7-1.7-10.6-2.4-3.6-0.8-10.8-2.1-16.1-3-5.2-0.8-13.4-1.9-18.1-2.4-4.7-0.5-9.7-1.3-11.1-1.8-1.8-0.7 0.5-0.9 7.8-0.9 9.7 0.1 10.4 0 12.9-2.4 1.5-1.5 3-4.4 3.5-7.3 0.8-3.7 0.6-5.5-0.5-8-0.8-1.8-3-4-4.8-5-1.8-0.9-4.4-1.9-5.8-2.2-1.4-0.3-5-1.1-8-1.7-3.1-0.7-7.8-1.8-10.6-2.5-2.8-0.7-4-1.3-2.8-1.4zm-16.9 2.4c4.2 0.4 11.5 1.3 16.2 2.2 4.7 0.8 11.7 2.4 15.6 3.6 3.8 1.1 7.6 2.2 8.3 2.4 0.7 0.2 1.9 1.8 2.7 3.4 1.2 2.5 1.3 3.7 0.4 6.3-0.6 1.8-2.1 4.1-3.3 5-1.4 1.2-3.9 1.8-7.6 1.8-3.1 0-7.2-0.4-9.1-1-1.9-0.5-6.5-1.4-10.1-1.9-3.6-0.5-9.4-1.8-13-2.8-4.5-1.2-7.7-2.9-10.1-5.1-3.2-3.1-3.5-3.7-2.8-7.1 0.4-2 1.7-4.5 2.9-5.5 1.9-1.6 3.5-1.8 9.9-1.3zm-57.4 1.6c0.6 0 1.4 0.7 1.8 1.6 0.5 1 0.2 1.9-0.7 2.4-0.9 0.6-2 0.5-2.5 0-0.6-0.5-0.7-1.6-0.3-2.5 0.4-0.8 1.2-1.5 1.7-1.5zm20 5.5c-0.9 0-1.7-0.8-1.7-1.8 0-0.9 0.8-1.7 1.7-1.7 0.9 0 1.7 0.8 1.7 1.7 0 1-0.8 1.8-1.7 1.8zm-255.3-1.4c0.5 0-0.1 0.9-1.3 2.2-1.5 1.6-1.9 3-1.5 5 0.5 2.5 0.3 2.8-2.2 2.8-1.5 0-3.6 0.8-4.6 1.8-0.9 0.9-1.7 2.6-1.7 3.7 0 1.1 0.8 3.1 1.8 4.4 1.5 2.1 2.3 2.3 5.5 1.8 3.2-0.6 3.9-0.4 4.3 1.4 0.3 1.1 1.3 2 2.3 2 0.9 0 2.4 0.4 3.2 0.9 1.1 0.6-0.5 1.3-5.5 2.5-3.9 1-10.2 2.1-14.1 2.6-3.9 0.5-8.8 1.3-10.8 1.7-3.2 0.7-3.8 0.6-3.6-0.7 0.1-0.8 2.3-4 4.8-6.9 2.5-3 5.8-6.1 7.3-6.8 1.6-0.8 2.7-2.1 2.5-3-0.1-1.1-2.7-2.3-7.9-3.8-4.2-1.2-8.1-2.5-8.5-3-0.5-0.4 0-1.5 1.1-2.3 1.1-0.8 3.6-1.6 5.5-1.9 2-0.3 6.7-1.2 10.6-2 3.9-0.8 8.2-1.7 9.6-1.9 1.4-0.2 2.8-0.4 3.2-0.5zm3.3 3.9c0.8 0 1.5 0.7 1.5 1.5 0 0.9-0.8 1.8-1.7 2.1-1 0.2-2 0.2-2.3 0-0.3-0.3-0.2-1.2 0.2-2.1 0.4-0.8 1.4-1.5 2.3-1.5zm-54.1 3c1 0 5.6 1.5 10.3 3.4 4.7 1.8 10.6 3.9 13.1 4.7 2.5 0.8 4.8 1.5 5 1.7 0.3 0.1-4.7 5.5-11 11.9-6.4 6.4-12 11.6-12.4 11.6-0.4 0-0.7-1.3-0.8-2.8 0-1.5 0.7-3.4 1.6-4.3 0.9-0.8 1.6-1.9 1.6-2.5-0.1-0.5 2.2-3.5 5-6.5 2.8-3.1 4.8-5.8 4.3-6.2-0.5-0.3-3.3-1.5-6.4-2.7-3-1.1-6.7-2.3-8-2.6-1.4-0.3-3.2-1-4.1-1.5-0.9-0.6-1.2-1.6-0.7-2.6 0.4-0.8 1.5-1.6 2.5-1.6zm58.8 4.8c0.5 0.7 0.7 1.5 0.6 1.6-0.1 0.2-1.7 0.7-3.5 1.1-2.3 0.4-3.3 0.2-3.3-0.7 0-0.6 1.2-1.7 2.6-2.3 2-0.8 2.9-0.7 3.6 0.3zm405.1 0.1c0.8 0.2 1.4 0.7 1.4 1 0 0.4-0.3 1.2-0.7 1.9-0.4 0.6-2.6 1.8-4.8 2.7-2.2 0.8-5.9 2-8.3 2.6-2.3 0.6-4.2 1.6-4.2 2.3 0 0.7 1.6 2.8 3.5 4.8 2 1.9 4.2 5 5 6.8 0.8 1.8 1.5 4.2 1.5 5.3 0 1.1-0.4 2-1 2-0.5 0-2-1.1-3.3-2.5-1.2-1.3-3.4-3.7-4.7-5.2-1.4-1.6-4.6-5.3-7.1-8.2-2.5-2.9-4.3-5.5-4-5.6 0.3-0.2 3.2-1.1 6.5-2.1 3.3-1 7.4-2.4 9.1-3.2 1.6-0.7 4.5-1.7 6.4-2.2 1.9-0.5 4-0.7 4.7-0.4zm-416.9 2.3c0.7 0.7 0.7 1.5 0 2.7-0.7 0.9-1.6 1.7-2.1 1.7-0.5-0.1-1-1-1.2-2.1-0.2-1 0.3-2.2 1-2.6 0.7-0.4 1.7-0.3 2.3 0.3zm181.8 0.5c27.8 0.2 45.9 0.9 56.9 2 8.8 0.9 22.4 2 30.2 2.4 7.7 0.5 16.8 1.4 20.1 2 3.3 0.7 9.2 1.8 13.1 2.6 3.9 0.8 8.5 1.5 10.3 1.5 1.8 0 4.2 0.4 5.3 1 1.1 0.5 6.9 1.7 12.8 2.5 6 0.8 13.3 1.9 16.4 2.4 3 0.5 9.4 1.9 14.1 3.1 4.7 1.3 10.4 2.6 12.6 3.1 2.2 0.4 5.1 1.2 6.5 1.8 1.4 0.5 5.9 2.1 10 3.4 4 1.2 7.6 2.6 7.8 3.1 0.2 0.4 1.4 0.7 2.6 0.7 1.2 0 4 1.1 6 2.5 2.5 1.7 3.8 3.3 3.8 4.8 0 2.2-0.2 2.2-5.5 1.5-3.1-0.4-6.6-1.4-7.8-2.2-1.3-0.7-6.8-2.8-12.4-4.6-5.5-1.7-10.9-3.6-12-4.1-1.1-0.4-7.3-2.1-13.6-3.7-6.4-1.6-13.9-3.5-16.6-4.1-2.8-0.7-7.3-1.5-10.1-1.7-2.8-0.3-8.2-1.1-12.1-1.9-3.9-0.8-12.2-2.2-18.6-3.1-6.4-0.8-14.3-2-17.6-2.5-3.4-0.6-10.4-1.2-15.6-1.6-5.3-0.3-15.3-1.2-22.2-2.2-9.9-1.3-21.8-1.6-56.4-1.6-31.7-0.1-50.1 0.4-66.9 1.7-12.7 0.9-26.6 1.9-30.7 2.2-4.2 0.3-8.7 0.8-10.1 1.1-1.4 0.2-3.6 0.6-5 0.9-1.4 0.2-6.4 1.1-11.1 1.9-4.7 0.9-12.6 2.2-17.6 3.1-5 0.8-10.4 1.5-12.1 1.5-1.7 0-4.6 0.5-6.5 1.1-2 0.5-6.1 1.4-9.1 1.9-3 0.4-9.4 1.9-14.1 3.3-4.7 1.4-9.7 2.8-11.1 3.1-1.4 0.3-5.4 1.2-9 2-3.6 0.8-11 2.7-16.4 4.1-5.4 1.5-10.5 2.7-11.3 2.7-1 0-1.5-1-1.5-2.8 0-1.8 0.8-3.3 2.2-4.3 1.3-0.8 3.9-2.1 5.8-2.8 2-0.7 4.9-1.8 6.6-2.3 1.6-0.5 5.3-1.4 8-2 2.8-0.6 7.3-1.7 10.1-2.4 2.8-0.8 7.3-1.7 10.1-2.1 2.7-0.4 5.7-1.1 6.5-1.5 0.8-0.4 5.1-1.5 9.6-2.3 4.4-0.8 11.9-2.2 16.6-3.1 4.7-0.8 12.6-2 17.6-2.7 5-0.6 11.8-1.5 15.1-2 3.3-0.5 8.3-1.3 11.1-1.8 2.7-0.5 10.2-1.2 16.6-1.6 6.4-0.4 13.4-1.1 15.6-1.6 2.2-0.5 9.2-1 15.6-1.1 6.4 0 12.7-0.5 14.1-0.9 1.4-0.4 20.9-0.6 43.3-0.4zm-171.7 3.4c0.9 0 1.5 0.7 1.5 1.5 0 0.9-0.6 1.9-1.5 2.3-0.8 0.4-1.8 0.4-2.2 0-0.5-0.4-0.5-1.4-0.1-2.3 0.4-0.8 1.5-1.5 2.3-1.5zm292 1.2h3c1.7-0.1 5.5 0.6 14.1 2.8l-5.5-0.5c-3.1-0.3-6.9-0.9-8.6-1.4zm-118.1 166.6c1 5.5 3 14.9 4.3 21 1.3 6.1 3.8 16.5 5.6 23.1 1.7 6.7 4.3 14.3 5.6 16.9 1.3 2.6 2.4 5.5 2.4 6.3 0 0.8 0.8 3.2 1.7 5.3 0.9 2 2.2 5 3 6.5 0.8 1.5 1.4 3.2 1.4 3.8 0 0.5 0.9 3.2 2.1 5.8 1.2 2.6 4.1 8.8 6.6 13.8 2.4 5 5 10 5.6 11.1 0.7 1.1 2.4 3.8 3.8 6 1.3 2.3 2.9 4.8 3.5 5.7 0.6 0.9 2.4 3.9 4 6.6 1.6 2.6 3.3 5.1 3.6 5.4 0.4 0.2 1.4 1.9 2.3 3.7 1 1.8 3.3 5.5 5.2 8.1 2 2.6 3.9 5.2 4.4 5.8 0.4 0.5 2.3 3.2 4.1 6 1.9 2.8 4.1 5.7 5.1 6.6 0.9 0.8 3.5 4 5.8 7 2.3 3.1 7.1 8.3 10.5 11.8 3.5 3.4 10.2 10 14.9 14.6 4.8 4.6 10.9 10.1 13.6 12.3 2.8 2.2 7.3 6.1 10.1 8.6 2.8 2.5 7.8 6.6 11.1 9.1 3.3 2.5 8.1 6 10.8 7.8 2.6 1.8 5 3.3 5.3 3.3 0.2 0 3.3 1.9 6.8 4.3 3.4 2.4 13.8 8 23.1 12.6 9.3 4.5 17.2 8.2 17.6 8.2 0.4 0.1 4.1 1.6 8.1 3.6 4 1.9 8.3 3.7 9.6 3.9 1.2 0.2 2.6 0.5 3 0.5 0.4 0 0.4 1.8 0.1 3.9-0.3 2-1 4.4-1.4 5.2-0.5 0.9-1.8 4-3 7.1-1.2 3-3.8 8.7-5.7 12.6-2 3.8-5.1 9.4-7 12.3-1.9 2.9-3.4 5.5-3.4 5.8 0 0.3-2.8 4.2-6.3 8.8-3.4 4.6-7.2 9.4-8.4 10.8-1.2 1.4-7.1 7.9-13.1 14.4-6.1 6.5-11.9 12.2-13 12.5-1.1 0.4-4.5 0.7-7.5 0.9-3.5 0.1-8.5 1.3-13.4 3.3-4.3 1.7-9.5 3.2-11.6 3.2-2.3 0-5.1-1-7.3-2.4-1.9-1.4-5.5-3.2-8-4.2-4.3-1.7-4.9-1.7-10.6-0.1-3.3 1-7.6 2.5-9.5 3.4-2 0.9-4.2 2.2-5.1 3-0.9 0.9-2.4 1.2-3.8 0.9-1.2-0.4-4.6-1.8-7.5-3.2-3.2-1.6-7.9-2.8-11.8-3.2-6.1-0.6-7.1-0.3-14.4 3.1-5.2 2.4-8.5 3.5-10 3-1.3-0.3-4.1-1.7-6.3-3-2.3-1.3-5.4-2.7-7.1-3.2-1.8-0.5-5.9-0.5-10.1 0-4.4 0.7-8.9 2.1-12.3 3.9-2.9 1.6-6.3 3-7.5 2.9-1.3 0-4.8-1.4-7.8-3.1-4.7-2.7-6.6-3.1-12.1-3-5.1 0-8 0.8-13.1 3.1-3.6 1.7-7.3 3.1-8.3 3.1-1 0-4.2-1.3-7.1-2.9-2.9-1.5-7.1-3.4-9.3-4.1-3.4-1.1-4.8-1-9.5 0.4-3.1 0.9-6 1.9-6.6 2.3-0.5 0.4-3.3 1.5-6 2.4-2.8 1-6.4 1.8-8.1 1.9-1.9 0-4.7-1.2-7.5-3.3-4.2-3-5.1-3.3-11.4-3-5.1 0.2-8.2 0.9-12.8 3.2-3.3 1.7-6.9 3.1-8 3.1-1.1 0-4.4-1.5-7.3-3.2-3.6-2.1-7.1-3.3-10.9-3.6-3.7-0.4-6.8 0-13.6 2.7l-6-5.4c-3.3-2.9-6.5-5.5-7.2-5.7-0.6-0.3-4.2-4.3-8-9-3.8-4.7-7.4-9-8-9.6-0.6-0.5-2.6-3-4.5-5.5-1.8-2.5-5.1-6.3-7.1-8.6-2.1-2.2-4.3-5.1-4.9-6.5-0.6-1.4-2.1-4.3-3.4-6.5-1.2-2.3-3.3-5.9-4.5-8.1-1.2-2.2-3.2-6.3-4.4-9.1-1.2-2.7-3.7-9.3-5.5-14.6-1.9-5.2-3.4-9.9-3.4-10.3 0-0.4 1.5-1.4 3.3-2.2 1.8-0.7 7.3-3.1 12.3-5.1 5-2 10.8-4.8 12.8-6.1 2.1-1.3 4.5-2.4 5.3-2.4 0.9 0 1.7-0.4 1.9-0.8 0.2-0.4 3.7-2.5 7.8-4.6 4.1-2.2 8.1-4.6 8.9-5.4 0.9-0.8 6.3-4.2 12.1-7.7 5.8-3.4 13.3-8.1 16.6-10.5 3.4-2.3 8.8-6.2 12.1-8.7 3.3-2.5 8.6-6.3 11.6-8.5 3-2.2 10.6-9.1 16.8-15.4 6.2-6.3 14.6-15.5 18.6-20.5 4.1-5 10.6-13.1 14.6-18.1 3.9-5 9.1-12 11.6-15.6 2.4-3.6 5.9-9.5 7.8-13.1 1.9-3.6 4.3-7.7 5.3-9.1 1-1.3 1.9-3 1.8-3.7 0-0.7 0.5-1.3 1-1.3 0.6 0 1-0.9 1-2 0-1.1 0.7-2.7 1.5-3.5 0.9-0.9 1.5-1.8 1.5-2 0-0.3 1.4-3.6 3.1-7.3 1.8-3.8 3.5-7.7 4-8.9 0.4-1.1 1.7-4 2.8-6.5 1.1-2.5 3.4-7.9 5.1-12.1 1.7-4.1 3.4-9.1 3.7-11 0.3-2 1-4 1.4-4.6 0.4-0.5 1.5-3.5 2.4-6.5 1-3.1 2.7-8.5 3.8-12.1 1.2-3.6 3-9.7 4-13.6 1-3.9 2.6-9.5 3.5-12.6 0.9-3 2-7.1 2.5-9 0.5-2 0.9-5.4 0.8-7.7-0.1-2.2 0.2-4.4 0.7-4.8 0.5-0.4 1.7 3.7 2.7 9.1zm65.3-178.2c-1.4 0-2.5-1.1-2.5-2.5 0-1.4 1.1-2.5 2.5-2.5 1.4 0 2.5 1.1 2.5 2.5 0 1.4-1.1 2.5-2.5 2.5zm-231.5 4c-1.1 0-2-0.9-2-2 0-1.1 0.9-2 2-2 1.1 0 2 0.9 2 2 0 1.1-0.9 2-2 2z"/>
		<path id="branco" fill-rule="evenodd" class="s3" d="m303.6 105.7c0.7 0 2.2 1 3.3 2.2 1.1 1.3 2.1 3.2 2.1 4.3 0 1.1-0.6 2.6-1.3 3.3-0.6 0.6-2.4 1.2-3.8 1.2-1.4 0-3.3-0.8-4.3-1.8-1-0.9-1.8-2.6-1.8-3.7 0.1-1.1 0.4-2.5 0.8-3.1 0.4-0.7 1.4-1.4 2.3-1.7 0.8-0.3 2-0.6 2.7-0.7zm37.3 0.9c1.4 0.3 2.9 1.3 3.4 2.3 0.5 1 0.5 2.8 0 4-0.5 1.3-2.1 2.6-3.5 3.1-1.5 0.4-3.4 0.5-4.2 0.2-0.8-0.3-1.7-1.3-2-2.3-0.3-0.9-0.1-2.9 0.4-4.4 0.6-1.4 1.6-2.8 2.3-3.1 0.6-0.2 2.3-0.1 3.6 0.2zm-19.6 2.2c0.4-0.1 1.7 0.2 3 0.7 1.2 0.5 2.6 1.6 3 2.5 0.4 1 0.2 2.6-0.5 3.7-1 1.5-2.4 2-5.5 2-4.3 0-4.3 0-4.6-3.9-0.2-3.3 0.2-4.1 1.8-4.4 1.1-0.3 2.3-0.6 2.8-0.6zm-39.5 5.9c1.6 0 3 0.1 3 0.3 0 0.1-1.8 2.1-4 4.5-2.3 2.3-4.3 3.9-4.6 3.5-0.3-0.4-0.2-1.9 0.1-3.3 0.4-1.3 1.1-3 1.7-3.7 0.5-0.7 2.3-1.3 3.8-1.3zm78.5 0c1.3 0 3.4 1 4.6 2.2 1.2 1.3 2.4 3.4 2.8 4.6 0.3 1.2 0.2 2.5-0.4 2.8-0.5 0.2-1.6-0.9-2.3-2.7-0.6-1.7-2.6-3.9-4.2-5-3-1.9-3.1-1.9-0.5-1.9zm-71.6 4c0.9 0 2.6 0.7 3.9 1.5 1.7 1.2 2.2 2.5 2.2 5.6 0 2.9-0.6 4.5-2.2 6-1.3 1.1-3.8 2-5.6 2-2.6 0-3.5-0.5-4.8-3-0.9-1.9-1.2-4-0.7-5.7 0.4-1.5 1.8-3.5 3.2-4.5 1.3-1 3.1-1.9 4-1.9zm67.2 1c1.4 0 3.2 1.2 4.4 2.8 1.1 1.5 2 3.7 2 4.8 0 1.1-0.7 3-1.5 4.3-1.1 1.5-2.5 2.2-4.8 2.2-2 0-4.2-0.9-5.6-2.3-1.2-1.2-2.3-3.2-2.4-4.5 0-1.4 1.1-3.3 2.7-4.8 1.6-1.4 3.9-2.5 5.2-2.5zm-99.8 1c1.1 0 3 0.7 4.2 1.5 1.3 0.9 2.3 1.9 2.3 2.3 0 0.4-1.5 1.6-3.5 2.5-1.9 1-4.1 2.9-4.8 4.3-0.7 1.4-1.8 2.6-2.5 2.6-0.7-0.1-1.5-0.7-1.8-1.6-0.3-0.8-0.5-3.1-0.6-5-0.1-2.6 0.4-3.8 2.3-5 1.3-0.9 3.3-1.6 4.4-1.6zm66.3 1.3c1.7 0.1 3.8 1.3 5 3 1.9 2.4 2 2.9 0.6 4.3-1 1.1-3.2 1.6-7.3 1.6-5.4-0.1-5.8-0.2-5.9-2.6-0.1-1.5 0.8-3.3 2.2-4.5 1.6-1.4 3.5-2 5.4-1.8zm62.6-0.3c2.1 0 4.2 0.8 5.5 2.1 1.2 1.2 2 3.4 2 5.8 0 2.1-0.6 4.4-1.5 5.2-1.5 1.4-1.6 1.4-1.6-0.2 0-1-1.5-3.4-3.5-5.3-1.9-1.9-4.2-3.5-5-3.5-1.2 0-1.3-0.5-0.5-2 0.8-1.5 2.1-2.1 4.6-2.1zm-161.2 3.2c0.6 0 2.5 0.8 4.3 1.9 1.8 1.1 3.6 3 3.9 4.3 0.4 1.5-0.2 3-1.9 4.7-1.4 1.4-3.2 4-4.1 5.8-1.2 2.4-2.3 3.3-4.2 3.3-1.3 0-3.8-1.2-5.5-2.8-1.7-1.5-3.3-4.1-3.6-5.8-0.5-2.4-0.1-3.6 2.7-6.6 1.9-2 4.3-3.9 5.4-4.2 1.1-0.3 2.5-0.5 3-0.6zm197.8 2c2 0.5 4.6 1.9 5.7 3.1 1.2 1.3 2.5 4 2.8 6.1 0.5 3.1 0.2 4.3-1.9 6.8-1.6 2-3.4 3-5.3 3-2.2 0-3-0.6-3.9-3.2-0.7-1.9-3.1-4.7-5.4-6.4-2.2-1.6-4.1-3.4-4.1-4 0-0.5 0.8-1.8 1.8-2.7 1-0.9 2.9-2.1 4.2-2.6 1.4-0.5 4-0.6 6.1-0.1zm-157.1 1.9c1.4 0 4 0.8 5.7 1.8 2.5 1.5 3.1 2.7 3.6 6.8 0.4 2.8 0.5 5.4 0.3 6-0.2 0.5-1.8 1.8-3.4 2.8-1.7 0.9-4.3 1.7-5.8 1.7-1.5 0-3.5-0.6-4.4-1.3-0.8-0.6-2.3-2.8-3.3-4.7-0.9-2-1.7-4.1-1.8-4.8 0-0.6 1.4-2.8 3.2-4.7q3.2-3.6 5.9-3.6zm-76.9 2.6c1.7 0.4 4.2 1.4 5.5 2.4 1.4 1 3.1 3.2 3.8 4.9 1.2 3 1.1 3.2-1.7 4.7-1.7 0.8-4.4 3.5-6.1 6-2.6 4-3.4 4.5-5.8 4-1.5-0.3-3.8-1.6-5.1-2.8-1.2-1.2-2.7-4.1-3.3-6.4-1-3.8-0.8-4.6 1.1-7.1 1.2-1.6 3.7-3.7 5.4-4.6 2.1-1.1 4.3-1.4 6.2-1.1zm189.5-0.6c3.5 0 4.7 0.5 6.4 2.8 1.1 1.5 2.3 3.9 2.6 5.3 0.3 1.3-0.1 3.6-0.8 4.9-0.8 1.3-2.8 3.1-4.6 4-2.9 1.5-3.6 1.5-6 0.1-1.4-0.8-3.3-2.4-4-3.5-0.8-1.1-1.5-3.6-1.6-5.5-0.1-2.2 0.6-4.4 1.7-5.8 1.5-1.7 3-2.3 6.3-2.3zm80.3 1.6c1.7 0.3 4.1 1.2 5.3 2 1.2 0.8 3.1 2.9 4.2 4.7 1.5 2.6 1.7 4.1 1 7.3-0.5 2.2-1.9 5.1-3.2 6.3-1.2 1.3-3.3 2.3-4.5 2.3-1.4 0-2.6-0.9-3.1-2.3-0.5-1.2-2-3.4-3.3-4.8-1.4-1.4-3.3-3-4.4-3.6-1.3-0.7-2.1-2.2-2.1-4-0.1-1.6 0.2-3.6 0.5-4.3 0.3-0.8 1.9-2 3.6-2.8 1.6-0.7 4.4-1.1 6-0.8zm-316.8 1.8c1 0.3 2.6 0.7 3.7 1 1.1 0.3 3.2 2 4.7 3.9 1.4 1.8 2.9 4.8 3.2 6.6 0.5 2.1 0.1 4.7-1.2 7.5-1.3 3.2-2.8 4.8-5.7 6.2-2.2 1.1-5.8 2-7.9 2-3.3 0.1-4.4-0.4-7.4-3.9-3.1-3.6-3.4-4.5-3-8.6 0.3-2.5 0.6-5.2 0.8-6.2 0.2-0.9 1.5-2.5 2.9-3.6 1.4-1.1 3.8-2.3 5.3-2.7 1.5-0.3 2.8-1 2.9-1.6 0-0.6 0.8-0.9 1.7-0.6zm180.4-0.3c1.4-0.1 3.6 0.7 5 1.7 1.4 0.9 3.3 2.6 4.3 3.7 0.9 1.2 1.7 2.8 1.8 3.6 0 0.8-0.6 2.1-1.3 2.7-0.8 0.8-2.6 1.1-5.3 0.6q-4-0.6-8.3 1.1c-4.1 1.6-4.3 1.6-5.3-0.4-0.5-1.1-0.9-3.3-0.7-4.8 0.1-1.6 0.8-3.7 1.6-4.7 0.7-1 2.3-2.2 3.5-2.6 1.2-0.5 3.3-0.9 4.7-0.9zm-82.2 2.9c4.5 0 5.6 0.4 8.2 3.1 2.5 2.6 3 3.8 2.8 7.3-0.1 2.5-1 4.9-2 5.9-1 0.8-4.4 2.3-7.6 3.2-4.7 1.4-6.1 1.5-7.4 0.4-0.9-0.7-2.3-2.5-3-4-0.8-1.5-1.4-3.9-1.4-5.3 0-1.4 0.5-3.5 1.1-4.8 0.6-1.2 1.8-3 2.7-4 1.1-1.2 3-1.8 6.6-1.8zm165.5 0.1c0.7 0 2.7 0.6 4.5 1.4 1.8 0.8 3.9 2.6 4.6 4 0.7 1.5 1.2 4.2 1.2 6.1 0 2.2-0.8 4.5-2.2 6.2-1.7 2-3.5 2.7-7.3 3.1-4.6 0.4-5.3 0.2-7.8-2.4-1.5-1.6-2.9-4-3-5.4-0.1-1.3 0.4-4 1.2-5.9 0.8-1.8 2.9-4.2 4.5-5.2 1.7-1.1 3.6-1.9 4.3-1.9zm98.8-0.1c3.9 0 5.2 0.5 8 3.3 2.6 2.6 3.4 4.4 3.8 8.3 0.5 3.8 0.1 5.8-1.3 8.3-1 1.8-3.4 3.9-5.3 4.7-2 0.8-4.2 1.3-5.1 1.2-0.8-0.1-3-0.5-4.8-0.9-2.1-0.4-4-1.9-5.5-4-1.6-2.3-2.2-4.7-2.2-8.6-0.1-5.1 0.2-5.7 3.9-8.8 3.2-2.8 4.8-3.5 8.5-3.5zm-300.1 9.2c2.9-0.1 5.2 0.6 7.3 2.2 1.9 1.4 3.4 3.7 4.1 6.3 0.8 3.2 0.7 4.7-0.6 7.5-1 2.3-3.1 4.4-5.8 5.8-2.4 1.3-5.6 2.3-7.3 2.2-1.8 0-4.4-1.1-6.6-2.9-3.3-2.7-3.5-3.3-3.5-8.9 0-4.4 0.5-6.7 1.9-8.3 1-1.2 2.8-2.6 4-3.1 1.2-0.4 4.1-0.8 6.5-0.8zm237.8 1c1.9 0 4.9 0.9 6.5 1.8 1.8 1.1 3.9 3.6 6.9 10.7l-2.4 5c-1.9 3.8-3.3 5.4-6 6.4-2.1 0.9-4.7 1.1-6.5 0.7-1.7-0.4-4.5-2.3-6.3-4.2-2.8-2.9-3.3-4.2-3.4-8.8-0.2-5.3-0.1-5.6 3.7-8.6 2.8-2.2 5-3.1 7.5-3zm-347.3 2c0.8 0 3.3 1 5.5 2.2 2.2 1.2 5 3.8 6.3 5.8 1.3 1.9 2.3 5 2.3 6.8 0 1.8-0.8 4.9-1.8 6.9-1.2 2.5-3.4 4.7-6.8 6.6-2.8 1.5-5.2 2.8-5.5 2.9-0.3 0-2.5-1.3-4.8-2.8-2.4-1.5-5.2-4.2-6.3-5.8-1.1-1.7-2-4.7-2-6.8 0-2.3 1-5.4 2.5-7.8 1.4-2.2 4-4.9 5.8-6.1 1.8-1.1 3.9-2 4.8-1.9zm229.5 1.6c1.4 0.3 3.8 1 5.4 1.7 1.9 0.8 3.2 2.4 4 4.9 1 3 0.9 3.9-0.3 5.3-1.2 1.2-3.3 1.6-8.6 1.6q-7-0.1-9.3 1.4c-1.2 0.9-3.1 1.3-4 1-1.5-0.5-1.7-1.2-1-4.8 0.4-2.3 1.5-5.3 2.5-6.7 1-1.3 3.4-3 5.3-3.7 1.9-0.7 4.6-1 6-0.7zm225 2.1c1.7 0.3 3.9 1.2 5.1 2 1.1 0.9 2.9 2.7 4 4.2 1.5 2 2 4.2 2 8.9 0 5.7-0.3 6.5-3.3 9.6-3 2.9-3.9 3.2-9.1 3.2-4.8 0-6.5-0.4-9.6-2.7-3.1-2.3-3.8-3.6-4.3-7.6q-0.6-4.8 1-8.8c0.8-2.2 2.8-4.9 4.3-6 1.6-1.1 3.8-2.3 4.9-2.7 1.1-0.4 3.4-0.4 5-0.1zm-225.7 15.4c2 0 5 0.6 6.5 1.3 1.5 0.8 3.5 2.5 4.4 3.8 0.9 1.3 1.9 3.8 2.4 5.4 0.4 1.7 0.2 4.7-0.4 6.8-0.7 2.5-1.7 3.8-2.9 3.8-0.9 0.1-2.6-0.9-3.7-2-1.2-1.2-3.4-2.4-5.1-2.7-1.6-0.3-4.2-0.3-5.8 0.1-1.5 0.3-4.1 2-5.7 3.8-1.7 1.8-3.4 2.9-3.8 2.5-0.4-0.5-1-3.4-1.1-6.6-0.3-4.6 0-6 1.5-7.6 1.1-1 2-2.5 2-3.2 0-0.8 1.7-2.3 3.9-3.4 2.2-1.1 5.7-2 7.8-2zm-152.1 4c1.6 0 4.7 0.8 7 1.7 2.2 1 4.9 3.2 6 4.8 1 1.8 1.8 5 1.9 7.6 0 2.8-0.7 5.4-1.8 6.9-1.4 1.9-2.3 2.2-4.3 1.6-1.3-0.4-4.1-0.7-6-0.6-2.2 0.2-4.5 1.2-6 2.7-1.4 1.3-3 2.5-3.6 2.5-0.5 0-2.3-1.7-3.9-3.8-2.2-2.8-2.9-4.9-3-8.3 0-3.4 0.7-5.5 2.8-8.4 1.5-2.1 4-4.4 5.5-5.2 1.4-0.8 3.9-1.5 5.4-1.5zm303.8 2.4c3.6 0.3 5.2 1.2 7.8 4 2.6 2.9 3.3 4.5 3.3 7.7 0 2.2-0.6 5.2-1.3 6.5-0.7 1.4-1.7 2.8-2.2 3-0.6 0.2-3-0.2-5.3-0.8-4-1.1-4.8-0.9-13.3 3.9l-2.1-2c-1.2-1.2-2.6-3.6-3.2-5.6-0.9-3-0.7-4.2 1.3-8.5 1.9-3.7 3.4-5.4 6.5-6.8 2.7-1.3 5.4-1.7 8.5-1.4zm-415.9 8.6c2.6 0 6 0.7 7.7 1.5 1.7 0.7 3.8 3 4.8 5 0.9 2 1.7 4.8 1.7 6.1 0 1.4-0.6 4-1.4 5.8-0.8 1.8-2.7 4.8-4.3 6.6-2 2.3-3.8 3.3-6.3 3.4-2.3 0.2-5.2-0.7-8.1-2.4-3-1.7-5-3.7-5.8-6-0.7-1.8-1.3-4.7-1.3-6.3 0-1.7 0.7-4.5 1.5-6.3 0.9-1.8 2.8-4.2 4.2-5.3 1.8-1.3 4.3-2 7.3-2.1zm522.4 2.1c1.8 0 4.7 0.6 6.5 1.3 1.8 0.7 4.3 2.7 5.4 4.3 1.2 1.6 2.6 5.2 3.1 8 0.7 3.4 0.7 5.8-0.1 7.5-0.6 1.4-1.9 3.3-2.8 4.3-1 1-3.2 2.4-4.8 3.3-2.1 1-4.1 1.2-6.2 0.7-2.4-0.5-4.1-2.1-6.5-5.8-1.8-2.7-4.5-6-5.9-7.3-1.4-1.2-2.6-3.3-2.6-4.5 0.1-1.2 1-3.8 2.3-5.6 1.2-1.8 3.6-4 5.2-4.7 1.7-0.8 4.6-1.5 6.4-1.5zm-542.6 40.2c3.4 0 5 0.7 7.8 3.3 2.2 2 4 4.8 4.6 7.1 0.5 2 0.6 5.6 0.1 7.9-0.4 2.3-1.7 5.3-3 6.6-1.2 1.3-3.5 2.6-5 2.9-1.7 0.4-5.4-0.2-9.7-1.7-3.8-1.3-7.3-2.9-7.8-3.4-0.5-0.6-1.1-2.8-1.5-5-0.4-2.7-0.1-5.5 1-8.3 1.1-2.8 2.9-5.2 5.4-6.8 2.6-1.8 5.2-2.6 8.1-2.6zm566.2 3.2c1-0.1 3.3 0.5 5.1 1.3 1.9 0.9 4 2.9 5 5.1 1 1.9 1.8 5.2 1.8 7.3 0 2.3-0.9 5.1-2.3 7.2-1.5 2.3-3.7 3.9-6.8 4.9-2.5 0.8-5 1.8-5.5 2.3-0.6 0.5-2.8 0-5.1-1-2.3-1-4.7-3.1-5.7-5-1-1.7-1.8-5.1-1.8-7.6 0-2.7 0.7-5.7 1.8-7.2 0.9-1.5 3.1-3.4 4.7-4.3 1.7-0.9 4-1.9 5.1-2.3 1.1-0.3 2.8-0.7 3.7-0.7zm-353.1 48.3c0.6 0 2.5 0.8 4.3 1.9 1.8 1.1 3.5 3 3.8 4.3 0.4 1.2 0.1 3.5-0.5 5-0.5 1.5-2.3 3.3-3.8 3.9-1.5 0.6-4.3 0.8-6.3 0.5-1.9-0.3-4.1-1.4-4.8-2.4-0.7-0.9-1.3-3.1-1.3-4.8 0-1.8 0.9-3.8 2.3-5.1 1.3-1.2 3-2.4 3.8-2.7 0.8-0.3 2-0.6 2.5-0.6zm138.5 0.9c1.1 0 3.1 1 4.4 2.3 1.4 1.2 2.6 2.9 2.7 3.7 0.1 0.9 0.1 2.3 0 3.3 0 1-1 2.7-2.1 3.8-1.1 1.1-3.4 2-5 2-1.8 0-4.1-1-5.5-2.3-1.3-1.2-2.7-3.1-3.1-4.2-0.4-1.5 0.3-2.9 3-5.3 2-1.8 4.5-3.3 5.6-3.3zm-267.1 15.1c0.7 0 2.3 0.5 3.5 1.1 1.3 0.7 3.1 2 4.1 3.1 0.9 1 1.7 2.9 1.8 4.1 0 1.2-1.3 3.5-2.8 5-1.5 1.6-3.8 3-5.1 3.3-1.2 0.3-3 0.1-4-0.4-1-0.4-2.6-1.6-3.5-2.5-1-0.9-1.9-2.8-2-4.3-0.1-2 0.8-3.7 3.2-6.1 1.9-1.8 4-3.3 4.8-3.3zm397.4 4.6c1.7 0.3 3.9 1.3 4.8 2.2 1 1 1.8 3 1.8 4.5 0 1.7-1.2 4-3 5.8-1.7 1.7-3.5 3-4.1 3-0.5 0-2.3-0.8-4-1.7-1.7-1-3.3-2.7-3.6-3.8-0.4-1.1-0.3-3.5 0.1-5.3 0.5-2 1.7-3.8 2.9-4.3 1.2-0.5 3.5-0.7 5.1-0.4zm-181.9 630.4c1 0.2 2.6 0.8 3.7 1.3 1.1 0.4 3 1 4.1 1.3 1.1 0.3 3.9 1.2 6.3 2.1 2.3 0.9 6.4 1.7 9 1.8 2.9 0.1 6-0.5 7.8-1.5 1.7-0.9 4.6-2.4 6.6-3.3 2.4-1.1 4.8-1.5 7.8-1 2.3 0.3 4.5 1 4.7 1.6 0.3 0.5 2.3 1.7 4.3 2.6 2.1 0.9 5.7 2 8.1 2.5 3.6 0.8 5 0.5 9-1.6 2.7-1.3 6.2-3.4 7.8-4.5 2.1-1.4 4.7-2 8.3-2 4-0.1 6.7 0.7 10.9 3 3.5 1.9 7 3 9.5 3 2.3 0 4.3 0.4 4.6 1 0.2 0.5-1.9 2.4-4.8 4-3.8 2.2-6 2.9-7.8 2.5-1.4-0.4-5.3-0.9-8.6-1.1-4.7-0.4-7.2 0-11.6 1.8-3 1.2-6.2 2.9-7 3.7-1.1 1.1-2.8 1.3-6.5 0.8-2.8-0.4-6-1.3-7.1-2-1.1-0.7-4.3-2-7-2.7-4.3-1.1-6.1-1.1-11.1 0.1-3.3 0.7-7.6 2.4-9.6 3.7-1.9 1.3-4.3 2.3-5.3 2.3-0.9 0-4.8-1.5-8.5-3.2-5.9-2.8-7.7-3.2-13.4-3-4.9 0.3-8.2 1.2-13.5 3.8-3.9 1.9-7.9 3.4-8.9 3.4-0.9 0-5-1.4-9-3.1-4.3-1.7-9.2-3.1-11.8-3.1-2.9-0.1-6.2 0.8-9.1 2.3-2.5 1.2-6.1 2.9-8.1 3.6-2.1 0.8-4.8 1-6.9 0.5-1.9-0.4-3.6-1.1-3.8-1.5-0.2-0.4-2.6-1.9-5.4-3.2-2.8-1.5-6.8-2.6-9-2.6-2.6 0-6.7 1.3-11.4 3.6-4.7 2.3-8.7 3.5-11.3 3.5-2.7-0.1-5.6-1.1-9-3.3-4.6-2.9-5.7-3.2-12.1-3-6.7 0.2-7.4 0-20.2-7.9l4.1-2c2.2-1.2 6.2-2.1 9-2.2 2.8-0.1 6 0.1 7.1 0.4 1.1 0.4 4 1.9 6.5 3.4 3.5 2.1 5.9 2.8 10.2 2.9 4.1 0.1 6.2-0.4 7.6-1.6 1-1 2.3-1.8 2.9-1.8 0.5 0 2.5-1.2 4.5-2.6 2.8-2.1 4.4-2.5 8-2.2 2.5 0.2 7.5 1.8 11.1 3.6 4.2 2 8.1 3.2 10.8 3.2 2.9 0 5.9-0.9 9.1-2.7 3.9-2.3 6.1-2.8 11.5-2.8 4.7 0 7.2 0.4 8.5 1.6 1.1 0.8 3.5 2.2 5.4 2.9 2.1 0.8 5.6 1.1 8.6 0.8 2.8-0.3 6.3-1.5 8-2.7 1.7-1.2 4.8-2.8 6.9-3.6 2.1-0.7 4.6-1.1 5.5-0.8zm-84.9 32.5c2.6 0 5.9 1.1 9 2.8 2.7 1.5 4.4 2.8 3.7 3-0.6 0.1-2.4-0.5-4.1-1.3-1.7-0.8-4-1.5-5.3-1.5-1.2-0.1-3.4-0.7-4.8-1.5-2.5-1.4-2.4-1.5 1.5-1.5zm39.8 0c1.4 0 5.2 1.5 8.5 3.3 4.9 2.6 7.2 3.2 12.1 3.2 5 0 7.3-0.6 12.2-3.2 3.3-1.8 7.3-3.3 9-3.3 1.7 0 3.9 0.6 5 1.3 1.1 0.8 3.6 1.8 5.6 2.2 1.9 0.4 3.9 1.1 4.5 1.5 0.5 0.4 3.6 1 6.8 1.4 5 0.5 6.7 0.2 12.8-2.4 3.9-1.7 8.2-3 9.6-3 1.4 0 3.5 0.4 4.8 0.9 1.2 0.5 3.1 1.2 4.2 1.6 1.7 0.6 1 1.1-3.5 2.7-3 1.1-7.6 2.3-10 2.8-2.5 0.5-6.6 1.4-9.1 1.9-2.5 0.6-7.8 1.1-11.8 1.1-5 0-7.4 0.5-7.7 1.3-0.2 1-3.8 1-17.8 0-9.7-0.7-20.2-1.3-23.4-1.3-3.1 0-8.6-0.6-12-1.4-3.5-0.8-9.1-1.7-12.4-2-3.3-0.4-6.2-0.9-6.5-1.1-0.3-0.3 0.2-0.5 1-0.5 0.8 0 4.7-1.5 8.5-3.5 3.9-2 8.2-3.5 9.6-3.5z"/>
		<path id="azul" fill-rule="evenodd" class="s4" d="m312.4 64.2l0.3 4.9c0.2 2.6-0.1 5.2-0.5 5.6-0.4 0.5-3 1.2-5.8 1.8-2.8 0.5-5.1 0.8-5.3 0.7-0.1-0.1 0.4-1.7 1.3-3.5 0.8-1.8 3.4-4.7 5.8-6.4zm19.8 0.1c0.7 0 2.2 0.8 3.4 1.8 1.1 1 3 3.1 4.3 4.8 1.2 1.7 2.2 3.6 2.2 4.3 0 0.8-1.6 1.2-4.6 1.2-2.7 0-4.7-0.5-4.9-1.2-0.3-0.7-0.7-3.4-1.1-6.1-0.5-3.6-0.3-4.7 0.7-4.8zm-15.3 29.4c4.7 0 10.6 0.4 13.1 0.9 2.5 0.5 4.8 1.5 5.3 2.2 0.4 0.7 0.7 1.5 0.7 1.8 0.1 0.3-0.8 1.6-1.9 3-1.7 2.2-2.7 2.5-8.3 2.6-3.5 0-7 0.4-7.6 0.8-0.7 0.3-2.6 0.1-4.1-0.6-1.5-0.6-4.4-2.8-6.5-4.7-2.1-2-3.8-4-3.8-4.4 0-0.4 1-0.9 2.3-1.1 1.2-0.2 6.1-0.4 10.8-0.5zm4.4 144.8c2 0 4.1 0.9 5.9 2.5 1.5 1.4 3.2 3.7 3.8 5.1 0.5 1.4 1 5.7 1 9.5 0 5.1-0.6 8.2-2 11.1-1.1 2.2-2.9 4.5-4 5.1-1.3 0.6-3.4 0.6-5.8 0-2.1-0.5-4.5-1.8-5.4-2.8-0.9-1-2-2.7-2.4-3.8-0.4-1.1-1.1-4.3-1.6-7-0.6-3.3-0.6-6.4 0.1-8.8 0.5-2.1 2.4-5.4 4.1-7.3 2.3-2.6 3.9-3.6 6.3-3.6zm-142.1 10.1c0.4 0 2.2 0.6 4 1.3 1.8 0.8 4.4 2.7 5.6 4.3 1.3 1.6 3 5.2 3.7 8 0.8 2.8 1.3 7.1 1.1 9.6-0.2 2.4-1.2 5.6-2.3 7-1.1 1.4-3.6 3.1-5.6 3.8-3 1-4.3 1-6.5 0-1.5-0.7-4.2-3.8-6-6.8-2.9-4.9-3.3-6.4-3.3-12.6 0.1-5.1 0.5-7.6 1.8-9.1 1-1.1 2.9-2.8 4.2-3.8 1.4-0.9 2.9-1.7 3.3-1.7zm284.4 3.1c2.1-0.1 4.3 0.8 6.1 2.4 2.6 2.2 2.7 2.9 2.7 10.8 0 6.2-0.5 9.5-2 12.8-1.1 2.5-3.2 4.9-4.8 5.7-1.5 0.8-4.1 1.4-5.7 1.4-1.8 0-4.3-1-5.8-2.3-2.1-1.8-3.1-4-4-8.8-0.8-4.2-0.9-7.1-0.3-8.2 0.6-1 1-2.5 1-3.3 0-0.8 1-2.9 2.2-4.6 1.2-1.8 3.4-3.8 4.8-4.5 1.4-0.8 4-1.4 5.8-1.4zm-408.3 43.2c1 0 3.3 0.9 5.1 1.9 1.8 1.1 4.5 3.7 6 5.8 1.5 2.2 3.2 5.1 3.8 6.7 0.6 1.5 1 4.5 1 6.8 0 3-0.5 4.4-2.2 5.5-1.4 1-3.4 1.4-5.3 1.1-1.7-0.4-4.7-2.3-6.7-4.4-2-2.1-4.4-5.2-5.3-7-0.9-1.8-1.7-5.4-1.8-8-0.1-3.4 0.4-5.2 1.7-6.5 1-1.1 2.7-1.9 3.7-1.9zm531.5 3c1 0 2.8 0.9 3.9 2 1.2 1.2 2 3.4 2 5.3 0 1.8-0.4 4.9-0.9 6.8-0.5 2-3 5.7-5.4 8.3-2.7 2.9-5.5 4.9-6.9 5-1.3 0.1-3.3 0-4.4-0.1-1.1-0.1-2.5-1-3.2-1.9-0.7-0.9-1.3-3.2-1.3-5 0-1.8 0.6-4.7 1.4-6.5 0.7-1.8 3.9-5.7 7.1-8.6 3.1-2.9 6.6-5.3 7.7-5.3zm-415.4 614.3c2.2 0.3 5.6 1.2 7.6 1.9 1.9 0.7 4.4 1.7 5.5 2.2 1.1 0.5 4.1 0.9 6.6 1 3.1 0 6-0.8 9.3-2.6 3.5-2 6.2-2.7 10.3-2.7 4.4 0 6.1 0.5 8.5 2.6 1.7 1.3 4.8 2.8 6.8 3.1 2.1 0.4 5.4 0.4 7.3 0.1 2-0.2 6.3-1.7 9.6-3.3 4-1.9 7.7-2.8 11.1-2.8 3.8 0 6.4 0.8 10.8 3.2 3.8 2.1 7.4 3.3 10.6 3.4 3.7 0.2 6.3-0.4 11.3-3 3.6-1.7 8.1-3.2 10.1-3.2 1.9 0 6.2 1.3 9.5 3 4.4 2.1 7.5 3 11.1 3 3.9-0.1 6.1-0.8 10.1-3.3 4.4-2.9 5.8-3.3 12.2-3.3 5.2 0 7.7 0.5 9.1 1.7 1 0.9 4.1 2.3 6.9 3.2 2.7 1 6.2 1.7 7.8 1.7 1.5 0 5.2-1.4 8.3-3 3.4-1.9 6.9-3 9.3-3 2.1 0 6.2 1.2 9.3 2.6 3.4 1.6 8.1 2.9 12.2 3.3 4.5 0.4 7.1 0.2 8-0.6 0.8-0.7 3.2-2.2 5.5-3.3 2.2-1.2 6-2.4 8.5-2.7 3.9-0.5 5.6 0 11.3 3.1 5.4 2.8 8 3.6 12.1 3.6 3.8 0 7.2-0.9 11.9-3.1 5.1-2.4 7.6-3 11.5-2.8 2.7 0.2 5 0.8 5.2 1.4 0.2 0.5-1.8 2.5-4.4 4.5-2.7 1.9-5.9 4.5-7.3 5.8-1.4 1.2-4.3 3.1-6.6 4.3-2.2 1.1-5.7 2-7.8 2-2.2 0-6.9-1.5-11.5-3.7-6.9-3.3-8.5-3.7-13.4-3.2-3 0.3-7.4 1.5-9.8 2.7-2.3 1.2-4.4 2.6-4.5 3.2-0.2 0.6-2.1 1.3-4.3 1.6-2.9 0.4-5.4 0-8.6-1.5-2.5-1.1-6.8-2.8-9.5-3.7-4.3-1.3-5.8-1.4-10.1-0.4-2.8 0.7-6.6 2.2-8.5 3.3-2 1.1-5.4 2-7.6 2-2.7 0.1-6.2-1-10.3-3.1-4.9-2.5-7.6-3.3-11.8-3.3-4.5 0-6.9 0.7-12.4 3.7-5.8 3.1-7.4 3.5-11.3 3-2.5-0.3-6.8-1.7-9.6-3.1-3-1.6-6.6-2.6-9-2.6-2.2 0-6.8 1-10.1 2.2-3.3 1.1-6.7 2.7-7.5 3.5-0.9 0.7-2.6 1.3-3.8 1.4-1.3 0-3.5-0.6-5.1-1.3-1.5-0.6-4.8-2.5-7.3-4-3.3-2-5.8-2.8-9.3-2.8-3.4 0-6.8 1-12.1 3.7-6.5 3.2-7.9 3.6-13.3 3.2-4.7-0.3-6.8-1-9.3-3.2-1.8-1.4-4.1-2.7-5-2.8-1 0-3.6 0-5.8 0.1-2.2 0.1-6.1 0.9-8.6 1.8-2.5 0.9-5 2-5.5 2.4-0.6 0.5-3.1 1-5.6 1.1-4.1 0.2-5.3-0.2-10.6-4.3-3.3-2.5-6.6-5-7.5-5.7-0.8-0.6-3-2.3-4.8-3.8-1.8-1.4-3.3-3-3.5-3.5-0.1-0.5 0.7-1.1 1.8-1.3 1.1-0.2 3.8 0 6 0.4zm43.6 32.1c0.4 0 3.9 1.6 7.8 3.5 4.9 2.5 8.4 3.5 11.5 3.5 3.1 0 6.3-0.9 10.1-3 3.1-1.6 6.7-3 8.1-3 1.3-0.1 5.7 1.4 9.5 3.1 5.5 2.5 8.4 3.2 13.1 3.2 4.7 0 7.5-0.7 12.6-3.1 4.3-2.1 7.5-3 9.3-2.7 1.5 0.3 5.4 1.7 8.6 3.2 4.3 2 7.2 2.7 11.8 2.7 5.1-0.1 6.7-0.6 10.6-3.3 3.6-2.6 5.5-3.2 9.5-3.2 2.8 0 5.5 0.4 5.9 0.8 0.5 0.4 3.2 1.6 6.1 2.5 2.8 1 7.2 2.1 9.7 2.4 3.9 0.6 5.4 0.2 11.6-3 6-3.2 7.6-3.6 11-3 2.2 0.3 6.9 1.9 10.3 3.5 3.6 1.7 8.1 2.9 10.4 2.9 2.2 0 5.7-0.9 7.8-2.1 2-1.2 4.2-2.5 4.8-3 0.5-0.5 3.7-1.2 7-1.5 3.3-0.4 7.1-0.2 8.4 0.2 2 0.8 0.7 1.7-10.1 7.3-6.8 3.6-14.9 7.3-17.9 8.1-5.4 1.6-5.8 1.6-12.1-0.7-5-1.9-7.7-2.3-11.3-1.8-2.7 0.3-4.8 1-4.8 1.6 0 0.5-0.7 1-1.5 1-0.9 0-3.2 0.8-5.1 1.7-3.5 1.7-4 1.7-10.4 0-3.7-1-7-2.4-7.4-3-0.4-0.8-4-1.4-9.1-1.6-7.5-0.3-8.9-0.1-15.1 2.8-3.7 1.7-7.9 3.1-9.3 3.1-1.4 0-5.4-1.5-8.8-3.2-4.7-2.4-7.6-3.3-11.3-3.2-3.8 0-6.9 0.9-12.1 3.6-5.2 2.7-7.9 3.5-10.1 3-1.7-0.3-5.7-2.3-9.1-4.5-5.6-3.6-6.4-3.9-11-3.3-2.8 0.4-6.3 1.5-7.8 2.4-2.2 1.3-3 1.4-4 0.4-0.7-0.7-2.1-1.3-3.1-1.3-0.9 0-4.8-1.4-8.5-3.1-3.8-1.7-9.2-4.3-12.1-5.8-2.9-1.4-5-3-4.7-3.4 0.3-0.4 0.8-0.7 1.2-0.7z"/>
		<path id="negro2" class="s0" d="m315 336.1c-2 1.1-5.9 3.1-8.8 4.5-3 1.5-5.4 3.2-5.4 3.9 0 0.7 4.1 3.9 9.1 7 7.5 4.8 9.5 5.7 11.7 5.1 1.5-0.4 2.8-1 2.9-1.3 0.1-0.3 2.5-1.5 5.2-2.8 2.7-1.3 5.6-2.7 6.4-3.2 0.8-0.4 1.5-1.2 1.5-1.8 0-0.6-1.8-2.3-4-3.9-2.2-1.5-6.3-4.3-9.1-6.1-2.7-1.8-5.2-3.3-5.5-3.3-0.3 0-2.1 0.9-4 1.9zm-64.4 3.6c-1.2 1.4-1.9 3.2-1.6 4 0.4 1.2-0.3 1.6-2.8 1.6-1.8 0-4 0.6-4.9 1.2-1.1 0.8-1.8 2.7-1.8 5 0 3 0.5 4.1 2.5 5.3 1.8 1.2 3.1 1.3 5 0.5 1.4-0.5 2.7-1 3-1 0.3 0 0.5 0.6 0.5 1.3 0 0.7 0.8 2 1.8 3 0.9 0.9 3.1 1.7 4.8 1.8 1.6 0 3.8-0.8 4.7-1.8 1-1 1.8-2.8 1.8-4 0-1.9 0.5-2.3 2.8-2.1 1.5 0 3.8-0.4 5-1 1.8-1 2.3-2.1 2.3-5.2 0-3.6-0.4-4.3-3.5-5.8-3.2-1.7-3.5-1.7-6 0-2.5 1.7-2.6 1.7-2.6 0 0.1-1-0.7-2.6-1.7-3.5-1-1-3-1.8-4.5-1.8-1.7 0-3.5 0.9-4.8 2.5zm-48.9 2.1c-3.9 0.8-11.1 1.9-16.1 2.4-5 0.5-11.3 1.9-14.1 3.1-2.8 1.2-5.8 2.9-6.8 3.8-1 0.9-2.1 3.1-2.4 4.7-0.2 1.7 0.1 4.8 0.8 7 0.9 2.6 2.6 4.8 4.9 6.3 2.8 1.9 4.8 2.4 10.3 2.4 3.7-0.1 11.2-0.8 16.6-1.6 5.4-0.9 14-2.4 19.1-3.5 6.9-1.5 10-2.7 11.9-4.5 1.3-1.4 2.7-4 3.1-5.8 0.3-1.8 0-5.3-0.8-7.7-0.7-2.4-2.2-5.1-3.2-6-1.3-1.2-4.1-1.8-9.1-1.9-3.9-0.1-10.3 0.5-14.2 1.3zm224.6 8c-2.4 1.3-2.9 2.1-2.8 4.8 0.1 2.1 1.1 4.1 2.9 5.8 1.6 1.5 4.6 3.2 6.9 3.8 2.2 0.6 5.1 1.2 6.5 1.2 1.4 0 4.4 0.7 6.8 1.5 2.3 0.8 8.6 1.6 13.8 1.8 8.5 0.2 9.7 0 11-1.8 0.9-1.1 1.6-3.7 1.6-5.8 0-2.7-0.5-3.9-1.7-4.3-1-0.4-2.6-1-3.6-1.6-0.9-0.5-5.7-1.8-10.5-2.8-4.9-1.1-11.8-2.4-15.4-3-3.6-0.6-7.9-1.1-9.6-1.1-1.6 0-4.3 0.7-5.9 1.5zm70.9 7.7c-0.8 0.7-1.3 1.8-1.2 2.5 0.1 0.9-0.5 1.1-1.6 0.7-1-0.3-2.7-0.6-3.8-0.5-1.1 0-2.8 1.1-3.8 2.4-1 1.2-1.8 3.2-1.8 4.3 0 1.1 0.8 2.8 1.8 3.7 1 1 3.1 1.8 4.6 1.8 2.3 0 2.8 0.5 2.7 2.8 0 1.5 0.6 3.3 1.3 4 0.7 0.7 2.5 1.3 4 1.3 1.8 0 3.2-0.8 3.8-2 0.6-1.1 0.8-3.4 0.5-5.1-0.3-1.9-1.3-3.3-2.7-3.9-1.3-0.5-2.6-0.7-3.1-0.5-0.4 0.2-0.7-0.4-0.8-1.4 0-1.4 0.3-1.5 1.5-0.5 0.9 0.7 2.6 1.2 3.9 1 1.9-0.3 2.2 0.1 1.9 2.3-0.2 1.5 0.5 3.4 1.8 4.8 1.2 1.4 3.2 2.3 5.1 2.3q3 0 4.5-2.3c0.8-1.2 1.5-3.2 1.5-4.3 0-1.1-0.7-3-1.5-4.3q-1.5-2.2-4.5-2.2c-2.4 0-3-0.5-3-2 0-1.1-0.5-3-1.1-4.1-0.7-1.4-2-2-4.8-2-2.1 0-4.4 0.6-5.2 1.2zm-372.8 90.2c-0.3 0.4-0.8 3.9-1.2 7.8-0.4 3.9-0.7 11.6-0.6 17.1 0 5.5-0.2 12.3-0.5 15.1-0.5 4.8-0.7 5.1-4.3 5.8-2 0.4-4.7 1.8-6 3-1.2 1.3-2.3 3-2.3 3.8 0 0.8 0.8 2.3 1.8 3.2 1 1 2.3 1.8 2.8 1.8 0.6-0.1 1.5 1.2 2.1 2.7 0.7 1.6 2 6.5 2.9 10.9 1 4.4 2.1 8.7 2.5 9.6 0.4 0.8 2 1.6 3.4 1.7l2.7 0.3c-0.9 20.7-1.3 28-1.5 29.7-0.2 1.6-0.9 7.8-1.5 13.6-0.5 5.8-1.5 17.6-2.1 26.2-0.5 8.5-1.5 21.6-2 28.9-0.5 7.3-1.2 13.7-1.4 14.1-0.2 0.4-0.8 5.8-1.3 12.1l-0.8 11.3c100.7 0.2 131.5 0.1 133.4 0 2-0.1 4.2-0.9 4.9-1.8 1.1-1.4 1.3-9.5 0.8-45-0.4-23.8-0.7-53.1-0.9-65.2-0.2-18.6 0-22 1.3-23.1 0.9-0.7 3.1-6.1 5-11.9 2.1-6.7 4.2-11.3 5.7-12.6 1.3-1.1 2.3-3.2 2.3-4.8 0-1.5-0.9-3.6-2-4.7-1.1-1.1-2.9-2-4-2-1.9 0-2-0.8-2.1-12.9-0.1-7-0.2-17-0.3-22.1-0.1-8-0.4-9.5-2.1-10.8-1.5-1.1-5.1-1.5-14.6-1.6-6.9-0.1-13.5-0.1-14.6 0-1.1 0.1-2.1 0.3-2.3 0.4-0.1 0.1-0.5 7.4-0.8 16.2-0.4 8.9-0.7 16.7-0.8 17.4-0.1 0.9-2.3 1.3-7.4 1.3h-7.3c0.4-10.9 0.1-14.1-0.3-14.1-0.4 0-0.9-4.9-1-10.8l-0.2-10.9h-36.3c-1.1 6.3-1.4 14.3-1.5 21.9v13.9h-14.6c-1.1-14.5-1.2-22.1-1-26.2 0.3-5.1 0-8-0.8-8.9-0.9-0.9-5.2-1.2-16-1.2-8.2 0-15 0.4-15.2 0.8zm273.6 2.2l-8 0.6c-1 27.3-1.4 37.3-1.4 40l-0.1 4.8c-8.8 0-10.7 0.5-12.1 2-1.1 1.1-2 2.4-2 3 0 0.5 0.4 1.9 1 3 0.5 1.1 2.3 2.5 4 3 2.6 0.9 3.1 1.7 3.6 5.3 0.3 2.4 1.3 7.4 2.2 11.2 1.4 5.6 2.2 7.2 4.3 8.1 1.3 0.6 2.8 1.5 3.1 2.1 0.4 0.5 0.5 4.2 0.2 8.1-0.2 3.8-1.1 13.3-1.8 21.1-0.8 7.8-1.7 17.5-2.1 21.6-0.3 4.2-0.7 11.4-0.9 16.2-0.1 4.7-0.8 15.3-1.5 23.6-0.6 8.3-1.6 17.6-2.1 20.7-0.5 3-1 9-1.2 13.2-0.1 4.3 0.1 8.1 0.6 8.6 0.4 0.4 31.8 0.9 69.7 1.1 60.5 0.2 68.9 0 69.4-1.3 0.2-0.8 0.1-2.1-0.2-2.8-0.4-0.7-0.8-6.4-0.9-12.8-0.1-6.4-0.6-35.3-1.1-64.2-0.6-35-0.5-52.6 0.1-52.6 0.6 0 2.2-3.7 3.7-8.3 1.5-4.6 3-9.5 3.3-11.1 0.3-1.5 2-4 3.6-5.5 1.7-1.5 3.3-4 3.5-5.5 0.3-1.6 0.1-3.7-0.5-4.8-0.5-1.1-2.2-2.4-3.7-2.9l-2.8-0.9c-1.2-32.6-1.9-42.4-2.3-42.8-0.4-0.5-7.8-1.1-16.5-1.5-15.2-0.7-15.9-0.7-16.6 1.3-0.4 1.1-0.7 9.2-0.8 18.1l-0.1 16.1h-15.6c-0.2-4.7-0.3-8.8-0.3-12.1-0.1-3.3-0.4-6.5-0.8-7-0.3-0.6-0.6-4-0.6-7.6 0-3.6-0.3-7.1-0.6-7.8-0.5-0.9-5.2-1.3-18.3-1.3h-17.6c-0.2 12.1-0.2 17.9-0.1 20.7 0.2 2.8 0 7.2-0.3 9.8l-0.6 4.8-13.6-0.5-2-34.8c-8.6 0-12-0.1-13.1-0.3-1.1-0.2-5.7-0.1-10.1 0.3zm-85.7 216.3c-2.7 2.1-6.4 5.7-8.2 8.1-3.2 4.2-3.2 4.2-8.5 3.5-2.9-0.3-7.4-0.3-9.9 0.1-3.5 0.5-5.5 1.6-8.8 4.9-2.4 2.3-5.4 6.6-6.8 9.5-1.7 3.7-2.5 7.1-2.5 11.1 0 3.2 0.6 7.4 1.4 9.3 0.8 1.9 2.2 4.1 3.1 4.8 1.3 1 1.9 1 3.1 0 0.9-0.7 1.6-2.1 1.5-3 0-1 1.6-2.7 3.5-3.8 2.1-1.2 4.6-1.8 6.1-1.5 1.5 0.3 3.1 1.7 4 3.5 1.2 2.4 1.5 7.7 1.5 26.4v23.4c-15.2 0.9-25.9 0.9-33.7 0.6l-14-0.6c-3.9-7-3.9-7-2-10.4 1-1.9 2.9-3.8 4.1-4.3 1.3-0.5 2.3-1.5 2.3-2.4 0-0.8-1.9-2.7-4.2-4.3-3.8-2.4-5.1-2.7-12.8-2.7-6.9 0-9.4 0.4-12.2 2.1-1.9 1.1-4.9 3.8-6.6 6-1.8 2.3-3.6 6.3-4.3 9.5-1 4.5-1 6.1 0 8.5 1.3 2.7 1.2 3-1.7 5-1.6 1.2-4.9 4-7.3 6.4-2.3 2.3-4.9 5.6-5.8 7.3-1.2 2.4-1.2 3.6-0.3 6.3 0.7 1.8 1.8 3.8 2.5 4.5 0.8 0.7 1.4 1.7 1.4 2.3 0 0.5 3.3 3.3 7.3 6.2 4 2.9 7.4 5.4 7.5 5.5 0.2 0.2-0.4 1.4-1.2 2.6-0.9 1.3-1.6 4-1.6 6.1 0 2 0.5 5 1.1 6.5 0.6 1.5 2.8 4.5 4.8 6.6 2 2 4.3 3.7 5 3.7 0.7 0 1.4 0.6 1.6 1.3 0.2 0.8 3 1.4 8.3 1.6 6.6 0.3 8.7 0 12.2-1.8 3.2-1.5 4.3-2.7 4.3-4.4-0.1-1.2-1.5-3.8-3.2-5.7-2.3-2.8-2.9-4.1-2.4-6.1 0.4-1.4 1.5-3.3 2.4-4.3 1.5-1.6 3.9-1.8 25.1-1.8l23.4 0.1c-0.1 32.2-0.4 36.6-1.8 40.1-1 2.3-2.9 4.9-4.2 5.7-1.4 0.8-2.8 1.5-3.1 1.5-0.2 0-1.4-0.8-2.6-1.7-1.2-1-2.7-3.1-3.3-4.6-0.6-1.5-1.8-2.8-2.6-2.8-0.8 0-2.6 1.1-3.9 2.3-1.3 1.2-3.2 3.8-4.1 5.8-1.5 2.8-1.7 4.8-1.1 10.1 0.4 3.9 1.7 8.6 3.4 11.9 1.6 3.1 4.1 6.3 6.2 7.6 1.9 1.3 5.8 2.9 8.5 3.6 2.8 0.6 7.4 1 10.2 0.8l5-0.3c10.9 11.5 14 13.9 16.1 14.2 1.6 0.3 4.1 0.1 5.5-0.4 1.4-0.6 3.9-2.3 5.6-3.9 1.6-1.6 4.2-3.7 5.6-4.9 1.4-1.1 3-2.9 3.6-4 1-1.7 2.3-2 8-2.2 3.8 0 8.7-0.9 10.9-1.8 2.2-0.9 5.5-3.1 7.4-4.9 1.8-1.7 4.2-5.2 5.3-7.7 1.1-2.5 2-6.3 2-8.5-0.1-2.3-0.8-6.3-1.7-9.1-0.9-2.8-2.4-5.9-3.3-6.8-0.9-1-2-1.8-2.4-1.8-0.4 0-1.6 1.8-2.8 4.1-1.1 2.2-3.2 4.9-4.7 6-1.6 1.2-3.3 2.1-3.8 2.1-0.6 0-2-1-3.3-2.1-2.2-2-2.2-2.3-2-24.1 0.1-12.1 0.6-22.4 1.1-22.9 0.4-0.4 11.9-0.4 25.5 0.2 24.6 1 24.7 1 26.6 3.5 1.1 1.4 2 3.7 2 5 0 1.4-0.6 3.4-1.3 4.4-0.7 1-2.9 2.4-4.8 3-2.5 0.9-3.6 1.9-3.8 3.5-0.2 1.6 0.7 2.8 3 4.2 1.8 1.1 5.6 2.5 8.3 3.2 4.1 1 6.2 0.9 11.1-0.2 3.7-0.9 7.9-2.8 10.7-5 2.6-1.9 6-5.5 7.6-8 2.3-3.7 2.9-5.8 3-11.1 0.1-4.5 0.6-6.7 1.5-7 0.8-0.3 3.2-2.5 5.4-4.9 2.2-2.4 4.8-5.8 5.7-7.6 1-1.7 1.8-4.3 1.9-5.7 0-1.3-0.7-3.2-1.6-4-0.8-0.8-1.5-2.1-1.5-2.8 0-0.7-2.5-3.7-5.5-6.8-3.1-3-6-5.5-6.6-5.5-0.6 0-0.7-1.8-0.3-4.8 0.5-3.4 0.2-6.2-1.1-9.8-1-2.8-3-6.3-4.5-7.9-1.4-1.5-4.6-3.9-7.1-5.3-3.9-2.2-5.8-2.5-12.4-2.5-4.3 0.1-8.6 0.4-9.5 0.8-1 0.4-2.6 1.4-3.6 2.3-0.9 0.8-1.7 2.3-1.7 3.3 0 1 1 2 2.2 2.4 1.3 0.3 3.3 1.6 4.6 2.7q2.3 2.2 2.3 5.7c0 2.1-0.7 4.3-1.8 5.3-1.4 1.3-3.6 1.7-9.8 1.7-4.5 0.1-16.5-0.4-26.7-1-10.3-0.6-18.8-1.2-18.9-1.3-0.2-0.1-0.3-9.3-0.3-20.5 0.1-15.4 0.4-21.3 1.5-24.2 0.8-2.1 2.7-4.6 4.3-5.6 2.3-1.6 3.3-1.7 5.1-0.8 1.2 0.6 2.6 2.5 3 4.3 0.4 1.7 1.4 3.4 2.3 3.6 0.8 0.3 2.5 0.2 3.7-0.1 1.3-0.4 3.5-2.7 5-5.4 2.4-4.1 2.8-5.9 2.8-12.4-0.1-5.3-0.6-8.5-2-11-1-2-3.2-4.8-4.9-6.4-1.7-1.5-5.2-3.7-7.7-4.8-2.4-1.1-6.3-2-8.6-1.9-2.2 0-4.5 0.5-5.2 1.2-0.8 1-1.6 0.4-3.5-2.7-1.4-2.2-4.1-5.5-6.2-7.3-2-1.8-5.8-4.2-8.4-5.3-2.7-1.2-5.6-2.1-6.5-2.1-0.9 0.1-3.8 1.8-6.5 3.9z"/>
		<path id="amarelo2" fill-rule="evenodd" class="s2" d="m254.6 341.2c1.1 0 2.2 0.6 2.4 1.3 0.3 0.7-0.1 1.8-0.7 2.5-0.6 0.7-1.7 1.3-2.5 1.3-0.7 0-1.3-1.2-1.3-2.6 0-1.8 0.6-2.5 2.1-2.5zm-42.6 3.2c3.5-0.1 7.2 0.3 8.3 0.8 1.1 0.6 2.6 2.8 3.2 4.8 1 3.2 0.9 4.2-0.5 6.6-0.9 1.5-3.1 3.4-4.9 4.1-1.8 0.8-5.4 2-7.8 2.7-2.5 0.6-8.2 1.5-12.6 2-4.5 0.4-11.9 1.2-16.6 1.6-8.4 0.8-8.6 0.7-11.4-1.9-2.1-2.1-2.7-3.7-2.8-7q0-4.3 1.8-5.9c1-0.9 4.8-2.4 8.6-3.3 3.7-0.9 8.7-1.7 11.1-1.7 2.3-0.1 7.2-0.7 10.8-1.4 3.6-0.7 9.4-1.3 12.8-1.4zm55 1.1c0.6 0.2 1.1 1.5 1.1 2.8 0 1.3-0.5 2.5-1.2 2.7-0.7 0.1-1.5-0.5-1.9-1.5-0.3-0.9-0.3-2.3 0.1-3.1 0.4-0.7 1.2-1.1 1.9-0.9zm-20.8 4.5c0.7 1 1 2.1 0.8 2.5-0.3 0.5-1.2 0.8-2 0.8-0.8 0-1.6-0.8-1.7-1.8-0.1-1.1 0.3-2.2 0.8-2.6 0.5-0.4 1.4 0.1 2.1 1.1zm10.8 3.6c0.6 0.2 1.2 1.3 1.3 2.5 0.2 1.3-0.4 2.6-1.3 3-1 0.5-1.9 0.2-2.4-0.8-0.5-0.8-0.4-2.2 0.3-3.2 0.6-1 1.6-1.7 2.1-1.5zm244.3 5.7c0.5 0 1.3 0.7 1.7 1.6 0.4 0.9 0.2 2.1-0.6 2.8-1 0.9-1.5 0.9-2.2-0.3-0.4-0.9-0.6-2.1-0.3-2.8 0.2-0.7 0.9-1.3 1.4-1.3zm9.3 9.4c0.7 0.2 1.3 1.3 1.4 2.5 0.2 1.4-0.3 2.2-1.2 2.2-0.9 0-1.8-0.6-2-1.5-0.3-0.8-0.3-2 0.1-2.5 0.3-0.6 1.1-0.9 1.7-0.7zm-373 83.9c5.8 0.4 10.1 1.1 10.7 1.8 0.6 0.8 1 7.6 0.9 16.3-0.1 9.9 0.3 15.4 1 16.3 0.8 0.9 4.2 1.3 11.5 1.2 5.7 0 11.2-0.4 12.3-1 1.9-0.9 2-2 2-17.6 0-9.2 0.4-16.8 0.8-17 0.4-0.3 5.7-0.2 11.8 0.1 7.3 0.3 11.8 1 13.1 1.9 1.8 1.4 2 2.9 2.4 17.3 0.1 8.7 0.5 16 0.8 16.3 0.3 0.3 5.5 0.5 11.6 0.5 8.5 0 11.3-0.3 12.4-1.5 1.1-1.1 1.5-5.6 2-33.7l7-0.3c3.9-0.2 8.8 0.1 10.9 0.7 2.7 0.8 4 1.8 4.6 3.9 0.5 1.5 0.8 4.7 0.8 7.1-0.1 2.4 0.2 4.6 0.6 4.8 0.4 0.2 0.8 3.8 0.8 7.9 0 5.2-0.6 8.7-1.8 11.1-1.1 2.3-2.7 3.8-4.3 4.1-1.4 0.3-29.6 0.7-122.8 1.4l-0.2-20.4c-0.1-11.3 0.2-20.8 0.7-21.1 0.4-0.4 5.1-0.4 10.4-0.1zm265.3 2.3c7.1 0 8.5 0.3 10.2 2.2 1.8 1.9 2 3.6 2.3 32.6h25.9l0.2-15.1c0.2-8.3 0.6-16.2 1.5-20.1l11.2 0.7c8.8 0.6 11.6 1.2 12.8 2.6 1.3 1.4 1.7 4.8 1.8 16.8 0.2 8.3 0.6 15.4 1 15.6 0.4 0.3 6.1 0.4 24.9-0.1l0.9-9.8c0.5-5.3 0.8-13.3 0.5-25.8l9.3 0.8c5.2 0.5 10.4 1.5 11.7 2.3 1.2 0.8 2.6 2.7 3 4.2 0.4 1.5 0.7 7.3 0.7 12.8 0 5.6-0.3 11.8-0.7 13.9-0.5 2.4-1.6 4.1-3 4.9-1.6 0.7-13.6 1.1-37.5 1.2-19.4 0-47-0.2-87.3-0.9l0.6-7c0.4-3.9 0.7-11.6 0.7-17.1 0-5.6 0.2-11.1 0.5-12.4 0.5-2.1 1.1-2.2 8.8-2.3zm-237.9 43c26.3 0.2 59.1 0.6 72.9 0.9 13.9 0.3 25.7 1 26.2 1.5 0.6 0.5 0.6 1.3 0.2 1.7-0.5 0.5-12 0.7-25.7 0.5-13.6-0.2-25.8-0.5-27.1-0.8-1.2-0.2-2.3-0.1-2.3 0.3 0 0.5-2.6 0.7-5.7 0.5-3.2-0.1-24.6-0.4-47.6-0.5-38.9-0.2-41.8-0.3-42-2-0.2-1 0.4-1.9 1.5-2 0.9-0.2 23.3-0.2 49.6-0.1zm301.5 1.1c32.6 0.2 60.4 0.5 61.6 0.8 1.3 0.3 2.3 1.2 2.3 2 0 0.8-1 1.8-2.3 2-1.2 0.3-28.5 0.4-60.6 0.2-32.1-0.2-59-0.7-59.7-1-0.7-0.4-1.2-0.2-1.2 0.3 0 0.6-3.6 0.8-9.8 0.4-5.4-0.3-11.4-0.7-13.4-0.9-1.9-0.2-3.8-0.4-4.3-0.4-0.4-0.1-0.6-0.7-0.4-1.4 0.3-0.9 4.4-1.4 14.4-1.7 7.7-0.3 40.7-0.4 73.4-0.3zm-345 7.3c0.7 0 2.3 0.6 3.7 1.3 1.5 0.8 2.6 2.4 3 4.3 0.3 1.6 0.5 5.4 0.5 8.3 0 3.7-0.4 5.5-1.5 6-0.8 0.4-1.7 0.5-2 0.3-0.3-0.3-0.9-2.8-1.4-5.6-0.5-2.7-1.3-6.1-1.6-7.5-0.4-1.4-1-3.6-1.3-4.8-0.3-1.4-0.1-2.3 0.6-2.3zm44 0.1c0.7-0.1 1 3.1 0.8 9.2-0.2 6.2 0.2 9.9 1 11 0.8 1.1 3.4 1.9 7.7 2.3 4.8 0.5 6.9 0.3 7.7-0.6 0.6-0.7 1.4-4.6 1.7-8.6q0.7-7.3 2.5-9.2c0.9-1 3.3-2.4 5.2-3 2-0.7 4-1.2 4.4-1.2 0.5 0 1 5.1 1.2 22.7l6.5 0.3c5.4 0.2 6.8-0.1 7.8-1.5 0.7-1 1.3-4.3 1.4-7.4 0-3.3 0.7-6.7 1.8-8.5 1-1.7 2.9-3.6 4.2-4.3 1.3-0.6 2.8-0.9 3.2-0.5 0.4 0.4 0.8 4.4 0.9 8.8 0.1 4.4-0.2 8.6-0.5 9.3-0.4 0.7 0 1.9 0.8 2.8 1 0.9 3.6 1.5 7.3 1.5 3.6 0.1 6.3-0.4 7-1.2 0.6-0.7 1.3-4.1 1.6-7.4 0.3-3.9 1.2-7.2 2.6-9.3 1.2-1.8 3-3.3 3.9-3.3 1.6 0 1.8 1.3 2 10.4 0.1 5.6 0.7 31.8 1.3 58.1 0.6 26.3 1.2 55.3 1.5 80.9l-3.5 2.1c-3.4 2-4.8 2.1-54.4 2.1-27.9 0-55.1-0.3-69.9-1l0.3-9.1c0.1-5 0.9-15.6 1.7-23.7 0.9-8 1.5-17.7 1.5-21.6 0-3.9 0.7-15 1.5-24.7 0.9-9.7 2.2-23.5 3-30.7 0.7-7.2 1.4-17.6 1.5-23.1 0-5.6 0.4-11.5 0.7-13.1 0.3-1.7 1.5-4.1 2.7-5.3 1.2-1.3 2.5-2.3 2.9-2.3 0.4 0 0.8 4.6 0.8 10.1 0 7 0.4 10.3 1.2 10.8 0.7 0.3 3.8 0.5 6.8 0.4 3.1-0.1 6.4-0.4 7.3-0.7 1.5-0.4 1.8-1.6 1.8-7 0-4.4 0.6-7.5 1.8-9.5 0.9-1.7 2.6-3.5 3.7-4 1.1-0.5 2.5-1 3.1-1zm-12.6-0.1v7.1c0 5.1-0.5 7.4-1.6 8.5-0.9 0.9-2.9 1.5-7.5 1.5l-0.2-7.8c0-4.4 0.3-8.2 0.7-8.6 0.5-0.4 2.6-0.7 8.6-0.7zm21.4 0.5c1.2 0.2 3 0.3 4 0.4 1.5 0.1 1.7 0.9 1.3 5.4-0.2 2.9-0.4 6.5-0.5 8.1 0 2.2-0.6 2.9-2.8 3.3-1.5 0.3-3.6 0.3-4.6 0-1.4-0.5-1.7-1.9-1.9-7.9-0.1-4.8 0.2-7.7 1-8.4 0.7-0.6 2.3-1 3.5-0.9zm34.4 1l0.4 7.1c0.2 6.3 0 7.2-2.1 8.8-1.2 1-3.3 1.8-4.5 1.8-2.2 0-2.3-0.5-2.5-8.4-0.1-4.6 0.3-8.7 0.7-9.1 0.5-0.4 2.5-0.6 8-0.2zm17.9-0.5h7.8l-0.5 7.3c-0.4 4.9-1.2 7.9-2.3 9.1-0.9 1-2.3 1.8-3 1.8-0.7 0-1.3-1.1-1.3-2.3 0-1.3-0.2-5.3-0.4-9.1zm30.7 1c0.7 0 1.3 0.6 1.3 1.3 0 0.7-1 4.2-2.1 7.8-1.1 3.6-2.5 7.2-3 8q-0.9 1.6-0.9-4.7c0-4.1 0.6-7.4 1.7-9.3 0.9-1.7 2.2-3.1 3-3.1zm131.6 0c0.9 0 2.5 1.3 3.7 2.8 1.8 2.4 2 3.6 1.4 8.8-0.3 3.3-0.8 6.3-1.1 6.6-0.2 0.2-0.9-0.1-1.6-0.7-0.7-0.6-1.7-3.1-2.1-5.5-0.4-2.4-1-6.1-1.4-8.2-0.5-3.1-0.3-3.8 1.1-3.8zm15.8 0c1.6 0 1.7 0.9 0.6 20.7l3.9 0.7c2.2 0.4 5.8 0.8 8 0.8 2.3 0 4.6-0.6 5.3-1.3 0.7-0.7 1.2-3.9 1.2-7.3 0-3.7 0.7-7.3 1.8-9.5 1.3-2.6 2.5-3.6 7.3-4.1v10.6c0 5.8 0.3 10.8 0.7 11 0.4 0.3 3.9 0.6 7.6 0.8 5.3 0.2 7.1-0.1 7.7-1.2 0.5-0.9 1.2-4.4 1.5-7.8 0.3-3.5 1.2-7.6 2-9.1 0.7-1.5 2.1-3.1 3-3.5 0.9-0.4 2.8-0.8 6.7-0.8v10.1c0 5.5 0.2 10.7 0.5 11.6 0.3 1 1.8 1.5 4.2 1.5 2.1 0 5.4-0.4 7.3-1 2.4-0.6 3.8-1.7 4.3-3.2 0.4-1.3 0.8-4.5 0.8-7.1 0-2.7 0.6-6.1 1.3-7.6 0.8-1.5 2.2-3.1 3.1-3.5 0.9-0.4 2.3-0.8 3.1-0.8 1.3 0 1.6 2.1 2 22.7l6.1 0.3c4.7 0.2 6.4-0.2 7.8-1.6 1.2-1.1 1.8-3.2 1.8-5.8-0.1-2.2 0.4-5.6 1.1-7.5 0.6-1.9 2.1-4.6 3.3-5.8 1.1-1.3 2.4-2.3 2.8-2.3 0.5 0 0.8 5.1 0.8 11.4 0 6.2 0.3 11.7 0.7 12.1 0.5 0.5 0.8 4.6 0.9 9.1 0 4.5 0.4 25.7 0.9 47 0.5 21.3 0.9 46 1 54.9 0 13.1-0.3 16.6-1.5 17.9-1.4 1.6-6.3 1.8-126.8 1.7l0.4-6.8c0.3-3.8 1-13.4 1.5-21.4 0.6-8.1 1.3-15.3 1.6-16.1 0.3-0.9 1-9.9 1.5-20.2 0.5-10.2 1.6-23.6 2.4-29.7 0.8-6.1 1.8-17.6 2.1-25.6 0.4-8.1 1.2-18.2 1.8-22.6 0.7-4.4 1.8-8.8 2.6-9.8 0.8-1 2.3-1.9 3.3-1.9zm13.6 0l-0.4 7.8c-0.2 4.3-0.7 8.1-1 8.5-0.4 0.3-2.2 0.9-7.3 1.9v-4.3c0-2.4 0.3-6.5 0.6-9.1 0.7-4.7 0.7-4.8 8.1-4.8zm22.6 0c3 0 4 0.5 4.2 1.8 0.2 1 0.1 4.3-0.2 7.5-0.4 4.1-1.1 6.2-2.6 7.3-1.1 0.8-3 1.5-4.2 1.5-2.2 0.1-2.3-0.3-2.2-6.7 0.1-3.8 0.3-7.9 0.6-9.1 0.4-1.9 1.1-2.3 4.4-2.3zm25.1 0h7.7l-0.4 7.8c-0.2 4.3-0.9 8.4-1.6 9.2-0.6 0.7-2.3 1.2-3.7 1-1.6-0.2-2.5-1-2.5-2.1 0-1 0.1-4.9 0.2-8.8zm25.3-0.1l8.5 0.6 0.2 6.5c0.2 4.6-0.2 7.3-1.2 8.8-1.1 1.6-2.4 2.2-7.1 1.8zm30.8 2.1c0.8 0 1.4 0.7 1.4 1.5 0 0.9-1.1 4.8-2.5 8.9-1.4 4-2.5 7.4-2.5 7.5 0 0.1-0.5 0.3-1.1 0.3-0.5 0-1-2.2-1-4.8 0-2.7 0.6-6.4 1.4-8.3 0.8-2 1.8-3.9 2.2-4.3 0.5-0.4 1.4-0.8 2.1-0.8zm-30.8-141.9c-1.1 0-2-0.9-2-2 0-1.1 0.9-2 2-2 1.1 0 2 0.9 2 2 0 1.1-0.9 2-2 2zm8 9c-1.1 0-2-0.9-2-2 0-1.1 0.9-2 2-2 1.1 0 2 0.9 2 2 0 1.1-0.9 2-2 2z"/>
		<path id="vermello2" class="s1" d="m311.9 341.3c-3.2 1.8-5.1 3.4-4.5 3.9 0.6 0.4 3.3 2 6 3.6l5.1 2.8 12.1-5.5c-3.9-3-6.8-4.8-8.8-5.9-2.1-1.1-3.9-2-4.1-2-0.1 0-2.7 1.4-5.8 3.1zm-1.1 331.4c-2.8 2.9-6.1 7-7.3 9-1.8 3.2-2.5 3.7-4.6 3.2-1.4-0.4-3.2-1.2-3.9-1.8-0.9-0.6-3.4-0.9-6.1-0.6-2.6 0.3-6.4 1.7-8.4 3.1-2.4 1.5-4.7 4.3-6.3 7.5-1.3 2.7-2.7 6.8-3 9-0.4 2.3-0.2 5.4 0.4 7.1l1.2 3c5.2-6.4 5.8-6.6 10.8-6.3 4.9 0.2 5.8 0.7 8.4 3.8l2.9 3.5 0.4 54.4c-43.4-0.5-49.6-0.9-52.3-2-2-0.9-4.5-3-5.6-4.8-1.5-2.5-1.9-4.2-1.4-7.3 0.4-2.2 1.6-5 2.8-6.2 1.2-1.1 2.8-2.3 3.7-2.6 1.1-0.3 0.8-0.8-1-1.8-1.4-0.7-5.9-1.3-10.1-1.3-5.9 0-8.3 0.4-11.1 2-1.9 1.2-4.4 3.4-5.4 5-1.1 1.6-2.5 4.9-3.2 7.4-1 3.7-0.9 5.2 0.2 8.1 0.8 1.9 1.2 4.5 0.9 5.7-0.3 1.4-1.5 2.5-3 2.8-1.4 0.3-4.8 2.8-7.6 5.5-3.8 3.9-5 5.8-5 8.1 0 1.7 0.6 4.4 1.5 6 0.8 1.7 2.3 3.9 3.3 4.9 0.9 1 4.8 3.2 8.5 5 6.2 2.9 6.7 3.4 5.4 5-0.7 1-1.9 3.3-2.6 5.3-0.7 1.9-1 5.1-0.7 7 0.4 2.2 2 5 4.4 7.4 2.1 2.2 5.3 4.5 7.1 5.3 1.8 0.8 4.6 1.4 6.3 1.4 1.7 0 5.1-0.4 7.5-1 2.5-0.5 4.6-1.2 4.6-1.5 0-0.3-1.4-1.7-3.1-3.3-2.4-2-3.3-3.9-3.7-7.3-0.5-4-0.2-4.9 2.6-8.3l3.2-3.8c42.1 0 54.5 0.4 54.6 0.8 0.2 0.4 0 10-0.5 21.4-0.7 15.3-1.3 21.8-2.6 25.1-1.1 2.8-2.8 5.2-4.7 6.3-1.7 1-4.9 1.8-7.1 1.8-3.3-0.1-4.5-0.7-7-3.5l-3-3.5c-2 3.9-2.6 7.3-2.6 10 0 2.8 0.9 7.5 2 10.4 1.1 2.9 3.2 6.4 4.6 7.8 2.4 2.2 3.5 2.5 10.9 2.5 4.5 0 9.6-0.4 11.2-0.9 2.8-0.8 3.1-0.6 3.8 1.8 0.4 1.4 1.2 2.6 1.8 2.6 0.5 0 1 0.6 1 1.3 0 0.7 2.1 3.4 4.8 6 2.6 2.7 5.7 4.9 6.8 5 1.1 0.1 3.2-0.6 4.7-1.5 1.6-1 2.8-2.1 2.8-2.5 0-0.4 1.6-2.6 3.5-4.8 2-2.2 4.1-5.3 4.8-6.8 0.9-2 1.7-2.6 2.8-2.2 0.8 0.4 3.1 1.2 5 1.7 2.8 0.8 4.7 0.6 9.1-0.9 3-1 6.5-2.5 7.6-3.4 1.2-0.8 3.2-3.5 4.4-6 1.3-2.6 2.3-6.5 2.3-9.1 0.1-2.4-0.2-5.5-0.6-6.7-0.3-1.3-1.2-2.2-1.9-2-0.7 0.2-1.8 1.6-2.5 3-0.7 1.5-2.6 3.2-4.3 3.7-1.6 0.6-4.3 0.8-5.8 0.5-1.5-0.3-4.1-1.6-5.8-3-1.7-1.3-3.4-4-4-6.1-0.6-2.1-0.7-7.1-0.3-11.4 0.4-4.2 0.7-14.1 0.7-22l0.1-14.3c6.6-0.5 18.8-0.2 31.2 0.2 12.5 0.5 24.4 1.3 26.5 1.8 2.3 0.6 4.7 2.2 6.3 4.2 2.1 2.7 2.5 4 2 7.1-0.3 2.1-1.8 5.2-3.3 6.9-1.5 1.8-3.9 3.6-5.3 4.1-1.4 0.5-2.3 1.1-2 1.3 0.3 0.3 3 1.2 6 2 4.5 1.1 6.6 1.2 11 0.2 4.2-0.9 6.7-2.3 10.6-5.8 2.8-2.5 5.7-6.1 6.5-8 1.2-2.8 1.2-4.4 0.4-8-0.7-2.5-1.4-5.3-1.7-6.3-0.4-1.3 0.3-2.1 2.7-3.2 1.8-0.8 5.2-2.8 7.5-4.5 2.4-1.7 5-4.6 5.9-6.4 1.4-2.9 1.4-3.6-0.1-6.8-0.9-1.9-3-4.5-4.8-5.8-1.8-1.2-4.8-2.8-6.8-3.5-1.9-0.7-4.4-1.8-5.5-2.4-2-1.1-2-1.2-0.3-5.3 1-2.3 1.8-5.9 1.8-8.2 0-2.2-0.8-5.6-1.8-7.6-1-2.2-3.8-5-7-7-4-2.7-6.4-3.5-9.8-3.5-2.5 0-5.8 0.5-7.3 1.1l-2.8 1c4.2 3.5 5.9 5.5 6.5 6.7 0.6 1.3 1.1 3.4 1.1 4.8 0 1.4-0.8 4.2-1.8 6.2-1 2-2.8 4.1-4 4.5-1.3 0.5-15.9 0.6-32.5 0.1l-30.2-0.7c0.8-26.9 0.7-34.8 0.3-34.8-0.5 0-1.5 0.8-2.4 1.8-0.9 1-2.3 3.1-3.1 4.8-0.9 2-2.6 3.4-4.9 4.2-1.9 0.6-3.6 1.6-3.7 2.2-0.2 0.6-2.1 1.1-4.3 1.1-2.2 0-4.3-0.4-4.5-1-0.3-0.5-2.6-1.9-5.1-3-2.5-1.1-4.5-2.7-4.5-3.5 0-0.8-0.8-2.1-1.8-2.8-1-0.7-2.6-2.5-3.5-4-1-1.5-1.5-3.7-1.3-4.8 0.3-1.1 1.7-2.7 3.1-3.5 2-1.2 2.5-2.3 2.5-5.8 0-2.3 0.3-4.9 0.8-5.6 0.4-0.9 1.9-1.2 4.2-0.9 2.6 0.3 4.4-0.2 6.8-2 2.6-1.8 3.7-2.1 5.3-1.3 1.1 0.5 2.2 1.9 2.5 3 0.4 1.7 1.2 2 5.3 1.8l4.8-0.3c0 9.5 0.5 12.6 1.2 13.4 0.7 0.7 1.5 1.1 1.8 1 0.3-0.2 0.8-2.3 1.2-4.8 0.3-2.5 1.4-6.1 2.4-8.1 1.1-1.9 2.5-4.2 3.2-5.1 0.7-0.9 2.2-2.1 3.3-2.7 1.1-0.6 3.1-0.8 4.5-0.5 1.4 0.3 3.6 1.3 4.9 2.2 1.3 0.9 3 2.7 3.7 4.1l1.3 2.5c3.3-7.4 4.2-11.3 4.2-13.6 0-2.2-0.8-5.9-1.9-8.3-1-2.3-3.6-5.6-5.8-7.3-3.4-2.6-4.7-3-10.6-3-4.1 0-7.3 0.5-8 1.3-0.7 0.7-1.9 1.2-2.6 1.2-0.7 0-1.3-0.8-1.4-1.7 0-1-1.3-3.8-2.8-6.3-1.5-2.6-4.9-6-7.7-7.9-2.8-1.8-5.8-3.3-6.8-3.2-0.9 0-4 2.4-6.9 5.3z"/>
		<path id="negro3" class="s0" d="m194.1 349c-5.8 0.8-12.9 2.1-15.8 2.9-3.7 1-5.6 2.1-6.4 3.7-0.7 1.6-0.7 3.1 0 5 0.6 1.5 2.4 3.3 3.9 4 2.2 0.9 4.8 0.9 12.3-0.1 5.3-0.7 11.8-1.7 14.6-2.1 2.8-0.5 6.9-1.4 9.1-2 2.2-0.7 4.6-1.8 5.3-2.4 0.7-0.7 1.3-2.5 1.3-4.2 0-1.7-0.8-3.8-1.8-4.8-1.3-1.2-3.3-1.7-6.8-1.6-2.8 0.1-9.8 0.8-15.7 1.6zm-41.1 197.6c-1.8 1.7-3.6 4.5-4.1 6.3-0.6 1.8-1.2 8.2-1.4 14.3-0.2 6.1-0.2 11.7 0 12.4 0.2 0.9 3.4 1.2 11.4 1.2h11.1c1-10.5 1-17.6 0.7-22.6-0.6-8.5-0.8-9.3-3.7-11.9-2.2-2-4.1-2.7-7-2.7-3 0-4.7 0.7-7 3zm64.6-2.1c-1.2 0.5-2.8 1.7-3.6 2.7-0.8 1.1-1.9 4-2.5 6.4-0.6 2.5-1.2 9.1-1.4 14.6-0.1 5.6 0.1 10.7 0.5 11.4 0.5 0.9 4 1.2 12 1.2h11.3c-0.6-24.1-1.1-28.5-2.3-31.1-1.1-2.1-3-4-5-4.8-1.8-0.7-4-1.3-5-1.3-1 0.1-2.8 0.5-4 0.9zm200.5 2.3c-2.1 1.9-2.9 3.9-4 10.4-0.7 4.4-1.5 11.4-1.8 15.6-0.3 4.1-0.2 8.2 0.3 9 0.7 1.1 3.3 1.7 9.3 1.9 4.6 0.3 9.6 0.1 11.1-0.2l2.8-0.7c-0.5-24.7-1.1-31.6-1.8-33.2-0.7-1.4-2.4-3.1-3.8-3.8-1.4-0.7-4-1.2-5.9-1.2-2.2 0-4.5 0.9-6.2 2.2zm61.3 0c-1.1 1.3-2.5 3-3.1 3.8-0.6 0.9-1.5 4.7-1.9 8.6-0.5 3.9-0.8 10.9-0.8 15.6l-0.1 8.5 24.7 0.5c0-20.6-0.5-28.3-1-30.4-0.6-2.3-2.3-4.7-4.3-6.3-2.2-1.7-4.6-2.5-7.4-2.5-3 0-4.6 0.6-6.1 2.2zm-294.8 39.9c-1.1 0.4-3.5 1.5-5.3 2.4-2 1.1-4 3.4-5.2 6.1-1 2.3-2.2 7.9-2.7 12.3-0.4 4.4-0.9 9.6-1.1 11.6-0.2 1.9-0.7 10.2-1.1 18.4l-0.7 14.8c7.8 0 16.2 0.3 23.6 0.7 11.1 0.5 13.8 0.4 14.6-0.8 0.5-0.8 0.9-8 0.8-16-0.2-8-0.5-18.9-0.9-24.2-0.3-5.2-1.3-11.3-2.2-13.6-0.8-2.2-2.7-5.3-4.1-6.8-1.4-1.6-3.3-3.3-4.1-3.7-0.9-0.4-3.4-1-5.6-1.3-2.2-0.3-4.9-0.3-6 0.1zm259.5 2.1c-2.7 2-4.6 4.3-5.2 6.4-0.5 1.8-1.4 5.5-2 8.3-0.6 2.7-1.5 11.1-2.1 18.6-0.7 7.5-1.3 17.7-1.4 22.7l-0.1 9c30.3 1.4 36.6 1.3 37.5 0.6 0.9-0.8 1.1-4.2 0.7-12.9-0.3-6.5-0.7-17.1-1-23.4-0.3-6.4-0.7-13-1-14.6-0.3-1.7-1.3-4.6-2.3-6.6-1-1.9-3.1-5-4.8-6.8-2.5-2.8-3.9-3.4-8.5-3.9-5-0.5-5.9-0.2-9.8 2.6zm-185.7 181.8c-0.9 1.1-3.1 1.6-6.6 1.6-4.3-0.1-5.5 0.3-6.3 1.9-0.6 1.1-1 3.3-1 4.8 0 1.5-0.9 3.7-2 4.8-1.2 1.1-2.1 2.8-2.1 3.8 0 0.9 0.7 2.4 1.6 3.2 0.8 0.9 1.5 2.8 1.5 4.3 0 1.5 0.5 3.4 1.2 4.1 0.7 0.7 3.3 1.2 5.8 1.3 3.5 0 5.1 0.5 6.8 2.5 1.6 1.7 3.4 2.4 5.8 2.4 2.3 0 3.8-0.5 4.3-1.6 0.4-0.9 2-2.3 3.5-3 2-1 2.8-2.2 2.8-4.2 0-1.7 0.8-3.2 2-4 1.5-0.9 1.9-2.1 1.6-4.5-0.2-1.8-1.8-5.5-3.5-8.1-1.7-2.6-3.8-4.8-4.6-4.8-0.9 0-1.6-0.4-1.6-1 0-0.5-0.9-1.9-2-3-1.1-1.1-2.8-2-3.9-2-1 0-2.5 0.7-3.3 1.5zm54.3 0.5c-1.2 1.4-3 2-5.7 2-2.3 0-4.4 0.6-5 1.5-0.6 0.9-0.9 3.1-0.6 5.1 0.3 2.6 0.1 3.7-1.2 4.2-0.9 0.5-2.2 2-3 3.6-0.8 1.5-1.1 3.5-0.7 4.5 0.4 1 2.7 3.7 5.1 6 2.3 2.4 5.1 4.3 6.1 4.3 0.9 0 2.6 0.9 3.7 2 1.1 1.1 3.2 2.2 4.6 2.4 1.4 0.1 3.5-0.5 4.7-1.5 1.3-1.1 3.1-1.9 4.1-1.9 0.9 0 3.9-1.9 6.5-4.3q4.7-4.2 4.8-6.8c0-1.3-0.9-3.4-2.1-4.5-1.7-1.6-2-2.8-1.6-6.5 0.2-2.5 0.1-5.2-0.4-6.1-0.5-0.9-2.4-1.5-4.9-1.5-3.1 0-4.4-0.5-5.6-2.2-1-1.5-2.5-2.3-4.3-2.3-1.6 0-3.6 0.9-4.5 2zm61.6 2.8c-1.9 1.5-4.7 3.2-6.4 3.7-2.6 0.9-3.2 1.7-3.4 4.6-0.2 1.9-0.8 4-1.3 4.5-0.5 0.6-1 2.1-1 3.5 0 1.4 0.6 3.1 1.3 3.9 0.7 0.7 1.7 2.7 2.3 4.5 0.8 2.6 1.6 3.2 4.3 3.5 2.1 0.1 3.3 0.7 3.3 1.7 0 0.8 0.6 2.2 1.5 3 0.8 0.9 2.9 1.6 4.7 1.6 2.1 0 4.1-0.8 5.3-2.1 1.1-1.1 3.3-2 4.8-2 1.5 0 3.5-0.2 4.3-0.5 0.9-0.3 1.5-1.8 1.5-4 0-2.5 0.6-3.8 2-4.5 1.4-0.7 2-2.1 2.1-4.3 0-1.8-0.7-4-1.6-4.8-0.8-0.8-1.6-2.9-1.8-4.5-0.2-2.8-0.6-3.1-4.2-3.4-2.9-0.2-5.1-1.3-7.8-3.8-2.1-1.9-4.4-3.4-5.2-3.4-0.8 0-2.9 1.2-4.7 2.8zm-60.5 54.6c-1.3 1.1-3.8 3-5.6 4.1-1.8 1-3.6 2.9-4.1 4-0.4 1.2-1.7 2.8-3 3.6-1.3 0.8-2.2 2.4-2.2 3.9 0 1.4 0.8 3.1 1.9 3.8 1.6 1 1.9 2 1.4 5.8-0.6 3.7-0.3 4.7 1.3 5.7 1 0.6 2.9 1 4.2 0.7 1.3-0.2 3 0.4 4.2 1.6 1.1 1.1 3.3 2.3 4.8 2.6 2 0.5 3 0.2 3.5-1 0.6-1.1 2.1-1.6 5.3-1.6 2.6 0 4.9-0.5 5.3-1.3 0.4-0.6 0.6-3 0.4-5.2-0.1-2.9 0.3-4.6 1.8-6.1 1.1-1.1 2.2-3.1 2.6-4.5 0.5-1.9 0-3.1-2-5-1.4-1.4-2.6-3.2-2.5-4.1 0-0.8-0.8-2.3-1.8-3.2-0.9-1-2.3-1.8-3-1.8-0.7 0-2.3-0.6-3.5-1.4-1.3-0.8-3.3-1.7-4.4-2.1q-2.2-0.6-4.6 1.5z"/>
		<path id="branco2" fill-rule="evenodd" class="s3" d="m318.5 712.4l1.7 3.2c1.6 2.8 2.1 3 4.3 2.1 1.4-0.5 3-1 3.5-1 0.6 0 1.1 1.4 1.1 3.1 0 2.9-0.1 2.9-2.6 1.5-1.5-1-2.7-1.2-3-0.5-0.3 0.5 1.5 2.4 4 4.2 2.4 1.8 4.9 4.3 5.5 5.6 0.8 1.7 0.8 2.3-0.2 2.6-0.7 0.2-2.1 0-3.2-0.5-1.2-0.5-2.7-2-3.6-3.4-0.8-1.4-2-2.5-2.7-2.5-0.7 0-1.3 0.5-1.3 1 0 0.6 1.6 2.9 3.5 5.3 2.7 3.3 3.3 4.7 2.5 6-0.5 1-1.8 1.7-2.7 1.5-1.3-0.1-1.9-1.3-2-4-0.2-2.1-1.2-4.7-4.5-8.3l0.7 7.1c0.3 4.1 0.2 7.6-0.4 8.5-0.9 1.3-1.3 1.3-2.8-0.2-1.6-1.6-1.7-2.2-0.6-5.6 0.7-2 1.2-5.2 1.3-7 0-1.8-0.5-3.3-1-3.3-0.6 0-1.2 0.8-1.5 1.8-0.2 0.9-0.7 3.2-1 5-0.3 1.8-1.3 3.5-2.3 3.9-1 0.3-2.3 0.3-3 0-1-0.5-0.8-1.6 0.7-4.6 1.1-2.3 2.5-4.1 3-4.1 0.6 0 1.3-0.8 1.6-1.7 0.3-1 0.1-2.2-0.3-2.6-0.4-0.5-2.3 1.2-4.3 3.8-1.9 2.5-3.7 4.6-4 4.6-0.3 0-1.4-0.6-2.4-1.3-1.3-0.8-1.7-1.9-1.3-3 0.4-1 1.7-2.2 2.9-2.7 1.3-0.5 3.3-1.9 4.6-3 1.2-1.2 2.2-2.6 2.2-3.1 0-0.6-0.9-0.8-2-0.5-1.6 0.4-2 0-2-2.1 0-1.3 0.6-2.8 1.3-3.1 0.7-0.4 1.7 0.1 2.2 0.9 0.6 0.9 1.4 1.7 1.7 1.7 0.4 0 2-1.2 3.6-2.6zm-56 60.8c0.9 0.6 1.5 1.7 1.4 2.3-0.1 0.6-1.8 2.4-3.8 3.9-3.2 2.4-3.4 3-2.3 4.8 1.1 1.8 2.1 2 8.3 1.8 6.5-0.3 7.1-0.2 7.1 1.7 0 1.4-0.8 2.1-2.5 2.3-1.4 0.2-4.4-0.4-6.6-1.2-2.2-0.8-4.4-1.2-4.8-0.8-0.4 0.4-0.8 1-0.8 1.4 0.1 0.5 2.6 1.5 5.6 2.3 3.1 0.8 5.8 2 6 2.5 0.3 0.6 0 1.7-0.7 2.6-0.7 0.8-1.5 1.5-1.8 1.5-0.2 0-2.8-1.6-5.8-3.5-2.9-2-5.7-3.6-6.2-3.6-0.6 0-1.1 0.5-1.1 1 0 0.6 2.2 2.4 4.8 4.1 2.7 1.7 4.8 3.6 4.8 4.2 0 0.7-0.8 1.4-1.8 1.5-0.9 0.2-3.3-1.3-5.2-3.2-2-2-3.9-3.5-4.3-3.5-0.4 0-1.2 0.7-1.8 1.5-0.5 0.9-1.8 1.3-2.7 1-1-0.3-1.8-1.2-1.8-2.1 0-0.8 0.7-1.7 1.5-2 0.8-0.2 1.3-0.9 1-1.5-0.3-0.5-1.6-1.4-3-2-1.5-0.6-2.5-1.8-2.5-3q0-2 3-3c1.7-0.6 3-1.5 3-2 0-0.6-0.4-1.1-1-1.1-0.5 0-1-1.1-1-2.5 0-2 0.5-2.5 2.5-2.5 1.4 0 2.8 0.5 3 1 0.3 0.6-0.3 1.9-1.2 3-1 1.2-1.4 2.4-0.9 2.8 0.4 0.4 2-0.7 3.5-2.4 1.5-1.8 3.5-4.4 4.6-5.9 1.5-2.1 2.2-2.4 3.5-1.4zm52.9-0.2c0.6 0 2.3 1.6 3.8 3.6 1.6 1.9 2.8 4.2 2.8 5 0 0.9 1 2.2 2.3 2.9 1.2 0.7 3.5 2.6 5 4 1.5 1.5 2.5 3.2 2.3 3.7-0.3 0.6-1.6 1-2.8 1-1.7 0-3-1.2-4.8-4.5-1.4-2.5-3-4.6-3.5-4.6-0.6 0-2.4 0.7-4 1.4-1.7 0.8-3.5 2.3-4.2 3.3-0.6 1.1-1.6 3.6-2.2 5.7-0.7 2.1-1.8 3.8-2.4 3.7-0.7 0-2-0.4-2.8-0.9-1.2-0.7-0.5-2 3.8-6.7 2.9-3.3 5.3-6.3 5.3-6.7-0.1-0.4-0.5-1-1.1-1.2-0.5-0.3-3.2 1.9-6 5-4.3 4.7-5.3 5.3-6.6 4.3-0.8-0.7-1.5-1.9-1.5-2.6 0-0.6 1.1-1.7 2.3-2.4 1.3-0.6 3.9-2.4 5.8-3.9 1.9-1.6 4.4-4.4 5.5-6.4 1-2 2.4-3.6 3-3.7zm-8.8 2.8c1.2 0.3 2.1 0.8 2.2 1.2 0.1 0.3-0.8 1.2-1.9 1.9-1.3 0.8-2.2 0.9-2.5 0.2-0.3-0.5-0.4-1.6-0.1-2.4 0.2-0.9 1.1-1.2 2.3-0.9zm70.7-0.7c1.2 0 3.6 1.9 5.9 4.6 2 2.5 4.3 4.5 5 4.5 0.7 0 1.3-0.4 1.3-0.8 0-0.4-0.6-1.3-1.3-2-1-1.1-0.9-1.3 0.8-1.3 1.2 0 2.6 0.7 3.1 1.6 0.6 1.1 0.3 1.9-1.1 2.9-2 1.3-1.9 1.4 1.2 3 2.1 1 3.3 2.3 3.3 3.6 0 1.5-0.7 2-2.5 2-1.6 0-2.5 0.6-2.5 1.5 0 0.9 0.4 1.8 1 2 0.5 0.3 0.8 1.6 0.6 2.8-0.2 1.6-1.1 2.4-3 2.5-1.8 0.2-2.7-0.2-2.7-1.2 0-0.9 0.8-1.8 1.8-2.1q1.8-0.5 0.7-1.5c-0.5-0.6-1.8-0.7-2.8-0.2-1.1 0.4-2.9 2.5-4.1 4.6-1.5 2.7-2.7 3.7-4.1 3.5-1-0.2-2-0.9-2.2-1.6-0.2-0.6 1-2.5 2.7-4 1.7-1.5 3-3.3 3-4 0-0.7-0.5-1.3-1-1.3-0.6 0-0.8-0.4-0.5-1 0.3-0.5-0.1-1.3-0.8-1.7-0.8-0.5-1.7-1.6-2.1-2.6-0.3-0.9-1.4-1.7-2.4-1.7-1 0-3.2-0.9-5-2-1.8-1.1-3.3-2.5-3.3-3 0-0.6 1.1-1.3 2.5-1.6 1.8-0.3 3.8 0.5 7.1 3.1 2.4 1.9 5.2 3.5 6 3.5 0.8 0 1.5-0.5 1.5-1 0-0.6-1.1-1.8-2.6-2.8-1.4-1-3.5-2.4-4.6-3.3-1.4-0.9-1.9-2.1-1.5-3.2 0.3-1 1.5-1.8 2.6-1.8zm-50.5 1c0.7 0 1.2 1.1 1.2 2.5 0 1.4-0.4 2.8-1 3-0.5 0.3-1.6-0.5-2.5-1.7-1.1-1.8-1.2-2.4-0.2-3 0.7-0.4 1.8-0.8 2.5-0.8zm-60.4 2.1c0.1-0.1 1 0.2 2 0.5 0.9 0.4 1.6 1.3 1.5 2-0.1 0.8-0.6 1.6-1 1.9-0.4 0.2-2.8 0.7-9.8 1.8l3.5-3.1c1.9-1.7 3.6-3.1 3.8-3.1zm100.3 9c0-0.1 2 0.7 4.4 1.7 2.3 1 4 2.1 3.6 2.6-0.4 0.4-2.7 0.7-5.1 0.7-2.4 0-4.5-0.4-4.8-1-0.3-0.5 0-1.7 0.6-2.5 0.6-0.8 1.2-1.5 1.3-1.5zm-51.3 1.5l0.9 3.5c0.4 2 1.2 4.4 1.7 5.6 0.5 1.2 0.4 2.7-0.3 3.9-0.7 1-1.9 1.7-2.8 1.4-0.8-0.3-1.7-1.8-2.1-3.4-0.3-1.7 0.1-4.7 1-7zm4.9 0.4l2.3 2.8c1.2 1.6 2.5 3.9 2.8 5.1 0.5 1.7 0.2 2.4-1.1 2.8-1 0.4-2.3-0.1-3-1.2-0.7-1-1.2-3.6-1.1-5.7zm55.8 5.4c1.6-0.1 2.1 0.3 1.7 1.3-0.2 0.9-1.1 1.5-2 1.5-0.8 0-1.5 0.5-1.5 1 0 0.6-1.3 1-3 1-2.4 0-3-0.4-3-2 0-1.4 0.8-2.1 2.7-2.3 1.6-0.2 3.8-0.5 5.1-0.5zm-59.6 36.1c2 0 2.4 0.5 2.4 3 0 1.6-0.7 5.1-1.5 7.8-0.9 2.6-1.3 5-1 5.3 0.2 0.2 1.1-0.1 1.8-0.7 0.7-0.6 1.6-3.1 2-5.5 0.4-2.4 1.4-5.1 2.2-5.9 1.3-1.4 1.7-1.4 3.1 0 0.9 0.8 1.6 2.1 1.5 2.7 0 0.7-1.8 3.5-4.1 6.1-2.2 2.6-4 5.1-4 5.5 0 0.4 0.5 0.8 1 0.8 0.6 0 2.7-1.9 4.6-4.3 2.8-3.4 3.9-4.1 5.2-3.3 0.9 0.6 1.8 1.6 2 2.3 0.2 0.7-1.9 2.8-4.7 4.8-2.8 1.9-5 4.2-5 5 0 0.8-0.7 1.7-1.5 2-0.9 0.3-1.5 1.1-1.5 1.8 0 0.7-0.6 1.8-1.3 2.5-0.7 0.7-2 1-2.8 0.8-0.8-0.3-2.1-2-2.8-3.8-0.8-1.8-1.8-4.3-2.3-5.6-0.5-1.2-2.7-3.5-5-5-3.2-2.2-3.7-3-2.7-4.1 0.7-0.7 1.7-1.2 2.2-1.2 0.6 0 2 1.3 3.2 2.8 1.2 1.5 2.6 2.4 3 2 0.5-0.5 0.3-1.6-0.4-2.6-0.7-0.9-1.8-2.7-2.5-3.9-1-1.8-1-2.6 0-3.6 0.7-0.7 1.9-0.9 2.7-0.5 1 0.5 1.6 2.1 1.6 4.1 0 1.8 0.4 3.9 0.9 4.7 0.6 1.2 1 1.3 1.5 0.3 0.3-0.7 0.2-3.1-0.4-5.3-0.5-2.2-0.7-5.1-0.4-6.5 0.4-1.9 1.3-2.5 3-2.5zm-10.2 20.7c0.8 0.3 1.5 1.2 1.5 2 0 0.8 0.6 1.6 1.3 1.8 0.9 0.3 1 0.7 0.3 1.6-0.6 0.6-1.9 1-3 0.8-1.1-0.1-2.2-1.2-2.4-2.3-0.1-1.1-0.1-2.6 0.2-3.2 0.3-0.7 1.2-1 2.1-0.7zm19.7 2.6c0.8 0.2 1.5 1.2 1.5 2.3 0 1.5-0.8 2.1-2.8 2.3-1.6 0.1-2.8-0.3-2.9-1.1-0.1-0.7 0.4-1.8 1.2-2.5 0.8-0.7 2.1-1.1 3-1z"/>
		<path id="vermello3" class="s1" d="m158.4 549.4c-0.6 0.4-1.8 2-2.8 3.5-1.3 2.1-1.8 5.4-2 13.6l-0.2 10.8 12.6 0.5c0.9-9.7 1-15.6 0.8-19.3-0.3-5.3-0.8-7.1-2.3-8.3-1.2-0.8-2.7-1.5-3.6-1.5-0.8-0.1-1.9 0.3-2.5 0.7zm60.5 2.2c-2 2.3-2.7 4.6-3.2 9.3-0.3 3.5-0.4 8.6-0.2 11.4l0.3 5h14.1c0.5-13.3 0.4-19 0-21.4-0.3-2.3-1.2-5-2-5.8-0.9-0.8-2.6-1.5-4-1.5-1.4 0-3.4 1.2-5 3zm204.1-0.1c-1 1.1-2.4 4.6-3 7.8-0.7 3.3-1.5 9-1.8 12.7-0.4 5.1-0.2 6.8 0.7 6.9 0.7 0 3.3 0.1 5.8 0.1 2.5 0 5.1 0 5.8-0.1 0.9-0.1 1.2-3.3 1.2-12.7 0-11.2-0.2-12.8-2-14.6-1.1-1.1-2.6-2-3.5-2-0.8 0-2.2 0.9-3.2 1.9zm60.9 0.5c-0.8 1.3-1.8 8.1-2.3 15.1l-1 12.7h13.6c0-24.8-0.2-26.4-2.1-28.2-1.1-1.1-3.1-2-4.5-2-1.6 0-2.9 0.9-3.7 2.4zm-299.2 42.4c-1.4 1.6-2.5 4.1-2.6 5.7 0 1.6-0.5 4.1-1.1 5.6-0.6 1.6-1.5 11.6-1.9 22.4-0.5 10.8-0.8 19.8-0.7 19.9 0.1 0.1 5.7 0.5 12.6 1l12.4 0.8c-0.6-41.4-1-47.2-2-47.5-0.6-0.2-1.2-1.2-1.2-2.3 0-1.2-1-3.2-2.3-4.6-1.5-1.7-3.7-2.8-6.4-3.2-3.6-0.5-4.5-0.2-6.8 2.2zm266.2-1.8c-0.9 0.2-2.3 1.5-3.3 2.9-1 1.4-2.6 7.4-3.7 14.3-1.1 6.5-2.4 18.3-2.8 26.2l-0.8 14.3h27.7c-0.8-7.4-1.2-17.7-1.6-27.7-0.3-10-0.8-19.2-1.2-20.6-0.3-1.4-1.3-3.6-2.2-4.9-0.8-1.4-2.8-3.1-4.3-3.8-1.6-0.8-3.6-1.3-4.6-1.3-0.9 0.1-2.4 0.3-3.2 0.6z"/>
		<path id="verde" class="s5" d="m207 351.3c-1 0.6-5.1 1.4-9.1 2-4 0.5-9.8 1.6-12.8 2.3-3.1 0.7-6.1 1.6-6.8 2-0.7 0.4-1 1.4-0.8 2.2 0.4 1 1.9 1.6 4.3 1.6 2.1 0 7.4-0.5 11.8-1.1 4.5-0.6 10.6-1.8 13.6-2.6 3.1-0.9 6.1-1.8 6.8-2 0.7-0.2 1.3-1.1 1.3-1.9 0-0.8-0.9-2-2-2.5-1.1-0.6-2.6-1-3.3-1-0.7 0-2 0.5-3 1zm225.7 3.2c-0.7 0.7-1.3 1.8-1.2 2.5 0.2 0.7 2.1 2 4.3 2.8 2.2 0.9 7.3 2.3 11.3 3.2 4 0.8 9.3 1.8 11.8 2.1 2.5 0.3 5.8 0.3 7.3-0.1 2.1-0.5 2.7-1.2 2.5-2.8-0.2-1.7-1.5-2.5-5.7-3.9-3.1-0.9-9.7-2.4-14.6-3.3-5-0.9-10.3-1.7-11.7-1.7-1.4 0-3.2 0.5-4 1.2z"/>
	</g>
</svg>