<?xml version="1.0" encoding="UTF-8" standalone="no"?>
<svg
   xmlns:dc="http://purl.org/dc/elements/1.1/"
   xmlns:cc="http://creativecommons.org/ns#"
   xmlns:rdf="http://www.w3.org/1999/02/22-rdf-syntax-ns#"
   xmlns:svg="http://www.w3.org/2000/svg"
   xmlns="http://www.w3.org/2000/svg"
   xmlns:sodipodi="http://sodipodi.sourceforge.net/DTD/sodipodi-0.dtd"
   xmlns:inkscape="http://www.inkscape.org/namespaces/inkscape"
   inkscape:version="1.0 (4035a4fb49, 2020-05-01)"
   sodipodi:docname="Montederramo.svg"
   id="svg1642"
   version="1.1"
   viewBox="0 0 153.94078 175.49426"
   style="clip-rule:evenodd;fill-rule:evenodd;image-rendering:optimizeQuality;shape-rendering:geometricPrecision;text-rendering:geometricPrecision"
   height="175.49426mm"
   width="153.94078mm"
   xml:space="preserve"><metadata
   id="metadata1646"><rdf:RDF><cc:Work
       rdf:about=""><dc:format>image/svg+xml</dc:format><dc:type
         rdf:resource="http://purl.org/dc/dcmitype/StillImage" /></cc:Work></rdf:RDF></metadata><sodipodi:namedview
   inkscape:current-layer="svg1642"
   inkscape:window-maximized="0"
   inkscape:window-y="0"
   inkscape:window-x="0"
   inkscape:cy="362.32364"
   inkscape:cx="303.08865"
   inkscape:zoom="0.49085999"
   showgrid="false"
   id="namedview1644"
   inkscape:window-height="480"
   inkscape:window-width="803"
   inkscape:pageshadow="2"
   inkscape:pageopacity="0"
   guidetolerance="10"
   gridtolerance="10"
   objecttolerance="10"
   borderopacity="1"
   bordercolor="#666666"
   pagecolor="#ffffff" />
 <defs
   id="defs1506">
  <style
   id="style1504"
   type="text/css">
   <![CDATA[
    .str1 {stroke:#2A2A29;stroke-width:0.2}
    .str3 {stroke:#2A2A29;stroke-width:0.25}
    .str0 {stroke:#2A2A29;stroke-width:0.5}
    .str4 {stroke:#2A2A29;stroke-width:0.4682;stroke-linecap:round;stroke-linejoin:round}
    .str2 {stroke:#2A2A29;stroke-width:0.5;stroke-linecap:round;stroke-linejoin:round}
    .fil2 {fill:none}
    .fil0 {fill:black}
    .fil6 {fill:#008F4C}
    .fil5 {fill:#7C420F}
    .fil3 {fill:#E3E4E5}
    .fil1 {fill:#EAC102}
    .fil4 {fill:#FF6600}
   ]]>
  </style>
 </defs>
 <g
   transform="translate(-24.807796,-52.635204)"
   id="Capa_x0020_1">
  <metadata
   id="CorelCorpID_0Corel-Layer" />
  <g
   id="_188210112">
   <path
   d="m 141.869,54.5653 c -4.8411,-2.3952 -10.3692,-2.1191 -15.2582,1.4064 -19.5866,11.1565 -37.301,8.7314 -52.07,-0.9257 -5.0124,-3.4003 -9.3106,-2.6441 -14.8873,1.2579 -3.2656,2.5713 -6.7627,4.6798 -9.7969,7.714 -2.4942,1.8514 -4.5255,4.4742 -7.4826,5.5542 -2.306,1.6564 -4.3457,2.6742 -6.4027,5.1684 -2.9553,1.7952 -6.147,4.479 -9.7197,7.7141 -2.0903,2.0853 -2.2037,13.2144 6.0941,17.7423 3.5741,1.08 6.0684,-1.2342 8.4083,-3.4713 1.3312,-1.5825 2.4745,-0.3459 3.3942,4.2427 2.2887,8.7316 3.6515,29.7095 1.7742,39.2647 -1.4914,17.4338 -10.0797,27.5392 -11.1854,34.9447 -5.034,3.4852 -8.1295,12.1558 -5.7807,15.3616 l 11.8524,13.6481 c 0.7196,1.4956 1.7951,2.7371 3.5632,3.4838 l 13.7028,15.3875 c 2.9817,3.4227 14.727,7.0975 23.1373,3.0326 4.8151,-2.888 30.4445,-3.1568 40.9302,-0.1164 9.7149,2.5997 18.4673,2.7273 22.8764,-4.3175 8.5148,-11.9358 20.7657,-21.4614 29.5215,-31.4689 4.0367,-7.1616 0.1761,-15.5943 -6.5296,-18.8097 -4.1393,-1.0944 -7.6849,-19.2748 -8.1648,-29.8659 -0.7336,-10.9368 -1.4407,-22.1742 1.5041,-36.1685 0.2809,-3.9004 0.5252,-10.0268 2.9364,-12.462 3.7939,3.844 11.4852,3.557 13.6079,-2.2202 1.8137,-5.0208 -0.5338,-12.9991 -6.4458,-18.9079 -3.5805,-3.4801 -8.2837,-6.1179 -13.3931,-8.4513 -2.2546,-2.3185 -4.7404,-3.3634 -7.3769,-3.581 z"
   class="fil0 str0"
   id="_180574792" />
   <path
   d="m 153.708,148.558 c -2.7565,-12.8563 -2.4862,-25.8376 -0.0506,-36.997 2.5014,-8.6269 5.1222,-16.9847 8.6279,-23.3516 1.6848,-5.3002 6.5054,-7.7666 12.3791,-7.0336 -2.6271,-6.1789 -6.2509,-10.2327 -9.7533,-11.5351 l -19.5065,-10.316 c -5.6094,-3.3408 -9.6774,-3.2564 -13.0356,-1.5943 -4.01,0.8647 -7.834,2.1319 -10.9725,5.5332 -3.1573,1.4692 -6.6897,2.0944 -9.4719,4.4077 -5.9591,1.8584 -12.8588,1.0829 -20.0692,-0.5627 C 83.4715,64.06 76.4509,60.5095 67.3784,57.3553 63.7601,56.0726 53.9936,62.4442 51.8107,66.6397 l -7.5025,5.6269 c -10.4335,5.9272 -17.0469,11.2975 -15.4739,15.4739 7.4958,-3.2316 13.2613,-1.5198 17.2557,5.2518 3.937,5.9552 9.1343,26.6499 7.4088,39.1068 -0.4809,15.7878 -7.0527,31.072 -13.9735,42.1079 4.3624,0.3591 8.5169,2.7982 12.3792,8.159 5.3318,8.6488 12.8153,14.0694 19.7879,20.2568 2.1088,2.8897 7.5445,5.2447 5.9699,9.5602 -2.6757,3.9957 -5.2263,6.6615 -7.4261,5.5844 -1.2278,-1.0496 -2.1586,-2.3368 -3.6834,-3.1487 -1.4852,-0.7921 -3.5645,0.7328 -3.2081,3.6834 1.1689,4.6401 4.6724,5.4602 9.3272,4.3963 18.5305,-5.4804 35.6309,-6.5402 50.676,-1.2476 5.6123,1.9108 9.9131,2.2477 12.357,0.3564 1.8139,-1.012 2.525,-6.5895 2.0794,-8.0796 -1.6833,-3.2081 -5.1488,2.8517 -7.7232,4.2775 -3.6551,1.4046 -8.3059,-5.9001 -4.6933,-11.466 6.6984,-7.5585 15.2781,-13.3463 22.9172,-20.0194 l 11.3442,-11.5102 c 1.7275,-1.8912 2.2207,-3.0002 1.0514,-5.7552 -3.1677,-6.0554 -5.2812,-13.1647 -6.9726,-20.6963 z"
   class="fil1 str1"
   id="_180573928" />
   <path
   d="m 146.72,212.926 -3.1091,5.372 c -1.1325,0.9842 -2.4669,0.1191 -2.2341,-1.6135 -0.1793,-2.3307 1.0894,-4.9097 -0.5379,-6.9921 L 137.5704,205.1 c -0.6806,-1.1012 -3.347,-0.7959 -5.0205,-1.1938 -0.8729,-0.8673 1.7768,-2.9563 3.5241,-3.8098 7.3484,-4.7452 12.1449,-9.9861 17.2392,-14.001 3.0751,-5.1102 6.5433,-7.4685 9.9055,-10.5721 1.6661,-0.9414 3.3879,-0.8292 5.1724,0.4805 l 3.5544,3.7321 c 1.952,2.945 0.6574,5.3636 -1.7772,7.5975 l -17.8818,17.6535 c -2.4943,2.6464 -3.6197,6.0227 -5.5665,7.9391 z"
   class="fil1 str1"
   id="_180573064" />
   <path
   d="m 45.7721,202.922 c -4.7099,-3.9786 -8.6912,-9.1229 -12.2253,-14.983 -2.8585,-4.1467 2.4902,-13.2613 10.3034,-9.3032 2.8498,1.6211 4.6747,5.1209 7.0121,7.6814 3.338,4.5945 7.9058,8.7277 13.0659,12.6389 2.4183,1.507 3.4018,2.1138 5.3232,4.3685 -6.0165,2.8185 -9.3092,7.574 -9.7612,14.3495 -5.2782,-4.2118 -9.1454,-9.8347 -13.7181,-14.7521 z"
   class="fil1 str1"
   id="_180572200" />
   <path
   d="m 121.538,218.013 c -9.831,-3.2062 -21.8227,-3.6556 -35.4806,-1.9794"
   class="fil2 str1"
   id="_180571336" />
   <g
   id="g1520">
    <path
   d="m 119.658,215.291 c -7.302,-3.4851 -18.2471,-3.6915 -30.829,-2.4248"
   class="fil2 str2"
   id="_180570472" />
    <path
   d="m 118.173,211.036 c -8.7479,-3.3014 -19.0943,-2.9358 -30.0867,-1.0887"
   class="fil2 str2"
   id="_180569608" />
    <path
   d="m 116.342,207.027 c -2.7311,-1.5712 -6.1762,-2.1898 -10.0949,-2.1773"
   class="fil2 str2"
   id="_186303152" />
    <path
   d="m 102.932,205.543 c -3.5144,-0.383 -6.828,0.1025 -9.9464,1.435"
   class="fil2 str2"
   id="_186298760" />
    <path
   d="m 102.882,202.227 c -2.6887,-0.4993 -5.3774,-0.2594 -8.0661,0.6928"
   class="fil2 str2"
   id="_186310400" />
    <path
   d="m 113.373,203.366 c -1.8365,-0.9485 -4.0193,-1.3775 -6.3835,-1.534"
   class="fil2 str2"
   id="_186297632" />
   </g>
   <path
   d="m 53.2538,149.61 c -1.7017,7.7244 -3.2478,12.6282 -6.1546,19.1476"
   class="fil2 str2"
   id="_186308120" />
   <path
   d="m 55.6961,156.449 c -1.3858,5.7881 -3.2381,10.5265 -5.6661,13.97"
   class="fil2 str2"
   id="_186305816" />
   <path
   d="m 56.2823,164.362 c -2.1369,3.0978 -3.5618,7.1925 -4.3962,12.1138"
   class="fil2 str2"
   id="_186298208" />
   <path
   d="m 150.159,150.408 c 1.5282,7.0361 3.6566,13.6722 6.6661,19.7205"
   class="fil2 str2"
   id="_186305624" />
   <path
   d="m 151.548,175.313 c 1.7732,-4.7765 0.0152,-9.7884 -1.9443,-14.8135"
   class="fil2 str2"
   id="_186298352" />
   <path
   d="m 157.924,88.091 c -3.6694,7.0809 -6.1693,14.997 -7.3956,23.8229"
   class="fil2 str2"
   id="_186307544" />
   <path
   d="m 152.885,91.2325 c -1.9714,3.5937 -3.2206,7.729 -3.7959,12.3696"
   class="fil2 str2"
   id="_186310592" />
   <path
   d="M 55.1448,108.022 C 54.405,101.4815 53.0525,96.1669 50.9296,92.3934"
   class="fil2 str2"
   id="_186301904" />
   <path
   d="M 56.377,98.4896 C 56.0369,95.69 55.4208,93.0747 54.0424,90.9672"
   class="fil2 str2"
   id="_186299552" />
   <g
   id="g1537">
    <line
   y2="72.160896"
   x2="50.6054"
   y1="61.006901"
   x1="64.418198"
   class="fil2 str2"
   id="_186297944" />
    <line
   y2="82.147697"
   x2="36.533199"
   y1="74.754898"
   x1="47.622299"
   class="fil2 str2"
   id="_186309920" />
    <line
   y2="83.963501"
   x2="40.553799"
   y1="66.259697"
   x1="63.0564"
   class="fil2 str2"
   id="_186303080" />
    <line
   y2="83.963501"
   x2="45.4175"
   y1="68.7239"
   x1="64.483101"
   class="fil2 str2"
   id="_186298880" />
    <line
   y2="84.8713"
   x2="48.5951"
   y1="66.778503"
   x1="74.0159"
   class="fil2 str2"
   id="_186301088" />
    <line
   y2="77.673103"
   x2="65.326103"
   y1="74.949402"
   x1="69.541298"
   class="fil2 str2"
   id="_186305936" />
   </g>
   <g
   id="g1545">
    <line
   y2="67.232399"
   x2="152.289"
   y1="72.679703"
   x1="161.692"
   class="fil2 str2"
   id="_186307760" />
    <line
   y2="58.737202"
   x2="136.336"
   y1="65.027496"
   x1="147.944"
   class="fil2 str2"
   id="_186298520" />
    <line
   y2="61.7202"
   x2="135.623"
   y1="76.051903"
   x1="161.951"
   class="fil2 str2"
   id="_186307304" />
    <line
   y2="63.341499"
   x2="131.73199"
   y1="75.987"
   x1="154.94701"
   class="fil2 str2"
   id="_186304928" />
    <line
   y2="67.427002"
   x2="132.185"
   y1="80.072502"
   x1="153.845"
   class="fil2 str2"
   id="_186297536" />
    <line
   y2="72.939102"
   x2="136.53"
   y1="77.154297"
   x1="144.83099"
   class="fil2 str2"
   id="_186307256" />
   </g>
   <g
   id="g1551">
    <path
   d="m 85.4942,67.9458 c 8.2376,4.2362 20.6849,5.4913 25.4856,3.4369 2.4643,-1.8052 4.9286,-2.7557 7.3928,-2.6588"
   class="fil2 str2"
   id="_186303872" />
    <path
   d="m 115.065,74.1713 c -2.2481,-0.2379 -3.5883,0.6917 -5.3825,1.0375 -7.7777,1.0553 -15.1573,-0.2771 -22.2432,-3.3721"
   class="fil2 str2"
   id="_186297512" />
    <path
   d="m 110.72,78.0622 c -6.4875,1.8434 -13.9398,0.5779 -21.9838,-2.594"
   class="fil2 str2"
   id="_186304568" />
    <path
   d="m 104.819,82.3422 c -3.2857,0.5745 -6.5713,-0.2504 -9.8571,-2.2697"
   class="fil2 str2"
   id="_186303752" />
   </g>
   <g
   id="g1558">
    <line
   y2="211.155"
   x2="57.378601"
   y1="189.40199"
   x1="35.708"
   class="fil2 str2"
   id="_186300704" />
    <line
   y2="207.87199"
   x2="58.691898"
   y1="186.201"
   x1="36.2005"
   class="fil2 str2"
   id="_186303584" />
    <line
   y2="183.164"
   x2="38.170601"
   y1="204.916"
   x1="60.251598"
   class="fil2 str2"
   id="_186302432" />
    <line
   y2="182.67101"
   x2="41.371899"
   y1="203.11099"
   x1="61.893299"
   class="fil2 str2"
   id="_186309104" />
    <line
   y2="199.827"
   x2="62.2216"
   y1="181.112"
   x1="43.916599"
   class="fil2 str2"
   id="_186306632" />
   </g>
   <g
   id="g1565">
    <line
   y2="181.05"
   x2="161.821"
   y1="200.25"
   x1="138.93201"
   class="fil2 str2"
   id="_186303008" />
    <line
   y2="181.728"
   x2="164.155"
   y1="202.659"
   x1="140.13699"
   class="fil2 str2"
   id="_186299600" />
    <line
   y2="183.46001"
   x2="165.058"
   y1="204.616"
   x1="142.396"
   class="fil2 str2"
   id="_186300680" />
    <line
   y2="185.41701"
   x2="166.338"
   y1="205.29401"
   x1="144.88"
   class="fil2 str2"
   id="_186300416" />
    <line
   y2="187.07401"
   x2="167.84399"
   y1="207.327"
   x1="147.064"
   class="fil2 str2"
   id="_186306824" />
   </g>
   <g
   id="g1638">
    <path
   d="m 61.4354,84.4263 h 80.8212 v 105.913 H 61.4354 Z m 3.7634,3.8253 h 73.2351 v 98.2628 H 65.1988 Z"
   class="fil3 str3"
   id="_186307112" />
    <rect
   height="98.262901"
   width="73.2351"
   y="88.251602"
   x="65.2285"
   class="fil4 str1"
   id="_186298256" />
    <g
   id="g1590">
     <path
   d="m 89.8314,136.298 c -0.1291,-0.0638 -0.2481,-0.3667 -0.2988,-0.3784 0,-0.3542 0.2069,-0.317 0.2069,-1.1827 0,-0.1792 0.1507,-0.4962 0.1479,-0.5321 0.5023,0 1.3178,0.1137 1.757,-0.1208 0.5168,-0.2759 1.5447,0.4719 2.4684,0.5026 0.4244,0.014 0.8316,0.3731 1.6209,0.4139 1.5985,0.0827 0.9086,-0.5407 2.3898,-0.18 0.7076,0.1724 2.1958,-0.1014 2.932,-0.1697 0.6779,-0.0629 1.5283,-0.3149 2.5599,-0.4485 0.73,-0.0946 2.6719,-0.0244 3.2349,0.3277 0.6857,0.4288 1.1108,0.3566 1.6016,0.751 l 0.0473,0.038 c 0.2584,0.1387 1.6181,0.5272 1.8668,0.2357 0.0618,-0.0725 0.6427,0.0966 1.0644,-0.2163 0.5719,-0.4243 2.9987,-0.4134 3.7404,-0.3083 0.6759,0.0959 1.3295,0.3617 1.9463,0.6851 0.5738,0.3007 0.327,-0.1115 1.153,0.6673 0.5821,0.5487 0.8807,1.0519 0.3353,1.703 l -0.1089,0.13 c -0.3961,0.4729 -0.6742,0.2324 -1.0347,0.7121 -0.1543,0.2052 -1.4663,0.5116 -1.8973,0.6606 -1.0107,0.3493 -0.7269,-0.1208 -1.7757,-0.1208 -0.6084,0 -0.7603,0.164 -1.55,0.1478 -0.6255,-0.0128 -0.6474,0.3396 -1.2688,0.0195 -0.3109,-0.1602 -1.2931,-0.0289 -1.6459,0.1258 -1.0997,0.1704 -1.1156,1.6724 -1.0496,2.5131 0.0254,0.3245 0.617,1.4825 1.0593,1.7223 0.9095,0.4931 0.2551,0.876 1.2121,0.9681 0.5151,0.0497 1.2986,0.7204 1.279,0.9487 0.3575,-0.0282 -0.2155,1.1216 0.1896,1.6011 0.0393,-0.0106 0.5887,0.3459 0.5791,0.4684 -0.1562,0.3442 0.1931,0.5847 -0.2416,0.6775 -7e-4,1e-4 -0.3997,0.2964 -0.4485,0.3151 -0.1252,0.409 -0.0931,0.6886 -0.1132,0.7467 -0.9091,0.2101 -0.1508,1.5392 -0.5888,2.0155 -0.4256,0.4626 -0.0132,0.7611 -0.4063,1.387 -0.3152,0.5018 0.2211,1.0436 0.0565,1.6113 -0.0163,0.3699 -0.3573,0.6522 -0.0987,1.3478 0.3434,0.9242 -0.8423,0.5091 -0.3794,1.6903 0.0174,0.0901 0.0317,0.0609 0.0516,0.1258 0.2412,0.0923 1.0774,1.1326 -0.1081,1.5028 -0.0983,0.0307 -0.2092,0.2226 -0.2366,0.2289 0.0233,0.3641 -0.1658,0.2028 0.0566,1.0496 0.0997,0.3799 -0.2433,0.2932 -0.1723,1.2464 0.037,0.4964 0.3533,1.1603 0.7083,1.4737 0.4404,0.3887 0.5891,1.117 0.7378,1.1382 -0.0159,0.4924 0.2124,0.4123 0.1158,1.0618 -0.0644,0.4321 0.4614,-0.0439 0.4165,1.0078 -0.0236,0.5523 0.4637,0.9412 0.9312,1.0925 0.8662,1.282 1.47,0.1042 2.3285,1.2456 0.3368,0.448 0.997,0.3573 1.7562,0.67 0.8747,0.3601 0.9001,0.2591 1.1864,1.0533 0.002,0.6011 -0.0524,1.336 -0.0254,1.7955 -0.01,-0.0783 -0.0894,-0.0954 -0.0123,-0.0968 0.0434,0.1654 0.0765,0.1441 0.1286,0.2199 0.064,0.093 0.3624,0.4357 0.3686,0.4716 0.8502,0 0.6703,-0.1089 1.4784,0.1666 0.2717,0.4747 0.2638,0.457 0.8551,0.4184 1.0287,-0.0671 0.7872,-0.2407 1.1365,-0.9815 0.3294,-0.6986 0.8933,-0.3789 1.2427,-0.9903 -0.007,-0.1344 0.3872,-0.391 0.4341,-0.3965 0.897,-0.2694 1.2521,0.205 1.6697,0.8402 0.0582,0.0884 0.4732,0.7271 0.4958,0.7388 0.6151,0.3181 0.7544,0.6584 1.0215,0.8264 l 0.0611,0.0383 c 0.2747,0.4797 0.4413,0.3541 0.8036,0.5131 0.278,0.122 0.3838,0.6532 0.7362,0.7213 0.4641,0.0896 0.4374,0.117 0.9523,0.117 0.5001,0 2.5013,-0.212 2.5013,0.4995 -0.0933,0.0697 0.5176,0.5061 0.6741,0.676 l 0.0419,0.0455 c 0.6064,0.6584 1.0044,0.4817 1.2419,0.9532 l 0.0365,0.0264 c 0.0117,0.0474 0.001,0.0286 0.0488,0.0838 0.2379,0.5653 -0.2629,0.669 -0.3021,1.0742 -0.0257,0.2663 -0.4645,0.432 -0.6988,0.4976 -0.4566,0.1277 -0.447,0.4607 -0.2496,0.5958 0.3615,0.2474 0.0256,0.5422 0.07,1.0599 -0.236,0.1607 -0.2886,0.2797 -0.4119,0.4837 -0.0934,0.1547 -1.2631,0.1493 -1.4587,0.0958 0.002,0.1066 0.0731,0.1435 0.0665,0.1677 -0.0771,-0.041 -0.1391,-0.3643 -0.503,-0.3927 -0.6499,-0.0507 -0.6248,-0.8621 -0.3581,-0.9239 0.0226,-0.1101 0.1461,-0.3233 0.2533,-0.3827 0.7895,-0.4382 0.0444,-0.7455 -0.1868,-0.7455 l -0.0802,-0.0503 c -0.3756,-0.2356 -1.0068,-0.007 -1.3222,0.2407 -0.036,0.0284 -0.2206,0.1432 -0.2413,0.1833 -0.3721,0.0559 -0.8176,-0.2487 -0.8832,-0.0521 -0.1512,0.0462 -0.57,0.3947 -1.0706,0.0712 l -0.0371,-0.024 c -0.2863,-0.2661 -0.3944,-0.6452 -0.9167,-0.5173 -0.3276,0.0802 -0.1086,0.5075 -0.1012,0.8697 0.007,0.3328 -0.8383,0.1604 -0.8383,0.7458 0,0.3338 0.1291,0.6746 -0.6521,0.7389 -1.2671,0.1043 -0.4358,-0.1664 -1.4018,-0.1922 -0.5214,-0.0139 -0.3841,-0.5079 -0.6634,-1.0269 -0.2613,-0.4856 -0.4228,-0.5013 -0.5766,-1.0724 -0.1695,-0.6289 -0.3573,0.0476 -0.4348,-1.0598 -0.0112,-0.1605 -0.7462,-0.7189 -0.7963,-1.2384 -0.0356,-0.3688 -0.9199,-0.6341 -1.2,-0.6341 -0.7177,0 -0.5111,1.0395 -0.4173,1.4757 0.0183,0.0857 0.114,0.1569 0.1311,0.2393 0.4398,0.115 0.4432,0.4802 0.3098,0.8732 -0.2021,0.5956 -0.9471,0.4869 -1.1325,1.0949 l -0.0539,0.1767 c -0.3493,1.1456 0.0496,1.4109 -1.394,1.4406 -0.2974,0.006 -0.9703,0.1618 -1.1195,-0.1553 -0.2269,-0.2893 0.1454,-0.5376 -0.6792,-0.8224 -0.124,-0.0429 -0.6062,0.0526 -0.627,0.4154 l -0.0228,0.0647 c -0.1643,0.4671 0.0313,0.4156 -0.8927,0.4156 -0.0448,0 -0.0894,0 -0.1342,0 l -0.0706,0.0318 c -0.0458,0.0206 -0.7497,-0.1384 -1.0396,-0.1384 -0.5893,0 -0.3574,0.0688 -0.8063,-0.1282 -0.7091,-0.3113 -0.6357,-0.7754 -1.1861,-1.0417 -0.0523,-0.5839 -0.5073,-1.0385 -0.5073,-1.6045 0,-0.6058 -0.2968,-1.3828 0.0876,-1.7192 l 0.0211,-0.0362 c 0.0111,-0.0658 0.412,-0.152 0.6371,-0.4316 0.2048,-0.2545 0.1552,-0.2954 0.1682,-0.5647 -0.4813,-0.2762 -0.2934,-0.0719 -0.5592,-0.2082 -0.4234,-0.2172 -0.4698,-0.2358 -0.924,-0.2958 -0.4439,-0.0586 -0.3341,-0.4961 -1.1049,-0.5977 -0.4351,-0.0575 -0.8258,0.0177 -1.2798,-0.1268 -1.1456,-0.13 -0.5688,0.0942 -0.8938,0.1734 -0.0516,0.1536 -0.0718,-0.0705 -0.1174,0.3203 -10e-4,0.0117 -0.0136,0.0377 -0.0136,0.0377 -0.0549,0.0133 -0.0414,0.1249 -0.1149,0.1191 0,0.701 0.6462,0.789 1.2214,0.649 0.3792,-0.0925 0.712,0.1542 0.9052,0.489 l 0.0289,0.0502 c 0.0791,0.1369 -0.0201,0.1246 0.2759,0.3814 0.1831,0.159 0.3027,0.2561 0.503,0.4047 -5e-4,0.006 0.1267,0.3102 0.1434,0.5238 0.0448,0.5726 0.1261,0.5961 -0.5993,0.9072 l -0.1159,0.0497 c -0.0592,0.0253 -0.2017,0.0926 -0.2614,0.1133 -0.0616,0.2356 -0.0986,0.1527 -0.1252,0.53 -0.0494,0.6996 -1.6159,0.5387 -2.1798,0.5387 -0.4559,0 -0.6314,0.0935 -0.9357,-0.1811 -0.4769,-0.4305 -1.1489,0.1442 -1.4137,-0.3902 -0.3639,-0.4271 -0.4401,-0.002 -1.1608,-0.388 -0.0477,-0.1641 -0.2126,0.0431 -0.1984,-0.7599 0.001,-0.0603 0.0158,-0.0644 -0.0212,-0.1102 -0.0384,0.002 -0.0222,0.005 -0.0497,-0.006 -0.1387,-1.1957 0.3319,-0.7724 0.4647,-1.3476 0.1561,-0.676 0.2611,-0.2967 0.2929,-1.1127 0.007,-0.1667 0.1102,-0.0445 0.1102,-0.3954 -0.1581,-0.2287 0.0582,-0.0556 -0.3107,-0.4636 -0.3772,-0.2108 -0.2843,-0.0105 -0.6195,-0.279 -0.1763,-0.1411 -0.4843,-0.1045 -0.8128,-0.2439 -0.1274,-0.054 -0.3983,-0.0943 -0.5508,-0.0371 -0.4377,-0.008 -0.1435,0.7809 -1.5504,0.9607 -0.0894,0.0114 -0.6133,0.599 -0.9312,0.8039 -0.5835,0.376 -1.0123,0.6399 -1.0123,1.3708 0,3e-4 0.1294,0.5816 0.1533,0.776 0.0875,0.7094 0.4734,1.1817 -0.4934,1.2398 -0.3066,0.0183 0.1746,0.6353 -1.2563,0.4509 l -0.0443,-0.006 c -0.345,-0.0445 -0.4208,-0.2417 -1.1142,-0.2438 -0.302,-0.001 0.171,-0.2175 -0.6373,-0.2643 -0.073,-0.004 -0.1634,-0.0525 -0.1774,-0.1127 -0.1609,-0.0253 -0.0079,-0.5166 -0.7392,-0.5746 l -0.0425,-0.024 c -0.2253,-0.2103 -0.2427,0.0532 -0.4745,-0.4454 -0.0628,-0.1349 -0.5389,-0.4333 -0.6544,-0.0145 -0.0787,0.2861 -0.4156,0.0563 -0.8238,0.2142 -0.0214,0.0303 -0.391,0.4529 -0.4121,0.6967 -0.0238,0.277 -0.017,1.7973 -0.0683,1.8162 -0.6235,0.2294 -1.1692,-0.1226 -1.2842,0.4396 -0.0215,0.1056 -0.3334,0.32 -0.4222,0.3668 -0.434,0.008 -1.0901,0.0627 -1.1076,-0.5017 -7e-4,-0.0244 -0.063,-0.0847 -0.0924,-0.0979 -0.0929,-0.0418 -0.5095,0.0359 -0.5429,-0.0649 l -0.0685,-0.0443 c -0.0356,-0.0421 -0.0713,-0.0723 -0.1194,-0.1274 -0.0587,-0.407 -0.0877,-0.4392 -0.0877,-0.9293 v -0.0463 c 0,-0.9586 -0.1608,-0.8237 0.6208,-1.2099 0.3856,-0.1904 0.5391,-0.9137 -0.0944,-1.1529 -0.4917,-0.1857 -1.581,0.1505 -1.9121,0.5255 -0.2162,0.2449 -0.2358,0.3316 -0.5875,0.3316 -0.3815,0.0734 -0.3317,0.0652 -0.8444,0.1293 l -0.0761,0.009 c -0.6794,0.0848 -0.4091,-0.3549 -1.3188,-0.3161 -0.075,0.003 -0.4342,-0.1866 -0.4213,-0.4878 0.0157,-0.3663 -0.3803,-0.701 -0.8729,-0.3315 -0.1501,0.1126 0.0775,0.2623 -0.1802,0.52 -0.0407,0.0407 -0.2662,0.2342 -0.2677,0.2404 -0.1398,0.0428 -0.5513,0.6724 -0.0615,0.6778 0.1297,0.001 0.6033,0.168 1.1929,0.1784 0.4759,0.008 0.2839,0.3892 0.6435,0.6439 0.3884,0.275 0.6924,0.7765 0.1223,1.0237 -1.002,0.4345 0.318,0.6392 -2.2652,0.6392 -0.6005,0 -0.5391,0.2895 -1.0845,-0.1496 -0.3696,-0.2975 -0.9664,-0.5892 -1.0662,-1.0217 -0.0422,-0.009 -0.0681,-0.0268 -0.0997,-0.0685 -0.2996,-0.0423 -0.4881,-0.1507 -0.5983,-0.4105 -0.4546,-0.1084 -0.4962,-0.3077 -0.7006,0.1869 -0.1746,0.4224 -0.0775,0.6206 -0.8223,0.534 -0.7167,-0.0832 -0.5167,0.1238 -1.2283,-0.1089 -0.0243,-0.008 -0.0286,-0.006 -0.0722,-0.004 -0.2085,-0.8101 -0.212,-0.4844 -0.8425,-0.7943 -0.2466,-0.1213 -0.2815,0.1392 -0.6545,-0.1572 -0.473,-0.3759 -0.8633,0.0298 -1.5738,-0.2781 -0.1426,-0.7076 -0.2008,-0.687 0.3658,-1.2536 0.2976,-0.2976 0.2216,-0.3831 0.6208,-0.6265 l 0.0444,-0.0406 c 0.0766,-0.07 0.3989,-0.2071 0.693,-0.3401 l 0.0475,-0.0216 c 0.2967,-0.1342 0.356,-0.2584 0.8337,-0.4827 0.6292,-0.2953 1.2265,-0.9273 1.9422,-0.9273 0.8582,0 0.6864,0.0484 1.4203,-0.2902 0.3298,-0.1522 0.6224,-0.3603 1.0072,-0.3972 0.0493,-0.005 0.5996,-0.1798 0.6227,-0.192 0.0198,-0.0105 0.0176,-0.0261 0.0222,-0.048 0.4598,-0.1807 0.2559,0.1469 0.9774,-0.3808 0.2619,-0.1915 0.4577,-0.616 1.0141,-0.9863 0.0282,-0.0188 0.3593,-0.4636 0.4156,-0.529 0.3503,-0.407 -0.0756,-0.2938 0.7462,-0.8627 l 0.0906,-0.0628 c 0.563,-0.3896 0.0713,-0.4156 1.2283,-0.8311 l 0.0989,-0.0355 c 0.2826,-0.1014 0.2501,-0.53 1.1111,-0.2969 1.0226,-0.4175 2.8596,0.6171 3.5657,-0.4032 0.1648,-0.2381 1.0302,0.1564 1.7539,-0.4118 l 0.1142,-0.0549 c 0.0274,-0.007 0.7333,-0.5142 0.8034,-0.5669 0.0345,-0.0259 0.0869,-0.0696 0.1002,-0.1095 0.8272,-0.2764 2.0153,-1.5408 3.34,-2.2471 1.275,-0.6798 0.6904,-3.1489 1.0726,-4.0775 0.2271,-0.5517 -0.1922,-2.8008 -0.1096,-3.8552 -0.0953,-0.4406 0.2307,-2.3452 -0.2269,-2.5195 -0.2284,-0.7476 -0.4884,-0.4846 -0.3739,-1.3186 0.0136,-0.0991 0.0206,-1.2978 0.0206,-1.4894 -0.0114,0.002 -0.5404,-0.7624 -0.5416,-0.7673 -0.1552,-0.0436 -0.1963,-0.1996 -0.7015,-0.2992 -0.3101,-0.061 -0.5451,-0.6476 -0.993,-0.9742 L 91.892,150.841 c -0.4952,-0.361 -0.2308,-0.4856 -1.2135,-0.4642 -0.1082,0.002 -0.0496,-0.005 -0.1021,-0.031 -0.1063,-0.1788 -0.5238,-0.2593 -0.5968,-0.4507 -0.3504,-0.107 -0.3707,-0.5374 -0.3707,-0.8272 0,-0.3847 0.0853,0.0124 -0.0638,-0.4475 -0.1236,-0.381 0.4923,-0.158 0.6789,-0.726 0.0325,-0.0991 0.107,-0.0513 0.1113,-0.181 0.2249,-0.3858 -0.2435,-0.8292 0.2911,-1.1898 0.2927,-0.1975 0.0378,-0.68 0.5474,-1.1999 l 0.0315,-0.0323 c 0.7791,-0.7949 0.3592,-0.2942 0.5532,-0.9265 0.08,-0.2605 0.3971,-0.2551 0.5849,-0.6023 0.0739,-0.1364 0.7185,-0.4946 0.8537,0.1374 0.0477,0.2232 0.3996,0.2914 0.6206,0.2228 0.763,-0.2369 0.0219,-0.3029 0.6109,-0.7438 0.1605,-0.1201 -0.2641,-1.0451 -0.0471,-1.6964 0.0616,-0.1849 -0.0726,-0.2519 0.1302,-0.4603 -0.0254,-0.1415 -0.1467,-0.4766 -0.3217,-0.5043 -4e-4,-0.002 -0.3367,-0.4218 -0.4307,-0.7992 -0.5269,-0.7196 0.2791,-0.8506 -0.9136,-1.1925 -0.3416,-0.098 -0.3649,-1.0836 -1.2677,-1.0548 -0.342,0.0108 -0.9968,-0.8672 -1.2096,-0.9382 -0.011,-0.0497 -0.5239,-0.435 -0.537,-0.436 z"
   class="fil5 str1"
   id="_186302312" />
     <path
   d="m 134.385,122.828 c 0,-0.9378 0.1732,-1.8033 0.1374,-2.9257 -0.028,-0.8775 0.3529,-0.4477 0.1333,-2.3345 -0.2057,-1.7682 0.1767,-1.6803 0.0746,-2.9872 -0.015,-0.1918 -0.8044,-0.8401 -0.96,-0.8919 -0.0108,-0.0325 -1.8636,-1.2618 -2.0978,-1.5904 -0.0272,-0.0381 -0.1004,-0.1316 -0.1412,-0.1453 -0.1616,-0.5285 -0.1591,0.1498 -0.2093,-0.9651 -0.004,-0.0771 -0.0785,-0.2446 -0.1642,-0.2943 -0.0373,-0.0786 -0.0529,-0.1072 -0.0529,-0.1073 -0.5859,-0.2233 -0.7938,-0.9104 -0.7938,-1.4451 0,-0.288 0.0196,-0.9603 -0.3362,-1.079 -0.0809,-0.2656 -0.3302,-0.1852 -0.4839,-0.9391 -0.006,-0.0279 -0.0569,-0.3068 -0.0935,-0.3145 -0.2551,-0.4027 -0.2308,-1.5774 -0.2308,-2.0619 -0.3154,-0.0498 -1.7967,-2.2535 -2.171,-2.6889 -0.0511,-0.0595 -0.0142,-0.0558 -0.1099,-0.1151 -0.0879,-0.7613 -1.8283,-1.365 -2.5792,-1.4491 -0.238,-0.0267 0.0616,-0.2304 -1.079,-0.1374 -0.1298,0.0106 -0.4582,0.0259 -0.56,-0.0502 -0.3409,-0.3774 -0.9434,-0.9536 -1.138,-1.3472 -0.006,-0.0118 -1.5101,-1.7541 -1.7535,-2.0741 -0.0809,-0.0617 -0.003,-0.049 -0.1047,-0.07 -0.0667,-0.3239 -1.1213,-1.1169 -1.5659,-1.1536 -1.1183,-0.0924 -1.4157,0.038 -2.6006,-0.1992 -0.0967,-0.0194 -2.0748,0.0027 -2.3427,0.0027 -0.0645,0 -0.1027,-0.0205 -0.1352,0.0349 0.0175,0 0.0465,-0.0288 0.0517,-0.0511 l -0.0673,-0.0022 c -0.7409,0.2396 -0.2312,0.4901 -1.4497,0.438 -0.0261,-0.0011 -0.8912,0.6871 -0.9222,0.7885 -0.042,0.0139 -0.1156,0.1851 -0.1291,0.2259 -0.3742,0.1428 -0.3091,1.4733 -1.1084,1.1103 -0.005,-0.0024 -0.246,-0.2384 -0.2638,-0.2638 -0.0799,0.0146 -0.0661,0.0049 -0.1153,0.0784 -0.0953,-0.2014 -0.2675,-0.1488 -0.3605,-0.7156 -0.008,-0.0512 -0.443,-0.5159 -0.5193,-0.6262 -0.7252,-1.0485 -0.7309,-1.4919 -2.1302,-1.4367 -0.0738,0.0029 -0.8898,-0.947 -0.8898,-0.9471 -0.6541,-0.1992 0.0319,-0.1697 -0.9997,-0.2485 -0.7762,-0.4865 -0.043,-0.386 -1.435,-0.386 -0.753,0 -2.1593,-0.1041 -2.8025,0.0913 -0.3616,0.1099 -0.0582,-0.1591 -0.5422,0.1641 -0.3474,0.0805 0.038,0.2288 -1.1389,0.2288 -0.451,0 -0.8661,-10e-5 -1.2266,0.2047 -0.4806,0.2731 -0.5513,0.9031 -0.971,1.6217 -0.2253,0.3857 -1.587,0.3769 -2.0657,0.4358 -0.9854,0.121 -0.7957,0.6152 -1.3234,-0.1477 -0.5984,-0.8652 -1.6035,-0.5022 -2.0656,-0.6621 -0.4992,0 -0.9203,0.0367 -1.3796,-0.0617 -0.0315,0.1688 -0.2735,-0.1236 -0.2988,-0.1965 -0.4661,-0.1307 -0.4027,-0.8799 -1.4792,-0.5219 -0.7413,0.2466 -1.4335,-0.1153 -2.0066,0.2905 -0.0761,0.0538 -0.1859,0.1182 -0.2149,0.213 -0.25,0.0953 -0.9333,0.593 -1.0652,0.828 -0.4579,0.817 -1.0265,0.4776 -1.3021,1.6462 -0.2363,1.0023 -0.7886,0.8091 -0.9332,1.517 -0.1236,0.605 -0.3169,2.7437 0.059,3.276 0.0076,0.0212 0.0027,0.0672 0.0027,0.0779 -0.5057,-0.7399 -3.0401,-0.4518 -3.9459,-0.4518 -0.2377,0 -0.3679,0.2259 -1.2505,0.2259 -0.632,0 -1.6653,-0.0534 -2.1949,0.1531 -0.2796,0.109 -0.4084,0.394 -0.6616,0.5717 -0.2856,0.5828 -1.0931,0.9091 -1.4123,1.5024 -0.233,0.433 -0.6142,0.1756 -0.5727,1.4763 0.0205,0.642 -0.9846,1.5147 -1.2911,2.4641 -0.0213,0.0663 -0.039,0.008 -0.0322,0.0941 -0.3683,0.4441 -0.1633,1.4034 -0.1305,1.9458 -0.0452,-0.0387 -0.0247,-0.0209 -0.0604,-0.0442 0.0588,0.8617 0.2579,1.3969 -0.5515,1.7189 -0.3015,0.1199 0.2221,0.5264 -0.3468,1.2882 -0.3468,0.4647 -0.3227,3e-4 -0.425,0.8798 -0.1278,1.0977 -0.0996,1.1013 -0.0996,2.1837 0,1.0004 -0.1337,1.1795 0.3983,1.9902 0.2524,0.3845 0.1892,1.5728 0.5391,2.2219 0.2223,0.4126 1.7931,1.0639 2.2874,1.8052 0.3693,0.5539 -0.1263,0.895 -0.1263,1.4063 -0.1875,0.3941 -0.0527,0.11 -0.0729,0.1697 0.2827,0.408 0.4057,1.0317 -0.0101,1.4119 -0.7509,0.6866 0.1203,0.491 -0.5625,1.1057 -0.4966,0.4471 0.2864,0.6236 -0.5294,1.4146 -0.0498,0.0483 -0.0267,-0.006 -0.0378,0.0405 -0.6448,0.2154 -0.3439,1.941 -0.0461,1.9746 0.302,0.5512 2.1656,1.3179 2.6895,1.8821 0.0012,-0.0667 -0.0128,-0.116 -0.0723,-0.1421 0,0.0356 0.0943,0.0502 0.1249,0.0669 0.1099,0.8172 0.8246,0.6887 0.7761,1.8236 -0.0295,0.691 -0.1107,1.6366 0.5016,2.086 0.2796,0.2052 0.2142,0.1467 0.4934,0.2435 0.0325,0.0941 0.8304,0.9289 1.0466,1.1453 l 0.0563,0.0563 c 0.3969,0.3973 0.3212,0.5578 0.9305,0.8152 0.306,0.1292 0.4543,0.6013 1.0144,0.4814 l -0.1097,0.1476 c -0.2624,0.3525 0.4592,0.7156 1.0374,0.5846 0.5487,-0.1243 0.5078,0.3556 1.6323,-0.2259 0.7419,-0.3837 1.3423,0.2003 2.5987,-0.0365 0.3073,-0.0579 0.318,-0.2539 0.9656,-0.3242 0.6694,-0.0727 0.9751,-0.1674 1.2356,0.4173 0.3288,0.3372 1.0072,0.7564 1.2764,0.2283 0.4603,-0.9035 2.2655,-0.2688 1.7751,-1.5926 -0.2939,-0.7934 0.1614,-1.2017 0.7239,-1.8987 0.0733,-0.0908 0.1633,-0.1596 0.1854,-0.2878 0.6095,-0.2492 1.6126,0.0257 2.0531,-0.2882 0.5731,-0.4084 2.0822,-0.2175 2.5975,0.1713 0.0847,0.0639 0.42,0.1445 0.438,0.1989 0.4433,0.1354 0.7969,1.0701 1.4759,1.2086 1.1046,0.2254 1.4397,0.087 2.1634,-0.1284 0.0904,-0.0786 0.2858,-0.1815 0.3171,-0.2721 0.0254,-0.0735 0.9837,-0.2492 1.1931,-0.8712 0.1169,-0.3475 0.2197,-0.7356 0.2865,-1.5396 0.007,-0.0843 0.006,-0.4027 0.0768,-0.4272 0.0368,-0.2156 1.7471,-0.8948 2.5752,-0.4238 1.0136,0.5765 1.6546,2.3318 2.43,0.8815 0.1593,-0.2981 0.0304,-0.3988 0.259,-0.7323 0.4082,0 0.9672,-0.107 1.3085,0.1333 0.0559,0.0148 -0.1633,1.1783 -0.1514,1.3634 -0.1196,0.0592 0.9349,0.1041 0.849,0.1433 0.016,0.1087 0.002,0.2614 0.0269,0.3779 0.0725,0.3451 0.8104,0.2512 0.8587,0.862 0.0833,0.009 0.2141,0.2785 1.434,0.2785 0.5856,0 1.3863,-0.127 1.9194,-0.3047 0.0428,-0.1284 0.2676,-0.0235 0.4302,-0.0733 -0.0309,-0.2987 -0.2159,-0.1743 -0.2407,-0.4159 1.3427,0.273 1.0792,-0.3371 3.1441,0.3977 0.1674,0.0594 0.4133,0.1811 0.5376,0.2132 l 0.2014,0.0339 c 0.5953,0.1003 0.6498,0.2131 1.1261,0.378 0.7836,0.2712 0.9146,1.6738 1.5603,1.85 0.6025,0.1644 2.0846,0.4152 2.447,-0.0667 0.5201,-0.6917 0.9167,-0.7883 2.0586,-0.5774 0.0567,-0.1091 0.0307,-0.1003 0.064,-0.2146 1.2999,0.1903 1.356,-0.1191 2.1934,-0.3126 0.044,-0.127 0.7973,-1.2535 0.8226,-1.2941 0.228,-0.3666 0.2585,-2.1248 0.8214,-3.0127 0.4598,-0.7252 1.6128,-0.8129 1.793,-1.9147 0.086,-0.5251 0.2324,-0.7476 0.1335,-1.4726 0.0813,0.003 0.0279,0.0258 0.1112,0.0196 -0.1182,-0.2098 -0.6552,-0.6019 -0.6789,-0.6644 -0.1739,-0.0532 -0.7077,-0.6185 -0.2982,-1.2032 0.2274,-0.9873 4.0588,-0.3686 5.0621,-0.7912 0.0572,-0.01 1.3656,-1.6545 0.8469,-2.1215 -1.1373,-1.0238 0.5035,-0.6708 0.5035,-1.5785 0,-0.2514 -0.0458,-0.2391 -0.0458,-0.4696 z"
   class="fil6 str1"
   id="_186301160" />
     <path
   d="m 90.4705,115.514 -0.0217,-0.0641 c -0.0457,-0.1351 -0.4669,-0.4808 -0.7675,-0.2694 -0.1084,0.0763 -0.1839,0.4743 -0.6252,0.7876 -0.254,0.1801 -0.5164,-0.009 -0.8495,0.4419 -0.3723,0.5041 -0.624,0.1643 -1.1859,0.3412 -0.1291,0.0407 -1.4774,0.1221 -1.5234,-0.0982 -0.1376,-0.0139 0.061,-0.1839 -0.3574,-0.2605 -0.3388,-0.062 -0.8207,-0.6338 -0.8207,-1.0796 0,-0.6494 0.3384,-0.4329 0.72,-0.5867 0.8918,-0.3597 0.0663,-0.7758 0.7037,-1.2522 0.3535,-0.2642 0.2002,-0.0221 0.1756,-0.65 -0.007,-0.1782 0.6271,-0.3556 0.7973,-0.4496 0.3129,-0.1729 1.292,-0.5218 1.4085,-0.8157 0.2068,-0.5224 0.8693,-0.4597 1.3529,-0.41 0.3432,0.0353 0.2085,0.558 0.635,0.8259 l 0.0401,0.0252 c 0.2032,0.2039 0.219,0.1462 0.4386,0.4454 0.1252,0.1707 0.7249,0.585 0.4668,1.0229 -0.1615,0.2736 -0.431,0.3272 -0.4248,0.657 0.0191,0.0547 0.0044,0.0452 0.0387,0.127 0.1994,0.1662 -0.0446,0.0344 0.299,0.2036 0.1431,0.0705 0.4531,0.3256 0.5419,0.4472 0.0364,0.05 0.0754,0.0945 0.137,0.1132 0.0636,0.1655 0.3912,0.2367 0.5766,0.2294 0.0468,-0.002 0.0782,0.0574 0.087,0.0932 0.0631,-0.0187 0.1868,-0.0353 0.2681,-0.0675 0.439,-0.008 -0.0068,-0.336 0.9517,-0.336 0.3274,0 0.3177,0.2396 0.7281,0.3716 0.136,0.0437 0.5743,0.3838 0.3042,0.7138 -0.3491,0.4264 -0.5656,1.0033 -0.4504,1.5785 0.1468,0.7329 0.9384,0.9206 1.151,1.3857 0.3497,0.7655 0.3169,0.1411 0.3169,1.2153 0,0.5779 0.1247,1.1274 0.7264,1.378 0.8164,0.34 0.5574,1.2982 1.4904,0.8951 0.0435,-0.0188 0.0912,-0.0578 0.1014,-0.1075 0.0049,-6e-4 0.3479,-0.2505 0.3939,-0.2734 0.2224,0.0623 0.1977,0.0153 0.4212,0.0898 0.1013,0.2664 0.4002,0.3017 0.2619,0.7011 -0.1146,0.4702 -0.2692,0.8718 -0.1719,1.3488 0.0126,0.0618 0.0185,0.631 0.0579,0.9001 0.1035,0.7067 -0.2187,1.2236 0.0336,2.1303 0.005,0.0179 0.0447,0.4067 0.0369,0.4177 -0.0089,-0.012 -0.0168,-0.0256 -0.0223,-0.0383 0.1007,0.1309 0.3684,0.3668 0.4952,0.4936 0.5061,0.5061 0.4451,0.6589 0.7369,1.028 0.1176,0.1028 0.5455,0.7553 0.5959,0.7722 l 0.0193,0.0352 c 0.2057,0.3763 1.2021,1.1089 1.3084,1.3619 0.0354,0.0842 0.6461,0.7972 0.6929,0.8971 0.0152,0.006 0.521,0.4668 0.5225,0.4694 0.1656,0.026 0.3331,0.4346 0.4211,0.4276 0.078,0.3281 0.0995,0.2045 0.1526,0.6367 0.009,0.0698 0.4581,0.5376 0.6141,0.6223 0.3599,0.1953 0.4054,-0.036 0.6398,-0.4022 0.0187,-0.1007 0.1398,-0.2052 0.209,-0.2813 -0.0216,-0.0143 -0.0243,-0.003 -0.0466,-0.032 0.1685,-0.1939 0.0181,-0.1499 0.3233,-0.415 l 0.0369,-0.032 c 0.003,-8e-4 0.2223,-0.1375 0.2507,-0.1543 0.2602,-0.1545 0.4495,-0.104 0.6543,-0.2172 0.003,-0.0255 0.004,-0.0367 0.0276,-0.0446 0.0524,-0.2164 0.0846,0.0214 0.0495,-0.4233 -0.0371,-0.4705 -0.3307,-1.9523 -0.0678,-2.2714 0.0997,-0.1209 0.6683,-0.5084 0.9326,-0.7811 0.3933,-0.4056 0.3329,-0.2723 0.3329,-0.9502 -0.081,0.0633 -0.0423,0.033 -0.0485,0.0386 l 0.008,-0.1303 c 0.0511,-0.0206 0.0659,-0.1495 0.1081,-0.1593 l 0.0152,-0.0468 c 0.009,-0.0288 0.291,-0.3319 0.3977,-0.6257 0.168,-0.4624 -0.1774,-0.526 0.0543,-1.151 0.165,-0.4452 0.3476,-0.1094 0.3977,-0.5888 0.0499,-0.4771 0.2794,-0.5981 0.5813,-0.8913 0.2819,-0.2738 0.0703,-0.1869 0.5406,-0.5601 0.2923,-0.232 -0.1885,-0.2473 0.5906,-0.5723 0.0223,-0.009 0.3152,-0.2294 0.3277,-0.2431 -0.0206,-0.1307 -0.0103,-0.9874 0.0608,-1.0537 0.1887,-0.1761 0.0788,-0.0169 0.2018,-0.2247 0.0167,-0.0163 0.0124,0.002 0.0235,-0.0298 0,-0.0283 -0.003,-0.0793 0.076,-0.0759 0.2875,0.0123 0.0239,-1.6473 0.1139,-1.8407 0.2835,-0.6086 0.4168,-0.3876 0.6116,-0.8707 0.1767,-0.4382 0.2981,-0.6023 0.5853,-0.9903 0.2262,-0.3059 0.201,-0.6019 0.5505,-0.7621 0.8833,-0.4047 0.4256,-0.6392 0.8649,-1.2917 0.1424,-0.2115 0.4042,-0.3382 0.4188,-0.3402 0.3118,-0.1046 0.4567,-0.1044 0.7782,-0.1044 0.2006,0 0.585,0.0914 0.5888,0.0912 0.2867,-0.0122 0.8509,0.1979 0.9521,0.4611 0.0166,0.006 0.0387,0.016 0.0534,0.0252 0.3615,0.2257 0.3303,0.4612 0.0225,0.6878 -0.3049,0.2243 -0.0587,0.6599 -0.1619,0.7202 -0.4729,0.2768 -0.291,0.5948 -0.6825,0.7828 -0.4922,0.2364 -0.7219,0.6001 -0.7459,1.118 -0.0231,0.4998 -0.465,0.7112 -0.6495,1.207 -0.0877,0.2358 -0.2589,0.5168 -0.4763,0.6674 -0.5971,0.4134 -0.1639,0.936 -0.3217,1.3464 l -0.0252,0.0655 c -0.0367,0.1729 -0.0633,0.4587 -0.1823,0.5775 -0.3003,0.2998 -0.2373,0.6366 -0.413,0.7346 l -0.0265,0.0238 c -0.4219,0.3805 -0.5929,0.0725 -0.7333,0.6826 -0.0619,0.0142 -0.1291,0.0895 -0.1519,0.0977 -0.2915,0.1044 -0.5538,0.6241 -0.561,0.9257 -0.003,0.125 -0.3107,0.149 -0.5445,0.2834 -0.2174,0.1251 -0.138,0.5661 -0.138,0.7889 0,0.3387 -0.1732,0.4554 -0.1645,0.4915 -0.1163,0.111 -0.7679,0.2002 -1.0477,0.409 -0.3246,0.2422 -0.1057,0.1435 -0.277,0.333 -0.2344,0.2592 -0.3852,0.4516 -0.6867,0.6709 0.0362,0.4703 0.0409,0.8392 0.2429,1.2505 0.0332,0.0172 0.1837,0.2713 0.2411,0.2912 0.007,0.0459 0.4627,0.3857 0.796,0.3857 0.367,0 1.0796,-0.0836 1.3734,0.1263 1.0283,0.7344 0.0106,0.7017 -0.47,1.1353 -0.0897,0.0809 -1.3044,0.9343 -1.3329,0.9376 -0.0299,0.0568 -0.315,0.1579 -0.3857,0.193 -0.4944,0.2448 -0.3644,0.1196 -0.7155,0.1912 -0.1364,0.0278 -0.704,0.3789 -0.754,0.5965 -0.4582,0.1583 -0.3862,0.5007 -0.4578,0.4979 -0.2604,0.4356 -0.3258,0.9023 -0.699,1.5881 -0.0931,0.1711 -0.4399,0.6426 -0.4475,0.6673 -0.0216,0.005 -0.6287,0.6847 -0.6351,0.7136 -0.9733,0.2359 -1.367,-0.5341 -1.4432,-0.2039 -0.4365,-0.0374 -0.1147,1.4761 -0.9797,1.0451 -0.3028,-0.151 -1.0169,-1.401 -1.9528,-0.352 -0.0535,0.0204 -0.0532,0.01 -0.1078,0.0408 -0.027,0.1874 -0.002,0.9825 -0.002,1.2189 -0.1685,0.5401 0.3004,1.7439 0.3004,2.7071 0,0.6915 0.2257,3.7649 -0.2597,4.0999 -0.1021,0.0705 -0.0974,0.0639 -0.1362,0.1749 -0.085,0.0166 -1.0256,0.6701 -1.2221,-0.294 -0.0226,-0.1108 0.1726,-1.4628 -0.6303,-0.8825 -1.0372,1.2026 -0.8312,2.0645 -0.8312,3.7335 0,0.664 -0.193,2.4884 0.7887,2.4066 0.7857,-0.0653 0.3215,-1.5185 0.7039,-2.191 0.7674,-1.3496 -0.1993,-0.649 0.2318,-1.8117 0.0375,-0.4056 0.8049,-0.3008 1.2145,0.3847 l 0.0526,0.0879 c 0.4169,0.6977 0.1089,3.4061 0.3165,4.425 0.0365,0.1784 0.4505,2.2272 0.9169,1.6197 0.3344,-0.4356 1.0371,-1.6618 1.5489,-0.6304 0.0157,0.0317 0.0469,0.1014 0.0536,0.1341 0.6889,0.1425 0.7169,0.8359 0.8011,1.0173 0.0365,-0.0665 0.0198,-0.0595 0.0187,-0.072 0,1.0677 0.033,1.4918 0.1158,2.5065 0.1103,1.3489 0.1253,2.7234 0.2629,4.0376 0.1713,1.6369 -0.335,2.1247 0.3477,3.9336 0.3749,0.9932 0.3241,3.0375 0.0483,4.0608 -0.5518,0.3309 -1.6452,0.691 -1.8187,1.015 -0.5056,1.6033 0.798,1.4568 0.8905,2.7861 0.056,0.8034 -0.4437,1.1672 -1.2865,1.2574 l -0.0901,0.01 c -0.4384,0.047 -0.9704,-0.003 -1.3991,-0.003 l -0.1975,-0.2726 c -0.0737,0.0256 -0.1194,-0.0347 -0.2345,-0.0703 -0.3887,-0.12 -1.3269,0.364 -0.9855,-0.596 0.1552,-0.4363 0.7174,0.049 0.8885,-1.3895 0.1504,-1.2643 -0.3888,-0.7637 -0.5848,-1.4057 -0.1257,-0.0418 -0.7773,-1.2777 -1.5398,-0.3841 -0.8349,0.9788 -0.2935,1.4516 -1.5558,2.4003 -0.0018,0.001 -1.2471,0.6413 -1.5461,0.8197 -1.9176,1.1441 -2.5819,0.3141 -3.4454,0.7791 -0.4033,0.2172 -1.0241,0.1162 -1.441,0.4211 -0.2085,0.1524 0.1565,1.4701 -0.2457,1.5601 -0.4678,0.1046 -0.9815,0.1515 -1.2736,-0.4104 -0.0582,-0.1121 -1.0983,-1.3367 -1.1868,-1.3638 -0.0651,-0.1957 -1.008,-1.1722 0.4914,-1.0675 0.6656,0.0464 1.2107,0.4806 2.116,0.0879 0.7588,-0.3292 1.474,-0.0189 2.3187,-0.4162 l 0.1598,-0.0752 c 1.2059,-0.5674 1.6612,-0.8496 2.8134,-1.6556 0.4215,-0.2948 1.0904,-1.1991 1.0548,-1.8531 -6e-4,-0.0111 0.09,-1.1958 0.1094,-1.3326 l 0.0129,-0.0912 c 0.0302,-0.2145 -0.0052,-0.5468 0.0654,-0.632 l -0.0623,-0.162 c -0.1634,-0.4255 0.0405,-3.5047 -0.2349,-4.1756 -0.0621,-0.7103 -0.1534,-0.8045 -0.1534,-1.7559 0,-0.0773 0.0138,-0.4889 -0.0064,-0.5472 -0.547,-0.113 -0.3736,-3.3235 -0.3348,-3.8928 0.0352,-0.5175 0.1346,-1.1606 0.0032,-1.6717 -0.1892,-0.7358 -0.0418,-1.3394 -0.4378,-2.4196 -0.0756,-0.0251 -0.3496,-0.8445 -0.4635,-0.9978 -0.1285,-0.173 -0.416,-0.8243 -0.5763,-0.8853 l -0.059,-0.1138 c -0.3554,-0.6851 -1.5333,-1.3115 -1.6524,-1.8958 -0.2064,-1.0127 -0.3749,-0.543 -0.1518,-1.6664 -0.0344,-0.4364 1.388,-0.6724 1.388,0.7682 0,0.8809 0.3875,0.6278 0.8605,0.5054 0.0155,-0.0749 0.5892,-0.7808 0.6025,-0.8074 0.0139,-0.151 0.1591,-1.1762 0.227,-1.2752 0.307,-0.9621 0.1187,-4.8495 -0.0784,-5.8178 -0.1328,-0.652 -1.1417,-1.8992 -1.7672,-2.294 -1.0267,-0.6477 -2.0176,-1.5214 -2.7705,-2.4411 -0.1553,-0.1898 -0.7637,-0.786 -0.9581,-0.8509 -0.0118,-0.0353 -0.4233,-0.2963 -0.4722,-0.3133 -0.1855,-0.2038 -0.5392,-0.3101 -0.6599,-0.5516 -0.0229,-0.0456 -0.7025,-0.8074 -0.8808,-1.1028 -0.1474,-0.2443 -0.5417,-0.4384 -0.7783,-0.8439 -0.5936,-1.0174 -1.4258,-0.1344 -2.1556,-0.754 -0.2154,-0.183 -0.4519,-0.4179 -0.5258,-0.6686 -0.1745,-0.5914 -0.0623,-0.4277 -0.4162,-0.8924 -0.1812,-0.2379 -0.4628,-0.337 -0.8311,-0.7716 -0.4992,-0.5891 -0.0795,-0.2789 -0.8069,-0.7407 -0.1897,-0.1204 -0.2881,-0.206 -0.4873,-0.3203 l -0.0336,-0.0193 c -0.2233,-0.1281 -2.4457,-0.0639 -2.7444,0.0386 -0.531,0.1821 -0.8393,0.6446 -1.352,0.8537 -1.0846,0.4427 -0.9956,1.4227 -2.4208,1.4227 -0.3401,0 -0.1225,-0.6323 -0.4326,-0.8857 -0.2976,-0.2435 -1.2087,-0.8859 -0.8862,-1.2298 0.3292,-0.3509 0.2139,-0.2892 0.6354,-0.5517 0.2363,-0.1472 1.4218,0.07 2.0449,-0.1753 0.2432,-0.0957 0.1839,0.0244 0.4597,-0.1813 0.1718,-0.1281 1.8083,-0.921 2.0183,-0.952 0.2328,-0.0857 0.4291,0.0259 0.7629,-0.114 0.1791,-0.2183 0.0988,-0.3357 0.1615,-0.6768 0.387,-0.2734 0.4143,0.009 0.8013,-0.333 0.7814,-0.6898 0.3674,-0.6952 0.2476,-1.0736 -0.2599,-0.384 -0.3757,-1.2268 -0.2619,-1.6012 0.1009,-0.3317 0.0874,-0.7672 -0.2091,-1.004 -0.1102,-0.028 -0.3508,-0.3779 -0.6447,-0.4621 -3e-4,-1e-4 -0.147,-0.0922 -0.1526,-0.0964 -0.0337,-0.025 -0.0847,-0.0575 -0.124,-0.0706 -0.0302,-0.0794 -0.0932,-0.0711 -0.2667,-0.3396 l -0.0353,-0.0546 c -0.1022,-0.158 0.0981,-0.6155 0.0981,-0.6156 0.1949,0.0166 0.032,-0.1162 0.4563,0.0353 0.1696,0.0605 1.0195,0.7086 1.222,0.8697 l 0.0513,0.0662 c 0.1499,0.1934 1.2269,0.3027 1.4517,0.5352 0.3333,0.3445 0.3998,0.5606 0.3314,1.1172 -0.0621,0.5048 -0.0221,0.933 -0.1914,1.3697 -0.1075,0.2775 -0.0357,1.0099 -0.1643,1.0528 -0.0092,0.0304 -0.0214,0.0461 -0.0479,0.0644 -0.0295,0.3449 -0.5513,0.5967 -0.1769,0.8601 0.0048,0.003 0.6246,0.1823 0.9453,0.3905 0.4185,0.2716 0.2189,0.2318 0.6863,0.3958 0.5588,0.1961 0.695,0.4339 1.1422,0.7185 0.4334,0.422 0.4941,0.5602 0.8127,0.9356 0.7935,0.9345 0.4707,0.7076 1.4419,1.4705 0.3117,0.2448 1.222,1.0736 1.222,1.5003 -0.1644,0.6913 0.6107,1.4018 1.0367,1.8696 0.3112,0.3417 0.2697,0.3516 0.7028,0.8037 l 0.0882,0.092 c 0.005,0.005 0.6784,0.5472 0.8411,0.7039 0.5209,0.5016 0.7685,0.2108 1.2423,0.5257 0.2243,0.149 0.6157,0.3448 0.8505,0.4261 0.037,0.1789 0.6769,0.8184 0.6691,0.8571 0.2894,0.1808 0.4314,0.3993 0.9034,0.6492 0.2494,0.1321 0.67,0.1109 0.9579,0.1109 0.2416,0.0321 0.7283,-0.0534 0.9535,-0.1285 0.0412,-0.108 0.2891,-0.0444 0.4867,-0.264 0.0466,-0.0517 0.3374,-0.0537 0.5992,-0.2249 0.4692,-0.3067 0.7003,-0.5875 0.7595,-1.1624 0.0435,-0.4222 0.003,-0.2112 0.0772,-0.7187 l 0.011,-0.0755 c 0.2609,-0.7108 0.2334,-0.9303 0.006,-1.6549 -0.2158,-0.687 -0.7527,-1.0572 -1.3142,-1.3723 -0.4516,-0.2533 -0.9055,-0.8597 -1.2458,-1.2841 -0.0338,-0.0422 -0.4668,-0.9138 -0.4805,-0.9552 -0.0294,-0.01 -0.1224,-0.2127 -0.1224,-0.2811 -0.0898,-0.0752 -0.1076,-1.5422 -0.2266,-1.9821 -0.0431,-0.1593 0.009,-0.4428 -0.1367,-0.6465 -3e-4,-4e-4 -0.0521,-0.0766 -0.0529,-0.0788 -0.3507,-0.1071 -0.5019,-0.9236 -0.5997,-1.217 -0.1178,-0.0393 -0.6787,-1.1562 -0.8747,-1.3534 -0.0525,-0.0776 -0.6841,-0.4293 -0.9905,-0.8954 l -0.0253,-0.0386 c -0.0136,-0.0207 -0.5776,-1.1661 -0.6691,-1.3504 -0.006,-0.0121 -0.0712,-0.2227 -0.0898,-0.2701 -0.3526,-0.6045 0.0126,-0.702 -0.2751,-1.4887 -0.1195,-0.3267 -0.41,-0.7554 -0.437,-1.0836 -0.0576,-0.6983 -0.5998,-0.1048 -0.5998,-1.1894 0,-0.5105 -0.8768,-0.9127 -1.3407,-1.4934 -0.0429,-0.0537 -0.117,-0.1553 -0.1447,-0.1657 z"
   class="fil3 str1"
   id="_186309200" />
     <path
   d="m 82.4742,132.471 c 0.0944,0.5524 1.6357,0.5578 0.582,1.352 -0.1642,0.1238 -0.3192,-0.097 -0.7607,0.2188 -0.5844,0.4182 -1.208,1.9135 -1.535,0.969 -0.0471,-0.0838 -0.0233,-0.1134 -0.0751,-0.2629 -0.3567,-0.5945 -0.6335,-0.1343 -0.6335,-1.2629 0.3617,0.0285 1.1118,-0.3313 1.3991,-0.7886 0.4001,-0.6369 0.683,-0.4505 1.0403,-0.3552 0.006,0.0231 -0.0201,0.1125 -0.0171,0.1298 z"
   class="fil3 str1"
   id="_186302816" />
     <path
   d="m 74.3357,117.132 c 0.033,0.006 0.3064,-0.4682 0.5336,-0.5468 1.6884,-0.5845 0.8226,0.624 1.4303,0.7479 0.3445,0.0702 0.2811,0.6554 0.5976,0.9265 0.4408,0.5945 1.1504,-0.7057 1.9529,-1.0328 0.5604,-0.2283 1.1578,-1.1686 0.5634,-1.6025 -0.0313,-0.0428 -0.0561,-0.0624 -0.088,-0.0745 -1e-4,-2e-4 -1.2263,-1.4807 -1.6584,-1.4807 -0.3775,-0.1296 -0.7122,0.3035 -0.9201,0.3755 -1.0547,0.3651 -1.144,-0.1043 -2.4002,0.1909 -0.0963,0.0226 -1.0989,0.4397 -1.0923,0.8042 0.0041,0.23 -0.2063,1.4559 0.0751,1.5211 0.0179,0.2091 0.6709,0.2215 0.7919,0.2693 0.1408,-0.0919 0.0316,-0.0426 0.2142,-0.0981 z"
   class="fil3 str1"
   id="_186300128" />
     <path
   d="m 76.9647,110.291 c -0.4124,0.1156 -0.9743,0.1417 -1.2681,-0.0658 -0.0277,-0.008 -0.0267,-0.007 -0.0408,-0.0256 -0.3185,-0.1985 -0.0547,-0.6924 -0.2661,-1.0899 -0.2685,-0.5048 -0.0524,-0.8963 -0.0651,-1.5147 -0.0039,-0.1932 0.1437,-0.6253 0.402,-0.7027 0.3563,-0.1066 0.4763,-0.0337 0.7787,-0.2604 l 0.0665,-0.0498 c 0.2332,-0.1748 0.5631,-0.3796 0.658,-0.6428 0.0841,-0.2332 0.541,-0.4979 0.553,-0.5184 0.5647,-0.0713 0.4659,-0.1026 1.0989,-0.1026 0.4566,0 0.4415,0.3303 1.0476,0.5252 0.2144,0.115 2.2102,0.1544 2.4791,-0.008 0.3358,-0.2022 0.8975,-0.3371 1.1557,-0.591 0.0552,-0.0338 0.3419,-0.3069 0.5495,-0.4642 0.0379,-0.0287 0.2191,-0.2334 0.2295,-0.2369 0.0857,-0.2798 0.5321,-0.4219 0.7758,-0.438 0.5677,-0.0375 0.2057,0.1132 0.6789,0.4743 0.2524,0.1925 1.3705,0.0562 1.7655,0.0731 0.3899,0.0168 0.5031,-0.1301 0.8466,0.1453 0.3025,0.2426 0.449,0.2698 0.8248,0.3426 l -0.0489,-0.078 c 0.4237,0.1083 0.9398,-0.1832 1.5037,-0.0137 0.1648,0.0496 0.1851,0.0912 0.2465,0.1055 0.0381,0.1451 0.3192,0.3973 -0.0014,0.7968 -0.0082,0.0103 -0.0224,0.02 -0.0346,0.0247 -0.0123,0.0399 -0.2866,0.2614 -0.4144,0.639 -0.1463,0.4329 -0.4687,0.6152 -0.9102,0.6152 -0.0381,0 -0.3912,-0.3527 -0.392,-0.3549 -0.0221,-0.007 -0.1291,-0.1186 -0.1235,-0.1439 -0.1285,-0.0361 -1.0605,-0.8315 -1.0904,-0.9203 -0.0951,-0.0318 -0.2205,-0.2261 -0.3136,-0.2547 -0.0331,-0.1005 -0.9156,-0.1642 -1.1278,0.1454 -0.0702,0.1025 -0.4587,0.5131 -0.632,0.7535 l -0.0303,0.0252 c -0.5665,0.469 -0.3279,0.5954 -1.1008,1.1903 -0.0106,0.0127 -0.4984,0.242 -0.5288,0.255 -0.308,0.1313 -0.5892,0.1855 -0.9327,0.2162 -0.2778,0.0248 -0.3675,0.1008 -0.7454,0.0859 -0.1223,-0.005 -0.2692,0.2993 -0.3401,0.334 -0.1901,0.3204 -2.6269,0.2681 -3.0464,0.1345 -0.4504,-0.1435 -0.7927,0.2658 -1.1488,0.5583 -0.3742,0.3073 -0.3879,0.9703 -0.9521,1.0172 -0.0137,0.001 -0.1137,0.0455 -0.1621,0.0527 0.0377,-0.006 0.0857,-0.0486 0.0561,-0.034 z"
   class="fil3 str1"
   id="_186307136" />
     <path
   d="m 86.4817,99.1543 c -0.1293,-0.5695 0.8175,-0.4726 1.1458,-0.4995 0.5304,-0.0434 1.0948,-0.0441 1.4371,0.4685 0.0585,0.1438 0.6953,0.4902 0.8513,0.5269 0.6244,0.1471 0.013,0.7692 -0.2714,0.7692 -0.298,0 -0.4555,0.1867 -1.2083,0.1867 -0.421,0 -0.9072,-0.0695 -1.3125,0.0812 -0.2083,0.0249 -1.2205,0.046 -1.2781,-0.0812 -0.0102,-0.0225 -0.0124,-0.0198 -0.0343,-0.0244 -0.114,-0.496 -0.1678,-0.3208 0.4545,-0.5149 0.2962,-0.0923 0.2153,-0.9155 0.2159,-0.9125 z"
   class="fil3 str1"
   id="_188210568" />
     <path
   d="m 98.3031,100.088 c 0.1142,-0.5806 0.5698,-0.7447 0.8955,-1.2681 0.3539,-0.5688 0.7135,-0.5491 0.8101,-0.6246 0.0184,-0.0144 0.6482,-0.2224 0.7656,-0.2713 0.2556,-0.1065 0.6137,0.2197 0.7744,0.3804 l 0.0433,0.0433 c 0.4968,0.4968 0.6778,1.0542 1.1258,1.297 0.4417,0.2396 0.2266,-0.0155 0.6198,0.5073 0.2115,0.2813 0.638,0.7096 1.0127,0.7638 0.3154,0.0457 1.4241,1.0007 -0.3526,1.0577 -0.0663,0.002 -0.718,0.1059 -0.7276,0.1054 -0.0289,0.0408 -0.391,0.2059 -0.4699,0.4652 -0.0288,0.01 -0.0389,0.0508 -0.0765,0.0652 -0.1506,0.4956 -1.3203,0.5579 -1.7385,0.5671 -0.2691,0.006 -0.8093,0.0188 -0.9226,0.2713 -0.1801,0.4015 -0.9127,1.0251 -1.3967,0.8053 -0.5053,-0.2295 -0.6212,-1.1405 -0.6997,-1.671 -0.0287,-0.1935 -0.0116,-1.5672 0.1182,-1.7604 0.0467,-0.2635 0.1676,-0.4737 0.2187,-0.7336 z"
   class="fil3 str1"
   id="_188213352" />
     <path
   d="m 104.473,105.635 c 0.026,-0.0675 0.0128,-0.04 0.0423,-0.0843 0.1412,-0.4063 0.2393,-0.4087 0.5159,-0.697 l 0.0776,-0.0172 c 0.1889,0.005 0.7515,0.6217 1.3551,0.1624 0.0602,-0.0458 0.6104,-0.3353 0.6637,-0.349 0.0455,-0.1423 0.1934,-0.1262 0.2056,-0.4131 0.009,-0.2082 0.2656,-0.5015 0.6293,-0.3732 0.0924,0.0326 0.3586,0.2039 0.368,0.2055 0.1513,0.5905 -0.223,0.5272 -0.083,0.9956 0.1892,0.6328 0.534,0.726 1.0145,1.1145 0.3849,0.3113 -0.457,1.0528 -0.9179,1.1721 -0.178,0.046 -1.4883,0.5865 -1.6313,0.7152 -0.4633,0.4169 -0.0737,0.564 -1.0109,0.9646 -0.5951,0.2545 0.2091,0.876 -1.284,0.9262 -1.295,0.0435 -1.5832,0.4251 -1.5832,-1.1045 0,-1.0287 -0.6065,-0.3896 -0.8035,-0.6358 -0.543,-0.6785 0.647,-0.8814 1.073,-1.037 0.005,-0.002 0.5248,-0.6199 0.7241,-0.788 0.0252,-0.0214 0.0197,-0.0389 0.0815,-0.0682 0.0125,-0.0185 0.21,-0.2075 0.2575,-0.2601 0.1769,-0.1961 0.2235,-0.2155 0.3057,-0.4287 z"
   class="fil3 str1"
   id="_188210592" />
     <path
   d="m 111.348,102.721 c 0.0584,-0.3729 -0.1297,-0.3323 -0.1591,-0.4734 -0.325,-0.0668 -0.4504,-0.4772 -0.3697,-0.7917 0.1217,-0.0419 0.6564,-0.6151 0.9107,0.0726 0.0742,0.5875 0.0696,0.4252 0.9315,0.4252 0.1419,0 0.3098,0.0241 0.439,-0.0207 0.004,-0.0251 0.4119,-0.5139 0.4771,-0.6376 0.1902,-0.3614 1.3092,-0.4917 1.5969,-0.192 0.2812,0.2931 0.0718,0.5466 0.6447,0.7258 0.2622,0.0821 0.6508,0.0997 0.8692,-0.0924 0.084,-0.3172 0.707,-0.3119 1.0059,-0.2196 0.45,0.0288 0.8257,0.5419 -0.0589,0.955 -0.6718,0.3136 -0.5189,0.7549 -1.13,1.1975 -0.4649,0.3366 0.003,0.7227 -0.9161,0.7502 -0.2646,0.008 -0.7274,0.0434 -0.9712,0.1227 -0.7921,0.2573 0.1452,0.4597 -1.8547,0.4597 h -0.048 c -0.459,0 -1.0943,-0.0189 -1.1685,-0.6221 -0.0825,-0.6711 -0.2853,-0.246 -0.1866,-1.0921 0.002,-0.0205 -0.0129,-0.5623 -0.0122,-0.5671 z"
   class="fil3 str1"
   id="_188206224" />
     <path
   d="m 110.156,111.702 c -0.32,-0.006 -0.0897,-0.002 -0.1263,0.005 -0.1074,0.2497 -0.5537,0.285 -0.7863,0.285 -0.2855,0 -0.4855,0.3861 -0.8053,0.6085 -0.155,0.1078 -0.6001,0.0847 -0.8287,0.1087 -0.2213,0.0234 -0.7296,0.8684 -1.1296,1.1061 -0.2458,0.146 -0.4687,0.2332 -0.6429,0.4805 -0.2764,0.3923 -0.1276,-0.0205 -0.4338,0.579 -0.1553,0.304 0.038,0.2209 -0.2765,0.5383 -0.1993,0.3056 -0.1554,0.0226 -0.1554,0.5969 0,0.5009 -0.009,0.2942 -0.0838,0.6785 -0.0455,0.0219 -0.4186,0.3963 -0.5539,0.4675 -0.0315,0.0167 -0.1098,0.057 -0.1208,0.0901 -0.1491,0.0454 -0.1821,0.2923 -0.3313,0.4113 -0.016,0.0182 -0.0151,0.0205 -0.0373,0.029 -0.0308,0.0929 -0.2463,0.7329 -0.2832,0.7555 -0.0143,0.1596 -0.38,0.1371 -0.4735,0.1694 -0.1087,0.5221 -0.0501,0.5522 -0.7051,0.7603 -0.2524,0.0801 -0.8978,-0.082 -1.3481,-0.1209 l -0.0414,-0.004 c -0.0565,-0.2745 -0.1207,-0.4409 0.3905,-0.5564 0.4483,-0.1012 0.2052,-0.4527 0.5987,-0.7596 0.3354,-0.2616 1.3387,-0.5075 0.8999,-1.0032 -0.2756,-0.3113 -0.6694,-0.1615 -0.88,-0.6637 -0.2231,-0.532 -0.3053,-0.4332 -0.7899,-0.6997 -0.3113,-0.1713 -1.836,0.2145 -2.2084,-0.1506 -0.5881,-0.5766 -0.3763,-0.7379 -0.4652,-0.9125 l -0.0586,-0.0343 c -0.2123,-0.1244 -0.7887,-0.0664 -0.6684,-0.5701 0.0755,-0.3161 -0.5477,0.067 -0.5344,-0.7364 0.0093,-0.5682 -0.9476,-0.1149 -0.8261,-0.9683 0.0237,-0.1666 0.0829,-0.3829 0.2652,-0.4613 0.0161,-0.1121 0.2467,-0.088 0.4138,-0.2231 0,-10e-5 0.1259,-0.4906 0.6122,-0.4906 0.2534,0 0.8655,-0.087 0.9712,0.1848 0.154,0.3963 0.9823,1.0065 0.9694,1.3101 -0.0292,0.6852 1.8773,0.413 2.385,0.413 -0.0155,0.1961 0.9596,0.4586 1.3895,0.2958 1.2057,-0.4569 1.1331,-0.1099 1.9495,-0.2525 0.6298,-0.11 0.4634,-0.2727 0.9747,-0.4616 l 0.0551,-0.0325 c 0.4361,-0.2572 0.5537,0.0242 0.8764,-0.3473 l 0.0361,-0.0278 c 0.1892,-0.2291 0.7961,-0.374 1.2064,-0.8622 0.2872,-0.3417 0.0879,-0.4256 0.4469,-0.4462 l -0.0285,0.0397 c 0.0583,-0.0632 1.1456,-0.7361 1.1957,-0.9629 0.2834,-0.0939 0.2857,-0.7376 1.0992,-0.7376 0.7987,0 0.517,0.0265 0.7633,0.3223 0.0739,0.0888 0.4177,0.3718 0.4422,0.426 0.3655,0.1776 0.4963,0.003 0.7553,0.0933 0.0289,0.0101 0.0881,-0.009 0.1131,-0.0293 l 0.0368,-0.0296 c 0.251,-0.2024 0.25,-0.194 0.5232,-0.416 l 0.035,-0.0284 c 0.7796,-0.6338 -0.1261,-1.4691 1.206,-1.4169 0.1262,-0.1452 0.1891,-0.5555 0.3216,-0.6014 0.0235,-0.102 0.4588,-0.0173 0.6929,-0.1321 0.0493,-0.0101 0.1089,-0.0536 0.1254,-0.0933 0.0831,-0.0479 0.0791,-0.2195 0.1451,-0.3051 0.4041,-0.3058 0.4751,0.429 1.4476,-0.776 0.3682,-0.4562 0.149,-0.7674 -0.1712,-1.2443 -0.6388,-0.2151 -0.7852,0.2486 -1.0423,-0.3472 -0.2048,-0.4745 -0.0251,-0.5928 0.4408,-0.6501 0.2396,-0.0295 2.3083,-0.0113 2.4057,0.0225 l 0.057,0.0397 c 0.3006,0.2098 0.1986,0.117 0.4597,0.3283 0.6446,0.5216 -0.5355,0.9882 0.2039,1.5057 0.1713,0.1198 0.1848,0.5767 -0.2039,0.7862 -0.5691,0.307 0.0256,1.0097 -1.0766,1.2355 -0.8486,0.1739 -0.9282,-0.3123 -1.4085,0.3698 -0.3024,0.4295 -1.6869,-0.0493 -1.4553,0.5773 0.01,0.091 0.0202,0.099 0.1046,0.1246 0.0552,0.4056 0.6444,0.7207 0.3508,1.1613 -0.0781,0.2514 -0.7415,0.3316 -1.0207,0.2646 -0.4965,-0.1193 -0.2265,-0.1102 -0.6529,-0.0225 -0.0211,0.1022 -0.277,0.4984 -0.4392,0.6047 -0.4607,0.3017 -0.5878,-0.1561 -1.1181,0.2989 -0.2373,0.2036 -0.9404,0.0884 -1.1352,-0.0848 -0.159,-0.1411 -0.392,-1.0077 -1.1929,-0.4337 -0.3381,0.2423 -0.803,1.0163 -0.8259,1.0216 z"
   class="fil3 str1"
   id="_188208456" />
     <path
   d="m 124.766,105.158 c 0.0612,0.0655 0.0311,0.4768 0.178,0.8138 0.1731,0.397 0.6211,1.3198 1.146,1.1929 0.0239,-0.006 0.0238,-0.005 0.0568,-0.007 0.0669,-0.0947 0.4686,-0.2884 0.5781,-0.3207 0.0635,-0.7455 -0.247,-0.3795 -0.7173,-0.7128 -0.0401,-0.1898 -0.2397,-0.1256 -0.2151,-0.8799 0.015,-0.4588 -0.5545,-0.6025 -0.9765,-0.2678 -0.1053,0.0835 -0.1149,0.1123 -0.05,0.1816 z"
   class="fil3 str1"
   id="_188207592" />
     <path
   d="m 116.647,115.497 c -0.0599,0.0671 -0.0287,0.0306 -0.0224,0.0526 0.02,0.0269 0.0471,0.034 0.055,0.0582 0.4911,0.1631 1.3138,0.183 1.6041,-0.2922 0.1694,-0.2773 0.1531,-0.2075 0.3093,-0.4047 0.3403,-0.4298 0.4714,-0.3618 0.3994,-1.1217 -0.0419,-0.4414 -0.7368,-0.867 -1.3066,-0.221 -0.3049,0.3457 -0.1806,0.5167 -0.7087,0.6411 -0.0124,0.003 -0.4199,0.206 -0.413,0.2921 -0.0944,0.0327 -0.0254,1.1169 0.0829,0.9956 z"
   class="fil3 str1"
   id="_188213064" />
     <path
   d="m 131.098,121.103 c 0.5922,0.1135 0.6692,0.7487 0.3619,1.235 -0.1936,0.3062 -0.1309,0.7629 0.0631,1.0214 0.0145,0.0194 1.0574,0.3299 0.4187,0.8978 -0.4407,0.3919 -1.6119,0.2674 -2.0238,-0.1045 -0.181,-0.1634 -0.9064,0.2445 -1.3622,0.2445 -0.3128,0 -0.5333,-0.0486 -0.8003,0.0711 -0.0719,0.0323 -0.1548,0.0302 -0.1937,0.1238 -0.4489,0.1902 -0.5406,0.1278 -0.9372,-0.008 -0.0328,-0.173 -0.2464,-0.4841 0.2512,-0.6173 0.0679,-0.0181 0.2828,-0.158 0.6141,-0.2443 0.2515,-0.0656 -0.147,-0.2889 0.5802,-0.6651 0.0462,-0.0239 0.1732,-0.1527 0.2534,-0.1452 0.0465,-0.0809 0.8143,0.0244 1.2088,-0.1284 0.0149,-0.002 0.5483,-0.6347 0.6302,-0.7142 0.1443,-0.14 0.1445,-0.3074 0.4454,-0.5889 0.0153,-0.0142 -0.0261,0.0333 0.0387,-0.0533 -0.0185,-0.0717 0.1688,-0.2514 0.1702,-0.2519 0.009,-0.0301 0.007,-0.0253 0.0393,-0.0466 0.0206,-0.0438 0.1579,-0.0423 0.242,-0.0262 z"
   class="fil3 str1"
   id="_188213304" />
     <path
   d="m 128.119,113.652 c -0.5747,-0.521 -0.0439,-0.1829 -0.413,-0.6496 -0.001,-0.002 -0.4217,-0.4049 -0.4454,-0.4237 -0.197,-0.1558 -1.1945,0.007 -1.313,-0.003 -0.0423,0.1223 -0.1082,-0.0198 -0.0928,0.3712 0.006,0.1589 -0.3247,-0.0774 -0.2025,0.4438 0.0165,0.0708 0.0378,0.3672 0.0557,0.3689 0.0514,0.0257 0.033,0.008 0.054,0.0596 0,0.2591 0.026,0.1763 0.0573,0.3325 0.0806,0.4024 -0.3008,0.2178 -0.3866,0.2662 -0.6109,0.3443 -0.2989,0.6916 -0.0944,0.9927 0.3433,0.5051 -0.6362,0.6876 -0.2879,1.3967 0.2765,0.5629 0.0443,1.0713 0.3452,1.245 0.3685,0.2129 0.3621,0.7273 0.1655,0.7223 -0.8505,-0.0219 -0.4285,0.3593 -0.6809,0.4793 -0.2679,0.1273 -0.4433,-0.2213 -0.5595,-0.3834 l -0.0323,-0.0451 c -0.3791,-0.5291 -1.8719,-0.2679 -2.4917,-0.2905 -0.9832,-0.036 -0.7853,0.1919 -1.2684,0.2227 -0.5375,0.0344 -1.2064,-0.118 -1.2064,0.6528 0,0.6886 0.1341,0.5075 0.5475,0.6818 0.0318,0.0134 0.0302,0.0235 0.065,0.0372 0.01,0.1046 0.2453,0.1003 0.334,0.2412 0.3345,0 0.4356,0.0317 0.6279,0.4084 0.1664,0.3262 -0.5378,1.072 -0.702,1.0579 -0.0645,0.2771 -0.4154,-0.0165 -0.529,0.3417 -0.1138,0.3589 0.2465,0.7236 0.4918,0.846 l 0.0372,0.0186 c 0.4294,0.2144 1.1721,0.025 1.7135,-0.0193 0.3678,-0.136 0.528,-0.057 0.8444,-0.3593 0.3697,-0.3532 0.8033,-0.3612 1.2376,-0.6793 0.3084,-0.2258 0.3071,-0.2987 0.6125,-0.472 l 0.043,-0.0243 c 0.002,-0.001 0.4056,-0.4472 0.5599,-0.5786 0.3575,-0.3044 0.4765,-0.3873 0.7207,-0.8182 0.4283,-0.7556 1.4287,-0.7096 1.8018,-1.1702 0.2926,-0.3613 0.4308,-0.0481 0.464,-0.9407 0.0443,-1.1953 0.2802,-0.6055 0.5769,-1.3411 0.154,-0.3819 0.092,-1.0625 -0.1008,-1.4195 l -0.0211,-0.0393 c -0.244,-0.4518 -0.4747,-0.1136 -0.5192,-0.5827 -0.002,-0.0245 0.6134,-0.1159 0.3877,-0.447 -0.0465,-0.0683 -0.2406,-0.2841 -0.3135,-0.3139 -0.0645,-0.0798 -0.0827,-0.0751 -0.0827,-0.1856 z"
   class="fil3 str1"
   id="_188208744" />
     <path
   d="m 116.208,128.231 c 0.1619,0.0423 0.697,-0.4434 1.0086,-0.0883 0.3963,0.4517 0.5863,0.5141 1.0144,0.8399 0.1571,0.1196 0.4852,0.4119 0.4994,0.5924 0.0223,0.2822 -0.0601,0.8311 0.0468,1.0377 0.3895,0.0542 0.2646,0.0774 0.7529,0.0774 0.2399,0 0.6825,-0.0743 1.0717,-0.0743 0.959,0 1.3093,0.0735 2.2884,-0.109 0.1858,-0.0346 0.5188,-0.3873 0.5188,-0.7277 0,-0.3316 -0.3646,-0.5415 -0.6867,-0.3447 -0.5963,0.3644 -0.581,-0.1659 -1.494,-0.229 -0.5679,-0.2796 -0.3534,-1.0612 -0.5676,-1.4593 -0.0621,-0.1996 -0.5416,-0.3238 -0.7562,-0.4571 -0.0191,-0.1629 -0.2031,-0.2113 -0.0128,-0.7779 l 0.0282,-0.0838 c 0.0524,-0.1561 -0.0593,-0.3722 -0.1485,-0.3955 -0.0419,-0.183 -0.779,-0.2364 -1.0934,-0.13 -0.1645,0.0556 -0.5891,0.1005 -0.6247,0.3373 -0.0251,0.0119 -0.0518,0.0325 -0.0644,0.0634 -1.1997,0.3246 -0.4374,-0.4245 -1.3588,0.7685 -0.1193,0.1545 -1.004,0.4554 -1.4105,0.7499 l -0.0308,0.0223 c -0.0867,0.0628 -0.1278,0.137 -0.1766,0.1478 -0.0965,0.3998 -0.7059,0.6992 -1.0313,1.1539 -0.0809,0.113 -0.4863,0.2837 -0.5689,0.5324 -0.1304,0.0433 -0.1113,0.5181 -0.0621,0.6602 1.0112,0 0.6142,-0.4047 1.2371,-0.7811 0.2804,-0.1695 0.3709,-0.0254 0.5923,-0.5133 0.1398,-0.3081 0.4616,-0.4182 0.499,-0.4586 0.1075,-0.2631 0.375,-0.394 0.5297,-0.3535 z"
   class="fil3 str1"
   id="_188212752" />
     <path
   d="m 104.004,146.27 c -0.4297,0.058 -1.327,-0.0708 -0.9994,0.7219 0.2904,0.7025 0.1815,0.0655 0.1291,0.7761 -0.0407,0.5527 0.1121,0.6592 0.3785,1.0654 0.2189,0 0.6303,-0.0583 0.7043,-0.3019 0.2812,-0.0942 -0.2659,-0.217 0.9662,-0.2003 0.3991,0.005 0.6592,-0.1696 0.6924,-0.565 0.0185,-0.2217 1.0993,-0.0321 1.5303,-0.1883 0.4563,-0.1655 0.3759,-0.9335 -0.4105,-1.0936 -0.7829,-0.1594 0.0563,-1.1861 -0.6272,-1.5404 -0.2055,-0.0288 -0.3371,-0.1072 -0.419,-0.3238 -0.0998,-0.0304 -0.1235,-0.1895 -0.3972,-0.1811 -0.249,-0.0927 -0.5585,0.3156 -0.5936,0.6295 -0.0424,0.3795 0.0686,0.622 -0.15,0.7653 -0.002,0.002 -0.3177,0.1129 -0.3295,0.1154 -0.0709,0.2041 0.229,0.4358 -0.4012,0.4253 10e-4,-0.0437 -0.0194,-0.1118 -0.0732,-0.1045 z"
   class="fil3 str1"
   id="_188209224" />
     <path
   d="m 100.917,159.174 c 0.0269,-0.1387 0.1738,-0.1123 0.2976,-0.3649 0.1163,-0.2373 0.1089,-0.401 -0.0723,-0.5587 -0.191,-0.1664 0.1401,-0.2827 -0.2412,-0.5477 -0.2137,-0.2726 -0.1458,0.057 -0.1915,-0.4301 -0.0301,-0.3214 -0.8732,-0.3477 -0.9913,-0.1702 l -0.0246,0.0368 c -0.2895,0.4351 -0.2976,0.1303 -0.7879,0.3056 -0.2743,0.098 0.0073,0.4839 -0.2978,0.6538 -0.1998,0.1112 -0.23,0.6739 -0.173,0.8198 0.3,0.069 0.1616,0.0381 0.4573,0.0527 0.3638,0.0178 0.206,0.5526 0.6815,0.5526 0.4309,0 0.2323,-0.1076 0.7592,-0.1076 0.324,0 0.3998,0.0636 0.5611,-0.2045 0.0187,-0.017 0.0218,-0.0325 0.0229,-0.0376 z"
   class="fil5 str1"
   id="_188208840" />
     <path
   d="m 100.193,161.86 c 0.7662,-0.2709 0.356,-0.4648 1.3417,-0.2921 0.0326,0.006 0.2161,0.0115 0.2494,0 0.0156,-0.0449 -0.007,-0.0187 0.0182,-0.0657 0.2038,-0.0869 0.2028,-0.4345 0.2938,-0.7575 0.003,-0.0124 0.0289,-0.3861 0.028,-0.3961 -0.0137,-0.1608 0.2916,-0.1662 0.2759,-0.6598 -0.01,-0.305 0.0211,-0.2266 -0.0736,-0.4761 -0.1144,-0.0348 -0.4592,-0.6112 -0.1605,-0.9335 0.6339,-0.6838 0.004,-0.6218 0.3891,-1.1114 0.0576,-0.3735 -0.1084,-0.1633 0.1148,-0.5919 0.003,-0.006 0.4199,-0.3799 0.4901,-0.4496 0.4023,-0.4002 0.3065,0.3513 0.9554,0.4057 0.4591,0.0385 0.1524,1.6151 -0.0877,1.9371 -0.3406,0.4568 0.1378,1.3493 -0.2742,1.8555 -0.2196,0.2698 -0.0324,0.6879 0,1.1577 0.0558,0.8095 0.0753,0.3965 0.241,0.9175 0.5096,0.3453 -0.5783,1.0024 -0.338,1.4654 0.0142,0.0495 0.2813,0.1941 0.3493,0.258 0.0269,-0.0233 0.3735,0.1108 0.3735,0.4538 0,0.8816 -0.392,0.4686 -0.6508,1.3003 -0.0735,0.1121 0.0484,0.4938 -0.0627,0.6669 -0.1346,0.2096 0.0515,0.7333 -0.1439,1.1276 -0.0808,0.1629 -0.6002,0.457 -0.8939,0.1987 -0.0753,-0.2223 -0.1177,0.0202 -0.1898,-0.5647 -0.0322,-0.2617 -0.3895,-0.3148 -0.399,-0.5237 -0.0158,-0.3498 -0.049,-0.7547 0.057,-1.0515 0.0971,-0.2718 0.0859,-1.5085 -0.044,-1.7126 -0.2394,-0.0674 -0.2105,-0.5525 -1.0054,-0.245 l -0.0679,0.006 c -0.0618,0.006 -0.1537,0.004 -0.217,-0.014 -0.0967,-0.0282 -1.0366,-0.7809 -1.0366,-1.1656 0,-0.1805 0.0504,-0.3751 0.2481,-0.4414 l 0.0397,-0.0843 c 0.0186,-0.0394 0.142,-0.2285 0.1491,-0.2618 0.0233,0.01 0.0294,0.0485 0.0309,0.048 z"
   class="fil5 str1"
   id="_188212848" />
     <path
   d="m 107.269,172.236 c 0.0384,0.1586 0.9508,0.7983 1.0111,0.8039 0.2195,0.3768 1.3895,0.0336 1.9108,0.4121 0.245,0.1779 0.0876,0.0877 0.2391,0.275 0.5336,0.1658 0.2318,0.0438 0.7208,0.0905 l 0.0857,0.0571 c 0.355,0.2369 0.1474,0.297 1.0017,0.142 0.2787,-0.0506 0.7096,1.0305 1.3511,0.5464 0.2379,-0.1795 -0.1834,-0.6838 0.392,-0.6703 0.4298,0.01 0.9164,-0.2703 0.8791,-0.7393 l -0.0265,-0.0466 c -0.6363,-0.7109 -0.73,0.0123 -1.1116,-0.6098 -0.4342,-0.4639 -0.6222,-0.8981 -1.1381,-1.0324 -0.3497,-0.0909 -0.4393,-0.8063 -0.9113,-1.0782 -0.3474,-0.2001 -1.1307,-0.4502 -1.2912,0.1621 -0.002,0.006 -0.0745,0.6112 -0.0794,0.6641 -0.3428,0.0398 -0.8678,0.499 -1.4131,-0.0605 -0.5581,-0.5726 -0.004,-0.5416 -0.5645,-0.8569 -0.0531,-0.0299 -0.0704,-0.1211 -0.1526,-0.1462 -0.0719,-0.2163 -0.0729,0.1249 -0.1092,-0.3982 -0.0146,-0.211 -0.6277,-0.333 -1.0274,-0.1747 l -0.0669,0.0264 c -0.1485,0.0589 -0.055,0.6266 -0.0275,0.8681 0.2429,0.4675 0.3646,-0.0573 0.265,0.669 -0.0165,0.1198 -0.3615,0.9242 -0.0711,0.9989 0.0499,0.0128 0.1215,0.0458 0.134,0.0975 z"
   class="fil3 str1"
   id="_188207808" />
     <path
   d="m 83.9423,174.782 c 0.22,0.4767 0.2211,0.2046 0.7982,0.6505 0.3031,0.2343 0.9547,0.101 0.9311,-0.451 -0.0259,-0.604 0.0178,-0.4707 -0.5746,-0.7817 -0.1763,-0.0927 0.1538,-0.6542 -0.946,-0.4498 -0.4014,0.0746 -0.01,0.5575 -0.2474,0.9268 -0.0269,0.0419 0.0188,0.0622 0.0387,0.1052 z"
   class="fil3 str1"
   id="_188208672" />
    </g>
    <g
   id="g1636">
     <line
   y2="139.91901"
   x2="124.111"
   y1="139.91901"
   x1="128.47301"
   class="fil2 str4"
   id="_188208480" />
     <line
   y2="143.82201"
   x2="119.06"
   y1="143.82201"
   x1="124.111"
   class="fil2 str4"
   id="_188206368" />
     <line
   y2="146.118"
   x2="115.387"
   y1="146.118"
   x1="125.144"
   class="fil2 str4"
   id="_188210232" />
     <line
   y2="149.10201"
   x2="114.009"
   y1="149.10201"
   x1="129.73599"
   class="fil2 str4"
   id="_188207232" />
     <line
   y2="152.431"
   x2="112.747"
   y1="152.431"
   x1="124.456"
   class="fil2 str4"
   id="_188209512" />
     <line
   y2="153.57899"
   x2="126.981"
   y1="153.57899"
   x1="130.19501"
   class="fil2 str4"
   id="_188209128" />
     <line
   y2="155.875"
   x2="113.206"
   y1="155.875"
   x1="123.308"
   class="fil2 str4"
   id="_188211288" />
     <line
   y2="144.69099"
   x2="129.67"
   y1="144.69099"
   x1="130.69501"
   class="fil2 str4"
   id="_188209560" />
     <line
   y2="157.119"
   x2="112.117"
   y1="157.119"
   x1="116.858"
   class="fil2 str4"
   id="_188214144" />
     <line
   y2="157.952"
   x2="111.925"
   y1="157.952"
   x1="128.517"
   class="fil2 str4"
   id="_188211888" />
     <line
   y2="158.72099"
   x2="119.164"
   y1="158.72099"
   x1="114.167"
   class="fil2 str4"
   id="_188210304" />
     <line
   y2="158.528"
   x2="125.058"
   y1="158.528"
   x1="127.876"
   class="fil2 str4"
   id="_188207664" />
     <line
   y2="159.68201"
   x2="125.378"
   y1="159.68201"
   x1="126.403"
   class="fil2 str4"
   id="_188208936" />
     <line
   y2="160.899"
   x2="113.334"
   y1="160.899"
   x1="128.83701"
   class="fil2 str4"
   id="_188207880" />
     <line
   y2="161.21899"
   x2="131.84801"
   y1="161.21899"
   x1="130.88699"
   class="fil2 str4"
   id="_188212440" />
     <line
   y2="164.422"
   x2="114.872"
   y1="164.422"
   x1="132.36099"
   class="fil2 str4"
   id="_188206752" />
     <line
   y2="164.99899"
   x2="116.025"
   y1="164.99899"
   x1="131.336"
   class="fil2 str4"
   id="_188209296" />
     <line
   y2="163.718"
   x2="115.641"
   y1="163.718"
   x1="117.37"
   class="fil2 str4"
   id="_188212656" />
     <line
   y2="162.94901"
   x2="115.577"
   y1="162.94901"
   x1="117.178"
   class="fil2 str4"
   id="_188209440" />
     <line
   y2="161.539"
   x2="124.545"
   y1="161.539"
   x1="114.487"
   class="fil2 str4"
   id="_188211528" />
     <line
   y2="162.308"
   x2="117.37"
   y1="162.308"
   x1="115.128"
   class="fil2 str4"
   id="_188208984" />
     <line
   y2="167.433"
   x2="120.83"
   y1="167.433"
   x1="125.442"
   class="fil2 str4"
   id="_188214000" />
     <line
   y2="170.444"
   x2="127.492"
   y1="170.444"
   x1="129.158"
   class="fil2 str4"
   id="_188211048" />
     <line
   y2="171.089"
   x2="127.427"
   y1="171.089"
   x1="128.84399"
   class="fil2 str4"
   id="_188212296" />
     <line
   y2="142.147"
   x2="74.056396"
   y1="142.147"
   x1="71.295998"
   class="fil2 str4"
   id="_188209464" />
     <line
   y2="141.56599"
   x2="82.337601"
   y1="141.56599"
   x1="80.666901"
   class="fil2 str4"
   id="_188213136" />
     <line
   y2="143.455"
   x2="83.717796"
   y1="143.455"
   x1="79.504601"
   class="fil2 str4"
   id="_188212896" />
     <line
   y2="144.254"
   x2="82.846199"
   y1="144.254"
   x1="79.795197"
   class="fil2 str4"
   id="_188211912" />
     <line
   y2="146.142"
   x2="72.6035"
   y1="146.142"
   x1="85.969803"
   class="fil2 str4"
   id="_188211624" />
     <line
   y2="148.177"
   x2="72.894096"
   y1="148.177"
   x1="68.462898"
   class="fil2 str4"
   id="_188206512" />
     <line
   y2="147.95799"
   x2="78.196999"
   y1="147.95799"
   x1="75.654503"
   class="fil2 str4"
   id="_188214048" />
     <line
   y2="149.048"
   x2="88.439697"
   y1="149.048"
   x1="68.971397"
   class="fil2 str4"
   id="_188208336" />
     <line
   y2="149.92"
   x2="77.833801"
   y1="149.92"
   x1="75.291298"
   class="fil2 str4"
   id="_188208432" />
     <line
   y2="150.937"
   x2="77.252701"
   y1="150.937"
   x1="75.872498"
   class="fil2 str4"
   id="_188207472" />
     <line
   y2="152.535"
   x2="83.354599"
   y1="152.535"
   x1="74.129097"
   class="fil2 str4"
   id="_188213328" />
     <line
   y2="153.77"
   x2="78.269699"
   y1="153.77"
   x1="76.0177"
   class="fil2 str4"
   id="_188210328" />
     <line
   y2="155.22301"
   x2="82.410301"
   y1="155.22301"
   x1="71.877098"
   class="fil2 str4"
   id="_188210472" />
     <line
   y2="156.24001"
   x2="79.213997"
   y1="156.24001"
   x1="72.676201"
   class="fil2 str4"
   id="_188206704" />
     <line
   y2="158.201"
   x2="89.093399"
   y1="158.201"
   x1="71.005402"
   class="fil2 str4"
   id="_188207280" />
     <line
   y2="162.19701"
   x2="87.422699"
   y1="162.19701"
   x1="70.8601"
   class="fil2 str4"
   id="_188206536" />
     <line
   y2="165.248"
   x2="85.897102"
   y1="165.248"
   x1="69.915802"
   class="fil2 str4"
   id="_188212344" />
     <line
   y2="166.41"
   x2="80.303703"
   y1="166.41"
   x1="82.047096"
   class="fil2 str4"
   id="_188210184" />
     <line
   y2="167.49899"
   x2="70.787399"
   y1="167.49899"
   x1="78.8508"
   class="fil2 str4"
   id="_188212680" />
     <line
   y2="170.33299"
   x2="72.6035"
   y1="170.33299"
   x1="75.291298"
   class="fil2 str4"
   id="_188212416" />
    </g>
   </g>
  </g>
 </g>
</svg>
