<?xml version="1.0" encoding="UTF-8" standalone="no"?>
<svg
   xmlns:dc="http://purl.org/dc/elements/1.1/"
   xmlns:cc="http://creativecommons.org/ns#"
   xmlns:rdf="http://www.w3.org/1999/02/22-rdf-syntax-ns#"
   xmlns:svg="http://www.w3.org/2000/svg"
   xmlns="http://www.w3.org/2000/svg"
   xmlns:sodipodi="http://sodipodi.sourceforge.net/DTD/sodipodi-0.dtd"
   xmlns:inkscape="http://www.inkscape.org/namespaces/inkscape"
   inkscape:version="1.0 (4035a4fb49, 2020-05-01)"
   sodipodi:docname="Moraña.svg"
   id="svg17508"
   version="1.1"
   viewBox="0 0 166.35257 272.66269"
   style="clip-rule:evenodd;fill-rule:evenodd;image-rendering:optimizeQuality;shape-rendering:geometricPrecision;text-rendering:geometricPrecision"
   height="272.66269mm"
   width="166.35257mm"
   xml:space="preserve"><metadata
   id="metadata17512"><rdf:RDF><cc:Work
       rdf:about=""><dc:format>image/svg+xml</dc:format><dc:type
         rdf:resource="http://purl.org/dc/dcmitype/StillImage" /><dc:title></dc:title></cc:Work></rdf:RDF></metadata><sodipodi:namedview
   inkscape:current-layer="svg17508"
   inkscape:window-maximized="0"
   inkscape:window-y="0"
   inkscape:window-x="0"
   inkscape:cy="525.77972"
   inkscape:cx="322.89772"
   inkscape:zoom="0.49085999"
   showgrid="false"
   id="namedview17510"
   inkscape:window-height="480"
   inkscape:window-width="803"
   inkscape:pageshadow="2"
   inkscape:pageopacity="0"
   guidetolerance="10"
   gridtolerance="10"
   objecttolerance="10"
   borderopacity="1"
   bordercolor="#666666"
   pagecolor="#ffffff" />
 <defs
   id="defs17245">
  <style
   id="style17243"
   type="text/css">
   <![CDATA[
    .str7 {stroke:#2A2A29;stroke-width:0.6;stroke-linecap:round;stroke-linejoin:round}
    .str2 {stroke:black;stroke-width:0.0814}
    .str1 {stroke:black;stroke-width:0.3035}
    .str0 {stroke:#010101;stroke-width:0.3035}
    .str3 {stroke:black;stroke-width:0.6071}
    .str4 {stroke:black;stroke-width:0.9107}
    .str5 {stroke:black;stroke-width:1.2142}
    .str6 {stroke:black;stroke-width:1.5179}
    .str8 {stroke:#2A2A29;stroke-width:2.3907;stroke-linecap:round;stroke-linejoin:round}
    .fil5 {fill:none}
    .fil9 {fill:#FEFEFE}
    .fil4 {fill:#0071BC}
    .fil7 {fill:#008F4C}
    .fil1 {fill:#E3E4E5}
    .fil2 {fill:#EAC102}
    .fil8 {fill:#ED1C24}
    .fil6 {fill:#E3E4E5;fill-rule:nonzero}
    .fil0 {fill:#EAC102;fill-rule:nonzero}
    .fil3 {fill:#ED1C24;fill-rule:nonzero}
   ]]>
  </style>
 </defs>
 <g
   transform="translate(-19.566646,-9.38745)"
   id="Capa_x0020_1">
  <metadata
   id="CorelCorpID_0Corel-Layer" />
  <g
   id="_178370264">
   <g
   id="g17494">
    <polygon
   points="27.9099,69.3448 35.1959,62.0589 34.5887,60.541 34.2852,59.023 34.8923,57.2016 36.4102,55.0765 38.5353,53.255 41.571,51.4335 45.2141,49.6121 49.4642,48.0942 54.0179,46.8798 58.8753,45.969 64.6433,44.7548 70.7149,42.9333 77.0901,40.8082 83.4653,38.6831 89.5369,36.5581 95.0014,35.0402 97.4301,34.7365 99.8587,34.433 101.68,34.433 103.198,34.7365 100.466,30.4864 99.2515,30.4864 97.7337,31.0936 94.3942,32.6115 90.7513,34.1294 87.4119,35.0402 81.9474,36.8616 74.9651,39.2903 67.9827,41.7189 61.6075,43.844 58.5716,44.4511 55.8394,45.0583 50.9821,45.969 46.1248,47.1834 42.1782,48.7013 38.5353,50.5228 35.4995,52.6478 33.3743,54.4694 31.8565,56.5944 31.5529,57.5051 31.2493,58.416 31.5529,59.9338 32.1601,61.4517 26.0884,67.5234 26.9992,68.4341 "
   class="fil0 str0"
   id="_177639688" />
    <polygon
   points="31.5529,59.9338 31.2493,58.416 31.5529,57.5051 31.8565,56.5944 33.3743,54.4694 35.4995,52.6478 38.5353,50.5228 42.1782,48.7013 46.1248,47.1834 50.9821,45.969 55.8394,45.0583 58.5716,44.4511 61.6075,43.844 67.9827,41.7189 74.9651,39.2903 81.9474,36.8616 87.4119,35.0402 78.9116,37.1652 70.1078,39.5938 61.6075,41.7189 57.6609,42.6297 54.0179,43.5404 48.5535,44.7548 43.3926,46.2727 38.5353,48.3977 34.2852,50.8264 30.6421,53.5586 27.6063,56.5944 25.7848,59.6302 25.4813,61.1482 25.1777,62.6661 25.4813,65.0947 25.7848,66.309 26.0884,67.5234 32.1601,61.4517 "
   class="fil0 str0"
   id="_177644896" />
    <polygon
   points="93.4835,32.6115 92.5728,33.2187 91.3585,33.5222 90.1441,33.2187 89.2334,32.6115 88.3226,31.3971 88.0191,30.1828 88.3226,28.9685 89.2334,28.0577 90.1441,27.4505 91.3585,27.147 92.5728,27.4505 93.4835,28.0577 94.0907,28.9685 94.3942,30.1828 94.0907,31.3971 "
   class="fil1 str1"
   id="_177647416" />
    <polygon
   points="84.6796,35.3437 83.4653,36.2544 82.2511,36.5581 81.0367,36.2544 80.1259,35.3437 79.5188,34.433 79.2152,33.2187 79.5188,32.0043 80.1259,30.79 81.0367,30.1828 82.2511,29.8792 83.4653,30.1828 84.6796,31.0936 85.2868,32.0043 85.5904,33.2187 85.2868,34.433 "
   class="fil1 str1"
   id="_177646984" />
    <polygon
   points="75.2686,38.076 74.0543,38.6831 72.84,38.9867 71.6256,38.6831 70.7149,38.076 70.1078,37.1652 69.8041,35.9509 70.1078,34.7365 70.7149,33.5222 71.6256,32.915 72.84,32.6115 74.0543,32.915 75.2686,33.5222 75.8758,34.7365 76.1794,35.9509 75.8758,37.1652 "
   class="fil1 str1"
   id="_177646696" />
    <polygon
   points="65.2505,40.5045 64.3396,41.1117 63.1254,41.4154 61.911,41.1117 61.0003,40.5045 60.3932,39.5938 60.0895,38.3795 60.3932,37.1652 61.0003,35.9509 61.911,35.3437 63.1254,35.0402 64.3396,35.3437 65.2505,35.9509 65.8576,37.1652 66.1612,38.3795 65.8576,39.5938 "
   class="fil1 str1"
   id="_177648280" />
    <polygon
   points="55.8394,42.9333 54.6251,43.5404 53.4108,43.844 52.1965,43.5404 51.2856,42.9333 50.6786,41.7189 50.3749,40.5045 50.6786,39.2903 51.2856,38.3795 52.1965,37.4688 53.4108,37.4688 54.6251,37.7724 55.8394,38.3795 56.4466,39.2903 56.7501,40.5045 56.4466,41.7189 "
   class="fil1 str1"
   id="_177644320" />
    <polygon
   points="46.1248,45.6655 44.9105,46.2727 43.6961,46.5762 42.4819,46.2727 41.571,45.6655 40.9639,44.4511 40.6603,43.2368 40.9639,42.0225 41.571,41.1117 42.4819,40.5045 43.6961,40.201 44.9105,40.5045 46.1248,41.1117 46.732,42.0225 47.0355,43.2368 46.732,44.4511 "
   class="fil1 str1"
   id="_177644608" />
    <polygon
   points="36.4102,49.9156 35.1959,50.5228 33.9815,50.8264 32.7673,50.5228 31.8565,49.9156 31.2493,48.7013 30.9457,47.487 31.2493,46.2727 31.8565,45.362 32.7673,44.7548 33.9815,44.4511 35.1959,44.7548 36.4102,45.362 37.0174,46.2727 37.0174,47.487 37.0174,48.7013 "
   class="fil1 str1"
   id="_177645688" />
    <polygon
   points="28.517,56.2908 27.6063,57.2016 26.392,57.5051 25.1777,57.2016 24.2669,56.2908 23.6597,55.3801 23.3562,54.1657 23.6597,52.9515 24.2669,51.7371 25.1777,51.13 26.392,50.8264 27.6063,51.13 28.517,52.0407 29.4279,52.9515 29.4279,54.1657 29.4279,55.3801 "
   class="fil1 str1"
   id="_177644680" />
    <polygon
   points="177.576,69.3448 169.986,62.0589 170.897,60.541 171.2,59.023 170.593,57.2016 169.075,55.0765 166.95,53.255 163.914,51.4335 160.271,49.6121 156.021,48.0942 151.468,46.8798 146.61,45.969 140.842,44.7548 134.771,42.9333 128.395,40.8082 122.02,38.6831 115.949,36.5581 110.484,35.0402 108.055,34.7365 105.627,34.433 103.805,34.433 102.287,34.7365 105.02,30.4864 106.234,30.4864 107.752,31.0936 111.091,32.6115 114.734,34.1294 117.77,35.0402 123.538,36.8616 130.521,39.2903 137.503,41.7189 143.878,43.844 146.914,44.4511 149.646,45.0583 154.503,45.969 159.361,47.1834 163.307,48.7013 166.95,50.5228 169.986,52.6478 172.111,54.4694 173.629,56.5944 173.933,57.5051 174.236,58.416 173.933,59.9338 173.325,61.4517 179.397,67.5234 178.486,68.4341 "
   class="fil0 str0"
   id="_177644104" />
    <polygon
   points="173.933,59.9338 174.236,58.416 173.933,57.5051 173.629,56.5944 172.111,54.4694 169.986,52.6478 166.95,50.5228 163.307,48.7013 159.361,47.1834 154.503,45.969 149.646,45.0583 146.914,44.4511 143.878,43.844 137.503,41.7189 130.521,39.2903 123.538,36.8616 117.77,35.0402 126.574,37.1652 135.378,39.5938 143.878,41.7189 147.825,42.6297 151.468,43.5404 156.932,44.7548 162.093,46.2727 166.95,48.3977 171.2,50.8264 174.843,53.5586 177.879,56.5944 179.397,59.6302 180.004,61.1482 180.308,62.6661 180.004,65.0947 179.701,66.309 179.397,67.5234 173.325,61.4517 "
   class="fil0 str0"
   id="_177643240" />
    <polygon
   points="112.002,32.6115 112.913,33.2187 114.127,33.5222 115.341,33.2187 116.252,32.6115 117.163,31.3971 117.467,30.1828 117.163,28.9685 116.252,28.0577 115.341,27.4505 114.127,27.147 112.913,27.4505 112.002,28.0577 111.395,28.9685 111.091,30.1828 111.395,31.3971 "
   class="fil1 str1"
   id="_177641656" />
    <polygon
   points="120.806,35.3437 122.02,36.2544 123.235,36.5581 124.449,36.2544 125.36,35.3437 125.967,34.433 126.27,33.2187 125.967,32.0043 125.36,30.79 124.449,30.1828 123.235,29.8792 122.02,30.1828 120.806,31.0936 120.199,32.0043 119.895,33.2187 120.199,34.433 "
   class="fil1 str1"
   id="_177645112" />
    <polygon
   points="130.217,38.076 131.431,38.6831 132.646,38.9867 133.86,38.6831 134.771,38.076 135.378,37.1652 135.681,35.9509 135.378,34.7365 134.771,33.5222 133.86,32.915 132.646,32.6115 131.431,32.915 130.217,33.5222 129.61,34.7365 129.306,35.9509 129.61,37.1652 "
   class="fil1 str1"
   id="_177644464" />
    <polygon
   points="140.235,40.5045 141.146,41.1117 142.36,41.4154 143.575,41.1117 144.485,40.5045 145.092,39.5938 145.396,38.3795 145.092,37.1652 144.485,35.9509 143.575,35.3437 142.36,35.0402 141.146,35.3437 140.235,35.9509 139.628,37.1652 139.324,38.3795 139.628,39.5938 "
   class="fil1 str1"
   id="_177650440" />
    <polygon
   points="149.646,42.9333 150.86,43.5404 152.075,43.844 153.289,43.5404 154.2,42.9333 154.807,41.7189 155.111,40.5045 154.807,39.2903 154.2,38.3795 153.289,37.4688 152.075,37.4688 150.86,37.7724 149.646,38.3795 149.039,39.2903 148.735,40.5045 149.039,41.7189 "
   class="fil1 str1"
   id="_177641080" />
    <polygon
   points="159.361,45.6655 160.575,46.2727 161.789,46.5762 163.004,46.2727 163.914,45.6655 164.522,44.4511 164.825,43.2368 164.522,42.0225 163.914,41.1117 163.004,40.5045 161.789,40.201 160.575,40.5045 159.361,41.1117 158.754,42.0225 158.45,43.2368 158.754,44.4511 "
   class="fil1 str1"
   id="_177649504" />
    <polygon
   points="169.075,49.9156 170.29,50.5228 171.504,50.8264 172.718,50.5228 173.629,49.9156 174.236,48.7013 174.54,47.487 174.236,46.2727 173.629,45.362 172.718,44.7548 171.504,44.4511 170.29,44.7548 169.075,45.362 168.468,46.2727 168.165,47.487 168.468,48.7013 "
   class="fil1 str1"
   id="_177640408" />
    <polygon
   points="176.968,56.2908 177.879,57.2016 179.094,57.5051 180.308,57.2016 181.219,56.2908 181.826,55.3801 182.129,54.1657 181.826,52.9515 181.219,51.7371 180.308,51.13 179.094,50.8264 177.879,51.13 176.968,52.0407 176.058,52.9515 176.058,54.1657 176.058,55.3801 "
   class="fil1 str1"
   id="_177639832" />
    <polygon
   points="93.4835,32.0043 92.8764,32.915 92.5728,33.8258 92.8764,35.0402 93.4835,35.9509 94.0907,36.5581 95.0014,36.5581 95.9121,36.5581 96.5193,35.9509 97.1265,35.0402 97.1265,34.1294 97.1265,32.915 96.5193,32.0043 95.9121,31.3971 95.0014,31.3971 94.0907,31.3971 "
   class="fil1 str1"
   id="_177640096" />
    <polygon
   points="89.2334,35.3437 88.6262,35.9509 88.6262,37.1652 88.6262,38.076 89.2334,38.9867 89.8406,39.5938 90.7513,39.8975 91.662,39.5938 92.2692,38.9867 92.8764,38.076 92.8764,37.1652 92.8764,35.9509 92.2692,35.3437 91.662,34.7365 90.7513,34.433 89.8406,34.7365 "
   class="fil1 str1"
   id="_177643144" />
    <polygon
   points="84.6796,38.3795 84.0725,38.9867 84.0725,40.201 84.0725,41.1117 84.6796,42.0225 85.2868,42.6297 86.1975,42.9333 87.1083,42.6297 87.7154,42.0225 88.3226,41.1117 88.3226,40.201 88.3226,39.2903 87.7154,38.3795 87.1083,37.7724 86.1975,37.4688 85.2868,37.7724 "
   class="fil1 str1"
   id="_177640672" />
    <polygon
   points="80.1259,40.8082 79.8224,41.4154 79.5188,42.6297 79.8224,43.5404 80.1259,44.4511 80.7331,45.0583 81.6439,45.362 82.5546,45.0583 83.4653,44.4511 83.7689,43.844 84.0725,42.6297 83.7689,41.7189 83.4653,40.8082 82.5546,40.201 81.6439,39.8975 81.0367,40.201 "
   class="fil1 str1"
   id="_177641056" />
    <polygon
   points="75.5722,43.2368 74.9651,43.844 74.9651,45.0583 74.9651,45.969 75.5722,46.8798 76.1794,47.487 77.0901,47.7905 78.0008,47.487 78.608,46.8798 79.2152,46.2727 79.5188,45.0583 79.2152,44.1476 78.608,43.2368 78.0008,42.6297 77.0901,42.3261 76.1794,42.6297 "
   class="fil1 str1"
   id="_177641320" />
    <polygon
   points="71.0185,45.969 70.4113,46.5762 70.4113,47.7905 70.4113,48.7013 71.0185,49.6121 71.6256,50.2192 72.5364,50.5228 73.4472,50.2192 74.0543,49.6121 74.6614,48.7013 74.6614,47.7905 74.6614,46.8798 74.0543,45.969 73.4472,45.362 72.5364,45.0583 71.6256,45.362 "
   class="fil1 str1"
   id="_177641704" />
    <polygon
   points="66.4648,49.0049 65.8576,49.9156 65.8576,50.8264 65.8576,52.0407 66.4648,52.9515 67.0719,53.5586 67.9827,53.5586 68.8934,53.5586 69.5006,52.9515 70.1078,52.0407 70.4113,51.13 70.1078,49.9156 69.5006,49.0049 68.8934,48.7013 67.9827,48.3977 67.0719,48.3977 "
   class="fil1 str1"
   id="_177641968" />
    <polygon
   points="62.5182,54.1657 61.911,54.7729 61.911,55.9873 61.911,56.898 62.5182,57.8088 63.1254,58.416 64.0361,58.7195 64.9468,58.416 65.554,57.8088 66.1612,56.898 66.1612,55.9873 66.1612,55.0765 65.554,54.1657 64.9468,53.5586 64.0361,53.255 63.1254,53.5586 "
   class="fil1 str1"
   id="_177642352" />
    <polygon
   points="98.0373,30.1828 97.7337,30.79 94.0907,34.1294 90.4477,37.1652 87.1083,39.5938 84.0725,41.7189 81.3402,43.5404 78.608,45.0583 73.7507,47.7905 69.8041,49.9156 66.1612,52.3443 63.4289,55.3801 62.2146,57.2016 61.0003,59.6302 61.6075,61.1482 62.2146,62.6661 62.2146,66.9162 62.2146,71.47 62.8218,74.2022 63.4289,76.9343 65.8576,77.238 65.8576,72.9878 65.8576,68.7377 66.7683,65.0947 67.6791,63.5768 68.8934,62.0589 70.1078,58.416 72.2328,55.3801 75.5722,52.3443 79.2152,49.9156 83.7689,46.8798 88.9298,43.5404 94.3942,39.2903 97.4301,36.8616 100.466,34.1294 100.466,29.2721 98.6444,29.5757 "
   class="fil2 str1"
   id="_177642616" />
    <polygon
   points="112.002,32.0043 112.609,32.915 112.913,33.8258 112.609,35.0402 112.002,35.9509 111.395,36.5581 110.484,36.5581 109.573,36.5581 108.966,35.9509 108.359,35.0402 108.359,34.1294 108.359,32.915 108.966,32.0043 109.573,31.3971 110.484,31.3971 111.395,31.3971 "
   class="fil1 str1"
   id="_177643000" />
    <polygon
   points="116.252,35.3437 116.859,35.9509 116.859,37.1652 116.859,38.076 116.252,38.9867 115.645,39.5938 114.734,39.8975 113.823,39.5938 113.216,38.9867 112.609,38.076 112.609,37.1652 112.609,35.9509 113.216,35.3437 113.823,34.7365 114.734,34.433 115.645,34.7365 "
   class="fil1 str1"
   id="_177643360" />
    <polygon
   points="120.806,38.3795 121.413,38.9867 121.413,40.201 121.413,41.1117 120.806,42.0225 120.199,42.6297 119.288,42.9333 118.377,42.6297 117.77,42.0225 117.163,41.1117 116.859,40.201 117.163,39.2903 117.77,38.3795 118.377,37.7724 119.288,37.4688 120.199,37.7724 "
   class="fil1 str1"
   id="_177643576" />
    <polygon
   points="125.36,40.8082 125.663,41.4154 125.967,42.6297 125.663,43.5404 125.36,44.4511 124.752,45.0583 123.842,45.362 122.931,45.0583 122.02,44.4511 121.717,43.844 121.413,42.6297 121.717,41.7189 122.02,40.8082 122.931,40.201 123.842,39.8975 124.449,40.201 "
   class="fil1 str1"
   id="_177643840" />
    <polygon
   points="129.913,43.2368 130.521,43.844 130.521,45.0583 130.521,45.969 129.913,46.8798 129.306,47.487 128.395,47.7905 127.485,47.487 126.877,46.8798 126.27,46.2727 125.967,45.0583 126.27,44.1476 126.877,43.2368 127.485,42.6297 128.395,42.3261 129.306,42.6297 "
   class="fil1 str1"
   id="_177644224" />
    <polygon
   points="134.467,45.969 135.074,46.5762 135.074,47.7905 135.074,48.7013 134.467,49.6121 133.86,50.2192 132.949,50.5228 132.038,50.2192 131.431,49.6121 130.824,48.7013 130.824,47.7905 130.824,46.8798 131.431,45.969 132.038,45.362 132.949,45.0583 133.86,45.362 "
   class="fil1 str1"
   id="_177644488" />
    <polygon
   points="139.021,49.0049 139.628,49.9156 139.628,50.8264 139.628,52.0407 139.021,52.9515 138.414,53.5586 137.503,53.5586 136.592,53.5586 135.985,52.9515 135.378,52.0407 135.074,51.13 135.378,49.9156 135.681,49.0049 136.592,48.7013 137.503,48.3977 138.414,48.3977 "
   class="fil1 str1"
   id="_177644872" />
    <polygon
   points="142.967,54.1657 143.575,54.7729 143.575,55.9873 143.575,56.898 142.967,57.8088 142.36,58.416 141.449,58.7195 140.539,58.416 139.931,57.8088 139.324,56.898 139.324,55.9873 139.324,55.0765 139.931,54.1657 140.539,53.5586 141.449,53.255 142.36,53.5586 "
   class="fil1 str1"
   id="_177645136" />
    <polygon
   points="107.448,30.1828 107.752,30.79 111.395,34.1294 115.038,37.1652 118.377,39.5938 121.413,41.7189 124.145,43.5404 126.877,45.0583 131.735,47.7905 135.681,49.9156 139.324,52.3443 142.057,55.3801 143.271,57.2016 144.485,59.6302 143.878,61.1482 143.271,62.6661 143.271,66.9162 142.967,71.47 142.664,74.2022 142.057,76.9343 139.628,77.238 139.628,72.9878 139.628,68.7377 138.717,65.0947 137.806,63.5768 136.592,62.0589 135.378,58.416 133.253,55.3801 129.913,52.3443 126.27,49.9156 121.717,46.8798 116.556,43.5404 111.091,39.2903 108.055,36.8616 105.02,34.1294 105.02,29.2721 106.841,29.5757 "
   class="fil2 str1"
   id="_177645520" />
    <polygon
   points="110.18,43.2368 117.77,44.4511 121.413,45.362 124.752,46.2727 127.485,47.1834 129.306,48.3977 132.646,50.2192 135.378,51.7371 138.414,52.6478 141.449,53.255 144.182,53.8622 146.307,54.1657 148.735,53.8622 150.86,53.8622 154.2,54.1657 157.843,55.3801 162.093,57.2016 166.039,59.6302 167.861,60.8446 169.075,62.3624 169.986,63.5768 170.593,65.0947 172.111,67.8269 173.629,70.5591 154.2,107.293 51.2856,107.293 31.8565,70.5591 33.678,67.8269 34.8923,65.0947 36.7137,62.3624 37.9281,60.8446 39.7496,59.6302 43.6961,57.2016 47.9463,55.3801 51.5893,54.1657 54.6251,53.8622 57.0538,53.8622 59.4823,54.1657 61.6075,53.8622 64.6433,53.255 67.3755,52.6478 70.4113,51.7371 73.4472,50.2192 76.4829,48.3977 78.3045,47.1834 81.0367,46.2727 84.0725,45.362 87.4119,44.4511 95.0014,43.2368 102.591,42.6297 106.234,42.9333 "
   class="fil3 str1"
   id="_177645784" />
    <path
   d="m 109.27,25.0219 c 0,3.643 -3.0359,6.6789 -6.6789,6.6789 -3.3394,0 -6.3751,-3.0359 -6.3751,-6.6789 0,-3.3394 3.0357,-6.3751 6.3751,-6.3751 3.643,0 6.6789,3.0357 6.6789,6.3751 z"
   class="fil4 str1"
   id="_177646168" />
    <polygon
   points="99.5552,11.9679 99.5552,13.4858 101.984,13.4858 101.984,18.9503 103.502,18.9503 103.502,13.4858 105.93,13.4858 105.93,11.9679 103.502,11.9679 103.502,9.5392 101.984,9.5392 101.984,11.9679 "
   class="fil2 str1"
   id="_177646432" />
    <polygon
   points="99.8587,23.2004 98.6444,23.2004 97.4301,23.5041 96.8229,23.5041 95.9121,23.8076 95.6086,24.1112 95.6086,24.1112 95.6086,26.5398 95.6086,26.5398 95.6086,26.5398 95.9121,26.5398 96.5193,26.8435 96.2158,26.5398 96.2158,26.2363 97.1265,25.9327 98.3408,25.9327 100.162,25.6291 102.591,25.6291 105.323,25.6291 107.145,25.9327 108.359,25.9327 109.27,26.2363 109.27,26.5398 108.966,26.8435 109.573,26.5398 109.877,26.5398 109.877,26.5398 109.877,26.5398 109.877,24.1112 109.877,24.1112 109.877,24.1112 109.573,23.8076 108.663,23.5041 108.055,23.5041 106.841,23.2004 105.627,23.2004 103.805,23.2004 103.805,18.3431 101.68,18.3431 101.68,23.2004 "
   class="fil2 str1"
   id="_177646816" />
    <polygon
   points="154.2,61.7553 153.593,62.6661 152.682,63.2733 152.075,63.5768 151.164,63.8803 150.253,64.184 145.7,55.6837 146.307,55.3801 146.914,55.3801 147.217,55.0765 147.521,54.1657 147.521,52.9515 146.307,51.4335 144.485,50.2192 141.753,49.0049 138.717,47.487 135.378,46.2727 128.395,44.1476 123.842,42.3261 119.592,40.201 110.788,35.3437 106.841,33.2187 103.198,31.7008 100.162,30.79 98.948,30.79 97.7337,31.0936 99.5552,30.4864 101.68,30.1828 104.412,30.4864 107.448,31.3971 107.752,31.3971 112.305,33.8258 117.163,36.5581 122.02,38.9867 126.877,41.1117 129.306,42.0225 131.431,42.6297 135.985,43.844 139.931,45.362 143.575,46.8798 146.61,48.7013 149.039,50.5228 150.86,52.3443 151.468,53.8622 151.468,54.7729 151.468,55.3801 150.86,56.2908 150.86,56.898 150.253,57.2016 149.646,57.2016 148.432,57.2016 151.771,61.7553 153.593,60.8446 155.111,59.3267 155.414,58.7195 154.807,60.8446 "
   class="fil0 str0"
   id="_177647080" />
    <polygon
   points="153.593,60.8446 151.771,61.7553 148.432,56.898 149.95,56.898 150.86,56.2908 151.468,55.0765 151.468,53.8622 150.86,52.3443 149.039,50.5228 146.61,48.7013 143.575,46.8798 139.931,45.362 135.985,43.844 131.431,42.6297 129.306,42.0225 126.877,41.1117 122.02,38.9867 117.163,36.5581 112.305,33.8258 107.752,31.3971 107.448,31.3971 113.52,33.5222 119.895,36.2544 126.574,38.9867 132.646,40.8082 137.503,42.0225 142.057,43.844 146.61,45.6655 150.253,47.7905 153.593,50.2192 154.503,51.4335 155.414,52.6478 156.021,54.1657 156.325,55.6837 156.021,57.2016 155.414,58.7195 155.111,59.3267 "
   class="fil0 str0"
   id="_177647464" />
    <polygon
   points="109.27,32.3079 110.18,32.915 111.395,33.2187 112.609,33.2187 113.52,32.6115 114.431,31.7008 114.734,30.1828 114.431,28.9685 114.127,28.0577 113.216,27.147 112.002,26.8435 110.788,26.8435 109.573,27.4505 108.966,28.6649 108.359,29.8792 108.663,31.0936 "
   class="fil1 str1"
   id="_177647728" />
    <polygon
   points="139.931,43.5404 140.842,44.4511 142.057,44.7548 143.271,44.4511 144.182,43.844 145.092,42.9333 145.396,41.7189 145.092,40.5045 144.789,39.2903 143.878,38.3795 142.664,38.076 141.449,38.3795 140.235,38.9867 139.628,39.8975 139.021,41.1117 139.324,42.6297 "
   class="fil1 str1"
   id="_177648112" />
    <polygon
   points="146.003,46.2727 146.914,47.1834 148.128,47.487 149.343,47.1834 150.557,46.5762 151.164,45.6655 151.468,44.4511 151.468,43.2368 150.86,42.0225 149.95,41.1117 148.735,40.8082 147.521,41.1117 146.61,41.7189 145.7,42.6297 145.396,43.844 145.396,45.0583 "
   class="fil1 str1"
   id="_177648376" />
    <polygon
   points="150.86,51.13 151.771,52.0407 152.985,52.3443 154.2,52.0407 155.111,51.4335 156.021,50.5228 156.325,49.3084 156.021,48.0942 155.718,46.8798 154.807,45.969 153.593,45.6655 152.378,45.969 151.164,46.5762 150.253,47.487 149.95,48.7013 150.253,50.2192 "
   class="fil1 str1"
   id="_177648760" />
    <polygon
   points="115.038,34.7365 115.949,35.6473 117.163,35.9509 118.377,35.9509 119.592,35.3437 120.199,34.1294 120.806,32.915 120.502,31.7008 119.895,30.4864 118.984,29.8792 117.77,29.5757 116.556,29.5757 115.645,30.1828 114.734,31.0936 114.431,32.6115 114.431,33.8258 "
   class="fil1 str1"
   id="_177649024" />
    <polygon
   points="121.109,37.7724 122.02,38.3795 123.235,38.6831 124.449,38.6831 125.36,38.076 126.27,37.1652 126.574,35.6473 126.27,34.433 125.967,33.5222 125.056,32.6115 123.842,32.3079 122.627,32.3079 121.413,32.915 120.806,34.1294 120.199,35.3437 120.502,36.5581 "
   class="fil1 str1"
   id="_177649408" />
    <polygon
   points="127.181,39.5938 128.092,40.5045 129.306,40.8082 130.521,40.5045 131.431,39.8975 132.342,38.9867 132.646,37.7724 132.646,36.5581 132.038,35.3437 131.128,34.433 129.913,34.1294 128.699,34.433 127.485,35.0402 126.877,35.9509 126.27,37.1652 126.574,38.6831 "
   class="fil1 str1"
   id="_177649672" />
    <polygon
   points="133.253,41.7189 134.163,42.3261 135.378,42.6297 136.592,42.6297 137.806,42.0225 138.414,41.1117 138.717,39.5938 138.717,38.3795 138.11,37.1652 137.199,36.5581 135.985,36.2544 134.771,36.2544 133.86,36.8616 132.949,38.076 132.646,39.2903 132.646,40.5045 "
   class="fil1 str1"
   id="_177650056" />
    <polygon
   points="51.2856,61.7553 51.8928,62.6661 52.8036,63.2733 53.4108,63.5768 54.3215,63.8803 55.2322,64.184 59.786,55.6837 59.1788,55.3801 58.5716,55.3801 58.2681,55.0765 57.9645,54.1657 57.9645,52.9515 59.1788,51.4335 61.0003,50.2192 63.7326,49.0049 66.7683,47.487 70.1078,46.2727 77.0901,44.1476 81.6439,42.3261 85.894,40.201 94.6979,35.3437 98.6444,33.2187 102.287,31.7008 105.323,30.79 106.537,30.79 107.752,31.0936 105.93,30.4864 103.805,30.1828 101.073,30.4864 98.0373,31.3971 97.7337,31.3971 93.1799,33.8258 88.3226,36.5581 83.4653,38.9867 78.608,41.1117 76.1794,42.0225 74.0543,42.6297 69.5006,43.844 65.554,45.362 61.911,46.8798 58.8753,48.7013 56.4466,50.5228 54.6251,52.3443 54.0179,53.8622 54.0179,55.3801 54.6251,56.2908 54.6251,56.898 55.2322,57.2016 55.8394,57.2016 57.0538,57.2016 53.7143,61.7553 51.5893,60.8446 50.3749,59.3267 50.0714,58.7195 50.6786,60.8446 "
   class="fil0 str0"
   id="_177650320" />
    <polygon
   points="51.5893,60.8446 53.7143,61.7553 57.0538,56.898 55.5359,56.898 54.6251,56.2908 54.0179,55.0765 54.0179,53.8622 54.6251,52.3443 56.4466,50.5228 58.8753,48.7013 61.911,46.8798 65.554,45.362 69.5006,43.844 74.0543,42.6297 76.1794,42.0225 78.608,41.1117 83.4653,38.9867 88.3226,36.5581 93.1799,33.8258 97.7337,31.3971 98.0373,31.3971 91.9656,33.5222 85.5904,36.2544 78.9116,38.9867 72.84,40.8082 67.9827,42.0225 63.4289,43.844 58.8753,45.6655 55.2322,47.7905 51.8928,50.2192 50.9821,51.4335 50.0714,52.6478 49.4642,54.1657 49.1606,55.6837 49.4642,57.2016 50.0714,58.7195 50.3749,59.3267 "
   class="fil0 str0"
   id="_177650608" />
    <polygon
   points="96.2158,32.3079 95.3051,32.915 94.0907,33.2187 92.8764,33.2187 91.9656,32.6115 91.0548,31.7008 90.7513,30.1828 90.7513,28.9685 91.3585,28.0577 92.2692,27.147 93.4835,26.8435 94.6979,26.8435 95.9121,27.4505 96.5193,28.6649 97.1265,29.8792 96.8229,31.0936 "
   class="fil1 str1"
   id="_177651064" />
    <polygon
   points="65.554,43.5404 64.6433,44.4511 63.4289,44.7548 62.2146,44.4511 61.3039,43.844 60.3932,42.9333 60.0895,41.7189 60.3932,40.5045 60.6967,39.2903 61.6075,38.3795 62.8218,38.076 64.0361,38.3795 65.2505,38.9867 65.8576,39.8975 66.4648,41.1117 66.1612,42.6297 "
   class="fil1 str1"
   id="_177651328" />
    <polygon
   points="59.4823,46.2727 58.5716,47.1834 57.3573,47.487 56.143,47.1834 54.9287,46.5762 54.3215,45.6655 53.7143,44.4511 54.0179,43.2368 54.6251,42.0225 55.5359,41.1117 56.7501,40.8082 57.9645,41.1117 58.8753,41.7189 59.786,42.6297 60.0895,43.844 60.0895,45.0583 "
   class="fil1 str1"
   id="_177652096" />
    <polygon
   points="54.6251,51.13 53.7143,52.0407 52.5,52.3443 51.2856,52.0407 50.3749,51.4335 49.4642,50.5228 49.1606,49.3084 49.1606,48.0942 49.7678,46.8798 50.6786,45.969 51.8928,45.6655 53.1072,45.969 54.3215,46.5762 54.9287,47.487 55.5359,48.7013 55.2322,50.2192 "
   class="fil1 str1"
   id="_177652696" />
    <polygon
   points="90.4477,34.7365 89.5369,35.6473 88.3226,35.9509 87.1083,35.9509 85.894,35.3437 85.2868,34.1294 84.6796,32.915 84.9833,31.7008 85.5904,30.4864 86.5012,29.8792 87.7154,29.5757 88.9298,29.5757 89.8406,30.1828 90.7513,31.0936 91.0548,32.6115 91.0548,33.8258 "
   class="fil1 str1"
   id="_177650656" />
    <polygon
   points="84.3761,37.7724 83.4653,38.3795 82.2511,38.6831 81.0367,38.6831 80.1259,38.076 79.2152,37.1652 78.9116,35.6473 78.9116,34.433 79.5188,33.5222 80.4295,32.6115 81.6439,32.3079 82.8581,32.3079 84.0725,32.915 84.6796,34.1294 85.2868,35.3437 84.9833,36.5581 "
   class="fil1 str1"
   id="_177649792" />
    <polygon
   points="78.3045,39.5938 77.3936,40.5045 76.1794,40.8082 74.9651,40.5045 74.0543,39.8975 73.1435,38.9867 72.84,37.7724 72.84,36.5581 73.4472,35.3437 74.3579,34.433 75.5722,34.1294 76.7866,34.433 78.0008,35.0402 78.608,35.9509 78.9116,37.1652 78.9116,38.6831 "
   class="fil1 str1"
   id="_177649432" />
    <polygon
   points="72.2328,41.7189 71.3221,42.3261 70.1078,42.6297 68.8934,42.6297 67.6791,42.0225 67.0719,41.1117 66.7683,39.5938 66.7683,38.3795 67.3755,37.1652 68.2862,36.5581 69.5006,36.2544 70.7149,36.2544 71.6256,36.8616 72.5364,38.076 72.84,39.2903 72.84,40.5045 "
   class="fil1 str1"
   id="_177642016" />
    <polygon
   points="97.1265,32.6115 96.5193,35.3437 96.5193,38.3795 96.5193,38.9867 96.5193,39.8975 96.2158,42.9333 95.6086,45.6655 95.0014,48.0942 94.3942,50.2192 102.895,56.2908 111.091,50.2192 110.18,48.0942 109.573,45.6655 109.27,42.9333 108.966,39.8975 108.966,38.9867 108.966,38.3795 108.966,35.3437 108.359,32.6115 107.448,31.0936 105.93,30.1828 105.93,32.3079 105.93,32.915 105.93,33.2187 105.93,34.433 105.93,35.9509 105.93,37.4688 105.93,39.2903 105.93,40.8082 106.234,42.0225 106.234,42.3261 106.234,46.2727 106.841,47.7905 107.145,49.0049 102.895,52.9515 98.3408,49.0049 98.6444,47.7905 99.2515,46.2727 99.2515,42.3261 99.2515,42.0225 99.2515,40.8082 99.5552,39.2903 99.5552,37.4688 99.5552,35.9509 99.5552,34.433 99.5552,33.2187 99.5552,32.915 99.5552,32.3079 99.5552,30.1828 98.0373,31.0936 "
   class="fil0 str1"
   id="_177643024" />
    <polygon
   points="99.5552,32.915 99.5552,33.2187 99.5552,34.433 99.5552,35.9509 99.5552,37.4688 99.5552,39.2903 99.2515,40.8082 99.2515,42.0225 99.2515,42.3261 99.2515,46.2727 98.6444,47.7905 98.3408,49.0049 102.895,52.9515 107.145,49.0049 106.841,47.7905 106.234,46.2727 106.234,42.3261 106.234,42.0225 105.93,40.8082 105.93,39.2903 105.93,37.4688 105.93,35.9509 105.93,34.433 105.93,33.2187 105.93,32.915 105.93,32.3079 105.93,30.1828 104.412,29.5757 102.895,29.2721 102.895,29.2721 101.073,29.5757 99.5552,30.1828 99.5552,32.3079 "
   class="fil0 str1"
   id="_177642520" />
    <path
   d="m 106.234,31.0936 c 0,2.1251 -1.5179,3.9466 -3.643,3.9466 -1.8215,0 -3.3394,-1.8215 -3.3394,-3.9466 0,-1.8215 1.5179,-3.6431 3.3394,-3.6431 2.1251,0 3.643,1.8216 3.643,3.6431 z"
   class="fil1 str1"
   id="_177643816" />
    <path
   d="m 106.234,33.5222 c 0,2.1251 -1.5179,3.643 -3.643,3.643 -1.8215,0 -3.3394,-1.5179 -3.3394,-3.643 0,-2.1251 1.5179,-3.643 3.3394,-3.643 2.1251,0 3.643,1.5179 3.643,3.643 z"
   class="fil1 str1"
   id="_177645040" />
    <path
   d="m 106.234,35.3437 c 0,2.1251 -1.5179,3.9466 -3.643,3.9466 -1.8215,0 -3.3394,-1.8215 -3.3394,-3.9466 0,-1.8215 1.5179,-3.6429 3.3394,-3.6429 2.1251,0 3.643,1.8214 3.643,3.6429 z"
   class="fil1 str1"
   id="_177645256" />
    <path
   d="m 106.234,36.5581 c 0,2.125 -1.5179,3.9464 -3.643,3.9464 -1.8215,0 -3.3394,-1.8214 -3.3394,-3.9464 0,-1.8216 1.5179,-3.6431 3.3394,-3.6431 2.1251,0 3.643,1.8215 3.643,3.6431 z"
   class="fil1 str1"
   id="_177642304" />
    <path
   d="m 106.234,37.7724 c 0,1.8214 -1.5179,3.643 -3.643,3.643 -1.8215,0 -3.3394,-1.8216 -3.3394,-3.643 0,-2.1251 1.5179,-3.9466 3.3394,-3.9466 2.1251,0 3.643,1.8215 3.643,3.9466 z"
   class="fil1 str1"
   id="_177643600" />
    <path
   d="m 106.234,38.9867 c 0,1.8215 -1.5179,3.643 -3.643,3.643 -1.8215,0 -3.3394,-1.8215 -3.3394,-3.643 0,-2.1251 1.5179,-3.9465 3.3394,-3.9465 2.1251,0 3.643,1.8214 3.643,3.9465 z"
   class="fil1 str1"
   id="_177641152" />
    <path
   d="m 106.234,40.8082 c 0,2.1251 -1.5179,3.9466 -3.643,3.9466 -1.8215,0 -3.3394,-1.8215 -3.3394,-3.9466 0,-1.8215 1.5179,-3.643 3.3394,-3.643 2.1251,0 3.643,1.8215 3.643,3.643 z"
   class="fil1 str1"
   id="_179495608" />
    <path
   d="m 106.234,45.6655 c 0,1.8215 -1.5179,3.6429 -3.643,3.6429 -1.8215,0 -3.3394,-1.8214 -3.3394,-3.6429 0,-2.1251 1.5179,-3.9466 3.3394,-3.9466 2.1251,0 3.643,1.8215 3.643,3.9466 z"
   class="fil1 str1"
   id="_179495584" />
    <polygon
   points="42.7854,99.0959 43.9997,100.31 44.9105,101.221 45.8213,101.828 46.732,101.828 47.0355,101.524 47.0355,100.614 47.0355,99.0959 46.4283,96.9708 42.1782,88.7741 41.571,88.1669 40.6603,88.1669 40.0532,88.7741 39.7496,89.3813 38.8388,92.1135 40.9639,95.7564 "
   class="fil2 str1"
   id="_179495800" />
    <polygon
   points="42.1782,93.3277 40.3568,90.8991 38.5353,88.1669 36.7137,84.8275 36.1066,84.524 35.1959,84.524 34.5887,84.8275 34.5887,85.4347 37.3209,89.9883 39.446,93.3277 41.2675,95.7564 42.7854,97.2743 43.3926,95.1493 "
   class="fil2 str1"
   id="_179495848" />
    <polygon
   points="162.7,99.0959 161.486,100.31 160.575,101.221 159.664,101.828 158.754,101.828 158.45,101.524 158.45,100.614 158.45,99.0959 159.057,96.9708 163.307,88.7741 163.914,88.1669 164.825,88.1669 165.432,88.7741 165.736,89.3813 166.647,92.1135 164.522,95.7564 "
   class="fil2 str1"
   id="_179496016" />
    <polygon
   points="164.218,95.7564 166.039,93.3277 168.165,89.9883 170.897,85.4347 170.897,84.8275 170.29,84.524 169.379,84.524 168.772,84.8275 166.95,88.1669 164.825,90.8991 163.307,93.3277 161.789,95.1493 162.7,97.2743 "
   class="fil2 str1"
   id="_179496064" />
    <polygon
   points="23.6597,64.4875 25.1777,64.7911 27.9099,66.0055 29.7314,67.5234 30.3386,68.4341 30.6421,69.0413 31.5529,68.7377 32.1601,68.4341 33.9815,68.7377 33.678,69.952 33.678,71.47 33.3743,72.6842 33.0708,74.2022 34.5887,74.8093 35.1959,75.7201 36.4102,75.1129 37.6246,75.1129 37.6246,76.6308 37.6246,78.1487 37.3209,78.7559 37.0174,79.363 36.4102,80.2737 36.1066,80.5774 36.4102,81.4881 38.5353,79.0595 40.9639,79.0595 41.571,79.363 42.1782,79.9702 42.7854,80.5774 43.6961,80.8809 43.089,81.7917 42.4819,82.7024 41.2675,84.8275 40.0532,85.4347 38.5353,85.131 40.3568,86.0419 41.571,86.9526 42.4819,88.1669 43.089,89.3813 41.571,89.3813 40.6603,89.3813 42.7854,92.417 44.9105,94.8457 43.9997,94.8457 38.8388,92.7206 34.2852,88.4704 29.1242,81.1846 28.8207,69.6484 27.3028,68.4341 25.7848,67.2197 25.1777,66.6126 23.9634,66.0055 22.4455,65.7018 20.3203,65.7018 21.8383,64.7911 "
   class="fil2 str1"
   id="_179496232" />
    <polygon
   points="24.5706,67.8269 25.7848,69.6484 26.9992,71.7735 28.2135,76.6308 28.517,79.0595 29.1242,81.4881 33.9815,88.4704 35.803,90.5955 37.6246,92.417 39.1425,93.9349 40.6603,94.8457 41.8747,94.8457 42.4819,94.8457 43.089,94.8457 44.3033,94.8457 43.089,94.2386 42.1782,93.6314 40.9639,91.8099 40.0532,90.8991 38.8388,89.9883 37.0174,89.0776 34.8923,88.1669 35.4995,87.8633 36.1066,87.8633 37.6246,88.7741 39.1425,89.3813 40.3568,89.3813 42.1782,89.3813 40.6603,87.5597 39.1425,86.649 37.6246,85.7382 36.4102,85.131 37.6246,84.8275 38.5353,85.131 39.446,85.4347 40.0532,85.131 40.9639,84.524 41.571,83.3096 41.8747,82.0953 42.7854,80.8809 41.571,80.2737 40.3568,79.6666 39.1425,79.0595 37.6246,79.363 37.0174,79.9702 36.4102,80.5774 35.4995,81.4881 34.5887,82.0953 34.5887,80.5774 35.1959,79.6666 35.803,79.0595 36.1066,78.1487 36.4102,77.5415 36.4102,76.9343 36.1066,76.0236 36.4102,75.1129 34.5887,75.7201 33.3743,76.6308 32.7673,77.5415 32.4636,78.4523 31.8565,79.9702 31.2493,80.8809 30.6421,81.4881 30.6421,80.2737 30.6421,79.6666 31.2493,78.7559 32.1601,77.8451 32.7673,76.9343 33.678,75.7201 33.0708,75.1129 32.4636,74.8093 31.5529,74.5057 32.1601,73.2914 32.1601,72.077 32.4636,70.5591 32.7673,69.0413 31.5529,68.7377 30.6421,69.0413 29.7314,69.952 29.4279,69.0413 28.8207,68.1306 27.9099,67.2197 26.6956,66.309 25.1777,65.3983 23.6597,65.0947 21.8383,65.0947 20.0168,66.0055 22.749,66.6126 "
   class="fil2 str1"
   id="_179496280" />
    <polyline
   points="30.9457,72.077 30.035,74.5057 29.4279,76.9343 29.4279,79.363 29.4279,81.7917 "
   class="fil5 str2"
   id="_179496448" />
    <polyline
   points="33.3743,79.9702 32.4636,81.7917 30.6421,83.3096 "
   class="fil5 str2"
   id="_179496496" />
    <polyline
   points="38.8388,82.3988 37.3209,82.7024 35.803,83.3096 34.2852,84.2203 33.0708,84.524 31.8565,84.8275 "
   class="fil5 str2"
   id="_179496664" />
    <polyline
   points="32.4636,85.7382 35.4995,86.3454 37.9281,87.2562 "
   class="fil5 str2"
   id="_179496712" />
    <polyline
   points="33.678,87.8633 35.4995,89.6848 37.3209,90.8991 38.5353,91.8099 39.446,92.7206 "
   class="fil5 str2"
   id="_179496880" />
    <polygon
   points="32.1601,88.1669 30.9457,88.1669 29.7314,87.5597 28.8207,86.649 28.2135,85.4347 28.2135,84.2203 28.517,83.006 29.4279,82.3988 29.4279,82.0953 33.3743,87.8633 "
   class="fil6 str1"
   id="_179496928" />
    <polygon
   points="33.3743,88.4704 33.9815,88.1669 31.5529,84.2203 30.3386,82.7024 29.4279,81.4881 28.517,82.0953 "
   class="fil0 str1"
   id="_179497096" />
    <polygon
   points="181.826,64.4875 180.308,64.7911 177.576,66.0055 175.754,67.5234 175.147,68.4341 174.843,69.0413 173.933,68.7377 173.325,68.4341 171.504,68.7377 171.808,69.952 171.808,71.47 171.808,72.6842 172.415,74.2022 170.897,74.8093 170.29,75.7201 169.075,75.1129 167.861,75.1129 167.861,76.6308 167.861,78.1487 168.165,78.7559 168.468,79.363 169.075,80.2737 169.379,80.5774 169.075,81.4881 166.95,79.0595 164.522,79.0595 163.914,79.363 163.307,79.9702 162.7,80.5774 161.789,80.8809 162.397,81.7917 163.004,82.7024 164.218,84.8275 165.432,85.4347 166.95,85.131 165.129,86.0419 163.914,86.9526 163.004,88.1669 162.397,89.3813 163.914,89.3813 164.825,89.3813 162.7,92.417 160.575,94.8457 161.486,94.8457 166.647,92.7206 171.2,88.4704 176.361,81.1846 176.665,69.6484 178.183,68.4341 179.701,67.2197 180.308,66.6126 181.522,66.0055 183.04,65.7018 185.165,65.7018 183.647,64.7911 "
   class="fil2 str1"
   id="_179497144" />
    <polygon
   points="180.915,67.8269 179.701,69.6484 178.486,71.7735 177.272,76.6308 176.968,79.0595 176.361,81.4881 171.504,88.4704 169.683,90.5955 167.861,92.417 166.343,93.9349 164.825,94.8457 163.611,94.8457 163.004,94.8457 162.397,94.8457 161.182,94.8457 162.397,94.2386 163.307,93.6314 164.522,91.8099 165.432,90.8991 166.647,89.9883 168.165,89.0776 170.593,88.1669 169.986,87.8633 169.075,87.8633 167.861,88.7741 166.343,89.3813 165.129,89.3813 163.307,89.3813 164.825,87.5597 166.343,86.649 167.861,85.7382 169.075,85.131 167.861,84.8275 166.95,85.131 166.039,85.4347 165.432,85.131 164.522,84.524 163.914,83.3096 163.611,82.0953 162.7,80.8809 163.914,80.2737 165.129,79.6666 166.343,79.0595 167.861,79.363 168.468,79.9702 169.075,80.5774 169.986,81.4881 170.897,82.0953 170.897,80.5774 170.29,79.6666 169.683,79.0595 169.075,78.1487 169.075,77.5415 169.075,76.9343 169.075,76.0236 169.075,75.1129 170.897,75.7201 172.111,76.6308 172.718,77.5415 173.022,78.4523 173.629,79.9702 174.236,80.8809 174.843,81.4881 174.843,80.2737 174.843,79.6666 174.236,78.7559 173.325,77.8451 172.718,76.9343 171.808,75.7201 172.415,75.1129 173.022,74.8093 173.629,74.5057 173.325,73.2914 173.325,72.077 173.022,70.5591 172.718,69.0413 173.933,68.7377 174.843,69.0413 175.754,69.952 176.058,69.0413 176.665,68.1306 177.576,67.2197 178.79,66.309 180.308,65.3983 181.826,65.0947 183.647,65.0947 185.469,66.0055 182.737,66.6126 "
   class="fil2 str1"
   id="_179497312" />
    <polyline
   points="174.54,72.077 175.451,74.5057 176.058,76.9343 176.058,79.363 176.058,81.7917 "
   class="fil5 str2"
   id="_179497360" />
    <polyline
   points="172.111,79.9702 172.415,81.1846 173.022,81.7917 174.843,83.3096 "
   class="fil5 str2"
   id="_179497528" />
    <polyline
   points="166.647,82.3988 168.165,82.7024 169.683,83.3096 171.2,84.2203 172.415,84.524 173.629,84.8275 "
   class="fil5 str2"
   id="_179497576" />
    <polyline
   points="173.022,85.7382 169.986,86.3454 167.557,87.2562 "
   class="fil5 str2"
   id="_179497768" />
    <polyline
   points="171.808,87.8633 169.986,89.6848 168.165,90.8991 166.95,91.8099 166.039,92.7206 "
   class="fil5 str2"
   id="_179497816" />
    <polygon
   points="173.325,88.1669 174.54,88.1669 175.754,87.5597 176.665,86.649 177.272,85.4347 177.272,84.2203 176.968,83.006 176.058,82.3988 176.058,82.0953 172.111,87.8633 "
   class="fil6 str1"
   id="_179498008" />
    <polygon
   points="172.111,88.4704 171.504,88.1669 173.629,84.2203 174.843,82.7024 176.058,81.4881 176.968,82.0953 "
   class="fil0 str1"
   id="_179498056" />
    <polygon
   points="101.984,76.0236 101.377,80.2737 100.466,82.3988 99.5552,84.524 98.3408,86.3454 96.8229,88.1669 94.6979,89.3813 91.9656,89.9883 89.2334,89.9883 86.8047,89.0776 84.3761,87.5597 82.2511,85.4347 80.4295,83.3096 79.2152,80.8809 78.3045,78.7559 78.0008,76.9343 77.6973,76.3273 76.7866,76.0236 76.1794,76.3273 75.8758,76.9343 76.1794,81.4881 75.5722,85.7382 74.9651,87.5597 73.7507,89.3813 72.5364,90.292 70.7149,91.2027 68.8934,91.2027 66.7683,90.8991 64.9468,89.9883 62.8218,88.4704 61.0003,86.3454 59.1788,84.2203 56.143,79.0595 55.5359,78.1487 54.6251,78.1487 54.0179,78.4523 54.0179,79.0595 54.9287,81.7917 55.5359,84.524 55.8394,86.9526 55.8394,88.7741 55.8394,90.5955 55.2322,91.8099 54.6251,93.0242 53.7143,93.6314 52.5,93.6314 51.2856,93.0242 49.7678,91.8099 47.9463,89.9883 46.4283,88.1669 44.6069,86.0419 41.8747,81.4881 41.2675,81.1846 40.3568,81.1846 39.7496,81.4881 39.7496,82.0953 41.2675,85.7382 43.089,89.0776 43.9997,92.7206 44.6069,96.06 43.3926,95.1493 42.7854,97.2743 43.9997,98.185 44.9105,98.7922 45.8213,98.7922 46.4283,98.4887 47.0355,97.578 47.0355,96.06 46.732,93.9349 45.8213,91.2027 48.2499,93.0242 50.6786,94.8457 51.8928,95.4528 53.4108,95.7564 54.3215,95.7564 55.5359,95.1493 57.0538,93.6314 57.9645,91.5063 58.2681,89.0776 58.2681,86.0419 61.0003,89.0776 64.3396,91.8099 65.8576,92.7206 67.6791,93.3277 69.5006,93.6314 71.0185,93.3277 74.0543,92.1135 76.1794,89.9883 77.3936,86.9526 78.3045,83.3096 80.7331,86.649 83.7689,89.9883 85.894,91.2027 87.7154,91.8099 90.1441,92.417 92.2692,92.417 94.6979,91.8099 96.5193,90.8991 98.0373,89.3813 99.5552,87.8633 101.68,84.8275 102.287,83.6132 102.591,82.3988 103.198,83.6132 103.805,84.8275 105.93,87.8633 107.145,89.3813 108.966,90.8991 110.788,91.8099 113.216,92.417 115.341,92.417 117.77,91.8099 119.592,91.2027 121.717,89.9883 124.752,86.649 127.181,83.3096 128.092,86.9526 129.306,89.9883 131.431,92.1135 134.467,93.3277 135.985,93.6314 137.806,93.3277 139.628,92.7206 141.146,91.8099 144.485,89.0776 147.217,86.0419 147.217,89.0776 147.521,91.5063 148.432,93.6314 149.95,95.1493 151.164,95.7564 152.075,95.7564 153.593,95.4528 154.807,94.8457 157.236,93.0242 159.664,91.2027 158.754,93.9349 158.45,96.06 158.45,97.578 159.057,98.4887 159.664,98.7922 160.575,98.7922 161.486,98.4887 162.7,97.2743 161.789,95.1493 160.879,96.06 161.486,92.7206 162.397,89.0776 164.218,85.7382 165.736,82.0953 165.736,81.4881 165.129,81.1846 164.218,81.1846 163.611,81.4881 160.879,86.0419 159.057,88.1669 157.539,89.9883 155.718,91.8099 154.2,93.0242 152.985,93.6314 151.771,93.6314 150.86,93.0242 150.253,91.8099 149.646,90.5955 149.646,88.7741 149.646,86.9526 149.95,84.524 150.557,81.7917 151.468,79.0595 151.468,78.4523 150.86,78.1487 149.95,78.1487 149.343,79.0595 146.307,84.2203 144.485,86.3454 142.664,88.4704 140.539,89.9883 138.717,90.8991 136.592,91.2027 134.771,91.2027 132.949,90.292 131.735,89.3813 130.521,87.5597 129.913,85.7382 129.306,81.4881 129.61,76.9343 129.306,76.3273 128.699,76.0236 128.092,76.3273 127.485,76.9343 127.181,78.7559 126.27,80.8809 125.056,83.3096 123.235,85.4347 121.109,87.5597 118.681,89.0776 116.252,89.9883 113.52,89.9883 110.788,89.3813 108.663,88.1669 107.145,86.3454 105.93,84.524 105.02,82.3988 104.109,80.2737 103.502,76.0236 103.198,75.7201 102.591,75.4164 102.287,75.7201 "
   class="fil2 str1"
   id="_179498248" />
    <path
   d="m 132.038,76.0236 c 0,1.8215 -1.5179,3.3394 -3.3394,3.3394 -2.1251,0 -3.643,-1.5179 -3.643,-3.3394 0,-1.5179 1.5179,-3.0358 3.643,-3.0358 1.8215,0 3.3394,1.5179 3.3394,3.0358 z"
   class="fil1 str1"
   id="_179498296" />
    <polygon
   points="130.217,79.0595 130.217,79.6666 129.61,79.6666 129.61,79.9702 129.306,80.2737 129.306,80.5774 129.003,80.8809 127.788,80.8809 126.877,80.5774 126.574,80.2737 126.574,79.9702 126.574,79.6666 126.27,79.363 126.27,79.0595 125.967,78.7559 128.092,79.0595 "
   class="fil2 str1"
   id="_179498464" />
    <path
   d="m 80.4295,76.0236 c 0,1.8215 -1.5179,3.3394 -3.3394,3.3394 -2.125,0 -3.6429,-1.5179 -3.6429,-3.3394 0,-1.5179 1.5179,-3.0358 3.6429,-3.0358 1.8215,0 3.3394,1.5179 3.3394,3.0358 z"
   class="fil1 str1"
   id="_179498512" />
    <polygon
   points="75.2686,79.0595 75.2686,79.6666 75.5722,79.6666 75.8758,79.9702 75.8758,80.2737 76.1794,80.5774 76.4829,80.8809 77.3936,80.8809 78.608,80.5774 78.9116,80.2737 78.9116,79.9702 78.9116,79.6666 79.2152,79.363 79.2152,79.0595 79.5188,78.7559 77.3936,79.0595 "
   class="fil2 str1"
   id="_179498704" />
    <polygon
   points="38.8388,84.2203 40.0532,84.524 41.571,84.2203 42.7854,83.6132 43.3926,82.3988 43.9997,81.1846 43.6961,79.9702 43.089,78.7559 41.8747,78.1487 40.6603,77.8451 39.1425,78.1487 38.2316,78.7559 37.3209,79.6666 37.0174,80.8809 37.0174,82.0953 37.9281,83.3096 "
   class="fil1 str1"
   id="_179498752" />
    <polygon
   points="39.7496,84.524 40.0532,84.8275 40.3568,84.8275 40.6603,84.8275 40.9639,85.4347 41.571,85.4347 42.4819,85.131 43.3926,84.524 43.6961,84.2203 43.6961,84.2203 43.3926,83.6132 43.3926,83.3096 43.6961,83.006 43.3926,82.7024 41.8747,83.6132 "
   class="fil2 str1"
   id="_179498944" />
    <polygon
   points="166.647,84.2203 165.432,84.524 163.914,84.2203 162.7,83.6132 162.093,82.3988 161.486,81.1846 161.789,79.9702 162.397,78.7559 163.611,78.1487 164.825,77.8451 166.343,78.1487 167.254,78.7559 168.165,79.6666 168.468,80.8809 168.468,82.0953 167.557,83.3096 "
   class="fil1 str1"
   id="_179498992" />
    <polygon
   points="165.736,84.524 165.432,84.8275 165.129,84.8275 164.825,84.8275 164.522,85.4347 163.914,85.4347 163.004,85.131 162.093,84.524 161.789,84.2203 161.789,84.2203 162.093,83.6132 162.093,83.3096 161.789,83.006 162.093,82.7024 163.611,83.6132 "
   class="fil2 str1"
   id="_179499184" />
    <polygon
   points="89.5369,62.6661 90.7513,62.9696 92.5728,63.5768 93.4835,64.184 94.0907,65.0947 95.9121,66.6126 98.0373,67.2197 99.5552,67.5234 100.162,67.5234 100.466,67.5234 98.3408,73.8986 86.5012,69.0413 86.5012,68.7377 86.8047,68.4341 87.7154,68.1306 88.6262,68.1306 89.8406,68.4341 90.7513,69.0413 91.9656,69.3448 93.4835,69.3448 88.9298,62.6661 "
   class="fil2 str1"
   id="_179499232" />
    <polygon
   points="115.949,62.6661 114.734,62.9696 112.913,63.5768 112.002,64.184 111.395,65.0947 109.573,66.6126 107.448,67.2197 105.93,67.5234 105.323,67.5234 105.02,67.5234 107.145,73.8986 118.984,69.0413 118.984,68.7377 118.681,68.4341 117.77,68.1306 116.859,68.1306 115.645,68.4341 114.734,69.0413 113.52,69.3448 112.002,69.3448 116.556,62.6661 "
   class="fil2 str1"
   id="_179499400" />
    <polygon
   points="99.8587,50.2192 98.948,52.3443 98.3408,54.7729 97.1265,53.8622 95.9121,53.8622 94.6979,54.1657 93.4835,54.4694 93.7871,55.6837 93.7871,57.2016 94.0907,59.023 94.3942,60.8446 93.7871,61.1482 93.1799,61.4517 91.9656,62.6661 92.2692,63.2733 93.1799,63.8803 95.3051,64.7911 97.7337,66.309 98.6444,67.2197 99.2515,68.4341 97.1265,67.8269 95.9121,67.2197 94.6979,66.309 94.0907,65.3983 93.1799,64.4875 92.2692,63.8803 90.7513,62.9696 88.6262,62.6661 88.6262,64.4875 88.9298,65.7018 89.2334,66.6126 89.8406,67.2197 91.3585,68.4341 91.662,69.0413 91.9656,69.952 90.7513,69.6484 89.8406,69.3448 89.2334,68.7377 88.0191,68.4341 86.5012,68.7377 85.2868,69.952 84.3761,70.8628 83.1618,71.7735 84.6796,72.6842 85.894,73.595 87.1083,74.5057 88.6262,75.1129 89.5369,75.1129 90.1441,74.5057 91.0548,74.2022 92.2692,74.2022 91.662,75.1129 91.0548,75.7201 89.8406,76.6308 89.2334,77.8451 89.2334,78.7559 89.5369,79.9702 91.662,79.9702 93.1799,79.6666 94.0907,79.0595 94.6979,78.1487 95.9121,76.6308 96.8229,76.3273 98.3408,76.3273 96.2158,77.8451 95.0014,79.363 94.0907,80.5774 93.7871,81.4881 94.0907,83.6132 93.7871,84.8275 93.4835,86.0419 95.9121,85.4347 97.7337,84.8275 99.8587,84.2203 101.377,83.3096 102.591,82.3988 104.109,83.3096 105.627,84.2203 107.752,84.8275 109.573,85.4347 112.002,86.0419 111.698,84.8275 111.395,83.6132 111.698,81.4881 111.395,80.5774 110.484,79.363 109.27,77.8451 107.145,76.3273 108.663,76.3273 109.573,76.6308 110.484,78.1487 111.395,79.0595 112.305,79.6666 113.823,79.9702 115.949,79.9702 116.252,78.7559 116.252,77.8451 115.645,76.6308 114.431,75.7201 113.823,75.1129 113.216,74.2022 114.431,74.2022 115.341,74.5057 115.949,75.1129 116.859,75.1129 118.377,74.5057 119.592,73.595 120.806,72.6842 122.324,71.7735 121.109,70.8628 120.199,69.952 118.984,68.7377 117.467,68.4341 116.252,68.7377 115.645,69.3448 114.734,69.6484 113.52,69.952 113.823,69.0413 114.127,68.4341 115.645,67.2197 116.252,66.6126 116.556,65.7018 116.859,64.4875 116.859,62.6661 114.734,62.9696 113.216,63.8803 112.305,64.4875 111.395,65.3983 110.788,66.309 109.573,67.2197 108.359,67.8269 106.234,68.4341 106.841,67.2197 107.752,66.309 110.18,64.7911 112.305,63.8803 112.913,63.2733 113.52,62.6661 112.305,61.4517 111.698,61.1482 111.091,60.8446 111.395,59.023 111.698,57.2016 111.698,55.6837 112.002,54.4694 110.788,54.1657 109.573,53.8622 108.359,53.8622 107.145,54.7729 106.537,52.3443 105.627,50.2192 104.412,48.0942 102.895,46.2727 102.591,46.2727 101.073,48.0942 "
   class="fil2 str1"
   id="_179499448" />
    <polyline
   points="102.895,68.7377 102.895,68.4341 102.591,67.8269 102.591,66.9162 102.591,65.7018 102.591,62.6661 102.591,59.023 102.591,55.6837 102.895,52.6478 102.895,51.4335 102.895,50.5228 102.895,49.9156 102.895,49.6121 "
   class="fil5 str2"
   id="_179499640" />
    <polyline
   points="101.68,75.4164 101.073,77.238 99.8587,79.363 98.3408,81.1846 96.8229,82.7024 "
   class="fil5 str2"
   id="_179499688" />
    <polyline
   points="99.2515,73.595 97.7337,73.8986 95.6086,74.5057 94.0907,75.4164 92.5728,76.3273 "
   class="fil5 str2"
   id="_179499856" />
    <polyline
   points="98.948,72.6842 96.8229,72.6842 94.6979,72.6842 91.662,71.7735 89.5369,71.1663 88.6262,71.1663 87.7154,71.47 "
   class="fil5 str2"
   id="_179499904" />
    <polyline
   points="99.2515,70.5591 98.948,70.5591 98.0373,70.2556 97.1265,69.952 95.6086,69.6484 95.0014,69.3448 94.0907,68.4341 92.8764,66.9162 "
   class="fil5 str2"
   id="_179500072" />
    <polyline
   points="101.984,68.4341 101.984,68.1306 101.68,67.2197 101.073,65.7018 100.466,63.5768 99.2515,61.4517 98.0373,59.6302 97.4301,58.7195 97.1265,58.416 "
   class="fil5 str2"
   id="_179500120" />
    <polyline
   points="103.805,75.4164 104.412,77.238 105.627,79.363 107.145,81.1846 108.663,82.7024 "
   class="fil5 str2"
   id="_179500288" />
    <polyline
   points="106.234,73.595 107.752,73.8986 109.573,74.5057 111.395,75.4164 112.913,76.3273 "
   class="fil5 str2"
   id="_179500336" />
    <polyline
   points="106.537,72.6842 108.663,72.6842 110.788,72.6842 113.823,71.7735 115.949,71.1663 116.859,71.1663 117.77,71.47 "
   class="fil5 str2"
   id="_179500504" />
    <polyline
   points="106.234,70.5591 106.537,70.5591 107.448,70.2556 108.359,69.952 109.877,69.6484 110.484,69.3448 111.395,68.4341 112.609,66.9162 "
   class="fil5 str2"
   id="_179500552" />
    <polyline
   points="103.502,68.4341 103.502,68.1306 103.805,67.2197 104.412,65.7018 105.02,63.5768 106.234,61.4517 107.448,59.6302 108.055,58.7195 108.359,58.416 "
   class="fil5 str2"
   id="_179500744" />
    <path
   d="m 107.145,72.077 c 0,2.1252 -1.8215,3.9466 -4.2501,3.9466 -2.4287,0 -4.2502,-1.8214 -4.2502,-3.9466 0,-2.125 1.8215,-3.9464 4.2502,-3.9464 2.4286,0 4.2501,1.8214 4.2501,3.9464 z"
   class="fil2 str1"
   id="_179500792" />
    <path
   d="m 106.234,72.077 c 0,1.8216 -1.5179,3.3394 -3.3393,3.3394 -1.8215,0 -3.3394,-1.5178 -3.3394,-3.3394 0,-1.8214 1.5179,-3.3393 3.3394,-3.3393 1.8214,0 3.3393,1.5179 3.3393,3.3393 z"
   class="fil1 str1"
   id="_179500960" />
    <polygon
   points="77.0901,92.417 64.3396,93.6314 57.9645,94.5421 51.5893,95.4528 48.5535,96.3636 45.5176,97.2743 42.7854,98.7922 41.8747,100.007 41.2675,101.221 41.2675,102.435 41.571,103.346 43.3926,105.167 45.5176,106.078 47.6427,106.989 52.5,108.203 57.0538,109.114 66.7683,110.328 76.7866,110.935 86.5012,111.543 101.68,111.543 116.859,111.543 132.038,110.935 147.217,109.114 151.468,108.507 155.414,107.596 159.664,106.382 163.307,104.257 163.914,103.346 164.218,102.132 164.218,101.221 163.611,100.007 162.093,98.4887 159.968,97.578 156.021,96.06 152.075,95.1493 144.182,93.9349 135.985,93.0242 127.788,92.417 115.341,92.1135 102.591,92.1135 89.8406,92.1135 "
   class="fil2 str1"
   id="_179501008" />
    <polygon
   points="89.8406,96.06 84.0725,96.3636 78.9116,96.6672 75.2686,96.6672 70.1078,96.9708 65.554,97.578 61.3039,97.8815 57.9645,98.4887 54.9287,98.7922 52.1965,99.3994 50.0714,100.007 48.5535,100.31 47.3392,100.614 45.5176,101.524 44.6069,102.132 44.3033,102.435 43.9997,102.739 43.6961,103.042 43.6961,103.346 46.732,114.275 57.3573,114.275 148.128,114.275 158.754,114.275 161.789,103.346 161.789,103.042 161.486,102.739 161.182,102.435 160.271,101.524 159.057,101.221 157.843,100.614 157.843,100.614 156.325,100.007 154.2,99.703 151.771,99.0959 148.735,98.4887 145.092,97.8815 140.842,97.578 135.985,96.9708 130.217,96.6672 130.217,96.6672 126.574,96.6672 121.413,96.3636 115.645,96.06 109.573,96.06 102.591,96.06 95.9121,96.06 "
   class="fil2 str1"
   id="_179501176" />
    <path
   d="m 129.306,101.524 c 0,2.125 -1.8215,3.9465 -3.6429,3.9465 -2.1251,0 -3.9466,-1.8215 -3.9466,-3.9465 0,-2.1251 1.8215,-3.9465 3.9466,-3.9465 1.8214,0 3.6429,1.8214 3.6429,3.9465 z"
   class="fil2 str1"
   id="_179501224" />
    <path
   d="m 129.61,101.524 c 0,2.125 -1.8215,3.9465 -3.9465,3.9465 -1.8215,0 -3.6431,-1.8215 -3.6431,-3.9465 0,-2.1251 1.8216,-3.9465 3.6431,-3.9465 2.125,0 3.9465,1.8214 3.9465,3.9465 z"
   class="fil2 str1"
   id="_179501392" />
    <path
   d="m 129.306,101.524 c 0,1.8215 -1.5179,3.3394 -3.3394,3.3394 -1.8215,0 -3.3394,-1.5179 -3.3394,-3.3394 0,-1.8215 1.5179,-3.3395 3.3394,-3.3395 1.8215,0 3.3394,1.518 3.3394,3.3395 z"
   class="fil1 str1"
   id="_179501440" />
    <path
   d="m 83.7689,101.524 c 0,2.125 -1.8215,3.9465 -3.643,3.9465 -2.1251,0 -3.9465,-1.8215 -3.9465,-3.9465 0,-2.1251 1.8214,-3.9465 3.9465,-3.9465 1.8215,0 3.643,1.8214 3.643,3.9465 z"
   class="fil2 str1"
   id="_179501608" />
    <path
   d="m 83.4653,101.524 c 0,2.125 -1.8214,3.9465 -3.9465,3.9465 -1.8215,0 -3.643,-1.8215 -3.643,-3.9465 0,-2.1251 1.8215,-3.9465 3.643,-3.9465 2.1251,0 3.9465,1.8214 3.9465,3.9465 z"
   class="fil2 str1"
   id="_179501656" />
    <path
   d="m 82.8581,101.524 c 0,1.8215 -1.5179,3.3394 -3.3393,3.3394 -1.8215,0 -3.3394,-1.5179 -3.3394,-3.3394 0,-1.8215 1.5179,-3.3395 3.3394,-3.3395 1.8214,0 3.3393,1.518 3.3393,3.3395 z"
   class="fil1 str1"
   id="_179501824" />
    <polygon
   points="61.6075,99.0959 67.3755,102.132 67.9827,101.828 61.911,99.0959 "
   class="fil5 str1"
   id="_179501872" />
    <polygon
   points="61.6075,107.293 67.3755,102.132 67.9827,101.828 61.911,106.989 "
   class="fil5 str1"
   id="_179502040" />
    <polyline
   points="61.6075,107.293 55.8394,104.257 61.3039,99.0959 "
   class="fil5 str1"
   id="_179502088" />
    <polygon
   points="57.0538,103.953 61.3039,100.007 65.8576,102.435 61.3039,106.382 "
   class="fil7 str1"
   id="_179502256" />
    <polygon
   points="58.2681,103.649 60.3932,101.828 62.8218,103.042 60.3932,104.864 "
   class="fil5 str1"
   id="_179502304" />
    <line
   y2="104.864"
   x2="60.3932"
   y1="106.382"
   x1="61.303902"
   class="fil5 str1"
   id="_179502472" />
    <line
   y2="103.649"
   x2="58.268101"
   y1="103.953"
   x1="57.053799"
   class="fil5 str1"
   id="_179502520" />
    <line
   y2="102.435"
   x2="65.857597"
   y1="103.042"
   x1="62.8218"
   class="fil5 str1"
   id="_179502688" />
    <line
   y2="100.007"
   x2="61.303902"
   y1="101.828"
   x1="60.3932"
   class="fil5 str1"
   id="_179502736" />
    <polygon
   points="143.878,99.0959 138.11,102.132 137.503,101.828 143.575,99.0959 "
   class="fil5 str1"
   id="_179502904" />
    <polygon
   points="143.878,107.293 138.11,102.132 137.503,101.828 143.575,106.989 "
   class="fil5 str1"
   id="_179502952" />
    <polyline
   points="143.878,107.293 149.646,104.257 144.182,99.0959 "
   class="fil5 str1"
   id="_179503120" />
    <polygon
   points="148.432,103.953 144.182,100.007 139.628,102.435 144.182,106.382 "
   class="fil7 str1"
   id="_179503168" />
    <polygon
   points="147.217,103.649 145.092,101.828 142.664,103.042 145.092,104.864 "
   class="fil5 str1"
   id="_179503336" />
    <line
   y2="104.864"
   x2="145.092"
   y1="106.382"
   x1="144.18201"
   class="fil5 str1"
   id="_179503384" />
    <line
   y2="103.649"
   x2="147.217"
   y1="103.953"
   x1="148.43201"
   class="fil5 str1"
   id="_179503552" />
    <line
   y2="102.435"
   x2="139.62801"
   y1="103.042"
   x1="142.664"
   class="fil5 str1"
   id="_179503600" />
    <line
   y2="100.007"
   x2="144.18201"
   y1="101.828"
   x1="145.092"
   class="fil5 str1"
   id="_179503768" />
    <polygon
   points="108.055,97.2743 109.573,98.185 110.484,99.3994 110.788,100.917 110.484,102.435 109.573,103.953 108.055,104.56 106.537,105.167 98.948,105.167 97.4301,104.56 95.9121,103.953 95.0014,102.435 94.6979,100.917 95.0014,99.3994 95.9121,98.185 97.4301,97.2743 98.948,96.9708 106.537,96.9708 "
   class="fil0 str1"
   id="_179503816" />
    <polygon
   points="107.752,97.8815 108.663,98.4887 109.573,99.703 109.877,100.917 109.573,102.435 108.663,103.346 107.752,104.257 106.234,104.56 99.2515,104.56 97.7337,104.257 96.8229,103.346 95.9121,102.435 95.6086,100.917 95.9121,99.703 96.8229,98.4887 97.7337,97.8815 99.2515,97.578 106.234,97.578 "
   class="fil3 str1"
   id="_179503984" />
    <path
   d="m 43.3926,95.1493 -0.9107,1.8215 0.6071,0.3035 0.6071,-1.8215 z m 118.7,0 v 0 l -0.3037,0.3035 0.6072,1.8215 0.6072,-0.3035 z"
   class="fil2 str1"
   id="_179504032" />
    <polygon
   points="49.4642,53.8622 50.6786,54.1657 51.5893,54.7729 52.5,55.6837 53.7143,58.1123 54.3215,60.2374 57.0538,59.3267 58.8753,59.3267 60.3932,59.6302 60.0895,61.1482 60.0895,62.0589 59.786,63.5768 59.4823,65.3983 60.6967,65.7018 61.6075,66.309 61.911,66.6126 62.5182,66.9162 60.0895,68.4341 57.6609,69.6484 56.143,70.8628 55.5359,71.7735 55.2322,72.6842 59.786,72.077 61.0003,70.5591 62.2146,68.7377 63.7326,67.5234 64.9468,66.9162 66.1612,66.9162 66.1612,68.4341 66.1612,69.3448 65.554,70.2556 64.9468,70.8628 63.7326,71.7735 63.1254,72.6842 62.8218,73.8986 64.0361,73.8986 65.8576,73.8986 69.197,73.8986 70.7149,73.8986 71.9293,73.8986 72.84,74.2022 73.1435,74.5057 71.9293,75.1129 71.3221,75.7201 70.1078,76.6308 69.5006,77.5415 68.2862,78.1487 67.3755,78.4523 66.4648,77.8451 65.8576,77.238 64.9468,76.9343 64.0361,77.238 64.0361,77.238 64.6433,77.8451 65.8576,78.1487 67.3755,79.0595 68.8934,79.9702 69.5006,81.1846 69.5006,82.0953 69.5006,82.3988 67.0719,82.7024 65.2505,82.3988 64.0361,81.7917 62.8218,81.1846 64.0361,82.3988 64.9468,83.3096 66.1612,85.131 67.0719,86.649 67.6791,87.5597 68.2862,88.4704 67.6791,88.4704 64.3396,88.1669 61.911,87.5597 59.4823,86.3454 57.0538,85.4347 57.0538,86.649 56.4466,87.8633 55.5359,89.0776 54.6251,90.292 54.3215,90.292 51.5893,84.2203 51.2856,84.524 50.9821,84.8275 50.3749,84.8275 47.3392,77.5415 46.4283,76.9343 45.8213,76.3273 45.8213,75.4164 45.5176,74.5057 46.1248,74.5057 46.4283,74.5057 47.0355,74.5057 45.8213,71.47 45.5176,69.3448 46.4283,69.6484 46.732,69.952 47.0355,70.5591 47.6427,72.3807 48.2499,74.2022 49.7678,69.3448 47.0355,60.8446 48.5535,60.2374 48.5535,59.3267 48.5535,58.7195 48.857,57.2016 48.857,56.2908 48.857,55.6837 47.9463,55.0765 46.732,54.4694 47.9463,53.8622 "
   class="fil2 str1"
   id="_179504200" />
    <polygon
   points="49.1606,54.1657 50.3749,54.7729 51.5893,55.3801 52.8036,57.5051 53.4108,59.9338 56.4466,59.3267 57.9645,59.3267 59.4823,59.6302 58.8753,61.4517 58.8753,62.9696 58.8753,64.4875 57.9645,66.0055 59.4823,66.0055 60.0895,66.309 60.6967,66.6126 61.3039,67.2197 60.0895,68.1306 58.5716,69.0413 56.143,69.952 54.6251,71.1663 54.0179,72.077 53.7143,73.2914 55.8394,72.3807 57.0538,71.7735 57.9645,71.1663 58.5716,70.5591 59.1788,69.3448 59.786,68.7377 60.3932,68.1306 62.8218,67.2197 65.554,66.9162 65.554,68.4341 65.2505,69.6484 64.9468,70.5591 64.3396,71.1663 62.8218,72.077 62.2146,72.6842 61.6075,73.8986 63.7326,73.2914 64.9468,72.6842 66.1612,71.7735 67.3755,71.47 68.5899,71.47 70.1078,72.3807 72.84,74.5057 71.6256,74.8093 70.7149,75.7201 69.5006,76.9343 68.2862,77.8451 67.0719,78.4523 66.1612,77.8451 65.2505,77.5415 64.3396,77.5415 63.1254,77.8451 64.6433,78.4523 66.4648,79.363 67.9827,80.2737 68.5899,81.1846 68.8934,82.3988 67.3755,82.7024 65.8576,82.7024 62.8218,81.7917 60.0895,80.8809 57.0538,80.2737 58.8753,80.8809 60.3932,81.4881 62.8218,82.3988 64.0361,83.6132 64.9468,84.524 65.554,85.4347 65.8576,86.649 66.4648,87.5597 67.6791,88.4704 65.554,88.1669 63.1254,88.1669 60.3932,87.5597 58.8753,86.9526 57.0538,86.0419 56.7501,86.9526 55.8394,87.8633 54.9287,89.0776 54.3215,90.292 53.4108,88.4704 52.1965,86.649 51.2856,84.524 51.2856,83.006 51.2856,81.4881 50.9821,82.0953 50.9821,83.3096 50.9821,84.524 50.6786,84.8275 50.0714,84.8275 49.1606,83.9168 48.5535,82.7024 48.2499,80.8809 48.2499,80.5774 47.9463,80.5774 47.6427,80.8809 47.3392,80.5774 47.0355,80.2737 46.1248,79.363 44.9105,78.1487 44.9105,77.238 44.9105,76.0236 45.2141,75.1129 45.5176,74.5057 46.1248,75.4164 47.0355,75.7201 46.4283,74.2022 45.5176,72.9878 45.5176,72.3807 45.2141,71.47 45.5176,69.3448 46.1248,70.5591 46.4283,72.077 47.0355,72.9878 48.2499,73.8986 47.9463,72.3807 47.6427,71.47 46.4283,70.5591 46.1248,69.952 45.8213,69.3448 45.8213,68.4341 46.4283,67.2197 46.4283,66.309 46.4283,65.0947 46.4283,62.6661 46.4283,61.4517 46.732,60.8446 47.0355,60.8446 47.6427,61.1482 47.6427,59.023 47.9463,56.898 47.6427,55.3801 47.3392,54.7729 46.4283,54.4694 47.9463,54.1657 "
   class="fil2 str1"
   id="_179504248" />
    <polyline
   points="50.0714,73.2914 49.7678,69.952 49.4642,67.2197 49.7678,64.7911 49.7678,62.6661 50.0714,59.023 50.0714,57.5051 49.4642,55.6837 "
   class="fil5 str2"
   id="_179504416" />
    <polyline
   points="56.143,63.5768 53.7143,66.0055 52.1965,68.4341 51.2856,70.8628 50.9821,73.2914 "
   class="fil5 str2"
   id="_179504464" />
    <polyline
   points="54.9287,76.6308 58.2681,76.3273 61.3039,75.7201 64.0361,74.8093 67.6791,74.5057 "
   class="fil5 str2"
   id="_179504632" />
    <polyline
   points="54.6251,75.4164 57.0538,74.5057 58.8753,73.595 60.0895,72.077 61.0003,70.8628 "
   class="fil5 str2"
   id="_179504680" />
    <polyline
   points="54.9287,77.5415 57.3573,77.8451 59.786,78.1487 61.6075,78.7559 62.8218,79.6666 "
   class="fil5 str2"
   id="_179504848" />
    <polyline
   points="53.4108,80.2737 54.6251,81.4881 55.8394,82.3988 57.9645,83.6132 59.786,84.2203 61.911,85.131 "
   class="fil5 str2"
   id="_179504896" />
    <polyline
   points="52.8036,79.9702 52.8036,82.0953 53.1072,83.6132 53.4108,85.131 54.0179,86.3454 "
   class="fil5 str2"
   id="_179505064" />
    <line
   y2="81.488098"
   x2="49.464199"
   y1="79.666603"
   x1="50.0714"
   class="fil5 str2"
   id="_179505112" />
    <polyline
   points="48.857,77.8451 47.9463,78.1487 47.3392,77.8451 46.732,77.8451 45.8213,77.8451 "
   class="fil5 str2"
   id="_179505280" />
    <polyline
   points="48.857,75.7201 47.9463,75.1129 47.0355,74.2022 "
   class="fil5 str2"
   id="_179505328" />
    <polyline
   points="49.4642,73.8986 48.857,69.6484 47.9463,67.2197 47.0355,64.4875 "
   class="fil5 str2"
   id="_179505496" />
    <polygon
   points="51.2856,80.2737 52.5,80.2737 53.7143,79.9702 54.6251,79.0595 55.2322,77.8451 55.2322,76.3273 54.6251,74.8093 53.7143,73.8986 52.5,72.9878 51.2856,72.9878 50.0714,73.2914 49.1606,74.2022 48.5535,75.7201 48.5535,76.9343 49.1606,78.4523 50.0714,79.6666 "
   class="fil2 str1"
   id="_179505544" />
    <polygon
   points="50.9821,80.2737 52.1965,80.5774 53.4108,80.2737 54.3215,79.363 54.9287,77.8451 54.9287,76.6308 54.3215,75.1129 53.4108,73.8986 52.1965,73.2914 50.9821,73.2914 49.7678,73.595 48.857,74.5057 48.2499,75.7201 48.5535,77.238 48.857,78.4523 49.7678,79.6666 "
   class="fil2 str1"
   id="_179505712" />
    <polygon
   points="50.9821,79.9702 52.1965,80.2737 53.1072,79.6666 54.0179,79.0595 54.3215,77.8451 54.3215,76.6308 54.0179,75.4164 53.1072,74.5057 52.1965,73.8986 50.9821,73.595 49.7678,73.8986 49.1606,74.8093 48.857,76.0236 48.857,77.238 49.1606,78.4523 50.0714,79.363 "
   class="fil1 str1"
   id="_179505760" />
    <polygon
   points="156.021,53.8622 154.807,54.1657 153.896,54.7729 152.985,55.6837 151.771,58.1123 151.164,60.2374 148.432,59.3267 146.61,59.3267 145.092,59.6302 145.396,61.1482 145.396,62.0589 145.7,63.5768 146.003,65.3983 144.789,65.7018 143.878,66.309 143.575,66.6126 142.967,66.9162 145.396,68.4341 147.825,69.6484 149.343,70.8628 149.95,71.7735 150.253,72.6842 145.7,72.077 144.485,70.5591 143.271,68.7377 141.753,67.5234 140.539,66.9162 139.324,66.9162 139.324,68.4341 139.324,69.3448 139.931,70.2556 140.539,70.8628 141.753,71.7735 142.36,72.6842 142.664,73.8986 141.449,73.8986 139.628,73.8986 136.289,73.8986 134.771,73.8986 133.556,73.8986 132.646,74.2022 132.342,74.5057 133.556,75.1129 134.163,75.7201 135.378,76.6308 135.985,77.5415 137.199,78.1487 138.11,78.4523 139.021,77.8451 139.628,77.238 140.539,76.9343 141.449,77.238 141.449,77.238 140.842,77.8451 139.628,78.1487 138.11,79.0595 136.592,79.9702 135.985,81.1846 135.985,82.0953 135.985,82.3988 138.414,82.7024 140.235,82.3988 141.449,81.7917 142.664,81.1846 141.449,82.3988 140.235,83.3096 139.324,85.131 138.414,86.649 137.806,87.5597 137.199,88.4704 137.806,88.4704 141.146,88.1669 143.575,87.5597 146.003,86.3454 148.432,85.4347 148.432,86.649 149.039,87.8633 149.95,89.0776 150.86,90.292 151.164,90.292 153.896,84.2203 154.2,84.524 154.503,84.8275 155.111,84.8275 158.146,77.5415 159.057,76.9343 159.664,76.3273 159.664,75.4164 159.968,74.5057 159.361,74.5057 159.057,74.5057 158.45,74.5057 159.664,71.47 159.968,69.3448 159.057,69.6484 158.754,69.952 158.45,70.5591 157.843,72.3807 157.236,74.2022 155.718,69.3448 158.45,60.8446 156.932,60.2374 156.932,59.3267 156.932,58.7195 156.629,57.2016 156.325,56.2908 156.629,55.6837 157.539,55.0765 158.754,54.4694 157.539,53.8622 "
   class="fil2 str1"
   id="_179505952" />
    <polygon
   points="156.325,54.1657 155.111,54.7729 153.896,55.3801 152.682,57.5051 152.075,59.9338 149.039,59.3267 147.521,59.3267 146.003,59.6302 146.61,61.4517 146.61,62.9696 146.61,64.4875 147.521,66.0055 146.003,66.0055 145.396,66.309 144.789,66.6126 144.182,67.2197 145.396,68.1306 146.914,69.0413 149.343,69.952 150.86,71.1663 151.468,72.077 151.771,73.2914 149.646,72.3807 148.432,71.7735 147.521,71.1663 146.914,70.5591 146.307,69.3448 145.7,68.7377 145.092,68.1306 142.664,67.2197 139.931,66.9162 139.931,68.4341 140.235,69.6484 140.539,70.5591 141.146,71.1663 142.664,72.077 143.271,72.6842 143.878,73.8986 141.753,73.2914 140.539,72.6842 139.324,71.7735 138.11,71.47 136.896,71.47 135.378,72.3807 132.342,74.5057 133.86,74.8093 134.771,75.7201 135.985,76.9343 137.199,77.8451 138.414,78.4523 139.324,77.8451 140.235,77.5415 141.146,77.5415 142.36,77.8451 140.842,78.4523 139.021,79.363 137.503,80.2737 136.896,81.1846 136.592,82.3988 138.11,82.7024 139.628,82.7024 142.664,81.7917 145.396,80.8809 148.432,80.2737 146.61,80.8809 145.092,81.4881 142.664,82.3988 141.449,83.6132 140.539,84.524 139.931,85.4347 139.628,86.649 139.021,87.5597 137.806,88.4704 139.931,88.1669 142.36,88.1669 145.092,87.5597 146.61,86.9526 148.432,86.0419 148.735,86.9526 149.646,87.8633 150.557,89.0776 151.164,90.292 152.075,88.4704 153.289,86.649 154.2,84.524 154.2,83.006 154.2,81.4881 154.503,82.0953 154.503,83.3096 154.503,84.524 154.807,84.8275 155.414,84.8275 156.325,83.9168 156.932,82.7024 157.236,80.8809 157.236,80.5774 157.539,80.5774 157.843,80.8809 157.843,80.5774 158.45,80.2737 159.361,79.363 160.575,78.1487 160.575,77.238 160.575,76.0236 160.271,75.1129 159.968,74.5057 159.361,75.4164 158.45,75.7201 159.057,74.2022 159.664,72.9878 159.968,72.3807 159.968,71.47 159.968,69.3448 159.361,70.5591 159.057,72.077 158.45,72.9878 157.236,73.8986 157.539,72.3807 157.843,71.47 159.057,70.5591 159.361,69.952 159.664,69.3448 159.664,68.4341 159.057,67.2197 159.057,66.309 159.057,65.0947 159.057,62.6661 159.057,61.4517 158.754,60.8446 158.45,60.8446 157.843,61.1482 157.843,59.023 157.539,56.898 157.843,55.3801 158.146,54.7729 159.057,54.4694 157.539,54.1657 "
   class="fil2 str1"
   id="_179506000" />
    <polyline
   points="155.414,73.2914 155.718,69.952 156.021,67.2197 155.718,64.7911 155.718,62.6661 155.414,59.023 155.414,57.5051 156.021,55.6837 "
   class="fil5 str2"
   id="_179506168" />
    <polyline
   points="149.343,63.5768 151.771,66.0055 153.289,68.4341 154.2,70.8628 154.503,73.2914 "
   class="fil5 str2"
   id="_179506216" />
    <polyline
   points="150.557,76.6308 147.217,76.3273 144.182,75.7201 141.449,74.8093 137.806,74.5057 "
   class="fil5 str2"
   id="_179506384" />
    <polyline
   points="150.86,75.4164 148.432,74.5057 146.61,73.595 145.396,72.077 144.485,70.8628 "
   class="fil5 str2"
   id="_179506432" />
    <polyline
   points="150.557,77.5415 148.128,77.8451 145.7,78.1487 143.878,78.7559 142.664,79.6666 "
   class="fil5 str2"
   id="_179506672" />
    <polyline
   points="152.075,80.2737 150.86,81.4881 149.646,82.3988 147.521,83.6132 145.7,84.2203 143.575,85.131 "
   class="fil5 str2"
   id="_179506720" />
    <polyline
   points="152.682,79.9702 152.682,82.0953 152.378,83.6132 152.075,85.131 151.468,86.3454 "
   class="fil5 str2"
   id="_179506792" />
    <line
   y2="81.488098"
   x2="156.021"
   y1="79.666603"
   x1="155.414"
   class="fil5 str2"
   id="_179506528" />
    <polyline
   points="156.629,77.8451 157.539,78.1487 158.146,77.8451 158.754,77.8451 159.664,77.8451 "
   class="fil5 str2"
   id="_179507032" />
    <polyline
   points="156.629,75.7201 157.539,75.1129 158.45,74.2022 "
   class="fil5 str2"
   id="_179507080" />
    <polyline
   points="156.021,73.8986 156.629,69.6484 157.236,67.2197 158.45,64.4875 "
   class="fil5 str2"
   id="_179507272" />
    <polygon
   points="154.2,80.2737 152.985,80.2737 151.771,79.9702 150.86,79.0595 150.253,77.8451 150.253,76.3273 150.86,74.8093 151.771,73.8986 152.985,72.9878 154.2,72.9878 155.414,73.2914 156.325,74.2022 156.932,75.7201 156.932,76.9343 156.325,78.4523 155.414,79.6666 "
   class="fil2 str1"
   id="_179507320" />
    <polygon
   points="154.503,80.2737 153.289,80.5774 152.075,80.2737 151.164,79.363 150.557,77.8451 150.557,76.6308 151.164,75.1129 152.075,73.8986 153.289,73.2914 154.503,73.2914 155.718,73.595 156.629,74.5057 157.236,75.7201 156.932,77.238 156.629,78.4523 155.718,79.6666 "
   class="fil2 str1"
   id="_179507560" />
    <polygon
   points="154.503,79.9702 153.289,80.2737 152.378,79.6666 151.468,79.0595 151.164,77.8451 151.164,76.6308 151.468,75.4164 152.378,74.5057 153.289,73.8986 154.503,73.595 155.414,73.8986 156.325,74.8093 156.629,76.0236 156.629,77.238 156.325,78.4523 155.414,79.363 "
   class="fil1 str1"
   id="_179507632" />
    <polyline
   points="76.1794,79.9702 77.3936,79.9702 78.9116,79.6666 "
   class="fil5 str2"
   id="_179507704" />
    <polyline
   points="129.61,79.9702 128.092,79.9702 126.574,79.6666 "
   class="fil5 str2"
   id="_179507752" />
    <polyline
   points="164.522,84.8275 163.307,84.524 162.093,83.6132 "
   class="fil5 str2"
   id="_179507944" />
    <polyline
   points="40.9639,84.8275 42.1782,84.524 43.3926,83.6132 "
   class="fil5 str2"
   id="_179507992" />
    <polygon
   points="45.2141,112.453 43.9997,112.15 42.7854,110.935 42.1782,109.721 41.8747,108.203 42.1782,106.989 43.089,105.775 43.9997,105.167 43.9997,105.167 46.732,112.453 46.4283,112.453 "
   class="fil3 str1"
   id="_179508184" />
    <polygon
   points="46.1248,113.061 47.0355,112.757 45.8213,108.203 45.2141,106.078 44.3033,104.257 43.3926,104.56 "
   class="fil0 str1"
   id="_179508232" />
    <polygon
   points="50.6786,102.435 51.5893,103.346 51.8928,104.864 52.1965,106.382 52.5,107.9 52.1965,108.81 51.5893,109.418 51.5893,109.418 51.5893,109.721 50.0714,110.025 49.4642,107.596 48.857,105.775 48.2499,103.953 47.6427,101.524 49.4642,101.221 50.0714,101.524 "
   class="fil2 str1"
   id="_179508400" />
    <polygon
   points="48.5535,109.114 49.4642,109.721 50.0714,110.025 50.6786,109.418 50.9821,108.507 50.9821,106.989 50.6786,105.471 50.0714,103.953 49.4642,102.435 48.5535,101.828 47.6427,101.524 47.3392,102.132 47.0355,103.042 47.0355,104.56 47.3392,106.078 47.9463,107.9 "
   class="fil2 str1"
   id="_179508448" />
    <polygon
   points="46.4283,103.953 46.1248,105.167 46.4283,106.382 46.732,107.596 47.6427,108.507 48.5535,109.418 49.7678,109.721 50.3749,109.114 50.6786,107.9 50.3749,105.471 49.7678,103.953 49.1606,103.042 48.5535,102.435 47.6427,102.132 46.732,103.042 "
   class="fil1 str1"
   id="_179508616" />
    <polygon
   points="160.271,112.453 161.486,112.15 162.7,110.935 163.307,109.721 163.611,108.203 163.307,106.989 162.397,105.775 161.486,105.167 161.182,105.167 158.754,112.453 159.057,112.453 "
   class="fil3 str1"
   id="_179508664" />
    <polygon
   points="159.361,113.061 158.45,112.757 159.664,108.203 160.271,106.078 161.182,104.257 162.093,104.56 "
   class="fil0 str1"
   id="_179508856" />
    <polygon
   points="154.807,102.435 153.896,103.346 153.593,104.864 153.289,106.382 152.985,107.9 153.289,108.81 153.896,109.418 153.896,109.418 153.896,109.721 155.414,110.025 156.021,107.596 156.629,105.775 157.236,103.953 157.843,101.524 156.021,101.221 155.414,101.524 "
   class="fil2 str1"
   id="_179508904" />
    <polygon
   points="156.932,109.114 156.021,109.721 155.414,110.025 154.807,109.418 154.503,108.507 154.503,106.989 154.807,105.471 155.414,103.953 156.021,102.435 156.932,101.828 157.539,101.524 158.146,102.132 158.45,103.042 158.45,104.56 158.146,106.078 157.539,107.9 "
   class="fil2 str1"
   id="_179509072" />
    <polygon
   points="159.057,103.953 159.361,105.167 159.057,106.382 158.754,107.596 157.843,108.507 156.932,109.418 155.414,109.721 155.111,109.114 154.807,107.9 155.111,105.471 155.718,103.953 156.325,103.042 156.932,102.435 157.843,102.132 158.754,103.042 "
   class="fil1 str1"
   id="_179509120" />
    <polygon
   points="51.5893,114.578 52.5,114.275 53.4108,113.971 54.9287,113.668 56.7501,113.061 59.1788,112.757 61.911,112.15 64.9468,111.543 68.5899,111.239 72.84,110.632 77.6973,110.328 82.8581,110.025 88.9298,109.721 95.6086,109.418 102.591,109.418 109.877,109.418 116.556,109.721 122.627,110.025 127.788,110.328 132.646,110.632 136.896,111.239 140.539,111.543 143.575,112.15 146.307,112.757 148.735,113.061 150.557,113.668 152.075,113.971 152.985,114.275 153.896,114.578 154.2,114.882 154.2,114.882 153.896,115.186 153.289,115.489 152.075,115.793 150.86,116.096 149.039,116.703 146.914,117.007 144.485,117.614 141.146,117.918 137.503,118.525 133.253,119.132 128.699,119.436 123.235,119.739 117.163,120.043 110.18,120.043 102.591,120.347 95.3051,120.043 88.3226,120.043 82.2511,119.739 76.7866,119.436 71.9293,119.132 67.6791,118.525 64.0361,117.918 61.0003,117.614 58.5716,117.007 56.4466,116.703 54.6251,116.096 53.1072,115.793 52.1965,115.489 51.5893,115.186 50.9821,114.882 51.2856,114.882 "
   class="fil8 str1"
   id="_179509312" />
    <line
   y2="108.507"
   x2="89.536903"
   y1="120.954"
   x1="89.536903"
   class="fil5 str2"
   id="_179509360" />
    <line
   y2="108.507"
   x2="87.108299"
   y1="120.954"
   x1="87.108299"
   class="fil5 str1"
   id="_179509552" />
    <line
   y2="108.507"
   x2="84.983299"
   y1="120.954"
   x1="84.983299"
   class="fil5 str1"
   id="_179509600" />
    <line
   y2="108.507"
   x2="82.858101"
   y1="120.954"
   x1="82.858101"
   class="fil5 str1"
   id="_179509792" />
    <line
   y2="108.507"
   x2="80.733101"
   y1="120.954"
   x1="80.733101"
   class="fil5 str3"
   id="_179509840" />
    <line
   y2="109.114"
   x2="77.090103"
   y1="120.347"
   x1="77.090103"
   class="fil5 str3"
   id="_179510032" />
    <line
   y2="108.81"
   x2="78.911598"
   y1="120.65"
   x1="78.911598"
   class="fil5 str3"
   id="_179510080" />
    <line
   y2="109.418"
   x2="73.447197"
   y1="120.043"
   x1="73.447197"
   class="fil5 str3"
   id="_179510296" />
    <line
   y2="109.114"
   x2="75.2686"
   y1="120.347"
   x1="75.2686"
   class="fil5 str3"
   id="_179510344" />
    <line
   y2="110.328"
   x2="68.893402"
   y1="119.436"
   x1="68.893402"
   class="fil5 str3"
   id="_179510512" />
    <line
   y2="109.721"
   x2="70.411301"
   y1="119.436"
   x1="70.411301"
   class="fil5 str3"
   id="_179510560" />
    <line
   y2="109.721"
   x2="71.929298"
   y1="119.739"
   x1="71.929298"
   class="fil5 str3"
   id="_179510776" />
    <line
   y2="110.328"
   x2="67.375504"
   y1="119.132"
   x1="67.375504"
   class="fil5 str4"
   id="_179510824" />
    <line
   y2="110.632"
   x2="65.857597"
   y1="118.829"
   x1="65.857597"
   class="fil5 str4"
   id="_179510992" />
    <line
   y2="110.935"
   x2="64.036102"
   y1="118.525"
   x1="64.036102"
   class="fil5 str4"
   id="_179511040" />
    <line
   y2="111.846"
   x2="60.696701"
   y1="117.918"
   x1="60.696701"
   class="fil5 str4"
   id="_179511208" />
    <line
   y2="111.239"
   x2="62.5182"
   y1="118.221"
   x1="62.5182"
   class="fil5 str4"
   id="_179511256" />
    <line
   y2="112.15"
   x2="58.875301"
   y1="117.311"
   x1="58.875301"
   class="fil5 str4"
   id="_179511328" />
    <line
   y2="112.453"
   x2="57.3573"
   y1="117.007"
   x1="57.3573"
   class="fil5 str5"
   id="_179511160" />
    <line
   y2="112.757"
   x2="55.839401"
   y1="116.4"
   x1="55.839401"
   class="fil5 str5"
   id="_179510944" />
    <line
   y2="113.364"
   x2="54.017899"
   y1="116.096"
   x1="54.017899"
   class="fil5 str5"
   id="_179510728" />
    <line
   y2="114.275"
   x2="52.196499"
   y1="115.489"
   x1="52.196499"
   class="fil5 str6"
   id="_179510464" />
    <line
   y2="109.114"
   x2="98.947998"
   y1="120.347"
   x1="98.947998"
   class="fil5 str2"
   id="_179510320" />
    <line
   y2="108.81"
   x2="95.001404"
   y1="120.954"
   x1="95.001404"
   class="fil5 str2"
   id="_179510152" />
    <line
   y2="108.507"
   x2="91.965599"
   y1="120.954"
   x1="91.965599"
   class="fil5 str2"
   id="_179509984" />
    <line
   y2="108.507"
   x2="115.949"
   y1="120.954"
   x1="115.949"
   class="fil5 str2"
   id="_179509816" />
    <line
   y2="108.507"
   x2="118.377"
   y1="120.954"
   x1="118.377"
   class="fil5 str1"
   id="_179509576" />
    <line
   y2="108.507"
   x2="120.502"
   y1="120.954"
   x1="120.502"
   class="fil5 str1"
   id="_179509456" />
    <line
   y2="108.507"
   x2="122.627"
   y1="120.954"
   x1="122.627"
   class="fil5 str1"
   id="_179509288" />
    <line
   y2="108.507"
   x2="124.752"
   y1="120.954"
   x1="124.752"
   class="fil5 str3"
   id="_179509096" />
    <line
   y2="109.114"
   x2="128.395"
   y1="120.347"
   x1="128.395"
   class="fil5 str3"
   id="_179508880" />
    <line
   y2="108.81"
   x2="126.574"
   y1="120.65"
   x1="126.574"
   class="fil5 str3"
   id="_179508688" />
    <line
   y2="109.418"
   x2="132.03799"
   y1="120.043"
   x1="132.03799"
   class="fil5 str3"
   id="_179508496" />
    <line
   y2="109.114"
   x2="130.217"
   y1="120.347"
   x1="130.217"
   class="fil5 str3"
   id="_179508280" />
    <line
   y2="110.328"
   x2="136.592"
   y1="119.436"
   x1="136.592"
   class="fil5 str3"
   id="_179508088" />
    <line
   y2="109.721"
   x2="135.07401"
   y1="119.436"
   x1="135.07401"
   class="fil5 str3"
   id="_179507728" />
    <line
   y2="109.721"
   x2="133.556"
   y1="119.739"
   x1="133.556"
   class="fil5 str3"
   id="_179507656" />
    <line
   y2="110.328"
   x2="138.11"
   y1="119.132"
   x1="138.11"
   class="fil5 str4"
   id="_179507440" />
    <line
   y2="110.632"
   x2="139.62801"
   y1="118.829"
   x1="139.62801"
   class="fil5 str4"
   id="_179507296" />
    <line
   y2="110.935"
   x2="141.44901"
   y1="118.525"
   x1="141.44901"
   class="fil5 str4"
   id="_179507104" />
    <line
   y2="111.846"
   x2="144.789"
   y1="117.918"
   x1="144.789"
   class="fil5 str4"
   id="_179506840" />
    <line
   y2="111.239"
   x2="142.967"
   y1="118.221"
   x1="142.967"
   class="fil5 str4"
   id="_179505880" />
    <line
   y2="112.15"
   x2="146.61"
   y1="117.311"
   x1="146.61"
   class="fil5 str4"
   id="_179506480" />
    <line
   y2="112.453"
   x2="148.12801"
   y1="117.007"
   x1="148.12801"
   class="fil5 str5"
   id="_179506264" />
    <line
   y2="112.757"
   x2="149.646"
   y1="116.4"
   x1="149.646"
   class="fil5 str5"
   id="_179506048" />
    <line
   y2="113.364"
   x2="151.468"
   y1="116.096"
   x1="151.468"
   class="fil5 str5"
   id="_179505808" />
    <line
   y2="114.275"
   x2="153.289"
   y1="115.489"
   x1="153.289"
   class="fil5 str6"
   id="_179505664" />
    <line
   y2="109.114"
   x2="106.537"
   y1="120.347"
   x1="106.537"
   class="fil5 str2"
   id="_179505448" />
    <line
   y2="108.81"
   x2="110.484"
   y1="120.954"
   x1="110.484"
   class="fil5 str2"
   id="_179505232" />
    <line
   y2="108.507"
   x2="113.52"
   y1="120.954"
   x1="113.52"
   class="fil5 str2"
   id="_179504944" />
    <path
   d="m 102.591,105.775 -11.5361,0.3036 -11.8396,0.3035 -11.8397,0.9109 -11.5361,1.8214 -3.0358,0.6072 -2.7322,0.9108 -2.4287,1.5179 -0.9107,0.9107 -0.6072,1.2143 v 1.2144 l 0.3035,0.9107 1.518,1.5179 2.1251,0.9107 1.8214,0.9108 8.8039,1.8214 9.1074,1.2144 8.8039,0.6071 9.1074,0.3037 13.9648,0.3035 13.9648,-0.3035 13.9647,-0.6072 13.9648,-1.2143 3.9465,-0.9108 3.9466,-0.6071 3.643,-1.2144 3.3393,-2.125 0.6072,-0.9109 0.3036,-0.9107 v -0.9107 l -0.3036,-0.9108 -1.5179,-1.5179 -2.1251,-0.9107 -7.286,-2.125 -7.2858,-1.2144 -7.5896,-0.6072 -7.5895,-0.6072 -11.5361,-0.6071 z m 0,3.643 h 7.286 l 6.6788,0.3036 6.0716,0.3036 5.1609,0.3035 4.8573,0.3037 4.2502,0.607 3.6429,0.3037 3.0359,0.6072 2.7322,0.6071 2.4286,0.3036 1.8215,0.6071 1.5179,0.3036 0.9107,0.3036 0.9109,0.3036 0.3035,0.3036 v 0 l -0.3035,0.3035 -0.6072,0.3037 -1.2144,0.3035 -1.2143,0.3035 -1.8214,0.6072 -2.1251,0.3037 -2.4287,0.6071 -3.3394,0.3036 -3.643,0.6071 -4.2501,0.6072 -4.5537,0.3036 -5.4645,0.3036 -6.0717,0.3035 h -6.9823 l -7.5896,0.3037 -7.2858,-0.3037 h -6.9825 l -6.0715,-0.3035 -5.4645,-0.3036 -4.8573,-0.3036 -4.2502,-0.6072 -3.643,-0.6071 -3.0358,-0.3036 -2.4287,-0.6071 -2.125,-0.3037 -1.8215,-0.6072 -1.2143,-0.3035 -1.2143,-0.3035 -0.6072,-0.3037 -0.3037,-0.3035 v 0 l 0.3037,-0.3036 0.9107,-0.3036 0.9108,-0.3036 1.5179,-0.3036 1.8214,-0.6071 2.4287,-0.3036 2.7322,-0.6071 3.0358,-0.6072 3.6431,-0.3037 4.2501,-0.607 4.8573,-0.3037 5.1608,-0.3035 6.0717,-0.3036 6.6788,-0.3036 z"
   class="fil2 str1"
   id="_179504800" />
   </g>
   <g
   id="g17503">
    <path
   d="m 171.672,214.939 c -0.9237,36.4138 -30.9937,65.9163 -67.6198,65.9163 v 0 c -36.6261,0 -66.6958,-29.5023 -67.6195,-65.9163 h 135.239 z"
   class="fil7 str7"
   id="_179504440" />
    <polygon
   points="36.4107,208.887 36.4107,120.796 171.694,120.796 171.694,208.887 "
   class="fil4 str7"
   id="_179504224" />
    <path
   d="m 95.3226,188.608 c -0.8927,4.5588 -2.8344,8.5656 -3.2955,12.8262 -0.2572,3.0608 2.3136,5.3021 1.9288,8.6055 -0.6924,1.7805 -0.7608,3.5219 -1.4532,5.3024 -0.2026,3.8861 0.1017,7.6553 0.2501,11.4635 0.5472,4.7434 -2.975,8.6429 -3.0996,13.7985 -0.2018,3.6437 -0.2475,9.6272 3.5286,9.5271 1.5905,0.0335 2.3878,0.0541 4.1866,-0.3281 0.4033,-0.3386 0.2216,-1.2621 0.7419,-1.1327 2.5441,0.312 2.9765,-1.1292 4.5995,-1.8347 1.6479,-0.2696 1.4837,0.5935 2.2256,0.8902 1.589,0.7003 4.6504,0.6078 6.5792,0.5153 1.3433,-0.8876 1.8937,-2.719 2.3309,-3.9085 -0.5389,1.004 -1.4173,2.989 -1.0465,3.69 0.6924,0 1.3848,0 2.0772,0 2.4761,-0.621 3.8195,-3.13 2.6707,-9.7925 -0.6935,-3.4943 -1.1035,-7.1774 -0.8902,-11.2762 2.6517,-5.809 1.4148,-10.1775 -0.6638,-9.3043 0.099,-4.0061 0.0846,-7.6723 -0.6093,-11.6783 -0.3734,-3.4076 -3.5782,-4.3235 -2.1395,-7.5046 0.6939,-3.8073 0.8215,-7.8976 -0.2967,-12.6115 -0.6649,-5.1917 -2.7798,-9.6129 -2.6005,-15.8757 -0.4115,-5.0446 1.8885,-10.0888 1.4135,-15.1339 -0.176,-4.4083 -2.3872,-9.565 -1.7804,-10.9794 -0.0753,-2.0107 -0.53,-2.3143 -1.0386,-2.3739 -0.348,-2.3439 -0.6277,-4.7013 -2.0772,-6.8251 -2.1902,-2.0071 -3.6246,-1.3146 -4.3028,2.0772 -3.0738,-0.7767 -4.1206,2.3319 -4.5995,6.5283 -1.2004,7.0934 -1.7444,13.3117 -1.6321,19.9673 -0.2472,2.8685 -2.0531,4.7527 -0.7418,9.2618 1.0326,5.1773 -0.0675,10.7647 -0.2654,16.1061 z"
   class="fil9 str7"
   id="_179504008" />
    <path
   d="m 102.443,136.708 c 1.2029,0.6838 0.7399,3.1438 1.3945,4.5937"
   class="fil5 str7"
   id="_179503792" />
    <path
   d="m 106.673,146.632 c 0.1235,-1.6132 0.6655,-4.7326 2.337,-5.0071"
   class="fil5 str7"
   id="_179503576" />
    <path
   d="m 113.179,198.229 c -0.5249,1.4075 -1.2062,2.4718 -2.3095,3.3019"
   class="fil5 str7"
   id="_179503360" />
    <path
   d="m 115.943,217.557 c -0.8191,2.1322 -0.5379,5.0871 -1.4632,7.5359"
   class="fil5 str7"
   id="_179503072" />
   </g>
   <path
   d="m 171.694,120.796 v 92.4172 c 0,37.2027 -30.4386,67.6416 -67.6416,67.6416 v 0 c -37.203,0 -67.6416,-30.4386 -67.6416,-67.6416 V 120.796 h 135.283 z"
   class="fil5 str8"
   id="_179503000" />
  </g>
 </g>
</svg>
