<?xml version="1.0" encoding="UTF-8" standalone="no"?>
<svg
   xmlns:dc="http://purl.org/dc/elements/1.1/"
   xmlns:cc="http://creativecommons.org/ns#"
   xmlns:rdf="http://www.w3.org/1999/02/22-rdf-syntax-ns#"
   xmlns:svg="http://www.w3.org/2000/svg"
   xmlns="http://www.w3.org/2000/svg"
   xmlns:sodipodi="http://sodipodi.sourceforge.net/DTD/sodipodi-0.dtd"
   xmlns:inkscape="http://www.inkscape.org/namespaces/inkscape"
   inkscape:version="1.0 (4035a4fb49, 2020-05-01)"
   sodipodi:docname="O_Valadouro.svg"
   id="svg101141"
   version="1.1"
   viewBox="0 0 155.86139 270.97516"
   style="clip-rule:evenodd;fill-rule:evenodd;image-rendering:optimizeQuality;shape-rendering:geometricPrecision;text-rendering:geometricPrecision"
   height="270.97516mm"
   width="155.86139mm"
   xml:space="preserve"><metadata
   id="metadata101145"><rdf:RDF><cc:Work
       rdf:about=""><dc:format>image/svg+xml</dc:format><dc:type
         rdf:resource="http://purl.org/dc/dcmitype/StillImage" /></cc:Work></rdf:RDF></metadata><sodipodi:namedview
   inkscape:current-layer="svg101141"
   inkscape:window-maximized="0"
   inkscape:window-y="0"
   inkscape:window-x="0"
   inkscape:cy="512.07175"
   inkscape:cx="294.54176"
   inkscape:zoom="0.49085999"
   showgrid="false"
   id="namedview101143"
   inkscape:window-height="480"
   inkscape:window-width="803"
   inkscape:pageshadow="2"
   inkscape:pageopacity="0"
   guidetolerance="10"
   gridtolerance="10"
   objecttolerance="10"
   borderopacity="1"
   bordercolor="#666666"
   pagecolor="#ffffff" />
 <defs
   id="defs100876">
  <style
   id="style100874"
   type="text/css">
   <![CDATA[
    .str8 {stroke:#2A2A29;stroke-width:0.3528}
    .str2 {stroke:black;stroke-width:0.0762}
    .str7 {stroke:#2A2A29;stroke-width:0.2843}
    .str1 {stroke:black;stroke-width:0.2843}
    .str0 {stroke:#010101;stroke-width:0.2843}
    .str3 {stroke:black;stroke-width:0.5686}
    .str4 {stroke:black;stroke-width:0.853}
    .str5 {stroke:black;stroke-width:1.1373}
    .str6 {stroke:black;stroke-width:1.4216}
    .fil5 {fill:none}
    .fil4 {fill:#0071BC}
    .fil7 {fill:#008F4C}
    .fil1 {fill:#E3E4E5}
    .fil2 {fill:#EAC102}
    .fil8 {fill:#ED1C24}
    .fil6 {fill:#E3E4E5;fill-rule:nonzero}
    .fil0 {fill:#EAC102;fill-rule:nonzero}
    .fil3 {fill:#ED1C24;fill-rule:nonzero}
   ]]>
  </style>
 </defs>
 <g
   transform="translate(-27.069159,-13.01435)"
   id="Capa_x0020_1">
  <metadata
   id="CorelCorpID_0Corel-Layer" />
  <g
   id="_189397928">
   <g
   id="g101125">
    <polygon
   points="34.9114,69.1705 41.7355,62.3465 41.1668,60.9248 40.8824,59.5032 41.4511,57.7971 42.8728,55.8068 44.8631,54.1008 47.7065,52.3948 51.1185,50.6888 55.0992,49.2671 59.3642,48.1298 63.9136,47.2767 69.316,46.1394 75.0027,44.4334 80.9737,42.443 86.9447,40.4527 92.6314,38.4624 97.7495,37.0407 100.024,36.7563 102.299,36.472 104.005,36.472 105.427,36.7563 102.868,32.7757 101.73,32.7757 100.309,33.3443 97.1808,34.766 93.7688,36.1877 90.6411,37.0407 85.5231,38.7467 78.9834,41.0214 72.4436,43.2961 66.4726,45.2864 63.6293,45.8551 61.0702,46.4237 56.5209,47.2767 51.9715,48.4141 48.2752,49.8358 44.8631,51.5418 42.0198,53.5321 40.0294,55.2381 38.6078,57.2285 38.3234,58.0815 38.0391,58.9345 38.3234,60.3562 38.8921,61.7778 33.2054,67.4645 34.0584,68.3175 "
   class="fil0 str0"
   id="_181432912" />
    <polygon
   points="38.3234,60.3562 38.0391,58.9345 38.3234,58.0815 38.6078,57.2285 40.0294,55.2381 42.0198,53.5321 44.8631,51.5418 48.2752,49.8358 51.9715,48.4141 56.5209,47.2767 61.0702,46.4237 63.6293,45.8551 66.4726,45.2864 72.4436,43.2961 78.9834,41.0214 85.5231,38.7467 90.6411,37.0407 82.6797,39.031 74.434,41.3057 66.4726,43.2961 62.7763,44.1491 59.3642,45.0021 54.2462,46.1394 49.4125,47.5611 44.8631,49.5514 40.8824,51.8261 37.4704,54.3851 34.6271,57.2285 32.9211,60.0718 32.6367,61.4935 32.3524,62.9152 32.6367,65.1899 32.9211,66.3272 33.2054,67.4645 38.8921,61.7778 "
   class="fil0 str0"
   id="_181432984" />
    <polygon
   points="96.3278,34.766 95.4748,35.3347 94.3374,35.619 93.2001,35.3347 92.3471,34.766 91.4941,33.6287 91.2098,32.4913 91.4941,31.354 92.3471,30.501 93.2001,29.9323 94.3374,29.648 95.4748,29.9323 96.3278,30.501 96.8965,31.354 97.1808,32.4913 96.8965,33.6287 "
   class="fil1 str1"
   id="_181433056" />
    <polygon
   points="88.0821,37.325 86.9447,38.178 85.8074,38.178 84.6701,38.178 83.817,37.325 83.2484,36.472 82.964,35.3347 83.2484,34.1973 83.817,33.06 84.6701,32.4913 85.8074,32.207 86.9447,32.4913 88.0821,33.3443 88.6507,34.1973 88.9351,35.3347 88.6507,36.472 "
   class="fil1 str1"
   id="_181433128" />
    <polygon
   points="79.2677,39.884 78.1303,40.4527 76.993,40.737 75.8557,40.4527 75.0027,39.884 74.434,39.031 74.1497,37.8937 74.434,36.7563 75.0027,35.619 75.8557,35.0503 76.993,34.766 78.1303,35.0503 79.2677,35.619 79.8364,36.7563 80.1207,37.8937 79.8364,39.031 "
   class="fil1 str1"
   id="_181433200" />
    <polygon
   points="69.8846,42.1587 69.0316,42.7274 67.8943,43.0117 66.7569,42.7274 65.9039,42.1587 65.3353,41.3057 65.0509,40.1684 65.3353,39.031 65.9039,37.8937 66.7569,37.325 67.8943,37.0407 69.0316,37.325 69.8846,37.8937 70.4533,39.031 70.7376,40.1684 70.4533,41.3057 "
   class="fil1 str1"
   id="_181433272" />
    <polygon
   points="61.0702,44.4334 59.9329,45.0021 58.7956,45.2864 57.6582,45.0021 56.8052,44.4334 56.2365,43.2961 55.9522,42.1587 56.2365,41.0214 56.8052,40.1684 57.6582,39.3154 58.7956,39.3154 59.9329,39.3154 61.0702,40.1684 61.6389,41.0214 61.9232,42.1587 61.6389,43.2961 "
   class="fil1 str1"
   id="_181433344" />
    <polygon
   points="51.9715,46.9924 50.8342,47.5611 49.6968,47.8454 48.5595,47.5611 47.7065,46.9924 47.1378,45.8551 46.8535,44.7177 47.1378,43.5804 47.7065,42.7274 48.5595,42.1587 49.6968,41.8744 50.8342,42.1587 51.9715,42.7274 52.5402,43.5804 52.8245,44.7177 52.5402,46.1394 "
   class="fil1 str1"
   id="_181433416" />
    <polygon
   points="42.8728,50.9731 41.7355,51.5418 40.5981,51.8261 39.4608,51.5418 38.6078,50.9731 38.0391,49.8358 37.7548,48.6984 38.0391,47.5611 38.6078,46.7081 39.4608,46.1394 40.5981,45.8551 41.7355,46.1394 42.8728,46.7081 43.4415,47.5611 43.4415,48.6984 43.4415,49.8358 "
   class="fil1 str1"
   id="_181433464" />
    <polygon
   points="35.4801,56.9441 34.6271,57.7971 33.4897,57.7971 32.3524,57.7971 31.4994,56.9441 30.9307,56.0911 30.6464,54.9538 30.9307,53.8165 31.4994,52.6791 32.3524,52.1104 33.4897,52.1104 34.6271,52.1104 35.4801,52.9634 36.3331,53.8165 36.3331,54.9538 36.3331,56.0911 "
   class="fil1 str1"
   id="_181434352" />
    <polygon
   points="175.089,69.1705 167.98,62.3465 168.833,60.9248 169.118,59.5032 168.549,57.7971 167.127,55.8068 165.137,54.1008 162.293,52.3948 158.882,50.6888 154.901,49.2671 150.636,48.1298 146.086,47.2767 140.684,46.1394 134.997,44.4334 129.026,42.443 123.055,40.4527 117.369,38.4624 112.251,37.0407 109.976,36.7563 107.701,36.472 105.995,36.472 104.574,36.7563 107.132,32.7757 108.27,32.7757 109.692,33.3443 112.819,34.766 116.231,36.1877 119.075,37.0407 124.477,38.7467 131.017,41.0214 137.556,43.2961 143.527,45.2864 146.371,45.8551 148.93,46.4237 153.479,47.2767 158.029,48.4141 161.725,49.8358 165.137,51.5418 167.98,53.5321 169.971,55.2381 171.392,57.2285 171.677,58.0815 171.961,58.9345 171.677,60.3562 171.108,61.7778 176.795,67.4645 175.942,68.3175 "
   class="fil0 str0"
   id="_181433992" />
    <polygon
   points="171.677,60.3562 171.961,58.9345 171.677,58.0815 171.392,57.2285 169.971,55.2381 167.98,53.5321 165.137,51.5418 161.725,49.8358 158.029,48.4141 153.479,47.2767 148.93,46.4237 146.371,45.8551 143.527,45.2864 137.556,43.2961 131.017,41.0214 124.477,38.7467 119.075,37.0407 127.32,39.031 135.566,41.3057 143.527,43.2961 147.224,44.1491 150.636,45.0021 155.754,46.1394 160.588,47.5611 165.137,49.5514 169.118,51.8261 172.53,54.3851 175.373,57.2285 176.795,60.0718 177.363,61.4935 177.648,62.9152 177.363,65.1899 177.079,66.3272 176.795,67.4645 171.108,61.7778 "
   class="fil0 str0"
   id="_181434064" />
    <polygon
   points="113.672,34.766 114.525,35.3347 115.663,35.619 116.8,35.3347 117.653,34.766 118.506,33.6287 118.79,32.4913 118.506,31.354 117.653,30.501 116.8,29.9323 115.663,29.648 114.525,29.9323 113.672,30.501 113.104,31.354 112.819,32.4913 113.104,33.6287 "
   class="fil1 str1"
   id="_181434136" />
    <polygon
   points="121.918,37.325 123.055,38.178 124.193,38.178 125.33,38.178 126.183,37.325 126.752,36.472 127.036,35.3347 126.752,34.1973 126.183,33.06 125.33,32.4913 124.193,32.207 123.055,32.4913 121.918,33.3443 121.349,34.1973 121.065,35.3347 121.349,36.472 "
   class="fil1 str1"
   id="_181434208" />
    <polygon
   points="130.732,39.884 131.87,40.4527 133.007,40.737 134.144,40.4527 134.997,39.884 135.566,39.031 135.85,37.8937 135.566,36.7563 134.997,35.619 134.144,35.0503 133.007,34.766 131.87,35.0503 130.732,35.619 130.164,36.7563 129.879,37.8937 130.164,39.031 "
   class="fil1 str1"
   id="_181433944" />
    <polygon
   points="140.115,42.1587 140.968,42.7274 142.106,43.0117 143.243,42.7274 144.096,42.1587 144.665,41.3057 144.949,40.1684 144.665,39.031 144.096,37.8937 143.243,37.325 142.106,37.0407 140.968,37.325 140.115,37.8937 139.547,39.031 139.262,40.1684 139.547,41.3057 "
   class="fil1 str1"
   id="_181433608" />
    <polygon
   points="148.93,44.4334 150.067,45.0021 151.205,45.2864 152.342,45.0021 153.195,44.4334 153.763,43.2961 154.048,42.1587 153.763,41.0214 153.195,40.1684 152.342,39.3154 151.205,39.3154 150.067,39.3154 148.93,40.1684 148.361,41.0214 148.077,42.1587 148.361,43.2961 "
   class="fil1 str1"
   id="_181433872" />
    <polygon
   points="158.029,46.9924 159.166,47.5611 160.303,47.8454 161.44,47.5611 162.293,46.9924 162.862,45.8551 163.147,44.7177 162.862,43.5804 162.293,42.7274 161.44,42.1587 160.303,41.8744 159.166,42.1587 158.029,42.7274 157.46,43.5804 157.176,44.7177 157.46,46.1394 "
   class="fil1 str1"
   id="_181433800" />
    <polygon
   points="167.127,50.9731 168.265,51.5418 169.402,51.8261 170.539,51.5418 171.392,50.9731 171.961,49.8358 172.245,48.6984 171.961,47.5611 171.392,46.7081 170.539,46.1394 169.402,45.8551 168.265,46.1394 167.127,46.7081 166.559,47.5611 166.274,48.6984 166.559,49.8358 "
   class="fil1 str1"
   id="_181433728" />
    <polygon
   points="174.52,56.9441 175.373,57.7971 176.51,57.7971 177.648,57.7971 178.501,56.9441 179.069,56.0911 179.354,54.9538 179.069,53.8165 178.501,52.6791 177.648,52.1104 176.51,52.1104 175.373,52.1104 174.52,52.9634 173.667,53.8165 173.667,54.9538 173.667,56.0911 "
   class="fil1 str1"
   id="_181433584" />
    <polygon
   points="96.3278,34.1973 95.7591,35.0503 95.4748,35.9033 95.7591,37.0407 96.3278,37.8937 96.8965,38.4624 97.7495,38.4624 98.6025,38.4624 99.1711,37.8937 99.7398,37.0407 99.7398,36.1877 99.7398,35.0503 99.1711,34.1973 98.6025,33.6287 97.7495,33.6287 96.8965,33.6287 "
   class="fil1 str1"
   id="_181434640" />
    <polygon
   points="92.3471,37.325 91.7784,37.8937 91.7784,39.031 91.7784,39.884 92.3471,40.737 92.9158,41.3057 93.7688,41.59 94.6218,41.3057 95.1904,40.737 95.7591,39.884 95.7591,39.031 95.7591,37.8937 95.1904,37.325 94.6218,36.7563 93.7688,36.472 92.9158,36.7563 "
   class="fil1 str1"
   id="_181434832" />
    <polygon
   points="88.0821,40.1684 87.5134,40.737 87.5134,41.8744 87.5134,42.7274 88.0821,43.5804 88.6507,44.1491 89.5037,44.4334 90.3568,44.1491 90.9254,43.5804 91.4941,42.7274 91.4941,41.8744 91.4941,41.0214 90.9254,40.1684 90.3568,39.5997 89.5037,39.3154 88.6507,39.5997 "
   class="fil1 str1"
   id="_181434904" />
    <polygon
   points="83.817,42.443 83.5327,43.0117 83.2484,44.1491 83.5327,45.0021 83.817,45.8551 84.3857,46.4237 85.2387,46.7081 86.0917,46.4237 86.9447,45.8551 87.2291,45.2864 87.5134,44.1491 87.2291,43.2961 86.9447,42.443 86.0917,41.8744 85.2387,41.59 84.6701,41.8744 "
   class="fil1 str1"
   id="_181434952" />
    <polygon
   points="79.552,44.7177 78.9834,45.2864 78.9834,46.4237 78.9834,47.2767 79.552,48.1298 80.1207,48.6984 80.9737,48.9828 81.8267,48.6984 82.3954,48.1298 82.964,47.5611 83.2484,46.4237 82.964,45.5707 82.3954,44.7177 81.8267,44.1491 80.9737,43.8647 80.1207,44.1491 "
   class="fil1 str1"
   id="_181435024" />
    <polygon
   points="75.287,47.2767 74.7183,47.8454 74.7183,48.9828 74.7183,49.8358 75.287,50.6888 75.8557,51.2574 76.7087,51.5418 77.5617,51.2574 78.1303,50.6888 78.699,49.8358 78.699,48.9828 78.699,48.1298 78.1303,47.2767 77.5617,46.7081 76.7087,46.4237 75.8557,46.7081 "
   class="fil1 str1"
   id="_181435240" />
    <polygon
   points="71.022,50.1201 70.4533,50.9731 70.4533,51.8261 70.4533,52.9634 71.022,53.8165 71.5906,54.3851 72.4436,54.3851 73.2966,54.3851 73.8653,53.8165 74.434,52.9634 74.7183,52.1104 74.434,50.9731 73.8653,50.1201 73.2966,49.8358 72.4436,49.5514 71.5906,49.5514 "
   class="fil1 str1"
   id="_181435168" />
    <polygon
   points="67.3256,54.9538 66.7569,55.5225 66.7569,56.6598 66.7569,57.5128 67.3256,58.3658 67.8943,58.9345 68.7473,59.2188 69.6003,58.9345 70.169,58.3658 70.7376,57.5128 70.7376,56.6598 70.7376,55.8068 70.169,54.9538 69.6003,54.3851 68.7473,54.1008 67.8943,54.3851 "
   class="fil1 str1"
   id="_181433560" />
    <polygon
   points="100.593,32.4913 100.309,33.06 96.8965,36.1877 93.4844,39.031 90.3568,41.3057 87.5134,43.2961 84.9544,45.0021 82.3954,46.4237 77.846,48.9828 74.1497,50.9731 70.7376,53.2478 68.1786,56.0911 67.0413,57.7971 65.9039,60.0718 66.4726,61.4935 67.0413,63.1995 67.0413,66.8959 67.0413,71.1609 67.6099,73.7199 68.1786,76.2789 70.4533,76.8476 70.4533,72.5826 70.4533,68.6019 71.3063,65.1899 72.1593,63.7682 73.2966,62.3465 74.434,58.9345 76.4243,56.0911 79.552,53.2478 82.964,50.9731 87.2291,48.1298 92.0628,45.0021 97.1808,41.0214 100.024,38.7467 102.868,36.1877 102.868,31.6383 101.162,31.9227 "
   class="fil2 str1"
   id="_181435384" />
    <polygon
   points="113.672,34.1973 114.241,35.0503 114.525,35.9033 114.241,37.0407 113.672,37.8937 113.104,38.4624 112.251,38.4624 111.397,38.4624 110.829,37.8937 110.26,37.0407 110.26,36.1877 110.26,35.0503 110.829,34.1973 111.397,33.6287 112.251,33.6287 113.104,33.6287 "
   class="fil1 str1"
   id="_181435456" />
    <polygon
   points="117.653,37.325 118.222,37.8937 118.222,39.031 118.222,39.884 117.653,40.737 117.084,41.3057 116.231,41.59 115.378,41.3057 114.81,40.737 114.241,39.884 114.241,39.031 114.241,37.8937 114.81,37.325 115.378,36.7563 116.231,36.472 117.084,36.7563 "
   class="fil1 str1"
   id="_189395936" />
    <polygon
   points="121.918,40.1684 122.487,40.737 122.487,41.8744 122.487,42.7274 121.918,43.5804 121.349,44.1491 120.496,44.4334 119.643,44.1491 119.075,43.5804 118.506,42.7274 118.222,41.8744 118.506,41.0214 119.075,40.1684 119.643,39.5997 120.496,39.3154 121.349,39.5997 "
   class="fil1 str1"
   id="_189418160" />
    <polygon
   points="126.183,42.443 126.467,43.0117 126.752,44.1491 126.467,45.0021 126.183,45.8551 125.614,46.4237 124.761,46.7081 123.908,46.4237 123.055,45.8551 122.771,45.2864 122.487,44.1491 122.771,43.2961 123.055,42.443 123.908,41.8744 124.761,41.59 125.33,41.8744 "
   class="fil1 str1"
   id="_189390608" />
    <polygon
   points="130.448,44.7177 131.017,45.2864 131.017,46.4237 131.017,47.2767 130.448,48.1298 129.879,48.6984 129.026,48.9828 128.173,48.6984 127.605,48.1298 127.036,47.5611 126.752,46.4237 127.036,45.5707 127.605,44.7177 128.173,44.1491 129.026,43.8647 129.879,44.1491 "
   class="fil1 str1"
   id="_189397808" />
    <polygon
   points="134.713,47.2767 135.282,47.8454 135.282,48.9828 135.282,49.8358 134.713,50.6888 134.144,51.2574 133.291,51.5418 132.438,51.2574 131.87,50.6888 131.301,49.8358 131.301,48.9828 131.301,48.1298 131.87,47.2767 132.438,46.7081 133.291,46.4237 134.144,46.7081 "
   class="fil1 str1"
   id="_189389192" />
    <polygon
   points="138.978,50.1201 139.547,50.9731 139.547,51.8261 139.547,52.9634 138.978,53.8165 138.409,54.3851 137.556,54.3851 136.703,54.3851 136.135,53.8165 135.566,52.9634 135.282,52.1104 135.566,50.9731 135.85,50.1201 136.703,49.8358 137.556,49.5514 138.409,49.5514 "
   class="fil1 str1"
   id="_189399224" />
    <polygon
   points="142.674,54.9538 143.243,55.5225 143.243,56.6598 143.243,57.5128 142.674,58.3658 142.106,58.9345 141.253,59.2188 140.4,58.9345 139.831,58.3658 139.262,57.5128 139.262,56.6598 139.262,55.8068 139.831,54.9538 140.4,54.3851 141.253,54.1008 142.106,54.3851 "
   class="fil1 str1"
   id="_189402272" />
    <polygon
   points="109.407,32.4913 109.692,33.06 113.104,36.1877 116.516,39.031 119.643,41.3057 122.487,43.2961 125.046,45.0021 127.605,46.4237 132.154,48.9828 135.85,50.9731 139.262,53.2478 141.821,56.0911 142.959,57.7971 144.096,60.0718 143.527,61.4935 142.959,63.1995 142.959,66.8959 142.674,71.1609 142.39,73.7199 141.821,76.2789 139.547,76.8476 139.547,72.5826 139.547,68.6019 138.694,65.1899 137.841,63.7682 136.703,62.3465 135.566,58.9345 133.576,56.0911 130.448,53.2478 127.036,50.9731 122.771,48.1298 117.937,45.0021 112.819,41.0214 109.976,38.7467 107.132,36.1877 107.132,31.6383 108.839,31.9227 "
   class="fil2 str1"
   id="_189403232" />
    <polygon
   points="111.966,44.7177 119.075,45.8551 122.487,46.7081 125.614,47.5611 128.173,48.4141 129.879,49.5514 133.007,51.2574 135.566,52.6791 138.409,53.5321 141.253,54.1008 143.812,54.6695 145.802,54.6695 148.077,54.6695 150.067,54.6695 153.195,54.9538 156.607,56.0911 160.588,57.7971 164.284,60.0718 165.99,61.2092 167.127,62.6308 167.98,63.7682 168.549,65.1899 169.971,67.7489 171.392,70.3079 153.195,104.712 56.8052,104.712 38.6078,70.3079 40.3138,67.7489 41.4511,65.1899 43.1571,62.6308 44.2945,61.2092 46.0005,60.0718 49.6968,57.7971 53.6775,56.0911 57.0895,54.9538 59.9329,54.6695 62.2076,54.6695 64.4823,54.6695 66.4726,54.6695 69.316,54.1008 71.875,53.5321 74.7183,52.6791 77.5617,51.2574 80.405,49.5514 82.111,48.4141 84.6701,47.5611 87.5134,46.7081 90.6411,45.8551 97.7495,44.7177 104.858,44.1491 108.27,44.4334 "
   class="fil3 str1"
   id="_189409088" />
    <path
   d="m 111.113,27.6576 c 0,3.412 -2.8433,6.2554 -6.2554,6.2554 -3.1276,0 -5.971,-2.8434 -5.971,-6.2554 0,-3.1277 2.8434,-5.971 5.971,-5.971 3.4121,0 6.2554,2.8433 6.2554,5.971 z"
   class="fil4 str1"
   id="_189397304" />
    <polygon
   points="102.015,15.4312 102.015,16.8529 104.289,16.8529 104.289,21.9709 105.711,21.9709 105.711,16.8529 107.986,16.8529 107.986,15.4312 105.711,15.4312 105.711,13.1565 104.289,13.1565 104.289,15.4312 "
   class="fil2 str1"
   id="_189393728" />
    <polygon
   points="102.299,25.9516 101.162,25.9516 100.024,26.2359 99.4555,26.2359 98.6025,26.5203 98.3181,26.8046 98.3181,26.8046 98.3181,29.0793 98.3181,29.0793 98.3181,29.0793 98.6025,29.0793 99.1711,29.3636 98.8868,29.0793 98.8868,28.795 99.7398,28.5106 100.877,28.2263 102.583,28.2263 105.142,28.2263 107.417,28.2263 109.123,28.2263 110.26,28.5106 111.113,28.795 111.113,29.0793 110.829,29.3636 111.397,29.0793 111.682,29.0793 111.682,29.0793 111.682,29.0793 111.682,26.8046 111.682,26.8046 111.682,26.8046 111.397,26.5203 110.545,26.2359 109.976,26.2359 108.839,25.9516 107.701,25.9516 105.995,25.9516 105.995,21.4023 104.005,21.4023 104.005,25.9516 "
   class="fil2 str1"
   id="_189388112" />
    <polygon
   points="153.195,62.0622 152.626,62.9152 151.773,63.4838 151.205,63.7682 150.351,64.0525 149.499,64.3369 145.233,56.3755 145.802,56.0911 146.371,56.0911 146.655,55.8068 146.939,54.9538 146.939,53.8165 145.802,52.3948 144.096,51.2574 141.537,49.8358 138.694,48.6984 135.566,47.5611 129.026,45.5707 124.761,43.8647 120.781,41.8744 112.535,37.325 108.839,35.3347 105.427,33.913 102.583,33.06 101.446,33.06 100.309,33.3443 102.015,32.7757 104.005,32.4913 106.564,32.7757 109.407,33.6287 109.692,33.6287 113.957,35.9033 118.506,38.4624 123.055,40.737 127.605,43.0117 129.879,43.5804 131.87,44.1491 136.135,45.2864 139.831,46.7081 143.243,48.1298 146.086,49.8358 148.361,51.5418 150.067,53.2478 150.636,54.6695 150.636,55.5225 150.636,56.3755 150.067,56.9441 150.067,57.5128 149.499,57.7971 148.93,57.7971 147.792,57.7971 150.92,62.0622 152.626,61.2092 154.048,59.7875 154.332,59.2188 153.763,61.2092 "
   class="fil0 str0"
   id="_189386888" />
    <polygon
   points="152.626,61.2092 150.92,62.0622 147.792,57.5128 149.214,57.5128 150.067,56.9441 150.636,55.8068 150.636,54.6695 150.067,53.2478 148.361,51.5418 146.086,49.8358 143.243,48.1298 139.831,46.7081 136.135,45.2864 131.87,44.1491 129.879,43.5804 127.605,43.0117 123.055,40.737 118.506,38.4624 113.957,35.9033 109.692,33.6287 109.407,33.6287 115.094,35.619 121.065,38.178 127.32,40.737 133.007,42.443 137.556,43.5804 141.821,45.2864 146.086,46.9924 149.499,48.9828 152.626,51.2574 153.479,52.3948 154.332,53.5321 154.901,54.9538 155.185,56.3755 154.901,57.7971 154.332,59.2188 154.048,59.7875 "
   class="fil0 str0"
   id="_189418904" />
    <polygon
   points="111.113,34.4817 111.966,35.0503 113.104,35.3347 114.241,35.3347 115.094,34.766 115.947,33.913 116.231,32.4913 115.947,31.354 115.663,30.501 114.81,29.648 113.672,29.3636 112.535,29.3636 111.397,29.9323 110.829,31.0696 110.26,32.207 110.545,33.3443 "
   class="fil1 str1"
   id="_189417896" />
    <polygon
   points="139.831,45.0021 140.684,45.8551 141.821,46.1394 142.959,45.8551 143.812,45.2864 144.665,44.4334 144.949,43.2961 144.665,42.1587 144.38,41.0214 143.527,40.1684 142.39,39.884 141.253,40.1684 140.115,40.737 139.547,41.59 138.978,42.7274 139.262,44.1491 "
   class="fil1 str1"
   id="_189417608" />
    <polygon
   points="145.518,47.5611 146.371,48.4141 147.508,48.6984 148.645,48.4141 149.783,47.8454 150.351,46.9924 150.636,45.8551 150.636,44.7177 150.067,43.5804 149.214,42.7274 148.077,42.443 146.939,42.7274 146.086,43.2961 145.233,44.1491 144.949,45.2864 144.949,46.4237 "
   class="fil1 str1"
   id="_189416288" />
    <polygon
   points="150.067,52.1104 150.92,52.9634 152.058,53.2478 153.195,52.9634 154.048,52.3948 154.901,51.5418 155.185,50.4044 154.901,49.2671 154.617,48.1298 153.763,47.2767 152.626,46.9924 151.489,47.2767 150.351,47.8454 149.499,48.6984 149.214,49.8358 149.499,50.9731 "
   class="fil1 str1"
   id="_189387704" />
    <polygon
   points="116.516,36.7563 117.369,37.6094 118.506,37.8937 119.643,37.8937 120.781,37.325 121.349,36.1877 121.918,35.0503 121.634,33.913 121.065,32.7757 120.212,32.207 119.075,31.9227 117.937,31.9227 117.084,32.4913 116.231,33.3443 115.947,34.4817 115.947,35.9033 "
   class="fil1 str1"
   id="_189397568" />
    <polygon
   points="122.202,39.5997 123.055,40.1684 124.193,40.4527 125.33,40.4527 126.183,39.884 127.036,39.031 127.32,37.6094 127.036,36.472 126.752,35.619 125.899,34.766 124.761,34.4817 123.624,34.4817 122.487,35.0503 121.918,36.1877 121.349,37.325 121.634,38.4624 "
   class="fil1 str1"
   id="_189416816" />
    <polygon
   points="127.889,41.3057 128.742,42.1587 129.879,42.443 131.017,42.1587 131.87,41.59 132.723,40.737 133.007,39.5997 133.007,38.4624 132.438,37.325 131.585,36.7563 130.448,36.1877 129.311,36.472 128.173,37.0407 127.605,37.8937 127.036,39.031 127.32,40.4527 "
   class="fil1 str1"
   id="_189406352" />
    <polygon
   points="133.576,43.2961 134.429,43.8647 135.566,44.1491 136.703,44.1491 137.841,43.5804 138.409,42.443 138.694,41.3057 138.694,40.1684 138.125,39.031 137.272,38.4624 136.135,38.178 134.997,38.178 134.144,38.7467 133.291,39.884 133.007,41.0214 133.007,42.1587 "
   class="fil1 str1"
   id="_189405776" />
    <polygon
   points="56.8052,62.0622 57.3739,62.9152 58.2269,63.4838 58.7956,63.7682 59.6486,64.0525 60.5016,64.3369 64.7666,56.3755 64.1979,56.0911 63.6293,56.0911 63.3449,55.8068 63.0606,54.9538 63.0606,53.8165 64.1979,52.3948 65.9039,51.2574 68.463,49.8358 71.3063,48.6984 74.434,47.5611 80.9737,45.5707 85.2387,43.8647 89.2194,41.8744 97.4651,37.325 101.162,35.3347 104.574,33.913 107.417,33.06 108.554,33.06 109.692,33.3443 107.986,32.7757 105.995,32.4913 103.436,32.7757 100.593,33.6287 100.309,33.6287 96.0435,35.9033 91.4941,38.4624 86.9447,40.737 82.3954,43.0117 80.1207,43.5804 78.1303,44.1491 73.8653,45.2864 70.169,46.7081 66.7569,48.1298 63.9136,49.8358 61.6389,51.5418 59.9329,53.2478 59.3642,54.6695 59.3642,56.3755 59.9329,56.9441 59.9329,57.5128 60.5016,57.7971 61.0702,57.7971 62.2076,57.7971 59.0799,62.0622 57.0895,61.2092 55.9522,59.7875 55.6679,59.2188 56.2365,61.2092 "
   class="fil0 str0"
   id="_189398144" />
    <polygon
   points="57.0895,61.2092 59.0799,62.0622 62.2076,57.5128 60.7859,57.5128 59.9329,56.9441 59.3642,55.8068 59.3642,54.6695 59.9329,53.2478 61.6389,51.5418 63.9136,49.8358 66.7569,48.1298 70.169,46.7081 73.8653,45.2864 78.1303,44.1491 80.1207,43.5804 82.3954,43.0117 86.9447,40.737 91.4941,38.4624 96.0435,35.9033 100.309,33.6287 100.593,33.6287 94.9061,35.619 88.9351,38.178 82.6797,40.737 76.993,42.443 72.4436,43.5804 68.1786,45.2864 63.9136,46.9924 60.5016,48.9828 57.3739,51.2574 56.5209,52.3948 55.6679,53.5321 55.0992,54.9538 54.8149,56.3755 55.0992,57.7971 55.6679,59.2188 55.9522,59.7875 "
   class="fil0 str0"
   id="_189393704" />
    <polygon
   points="98.8868,34.4817 98.0338,35.0503 96.8965,35.3347 95.7591,35.3347 94.9061,34.766 94.0531,33.913 93.7688,32.4913 93.7688,31.354 94.3374,30.501 95.1904,29.648 96.3278,29.3636 97.4651,29.3636 98.6025,29.9323 99.1711,31.0696 99.7398,32.207 99.4555,33.3443 "
   class="fil1 str1"
   id="_189399392" />
    <polygon
   points="70.169,45.0021 69.316,45.8551 68.1786,46.1394 67.0413,45.8551 66.1883,45.2864 65.3353,44.4334 65.0509,43.2961 65.3353,42.1587 65.6196,41.0214 66.4726,40.1684 67.6099,39.884 68.7473,40.1684 69.8846,40.737 70.4533,41.59 71.022,42.7274 70.7376,44.1491 "
   class="fil1 str1"
   id="_189387536" />
    <polygon
   points="64.4823,47.5611 63.6293,48.4141 62.4919,48.6984 61.3546,48.4141 60.2172,47.8454 59.6486,46.9924 59.0799,45.8551 59.3642,44.7177 59.9329,43.5804 60.7859,42.7274 61.9232,42.443 63.0606,42.7274 63.9136,43.2961 64.7666,44.1491 65.0509,45.2864 65.0509,46.4237 "
   class="fil1 str1"
   id="_189400016" />
    <polygon
   points="59.9329,52.1104 59.0799,52.9634 57.9426,53.2478 56.8052,52.9634 55.9522,52.3948 55.0992,51.5418 54.8149,50.4044 54.8149,49.2671 55.3835,48.1298 56.2365,47.2767 57.3739,46.9924 58.5112,47.2767 59.6486,47.8454 60.2172,48.6984 60.7859,49.8358 60.5016,50.9731 "
   class="fil1 str1"
   id="_189387296" />
    <polygon
   points="93.4844,36.7563 92.6314,37.6094 91.4941,37.8937 90.3568,37.8937 89.2194,37.325 88.6507,36.1877 88.0821,35.0503 88.3664,33.913 88.9351,32.7757 89.7881,32.207 90.9254,31.9227 92.0628,31.9227 92.9158,32.4913 93.7688,33.3443 94.0531,34.4817 94.0531,35.9033 "
   class="fil1 str1"
   id="_189400664" />
    <polygon
   points="87.7977,39.5997 86.9447,40.1684 85.8074,40.4527 84.6701,40.4527 83.817,39.884 82.964,39.031 82.6797,37.6094 82.6797,36.472 83.2484,35.619 84.1014,34.766 85.2387,34.4817 86.3761,34.4817 87.5134,35.0503 88.0821,36.1877 88.6507,37.325 88.3664,38.4624 "
   class="fil1 str1"
   id="_189393320" />
    <polygon
   points="82.111,41.3057 81.258,42.1587 80.1207,42.443 78.9834,42.1587 78.1303,41.59 77.2773,40.737 76.993,39.5997 76.993,38.4624 77.5617,37.325 78.4147,36.7563 79.552,36.1877 80.6894,36.472 81.8267,37.0407 82.3954,37.8937 82.6797,39.031 82.6797,40.4527 "
   class="fil1 str1"
   id="_189390968" />
    <polygon
   points="76.4243,43.2961 75.5713,43.8647 74.434,44.1491 73.2966,44.1491 72.1593,43.5804 71.5906,42.443 71.3063,41.3057 71.3063,40.1684 71.875,39.031 72.728,38.4624 73.8653,38.178 75.0027,38.178 75.8557,38.7467 76.7087,39.884 76.993,41.0214 76.993,42.1587 "
   class="fil1 str1"
   id="_189393272" />
    <polygon
   points="99.7398,34.766 99.1711,37.325 99.1711,40.1684 99.1711,40.737 99.1711,41.59 98.8868,44.4334 98.3181,46.9924 97.7495,49.2671 97.1808,51.2574 105.142,56.9441 112.819,51.2574 111.966,49.2671 111.397,46.9924 111.113,44.4334 110.829,41.59 110.829,40.737 110.829,40.1684 110.829,37.325 110.26,34.766 109.407,33.3443 107.986,32.4913 107.986,34.4817 107.986,35.0503 107.986,35.3347 107.986,36.472 107.986,37.8937 107.986,39.3154 107.986,41.0214 107.986,42.443 108.27,43.5804 108.27,43.8647 108.27,47.5611 108.839,48.9828 109.123,50.1201 105.142,53.8165 100.877,50.1201 101.162,48.9828 101.73,47.5611 101.73,43.8647 101.73,43.5804 101.73,42.443 102.015,41.0214 102.015,39.3154 102.015,37.8937 102.015,36.472 102.015,35.3347 102.015,35.0503 102.015,34.4817 102.015,32.4913 100.593,33.3443 "
   class="fil0 str1"
   id="_189390080" />
    <polygon
   points="102.015,35.0503 102.015,35.3347 102.015,36.472 102.015,37.8937 102.015,39.3154 102.015,41.0214 101.73,42.443 101.73,43.5804 101.73,43.8647 101.73,47.5611 101.162,48.9828 100.877,50.1201 105.142,53.8165 109.123,50.1201 108.839,48.9828 108.27,47.5611 108.27,43.8647 108.27,43.5804 107.986,42.443 107.986,41.0214 107.986,39.3154 107.986,37.8937 107.986,36.472 107.986,35.3347 107.986,35.0503 107.986,34.4817 107.986,32.4913 106.564,31.9227 105.142,31.6383 105.142,31.6383 103.436,31.9227 102.015,32.4913 102.015,34.4817 "
   class="fil0 str1"
   id="_189393128" />
    <path
   d="m 108.27,33.3443 c 0,1.9904 -1.4217,3.6964 -3.4121,3.6964 -1.706,0 -3.1276,-1.706 -3.1276,-3.6964 0,-1.706 1.4216,-3.412 3.1276,-3.412 1.9904,0 3.4121,1.706 3.4121,3.412 z"
   class="fil1 str1"
   id="_189389888" />
    <path
   d="m 108.27,35.619 c 0,1.9904 -1.4217,3.412 -3.4121,3.412 -1.706,0 -3.1276,-1.4216 -3.1276,-3.412 0,-1.9903 1.4216,-3.412 3.1276,-3.412 1.9904,0 3.4121,1.4217 3.4121,3.412 z"
   class="fil1 str1"
   id="_189392960" />
    <path
   d="m 108.27,37.325 c 0,1.9904 -1.4217,3.6964 -3.4121,3.6964 -1.706,0 -3.1276,-1.706 -3.1276,-3.6964 0,-1.706 1.4216,-3.412 3.1276,-3.412 1.9904,0 3.4121,1.706 3.4121,3.412 z"
   class="fil1 str1"
   id="_189403424" />
    <path
   d="m 108.27,38.4624 c 0,1.9903 -1.4217,3.6963 -3.4121,3.6963 -1.706,0 -3.1276,-1.706 -3.1276,-3.6963 0,-1.7061 1.4216,-3.4121 3.1276,-3.4121 1.9904,0 3.4121,1.706 3.4121,3.4121 z"
   class="fil1 str1"
   id="_189387320" />
    <path
   d="m 108.27,39.5997 c 0,1.706 -1.4217,3.412 -3.4121,3.412 -1.706,0 -3.1276,-1.706 -3.1276,-3.412 0,-1.9903 1.4216,-3.6964 3.1276,-3.6964 1.9904,0 3.4121,1.7061 3.4121,3.6964 z"
   class="fil1 str1"
   id="_189404456" />
    <path
   d="m 108.27,40.737 c 0,1.706 -1.4217,3.4121 -3.4121,3.4121 -1.706,0 -3.1276,-1.7061 -3.1276,-3.4121 0,-1.9903 1.4216,-3.6963 3.1276,-3.6963 1.9904,0 3.4121,1.706 3.4121,3.6963 z"
   class="fil1 str1"
   id="_189392744" />
    <path
   d="m 108.27,42.443 c 0,1.9904 -1.4217,3.6964 -3.4121,3.6964 -1.706,0 -3.1276,-1.706 -3.1276,-3.6964 0,-1.706 1.4216,-3.412 3.1276,-3.412 1.9904,0 3.4121,1.706 3.4121,3.412 z"
   class="fil1 str1"
   id="_189405368" />
    <path
   d="m 108.27,46.9924 c 0,1.706 -1.4217,3.412 -3.4121,3.412 -1.706,0 -3.1276,-1.706 -3.1276,-3.412 0,-1.9903 1.4216,-3.6963 3.1276,-3.6963 1.9904,0 3.4121,1.706 3.4121,3.6963 z"
   class="fil1 str1"
   id="_189387224" />
    <polygon
   points="48.8438,97.0354 49.9812,98.1727 50.8342,99.0257 51.6872,99.5944 52.5402,99.5944 52.8245,99.3101 52.8245,98.4571 52.8245,97.0354 52.2559,95.045 48.2752,87.368 47.7065,86.7993 46.8535,87.0837 46.2848,87.368 46.0005,87.9367 45.1475,90.78 47.1378,93.9077 "
   class="fil2 str1"
   id="_189406448" />
    <polygon
   points="48.2752,91.633 46.5692,89.3583 44.8631,86.7993 43.1571,83.6716 42.5885,83.3873 41.7355,83.3873 41.1668,83.6716 41.1668,84.2403 43.7258,88.5053 45.7161,91.633 47.4222,93.9077 48.8438,95.3294 49.4125,93.339 "
   class="fil2 str1"
   id="_189392528" />
    <polygon
   points="161.156,97.0354 160.019,98.1727 159.166,99.0257 158.313,99.5944 157.46,99.5944 157.176,99.3101 157.176,98.4571 157.176,97.0354 157.744,95.045 161.725,87.368 162.293,86.7993 163.147,87.0837 163.715,87.368 164,87.9367 164.853,90.78 162.862,93.9077 "
   class="fil2 str1"
   id="_189407360" />
    <polygon
   points="162.578,93.9077 164.284,91.633 166.274,88.5053 168.833,84.2403 168.833,83.6716 168.265,83.3873 167.412,83.3873 166.843,83.6716 165.137,86.7993 163.147,89.3583 161.725,91.633 160.303,93.339 161.156,95.3294 "
   class="fil2 str1"
   id="_189387152" />
    <polygon
   points="30.9307,64.6212 32.3524,64.9055 34.9114,66.0429 36.6174,67.4645 37.1861,68.3175 37.4704,68.8862 38.3234,68.6019 38.8921,68.3175 40.5981,68.6019 40.3138,69.7392 40.3138,71.1609 40.0294,72.2982 39.7451,73.7199 41.1668,74.2886 41.7355,75.1416 42.8728,74.5729 44.0101,74.2886 44.0101,75.9946 44.0101,77.4163 43.7258,77.9849 43.4415,78.5536 42.8728,79.4066 42.5885,79.6909 42.8728,80.5439 44.8631,78.2693 47.1378,78.2693 47.7065,78.5536 48.2752,79.1223 48.8438,79.6909 49.6968,79.9753 49.1282,80.8283 48.5595,81.6813 47.4222,83.6716 46.2848,84.2403 44.8631,83.956 46.5692,84.809 47.7065,85.9463 48.5595,86.7993 49.1282,87.9367 47.7065,87.9367 46.8535,87.9367 48.8438,90.78 50.8342,92.7704 49.9812,93.0547 45.1475,91.0643 40.8824,87.0837 36.0488,80.2596 35.7644,69.4549 34.3427,68.3175 32.9211,67.1802 32.3524,66.6115 31.2151,66.0429 29.7934,65.7585 27.803,65.7585 29.2247,64.9055 "
   class="fil2 str1"
   id="_189408776" />
    <polygon
   points="31.7837,67.7489 32.9211,69.4549 34.0584,71.4452 35.1957,75.9946 35.4801,78.5536 36.0488,80.5439 40.5981,87.0837 42.3041,89.074 44.0101,90.78 45.4318,92.2017 46.8535,93.0547 47.9908,93.0547 48.5595,93.0547 49.1282,93.0547 50.2655,93.0547 49.1282,92.486 48.2752,91.9174 47.1378,90.2113 46.2848,89.3583 45.1475,88.5053 43.4415,87.6523 41.4511,86.7993 42.0198,86.515 42.5885,86.515 44.0101,87.368 45.4318,87.9367 46.5692,87.9367 48.2752,87.9367 46.8535,86.2307 45.4318,85.3776 44.0101,84.5246 42.8728,83.956 44.0101,83.956 44.8631,83.956 45.7161,84.2403 46.2848,83.956 47.1378,83.3873 47.7065,82.25 47.9908,81.1126 48.8438,79.9753 47.7065,79.4066 46.5692,78.8379 45.4318,78.2693 44.0101,78.5536 43.4415,79.1223 42.8728,79.6909 42.0198,80.5439 41.1668,81.1126 41.1668,79.6909 41.7355,78.8379 42.3041,78.2693 42.5885,77.4163 42.8728,76.8476 42.8728,76.2789 42.5885,75.4259 42.8728,74.5729 41.1668,75.1416 40.0294,75.9946 39.4608,76.8476 39.1764,77.7006 38.6078,79.1223 38.0391,79.9753 37.4704,80.5439 37.4704,79.4066 37.4704,78.8379 38.0391,77.9849 38.8921,76.8476 39.4608,76.2789 40.3138,75.1416 39.7451,74.5729 39.1764,74.2886 38.3234,74.0042 38.8921,72.8669 38.8921,71.7296 39.1764,70.3079 39.4608,68.8862 38.3234,68.6019 37.4704,68.8862 36.6174,69.7392 36.3331,68.8862 35.7644,68.0332 34.9114,67.1802 33.7741,66.3272 32.3524,65.4742 30.9307,65.1899 29.2247,65.1899 27.5187,65.7585 30.0777,66.6115 "
   class="fil2 str1"
   id="_189392288" />
    <polyline
   points="37.7548,71.7296 36.9018,74.0042 36.3331,76.2789 36.3331,78.5536 36.3331,80.8283 "
   class="fil5 str2"
   id="_189408320" />
    <polyline
   points="40.0294,79.1223 39.1764,81.1126 37.4704,82.25 "
   class="fil5 str2"
   id="_189392096" />
    <polyline
   points="45.1475,81.397 43.7258,81.6813 42.3041,82.25 40.8824,83.103 39.7451,83.3873 38.6078,83.3873 "
   class="fil5 str2"
   id="_189417200" />
    <polyline
   points="39.1764,84.5246 42.0198,85.0933 44.2945,85.9463 "
   class="fil5 str2"
   id="_189417632" />
    <polyline
   points="40.3138,86.515 42.0198,88.221 43.7258,89.3583 44.8631,90.2113 45.7161,91.0643 "
   class="fil5 str2"
   id="_189403976" />
    <polygon
   points="38.8921,86.7993 37.7548,86.7993 36.6174,86.2307 35.7644,85.3776 35.1957,84.2403 35.1957,83.103 35.4801,81.9656 36.3331,81.397 36.3331,81.1126 40.0294,86.515 "
   class="fil6 str1"
   id="_189419408" />
    <polygon
   points="40.0294,87.0837 40.5981,86.7993 38.3234,83.103 37.1861,81.6813 36.3331,80.5439 35.4801,81.1126 "
   class="fil0 str1"
   id="_189404408" />
    <polygon
   points="179.069,64.6212 177.648,64.9055 175.089,66.0429 173.383,67.4645 172.814,68.3175 172.53,68.8862 171.677,68.6019 171.108,68.3175 169.402,68.6019 169.686,69.7392 169.686,71.1609 169.686,72.2982 170.255,73.7199 168.833,74.2886 168.265,75.1416 167.127,74.5729 165.99,74.2886 165.99,75.9946 165.99,77.4163 166.274,77.9849 166.559,78.5536 167.127,79.4066 167.412,79.6909 167.127,80.5439 165.137,78.2693 162.862,78.2693 162.293,78.5536 161.725,79.1223 161.156,79.6909 160.303,79.9753 160.872,80.8283 161.44,81.6813 162.578,83.6716 163.715,84.2403 165.137,83.956 163.431,84.809 162.293,85.9463 161.44,86.7993 160.872,87.9367 162.293,87.9367 163.147,87.9367 161.156,90.78 159.166,92.7704 160.019,93.0547 164.853,91.0643 169.118,87.0837 173.951,80.2596 174.236,69.4549 175.657,68.3175 177.079,67.1802 177.648,66.6115 178.785,66.0429 180.207,65.7585 182.197,65.7585 180.775,64.9055 "
   class="fil2 str1"
   id="_189391376" />
    <polygon
   points="178.216,67.7489 177.079,69.4549 175.942,71.4452 174.804,75.9946 174.52,78.5536 173.951,80.5439 169.402,87.0837 167.696,89.074 165.99,90.78 164.568,92.2017 163.147,93.0547 162.009,93.0547 161.44,93.0547 160.872,93.0547 159.735,93.0547 160.872,92.486 161.725,91.9174 162.862,90.2113 163.715,89.3583 164.853,88.5053 166.274,87.6523 168.549,86.7993 167.98,86.515 167.127,86.515 165.99,87.368 164.568,87.9367 163.431,87.9367 161.725,87.9367 163.147,86.2307 164.568,85.3776 165.99,84.5246 167.127,83.956 165.99,83.956 165.137,83.956 164.284,84.2403 163.715,83.956 162.862,83.3873 162.293,82.25 162.009,81.1126 161.156,79.9753 162.293,79.4066 163.431,78.8379 164.568,78.2693 165.99,78.5536 166.559,79.1223 167.127,79.6909 167.98,80.5439 168.833,81.1126 168.833,79.6909 168.265,78.8379 167.696,78.2693 167.127,77.4163 167.127,76.8476 167.127,76.2789 167.127,75.4259 167.127,74.5729 168.833,75.1416 169.971,75.9946 170.539,76.8476 170.824,77.7006 171.392,79.1223 171.961,79.9753 172.53,80.5439 172.53,79.4066 172.53,78.8379 171.961,77.9849 171.108,76.8476 170.539,76.2789 169.686,75.1416 170.255,74.5729 170.824,74.2886 171.392,74.0042 171.108,72.8669 171.108,71.7296 170.824,70.3079 170.539,68.8862 171.677,68.6019 172.53,68.8862 173.383,69.7392 173.667,68.8862 174.236,68.0332 175.089,67.1802 176.226,66.3272 177.648,65.4742 179.069,65.1899 180.775,65.1899 182.481,65.7585 179.922,66.6115 "
   class="fil2 str1"
   id="_189397592" />
    <polyline
   points="172.245,71.7296 173.098,74.0042 173.667,76.2789 173.667,78.5536 173.667,80.8283 "
   class="fil5 str2"
   id="_189399560" />
    <polyline
   points="169.971,79.1223 170.255,80.2596 170.824,81.1126 172.53,82.25 "
   class="fil5 str2"
   id="_189394712" />
    <polyline
   points="164.853,81.397 166.274,81.6813 167.696,82.25 169.118,83.103 170.255,83.3873 171.392,83.3873 "
   class="fil5 str2"
   id="_189396368" />
    <polyline
   points="170.824,84.5246 167.98,85.0933 165.706,85.9463 "
   class="fil5 str2"
   id="_189388424" />
    <polyline
   points="169.686,86.515 167.98,88.221 166.274,89.3583 165.137,90.2113 164.284,91.0643 "
   class="fil5 str2"
   id="_189391904" />
    <polygon
   points="171.108,86.7993 172.245,86.7993 173.383,86.2307 174.236,85.3776 174.804,84.2403 174.804,83.103 174.52,81.9656 173.667,81.397 173.667,81.1126 169.971,86.515 "
   class="fil6 str1"
   id="_189393488" />
    <polygon
   points="169.971,87.0837 169.402,86.7993 171.392,83.103 172.53,81.6813 173.667,80.5439 174.52,81.1126 "
   class="fil0 str1"
   id="_189387392" />
    <polygon
   points="104.289,75.4259 103.721,79.4066 102.868,81.397 102.015,83.3873 100.877,85.0933 99.4555,86.7993 97.4651,87.9367 94.9061,88.5053 92.3471,88.5053 90.0724,87.6523 87.7977,86.2307 85.8074,84.2403 84.1014,82.25 82.964,79.9753 82.111,77.9849 81.8267,76.2789 81.5424,75.7103 80.6894,75.4259 80.1207,75.7103 79.8364,76.2789 80.1207,80.5439 79.552,84.5246 78.9834,86.2307 77.846,87.6523 76.7087,89.074 75.0027,89.6427 73.2966,89.6427 71.3063,89.3583 69.6003,88.5053 67.6099,87.0837 65.9039,85.0933 64.1979,83.103 61.3546,77.9849 60.7859,77.4163 59.9329,77.4163 59.3642,77.7006 59.3642,78.2693 60.2172,80.8283 60.7859,83.3873 61.0702,85.3776 61.0702,87.368 61.0702,89.074 60.5016,90.2113 59.9329,91.3487 59.0799,91.9174 57.9426,91.9174 56.8052,91.3487 55.3835,90.2113 53.6775,88.5053 52.2559,86.7993 50.5498,84.809 47.9908,80.5439 47.4222,80.2596 46.5692,80.2596 46.0005,80.5439 46.0005,81.1126 47.4222,84.5246 49.1282,87.6523 49.9812,91.0643 50.5498,94.4764 49.4125,93.339 48.8438,95.3294 49.9812,96.1824 50.8342,96.751 51.6872,96.751 52.2559,96.4667 52.8245,95.6137 52.8245,94.192 52.5402,92.2017 51.6872,89.6427 53.9619,91.3487 56.2365,93.0547 57.3739,93.6234 58.7956,93.9077 59.6486,93.9077 60.7859,93.339 62.2076,91.9174 63.0606,89.927 63.3449,87.6523 63.3449,84.809 65.9039,87.6523 69.0316,90.2113 70.4533,91.0643 72.1593,91.633 73.8653,91.9174 75.287,91.633 78.1303,90.4957 80.1207,88.5053 81.258,85.662 82.111,82.25 84.3857,85.3776 87.2291,88.5053 89.2194,89.6427 90.9254,90.2113 93.2001,90.78 95.1904,90.78 97.4651,90.2113 99.1711,89.3583 100.593,87.9367 102.015,86.515 104.005,83.6716 104.574,82.5343 105.142,81.397 105.427,82.5343 105.995,83.6716 107.986,86.515 109.123,87.9367 110.829,89.3583 112.535,90.2113 114.81,90.78 116.8,90.78 119.075,90.2113 120.781,89.6427 122.771,88.5053 125.614,85.3776 127.889,82.25 128.742,85.662 129.879,88.5053 131.87,90.4957 134.713,91.633 136.135,91.9174 137.841,91.633 139.547,91.0643 140.968,90.2113 144.096,87.6523 146.655,84.809 146.655,87.6523 146.939,89.927 147.792,91.9174 149.214,93.339 150.351,93.9077 151.205,93.9077 152.626,93.6234 153.763,93.0547 156.038,91.3487 158.313,89.6427 157.46,92.2017 157.176,94.192 157.176,95.6137 157.744,96.4667 158.313,96.751 159.166,96.751 160.019,96.4667 161.156,95.3294 160.303,93.339 159.45,94.4764 160.019,91.0643 160.872,87.6523 162.578,84.5246 164,81.1126 164,80.5439 163.431,80.2596 162.578,80.2596 162.009,80.5439 159.45,84.809 157.744,86.7993 156.322,88.5053 154.617,90.2113 153.195,91.3487 152.058,91.9174 150.92,91.9174 150.067,91.3487 149.499,90.2113 148.93,89.074 148.93,87.368 148.93,85.3776 149.214,83.3873 149.783,80.8283 150.636,78.2693 150.636,77.7006 150.067,77.4163 149.214,77.4163 148.645,77.9849 145.802,83.103 144.096,85.0933 142.39,87.0837 140.4,88.5053 138.694,89.3583 136.703,89.6427 134.997,89.6427 133.291,89.074 132.154,87.6523 131.017,86.2307 130.448,84.5246 129.879,80.5439 130.164,76.2789 129.879,75.7103 129.311,75.4259 128.742,75.7103 128.173,76.2789 127.889,77.9849 127.036,79.9753 125.899,82.25 124.193,84.2403 122.202,86.2307 119.928,87.6523 117.653,88.5053 115.094,88.5053 112.535,87.9367 110.545,86.7993 109.123,85.0933 107.986,83.3873 107.132,81.397 106.28,79.4066 105.711,75.4259 105.427,75.1416 105.142,74.8572 104.574,75.1416 "
   class="fil2 str1"
   id="_189386792" />
    <path
   d="m 132.438,75.7103 c 0,1.706 -1.4216,3.1276 -3.1276,3.1276 -1.9904,0 -3.4121,-1.4216 -3.4121,-3.1276 0,-1.7061 1.4217,-3.1277 3.4121,-3.1277 1.706,0 3.1276,1.4216 3.1276,3.1277 z"
   class="fil1 str1"
   id="_189391760" />
    <polygon
   points="130.732,78.2693 130.732,78.8379 130.164,78.8379 130.164,79.1223 129.879,79.4066 129.879,79.6909 129.595,79.9753 128.458,79.9753 127.605,79.6909 127.32,79.4066 127.32,79.1223 127.32,78.8379 127.036,78.5536 127.036,78.2693 126.752,77.9849 128.742,78.2693 "
   class="fil2 str1"
   id="_189387848" />
    <path
   d="m 84.1014,75.7103 c 0,1.706 -1.4217,3.1276 -3.1277,3.1276 -1.9903,0 -3.412,-1.4216 -3.412,-3.1276 0,-1.7061 1.4217,-3.1277 3.412,-3.1277 1.706,0 3.1277,1.4216 3.1277,3.1277 z"
   class="fil1 str1"
   id="_189388088" />
    <polygon
   points="79.2677,78.2693 79.2677,78.8379 79.552,78.8379 79.8364,79.1223 79.8364,79.4066 80.1207,79.6909 80.405,79.9753 81.258,79.9753 82.3954,79.6909 82.6797,79.4066 82.6797,79.1223 82.6797,78.8379 82.964,78.5536 82.964,78.2693 83.2484,77.9849 81.258,78.2693 "
   class="fil2 str1"
   id="_189406904" />
    <polygon
   points="45.1475,83.103 46.2848,83.3873 47.7065,83.103 48.8438,82.5343 49.4125,81.397 49.9812,80.2596 49.6968,79.1223 49.1282,77.9849 47.9908,77.4163 46.8535,77.1319 45.4318,77.4163 44.5788,77.9849 43.7258,78.8379 43.4415,79.9753 43.4415,81.1126 44.2945,82.25 "
   class="fil1 str1"
   id="_189400208" />
    <polygon
   points="46.0005,83.3873 46.2848,83.6716 46.5692,83.6716 46.8535,83.6716 47.1378,84.2403 47.7065,84.2403 48.5595,83.956 49.4125,83.3873 49.6968,83.3873 49.6968,83.103 49.4125,82.5343 49.4125,82.25 49.6968,81.9656 49.4125,81.6813 47.9908,82.5343 "
   class="fil2 str1"
   id="_189394232" />
    <polygon
   points="164.853,83.103 163.715,83.3873 162.293,83.103 161.156,82.5343 160.588,81.397 160.019,80.2596 160.303,79.1223 160.872,77.9849 162.009,77.4163 163.147,77.1319 164.568,77.4163 165.421,77.9849 166.274,78.8379 166.559,79.9753 166.559,81.1126 165.706,82.25 "
   class="fil1 str1"
   id="_189409640" />
    <polygon
   points="164,83.3873 163.715,83.6716 163.431,83.6716 163.147,83.6716 162.862,84.2403 162.293,84.2403 161.44,83.956 160.588,83.3873 160.303,83.3873 160.303,83.103 160.588,82.5343 160.588,82.25 160.303,81.9656 160.588,81.6813 162.009,82.5343 "
   class="fil2 str1"
   id="_189409664" />
    <polygon
   points="92.6314,62.9152 93.7688,63.1995 95.4748,63.7682 96.3278,64.3369 96.8965,65.1899 98.6025,66.6115 100.593,67.1802 102.015,67.4645 102.583,67.4645 102.868,67.4645 100.877,73.1512 89.7881,68.8862 89.7881,68.6019 90.0724,68.3175 90.9254,68.0332 91.7784,68.0332 92.9158,68.3175 93.7688,68.8862 94.9061,69.1705 96.3278,69.1705 92.0628,62.9152 "
   class="fil2 str1"
   id="_189391232" />
    <polygon
   points="117.369,62.9152 116.231,63.1995 114.525,63.7682 113.672,64.3369 113.104,65.1899 111.397,66.6115 109.407,67.1802 107.986,67.4645 107.417,67.4645 107.132,67.4645 109.123,73.1512 120.212,68.8862 120.212,68.6019 119.928,68.3175 119.075,68.0332 118.222,68.0332 117.084,68.3175 116.231,68.8862 115.094,69.1705 113.672,69.1705 117.937,62.9152 "
   class="fil2 str1"
   id="_189418712" />
    <polygon
   points="102.299,50.9731 101.446,53.2478 100.877,55.2381 99.7398,54.6695 98.6025,54.6695 97.4651,54.9538 96.3278,55.2381 96.6121,56.3755 96.6121,57.7971 96.8965,59.5032 97.1808,61.2092 96.6121,61.4935 96.0435,62.0622 94.9061,62.9152 95.1904,63.4838 96.0435,64.0525 98.0338,64.9055 100.309,66.3272 101.162,67.1802 101.73,68.3175 99.7398,67.7489 98.6025,67.1802 97.4651,66.3272 96.8965,65.4742 96.0435,64.6212 95.1904,63.7682 93.7688,63.1995 91.7784,62.9152 91.7784,64.6212 92.0628,65.7585 92.3471,66.6115 92.9158,67.1802 94.3374,68.0332 94.6218,68.8862 94.9061,69.7392 93.7688,69.4549 92.9158,69.1705 92.3471,68.6019 91.2098,68.3175 89.7881,68.6019 88.6507,69.7392 87.7977,70.5922 86.6604,71.4452 88.0821,72.2982 89.2194,73.1512 90.3568,74.0042 91.7784,74.5729 92.6314,74.5729 93.2001,74.0042 94.0531,73.7199 95.1904,73.7199 94.6218,74.5729 94.0531,75.1416 92.9158,75.9946 92.3471,77.1319 92.3471,77.9849 92.6314,79.1223 94.6218,79.1223 96.0435,78.8379 96.8965,77.9849 97.4651,77.4163 98.6025,75.9946 99.4555,75.7103 100.877,75.7103 98.8868,77.1319 97.7495,78.5536 96.8965,79.6909 96.6121,80.5439 96.8965,82.5343 96.6121,83.6716 96.3278,84.809 98.6025,83.956 100.309,83.6716 102.299,83.103 103.721,82.25 105.142,81.397 106.28,82.25 107.701,83.103 109.692,83.6716 111.397,83.956 113.672,84.809 113.388,83.6716 113.104,82.5343 113.388,80.5439 113.104,79.6909 112.251,78.5536 111.113,77.1319 109.123,75.7103 110.545,75.7103 111.397,75.9946 112.251,77.4163 113.104,77.9849 113.957,78.8379 115.378,79.1223 117.369,79.1223 117.653,77.9849 117.653,77.1319 117.084,75.9946 115.947,75.1416 115.378,74.5729 114.81,73.7199 115.947,73.7199 116.8,74.0042 117.369,74.5729 118.222,74.5729 119.643,74.0042 120.781,73.1512 121.918,72.2982 123.34,71.4452 122.202,70.5922 121.349,69.7392 120.212,68.6019 118.79,68.3175 117.653,68.6019 117.084,69.1705 116.231,69.4549 115.094,69.7392 115.378,68.8862 115.663,68.0332 117.084,67.1802 117.653,66.6115 117.937,65.7585 118.222,64.6212 118.222,62.9152 116.231,63.1995 114.81,63.7682 113.957,64.6212 113.104,65.4742 112.535,66.3272 111.397,67.1802 110.26,67.7489 108.27,68.3175 108.839,67.1802 109.692,66.3272 111.966,64.9055 113.957,64.0525 114.525,63.4838 115.094,62.9152 113.957,62.0622 113.388,61.4935 112.819,61.2092 113.104,59.5032 113.388,57.7971 113.388,56.3755 113.672,55.2381 112.535,54.9538 111.397,54.6695 110.26,54.6695 109.123,55.2381 108.554,53.2478 107.701,50.9731 106.564,49.2671 105.142,47.5611 105.142,47.5611 104.858,47.5611 103.436,49.2671 "
   class="fil2 str1"
   id="_189418640" />
    <polyline
   points="105.142,68.6019 105.142,68.3175 105.142,67.7489 104.858,66.8959 104.858,65.7585 104.858,62.9152 104.858,59.5032 105.142,56.3755 105.142,53.5321 105.142,52.3948 105.142,51.5418 105.142,50.9731 105.142,50.6888 "
   class="fil5 str2"
   id="_189419360" />
    <polyline
   points="104.005,74.8572 103.436,76.5633 102.299,78.5536 100.877,80.2596 99.4555,81.6813 "
   class="fil5 str2"
   id="_189391136" />
    <polyline
   points="101.73,73.1512 100.309,73.4356 98.3181,74.0042 96.8965,74.8572 95.4748,75.7103 "
   class="fil5 str2"
   id="_189405056" />
    <polyline
   points="101.446,72.2982 99.4555,72.2982 97.4651,72.2982 94.6218,71.4452 92.6314,70.8766 91.7784,70.8766 90.9254,71.1609 "
   class="fil5 str2"
   id="_189405272" />
    <polyline
   points="101.73,70.3079 101.446,70.3079 100.593,70.0236 99.7398,69.7392 98.3181,69.4549 97.7495,69.1705 96.8965,68.3175 95.7591,66.8959 "
   class="fil5 str2"
   id="_189386984" />
    <polyline
   points="104.289,68.3175 104.289,68.0332 104.005,67.1802 103.436,65.7585 102.868,63.7682 101.73,61.7778 100.593,60.0718 100.024,59.2188 99.7398,58.9345 "
   class="fil5 str2"
   id="_189391856" />
    <polyline
   points="105.995,74.8572 106.564,76.5633 107.701,78.5536 109.123,80.2596 110.545,81.6813 "
   class="fil5 str2"
   id="_189416888" />
    <polyline
   points="108.27,73.1512 109.692,73.4356 111.397,74.0042 113.104,74.8572 114.525,75.7103 "
   class="fil5 str2"
   id="_189397736" />
    <polyline
   points="108.554,72.2982 110.545,72.2982 112.535,72.2982 115.378,71.4452 117.369,70.8766 118.222,70.8766 119.075,71.1609 "
   class="fil5 str2"
   id="_189392480" />
    <polyline
   points="108.27,70.3079 108.554,70.3079 109.407,70.0236 110.26,69.7392 111.682,69.4549 112.251,69.1705 113.104,68.3175 114.241,66.8959 "
   class="fil5 str2"
   id="_189387368" />
    <polyline
   points="105.711,68.3175 105.711,68.0332 105.995,67.1802 106.564,65.7585 107.132,63.7682 108.27,61.7778 109.407,60.0718 109.976,59.2188 110.26,58.9345 "
   class="fil5 str2"
   id="_189394784" />
    <path
   d="m 109.123,72.0139 c 0,1.9903 -1.706,3.6964 -3.9807,3.6964 -2.2747,0 -3.9807,-1.7061 -3.9807,-3.6964 0,-2.2747 1.706,-3.9807 3.9807,-3.9807 2.2747,0 3.9807,1.706 3.9807,3.9807 z"
   class="fil2 str1"
   id="_189396008" />
    <path
   d="m 108.27,71.7296 c 0,1.706 -1.4217,3.1276 -3.1277,3.1276 -1.706,0 -3.1277,-1.4216 -3.1277,-3.1276 0,-1.706 1.4217,-3.1277 3.1277,-3.1277 1.706,0 3.1277,1.4217 3.1277,3.1277 z"
   class="fil1 str1"
   id="_189389120" />
    <polygon
   points="80.9737,90.78 69.0316,91.9174 63.0606,92.7704 57.0895,93.6234 54.2462,94.4764 51.4028,95.3294 48.8438,96.751 47.9908,97.8884 47.4222,99.0257 47.4222,100.163 47.7065,101.016 49.4125,102.722 51.4028,103.575 53.3932,104.428 57.9426,105.565 62.2076,106.418 71.3063,107.556 80.6894,108.125 89.7881,108.693 104.005,108.693 118.222,108.693 132.438,108.125 146.655,106.703 150.636,105.85 154.332,104.997 158.313,103.859 161.725,101.869 162.293,101.016 162.578,99.8787 162.578,99.0257 162.009,98.1727 160.588,96.4667 158.597,95.6137 154.901,94.192 151.205,93.339 143.812,92.2017 136.135,91.3487 128.458,90.78 116.8,90.4957 104.858,90.2113 92.9158,90.4957 "
   class="fil2 str1"
   id="_189398816" />
    <polygon
   points="92.9158,94.192 87.5134,94.4764 82.6797,94.4764 79.2677,94.7607 74.434,95.045 70.169,95.6137 66.1883,95.898 63.0606,96.4667 60.2172,96.751 57.6582,97.3197 55.6679,97.6041 54.2462,98.1727 53.1089,98.4571 51.4028,99.3101 50.5498,99.8787 50.2655,100.163 49.9812,100.447 49.6968,100.732 49.6968,101.016 52.5402,111.252 62.4919,111.252 147.508,111.252 157.46,111.252 160.303,101.016 160.303,100.732 160.019,100.447 159.735,100.163 158.882,99.3101 157.744,99.0257 156.607,98.4571 156.607,98.4571 155.185,98.1727 153.195,97.6041 150.92,97.0354 148.077,96.4667 144.665,95.898 140.684,95.6137 136.135,95.045 130.732,94.7607 130.732,94.7607 127.32,94.4764 122.487,94.4764 117.084,94.192 111.397,94.192 105.142,94.192 98.6025,94.192 "
   class="fil2 str1"
   id="_189390920" />
    <path
   d="m 129.879,99.3101 c 0,1.9903 -1.706,3.6963 -3.412,3.6963 -1.9903,0 -3.6963,-1.706 -3.6963,-3.6963 0,-1.9904 1.706,-3.6964 3.6963,-3.6964 1.706,0 3.412,1.706 3.412,3.6964 z"
   class="fil2 str1"
   id="_189390104" />
    <path
   d="m 130.164,99.3101 c 0,1.9903 -1.706,3.6963 -3.6964,3.6963 -1.706,0 -3.412,-1.706 -3.412,-3.6963 0,-1.9904 1.706,-3.6964 3.412,-3.6964 1.9904,0 3.6964,1.706 3.6964,3.6964 z"
   class="fil2 str1"
   id="_189404504" />
    <path
   d="m 129.879,99.3101 c 0,1.706 -1.4216,3.1277 -3.1277,3.1277 -1.706,0 -3.1276,-1.4217 -3.1276,-3.1277 0,-1.706 1.4216,-3.1277 3.1276,-3.1277 1.7061,0 3.1277,1.4217 3.1277,3.1277 z"
   class="fil1 str1"
   id="_189405584" />
    <path
   d="m 87.2291,99.3101 c 0,1.9903 -1.706,3.6963 -3.4121,3.6963 -1.9903,0 -3.6963,-1.706 -3.6963,-3.6963 0,-1.9904 1.706,-3.6964 3.6963,-3.6964 1.7061,0 3.4121,1.706 3.4121,3.6964 z"
   class="fil2 str1"
   id="_189408200" />
    <path
   d="m 86.9447,99.3101 c 0,1.9903 -1.706,3.6963 -3.6963,3.6963 -1.706,0 -3.412,-1.706 -3.412,-3.6963 0,-1.9904 1.706,-3.6964 3.412,-3.6964 1.9903,0 3.6963,1.706 3.6963,3.6964 z"
   class="fil2 str1"
   id="_189392432" />
    <path
   d="m 86.3761,99.3101 c 0,1.706 -1.4217,3.1277 -3.1277,3.1277 -1.706,0 -3.1277,-1.4217 -3.1277,-3.1277 0,-1.706 1.4217,-3.1277 3.1277,-3.1277 1.706,0 3.1277,1.4217 3.1277,3.1277 z"
   class="fil1 str1"
   id="_189418784" />
    <polygon
   points="66.4726,97.0354 71.875,99.8787 72.4436,99.5944 66.7569,97.0354 "
   class="fil5 str1"
   id="_189419432" />
    <polygon
   points="66.4726,104.712 71.875,99.8787 72.4436,99.5944 66.7569,104.428 "
   class="fil5 str1"
   id="_189419312" />
    <polyline
   points="66.4726,104.712 61.0702,101.869 66.1883,97.0354 "
   class="fil5 str1"
   id="_189418880" />
    <polygon
   points="62.2076,101.585 66.1883,97.8884 70.4533,100.163 66.1883,103.859 "
   class="fil7 str1"
   id="_189417440" />
    <polygon
   points="63.3449,101.3 65.3353,99.5944 67.6099,100.732 65.3353,102.438 "
   class="fil5 str1"
   id="_189409928" />
    <line
   y2="102.438"
   x2="65.335297"
   y1="103.859"
   x1="66.188301"
   class="fil5 str1"
   id="_189409040" />
    <line
   y2="101.3"
   x2="63.344898"
   y1="101.585"
   x1="62.2076"
   class="fil5 str1"
   id="_189407672" />
    <line
   y2="100.163"
   x2="70.4533"
   y1="100.732"
   x1="67.609901"
   class="fil5 str1"
   id="_189405512" />
    <line
   y2="97.888397"
   x2="66.188301"
   y1="99.594398"
   x1="65.335297"
   class="fil5 str1"
   id="_189404816" />
    <polygon
   points="143.527,97.0354 138.125,99.8787 137.556,99.5944 143.243,97.0354 "
   class="fil5 str1"
   id="_189402656" />
    <polygon
   points="143.527,104.712 138.125,99.8787 137.556,99.5944 143.243,104.428 "
   class="fil5 str1"
   id="_189402224" />
    <polyline
   points="143.527,104.712 148.93,101.869 143.812,97.0354 "
   class="fil5 str1"
   id="_189390776" />
    <polygon
   points="147.792,101.585 143.812,97.8884 139.547,100.163 143.812,103.859 "
   class="fil7 str1"
   id="_189389744" />
    <polygon
   points="146.655,101.3 144.665,99.5944 142.39,100.732 144.665,102.438 "
   class="fil5 str1"
   id="_189389336" />
    <line
   y2="102.438"
   x2="144.66499"
   y1="103.859"
   x1="143.812"
   class="fil5 str1"
   id="_189398504" />
    <line
   y2="101.3"
   x2="146.655"
   y1="101.585"
   x1="147.79201"
   class="fil5 str1"
   id="_189396968" />
    <line
   y2="100.163"
   x2="139.547"
   y1="100.732"
   x1="142.39"
   class="fil5 str1"
   id="_189390248" />
    <line
   y2="97.888397"
   x2="143.812"
   y1="99.594398"
   x1="144.66499"
   class="fil5 str1"
   id="_189395360" />
    <polygon
   points="109.976,95.3294 111.397,96.1824 112.251,97.3197 112.535,98.7414 112.251,100.163 111.397,101.585 109.976,102.438 108.554,102.722 101.446,102.722 100.024,102.438 98.6025,101.585 97.7495,100.163 97.4651,98.7414 97.7495,97.3197 98.6025,96.1824 100.024,95.3294 101.446,95.045 108.554,95.045 "
   class="fil0 str1"
   id="_189395288" />
    <polygon
   points="109.692,95.898 110.545,96.4667 111.397,97.6041 111.682,98.7414 111.397,100.163 110.545,101.016 109.692,101.869 108.27,102.153 101.73,102.153 100.309,101.869 99.4555,101.016 98.6025,100.163 98.3181,98.7414 98.6025,97.6041 99.4555,96.4667 100.309,95.898 101.73,95.6137 108.27,95.6137 "
   class="fil3 str1"
   id="_189396248" />
    <path
   d="m 49.4125,93.339 -0.853,1.706 0.5687,0.5687 0.5686,-1.9903 z m 111.175,0 v 0 l -0.2843,0.2844 0.5687,1.706 0.5686,-0.2844 z"
   class="fil2 str1"
   id="_189396944" />
    <polygon
   points="55.0992,54.6695 56.2365,54.9538 57.0895,55.5225 57.9426,56.3755 59.0799,58.6501 59.6486,60.6405 62.2076,59.7875 63.9136,59.7875 65.3353,60.0718 65.0509,61.4935 65.0509,62.3465 64.7666,63.7682 64.4823,65.4742 65.6196,65.7585 66.4726,66.3272 66.7569,66.6115 67.3256,66.8959 65.0509,68.3175 62.7763,69.4549 61.3546,70.5922 60.7859,71.4452 60.5016,72.2982 64.7666,71.7296 65.9039,70.3079 67.0413,68.6019 68.463,67.4645 69.6003,66.8959 70.7376,66.8959 70.7376,68.3175 70.7376,69.1705 70.169,70.0236 69.6003,70.5922 68.463,71.4452 67.8943,72.2982 67.6099,73.4356 68.7473,73.4356 70.4533,73.4356 73.581,73.4356 75.0027,73.4356 76.14,73.7199 76.993,73.7199 77.2773,74.0042 76.14,74.8572 75.5713,75.1416 74.434,75.9946 73.8653,76.8476 72.728,77.4163 71.875,77.7006 71.022,77.1319 70.4533,76.5633 69.6003,76.2789 68.7473,76.5633 68.7473,76.5633 69.316,77.1319 70.4533,77.4163 71.875,77.9849 73.2966,79.1223 73.8653,80.2596 73.8653,81.1126 73.8653,81.397 71.5906,81.6813 69.8846,81.397 68.7473,80.8283 67.6099,80.2596 68.7473,81.397 69.6003,82.25 70.7376,83.956 71.5906,85.3776 72.1593,86.2307 72.728,87.0837 72.1593,87.0837 69.0316,86.7993 66.7569,86.2307 64.4823,85.3776 62.2076,84.5246 62.2076,85.3776 61.6389,86.515 60.7859,87.6523 59.9329,88.7897 59.6486,88.7897 57.0895,83.103 56.8052,83.3873 56.5209,83.6716 55.9522,83.6716 53.1089,76.8476 52.2559,76.2789 51.6872,75.4259 51.6872,74.8572 51.4028,74.0042 51.9715,74.0042 52.2559,74.0042 52.8245,74.0042 51.6872,71.1609 51.4028,69.1705 52.2559,69.4549 52.5402,69.7392 52.8245,70.3079 53.3932,72.0139 53.9619,73.7199 55.3835,69.1705 52.8245,61.2092 54.2462,60.6405 54.2462,59.7875 54.2462,59.2188 54.5305,57.7971 54.5305,56.9441 54.5305,56.3755 53.6775,55.8068 52.5402,55.2381 53.6775,54.6695 "
   class="fil2 str1"
   id="_189388688" />
    <polygon
   points="54.8149,54.9538 55.9522,55.5225 57.0895,56.0911 58.2269,58.0815 58.7956,60.3562 61.6389,59.7875 63.0606,59.7875 64.4823,60.0718 63.9136,61.7778 63.9136,63.1995 63.9136,64.6212 63.0606,66.0429 64.4823,66.0429 65.0509,66.3272 65.6196,66.8959 66.1883,67.1802 65.0509,68.0332 63.6293,68.8862 61.3546,69.7392 59.9329,70.8766 59.3642,71.7296 59.0799,72.8669 61.0702,72.0139 62.2076,71.4452 63.0606,70.8766 63.6293,70.3079 64.1979,69.1705 64.7666,68.6019 65.3353,68.0332 67.6099,67.1802 70.169,66.8959 70.169,68.3175 69.8846,69.4549 69.6003,70.3079 69.0316,70.8766 67.6099,71.7296 67.0413,72.2982 66.4726,73.4356 68.463,72.8669 69.6003,72.2982 70.7376,71.4452 71.875,71.1609 73.0123,71.1609 74.434,72.0139 76.993,73.7199 75.8557,74.2886 75.0027,75.1416 73.8653,76.2789 72.728,77.1319 71.5906,77.4163 70.7376,77.4163 69.8846,76.8476 69.0316,76.8476 67.8943,77.1319 69.316,77.9849 71.022,78.5536 72.4436,79.4066 73.0123,80.2596 73.2966,81.397 71.875,81.6813 70.4533,81.6813 67.6099,80.8283 65.0509,79.9753 62.2076,79.4066 63.9136,79.9753 65.3353,80.2596 67.6099,81.397 68.7473,82.5343 69.6003,83.3873 70.169,84.5246 70.4533,85.3776 71.022,86.2307 72.1593,87.0837 70.169,87.0837 67.8943,86.7993 65.3353,86.2307 63.9136,85.662 62.2076,84.809 61.9232,85.662 61.0702,86.515 60.2172,87.6523 59.6486,88.7897 58.7956,87.0837 57.6582,85.3776 56.8052,83.3873 56.8052,81.9656 56.8052,80.5439 56.5209,81.1126 56.5209,82.25 56.5209,83.3873 56.2365,83.6716 55.6679,83.6716 54.8149,82.8186 54.2462,81.6813 53.9619,79.9753 53.9619,79.6909 53.6775,79.6909 53.3932,79.9753 53.1089,79.6909 52.8245,79.4066 51.9715,78.5536 50.8342,77.4163 50.8342,76.5633 50.8342,75.4259 51.1185,74.5729 51.4028,74.0042 51.9715,74.8572 52.8245,75.4259 52.2559,73.7199 51.4028,72.5826 51.4028,72.0139 51.1185,71.1609 51.4028,69.1705 51.9715,70.3079 52.2559,71.7296 52.8245,72.5826 53.9619,73.4356 53.6775,72.0139 53.3932,71.1609 52.2559,70.3079 51.9715,69.7392 51.6872,69.1705 51.6872,68.3175 52.2559,67.1802 52.2559,66.3272 52.2559,65.1899 52.2559,62.9152 52.2559,61.7778 52.5402,61.2092 52.8245,61.2092 53.3932,61.4935 53.3932,59.5032 53.6775,57.5128 53.3932,56.0911 53.1089,55.5225 52.2559,55.2381 53.6775,54.9538 "
   class="fil2 str1"
   id="_189397712" />
    <polyline
   points="55.6679,72.8669 55.3835,69.7392 55.0992,67.1802 55.3835,64.9055 55.3835,62.9152 55.6679,59.5032 55.6679,58.0815 55.0992,56.3755 "
   class="fil5 str2"
   id="_189397520" />
    <polyline
   points="61.3546,63.7682 59.0799,66.0429 57.6582,68.3175 56.8052,70.5922 56.5209,72.8669 "
   class="fil5 str2"
   id="_189389168" />
    <polyline
   points="60.2172,75.9946 63.3449,75.7103 66.1883,75.1416 68.7473,74.2886 72.1593,74.0042 "
   class="fil5 str2"
   id="_189398312" />
    <polyline
   points="59.9329,74.8572 62.2076,74.0042 63.9136,73.1512 65.0509,71.7296 65.9039,70.5922 "
   class="fil5 str2"
   id="_189389360" />
    <polyline
   points="60.2172,76.8476 62.4919,77.1319 64.7666,77.4163 66.4726,77.9849 67.6099,78.8379 "
   class="fil5 str2"
   id="_189389504" />
    <polyline
   points="58.7956,79.4066 59.9329,80.5439 61.0702,81.397 63.0606,82.5343 64.7666,83.103 66.7569,83.956 "
   class="fil5 str2"
   id="_189389552" />
    <polyline
   points="58.2269,79.1223 58.2269,81.1126 58.5112,82.5343 58.7956,83.956 59.3642,85.0933 "
   class="fil5 str2"
   id="_189400184" />
    <line
   y2="80.5439"
   x2="55.099201"
   y1="78.837898"
   x1="55.6679"
   class="fil5 str2"
   id="_189400328" />
    <polyline
   points="54.5305,77.1319 53.6775,77.4163 53.1089,77.1319 52.5402,77.1319 51.6872,77.1319 "
   class="fil5 str2"
   id="_189390704" />
    <polyline
   points="54.5305,74.8572 53.6775,74.5729 52.8245,73.7199 "
   class="fil5 str2"
   id="_189400832" />
    <polyline
   points="55.0992,73.4356 54.5305,69.4549 53.6775,67.1802 52.8245,64.6212 "
   class="fil5 str2"
   id="_189401480" />
    <polygon
   points="56.8052,79.4066 57.9426,79.4066 59.0799,79.1223 59.9329,78.2693 60.5016,77.1319 60.5016,75.7103 59.9329,74.2886 59.0799,73.4356 57.9426,72.5826 56.8052,72.5826 55.6679,72.8669 54.8149,73.7199 54.2462,75.1416 54.2462,76.2789 54.8149,77.7006 55.6679,78.8379 "
   class="fil2 str1"
   id="_189401624" />
    <polygon
   points="56.5209,79.6909 57.6582,79.6909 58.7956,79.4066 59.6486,78.5536 60.2172,77.4163 60.2172,75.9946 59.6486,74.5729 58.7956,73.4356 57.6582,72.8669 56.5209,72.8669 55.3835,73.1512 54.5305,74.0042 53.9619,75.1416 54.2462,76.5633 54.5305,77.7006 55.3835,78.8379 "
   class="fil2 str1"
   id="_189402008" />
    <polygon
   points="56.5209,79.1223 57.6582,79.1223 58.5112,78.8379 59.3642,78.2693 59.6486,77.1319 59.6486,75.9946 59.3642,74.8572 58.5112,74.0042 57.6582,73.4356 56.5209,73.1512 55.3835,73.7199 54.8149,74.2886 54.5305,75.4259 54.5305,76.5633 54.8149,77.7006 55.6679,78.5536 "
   class="fil1 str1"
   id="_189402152" />
    <polygon
   points="154.901,54.6695 153.763,54.9538 152.911,55.5225 152.058,56.3755 150.92,58.6501 150.351,60.6405 147.792,59.7875 146.086,59.7875 144.665,60.0718 144.949,61.4935 144.949,62.3465 145.233,63.7682 145.518,65.4742 144.38,65.7585 143.527,66.3272 143.243,66.6115 142.674,66.8959 144.949,68.3175 147.224,69.4549 148.645,70.5922 149.214,71.4452 149.499,72.2982 145.233,71.7296 144.096,70.3079 142.959,68.6019 141.537,67.4645 140.4,66.8959 139.262,66.8959 139.262,68.3175 139.262,69.1705 139.831,70.0236 140.4,70.5922 141.537,71.4452 142.106,72.2982 142.39,73.4356 141.253,73.4356 139.547,73.4356 136.419,73.4356 134.997,73.4356 133.86,73.7199 133.007,73.7199 132.723,74.0042 133.86,74.8572 134.429,75.1416 135.566,75.9946 136.135,76.8476 137.272,77.4163 138.125,77.7006 138.978,77.1319 139.547,76.5633 140.4,76.2789 141.253,76.5633 141.253,76.5633 140.684,77.1319 139.547,77.4163 138.125,77.9849 136.703,79.1223 136.135,80.2596 136.135,81.1126 136.135,81.397 138.409,81.6813 140.115,81.397 141.253,80.8283 142.39,80.2596 141.253,81.397 140.115,82.25 139.262,83.956 138.409,85.3776 137.841,86.2307 137.272,87.0837 137.841,87.0837 140.968,86.7993 143.243,86.2307 145.518,85.3776 147.792,84.5246 147.792,85.3776 148.361,86.515 149.214,87.6523 150.067,88.7897 150.351,88.7897 152.911,83.103 153.195,83.3873 153.479,83.6716 154.048,83.6716 156.891,76.8476 157.744,76.2789 158.313,75.4259 158.313,74.8572 158.597,74.0042 158.029,74.0042 157.744,74.0042 157.176,74.0042 158.313,71.1609 158.597,69.1705 157.744,69.4549 157.46,69.7392 157.176,70.3079 156.607,72.0139 156.038,73.7199 154.617,69.1705 157.176,61.2092 155.754,60.6405 155.754,59.7875 155.754,59.2188 155.47,57.7971 155.185,56.9441 155.47,56.3755 156.322,55.8068 157.46,55.2381 156.322,54.6695 "
   class="fil2 str1"
   id="_189402776" />
    <polygon
   points="155.185,54.9538 154.048,55.5225 152.911,56.0911 151.773,58.0815 151.205,60.3562 148.361,59.7875 146.939,59.7875 145.518,60.0718 146.086,61.7778 146.086,63.1995 146.086,64.6212 146.939,66.0429 145.518,66.0429 144.949,66.3272 144.38,66.8959 143.812,67.1802 144.949,68.0332 146.371,68.8862 148.645,69.7392 150.067,70.8766 150.636,71.7296 150.92,72.8669 148.93,72.0139 147.792,71.4452 146.939,70.8766 146.371,70.3079 145.802,69.1705 145.233,68.6019 144.665,68.0332 142.39,67.1802 139.831,66.8959 139.831,68.3175 140.115,69.4549 140.4,70.3079 140.968,70.8766 142.39,71.7296 142.959,72.2982 143.527,73.4356 141.537,72.8669 140.4,72.2982 139.262,71.4452 138.125,71.1609 136.988,71.1609 135.566,72.0139 132.723,73.7199 134.144,74.2886 134.997,75.1416 136.135,76.2789 137.272,77.1319 138.409,77.4163 139.262,77.4163 140.115,76.8476 140.968,76.8476 142.106,77.1319 140.684,77.9849 138.978,78.5536 137.556,79.4066 136.988,80.2596 136.703,81.397 138.125,81.6813 139.547,81.6813 142.39,80.8283 144.949,79.9753 147.792,79.4066 146.086,79.9753 144.665,80.2596 142.39,81.397 141.253,82.5343 140.4,83.3873 139.831,84.5246 139.547,85.3776 138.978,86.2307 137.841,87.0837 139.831,87.0837 142.106,86.7993 144.665,86.2307 146.086,85.662 147.792,84.809 148.077,85.662 148.93,86.515 149.783,87.6523 150.351,88.7897 151.205,87.0837 152.342,85.3776 153.195,83.3873 153.195,81.9656 153.195,80.5439 153.479,81.1126 153.479,82.25 153.479,83.3873 153.763,83.6716 154.332,83.6716 155.185,82.8186 155.754,81.6813 156.038,79.9753 156.038,79.6909 156.322,79.6909 156.607,79.9753 156.607,79.6909 157.176,79.4066 158.029,78.5536 159.166,77.4163 159.166,76.5633 159.166,75.4259 158.882,74.5729 158.597,74.0042 158.029,74.8572 157.176,75.4259 157.744,73.7199 158.313,72.5826 158.597,72.0139 158.597,71.1609 158.597,69.1705 158.029,70.3079 157.744,71.7296 157.176,72.5826 156.038,73.4356 156.322,72.0139 156.607,71.1609 157.744,70.3079 158.029,69.7392 158.313,69.1705 158.313,68.3175 157.744,67.1802 157.744,66.3272 157.744,65.1899 157.744,62.9152 157.744,61.7778 157.46,61.2092 157.176,61.2092 156.607,61.4935 156.607,59.5032 156.322,57.5128 156.607,56.0911 156.891,55.5225 157.744,55.2381 156.322,54.9538 "
   class="fil2 str1"
   id="_189402920" />
    <polyline
   points="154.332,72.8669 154.617,69.7392 154.901,67.1802 154.617,64.9055 154.617,62.9152 154.332,59.5032 154.332,58.0815 154.901,56.3755 "
   class="fil5 str2"
   id="_189403352" />
    <polyline
   points="148.645,63.7682 150.92,66.0429 152.342,68.3175 153.195,70.5922 153.479,72.8669 "
   class="fil5 str2"
   id="_189403568" />
    <polyline
   points="149.783,75.9946 146.655,75.7103 143.812,75.1416 141.253,74.2886 137.841,74.0042 "
   class="fil5 str2"
   id="_189404576" />
    <polyline
   points="150.067,74.8572 147.792,74.0042 146.086,73.1512 144.949,71.7296 144.096,70.5922 "
   class="fil5 str2"
   id="_189404792" />
    <polyline
   points="149.783,76.8476 147.508,77.1319 145.233,77.4163 143.527,77.9849 142.39,78.8379 "
   class="fil5 str2"
   id="_189405296" />
    <polyline
   points="151.205,79.4066 150.067,80.5439 148.93,81.397 146.939,82.5343 145.233,83.103 143.243,83.956 "
   class="fil5 str2"
   id="_189405560" />
    <polyline
   points="151.773,79.1223 151.773,81.1126 151.489,82.5343 151.205,83.956 150.636,85.0933 "
   class="fil5 str2"
   id="_189406424" />
    <line
   y2="80.5439"
   x2="154.901"
   y1="78.837898"
   x1="154.332"
   class="fil5 str2"
   id="_189406640" />
    <polyline
   points="155.47,77.1319 156.322,77.4163 156.891,77.1319 157.46,77.1319 158.313,77.1319 "
   class="fil5 str2"
   id="_189407648" />
    <polyline
   points="155.47,74.8572 156.322,74.5729 157.176,73.7199 "
   class="fil5 str2"
   id="_189416912" />
    <polyline
   points="154.901,73.4356 155.47,69.4549 156.038,67.1802 157.176,64.6212 "
   class="fil5 str2"
   id="_189407864" />
    <polygon
   points="153.195,79.4066 152.058,79.4066 150.92,79.1223 150.067,78.2693 149.499,77.1319 149.499,75.7103 150.067,74.2886 150.92,73.4356 152.058,72.5826 153.195,72.5826 154.332,72.8669 155.185,73.7199 155.754,75.1416 155.754,76.2789 155.185,77.7006 154.332,78.8379 "
   class="fil2 str1"
   id="_189408056" />
    <polygon
   points="153.479,79.6909 152.342,79.6909 151.205,79.4066 150.351,78.5536 149.783,77.4163 149.783,75.9946 150.351,74.5729 151.205,73.4356 152.342,72.8669 153.479,72.8669 154.617,73.1512 155.47,74.0042 156.038,75.1416 155.754,76.5633 155.47,77.7006 154.617,78.8379 "
   class="fil2 str1"
   id="_189408368" />
    <polygon
   points="153.479,79.1223 152.342,79.1223 151.489,78.8379 150.636,78.2693 150.351,77.1319 150.351,75.9946 150.636,74.8572 151.489,74.0042 152.342,73.4356 153.479,73.1512 154.332,73.7199 155.185,74.2886 155.47,75.4259 155.47,76.5633 155.185,77.7006 154.332,78.5536 "
   class="fil1 str1"
   id="_189408224" />
    <polyline
   points="80.1207,79.1223 81.258,79.1223 82.6797,78.8379 "
   class="fil5 str2"
   id="_189404528" />
    <polyline
   points="130.164,79.1223 128.742,79.1223 127.32,78.8379 "
   class="fil5 str2"
   id="_189396536" />
    <polyline
   points="162.862,83.6716 161.725,83.3873 160.588,82.5343 "
   class="fil5 str2"
   id="_189417512" />
    <polyline
   points="47.1378,83.6716 48.2752,83.3873 49.4125,82.5343 "
   class="fil5 str2"
   id="_189417656" />
    <polygon
   points="51.1185,109.546 49.9812,109.262 48.8438,108.125 48.2752,106.987 47.9908,105.565 48.2752,104.428 49.1282,103.291 49.9812,102.722 49.9812,102.722 52.5402,109.546 52.2559,109.546 "
   class="fil3 str1"
   id="_189393464" />
    <polygon
   points="51.9715,110.115 52.8245,109.831 51.6872,105.565 51.1185,103.575 50.2655,101.869 49.4125,102.153 "
   class="fil0 str1"
   id="_189395840" />
    <polygon
   points="56.2365,100.163 57.0895,101.3 57.3739,102.438 57.6582,104.144 57.9426,105.281 57.6582,106.134 57.0895,106.703 57.0895,106.703 57.0895,106.703 55.6679,107.271 55.0992,104.997 54.5305,103.291 53.9619,101.585 53.3932,99.3101 55.0992,99.0257 55.6679,99.3101 "
   class="fil2 str1"
   id="_189418808" />
    <polygon
   points="54.2462,106.418 55.0992,106.987 55.6679,107.271 56.2365,106.703 56.5209,105.85 56.5209,104.428 56.2365,103.006 55.6679,101.3 55.0992,100.163 54.2462,99.5944 53.3932,99.3101 53.1089,99.8787 52.8245,100.732 52.8245,102.153 53.1089,103.575 53.6775,105.281 "
   class="fil2 str1"
   id="_189419120" />
    <polygon
   points="52.2559,101.869 51.9715,102.722 52.2559,103.859 52.5402,104.997 53.3932,106.134 54.2462,106.703 55.3835,106.987 55.9522,106.418 56.2365,105.281 55.9522,103.006 55.3835,101.585 54.8149,100.732 54.2462,100.163 53.3932,99.8787 52.5402,100.732 "
   class="fil1 str1"
   id="_189405968" />
    <polygon
   points="158.882,109.546 160.019,109.262 161.156,108.125 161.725,106.987 162.009,105.565 161.725,104.428 160.872,103.291 160.019,102.722 159.735,102.722 157.46,109.546 157.744,109.546 "
   class="fil3 str1"
   id="_189402536" />
    <polygon
   points="158.029,110.115 157.176,109.831 158.313,105.565 158.882,103.575 159.735,101.869 160.588,102.153 "
   class="fil0 str1"
   id="_189392336" />
    <polygon
   points="153.763,100.163 152.911,101.3 152.626,102.438 152.342,104.144 152.058,105.281 152.342,106.134 152.911,106.703 152.911,106.703 152.911,106.703 154.332,107.271 154.901,104.997 155.47,103.291 156.038,101.585 156.607,99.3101 154.901,99.0257 154.332,99.3101 "
   class="fil2 str1"
   id="_189393224" />
    <polygon
   points="155.754,106.418 154.901,106.987 154.332,107.271 153.763,106.703 153.479,105.85 153.479,104.428 153.763,103.006 154.332,101.3 154.901,100.163 155.754,99.5944 156.322,99.3101 156.891,99.8787 157.176,100.732 157.176,102.153 156.891,103.575 156.322,105.281 "
   class="fil2 str1"
   id="_189418688" />
    <polygon
   points="157.744,101.869 158.029,102.722 157.744,103.859 157.46,104.997 156.607,106.134 155.754,106.703 154.332,106.987 154.048,106.418 153.763,105.281 154.048,103.006 154.617,101.585 155.185,100.732 155.754,100.163 156.607,99.8787 157.46,100.732 "
   class="fil1 str1"
   id="_189418256" />
    <polygon
   points="57.0895,111.536 57.9426,111.252 58.7956,110.968 60.2172,110.684 61.9232,110.115 64.1979,109.831 66.7569,109.262 69.6003,108.693 73.0123,108.409 76.993,107.84 81.5424,107.556 86.3761,107.271 92.0628,106.987 98.3181,106.703 105.142,106.703 111.682,106.703 117.937,106.987 123.624,107.271 128.458,107.556 133.007,107.84 136.988,108.409 140.4,108.693 143.243,109.262 145.802,109.831 148.077,110.115 149.783,110.684 151.205,110.968 152.058,111.252 152.911,111.536 153.195,111.821 153.195,111.821 152.911,112.105 152.342,112.39 151.205,112.674 150.067,112.958 148.361,113.527 146.371,113.811 144.096,114.38 140.968,114.664 137.556,115.233 133.576,115.802 129.311,116.086 124.193,116.37 118.506,116.655 111.966,116.655 105.142,116.939 98.0338,116.655 91.4941,116.655 85.8074,116.37 80.6894,116.086 76.14,115.802 72.1593,115.233 68.7473,114.664 65.9039,114.38 63.6293,113.811 61.6389,113.527 59.9329,112.958 58.5112,112.674 57.6582,112.39 57.0895,112.105 56.5209,111.821 56.8052,111.821 "
   class="fil8 str1"
   id="_189417080" />
    <line
   y2="106.134"
   x2="92.631401"
   y1="117.792"
   x1="92.631401"
   class="fil5 str2"
   id="_189408464" />
    <line
   y2="106.134"
   x2="90.356796"
   y1="117.792"
   x1="90.356796"
   class="fil5 str1"
   id="_189407384" />
    <line
   y2="106.134"
   x2="88.366402"
   y1="117.792"
   x1="88.366402"
   class="fil5 str1"
   id="_189406736" />
    <line
   y2="106.134"
   x2="86.376099"
   y1="117.792"
   x1="86.376099"
   class="fil5 str1"
   id="_189403448" />
    <line
   y2="106.134"
   x2="84.385696"
   y1="117.792"
   x1="84.385696"
   class="fil5 str3"
   id="_189402848" />
    <line
   y2="106.418"
   x2="80.973701"
   y1="116.939"
   x1="80.973701"
   class="fil5 str3"
   id="_189401696" />
    <line
   y2="106.134"
   x2="82.679703"
   y1="117.223"
   x1="82.679703"
   class="fil5 str3"
   id="_189401240" />
    <line
   y2="106.703"
   x2="77.561699"
   y1="116.655"
   x1="77.561699"
   class="fil5 str3"
   id="_189399368" />
    <line
   y2="106.418"
   x2="79.2677"
   y1="116.939"
   x1="79.2677"
   class="fil5 str3"
   id="_189399008" />
    <line
   y2="107.271"
   x2="73.2966"
   y1="116.086"
   x1="73.2966"
   class="fil5 str3"
   id="_189389000" />
    <line
   y2="107.271"
   x2="74.7183"
   y1="116.086"
   x1="74.7183"
   class="fil5 str3"
   id="_189397328" />
    <line
   y2="106.987"
   x2="76.139999"
   y1="116.37"
   x1="76.139999"
   class="fil5 str3"
   id="_189397256" />
    <line
   y2="107.556"
   x2="71.875"
   y1="115.802"
   x1="71.875"
   class="fil5 str4"
   id="_189398648" />
    <line
   y2="107.84"
   x2="70.4533"
   y1="115.517"
   x1="70.4533"
   class="fil5 str4"
   id="_189401936" />
    <line
   y2="108.125"
   x2="68.747299"
   y1="115.233"
   x1="68.747299"
   class="fil5 str4"
   id="_189403304" />
    <line
   y2="108.977"
   x2="65.619598"
   y1="114.664"
   x1="65.619598"
   class="fil5 str4"
   id="_189417728" />
    <line
   y2="108.409"
   x2="67.3256"
   y1="114.949"
   x1="67.3256"
   class="fil5 str4"
   id="_189419024" />
    <line
   y2="109.262"
   x2="63.913601"
   y1="114.096"
   x1="63.913601"
   class="fil5 str4"
   id="_189395864" />
    <line
   y2="109.546"
   x2="62.491901"
   y1="113.811"
   x1="62.491901"
   class="fil5 str5"
   id="_189387464" />
    <line
   y2="109.831"
   x2="61.070202"
   y1="113.243"
   x1="61.070202"
   class="fil5 str5"
   id="_189394424" />
    <line
   y2="110.399"
   x2="59.364201"
   y1="112.958"
   x1="59.364201"
   class="fil5 str5"
   id="_189391592" />
    <line
   y2="111.252"
   x2="57.658199"
   y1="112.39"
   x1="57.658199"
   class="fil5 str6"
   id="_189406880" />
    <line
   y2="106.418"
   x2="101.446"
   y1="116.939"
   x1="101.446"
   class="fil5 str2"
   id="_189404888" />
    <line
   y2="106.134"
   x2="97.749496"
   y1="117.507"
   x1="97.749496"
   class="fil5 str2"
   id="_189410072" />
    <line
   y2="106.134"
   x2="94.906097"
   y1="117.507"
   x1="94.906097"
   class="fil5 str2"
   id="_189400304" />
    <line
   y2="106.134"
   x2="117.369"
   y1="117.792"
   x1="117.369"
   class="fil5 str2"
   id="_189395768" />
    <line
   y2="106.134"
   x2="119.643"
   y1="117.792"
   x1="119.643"
   class="fil5 str1"
   id="_189388760" />
    <line
   y2="106.134"
   x2="121.634"
   y1="117.792"
   x1="121.634"
   class="fil5 str1"
   id="_189396464" />
    <line
   y2="106.134"
   x2="123.624"
   y1="117.792"
   x1="123.624"
   class="fil5 str1"
   id="_189408080" />
    <line
   y2="106.134"
   x2="125.614"
   y1="117.792"
   x1="125.614"
   class="fil5 str3"
   id="_189405848" />
    <line
   y2="106.418"
   x2="129.026"
   y1="116.939"
   x1="129.026"
   class="fil5 str3"
   id="_189393296" />
    <line
   y2="106.134"
   x2="127.32"
   y1="117.223"
   x1="127.32"
   class="fil5 str3"
   id="_189393752" />
    <line
   y2="106.703"
   x2="132.438"
   y1="116.655"
   x1="132.438"
   class="fil5 str3"
   id="_189417296" />
    <line
   y2="106.418"
   x2="130.73199"
   y1="116.939"
   x1="130.73199"
   class="fil5 str3"
   id="_189403952" />
    <line
   y2="107.271"
   x2="136.703"
   y1="116.086"
   x1="136.703"
   class="fil5 str3"
   id="_189388664" />
    <line
   y2="107.271"
   x2="135.282"
   y1="116.086"
   x1="135.282"
   class="fil5 str3"
   id="_189397160" />
    <line
   y2="106.987"
   x2="133.86"
   y1="116.37"
   x1="133.86"
   class="fil5 str3"
   id="_189399512" />
    <line
   y2="107.556"
   x2="138.125"
   y1="115.802"
   x1="138.125"
   class="fil5 str4"
   id="_189401096" />
    <line
   y2="107.84"
   x2="139.547"
   y1="115.517"
   x1="139.547"
   class="fil5 str4"
   id="_189403664" />
    <line
   y2="108.125"
   x2="141.25301"
   y1="115.233"
   x1="141.25301"
   class="fil5 str4"
   id="_189406520" />
    <line
   y2="108.977"
   x2="144.38"
   y1="114.664"
   x1="144.38"
   class="fil5 str4"
   id="_189416744" />
    <line
   y2="108.409"
   x2="142.674"
   y1="114.949"
   x1="142.674"
   class="fil5 str4"
   id="_189418112" />
    <line
   y2="109.262"
   x2="146.086"
   y1="114.096"
   x1="146.086"
   class="fil5 str4"
   id="_189392048" />
    <line
   y2="109.546"
   x2="147.508"
   y1="113.811"
   x1="147.508"
   class="fil5 str5"
   id="_189402752" />
    <line
   y2="109.831"
   x2="148.92999"
   y1="113.243"
   x1="148.92999"
   class="fil5 str5"
   id="_189395696" />
    <line
   y2="110.399"
   x2="150.636"
   y1="112.958"
   x1="150.636"
   class="fil5 str5"
   id="_189418232" />
    <line
   y2="111.252"
   x2="152.342"
   y1="112.39"
   x1="152.342"
   class="fil5 str6"
   id="_189396392" />
    <line
   y2="106.418"
   x2="108.554"
   y1="116.939"
   x1="108.554"
   class="fil5 str2"
   id="_189416360" />
    <line
   y2="106.134"
   x2="112.251"
   y1="117.507"
   x1="112.251"
   class="fil5 str2"
   id="_189387728" />
    <line
   y2="106.134"
   x2="115.094"
   y1="117.507"
   x1="115.094"
   class="fil5 str2"
   id="_189408944" />
    <path
   d="m 104.858,103.291 -10.8047,0.2843 -11.0891,0.2843 -11.089,0.853 -10.8048,1.706 -2.8433,0.853 -2.559,0.8531 -2.2747,1.1373 -0.853,0.853 -0.5687,1.1373 v 1.1374 l 0.2844,0.853 1.4216,1.4217 1.9904,0.853 1.706,0.853 8.2457,1.706 8.5301,1.1373 8.2457,0.5687 8.53,0.2843 13.0794,0.2844 13.0795,-0.2844 13.0794,-0.5686 13.0794,-1.1374 3.6963,-0.853 3.6964,-0.5687 3.412,-1.1373 3.1277,-1.9903 0.5687,-0.8531 0.2843,-0.853 v -0.853 l -0.2843,-0.853 -1.4217,-1.4216 -1.9904,-0.853 -6.824,-1.9904 -6.824,-1.1373 -7.1084,-0.5687 -7.1084,-0.5687 -10.8047,-0.2843 z m 0.2844,3.412 h 6.5397 l 6.2554,0.2843 5.6867,0.2843 4.8337,0.2844 4.5493,0.2843 3.9807,0.5687 3.412,0.2843 2.8434,0.5687 2.559,0.5687 2.2747,0.2843 1.706,0.5687 1.4217,0.2843 0.853,0.2843 0.853,0.2844 0.2843,0.2843 v 0 l -0.2843,0.2843 -0.5687,0.2844 -1.1373,0.2843 -1.1374,0.2843 -1.706,0.5687 -1.9903,0.2844 -2.2747,0.5686 -3.1277,0.2844 -3.412,0.5686 -3.9807,0.5687 -4.265,0.2843 -5.1181,0.2844 -5.6867,0.2843 h -6.5397 l -6.824,0.2843 -7.1084,-0.2843 h -6.5397 l -5.6867,-0.2843 -5.118,-0.2844 -4.5494,-0.2843 -3.9807,-0.5687 -3.412,-0.5686 -2.8434,-0.2844 -2.2746,-0.5686 -1.9904,-0.2844 -1.706,-0.5687 -1.1373,-0.2843 -1.1374,-0.2843 -0.5687,-0.2844 -0.2843,-0.2843 v 0 l 0.2843,-0.2843 0.8531,-0.2844 0.853,-0.2843 1.4216,-0.2843 1.706,-0.5687 2.2747,-0.2843 2.559,-0.5687 2.8434,-0.5687 3.412,-0.2843 3.9807,-0.5687 4.5494,-0.2843 4.8337,-0.2844 5.6867,-0.2843 6.2553,-0.2843 z"
   class="fil2 str1"
   id="_189407504" />
   </g>
   <polygon
   points="34.3427,216.741 34.9114,222.427 35.7644,228.114 37.4704,233.801 39.1764,238.919 41.4511,244.321 44.2945,249.155 47.4222,253.988 50.8342,258.538 54.5305,262.518 58.7956,266.499 63.3449,270.196 67.8943,273.323 72.728,276.166 78.1303,278.441 83.2484,280.432 88.9351,281.853 94.0531,282.991 99.4555,283.559 104.574,283.559 109.976,283.559 115.094,282.991 120.496,281.853 125.614,280.432 130.448,278.726 135.282,276.735 140.115,274.176 144.665,271.333 148.93,268.205 152.911,264.793 156.607,261.097 160.019,256.832 163.147,252.567 166.274,247.449 169.118,242.046 171.108,236.36 172.814,230.673 174.236,224.702 174.804,218.731 175.373,212.76 175.089,206.504 175.089,114.664 34.3427,114.664 34.3427,165.56 "
   class="fil2"
   id="_189387608" />
   <polyline
   points="34.3427,114.668 34.3427,165.564 34.3427,216.745 34.9114,222.431 35.7644,228.118 37.4704,233.805 39.1764,238.923 41.4511,244.325 44.2945,249.159 47.4222,253.993 50.8342,258.542 54.5305,262.523 58.7956,266.503 63.3449,270.2 67.8943,273.327 72.728,276.171 78.1303,278.445 83.2484,280.436 88.9351,281.857 94.0531,282.995 99.4555,283.563 104.574,283.563 109.976,283.563 115.094,282.995 120.496,281.857 125.614,280.436 130.448,278.73 135.282,276.739 140.115,274.18 144.665,271.337 148.93,268.209 152.911,264.797 156.607,261.101 160.019,256.836 163.147,252.571 166.274,247.453 169.118,242.051 171.108,236.364 172.814,230.677 174.236,224.706 174.804,218.735 175.373,212.764 175.089,206.509 175.089,114.668 34.3427,114.668 34.3427,114.668 "
   class="fil5 str4"
   id="_189405008" />
   <path
   d="m 175.089,179.804 c -3.064,1.2474 -6.5282,2.0989 -9.6674,1.4246 l -1.9903,-0.5686 -1.706,-0.5687 -1.7061,-0.853 -1.706,-0.853 -1.9903,-0.5687 -1.9904,-0.5686 -1.9903,-0.2844 -2.2747,0.2844 -1.9903,0.5686 -1.9904,0.5687 -1.706,0.853 -1.9903,0.853 -1.9904,0.5687 -1.9903,0.5686 -2.2747,0.2844 -1.9903,-0.2844 -2.2747,-0.5686 -1.706,-0.5687 -1.9904,-0.853 -1.9903,-0.853 -1.9904,-0.5687 -1.9903,-0.5686 -2.2747,-0.2844 -1.9903,0.2844 -1.9904,0.5686 -1.9903,0.5687 -1.9904,0.853 -1.9903,0.853 -1.706,0.5687 -2.2747,0.5686 -1.9904,0.2844 -2.2746,-0.2844 -1.9904,-0.5686 -3.6963,-1.4217 -1.9904,-0.853 -1.9903,-0.5687 -1.9904,-0.5686 -2.2747,-0.2844 -2.2746,0.2844 -1.9904,0.5686 -1.9903,0.5687 -1.9904,0.853 -1.706,0.853 -1.9903,0.5687 -1.9904,0.5686 -2.2747,0.2844 -2.2746,-0.2844 -1.9904,-0.5686 -1.9903,-0.5687 -1.706,-0.853 -1.9904,-0.853 -1.9903,-0.5687 -1.9904,-0.5686 -2.2747,-0.2844 -1.9903,0.2844 -1.9904,0.5686 -1.706,0.5687 -1.706,0.853 -1.706,0.853 -1.9903,0.5687 c -3.1246,1.168 -6.655,1.0305 -9.9518,-0.4124 v 6.73 c 3.9232,1.3609 9.3229,1.3714 13.6481,-0.9153 l 1.706,-0.853 1.706,-0.853 1.9904,-0.2843 1.9903,-0.2843 2.2747,0.2843 1.9904,0.2843 1.9903,0.853 1.9904,0.853 1.706,0.853 1.9903,0.5687 1.9904,0.5687 2.2746,0.2843 2.2747,-0.2843 1.9904,-0.5687 1.9903,-0.5687 1.706,-0.853 1.9904,-0.853 1.9903,-0.853 1.9904,-0.2843 2.2746,-0.2843 2.2747,0.2843 1.9904,0.2843 1.9903,0.853 1.706,0.853 1.9904,0.853 1.9903,0.5687 1.9904,0.5687 2.2746,0.2843 1.9904,-0.2843 2.2747,-0.5687 1.706,-0.5687 1.9903,-0.853 1.9904,-0.853 1.9903,-0.853 1.9904,-0.2843 1.9903,-0.2843 2.2747,0.2843 1.9903,0.2843 1.9904,0.853 1.9903,0.853 1.9904,0.853 1.706,0.5687 2.2747,0.5687 1.9903,0.2843 2.2747,-0.2843 1.9903,-0.5687 1.9904,-0.5687 1.9903,-0.853 1.706,-0.853 1.9904,-0.853 1.9903,-0.2843 2.2747,-0.2843 2.559,0.2843 1.9904,0.2843 1.9903,0.853 1.4217,0.853 1.706,0.853 c 4.2237,1.6841 9.4704,1.1412 13.0728,-0.2683 z"
   class="fil1 str7"
   id="_189417152" />
   <path
   d="m 175.082,216.896 v -30.2489 c -3.6024,1.4095 -8.8491,1.9524 -13.0728,0.2683 l -1.706,-0.853 -1.4217,-0.853 -1.9903,-0.853 -1.9904,-0.2843 -2.559,-0.2843 -2.2747,0.2843 -1.9903,0.2843 -1.9904,0.853 -1.706,0.853 -1.9903,0.853 -1.9904,0.5687 -1.9903,0.5687 -2.2747,0.2843 -1.9903,-0.2843 -2.2747,-0.5687 -1.706,-0.5687 -1.9904,-0.853 -1.9903,-0.853 -1.9904,-0.853 -1.9903,-0.2843 -2.2747,-0.2843 -1.9903,0.2843 -1.9904,0.2843 -1.9903,0.853 -1.9904,0.853 -1.9903,0.853 -1.706,0.5687 -2.2747,0.5687 -1.9904,0.2843 -2.2746,-0.2843 -1.9904,-0.5687 -1.9903,-0.5687 -1.9904,-0.853 -1.706,-0.853 -1.9903,-0.853 -1.9904,-0.2843 -2.2747,-0.2843 -2.2746,0.2843 -1.9904,0.2843 -1.9903,0.853 -1.9904,0.853 -1.706,0.853 -1.9903,0.5687 -1.9904,0.5687 -2.2747,0.2843 -2.2746,-0.2843 -1.9904,-0.5687 -1.9903,-0.5687 -1.706,-0.853 -1.9904,-0.853 -1.9903,-0.853 -1.9904,-0.2843 -2.2747,-0.2843 -1.9903,0.2843 -1.9904,0.2843 -1.706,0.853 -1.706,0.853 c -4.3252,2.2867 -9.7249,2.2762 -13.6481,0.9153 v 29.7625 c 8.5588,33.0985 28.5105,56.8148 65.1128,66.8187 h 10.5204 C 142.6752,273.16 164.3772,250.939 175.082,216.896 Z"
   class="fil4 str7"
   id="_189403136" />
   <path
   d="m 175.089,193.904 c -3.064,1.2474 -6.5282,2.0989 -9.6674,1.4246 l -1.9903,-0.5686 -1.706,-0.5687 -1.7061,-0.853 -1.706,-0.853 -1.9903,-0.5687 -1.9904,-0.5686 -1.9903,-0.2844 -2.2747,0.2844 -1.9903,0.5686 -1.9904,0.5687 -1.706,0.853 -1.9903,0.853 -1.9904,0.5687 -1.9903,0.5686 -2.2747,0.2844 -1.9903,-0.2844 -2.2747,-0.5686 -1.706,-0.5687 -1.9904,-0.853 -1.9903,-0.853 -1.9904,-0.5687 -1.9903,-0.5686 -2.2747,-0.2844 -1.9903,0.2844 -1.9904,0.5686 -1.9903,0.5687 -1.9904,0.853 -1.9903,0.853 -1.706,0.5687 -2.2747,0.5686 -1.9904,0.2844 -2.2746,-0.2844 -1.9904,-0.5686 -3.6963,-1.4217 -1.9904,-0.853 -1.9903,-0.5687 -1.9904,-0.5686 -2.2747,-0.2844 -2.2746,0.2844 -1.9904,0.5686 -1.9903,0.5687 -1.9904,0.853 -1.706,0.853 -1.9903,0.5687 -1.9904,0.5686 -2.2747,0.2844 -2.2746,-0.2844 -1.9904,-0.5686 -1.9903,-0.5687 -1.706,-0.853 -1.9904,-0.853 -1.9903,-0.5687 -1.9904,-0.5686 -2.2747,-0.2844 -1.9903,0.2844 -1.9904,0.5686 -1.706,0.5687 -1.706,0.853 -1.706,0.853 -1.9903,0.5687 c -3.1246,1.168 -6.655,1.0305 -9.9518,-0.4124 v 6.73 c 3.9232,1.3609 9.3229,1.3714 13.6481,-0.9153 l 1.706,-0.853 1.706,-0.853 1.9904,-0.2843 1.9903,-0.2843 2.2747,0.2843 1.9904,0.2843 1.9903,0.853 1.9904,0.853 1.706,0.853 1.9903,0.5687 1.9904,0.5687 2.2746,0.2843 2.2747,-0.2843 1.9904,-0.5687 1.9903,-0.5687 1.706,-0.853 1.9904,-0.853 1.9903,-0.853 1.9904,-0.2843 2.2746,-0.2843 2.2747,0.2843 1.9904,0.2843 1.9903,0.853 1.706,0.853 1.9904,0.853 1.9903,0.5687 1.9904,0.5687 2.2746,0.2843 1.9904,-0.2843 2.2747,-0.5687 1.706,-0.5687 1.9903,-0.853 1.9904,-0.853 1.9903,-0.853 1.9904,-0.2843 1.9903,-0.2843 2.2747,0.2843 1.9903,0.2843 1.9904,0.853 1.9903,0.853 1.9904,0.853 1.706,0.5687 2.2747,0.5687 1.9903,0.2843 2.2747,-0.2843 1.9903,-0.5687 1.9904,-0.5687 1.9903,-0.853 1.706,-0.853 1.9904,-0.853 1.9903,-0.2843 2.2747,-0.2843 2.559,0.2843 1.9904,0.2843 1.9903,0.853 1.4217,0.853 1.706,0.853 c 4.2237,1.6841 9.4704,1.1412 13.0728,-0.2683 z"
   class="fil1 str7"
   id="_189402296" />
   <path
   d="m 175.089,206.504 c -3.064,1.2474 -6.5282,2.0989 -9.6674,1.4246 l -1.9903,-0.5686 -1.706,-0.5687 -1.7061,-0.853 -1.706,-0.853 -1.9903,-0.5687 -1.9904,-0.5686 -1.9903,-0.2844 -2.2747,0.2844 -1.9903,0.5686 -1.9904,0.5687 -1.706,0.853 -1.9903,0.853 -1.9904,0.5687 -1.9903,0.5686 -2.2747,0.2844 -1.9903,-0.2844 -2.2747,-0.5686 -1.706,-0.5687 -1.9904,-0.853 -1.9903,-0.853 -1.9904,-0.5687 -1.9903,-0.5686 -2.2747,-0.2844 -1.9903,0.2844 -1.9904,0.5686 -1.9903,0.5687 -1.9904,0.853 -1.9903,0.853 -1.706,0.5687 -2.2747,0.5686 -1.9904,0.2844 -2.2746,-0.2844 -1.9904,-0.5686 -3.6963,-1.4217 -1.9904,-0.853 -1.9903,-0.5687 -1.9904,-0.5686 -2.2747,-0.2844 -2.2746,0.2844 -1.9904,0.5686 -1.9903,0.5687 -1.9904,0.853 -1.706,0.853 -1.9903,0.5687 -1.9904,0.5686 -2.2747,0.2844 -2.2746,-0.2844 -1.9904,-0.5686 -1.9903,-0.5687 -1.706,-0.853 -1.9904,-0.853 -1.9903,-0.5687 -1.9904,-0.5686 -2.2747,-0.2844 -1.9903,0.2844 -1.9904,0.5686 -1.706,0.5687 -1.706,0.853 -1.706,0.853 -1.9903,0.5687 c -3.1246,1.168 -6.655,1.0305 -9.9518,-0.4124 v 6.73 c 3.9232,1.3609 9.3229,1.3714 13.6481,-0.9153 l 1.706,-0.853 1.706,-0.853 1.9904,-0.2843 1.9903,-0.2843 2.2747,0.2843 1.9904,0.2843 1.9903,0.853 1.9904,0.853 1.706,0.853 1.9903,0.5687 1.9904,0.5687 2.2746,0.2843 2.2747,-0.2843 1.9904,-0.5687 1.9903,-0.5687 1.706,-0.853 1.9904,-0.853 1.9903,-0.853 1.9904,-0.2843 2.2746,-0.2843 2.2747,0.2843 1.9904,0.2843 1.9903,0.853 1.706,0.853 1.9904,0.853 1.9903,0.5687 1.9904,0.5687 2.2746,0.2843 1.9904,-0.2843 2.2747,-0.5687 1.706,-0.5687 1.9903,-0.853 1.9904,-0.853 1.9903,-0.853 1.9904,-0.2843 1.9903,-0.2843 2.2747,0.2843 1.9903,0.2843 1.9904,0.853 1.9903,0.853 1.9904,0.853 1.706,0.5687 2.2747,0.5687 1.9903,0.2843 2.2747,-0.2843 1.9903,-0.5687 1.9904,-0.5687 1.9903,-0.853 1.706,-0.853 1.9904,-0.853 1.9903,-0.2843 2.2747,-0.2843 2.559,0.2843 1.9904,0.2843 1.9903,0.853 1.4217,0.853 1.706,0.853 c 4.2237,1.6841 9.7114,1.0767 13.3138,-0.3328 z"
   class="fil1 str7"
   id="_189407024" />
   <path
   d="m 174.712,219.697 c -3.064,1.2474 -6.1518,1.8941 -9.291,1.2198 l -1.9903,-0.5686 -1.706,-0.5687 -1.7061,-0.853 -1.706,-0.853 -1.9903,-0.5687 -1.9904,-0.5686 -1.9903,-0.2844 -2.2747,0.2844 -1.9903,0.5686 -1.9904,0.5687 -1.706,0.853 -1.9903,0.853 -1.9904,0.5687 -1.9903,0.5686 -2.2747,0.2844 -1.9903,-0.2844 -2.2747,-0.5686 -1.706,-0.5687 -1.9904,-0.853 -1.9903,-0.853 -1.9904,-0.5687 -1.9903,-0.5686 -2.2747,-0.2844 -1.9903,0.2844 -1.9904,0.5686 -1.9903,0.5687 -1.9904,0.853 -1.9903,0.853 -1.706,0.5687 -2.2747,0.5686 -1.9904,0.2844 -2.2746,-0.2844 -1.9904,-0.5686 -3.6963,-1.4217 -1.9904,-0.853 -1.9903,-0.5687 -1.9904,-0.5686 -2.2747,-0.2844 -2.2746,0.2844 -1.9904,0.5686 -1.9903,0.5687 -1.9904,0.853 -1.706,0.853 -1.9903,0.5687 -1.9904,0.5686 -2.2747,0.2844 -2.2746,-0.2844 -1.9904,-0.5686 -1.9903,-0.5687 -1.706,-0.853 -1.9904,-0.853 -1.9903,-0.5687 -1.9904,-0.5686 -2.2747,-0.2844 -1.9903,0.2844 -1.9904,0.5686 -1.706,0.5687 -1.706,0.853 -1.706,0.853 -1.9903,0.5687 c -3.1246,1.168 -6.3353,1.0305 -9.6321,-0.4124 l 0.9559,7.2032 c 3.9232,1.3609 8.0473,0.8982 12.3725,-1.3885 l 1.706,-0.853 1.706,-0.853 1.9904,-0.2843 1.9903,-0.2843 2.2747,0.2843 1.9904,0.2843 1.9903,0.853 1.9904,0.853 1.706,0.853 1.9903,0.5687 1.9904,0.5687 2.2746,0.2843 2.2747,-0.2843 1.9904,-0.5687 1.9903,-0.5687 1.706,-0.853 1.9904,-0.853 1.9903,-0.853 1.9904,-0.2843 2.2746,-0.2843 2.2747,0.2843 1.9904,0.2843 1.9903,0.853 1.706,0.853 1.9904,0.853 1.9903,0.5687 1.9904,0.5687 2.2746,0.2843 1.9904,-0.2843 2.2747,-0.5687 1.706,-0.5687 1.9903,-0.853 1.9904,-0.853 1.9903,-0.853 1.9904,-0.2843 1.9903,-0.2843 2.2747,0.2843 1.9903,0.2843 1.9904,0.853 1.9903,0.853 1.9904,0.853 1.706,0.5687 2.2747,0.5687 1.9903,0.2843 2.2747,-0.2843 1.9903,-0.5687 1.9904,-0.5687 1.9903,-0.853 1.706,-0.853 1.9904,-0.853 1.9903,-0.2843 2.2747,-0.2843 2.559,0.2843 1.9904,0.2843 1.9903,0.853 1.4217,0.853 1.706,0.853 c 4.2237,1.6841 8.1075,1.6764 11.7099,0.2669 z"
   class="fil1 str7"
   id="_189403064" />
   <polygon
   points="163.431,233.565 161.725,232.996 160.019,232.143 158.313,231.29 156.322,230.721 154.332,230.153 152.342,229.868 150.067,230.153 148.077,230.721 146.086,231.29 144.38,232.143 142.39,232.996 140.4,233.565 138.409,234.133 136.135,234.418 134.144,234.133 131.87,233.565 130.164,232.996 128.173,232.143 126.183,231.29 124.193,230.721 122.202,230.153 119.928,229.868 117.937,230.153 115.947,230.721 113.957,231.29 111.966,232.143 109.976,232.996 108.27,233.565 105.995,234.133 104.005,234.418 101.73,234.133 99.7398,233.565 96.0435,232.143 94.0531,231.29 92.0628,230.721 90.0724,230.153 87.7977,229.868 85.5231,230.153 83.5327,230.721 81.5424,231.29 79.552,232.143 77.846,232.996 75.8557,233.565 73.8653,234.133 71.5906,234.418 69.316,234.133 67.3256,233.565 65.3353,232.996 63.6293,232.143 61.6389,231.29 59.6486,230.721 57.6582,230.153 55.3835,229.868 53.3932,230.153 51.4028,230.721 49.6968,231.29 47.9908,232.143 46.2848,232.996 44.2945,233.565 38.0444,235.523 40.5256,242.123 47.9908,238.967 49.6968,238.114 51.4028,237.261 53.3932,236.977 55.3835,236.692 57.6582,236.977 59.6486,237.261 61.6389,238.114 63.6293,238.967 65.3353,239.82 67.3256,240.389 69.316,240.957 71.5906,241.242 73.8653,240.957 75.8557,240.389 77.846,239.82 79.552,238.967 81.5424,238.114 83.5327,237.261 85.5231,236.977 87.7977,236.692 90.0724,236.977 92.0628,237.261 94.0531,238.114 95.7591,238.967 97.7495,239.82 99.7398,240.389 101.73,240.957 104.005,241.242 105.995,240.957 108.27,240.389 109.976,239.82 111.966,238.967 113.957,238.114 115.947,237.261 117.937,236.977 119.928,236.692 122.202,236.977 124.193,237.261 126.183,238.114 128.173,238.967 130.164,239.82 131.87,240.389 134.144,240.957 136.135,241.242 138.409,240.957 140.4,240.389 142.39,239.82 144.38,238.967 146.086,238.114 148.077,237.261 150.067,236.977 152.342,236.692 154.901,236.977 156.891,237.261 158.882,238.114 160.303,238.967 162.009,239.82 168.854,242.548 171.194,236.072 165.421,234.133 "
   class="fil1 str1"
   id="_189393440" />
   <polygon
   points="163.431,246.88 161.725,246.311 160.019,245.458 158.313,244.605 156.322,244.037 154.332,243.468 152.342,243.184 150.067,243.468 148.077,244.037 146.086,244.605 144.38,245.458 142.39,246.311 140.4,246.88 138.409,247.449 136.135,247.733 134.144,247.449 131.87,246.88 130.164,246.311 128.173,245.458 126.183,244.605 124.193,244.037 122.202,243.468 119.928,243.184 117.937,243.468 115.947,244.037 113.957,244.605 111.966,245.458 109.976,246.311 108.27,246.88 105.995,247.449 104.005,247.733 101.73,247.449 99.7398,246.88 96.0435,245.458 94.0531,244.605 92.0628,244.037 90.0724,243.468 87.7977,243.184 85.5231,243.468 83.5327,244.037 81.5424,244.605 79.552,245.458 77.846,246.311 75.8557,246.88 73.8653,247.449 71.5906,247.733 69.316,247.449 67.3256,246.88 65.3353,246.311 63.6293,245.458 61.6389,244.605 59.6486,244.037 57.6582,243.468 55.3835,243.184 53.3932,243.468 51.4028,244.037 49.6968,244.605 47.9908,245.458 46.2848,246.311 44.2945,246.88 43.4415,247.164 46.8535,252.851 47.9908,252.282 49.6968,251.429 51.4028,250.576 53.3932,250.292 55.3835,250.008 57.6582,250.292 59.6486,250.576 61.6389,251.429 63.6293,252.282 65.3353,253.135 67.3256,253.704 69.316,254.273 71.5906,254.557 73.8653,254.273 75.8557,253.704 77.846,253.135 79.552,252.282 81.5424,251.429 83.5327,250.576 85.5231,250.292 87.7977,250.008 90.0724,250.292 92.0628,250.576 94.0531,251.429 95.7591,252.282 97.7495,253.135 99.7398,253.704 101.73,254.273 104.005,254.557 105.995,254.273 108.27,253.704 109.976,253.135 111.966,252.282 113.957,251.429 115.947,250.576 117.937,250.292 119.928,250.008 122.202,250.292 124.193,250.576 126.183,251.429 128.173,252.282 130.164,253.135 131.87,253.704 134.144,254.273 136.135,254.557 138.409,254.273 140.4,253.704 142.39,253.135 144.38,252.282 146.086,251.429 148.077,250.576 150.067,250.292 152.342,250.008 154.901,250.292 156.891,250.576 158.882,251.429 160.303,252.282 162.009,253.135 162.578,253.42 163.147,252.567 166.274,247.733 165.421,247.449 "
   class="fil1 str1"
   id="_189418400" />
   <polygon
   points="157.176,257.4 155.754,256.832 154.048,256.263 152.342,256.263 150.067,256.547 148.077,257.116 146.086,257.685 144.38,258.538 142.39,259.391 140.4,259.959 138.409,260.528 136.135,260.812 134.144,260.528 131.87,259.959 130.164,259.391 128.173,258.538 126.183,257.685 124.193,257.116 122.202,256.547 119.928,256.263 117.937,256.547 115.947,257.116 113.957,257.685 111.966,258.538 109.976,259.391 108.27,259.959 105.995,260.528 104.005,260.812 101.73,260.528 99.7398,259.959 96.0435,258.538 94.0531,257.685 92.0628,257.116 90.0724,256.547 87.7977,256.263 85.5231,256.547 83.5327,257.116 81.5424,257.685 79.552,258.538 77.846,259.391 75.8557,259.959 73.8653,260.528 71.5906,260.812 69.316,260.528 67.3256,259.959 65.3353,259.391 63.6293,258.538 61.6389,257.685 59.6486,257.116 57.6582,256.547 55.3835,256.263 53.9619,256.263 52.5402,256.547 50.2655,257.4 55.3835,263.087 55.3835,263.087 57.6582,263.087 59.6486,263.656 61.6389,264.509 63.6293,265.362 65.3353,266.215 67.3256,266.783 69.316,267.352 71.5906,267.636 73.8653,267.352 75.8557,266.783 77.846,266.215 79.552,265.362 81.5424,264.509 83.5327,263.656 85.5231,263.087 87.7977,263.087 90.0724,263.087 92.0628,263.656 94.0531,264.509 95.7591,265.362 97.7495,266.215 99.7398,266.783 101.73,267.352 104.005,267.636 105.995,267.352 108.27,266.783 109.976,266.215 111.966,265.362 113.957,264.509 115.947,263.656 117.937,263.087 119.928,263.087 122.202,263.087 124.193,263.656 126.183,264.509 128.173,265.362 130.164,266.215 131.87,266.783 134.144,267.352 136.135,267.636 138.409,267.352 140.4,266.783 142.39,266.215 144.38,265.362 146.086,264.509 148.077,263.656 150.067,263.087 152.342,263.087 154.332,263.087 159.166,258.253 158.597,257.969 "
   class="fil1 str1"
   id="_189404744" />
   <polygon
   points="142.106,272.47 140.115,273.039 138.125,273.608 136.135,273.892 134.144,273.608 131.87,273.039 130.164,272.47 128.173,271.617 126.183,270.764 124.193,269.911 122.202,269.627 119.928,269.342 117.937,269.627 115.947,269.911 113.957,270.764 111.966,271.617 109.976,272.47 108.27,273.039 105.995,273.608 104.005,273.892 101.73,273.608 99.7398,273.039 96.0435,271.617 94.0531,270.764 92.0628,269.911 90.0724,269.627 87.7977,269.342 85.5231,269.627 83.5327,269.911 81.5424,270.764 79.552,271.617 77.846,272.47 75.8557,273.039 73.8653,273.608 71.5906,273.892 69.8846,273.608 68.463,273.323 73.581,276.166 78.699,278.726 80.6894,277.873 82.3954,277.019 84.1014,276.735 85.8074,276.166 87.7977,276.166 90.0724,276.166 92.0628,276.735 94.0531,277.588 95.7591,278.441 97.7495,279.294 99.7398,279.863 101.73,280.432 104.005,280.432 105.995,280.432 108.27,279.863 109.976,279.294 111.966,278.441 113.957,277.588 115.947,276.735 117.937,276.166 119.928,276.166 121.918,276.166 123.908,276.735 125.614,277.304 127.605,278.157 129.879,279.01 137.272,275.598 144.096,271.617 143.812,271.902 "
   class="fil1 str1"
   id="_189417752" />
   <path
   d="M 99.4555,283.559 C 61.5339,279.6827 36.5539,251.0257 34.3427,216.7403 v -53.9717 h 12.9156 c 18.7491,4.3635 31.9562,17.0398 38.4748,39.7488 l 19.4855,79.8125 18.7345,-81.0865 c 7.7288,-22.5232 20.6387,-35.6559 39.2392,-38.4748 h 11.8963 l -0.006,54.1275 c -3.6751,38.5377 -29.7861,62.5312 -65.1068,66.6629 z"
   class="fil7 str8"
   id="_189389384" />
  </g>
 </g>
</svg>
