<?xml version="1.0" encoding="utf-8"?>
<!-- Generator: Adobe Illustrator 17.1.0, SVG Export Plug-In . SVG Version: 6.00 Build 0)  -->
<!DOCTYPE svg PUBLIC "-//W3C//DTD SVG 1.1//EN" "http://www.w3.org/Graphics/SVG/1.1/DTD/svg11.dtd">
<svg version="1.1" xmlns="http://www.w3.org/2000/svg" xmlns:xlink="http://www.w3.org/1999/xlink" x="0px" y="0px"
	 viewBox="0 0 595.3 841.9" enable-background="new 0 0 595.3 841.9" xml:space="preserve">
<g id="Capa_1">
</g>
<g id="Capa_2">
	<g>
		<g>
			<path fill="#009622" d="M103.8,348.9v284.6c0,99.8,87.8,180.8,196.1,180.8s196.1-80.9,196.1-180.8V348.9H103.8z"/>
			<path fill="#211915" d="M500,564.3V562h-2.8v-38.3l0.4,0.1l2-14.2l-94.7-21.4l-2.2-0.5l-86.2-20.7l-41,0l-96.3,20.2l-2.2,0.5
				l-76.4,16.1l-0.6,16.6l1.5-0.3v25.7h-2v2.2h2V562h0.4v2.2h-0.4v15.1h-2v2.2h2v10.6l-0.2,0.6l0.2,2.2v3.6h1.4v-4.3l1.1-0.1l0,0
				c1.3,0.7,5.9,3.2,12.4,6v13.7h2.2v-12.8c1.8,0.8,3.7,1.5,5.7,2.3l0.1,18.8l10.6-10.8l0-0.4c0-0.1,0.1-1.5,0.3-3.9
				c7.2,2.1,14.9,3.5,22.2,3.5c11.9,0,23-4.7,34.8-9.7c4.5-1.9,9.1-3.8,13.8-5.5c0.4,3.6,0.4,6,0.4,6.1l0,2.5l12.8-11.6l0-0.5
				c0,0,0-0.1,0-0.1c3.7-0.7,7.5-1.2,11.5-1.2c3.7,0,7.1,0.4,10.3,1c-0.4,3.4-0.5,5.5-0.5,5.7l0,1.2l17.5-1l0-0.1
				c1.7,0.8,3.4,1.6,5.2,2.4c9.9,4.7,20.1,9.6,34.3,10c14.1-0.4,24.3-5.3,34.2-10c3.6-1.7,7-3.3,10.6-4.8c0.3,1.8,0.6,3.6,0.9,5.5
				l0.2,1.4l15.2-6.5l-0.1-0.8c0-0.1-0.2-1.4-0.6-3.7c2-0.2,4-0.4,6.2-0.4c5.6,0,10.9,0.9,16.2,2.3l0,0l0.2,0v0.9h2.2v-0.3
				c6.8,2,13.4,4.7,19.8,7.5c11.8,5,22.9,9.7,34.8,9.7c7.9,0,16.3-1.7,24-4c0,0.4,0,0.9,0,1.3v1.9l14-7.7l0-0.5
				c8.1-3.4,14.1-6.6,15.5-7.4l5.7,0.6l2.4,0.2l0.2-2.2l-1.5-0.1v-11h1.4v-2.2h-1.4v-15.1H500z M124.2,601c-2-0.8-3.9-1.5-5.7-2.3
				v-10.2h-2.2v9.3c-6.9-3.1-11.5-5.6-11.6-5.7l-0.3-0.2l-0.5,0.1l-1.1,0.1v-10.5h24.7C125,591.3,124.3,599.2,124.2,601z
				 M118.6,540.3v-9.5h58v6.2c-1.7-0.2-3.5-0.3-5.3-0.3c-5.5,0-10.4,1-14.7,2.8v-2h-2.2v3c-2.8,1.4-5.3,3.1-7.5,5h-44.2v-14.8h13.7
				v9.5H118.6z M239.1,540.3v-9.5h35.1c-4.9,2.5-9.1,5.8-12.7,9.6v-2.9h-2.2v5.4c-0.7,0.9-1.5,1.8-2.1,2.7h-40.3v-8.1h-2.2v8.1
				h-17.1c-5-4.1-11.2-7.1-18.7-8.3v-6.5h58v9.5H239.1z M380.9,558.3v-10.5h18c-4.4,4.2-7.8,9.2-10.4,14.2h-40.3
				c-2.3-4.8-5.1-9.7-8.5-14.2h38.9v10.5H380.9z M462.1,562c0.4,0.7,0.8,1.5,1.1,2.2c0.3,0.7,0.6,1.4,0.9,2c1.5,3.3,2.7,6.7,3.7,10
				l-7.1,3h-3c-1.9-5.3-4.2-10.5-7.1-15.1c-0.3-0.5-0.7-1-1-1.5l0.8-0.7l7.6-6.6c1.4,2,2.7,4.1,3.9,6.3v0.3H462.1z M448.3,560.9
				c-2.1-2.8-4.5-5.3-7.1-7.3c-0.7-0.6-1.5-1.1-2.2-1.6c-1.6-1-3.2-1.7-4.9-2.3l0.5-1.9l0.6-2.2l1.6-5.6c0.7,0.2,1.5,0.4,2.2,0.6
				c0.8,0.2,1.5,0.5,2.2,0.8c2.7,1.1,5.2,2.5,7.4,4.2c1,0.7,1.9,1.4,2.7,2.2c2,1.8,3.8,3.7,5.4,5.8L448.3,560.9z M432.9,545.6
				l-1,3.8l0,0l0.1-0.3c-1.8-0.5-3.7-0.7-5.7-0.7c-2.1,0-4.2,0.3-6.2,0.9l0,0.2l-0.6-1.7l-0.6-2.2l-1.4-5.5
				c3.1-0.8,6.5-1.2,10.2-1.2c2.4,0,4.7,0.2,6.9,0.6L432.9,545.6z M417.7,550.1c-4.9,2-9.4,5.8-13.3,11.3l-8.3-7.2
				c1.8-2.3,3.8-4.5,6.1-6.4c0.9-0.8,1.9-1.5,2.9-2.2c3-2.1,6.3-3.7,10.1-4.9l1.2,4.9l0.6,2.2L417.7,550.1z M403.2,563.2
				c-0.2,0.3-0.4,0.7-0.7,1c-1.3,2.1-2.6,4.5-3.8,7.1c-1.3,2.7-2.3,5.4-3.2,8l-0.5,1.2l-3.4-1.2l-6.4-2.7c1.1-3.9,2.6-8.1,4.7-12.3
				c0.4-0.7,0.7-1.5,1.1-2.2c1.1-2.1,2.4-4.1,3.8-6.1l7,6.1L403.2,563.2z M345.8,562c0.4,0.7,0.7,1.5,1.1,2.2
				c1.7,3.7,3.1,7.3,4.3,10.8l-9,4.3l-1.3,0.6l-0.2-0.6c-1.8-5.8-4-10.8-6.3-15.1c-0.4-0.8-0.8-1.5-1.3-2.2
				c-1.3-2.1-2.6-4.1-3.9-5.8l8.8-7.2C341,553.2,343.6,557.6,345.8,562z M335.8,547.8l-8.1,6.7c-2.2-2.7-4.4-4.8-6.7-6.7
				c-1-0.8-2-1.6-2.9-2.2c-3.8-2.6-7.5-4.2-10.6-5.2l4-9.6l0.4-1l2.9,1c8.4,3.2,15.1,8.5,20.5,14.8c0.5,0.5,0.9,1.1,1.4,1.6
				L335.8,547.8z M309,530.8l-3.7,9c-3.3-0.8-5.6-0.9-6.5-0.9l-0.3,0c-2.8,0-5.4,0.4-7.9,1l-3.9-9.1l-0.8-1.8
				c0.6-0.1,1.3-0.3,1.9-0.4c3-0.5,6.1-0.8,9.4-0.8l0.9,0c3,0,5.8,0.3,8.5,0.8c1,0.2,2,0.4,3,0.7L309,530.8z M288.5,540.5
				c-3.5,1.2-6.7,2.9-9.5,5.1c-0.9,0.7-1.8,1.4-2.6,2.2c-2.7,2.5-5.1,5.5-7.2,8.6l-7.7-6.7l-2.2-1.9l0,0l-0.6-0.6l0.6-0.8
				c0.2-0.3,0.5-0.6,0.7-0.9c0.5-0.6,1-1.3,1.5-1.9c4.8-5.5,10.8-10.1,18.3-12.9l1.7-0.6c0.7-0.2,1.5-0.4,2.2-0.7l0,0l0.5,1.2
				L288.5,540.5z M237,554.2v7.8h-26.5c-2.6-5.1-6-10-10.4-14.2h14.6v10.5h2.2v-10.5h38.7c-3.1,4.5-5.5,9.4-7.5,14.2h-8.8v-7.8H237z
				 M202.5,553.8l-7.3,5.6c-3.8-4.5-8.8-8.1-15.2-9.8l0.5-1.8l0.5-2.2l1.3-5.3c4.3,1.2,8.1,3,11.5,5.3c1,0.7,2,1.4,2.9,2.2
				C198.9,549.6,200.8,551.6,202.5,553.8z M249.5,564.3c0.3-0.7,0.6-1.5,0.9-2.2c1.9-4.4,4.1-8.8,6.9-13l1.9,1.7l2.2,2l6.5,5.6
				c-0.7,1.2-1.4,2.4-2.1,3.7c-0.4,0.7-0.8,1.5-1.1,2.2c-2.5,5.1-4.3,10.3-5.7,15.1c-0.2,0.6-0.3,1.1-0.5,1.7l-4.8-1.7l-8.1-2.8
				C246.7,572.6,247.9,568.5,249.5,564.3z M180.1,539.8l-1.4,5.8l-0.5,2.2l-0.3,1.4c-1.9-0.3-3.9-0.5-6-0.5c-2,0-4,0.2-5.9,0.6
				l-0.5-1.4l-0.8-2.2l-2.1-5.6c2.7-0.7,5.7-1.1,8.8-1.1c1.8,0,3.6,0.1,5.3,0.3c0.8,0.1,1.5,0.2,2.2,0.3
				C179.3,539.6,179.7,539.7,180.1,539.8z M141.7,554.4c1.8-2.4,3.8-4.6,6-6.6c0.9-0.8,1.8-1.5,2.8-2.2c1.3-0.9,2.6-1.8,3.9-2.5
				c0.7-0.4,1.5-0.7,2.2-1.1c1.2-0.5,2.4-1,3.7-1.4l1.9,5l0.8,2.2l0.8,2c-2.5,0.7-4.9,1.9-7.2,3.3c-0.8,0.5-1.5,1-2.2,1.6
				c-2,1.6-3.9,3.4-5.6,5.6L141.7,554.4z M147.4,562c-0.5,0.7-1,1.4-1.5,2.2c-2.7,4.2-5.1,9.2-7.1,15.1h-3.3h-5.1l-0.1,0
				c0.2-0.7,0.4-1.4,0.6-2.2c1.3-4.2,2.9-8.6,4.9-12.8c0.4-0.8,0.7-1.5,1.1-2.2c1-2,2.2-3.9,3.5-5.8L147.4,562L147.4,562z
				 M144.4,547.8c-4.1,4.1-7.4,9-10,14.2h-15.6v-7.8h-2.2v7.8h-13.9v-14.2H144.4z M116.6,564.3v10.8h2.2v-10.8h14.5
				c-2.3,5-4.1,10.2-5.4,15.1h-25.3v-15.1H116.6z M132.6,610.5l-6.2,6.3l-0.1-12.6c2.1,0.8,4.3,1.5,6.6,2.2
				C132.8,608.4,132.7,609.8,132.6,610.5z M133.2,604.1c-2.4-0.7-4.7-1.5-6.9-2.3l0-0.4c0-0.2,0.5-9,3.3-19.9h5.3h3.1
				c-0.1,0.4-0.3,0.9-0.4,1.3C135.2,590.9,133.9,598.8,133.2,604.1z M191.2,598.8c-11.6,4.9-22.5,9.5-33.9,9.5
				c-7.1,0-14.7-1.5-21.9-3.6c0.7-5.6,2.1-14.4,5-23.2c0.2-0.7,0.5-1.5,0.8-2.2c1.9-5.3,4.3-10.6,7.4-15.1c0.5-0.8,1.1-1.5,1.7-2.2
				c1.3-1.6,2.7-3.1,4.1-4.4c0.7-0.6,1.5-1.2,2.2-1.8c4.2-3.1,9.2-5,15.3-5c10.3,0,17.5,4.7,22.6,11.2c0.6,0.7,1.1,1.5,1.6,2.2
				c3.1,4.6,5.2,9.9,6.7,15.1c0.2,0.7,0.4,1.5,0.6,2.2c1.1,4.2,1.8,8.2,2.2,11.5C200.7,594.8,196,596.9,191.2,598.8z M205.5,580.7
				l-0.4-1.3c-1.4-5.1-3.5-10.3-6.4-15.1c-0.5-0.8-1-1.5-1.5-2.2c-0.2-0.3-0.4-0.6-0.6-0.9l7.3-5.6c1.5,2.1,2.9,4.3,4.1,6.5
				c0.4,0.7,0.8,1.5,1.1,2.2c2.1,4.4,3.7,8.8,4.8,12.7l-5.3,2.3L205.5,580.7z M214.6,593.3l-6.2,5.7c-0.1-1.1-0.2-2.6-0.4-4.4
				c2.5-0.9,5.1-1.6,7.6-2.3L214.6,593.3z M207.8,592.4c-0.4-2.8-0.9-6-1.7-9.5l3-1.3l5.1-2.2h0.4c0,0.1,0.1,0.3,0.1,0.4
				c0.2,0.6,0.3,1.2,0.4,1.8c0.8,3.6,1.3,6.5,1.5,8.4C213.6,590.6,210.7,591.4,207.8,592.4z M215,572.9c-0.9-2.8-2-5.7-3.4-8.6H237
				v10.8h2.2v-10.8h8c-2,5.3-3.4,10.4-4.4,15.1h-25.9v-6.4H215z M241,589.3c-3.3-0.6-6.8-1-10.5-1c-4,0-7.9,0.5-11.7,1.2
				c-0.2-1.8-0.7-4.6-1.4-7.9h24.9C241.7,584.4,241.3,587.1,241,589.3z M242.5,596c0.1-0.9,0.2-2.3,0.4-4c3.7,0.9,7.1,2.1,10.4,3.4
				L242.5,596z M255.9,594.1c-4-1.7-8.2-3.2-12.7-4.3c0.3-2.3,0.7-5.1,1.4-8.2c0.1-0.7,0.3-1.5,0.5-2.2l0.2-0.6l1.8,0.6l6.4,2.2
				l4.7,1.6C256.9,587.9,256.2,591.8,255.9,594.1z M330.4,597.7c-9.7,4.6-19.7,9.4-33.3,9.8c-13.7-0.4-23.7-5.2-33.3-9.8
				c-1.9-0.9-3.9-1.8-5.8-2.7c0.3-2.4,1.2-7.4,2.8-13.4c0.2-0.7,0.4-1.5,0.6-2.2c1.4-4.8,3.3-10,5.8-15.1c0.4-0.8,0.8-1.5,1.2-2.2
				c3-5.4,6.7-10.5,11.4-14.2c1-0.8,2.1-1.5,3.2-2.2c4.4-2.8,9.6-4.5,15.6-4.5l0.2,0c1.5,0,7.7,0.3,15.1,4.5
				c1.1,0.6,2.3,1.4,3.5,2.2c4.3,3.1,8.9,7.6,13,14.2c0.4,0.7,0.9,1.5,1.3,2.2c2.4,4.2,4.6,9.2,6.5,15.1c0.2,0.7,0.5,1.5,0.7,2.2
				c1,3.4,1.9,7.1,2.7,11.2C337.7,594.2,334,596,330.4,597.7z M341.4,582.1l1.2-0.6l4.7-2.2l4.5-2.2c0.2,0.7,0.5,1.5,0.7,2.2
				c0.2,0.8,0.4,1.5,0.6,2.2c0.8,2.8,1.4,5.4,1.8,7.4c-4,0.6-7.7,1.7-11.2,3C343,588.5,342.3,585.2,341.4,582.1z M344.9,598.7
				c-0.2-1.5-0.5-3-0.7-4.5c3.5-1.3,7.2-2.3,11.2-3c0.2,1.2,0.4,2.2,0.5,2.8L344.9,598.7z M380.1,590.5c-5.3-1.4-10.7-2.2-16.3-2.2
				c-2.3,0-4.5,0.2-6.6,0.4c-0.4-2-1-4.4-1.7-7.1h24.6V590.5z M380.1,572.9v6.4h-25.3c-1.3-4.5-3.1-9.7-5.5-15.1h38.2
				c-2.4,5.1-4,10.1-5.1,14.5v-5.8H380.1z M382.3,591L382.3,591c0.2-1.7,0.6-5.1,1.6-9.4c0.2-0.7,0.3-1.5,0.5-2.2l0.1-0.5l1.3,0.5
				l5.2,2.2l3.1,1.3c-1.4,4.5-2.2,8.1-2.6,9.9L382.3,591z M436.9,608.3c-11.4,0-22.3-4.6-33.9-9.5c-3.1-1.3-6.3-2.6-9.4-3.9l0.1-0.6
				c0-0.2,1-5.7,3.4-12.7c0.2-0.7,0.5-1.5,0.8-2.2c1.8-4.9,4.2-10.3,7.3-15.1c0.5-0.8,1-1.5,1.6-2.2c4.8-6.5,11.3-11.4,19.6-11.4
				c4.7,0,8.9,1.6,12.6,4.2c0.8,0.5,1.5,1.1,2.2,1.8c1.8,1.6,3.5,3.4,5.1,5.5c0.5,0.7,1.1,1.5,1.6,2.2c3,4.5,5.5,9.7,7.4,15.1
				c0.3,0.7,0.5,1.5,0.8,2.2c2.7,8.2,4.3,16.4,4.7,22.6C453,606.6,444.6,608.3,436.9,608.3z M463.1,605.9
				C463.1,605.9,463.1,605.9,463.1,605.9c0.1-0.1,0.2-0.2,0.4-0.2L463.1,605.9z M463,603.5c-0.5-5.9-1.8-13.4-4.2-20.9l2.4-1
				l5.3-2.2l2-0.9c0.1,0.3,0.2,0.6,0.2,0.9c0.2,0.8,0.4,1.5,0.6,2.2c2.1,8.4,2.9,15.6,3.2,18.4C469.5,601.2,466.3,602.4,463,603.5z
				 M495.7,592.4l-5.8-0.6l-0.3,0.2c-0.1,0.1-6.2,3.4-14.9,7.1c-0.3-3.3-1.1-9.8-3-17.6h24V592.4z M495.7,579.3h-24.6
				c-1.3-4.8-3.1-10-5.4-15.1h30V579.3z M495.7,562h-31.1c-0.1-0.3-0.3-0.5-0.4-0.8v-6.1h-2.2v2.1c-2.1-3.4-4.5-6.6-7.4-9.4h41.1
				V562z M495.7,545.6h-43.5c-3.2-2.7-6.8-5-11-6.5v-1.5H439v0.8c-3.4-1-7.2-1.6-11.3-1.6c-11.1,0-19.7,3.6-26.3,8.9h-20.5v-8.1
				h-2.2v8.1H338c-4.8-5.9-10.7-11.1-17.8-14.8h21.6v9.5h2.2v-9.5h58v9.5h2.2v-9.5h56.4v9.5h2.2v-9.5h32.8V545.6z M495.7,528.6
				h-32.8v-8.6h-2.2v8.6h-56.4v-8.6H402v8.6h-58v-8.6h-2.2v8.6h-26.6c-5-1.9-10.6-3-16.9-3.1l-1,0c-4.9,0-9.4,0.6-13.6,1.7v-7.2
				h-2.2v7.9c-0.8,0.2-1.5,0.5-2.3,0.7h-40.1v-8.6h-2.2v8.6h-58v-8.6h-2.2v8.6h-58v-8.6h-2.2v8.6h-13.7v-9l29-6.6h22.6v10.6h2.2
				v-10.6h58v10.6h2.2v-10.6h42.7v10.6h2.2v-10.6h58v10.6h2.2v-10.6h57.5v10.6h2.2v-10.6h57.5v10.6h2.2v-10.6H452v0l43.7,10.4V528.6
				z M141.5,510.7l12.8-2.9v2.9H141.5z M179.1,506.8v-4.7l24.8-5.7h33.2v10.3h2.2v-10.3h42.4v10.3h2.2v-10.3h58.3v10.3h2.2v-10.3
				h38.7l19.3,4.6v5.7h2.2v-5.2l34.3,8.2v0.9h-57.5v-8.4h-2.2v8.4H322v-8.4h-2.2v8.4h-58v-8.4h-2.2v8.4h-42.7v-8.4h-2.2v8.4h-58
				v-3.4l20.4-4.6v4.2H179.1z M213.7,494.2l23.4-5.3v5.3H213.7z M261.4,487.5v-4.2l17.1-3.9h33.5l7.4,1.8v6.3h2.2v-5.8l20.6,4.9v7.6
				H284v-7.8h-2.2v7.8h-42.4v-5.9l19.8-4.5v3.7H261.4z M344.6,494.2v-7l29.4,7H344.6z M495.7,521l-54.3-13l-2.2-0.5l-34.3-8.2
				l-2.2-0.5l-80.9-19.3l-2.2-0.5l-7-1.7l-34.1,0l-16.9,3.9l-2.2,0.5l-21.3,4.8l-0.8,0.2l-33.5,7.6l-2.2,0.5l-22.3,5.1l-2.2,0.5
				l-20.4,4.6l-2.2,0.5l-22.8,5.2L130,511l-27.8,6.3l0.5-11.9l74.2-15.6l2.2-0.5l96.4-20.3H316l86.6,20.8l2.2,0.5l92.2,20.9
				L495.7,521z"/>
			<path d="M99.3,344.4v289c0,102.1,90,185.3,200.6,185.3c110.6,0,200.6-83.1,200.6-185.3v-289H99.3z M491.6,633.5
				c0,97.2-86,176.3-191.7,176.3s-191.7-79.1-191.7-176.3V353.3h383.3V633.5z"/>
			<g>
				<path fill="#FF0000" d="M87.6,262.4c0,0-16.2-38.8,26.5-61.9s52.2-5.6,77.8-11.2s47.7-26.5,61.9-33.8
					c13.3-6.8,21.7-11.9,40.8-6.5l3.8-0.1c18.8-5.2,27.2-0.1,40.5,6.6c14.2,7.3,36.3,28.2,61.9,33.8c25.7,5.6,35.2-12,77.8,11.2
					s26.5,61.9,26.5,61.9s-11.5,34-28.8,34.9c-17.3,0.8-332.2-13.9-356,3.6C111,307.9,87.6,262.4,87.6,262.4z"/>
				<path d="M118.3,302.7c-10.8,0-29.6-35.8-31.7-39.8c-0.2-0.5-16.1-40.1,27-63.4c15.9-8.6,28.6-12.5,40.9-12.5
					c5,0,9.5,0.6,13.9,1.2c4.3,0.6,8.3,1.1,12.7,1.1c3.6,0,7-0.4,10.6-1.1c17.3-3.8,33.1-14.7,45.8-23.5c6-4.2,11.3-7.8,15.8-10.1
					l1.9-1c8.6-4.4,15.5-7.9,25.1-7.9c4.4,0,9.1,0.7,14.5,2.2l3.5-0.1c5.2-1.4,9.9-2.1,14.2-2.1c9.7,0,16.5,3.5,25.1,7.9l1.9,1
					c4.6,2.3,9.8,5.9,15.8,10.1c12.7,8.8,28.5,19.8,45.8,23.5c3.5,0.8,7,1.1,10.6,1.1c4.4,0,8.5-0.6,12.7-1.1
					c4.4-0.6,8.8-1.2,13.9-1.2c12.4,0,25,3.9,40.9,12.5c43.1,23.4,27.2,62.9,27,63.3c-0.5,1.3-11.9,34.7-29.8,35.6
					c-3.7,0.2-21.1-0.4-46.7-1.1c-46.6-1.4-124.7-3.8-189.8-3.8c-71.3,0-111.3,2.8-118.9,8.4C120.3,302.4,119.4,302.7,118.3,302.7z
					 M154.5,189.2c-12,0-24.3,3.8-39.9,12.2c-41.3,22.4-26.2,60.1-26,60.5c5.5,10.7,21.6,38.5,29.7,38.5c0.6,0,1.1-0.2,1.6-0.5
					c8.1-5.9,47.4-8.8,120.2-8.8c65.1,0,143.2,2.4,189.9,3.8c25.4,0.8,42.9,1.3,46.6,1.1c16.3-0.8,27.7-33.8,27.8-34.1
					c0.7-1.6,15.3-38.2-26-60.6c-15.6-8.5-27.9-12.2-39.9-12.2c-4.9,0-9.3,0.6-13.6,1.2c-4.2,0.6-8.4,1.2-13,1.2
					c-3.7,0-7.4-0.4-11-1.2c-17.8-3.9-33.8-15-46.6-23.9c-6-4.1-11.1-7.7-15.6-10l-1.9-1c-8.4-4.3-15-7.7-24.1-7.7
					c-4.1,0-8.6,0.7-13.7,2.1l-0.3,0l-4,0.1l-0.2,0c-5.3-1.5-9.9-2.2-14.1-2.2c-9.1,0-15.7,3.4-24.1,7.7l-1.9,1
					c-4.4,2.3-9.6,5.8-15.6,10c-12.9,8.9-28.9,20-46.6,23.9c-3.7,0.8-7.3,1.2-11,1.2c-4.6,0-8.9-0.6-13-1.2
					C163.8,189.8,159.4,189.2,154.5,189.2z"/>
			</g>
			<path d="M118.9,347.8l30.7-14.5c0,0,70-11.7,72-11.7s58-5.3,61.7-5.3s70.3,4.2,70.3,4.2l49.4,3.1c0,0,31.8,6.1,32.9,7
				s25.7,9.8,26.8,10.3s14.8,7.5,14.8,7.5H118.3L118.9,347.8z"/>
			<g>
				<path fill="#F8E12E" d="M490.2,306.3l-12.6,40.5c0,0-59-29.6-180.2-29.6s-182.6,28.8-182.6,28.8l-6.5-40.9
					c0,0,115.9-27.2,189-27.2S479.2,303,490.2,306.3z"/>
				<path d="M478.1,348.1l-0.9-0.4c-0.6-0.3-60.2-29.5-179.9-29.5c-119.7,0-181.7,28.5-182.3,28.7l-1,0.5l-6.8-42.8l0.8-0.2
					c1.2-0.3,116.8-27.2,189.2-27.2c71.4,0,180.1,24.3,193.3,28.4l0.8,0.2L478.1,348.1z M297.3,316.4c62.7,0,108.5,8.1,135.8,14.8
					c25.6,6.3,40.3,12.8,43.9,14.5l12.1-38.8c-16.3-4.7-122-28-192-28c-69.1,0-177.9,24.6-188,27l6.2,39.1
					C123.8,341.2,185.6,316.4,297.3,316.4z"/>
			</g>
			<g>
				<g>
					<path fill="#F8E12E" d="M298.5,274.7c-84.5,0-187.5,24.8-187.5,24.8c-1.1,0.6-5.3,1.1-5.3,7c0,5.9,15.7,1.5,15.7,1.5
						c90.2-24.6,176.9-23.8,176.9-23.8h0.4c0,0,86.7-0.7,176.9,23.8c0,0,15.7,4.4,15.7-1.5c0-5.9-4.2-6.4-5.3-7
						C486,299.5,383.1,274.7,298.5,274.7z"/>
					<path d="M485.8,310.4C485.8,310.4,485.8,310.4,485.8,310.4c-4.6,0-10.1-1.5-10.4-1.6C390.5,285.7,308.6,285,299.5,285l-1.2,0
						l-0.8,0c-9.1,0-90.9,0.7-175.8,23.8c-0.2,0.1-5.8,1.6-10.4,1.6c-5.3,0-6.4-2.1-6.4-3.9c0-5.6,3.7-6.9,5.2-7.5
						c0.2-0.1,0.4-0.1,0.5-0.2c1.2-0.3,104.2-24.9,187.9-24.9s186.6,24.6,187.7,24.9c0.3,0.1,0.5,0.2,0.7,0.3
						c1.6,0.6,5.2,1.9,5.2,7.5c0,1.4-0.7,2.5-2.1,3.2C489,310.1,487.5,310.4,485.8,310.4z M299.5,283.3c9.1,0,91.1,0.7,176.3,23.8
						c0.1,0,5.6,1.5,9.9,1.5h0c1.6,0,2.8-0.2,3.6-0.6c0.8-0.4,1.2-0.9,1.2-1.6c0-4.5-2.6-5.4-4.1-5.9c-0.3-0.1-0.5-0.2-0.7-0.3
						c-0.9-0.2-103.6-24.7-187.1-24.7s-186.3,24.6-187.3,24.8c0,0-0.2,0.1-0.5,0.2c-1.5,0.6-4.1,1.5-4.1,5.9c0,1.5,1.6,2.2,4.7,2.2
						c4.4,0,9.9-1.5,9.9-1.5c85.1-23.2,167.2-23.8,176.3-23.8l1.2,0L299.5,283.3z"/>
				</g>
			</g>
			<g>
				<path fill="#F8E12E" d="M298.5,321.5c124.4,0.6,172.8,28.5,172.8,28.5s18.2,1.9,6.7-9.5c-11.5-11.3-96.3-28.3-178.9-28.3h-3.9
					c-82.6,0-167.4,16.9-178.9,28.3c-11.5,11.3,6.7,9.5,6.7,9.5s48.4-27.9,172.8-28.5H298.5z"/>
				<path d="M473.9,351C473.9,351,473.9,351,473.9,351c-1.5,0-2.7-0.1-2.7-0.1l-0.3-0.1c-0.5-0.3-49.7-27.8-172.4-28.3h-2.8
					c-122.8,0.6-171.9,28.1-172.4,28.3l-0.3,0.1c0,0-1.1,0.1-2.7,0.1c-4.8,0-7.7-1-8.5-3.1c-0.8-2,0.4-4.6,3.8-7.9
					c5.9-5.8,30.1-12.9,63.3-18.6c37.2-6.4,78.5-9.9,116.2-9.9h3.9c37.7,0,79,3.5,116.2,9.9c33.1,5.7,57.4,12.8,63.3,18.6
					c3.4,3.3,4.7,5.9,3.8,7.9C481.6,349.9,478.7,351,473.9,351z M471.6,349.2c0.4,0,1.2,0.1,2.4,0.1h0c3.9,0,6.4-0.7,7-2
					c0.5-1.2-0.7-3.4-3.5-6.1c-11.2-11.1-95.6-28-178.3-28h-3.9c-82.7,0-167.1,17-178.3,28c-2.7,2.7-4,4.9-3.5,6.1
					c0.5,1.3,3.1,2,7,2c1.1,0,2-0.1,2.4-0.1c3.3-1.8,53.4-27.9,173-28.5h2.8c64.4,0.3,108,8,133.3,14.5
					C457.5,341.7,470,348.3,471.6,349.2z"/>
			</g>
			<path fill="none" stroke="#58167D" stroke-width="0.75" stroke-miterlimit="10" d="M139.9,316.2"/>
			<g>
				
					<ellipse transform="matrix(0.9928 -0.1196 0.1196 0.9928 -35.7644 20.7617)" fill="#F8E12E" cx="155" cy="308.2" rx="2.9" ry="3.3"/>
				<path fill="#211915" d="M155.1,312.3c-1.9,0-3.5-1.6-3.8-3.6c-0.1-1.1,0.1-2.1,0.7-3c0.6-0.9,1.5-1.4,2.5-1.5
					c2.1-0.3,3.9,1.4,4.2,3.6c0.3,2.2-1.2,4.3-3.2,4.5C155.4,312.3,155.2,312.3,155.1,312.3z M155,305.8c-0.1,0-0.1,0-0.2,0
					c-0.5,0.1-1,0.4-1.3,0.8c-0.4,0.5-0.5,1.1-0.4,1.8c0.2,1.3,1.2,2.3,2.3,2.2c1.1-0.1,1.9-1.3,1.7-2.6
					C156.9,306.8,156,305.8,155,305.8z"/>
			</g>
			<g>
				
					<ellipse transform="matrix(0.9928 -0.1196 0.1196 0.9928 -37.1712 21.1365)" fill="#F8E12E" cx="157.5" cy="320.1" rx="2.9" ry="3.3"/>
				<path fill="#211915" d="M157.5,324.2c-1.9,0-3.5-1.6-3.8-3.6c-0.1-1.1,0.1-2.1,0.7-3c0.6-0.9,1.5-1.4,2.5-1.5
					c2.1-0.3,3.9,1.4,4.2,3.6c0.1,1.1-0.1,2.1-0.7,3c-0.6,0.9-1.5,1.4-2.5,1.5C157.8,324.2,157.7,324.2,157.5,324.2z M157.4,317.7
					c-0.1,0-0.1,0-0.2,0c-0.5,0.1-1,0.4-1.3,0.8c-0.4,0.5-0.5,1.1-0.4,1.8c0.2,1.3,1.2,2.3,2.3,2.2c0.5-0.1,1-0.4,1.3-0.8
					c0.4-0.5,0.5-1.1,0.4-1.8C159.3,318.7,158.4,317.7,157.4,317.7z"/>
			</g>
			<g>
				
					<ellipse transform="matrix(0.9915 -0.1302 0.1302 0.9915 -39.9366 22.0744)" fill="#F8E12E" cx="148.9" cy="316.6" rx="2.7" ry="3.8"/>
				<path fill="#211915" d="M149.1,321.2c-1.8,0-3.4-1.8-3.8-4.2c-0.2-1.2,0-2.3,0.5-3.3c0.5-1,1.4-1.7,2.4-1.8
					c2-0.3,3.8,1.6,4.1,4.1c0.2,1.2,0,2.3-0.5,3.3c-0.5,1-1.4,1.7-2.4,1.8C149.4,321.2,149.3,321.2,149.1,321.2z M148.7,313.6
					c-0.7,0.1-1.1,0.6-1.3,0.9c-0.3,0.6-0.5,1.4-0.3,2.3c0.2,1.5,1.1,2.7,2.1,2.7l0.1,0c0.6-0.1,1-0.6,1.1-0.9
					c0.3-0.6,0.5-1.4,0.3-2.3C150.6,314.8,149.6,313.6,148.7,313.6z"/>
			</g>
			<g>
				<ellipse fill="#F8E12E" cx="164.6" cy="312.2" rx="2.8" ry="3.7"/>
				<path fill="#211915" d="M164.6,316.8c-2,0-3.6-2-3.6-4.6c0-2.5,1.6-4.6,3.6-4.6c2,0,3.6,2,3.6,4.6
					C168.2,314.8,166.6,316.8,164.6,316.8z M164.6,309.4c-1.1,0-2,1.3-2,2.9c0,1.6,0.9,2.9,2,2.9c1.1,0,2-1.3,2-2.9
					C166.6,310.7,165.7,309.4,164.6,309.4z"/>
			</g>
			<path d="M181.9,318.8L181.9,318.8c-3.6,0-6.4-1-8.4-3c-2.8-2.9-2.7-6.7-2.7-6.8c0-7.3,3.3-8.6,4.1-8.9c1.5-0.6,16.3-6.7,30.5-6.7
				c14.7,0,17,2.8,17,12c0,6.7-13,11.2-38.7,13.4C183,318.8,182.4,318.8,181.9,318.8z M175.4,302.3c0,0-2.4,0.7-2.4,6.7
				c0,0.1,0,3.1,2.1,5.3c1.5,1.6,3.8,2.3,6.8,2.3h0c0.5,0,1,0,1.6-0.1c22.9-2,36.6-6.1,36.6-11.2c0-7.3-0.7-9.8-14.8-9.8
				c-14.1,0-29.5,6.5-29.7,6.6L175.4,302.3L175.4,302.3z"/>
			<g>
				<path fill="#009622" d="M180.5,309.1c0,0,0.2,4.1,8.2,3c8.8-1.2,25.1-3.8,24.9-7.2c-0.3-3.4-1.3-4.5-11-3.7
					c-9.7,0.8-20,4.4-20,4.4S180.2,306,180.5,309.1z"/>
				<path d="M186.1,313.4L186.1,313.4c-6.6,0-6.8-4.1-6.8-4.3c-0.3-3.2,1.8-4.4,2.9-4.6c0.3-0.1,10.3-3.7,20.1-4.4
					c2-0.2,3.7-0.2,5-0.2c5.2,0,6.9,1.2,7.2,5c0.1,1.5,0.4,4.9-25.8,8.4C187.8,313.3,186.9,313.4,186.1,313.4z M207.3,302
					c-1.3,0-2.8,0.1-4.8,0.2c-9.5,0.8-19.6,4.3-19.7,4.4c-0.4,0.1-1.4,0.4-1.2,2.3c0,0.1,0.3,2.2,4.6,2.2h0c0.7,0,1.5-0.1,2.3-0.2
					c23.1-3.1,23.9-6,23.9-6C212.2,303,212.1,302,207.3,302z"/>
			</g>
			<g>
				<ellipse fill="#F8E12E" cx="244.3" cy="294.7" rx="3.4" ry="3.8"/>
				<path fill="#211915" d="M244.3,299.3c-2.4,0-4.3-2.1-4.3-4.6c0-2.6,1.9-4.7,4.3-4.7s4.3,2.1,4.3,4.7
					C248.6,297.2,246.7,299.3,244.3,299.3z M244.3,291.7c-1.4,0-2.6,1.3-2.6,3c0,1.6,1.2,3,2.6,3c1.4,0,2.6-1.3,2.6-3
					C246.9,293,245.7,291.7,244.3,291.7z"/>
			</g>
			<g>
				<ellipse fill="#F8E12E" cx="245.6" cy="305.6" rx="3.4" ry="3.8"/>
				<path fill="#211915" d="M245.6,310.3c-2.4,0-4.3-2.1-4.3-4.7s1.9-4.7,4.3-4.7c2.4,0,4.3,2.1,4.3,4.7S248,310.3,245.6,310.3z
					 M245.6,302.7c-1.4,0-2.6,1.3-2.6,3c0,1.6,1.2,3,2.6,3c1.4,0,2.6-1.3,2.6-3C248.2,304,247,302.7,245.6,302.7z"/>
			</g>
			<g>
				<ellipse fill="#F8E12E" cx="254.9" cy="298.6" rx="3.1" ry="3.5"/>
				<path fill="#211915" d="M254.9,302.9c-2.2,0-3.9-1.9-3.9-4.3s1.8-4.3,3.9-4.3c2.2,0,3.9,1.9,3.9,4.3S257.1,302.9,254.9,302.9z
					 M254.9,296c-1.2,0-2.2,1.2-2.2,2.6s1,2.6,2.2,2.6s2.2-1.2,2.2-2.6S256.1,296,254.9,296z"/>
			</g>
			<g>
				<ellipse fill="#F8E12E" cx="236" cy="301.4" rx="3.5" ry="4"/>
				<path fill="#211915" d="M236,306.2c-2.4,0-4.4-2.2-4.4-4.8s2-4.8,4.4-4.8c2.4,0,4.4,2.2,4.4,4.8S238.4,306.2,236,306.2z
					 M236,298.2c-1.5,0-2.7,1.4-2.7,3.2s1.2,3.2,2.7,3.2c1.5,0,2.7-1.4,2.7-3.2S237.5,298.2,236,298.2z"/>
			</g>
			<path d="M290.7,313l-25-18l21.7-12.5h16.8l23.3,16.1l-25.1,14L290.7,313z M269.9,295.2l21.5,15.5l10.5-0.3l21.4-12l-19.8-13.7
				H288L269.9,295.2z"/>
			<g>
				<polygon fill="#FF0000" points="296.5,288.4 308.6,297.2 296.7,304.2 284.2,296.4 				"/>
				<path d="M296.7,305.6l-14.5-9.1l14.4-9.4l14.1,10.2L296.7,305.6z M286.3,296.4l10.4,6.5l9.9-5.9l-10.1-7.3L286.3,296.4z"/>
			</g>
			<path fill="none" stroke="#58167D" stroke-width="0.75" stroke-miterlimit="10" d="M457.6,317.3"/>
			<g>
				
					<ellipse transform="matrix(-0.9928 -0.1196 0.1196 -0.9928 844.5995 669.4286)" fill="#F8E12E" cx="442.4" cy="309.4" rx="2.9" ry="3.3"/>
				<path fill="#211915" d="M442.3,313.4L442.3,313.4c-0.1,0-0.3,0-0.4,0c-1-0.1-1.9-0.7-2.5-1.5c-0.6-0.8-0.8-1.9-0.7-3
					c0.3-2.2,2.1-3.9,4.2-3.6c2,0.2,3.5,2.3,3.2,4.5C445.8,311.9,444.2,313.4,442.3,313.4z M442.5,306.9c-1.1,0-2,0.9-2.1,2.2
					c-0.1,0.7,0.1,1.3,0.4,1.8c0.3,0.5,0.8,0.8,1.3,0.8l0.2,0c1.1,0,2-0.9,2.1-2.2c0.2-1.3-0.6-2.5-1.7-2.6
					C442.6,307,442.5,306.9,442.5,306.9z"/>
			</g>
			<g>
				
					<ellipse transform="matrix(-0.9928 -0.1196 0.1196 -0.9928 838.3568 692.8612)" fill="#F8E12E" cx="440" cy="321.3" rx="2.9" ry="3.3"/>
				<path fill="#211915" d="M439.9,325.4L439.9,325.4c-0.1,0-0.3,0-0.4,0c-1-0.1-1.9-0.7-2.5-1.5c-0.6-0.8-0.8-1.9-0.7-3
					c0.3-2.2,2.1-3.9,4.2-3.6c1,0.1,1.9,0.7,2.5,1.5c0.6,0.8,0.8,1.9,0.7,3C443.4,323.8,441.8,325.4,439.9,325.4z M440.1,318.9
					c-1.1,0-2,0.9-2.1,2.2c-0.1,0.7,0.1,1.3,0.4,1.8c0.3,0.5,0.8,0.8,1.3,0.8c1.1,0.1,2.2-0.8,2.3-2.2c0.1-0.7-0.1-1.3-0.4-1.8
					c-0.3-0.5-0.8-0.8-1.3-0.8C440.2,318.9,440.1,318.9,440.1,318.9z"/>
			</g>
			<g>
				
					<ellipse transform="matrix(-0.9915 -0.1302 0.1302 -0.9915 851.8723 691.0372)" fill="#F8E12E" cx="448.5" cy="317.7" rx="2.7" ry="3.8"/>
				<path fill="#211915" d="M448.3,322.3L448.3,322.3c-0.1,0-0.2,0-0.4,0c-2-0.3-3.3-2.5-2.9-5.1c0.3-2.5,2.1-4.4,4.1-4.1
					c2,0.3,3.3,2.5,2.9,5.1C451.7,320.5,450.1,322.3,448.3,322.3z M448.9,314.7c-1.1,0-2,1.2-2.2,2.7c-0.2,1.6,0.5,3.1,1.5,3.2
					l0.1,0c1,0,1.9-1.2,2.1-2.7C450.6,316.3,449.9,314.9,448.9,314.7C448.9,314.7,448.9,314.7,448.9,314.7z"/>
			</g>
			<g>
				<ellipse fill="#F8E12E" cx="432.8" cy="313.4" rx="2.8" ry="3.7"/>
				<path fill="#211915" d="M432.8,317.9c-2,0-3.6-2-3.6-4.6c0-2.5,1.6-4.6,3.6-4.6c2,0,3.6,2,3.6,4.6
					C436.4,315.9,434.8,317.9,432.8,317.9z M432.8,310.5c-1.1,0-2,1.3-2,2.9c0,1.6,0.9,2.9,2,2.9s2-1.3,2-2.9
					C434.8,311.8,433.9,310.5,432.8,310.5z"/>
			</g>
			<path d="M415.5,319.9c-0.6,0-1.2,0-1.8-0.1c-25.7-2.2-38.7-6.7-38.7-13.4c0-9.1,2.3-12,17-12c14.1,0,29,6.1,30.5,6.7
				c0.9,0.2,4.1,1.5,4.1,8.9c0,0.1,0.1,3.9-2.7,6.8C422,318.9,419.2,319.9,415.5,319.9z M392.1,296.7c-14.1,0-14.8,2.5-14.8,9.8
				c0,5,13.7,9.2,36.6,11.2c3.9,0.3,6.6-0.5,8.4-2.3c2.1-2.2,2.1-5.2,2.1-5.2c0-6.1-2.4-6.7-2.5-6.7l-0.2-0.1
				C421.6,303.3,406.2,296.7,392.1,296.7z"/>
			<g>
				<path fill="#009622" d="M417,310.2c0,0-0.2,4.1-8.2,3c-8.8-1.2-25.1-3.8-24.9-7.2c0.3-3.4,1.3-4.5,11-3.7c9.7,0.8,20,4.4,20,4.4
					S417.2,307.1,417,310.2z"/>
				<path d="M411.3,314.5c-0.8,0-1.7-0.1-2.6-0.2c-26.2-3.5-25.9-6.9-25.8-8.4c0.3-3.8,2.1-5,7.2-5c1.3,0,3,0.1,5,0.2
					c9.8,0.8,19.9,4.3,20.3,4.5c0.9,0.2,3,1.4,2.7,4.6C418.1,310.4,417.8,314.5,411.3,314.5z M390.1,303.2c-4.8,0-4.9,1-5,2.9
					c0,0,0.8,2.9,23.9,6c0.8,0.1,1.6,0.2,2.3,0.2c4.3,0,4.6-2.1,4.6-2.2c0.2-1.9-0.9-2.3-1.1-2.3c-0.2-0.1-10.4-3.7-19.9-4.4
					C392.9,303.2,391.4,303.2,390.1,303.2z"/>
			</g>
			<g>
				<ellipse fill="#F8E12E" cx="353.1" cy="295.8" rx="3.4" ry="3.8"/>
				<path fill="#211915" d="M353.1,300.4c-2.4,0-4.3-2.1-4.3-4.6c0-2.6,1.9-4.7,4.3-4.7c2.4,0,4.3,2.1,4.3,4.7
					C357.4,298.3,355.5,300.4,353.1,300.4z M353.1,292.8c-1.4,0-2.6,1.3-2.6,3c0,1.6,1.2,3,2.6,3c1.4,0,2.6-1.3,2.6-3
					C355.7,294.1,354.6,292.8,353.1,292.8z"/>
			</g>
			<g>
				<ellipse fill="#F8E12E" cx="351.8" cy="306.8" rx="3.4" ry="3.8"/>
				<path fill="#211915" d="M351.8,311.4c-2.4,0-4.3-2.1-4.3-4.7s1.9-4.7,4.3-4.7c2.4,0,4.3,2.1,4.3,4.7S354.2,311.4,351.8,311.4z
					 M351.8,303.8c-1.4,0-2.6,1.3-2.6,3s1.2,3,2.6,3s2.6-1.3,2.6-3S353.3,303.8,351.8,303.8z"/>
			</g>
			<g>
				<ellipse fill="#F8E12E" cx="342.5" cy="299.7" rx="3.1" ry="3.5"/>
				<path fill="#211915" d="M342.5,304c-2.2,0-3.9-1.9-3.9-4.3s1.8-4.3,3.9-4.3s3.9,1.9,3.9,4.3S344.7,304,342.5,304z M342.5,297.1
					c-1.2,0-2.2,1.2-2.2,2.6s1,2.6,2.2,2.6c1.2,0,2.2-1.2,2.2-2.6S343.7,297.1,342.5,297.1z"/>
			</g>
			<g>
				<ellipse fill="#F8E12E" cx="361.4" cy="302.5" rx="3.5" ry="4"/>
				<path fill="#211915" d="M361.4,307.3c-2.4,0-4.4-2.2-4.4-4.8s2-4.8,4.4-4.8c2.4,0,4.4,2.2,4.4,4.8S363.8,307.3,361.4,307.3z
					 M361.4,299.3c-1.5,0-2.7,1.4-2.7,3.2c0,1.7,1.2,3.2,2.7,3.2c1.5,0,2.7-1.4,2.7-3.2C364.1,300.7,362.9,299.3,361.4,299.3z"/>
			</g>
			<path fill="none" d="M459.7,318.1l18.2,20.3l9.3-27.2c-0.6-0.4-1.7-0.6-2.7-0.7C480.5,310.2,475.7,310.8,459.7,318.1z"/>
			<path d="M459.7,318.1c16-7.3,20.8-7.9,24.8-7.6c1,0.1,3.3,0.6,3.9,1l0.1-2c-0.7-0.4-2.5-0.6-3.9-0.7c-4.4-0.4-9.5,0.3-26.7,8.2
				l-1,0.5l20.4,22.7l2.3-0.1L459.7,318.1z"/>
			<path fill="none" d="M115.1,310.5c-1.2,0-2.2,0.1-3.1,0.2l-0.2,0c-0.7,0.1-1.5,0.1-2.4,0.1c-0.1,0-0.2,0-0.3,0l5.4,30.7
				l23.2-24.5C124.8,311.2,118.7,310.5,115.1,310.5z"/>
			<path d="M109.4,310.8c0.8,0,1.6,0,2.4-0.1l0.2,0c0.9-0.1,1.9-0.2,3.1-0.2c3.5,0,9.7,0.7,22.6,6.5l-23.2,24.5l0.3,1.3l25.7-26.4
				l-1.1-0.5c-13.9-6.4-20.6-7.1-24.4-7.1c-1.3,0-2.3,0.1-3.3,0.2l-0.2,0c-0.7,0.1-1.5,0.1-2.3,0.1c-0.2,0-0.4,0-0.6,0l0.3,1.7
				C109.2,310.8,109.3,310.8,109.4,310.8z"/>
			<g>
				<polygon fill="#FF0000" points="111.4,315 98.6,327.7 115.1,330.1 124.6,319.3 				"/>
				<path d="M115.6,331.3l-19.4-2.8l14.9-14.7l15.5,5L115.6,331.3z M101,326.9l13.7,2l8-9.1l-10.9-3.5L101,326.9z"/>
			</g>
			<g>
				<polygon fill="#FF0000" points="486,316.2 498.8,328.8 482.3,331.2 472.8,320.4 				"/>
				<path d="M481.9,332.4l-11-12.5l15.5-5l14.9,14.7L481.9,332.4z M474.8,321l8,9.1l13.7-2l-10.8-10.6L474.8,321z"/>
			</g>
			<g>
				<path fill="#F8E12E" d="M84.5,229.5c0,0-19.5-76.4,116.3-89.3c0,0,61.9-4.7,91.8-45.8l-5,10c-47.1,56.9-107.5,33.3-157.6,58.9
					c-52.7,26.9-38.2,76-38.2,76L84.5,229.5z"/>
				<path fill="#211915" d="M93.9,243.7l-10.2-14c-0.1-0.2-5.5-22.6,10.3-45c17.6-25,53.5-40.2,106.8-45.3c0.6,0,61.9-5.2,91.2-45.4
					l1.4,0.9l-5,10c-29.5,35.7-64.3,40.1-98,44.4c-21.2,2.7-41.1,5.2-60,14.9c-26.9,13.7-35.7,33.3-38.4,47.4
					c-2.9,15.3,0.6,27.5,0.6,27.6L93.9,243.7z M85.3,229.1l4.8,6.6c-2.1-12.2-4.7-50.6,39.5-73.1c19.2-9.8,40.2-12.5,60.6-15
					c33.3-4.2,67.8-8.6,96.8-43.6l1.5-2.9c-31.1,35.3-86.9,40-87.5,40c-52.7,5-88.3,20-105.6,44.5C80.7,206.4,84.9,227.1,85.3,229.1
					z"/>
			</g>
			<g>
				<path fill="#F8E12E" d="M74.2,230.3c0,0-10.5-79.6,122.2-92.9c83.4-8.4,87.9-40.2,87.9-40.2s-12.1,25.6-109.4,37.4
					C64.2,148,65.3,227,65.3,227L74.2,230.3z"/>
				<path fill="#211915" d="M75.2,231.6l-10.8-4l0-0.6c0-0.2-0.1-20.2,13.4-41.6c12.5-19.7,39.4-44.6,97-51.6
					c95.7-11.6,108.6-36.7,108.7-36.9l2.3-5l-0.8,5.4c-0.2,1.3-5.5,32.6-88.6,40.9c-50.6,5.1-86.3,20.3-106,45.1
					C72.2,206.5,75,230,75,230.2L75.2,231.6z M66.1,226.4l7.1,2.7c-0.3-5.4-0.3-26.2,15.9-46.7c20-25.2,56-40.6,107.1-45.7
					c61.6-6.2,79.8-25.3,85.1-34.4c-8.2,8-33.4,24.5-106.4,33.3c-31.4,3.8-73.4,15.7-95.7,50.7C67.3,205.2,66.2,223,66.1,226.4z"/>
			</g>
			<g>
				<path fill="#F8E12E" d="M164.3,192.6c0,0-8.6-41.6,69.7-57.8c0,0-60.5,18.4-62.8,58L164.3,192.6z"/>
				<path fill="#211915" d="M172.1,193.8l-8.5-0.3l-0.1-0.6c-0.1-0.5-2.3-11.5,6.3-24.5c10.6-16.1,32.1-27.6,64.1-34.2l0.4,1.6
					c-0.6,0.2-60,18.7-62.2,57.3L172.1,193.8z M165.1,191.8l5.5,0.2c2.2-28.1,33.6-45.7,51.3-53.4c-24.5,6.7-41.9,17.2-50.6,30.5
					C164.2,179.9,164.7,189.4,165.1,191.8z"/>
			</g>
			<g>
				<path fill="#F8E12E" d="M189.4,196.8c0,0-5-33.5,42.1-47.4c47.1-13.9,56.6-32.6,58.6-44.4l-2-2.5c0,0-7,31-61.7,42.1
					c-37.7,7.7-43,48-43,48L189.4,196.8z"/>
				<path fill="#211915" d="M190.6,198.7l-7.9-5.6l0.1-0.5c0.1-0.4,5.8-41,43.6-48.7c53.5-10.9,60.9-41.2,61-41.5l0.4-1.7l3.3,4.2
					l-0.1,0.4c-3.2,19.2-23.1,34.4-59.2,45c-24,7.1-34,19.4-38.2,28.4c-4.5,9.8-3.4,18-3.4,18.1L190.6,198.7z M184.5,192.3l4,2.9
					c-0.2-7.3,1.9-34.4,42.8-46.5c35.2-10.4,54.7-25,57.9-43.3l-0.7-1c-2.4,6.5-14.3,31.5-61.8,41.2
					C192.3,152.5,185.3,187.7,184.5,192.3z"/>
			</g>
			<g>
				<path fill="#F8E12E" d="M291.3,182.3c0,0-8.6-8.9-8.6-25.4s13.9-72.8,13.9-72.8l-5,16.5c-3.3,23.4-19,41-19,59.4
					s19.5,23.4,19.5,23.4"/>
				<path fill="#211915" d="M291.9,184.3c-0.2-0.1-20.2-5.4-20.2-24.2c0-9.7,4.3-19.2,8.8-29.2c4.2-9.4,8.6-19.2,10.2-30.4l5-16.6
					l1.6,0.4c-0.1,0.6-13.9,56.4-13.9,72.6c0,15.9,8.3,24.7,8.4,24.8l-0.6,0.6c0.6,0.2,0.9,0.3,1,0.3L291.9,184.3z M288.2,116.8
					c-1.8,5.1-4,9.9-6.2,14.7c-4.4,9.9-8.6,19.2-8.6,28.5c0,13.7,11,19.7,16.3,21.7c-2.3-3-7.9-11.4-7.9-24.8
					C281.8,149,284.9,132.3,288.2,116.8z"/>
			</g>
			<g>
				<ellipse fill="#FFFFFF" cx="69.7" cy="210.6" rx="13.1" ry="13.7"/>
				<path fill="#211915" d="M69.7,225.1c-7.7,0-13.9-6.5-13.9-14.5c0-8,6.3-14.5,13.9-14.5s13.9,6.5,13.9,14.5
					C83.6,218.6,77.4,225.1,69.7,225.1z M69.7,197.8c-6.8,0-12.3,5.8-12.3,12.8s5.5,12.8,12.3,12.8s12.3-5.8,12.3-12.8
					S76.4,197.8,69.7,197.8z"/>
			</g>
			<g>
				<ellipse fill="#FFFFFF" cx="86.8" cy="176.7" rx="13.1" ry="13.6"/>
				<path fill="#211915" d="M86.8,191.1c-7.7,0-13.9-6.5-13.9-14.4c0-7.9,6.3-14.4,13.9-14.4s13.9,6.5,13.9,14.4
					C100.7,184.6,94.5,191.1,86.8,191.1z M86.8,163.9c-6.8,0-12.3,5.7-12.3,12.7s5.5,12.7,12.3,12.7S99,183.7,99,176.7
					S93.5,163.9,86.8,163.9z"/>
			</g>
			<g>
				<ellipse fill="#FFFFFF" cx="115.5" cy="150" rx="12.5" ry="14.2"/>
				<path fill="#211915" d="M115.5,165c-7.3,0-13.3-6.8-13.3-15.1s6-15.1,13.3-15.1s13.3,6.8,13.3,15.1S122.8,165,115.5,165z
					 M115.5,136.6c-6.4,0-11.6,6-11.6,13.4c0,7.4,5.2,13.4,11.6,13.4s11.6-6,11.6-13.4C127.1,142.6,121.9,136.6,115.5,136.6z"/>
			</g>
			<g>
				<ellipse fill="#FFFFFF" cx="151.3" cy="136.1" rx="11.6" ry="12.6"/>
				<path fill="#211915" d="M151.3,149.6c-6.9,0-12.5-6-12.5-13.5c0-7.4,5.6-13.5,12.5-13.5s12.5,6,12.5,13.5
					C163.8,143.5,158.2,149.6,151.3,149.6z M151.3,124.3c-5.9,0-10.8,5.3-10.8,11.8s4.8,11.8,10.8,11.8s10.8-5.3,10.8-11.8
					S157.3,124.3,151.3,124.3z"/>
			</g>
			<g>
				<circle fill="#FFFFFF" cx="187.8" cy="130.6" r="10.7"/>
				<path fill="#211915" d="M187.8,142.2c-6.4,0-11.5-5.2-11.5-11.5c0-6.4,5.2-11.5,11.5-11.5s11.5,5.2,11.5,11.5
					C199.3,137,194.1,142.2,187.8,142.2z M187.8,120.8c-5.4,0-9.9,4.4-9.9,9.9c0,5.4,4.4,9.9,9.9,9.9c5.4,0,9.9-4.4,9.9-9.9
					C197.6,125.2,193.2,120.8,187.8,120.8z"/>
			</g>
			<g>
				<circle fill="#FFFFFF" cx="217.9" cy="124.5" r="9.4"/>
				<path fill="#211915" d="M217.9,134.7c-5.6,0-10.2-4.6-10.2-10.2c0-5.6,4.6-10.2,10.2-10.2c5.6,0,10.2,4.6,10.2,10.2
					C228.1,130.1,223.5,134.7,217.9,134.7z M217.9,115.9c-4.7,0-8.6,3.8-8.6,8.6c0,4.7,3.8,8.6,8.6,8.6c4.7,0,8.6-3.8,8.6-8.6
					C226.5,119.8,222.6,115.9,217.9,115.9z"/>
			</g>
			<g>
				<circle fill="#FFFFFF" cx="244.5" cy="119.3" r="8.6"/>
				<path fill="#211915" d="M244.5,128.8c-5.2,0-9.5-4.3-9.5-9.5s4.3-9.5,9.5-9.5s9.5,4.3,9.5,9.5S249.7,128.8,244.5,128.8z
					 M244.5,111.5c-4.3,0-7.8,3.5-7.8,7.8c0,4.3,3.5,7.8,7.8,7.8s7.8-3.5,7.8-7.8C252.3,115,248.8,111.5,244.5,111.5z"/>
			</g>
			<g>
				<circle fill="#FFFFFF" cx="265" cy="111.8" r="6.6"/>
				<path fill="#211915" d="M265,119.3c-4.1,0-7.4-3.3-7.4-7.4c0-4.1,3.3-7.4,7.4-7.4s7.4,3.3,7.4,7.4
					C272.4,115.9,269.1,119.3,265,119.3z M265,106.1c-3.2,0-5.8,2.6-5.8,5.8s2.6,5.8,5.8,5.8s5.8-2.6,5.8-5.8S268.1,106.1,265,106.1
					z"/>
			</g>
			<g>
				<circle fill="#FFFFFF" cx="282.9" cy="105" r="7.3"/>
				<path fill="#211915" d="M282.9,113.1c-4.5,0-8.1-3.6-8.1-8.1s3.6-8.1,8.1-8.1s8.1,3.6,8.1,8.1S287.4,113.1,282.9,113.1z
					 M282.9,98.6c-3.5,0-6.4,2.9-6.4,6.4c0,3.5,2.9,6.4,6.4,6.4c3.5,0,6.4-2.9,6.4-6.4C289.3,101.5,286.4,98.6,282.9,98.6z"/>
			</g>
			<g>
				<circle fill="#FFFFFF" cx="176" cy="167.7" r="13.6"/>
				<path fill="#211915" d="M176,182.1c-7.9,0-14.4-6.5-14.4-14.4s6.5-14.4,14.4-14.4c7.9,0,14.4,6.5,14.4,14.4
					S183.9,182.1,176,182.1z M176,155c-7,0-12.7,5.7-12.7,12.7s5.7,12.7,12.7,12.7s12.7-5.7,12.7-12.7S183,155,176,155z"/>
			</g>
			<g>
				<circle fill="#FFFFFF" cx="200.2" cy="143.6" r="11.8"/>
				<path fill="#211915" d="M200.2,156.2c-6.9,0-12.6-5.7-12.6-12.6c0-6.9,5.7-12.6,12.6-12.6c6.9,0,12.6,5.7,12.6,12.6
					C212.8,150.5,207.1,156.2,200.2,156.2z M200.2,132.6c-6,0-10.9,4.9-10.9,10.9c0,6,4.9,10.9,10.9,10.9s10.9-4.9,10.9-10.9
					C211.1,137.5,206.2,132.6,200.2,132.6z"/>
			</g>
			<g>
				<circle fill="#FFFFFF" cx="230.4" cy="134.7" r="10.6"/>
				<path fill="#211915" d="M230.4,146.2c-6.3,0-11.5-5.1-11.5-11.5s5.1-11.5,11.5-11.5c6.3,0,11.5,5.1,11.5,11.5
					S236.7,146.2,230.4,146.2z M230.4,125c-5.4,0-9.8,4.4-9.8,9.8s4.4,9.8,9.8,9.8s9.8-4.4,9.8-9.8S235.8,125,230.4,125z"/>
			</g>
			<g>
				<circle fill="#FFFFFF" cx="251.7" cy="126.7" r="9.6"/>
				<path fill="#211915" d="M251.7,137c-5.7,0-10.4-4.7-10.4-10.4c0-5.7,4.7-10.4,10.4-10.4c5.7,0,10.4,4.7,10.4,10.4
					C262.1,132.4,257.4,137,251.7,137z M251.7,117.9c-4.8,0-8.7,3.9-8.7,8.7s3.9,8.7,8.7,8.7s8.7-3.9,8.7-8.7
					S256.5,117.9,251.7,117.9z"/>
			</g>
			<g>
				<circle fill="#FFFFFF" cx="270.2" cy="117.5" r="8.1"/>
				<path fill="#211915" d="M270.2,126.4c-4.9,0-8.9-4-8.9-8.9c0-4.9,4-8.9,8.9-8.9s8.9,4,8.9,8.9
					C279.1,122.4,275.1,126.4,270.2,126.4z M270.2,110.3c-4,0-7.3,3.3-7.3,7.3c0,4,3.3,7.3,7.3,7.3s7.3-3.3,7.3-7.3
					C277.4,113.5,274.2,110.3,270.2,110.3z"/>
			</g>
			<g>
				<circle fill="#FFFFFF" cx="297.2" cy="108.2" r="5.6"/>
				<path fill="#211915" d="M297.2,114.6c-3.5,0-6.4-2.9-6.4-6.4s2.9-6.4,6.4-6.4s6.4,2.9,6.4,6.4S300.8,114.6,297.2,114.6z
					 M297.2,103.5c-2.6,0-4.7,2.1-4.7,4.7c0,2.6,2.1,4.7,4.7,4.7s4.7-2.1,4.7-4.7C301.9,105.6,299.8,103.5,297.2,103.5z"/>
			</g>
			<g>
				<circle fill="#FFFFFF" cx="297.2" cy="117.8" r="7.1"/>
				<path fill="#211915" d="M297.2,125.8c-4.4,0-7.9-3.6-7.9-7.9c0-4.4,3.6-7.9,7.9-7.9s7.9,3.6,7.9,7.9
					C305.2,122.2,301.6,125.8,297.2,125.8z M297.2,111.6c-3.5,0-6.3,2.8-6.3,6.3s2.8,6.3,6.3,6.3s6.3-2.8,6.3-6.3
					S300.7,111.6,297.2,111.6z"/>
			</g>
			<g>
				<circle fill="#FFFFFF" cx="297.2" cy="130.2" r="9.2"/>
				<path fill="#211915" d="M297.2,140.2c-5.5,0-10-4.5-10-10c0-5.5,4.5-10,10-10c5.5,0,10,4.5,10,10
					C307.2,135.7,302.7,140.2,297.2,140.2z M297.2,121.9c-4.6,0-8.3,3.7-8.3,8.3c0,4.6,3.7,8.3,8.3,8.3c4.6,0,8.3-3.7,8.3-8.3
					C305.5,125.6,301.8,121.9,297.2,121.9z"/>
			</g>
			<g>
				<circle fill="#FFFFFF" cx="297.2" cy="145.8" r="11.4"/>
				<path fill="#211915" d="M297.2,158c-6.7,0-12.2-5.5-12.2-12.2c0-6.7,5.5-12.2,12.2-12.2c6.7,0,12.2,5.5,12.2,12.2
					C309.4,152.5,304,158,297.2,158z M297.2,135.3c-5.8,0-10.5,4.7-10.5,10.5c0,5.8,4.7,10.5,10.5,10.5c5.8,0,10.5-4.7,10.5-10.5
					C307.7,140,303,135.3,297.2,135.3z"/>
			</g>
			<g>
				<circle fill="#FFFFFF" cx="297.2" cy="162.2" r="13.4"/>
				<path fill="#211915" d="M297.2,176.4c-7.8,0-14.2-6.4-14.2-14.2c0-7.8,6.4-14.2,14.2-14.2c7.8,0,14.2,6.4,14.2,14.2
					C311.5,170,305.1,176.4,297.2,176.4z M297.2,149.6c-6.9,0-12.6,5.6-12.6,12.6c0,6.9,5.6,12.6,12.6,12.6s12.6-5.6,12.6-12.6
					C309.8,155.3,304.2,149.6,297.2,149.6z"/>
			</g>
			<g>
				<path fill="#F8E12E" d="M509.9,229.5c0,0,19.5-76.4-116.3-89.3c0,0-61.9-4.7-91.8-45.8l5,10c47.1,56.9,108,32.4,157.6,58.9
					c49.6,26.5,38.1,79,38.1,79L509.9,229.5z"/>
				<path fill="#211915" d="M500.5,247.4l1.2-5.3c0.1-0.5,10.8-52.1-37.6-78c-19-10.2-39.4-12.7-60.9-15.4
					c-33.4-4.2-67.9-8.5-97-43.7L301,94.8l1.4-0.9c29.3,40.2,90.6,45.4,91.2,45.4c53.3,5,89.2,20.3,106.8,45.3
					c15.8,22.4,10.3,44.8,10.3,45l-0.1,0.2L500.5,247.4z M306,101.1l1.5,3.1c28.6,34.5,62.8,38.8,95.8,42.9
					c20.7,2.6,42.1,5.3,61.5,15.6c41.2,22,40.6,62.2,39.1,75.5l5.2-8.9c0.4-1.7,4.7-22.6-10-43.6C481.7,161,446.2,146,393.5,141
					C392.9,141,337.1,136.3,306,101.1z"/>
			</g>
			<g>
				<path fill="#F8E12E" d="M520.2,230.3c0,0,10.5-79.6-122.2-92.9c-83.4-8.4-87.9-40.2-87.9-40.2s12.1,25.6,109.4,37.4
					C530.2,148,529.1,227,529.1,227L520.2,230.3z"/>
				<path fill="#211915" d="M519.2,231.6l0.2-1.4c0-0.2,2.9-23.7-15.5-46.9c-19.7-24.8-55.3-40-105.9-45.1
					c-83.1-8.3-88.4-39.6-88.6-40.9l-0.8-5.4l2.3,5c0.1,0.2,13.4,25.4,108.7,36.9c31.8,3.8,74.4,15.9,97,51.6
					c13.5,21.4,13.4,41.4,13.4,41.6l0,0.6L519.2,231.6z M313.1,102.2c5.4,9.2,23.7,28.2,85,34.4c51.1,5.1,87.1,20.5,107.1,45.7
					c16.2,20.5,16.3,41.3,15.9,46.7l7.1-2.7c-0.1-3.4-1.2-21.2-13.2-40.2c-12.3-19.4-38.9-43.9-95.7-50.7
					C346.6,126.7,321.4,110.2,313.1,102.2z"/>
			</g>
			<g>
				<path fill="#F8E12E" d="M430.1,192.6c0,0,8.6-41.6-69.7-57.8c0,0,60.5,18.4,62.8,58L430.1,192.6z"/>
				<path fill="#211915" d="M422.3,193.8l0-0.8c-2.2-38.6-61.6-57.1-62.2-57.3l0.4-1.6c32,6.6,53.5,18.1,64.1,34.2
					c8.6,13,6.4,24.1,6.3,24.5l-0.1,0.6L422.3,193.8z M372.5,138.7c17.7,7.7,49.2,25.2,51.4,53.4l5.5-0.2
					C429.9,186.9,431.3,154.8,372.5,138.7z"/>
			</g>
			<g>
				<path fill="#F8E12E" d="M405,196.8c0,0,5-33.5-42.1-47.4c-47.1-13.9-56.6-32.6-58.6-44.4l2-2.5c0,0,7,31,61.7,42.1
					c37.7,7.7,43,48,43,48L405,196.8z"/>
				<path fill="#211915" d="M403.9,198.7l0.3-1.9c0-0.3,4.3-32.9-41.5-46.5c-36.1-10.7-56-25.8-59.2-45l-0.1-0.4l3.3-4.2l0.4,1.7
					c0.1,0.3,7.6,30.6,61,41.5c37.8,7.7,43.6,48.3,43.6,48.7l0.1,0.5L403.9,198.7z M305.2,105.3c3.3,18.4,22.8,32.9,57.9,43.3
					c40.9,12.1,43.1,39.2,42.8,46.5l4-2.9c-0.8-4.6-7.8-39.8-42.2-46.8c-28.5-5.8-43.9-17.1-51.8-25.5c-6.4-6.8-9.1-12.9-10-15.7
					L305.2,105.3z"/>
			</g>
			<g>
				<path fill="#F8E12E" d="M303.1,182.3c0,0,8.6-8.9,8.6-25.4s-13.9-72.8-13.9-72.8l5,16.5c3.3,23.4,19,41,19,59.4
					s-19.5,23.4-19.5,23.4"/>
				<path fill="#211915" d="M302.5,184.3l-0.4-1.6c0.1,0,0.5-0.1,1-0.3l-0.6-0.6c0.1-0.1,8.4-8.9,8.4-24.8
					c0-16.2-13.8-72.1-13.9-72.6l1.6-0.4l5,16.5c1.6,11.3,6,21.1,10.2,30.5c4.5,10,8.8,19.5,8.8,29.2
					C322.7,178.9,302.7,184.2,302.5,184.3z M306.2,116.8c3.3,15.5,6.4,32.2,6.4,40.2c0,13.4-5.5,21.8-7.9,24.8
					c5.2-2.1,16.3-8,16.3-21.7c0-9.4-4.2-18.7-8.6-28.5C310.2,126.7,308.1,121.9,306.2,116.8z"/>
			</g>
			<g>
				<ellipse fill="#FFFFFF" cx="524.8" cy="210.6" rx="13.1" ry="13.7"/>
				<path fill="#211915" d="M524.8,225.1c-7.7,0-13.9-6.5-13.9-14.5c0-8,6.3-14.5,13.9-14.5s13.9,6.5,13.9,14.5
					C538.7,218.6,532.5,225.1,524.8,225.1z M524.8,197.8c-6.8,0-12.3,5.8-12.3,12.8s5.5,12.8,12.3,12.8c6.8,0,12.3-5.8,12.3-12.8
					S531.5,197.8,524.8,197.8z"/>
			</g>
			<g>
				<ellipse fill="#FFFFFF" cx="507.6" cy="176.7" rx="13.1" ry="13.6"/>
				<path fill="#211915" d="M507.6,191.1c-7.7,0-13.9-6.5-13.9-14.4c0-7.9,6.3-14.4,13.9-14.4c7.7,0,13.9,6.5,13.9,14.4
					C521.6,184.6,515.3,191.1,507.6,191.1z M507.6,163.9c-6.8,0-12.3,5.7-12.3,12.7s5.5,12.7,12.3,12.7s12.3-5.7,12.3-12.7
					S514.4,163.9,507.6,163.9z"/>
			</g>
			<g>
				<ellipse fill="#FFFFFF" cx="478.9" cy="150" rx="12.5" ry="14.2"/>
				<path fill="#211915" d="M478.9,165c-7.3,0-13.3-6.8-13.3-15.1s6-15.1,13.3-15.1c7.3,0,13.3,6.8,13.3,15.1S486.2,165,478.9,165z
					 M478.9,136.6c-6.4,0-11.6,6-11.6,13.4c0,7.4,5.2,13.4,11.6,13.4c6.4,0,11.6-6,11.6-13.4C490.5,142.6,485.3,136.6,478.9,136.6z"
					/>
			</g>
			<g>
				<ellipse fill="#FFFFFF" cx="443.1" cy="136.1" rx="11.6" ry="12.6"/>
				<path fill="#211915" d="M443.1,149.6c-6.9,0-12.5-6-12.5-13.5c0-7.4,5.6-13.5,12.5-13.5s12.5,6,12.5,13.5
					C455.6,143.5,450,149.6,443.1,149.6z M443.1,124.3c-5.9,0-10.8,5.3-10.8,11.8s4.8,11.8,10.8,11.8c5.9,0,10.8-5.3,10.8-11.8
					S449.1,124.3,443.1,124.3z"/>
			</g>
			<g>
				<circle fill="#FFFFFF" cx="406.7" cy="130.6" r="10.7"/>
				<path fill="#211915" d="M406.7,142.2c-6.4,0-11.5-5.2-11.5-11.5c0-6.4,5.2-11.5,11.5-11.5c6.4,0,11.5,5.2,11.5,11.5
					C418.2,137,413,142.2,406.7,142.2z M406.7,120.8c-5.4,0-9.9,4.4-9.9,9.9c0,5.4,4.4,9.9,9.9,9.9c5.4,0,9.9-4.4,9.9-9.9
					C416.5,125.2,412.1,120.8,406.7,120.8z"/>
			</g>
			<g>
				<circle fill="#FFFFFF" cx="376.5" cy="124.5" r="9.4"/>
				<path fill="#211915" d="M376.5,134.7c-5.6,0-10.2-4.6-10.2-10.2c0-5.6,4.6-10.2,10.2-10.2c5.6,0,10.2,4.6,10.2,10.2
					C386.8,130.1,382.2,134.7,376.5,134.7z M376.5,115.9c-4.7,0-8.6,3.8-8.6,8.6c0,4.7,3.8,8.6,8.6,8.6s8.6-3.8,8.6-8.6
					C385.1,119.8,381.2,115.9,376.5,115.9z"/>
			</g>
			<g>
				<circle fill="#FFFFFF" cx="349.9" cy="119.3" r="8.6"/>
				<path fill="#211915" d="M349.9,128.8c-5.2,0-9.5-4.3-9.5-9.5s4.3-9.5,9.5-9.5s9.5,4.3,9.5,9.5S355.2,128.8,349.9,128.8z
					 M349.9,111.5c-4.3,0-7.8,3.5-7.8,7.8c0,4.3,3.5,7.8,7.8,7.8s7.8-3.5,7.8-7.8C357.7,115,354.2,111.5,349.9,111.5z"/>
			</g>
			<g>
				<circle fill="#FFFFFF" cx="329.5" cy="111.8" r="6.6"/>
				<path fill="#211915" d="M329.5,119.3c-4.1,0-7.4-3.3-7.4-7.4c0-4.1,3.3-7.4,7.4-7.4c4.1,0,7.4,3.3,7.4,7.4
					C336.9,115.9,333.6,119.3,329.5,119.3z M329.5,106.1c-3.2,0-5.8,2.6-5.8,5.8s2.6,5.8,5.8,5.8s5.8-2.6,5.8-5.8
					S332.6,106.1,329.5,106.1z"/>
			</g>
			<g>
				<circle fill="#FFFFFF" cx="311.5" cy="105" r="7.3"/>
				<path fill="#211915" d="M311.5,113.1c-4.5,0-8.1-3.6-8.1-8.1s3.6-8.1,8.1-8.1s8.1,3.6,8.1,8.1S316,113.1,311.5,113.1z
					 M311.5,98.6c-3.5,0-6.4,2.9-6.4,6.4c0,3.5,2.9,6.4,6.4,6.4c3.5,0,6.4-2.9,6.4-6.4C317.9,101.5,315.1,98.6,311.5,98.6z"/>
			</g>
			<g>
				<circle fill="#FFFFFF" cx="418.4" cy="167.7" r="13.6"/>
				<path fill="#211915" d="M418.4,182.1c-7.9,0-14.4-6.5-14.4-14.4s6.5-14.4,14.4-14.4s14.4,6.5,14.4,14.4S426.4,182.1,418.4,182.1
					z M418.4,155c-7,0-12.7,5.7-12.7,12.7s5.7,12.7,12.7,12.7s12.7-5.7,12.7-12.7S425.5,155,418.4,155z"/>
			</g>
			<g>
				<circle fill="#FFFFFF" cx="394.3" cy="143.6" r="11.8"/>
				<path fill="#211915" d="M394.3,156.2c-6.9,0-12.6-5.7-12.6-12.6c0-6.9,5.7-12.6,12.6-12.6s12.6,5.7,12.6,12.6
					C406.9,150.5,401.2,156.2,394.3,156.2z M394.3,132.6c-6,0-10.9,4.9-10.9,10.9c0,6,4.9,10.9,10.9,10.9s10.9-4.9,10.9-10.9
					C405.2,137.5,400.3,132.6,394.3,132.6z"/>
			</g>
			<g>
				<circle fill="#FFFFFF" cx="364" cy="134.7" r="10.6"/>
				<path fill="#211915" d="M364,146.2c-6.3,0-11.5-5.1-11.5-11.5s5.1-11.5,11.5-11.5c6.3,0,11.5,5.1,11.5,11.5
					S370.3,146.2,364,146.2z M364,125c-5.4,0-9.8,4.4-9.8,9.8s4.4,9.8,9.8,9.8c5.4,0,9.8-4.4,9.8-9.8S369.4,125,364,125z"/>
			</g>
			<g>
				<circle fill="#FFFFFF" cx="342.8" cy="126.7" r="9.6"/>
				<path fill="#211915" d="M342.8,137c-5.7,0-10.4-4.7-10.4-10.4c0-5.7,4.7-10.4,10.4-10.4s10.4,4.7,10.4,10.4
					C353.2,132.4,348.5,137,342.8,137z M342.8,117.9c-4.8,0-8.7,3.9-8.7,8.7s3.9,8.7,8.7,8.7c4.8,0,8.7-3.9,8.7-8.7
					S347.6,117.9,342.8,117.9z"/>
			</g>
			<g>
				<circle fill="#FFFFFF" cx="324.2" cy="117.5" r="8.1"/>
				<path fill="#211915" d="M324.2,126.4c-4.9,0-8.9-4-8.9-8.9c0-4.9,4-8.9,8.9-8.9s8.9,4,8.9,8.9
					C333.2,122.4,329.2,126.4,324.2,126.4z M324.2,110.3c-4,0-7.3,3.3-7.3,7.3c0,4,3.3,7.3,7.3,7.3s7.3-3.3,7.3-7.3
					C331.5,113.5,328.2,110.3,324.2,110.3z"/>
			</g>
			<g>
				<path fill="#F8E12E" d="M501.2,281.1c0,0-4.7-4.7-11.9,1.3c-7.3,6-8,6-11.9,6c-4,0-13.2,0.6-18.1-17.6l-2.6-5.2l-6.4-0.8
					c0,0-12.5,13.3-19.3,12.4c-6.8-0.8-16.6-6.3-18.9-28.3s-1-8.8-1-8.8l-4.5,2.8l-4.3,4.5c0,0-15.6,21.3-26.7,21.3
					c-11.1,0-18.1-16.7-18.1-16.7l-6.1-1.3c0,0-13.1,15.5-22.6,15.5c-9.5,0-24-9.2-26-28.6s-5.5-5.9-5.5-5.9l-0.4,0.3l-0.4-0.3
					c0,0-3.5-13.5-5.4,5.9c-2,19.4-16.2,28.6-25.5,28.6c-9.3,0-22.2-15.5-22.2-15.5l-6,1.3c0,0-6.8,16.7-17.7,16.7
					c-10.9,0-26.2-21.3-26.2-21.3l-4.2-4.5l-4.5-2.8c0,0,1.3-13.3-1,8.8c-2.2,22-11.9,27.5-18.6,28.3c-6.7,0.8-19-12.4-19-12.4
					l-6.3,0.8l-2.5,5.2c-4.7,18.1-13.8,17.6-17.7,17.6s-4.6,0-11.7-6c-7.1-6-11.7-1.3-11.7-1.3c-3.1,2.7,6,16,21.6,16.3
					c21.8,0.4,26.1-18.2,26.7-21.7c0.1-0.4,0.2-0.4,0.4-0.2c2,2.5,12.8,14.8,24.5,11.4c17.2-5,21.2-22.7,21.9-26.5
					c0.1-0.5,0.2-0.5,0.4-0.2c1.7,3.2,10.8,19.4,26.5,19.4c15.7,0,22.7-14.2,23.9-17.1c0.1-0.3,0.3-0.4,0.5-0.1
					c1.8,2.2,10.7,12.7,25.1,12.7c23.5,0,28.9-27.3,28.9-27.3l0.1-6.3l0.1,6.3c0,0,5.4,27.3,29.4,27.3c14.6,0,23.8-10.5,25.6-12.7
					c0.2-0.3,0.4-0.2,0.5,0.1c1.3,2.9,8.4,17.1,24.4,17.1c16,0,25.3-16.2,27-19.4c0.2-0.4,0.3-0.3,0.4,0.2
					c0.7,3.8,4.8,21.5,22.3,26.5c11.9,3.4,22.9-9,25-11.4c0.2-0.3,0.4-0.2,0.4,0.2c0.6,3.6,5,22.1,27.2,21.7
					C495.1,297.1,504.3,283.7,501.2,281.1z"/>
				<path fill="#211915" d="M478.5,298.3c-20.5,0-25.9-15.9-27.1-21.3c-2.9,3.2-11.1,11.4-20.6,11.4c-1.5,0-3-0.2-4.4-0.6
					c-16.2-4.6-21.3-19.9-22.6-25.6c-3.1,5.2-12.2,18.3-26.9,18.3c-15.4,0-22.8-12.7-24.8-16.8c-2.7,3.1-11.8,12.4-25.7,12.4
					c-19.8,0-27.3-18.2-29.5-25.3c-2.2,7.2-9.6,25.3-29,25.3c-13.6,0-22.5-9.2-25.2-12.3c-2,4.1-9.3,16.8-24.3,16.8
					c-14.4,0-23.4-13.1-26.4-18.3c-1.4,5.9-6.4,20.9-22.2,25.5c-1.4,0.4-2.9,0.6-4.4,0.6c-9.3,0-17.3-8.1-20.2-11.4
					c-1.2,5.5-6.6,21.3-26.6,21.3l-0.7,0c-12.2-0.2-20.7-8.2-22.6-13.5c-0.9-2.5-0.1-3.8,0.5-4.2c0,0,2-2,5.2-2c2.5,0,5,1.1,7.6,3.2
					c6.9,5.8,7.5,5.8,11.2,5.8l0.7,0c3.5,0,11.7,0,16.2-17l2.8-5.7l7.2-1l0.3,0.3c0.1,0.1,11.4,12.2,17.7,12.2c0.2,0,0.4,0,0.5,0
					c5.7-0.7,15.6-5.2,17.8-27.6c0.6-5.9,0.9-9.3,1.2-11.1c0.1-0.7,0.1-1.4,0.1-1.5l0.1,0c0.2-0.8,0.4-0.8,0.7-0.8h0.4l0.2,0.3
					c0.1,0.1,0.2,0.2,0.2,0.7l0,0c0,0,0,0.1,0,0.1c0,0.5-0.1,1.5-0.3,3.2l4.2,2.7l4.2,4.5c0.2,0.3,15.3,21.1,25.6,21.1
					c10.2,0,16.9-16.1,16.9-16.2l0.2-0.4l6.9-1.5l0.3,0.4c0.1,0.2,12.7,15.2,21.5,15.2c8.8,0,22.8-8.8,24.7-27.8
					c1-9.8,2.4-11.2,3.7-11.2c1.4,0,2.3,1.9,2.9,3.7c0.6-1.8,1.6-3.7,3-3.7c1.4,0,2.8,1.4,3.8,11.2c2,19,16.2,27.8,25.2,27.8
					c9,0,21.8-15,22-15.2l0.3-0.4l7,1.4l0.2,0.4c0.1,0.2,6.9,16.2,17.3,16.2c10.5,0,25.9-20.8,26.1-21l4.5-4.7l4.1-2.5
					c-0.2-1.7-0.3-2.7-0.3-3.2c0-0.1,0-0.1,0-0.1l0,0c0-0.5,0.1-0.6,0.2-0.7l0.2-0.3h0.4c0.3,0,0.5,0,0.7,0.8l0.1,0
					c0,0.1,0.1,0.8,0.1,1.5c0.3,1.9,0.6,5.2,1.2,11.2c2.3,22.3,12.4,26.9,18.2,27.6c6.4,0.8,18.5-12,18.6-12.2l0.3-0.3l7.3,1
					l2.8,5.6c4.6,17.1,13,17.1,16.6,17.1l0.7,0c3.8,0,4.4,0,11.4-5.8c2.6-2.1,5.2-3.2,7.7-3.2c3.3,0,5.3,1.9,5.4,2
					c0.5,0.4,1.3,1.6,0.5,4.1c-1.9,5.4-10.6,13.4-23.1,13.6L478.5,298.3z M451.7,274.5c0.2,0,0.9,0.1,1,1c0.6,3.5,4.8,21,25.7,21
					l0.7,0c12.1-0.2,20-8.3,21.5-12.5c0.4-1.1,0.4-2,0-2.3c-0.1-0.1-1.6-1.6-4.3-1.6c-2.1,0-4.3,1-6.6,2.8c-7.3,6-8.2,6.2-12.5,6.2
					l-0.7,0c-6.2,0-13.8-2.1-18.1-18.2l-2.3-4.6l-5.5-0.7c-2,2.1-13.1,13.2-19.7,12.4c-6.3-0.8-17.2-5.6-19.6-29.1
					c-0.3-3.3-0.6-5.7-0.8-7.5l-3.4,2.1l-4.2,4.4c-0.6,0.8-16,21.6-27.3,21.6c-10.7,0-17.5-14.2-18.6-16.8l-5.2-1.1
					c-2.1,2.5-13.9,15.4-22.9,15.4c-9.6,0-24.8-9.3-26.8-29.3c-0.9-8.8-2-9.6-2.2-9.7c-0.3,0.2-1.2,2.1-1.7,4l-0.1,0.2l-1.1,1
					l-1.1-1l-0.1-0.2c-0.5-1.9-1.3-3.8-1.8-4c0,0.1-1.1,0.9-2,9.7c-2,20-16.9,29.3-26.4,29.3c-8.9,0-20.4-12.9-22.5-15.4l-5.1,1.1
					c-1.2,2.7-7.9,16.8-18.3,16.8c-11.2,0-26.3-20.8-26.9-21.7l-4-4.3l-3.3-2.1c-0.2,1.8-0.4,4.2-0.8,7.5
					c-2.4,23.5-13.1,28.3-19.3,29.1c-6.5,0.8-17.4-10.3-19.4-12.4l-5.4,0.7l-2.3,4.8c-4.2,16-11.7,18-17.7,18l-0.7,0
					c-4.2,0-5.1-0.2-12.3-6.2c-2.2-1.9-4.4-2.8-6.5-2.8c-2.6,0-4.1,1.5-4.1,1.5c-0.5,0.4-0.5,1.3,0,2.5c1.8,4.9,9.7,12.2,21.1,12.4
					l0.6,0c20.5,0,24.6-17.5,25.2-21c0.2-1,0.8-1,1-1c0.3,0,0.6,0.2,0.9,0.5c1.6,2,10,11.7,19.7,11.7c1.3,0,2.6-0.2,3.9-0.6
					c16.8-4.9,20.7-22.4,21.3-25.8c0.2-0.9,0.6-1.1,1-1.1c0.4,0,0.7,0.2,0.9,0.7c1.6,3.2,10.6,18.9,25.8,18.9
					c15.2,0,21.9-13.8,23.2-16.6c0.3-0.7,0.8-0.8,1-0.8c0.2,0,0.6,0.1,0.9,0.5c1.6,2.1,10.4,12.4,24.4,12.4
					c22.6,0,28-26.4,28.1-26.7l0.1-6.1h1.7l0.1,6.3c0,0.1,5.6,26.5,28.6,26.5c14.3,0,23.2-10.3,24.9-12.4c0.3-0.4,0.7-0.5,0.9-0.5
					c0.3,0,0.7,0.1,1,0.8c1.2,2.8,8.2,16.6,23.6,16.6c15.5,0,24.6-15.8,26.3-18.9c0.2-0.4,0.6-0.7,0.9-0.7c0.4,0,0.9,0.2,1,1.1
					c0.6,3.5,4.6,20.9,21.7,25.8c1.3,0.4,2.6,0.6,4,0.6c9.9,0,18.5-9.8,20.1-11.7C451.1,274.7,451.4,274.5,451.7,274.5z"/>
			</g>
			<path d="M77.7,238.6l13.2-0.6l5.8,8.7l11.3,8.9l3.7,4.5l-3.9,8.2l-3.9,4.6c0,0-2.4,6.1-8,7.4c-5.6,1.3-8.4-8.9-8.4-8.9
				s-9.5-24-9.5-24.7c0-0.7-0.6-8.9-0.6-8.9"/>
			<path d="M177,241.6l-8.7,0.6c0,0-12.3-6-12.3-6.7c0-0.7,3.3-8.4,4.1-9.5c0.7-1.1,13.2-13.6,13.2-13.6s5.6-7.4,6.7-7.8
				s11.3-0.2,11.9,0.9s9.5,11.5,9.5,11.5l5.2,9.5l-0.2,8.9l-11.9,1.7l-11,1.5L177,241.6z"/>
			<path d="M282.4,232.6c1.7-0.4,13.9-2.8,14.9-2.8c0.9,0,9.3,1.5,10.2,1.5c0.9,0,7.3,0.6,7.3,0.6l2.2-9.7c0,0-1.3-12.6-1.3-13.4
				c0-0.7-3.7-7.1-3.7-7.1s-13.4-4.5-14.5-4.6c-1.1-0.1-10,1.1-10.8,1.9c-0.7,0.7-10.4,11.7-10.4,12.6c0,0.9-1.5,15.6-1.5,15.6
				L282.4,232.6z"/>
			<circle fill="#FFFFFF" cx="171.8" cy="234.3" r="2.9"/>
			<ellipse fill="#FFFFFF" cx="200" cy="229.5" rx="3.8" ry="3.2"/>
			<g>
				<path fill="#F8E12E" d="M74.6,255c-5.3-1.4-17.9-11.4-16.9-24.3c1.2-15.6,19.9-0.6,19.7,7.1c0,0-2-9.9,4.3-9.9
					c6.3,0,9.3,5,9.3,14.9S81.9,257,74.6,255z"/>
				<path d="M78.2,256.3c-1.3,0-2.6-0.2-3.8-0.5c-5.7-1.5-18.5-11.9-17.5-25.1c0.5-6.6,4.1-7.6,6.1-7.6c4.7,0,10.5,4.7,13.4,9.4
					c0.2-1.4,0.7-2.8,1.6-3.8c0.9-1,2.2-1.5,3.7-1.5c6.8,0,10.2,5.3,10.2,15.8C91.9,251.7,85,256.3,78.2,256.3z M63,224.7
					c-2.6,0-4.1,2-4.4,6.1c-1,12.3,11,22,16.3,23.4c6.7,1.8,15.4-2.1,15.4-11.3c0-9.5-2.8-14.1-8.5-14.1c-1,0-1.8,0.3-2.4,1
					c-1.4,1.5-1.4,4.6-1.3,6.3c0.2,0.6,0.3,1.2,0.2,1.9L78,245l-1.4-7c0,0-0.2-0.8-0.2-1.9C75.1,231.5,68,224.7,63,224.7z"/>
			</g>
			<g>
				
					<ellipse transform="matrix(0.8973 -0.4414 0.4414 0.8973 -109.3421 66.7822)" fill="#009AFE" cx="88.9" cy="268.4" rx="8.9" ry="14.5"/>
				<path d="M92.7,282.8c-4.5,0-9.6-4.1-12.6-10.1c-1.8-3.6-2.6-7.5-2.3-10.8c0.3-3.5,1.8-6.1,4.3-7.3c0.9-0.4,1.9-0.7,3-0.7
					c4.5,0,9.6,4.1,12.6,10.1c3.7,7.6,2.8,15.7-2,18.1C94.7,282.6,93.7,282.8,92.7,282.8z M85,255.6c-0.8,0-1.6,0.2-2.2,0.5
					c-1.9,0.9-3,3-3.3,5.9c-0.3,3.1,0.5,6.6,2.1,9.9c2.7,5.4,7.2,9.2,11.1,9.2c0.8,0,1.6-0.2,2.2-0.5c4-2,4.5-9.1,1.2-15.9
					C93.5,259.4,88.9,255.6,85,255.6z"/>
			</g>
			<g>
				
					<ellipse transform="matrix(0.9864 -0.1642 0.1642 0.9864 -35.6256 33.5885)" fill="#009AFE" cx="185.4" cy="232.3" rx="11.1" ry="16.7"/>
				<path d="M186.9,249.8c-6.1,0-11.8-6.7-13.3-15.5c-1.6-9.6,2.4-18.2,8.9-19.3c6.6-1.1,13.1,5.9,14.7,15.4
					c1.6,9.6-2.4,18.2-8.9,19.3C187.8,249.7,187.4,249.8,186.9,249.8z M183.9,216.5c-0.4,0-0.7,0-1.1,0.1c-5.6,0.9-9,8.7-7.5,17.4
					c1.4,8.6,7.1,14.9,12.7,14c5.6-0.9,9-8.7,7.5-17.4C194.2,222.6,189.2,216.5,183.9,216.5z"/>
			</g>
			<g>
				<ellipse fill="#009AFE" cx="297.1" cy="222.1" rx="11.4" ry="16.6"/>
				<path d="M297.1,239.5c-6.8,0-12.3-7.8-12.3-17.4c0-9.6,5.5-17.4,12.3-17.4s12.3,7.8,12.3,17.4
					C309.4,231.7,303.9,239.5,297.1,239.5z M297.1,206.3c-5.8,0-10.6,7.1-10.6,15.8c0,8.7,4.8,15.8,10.6,15.8s10.6-7.1,10.6-15.8
					C307.7,213.4,303,206.3,297.1,206.3z"/>
			</g>
			<g>
				
					<ellipse transform="matrix(-0.9864 -0.1642 0.1642 -0.9864 777.6035 528.3414)" fill="#009AFE" cx="410.6" cy="232" rx="11.1" ry="16.7"/>
				<path d="M409.1,249.5C409.1,249.5,409.1,249.5,409.1,249.5c-0.5,0-0.9,0-1.4-0.1c-6.5-1.1-10.5-9.7-8.9-19.3
					c1.6-9.5,8.1-16.5,14.7-15.4c6.5,1.1,10.5,9.7,8.9,19.3C420.9,242.8,415.2,249.5,409.1,249.5z M412.2,216.3
					c-5.3,0-10.3,6.1-11.6,14.1c-1.4,8.6,1.9,16.4,7.5,17.4c5.7,0.9,11.3-5.4,12.7-14c1.4-8.6-1.9-16.4-7.5-17.4
					C412.9,216.3,412.5,216.3,412.2,216.3z"/>
			</g>
			<circle fill="#FFFFFF" cx="181.4" cy="213.9" r="2.6"/>
			<g>
				<path fill="#F8E12E" d="M208.4,228.1c-4.9,1.2-10,3.9-10,9.8c0,11.2,17.4,12.4,19.3,12.4c1.8,0,9.9-1.8,9.9-8.2
					c0-6.4-10-7.1-10-7.1s18.8,3.1,18.8-7.7c0-9.7-8.1-11.4-17.1-8.8l-4.3,2.1l4.2-2.2c1.7-1.1,3.6-3.1,3.6-7
					c0-7.1-7.5-6.4-10.6-6.4c-3.1,0-19.1,6-18.1,16.2c0.6,5.9,8.1,7,14.3,6.8c0,0,0.1,0,0.1,0l12.8-1.7L208.4,228.1z"/>
				<path d="M217.6,251.1c-4.2,0-20.1-2.2-20.1-13.3c0-4.1,2.3-7.2,6.6-9.2c-8.4-0.7-10.6-4.4-10.9-7.5c-0.3-3.1,0.8-6.1,3.4-8.9
					c4.6-5.1,13.1-8.2,15.6-8.2l1.8,0c2.4,0,9.6,0,9.6,7.3c0,2.5-0.7,4.3-1.7,5.6c9.4-1.8,15.2,2.2,15.2,10.3
					c0,5.4-4.5,8.6-12.6,8.9c2.1,1.2,3.8,3,3.8,5.9C228.4,248.9,220,251.1,217.6,251.1z M221.1,225.4l0.2,1.7l-12.8,1.8
					c-6.2,1.5-9.3,4.5-9.3,8.9c0,10.9,18.2,11.6,18.4,11.6c1.1,0,9.1-1.5,9.1-7.4c0-4.3-5.6-5.7-8-6.1c-0.8-0.1-1.4-0.2-1.4-0.2
					l0.2-1.7c0,0,0.6,0,1.4,0.2c0.9,0.1,2.4,0.2,4.2,0.2c5.6,0,12.3-1.3,12.3-7.2c0-7.5-5-9.1-9.3-9.1c-2,0-4.3,0.4-6.8,1.1l-4.1,2
					l-0.8-1.5l4.2-2.2c2.1-1.3,3.1-3.4,3.1-6.2c0-4.9-4-5.6-7.9-5.6l-1.8,0c-1.8,0-9.9,2.7-14.4,7.7c-2.2,2.4-3.2,5-2.9,7.6
					c0.5,5,7.1,6.1,12.5,6.1l0.9,0L221.1,225.4z"/>
			</g>
			<g>
				<path fill="#F8E12E" d="M144.5,239.2c3-0.6,14-3.1,15.8-3.1c7.2-0.2,16.9,1,15.6,8.3c-1.8,9.8-18.7,17.3-25.6,12.1
					c-4.2-3.2-2.2-6.7-0.2-9l5.6-4.5c0,0-5.6,4.2-5.8,4.3c-7,2.8-16.5,2.8-16.5-7.3c0-8.8,8.9-10.4,15-10.5l7.5,0.6l-7.5-0.7
					c-3-0.6-6-2-6-5.1c0-7.9,10.4-10.1,13.8-10.1s17.2,2.7,17.2,12.5c0,5.8-7.2,8.2-13.1,9.2C160.3,235.9,148.2,238,144.5,239.2z"/>
				<path d="M156.2,259c-2.6,0-4.8-0.6-6.4-1.9c-1.7-1.3-2.6-2.7-2.8-4.3c-0.1-1.3,0.2-2.6,1-4c-2,0.6-4,0.9-5.8,0.9
					c-2.8,0-5.1-0.7-6.8-2.2c-1.9-1.7-2.9-4.2-2.9-7.5c0-6.2,4.3-10.1,12.1-11.1c-2.4-1.3-3-3.2-3-4.6c0-8.2,10-10.9,14.6-10.9
					c4.6,0,18,3.3,18,13.3c0,3.9-2.9,6.8-8.3,8.7c3.7,0.4,7.5,1.4,9.5,3.8c1.2,1.4,1.6,3.2,1.3,5.3C175.3,252.5,164.3,259,156.2,259
					z M155.1,242.4l1,1.3l-5.6,4.5c-1.4,1.7-2.1,3.2-1.9,4.5c0.1,1.1,0.8,2.2,2.1,3.1c1.3,1,3.2,1.5,5.4,1.5
					c7.5,0,17.6-5.8,18.9-13.1c0.3-1.6,0-2.9-0.9-3.9c-1.8-2.2-6.2-3.4-12.3-3.4c-0.5,0-1.1,0-1.6,0c-1.2,0-6.8,1.2-10.9,2.1
					c-2.1,0.4-3.9,0.8-4.8,1l-0.4-1.6c3.7-1.3,15.4-3.3,15.9-3.3c5.7-1,12.4-3.2,12.4-8.4c0-8.9-12.7-11.7-16.3-11.7
					c-3.5,0-12.9,2.2-12.9,9.2c0,2.1,1.8,3.6,5.3,4.3l7.4,0.7l-0.2,1.7l-7.5-0.6c-6.4,0.1-14.1,1.9-14.1,9.7c0,2.8,0.8,4.9,2.3,6.3
					c1.3,1.2,3.3,1.8,5.7,1.8c2.2,0,4.9-0.5,7.3-1.5C149.7,246.4,153.1,243.9,155.1,242.4z"/>
			</g>
			<g>
				<path fill="#F8E12E" d="M188.1,193.4c1.6-6.7,2.7-18.5-9.1-18.5c-9.8,0-9.7,14-7.4,21.1l2.8,4.7l-3-4.5
					c-1.4-1.7-3.5-3.3-6.4-3.3c-5.4,0-10.7,16.9,4,25.1c0,0,11.7,4.2,11.9-10.6c0-0.2,0-0.3,0-0.5l-0.5-17.4l0.6,17.5
					c1.3,5.5,3.9,10.3,9.1,10.6C203,218.2,202,198,202,198s1-9-8.1-9.7c-2.7-0.2-4.6,2.4-5.7,5l-1.7,5L188.1,193.4z"/>
				<path d="M172.6,219.3c-2.1,0-3.7-0.6-3.8-0.6c-9.5-5.3-11.1-14.1-9.6-20c1-4,3.4-6.7,5.9-6.7c1.9,0,3.6,0.6,5.2,1.8
					c-1.1-5-1.2-12.1,1.9-16.4c1.6-2.3,4-3.4,6.9-3.4c3.8,0,6.7,1.2,8.5,3.5c2.5,3.1,2.7,7.7,2.1,11.9c1.3-1.4,2.7-2.1,4.3-1.9
					c2.9,0.2,5.2,1.3,6.7,3.1c2.6,3.1,2.2,7.3,2.1,7.5c0,0.3,0.5,11.6-4.7,17.2c-2,2.2-4.6,3.2-7.9,3c-4-0.2-6.9-2.7-8.7-7.4
					C180.2,218.1,175.5,219.3,172.6,219.3z M169.5,217.2c0,0,1.4,0.5,3.1,0.5c4.9,0,7.5-3.6,7.6-10.4l0-0.5l-0.5-17.3l1.7-0.1
					l0.6,17.5c1.4,6.2,4.2,9.6,8.3,9.8c2.7,0.2,4.8-0.7,6.5-2.5c4.8-5,4.3-16,4.3-16.1c0-0.2,0.4-3.8-1.8-6.4
					c-1.2-1.5-3.1-2.3-5.6-2.5l-0.2,0c-2.2,0-3.7,2.5-4.6,4.5l-1.7,4.9l-1.6-0.5l1.6-4.9c0.9-3.8,2-10.7-1.1-14.6
					c-1.5-1.9-3.9-2.9-7.2-2.9c-2.4,0-4.3,0.9-5.6,2.7c-3,4.1-2.7,11.9-1,17.3l2.8,4.5l-1.4,0.9l-3-4.5c-1.6-1.9-3.5-2.9-5.7-2.9
					c-1.6,0-3.4,2.3-4.2,5.4C159.4,204.5,160.9,212.4,169.5,217.2C169.5,217.2,169.5,217.2,169.5,217.2z"/>
			</g>
			<circle fill="#FFFFFF" cx="99.2" cy="263.1" r="2.9"/>
			<g>
				<path fill="#F8E12E" d="M107.4,258.3c-4,3.1-8.2,7.8-8.2,13.1c0,10.6,25.9,6.1,25.9-1.1c0,0,1.7-9.5-13.9-5.9
					c0,0,18.1-2.8,18.1-12.8c0-10-12.8-10.9-23.2-0.8c0,0,13.6-11.3,0-13.2c-0.6-0.1-2.7-0.1-3.9,0.3c-4,1.2-12.5,4.8-12.5,14
					C89.7,260.8,99,261.5,107.4,258.3l8.9-5.2L107.4,258.3z"/>
				<path d="M109.3,278.6L109.3,278.6c-6.9,0-10.9-2.7-10.9-7.1c0-4.5,2.8-8.4,5.5-11.2c-1.8,0.4-3.5,0.6-5.1,0.6
					c-6.3,0-9.9-3.3-9.9-9c0-9.8,9.2-13.6,13.1-14.8c1.2-0.3,2.8-0.4,3.3-0.4c0.4,0,0.8,0,1,0.1c3.7,0.5,5.9,1.8,6.5,3.8
					c0.5,1.5,0,3.2-0.9,4.9c3.1-1.7,6.2-2.6,9.1-2.6c5.6,0,9.1,3.4,9.1,8.8c0,5.8-5.5,9.3-10.5,11.3c2.2,0.3,3.8,1.1,4.9,2.5
					c1.9,2.2,1.4,4.9,1.4,5.1c0,2.1-2,4.3-5.7,5.9C117.2,277.7,113,278.6,109.3,278.6z M116.7,253.8l-8.9,5.2
					c-2.8,2.2-7.7,6.9-7.7,12.4c0,4.9,6.5,5.5,9.3,5.5c3.5,0,7.3-0.8,10.3-2.1c3-1.3,4.7-2.9,4.7-4.5c0-0.2,0.3-2.3-1-3.9
					c-1.6-1.9-4.9-2.4-9.7-1.6c-1.4,0.3-2.3,0.5-2.3,0.5l-0.3-1.6c0.8-0.2,1.6-0.3,2.3-0.5c4.5-1.1,15.2-4.3,15.2-11.6
					c0-4.5-2.8-7.1-7.4-7.1c-4.1,0-8.8,2.1-12.9,5.6c-0.8,0.8-1.4,1.3-1.4,1.3l-1.1-1.2c0.5-0.5,1-0.9,1.5-1.3
					c3.2-3.2,4.8-6,4.2-7.8c-0.5-1.7-3.1-2.4-5.2-2.7c-0.5-0.1-2.5,0-3.6,0.3c-3.6,1.1-11.9,4.5-11.9,13.2c0,6.1,4.5,7.3,8.3,7.3
					c2.5,0,5.3-0.6,8.2-1.7l8.8-5.2L116.7,253.8z"/>
			</g>
			<circle fill="#FFFFFF" cx="283.6" cy="223.9" r="2.5"/>
			<circle fill="#FFFFFF" cx="311" cy="223.5" r="2.5"/>
			<circle fill="#FFFFFF" cx="297.3" cy="203.3" r="2.5"/>
			<g>
				<path fill="#F8E12E" d="M251.5,223.8h25.9c0,0,10.6,1.8,10.6,10.6s-16.6,13.9-22.3,13.9c-5.7,0-11.9-3.9-11.9-7.5
					c0-3.6,1.5-8.1,13-10.5c0,0-25.4,9.3-25.4-6.3s24.3-7,24.3-7s-10.6-1.7-10.6-9.2s10.7-7,13.8-7c3.1,0,19.1,4.5,18.6,14.8
					c0,0-1.4,7.7-10,8.1"/>
				<path d="M265.7,249.1c-6.3,0-12.7-4.2-12.7-8.4c0-2.1,0.5-4.8,3.4-7.1c-4.3,0.5-9,0.4-12.2-1.8c-2.4-1.7-3.6-4.3-3.6-7.8
					c0-3.6,1.2-6.3,3.7-8.1c3.4-2.4,8.5-2.4,12.9-1.8c-1.7-1.5-2.9-3.5-2.9-6.3c0-1.9,0.6-3.5,1.9-4.8c3.1-3.1,9.2-3.1,12.2-3l0.6,0
					c2.2,0,11.2,2.2,16.1,7.4c2.3,2.5,3.4,5.2,3.3,8.2c0,0.2-1.2,6.3-7.4,8.3c3.4,1.4,7.9,4.4,7.9,10.4
					C288.9,243.9,271.5,249.1,265.7,249.1z M261.3,232.8c-5.7,2.3-6.5,5.4-6.5,8c0,2.9,5.4,6.7,11,6.7c5.5,0,21.5-5.2,21.5-13.1
					c0-8-9.5-9.7-9.9-9.8l-25.8,0v-1.7h25.9c7.8-0.4,9.2-7.1,9.2-7.4c0.1-2.4-0.8-4.8-2.8-6.9c-4.5-4.8-13-6.9-14.9-6.9l-0.6,0
					c-2.5,0-8.3-0.1-11,2.5c-0.9,0.9-1.4,2.1-1.4,3.6c0,3.9,3.4,6.1,6.2,7.3c2.2,0.5,3.7,1.1,3.9,1.1l-0.4,1.6c-0.2,0-2-0.3-4.1-1.2
					c-4.6-1.1-12.1-2.3-16.3,0.6c-2,1.4-3,3.6-3,6.7c0,3,0.9,5.1,2.9,6.4c3.9,2.7,10.8,1.8,15.7,0.7c1.6-0.6,3.5-1.2,5.8-1.7
					l0.5,1.6C266.9,231.2,264.5,232.1,261.3,232.8z"/>
			</g>
			<g>
				<path fill="#F8E12E" d="M297.1,197c-0.1,6.9,6.4,8.5,9.8,8.9c1,0.1,3.6-0.1,4.2-0.4c14.2-7.2,9.4-25.9,1.7-25.9
					c-4.1,0-6.3,2.2-7.6,4.5l-2.2,5l2.1-5c1.7-6.7,3.2-18.7-8.4-18.7c-11,0-10,12.7-8.4,19.8l2.5,4.4l-2.6-4.2
					c-1.2-2-3.2-3.8-5.9-3.8c-4.9,0-9,3.6-9,8.5c0,4.9,3.6,17.2,12.8,17.2C295.2,207.3,297.1,197,297.1,197v-22"/>
				<path d="M286,208.1c-9.7,0-13.6-12.7-13.6-18c0-5.2,4.3-9.3,9.9-9.3c1.7,0,3.2,0.6,4.6,1.8c-0.7-4.6-1-10.8,2.1-14.7
					c1.7-2.2,4.3-3.3,7.7-3.3c3.6,0,6.4,1.1,8.1,3.4c2.6,3.3,2.6,8.5,1.8,13.1c1.7-1.5,3.8-2.2,6.2-2.2c3.5,0,6.6,3.3,7.8,8.2
					c1.4,6-0.1,14.6-9.1,19.2c-0.8,0.4-3.6,0.6-4.7,0.5c-6.2-0.8-8.9-3.5-9.9-6.3C295.4,203.7,292.3,208.1,286,208.1z M282.3,182.5
					c-4.6,0-8.2,3.4-8.2,7.7c0,4.8,3.4,16.3,11.9,16.3c8.4,0,10.2-9.2,10.2-9.6l0-21.9h1.7v22c0,0,0,0,0,0h0c-0.1,4.5,3,7.3,9,8.1
					c1,0.1,3.3-0.1,3.7-0.3c8.2-4.1,9.5-11.9,8.2-17.3c-1-4.1-3.5-6.9-6.2-6.9c-3,0-5.3,1.4-6.8,4l-2.2,5l-1.5-0.7l2.1-5
					c1-3.8,2.2-11-0.8-14.8c-1.4-1.8-3.7-2.7-6.8-2.7c-2.8,0-5,0.9-6.4,2.7c-3.4,4.3-2,12.5-1.2,16l2.5,4.2l-1.4,0.9l-2.6-4.2
					C286.5,184.3,284.9,182.5,282.3,182.5z"/>
			</g>
			<g>
				<path fill="#F8E12E" d="M340.8,223.6l-24.2-0.8c0,0-9.4-1.2-9-8.3c0.2-4.3,3-13.2,17.1-13.2s13.7,4,13.7,6.6s-4.3,7.2-12,9.8
					c0,0,24.9-12.1,24.7,5.7c-0.1,14-24.9,6.6-24.9,6.6s13.2,2.3,13.2,11c0,0-1.3,7-13.6,7c-12.3,0-20.2-12.3-18.7-17.2
					c1.3-4.2,7.3-7.7,9.7-7.6L340.8,223.6z"/>
				<path d="M325.7,249c-6.4,0-12.6-3.3-16.6-8.8c-2.6-3.5-3.7-7.1-2.9-9.5c1-3.3,4.8-6.3,7.8-7.6c-3.5-1.1-7.6-3.7-7.3-8.6
					c0.1-2.3,1.5-14,18-14c7,0,11.1,0.9,13.1,2.9c1.4,1.4,1.4,3.1,1.4,4.3l0,0.2c0,1.7-1.4,3.8-3.7,5.8c2-0.5,4.1-0.8,6-0.8
					c3.4,0,6,0.9,7.7,2.7c1.8,1.8,2.6,4.4,2.6,7.9c0,4.3-2.3,9.4-12.8,9.4c-1.4,0-2.7-0.1-4.1-0.2c2.8,1.8,5.2,4.5,5.2,8.5
					C340.1,241.7,338.6,249,325.7,249z M316.7,224.2c-2.2,0-7.7,3.2-8.9,7c-0.6,1.8,0.5,5.1,2.7,8c3.7,5.1,9.4,8.1,15.2,8.1
					c11.4,0,12.7-6,12.8-6.3c0-5.5-6.2-8.2-9.9-9.4c-1.6-0.4-2.7-0.7-2.7-0.7l0.4-1.6c0,0,1.2,0.2,2.8,0.7c2.5,0.6,6.2,1.2,10,1.2
					c7.4,0,11.1-2.6,11.2-7.7c0-3-0.7-5.2-2.1-6.7c-1.4-1.4-3.6-2.2-6.5-2.2c-3.9,0-8.2,1.3-11.1,2.4c-1.1,0.6-2.4,1.1-3.8,1.6
					l-0.6-1.5c0.1,0,1.6-0.8,3.9-1.6c5-2.5,7.7-5.7,7.7-7.5l0-0.3c0-1.1,0-2.2-0.9-3.1c-1.6-1.6-5.6-2.4-11.9-2.4
					c-14.6,0-16.2,9.5-16.3,12.4c-0.3,6.2,8,7.3,8.3,7.4l24.1,0.8l0,1.7L316.7,224.2L316.7,224.2z"/>
			</g>
			<path d="M516.6,238.6l-13.2-0.6l-5.8,8.7l-11.3,8.9l-3.7,4.5l3.9,8.2l3.9,4.6c0,0,2.4,6.1,8,7.4c5.6,1.3,8.4-8.9,8.4-8.9
				s9.5-24,9.5-24.7c0-0.7,0.6-8.9,0.6-8.9"/>
			<path d="M417.3,241.6l8.7,0.6c0,0,12.3-6,12.3-6.7c0-0.7-3.3-8.4-4.1-9.5S421,212.4,421,212.4s-5.6-7.4-6.7-7.8
				s-11.3-0.2-11.9,0.9c-0.6,1.1-9.5,11.5-9.5,11.5l-5.2,9.5l0.2,8.9l11.9,1.7l11,1.5L417.3,241.6z"/>
			<circle fill="#FFFFFF" cx="422.4" cy="234.3" r="2.9"/>
			<ellipse fill="#FFFFFF" cx="394.3" cy="229.5" rx="3.8" ry="3.2"/>
			<g>
				<path fill="#F8E12E" d="M519.6,255c5.3-1.4,17.9-11.4,16.9-24.3c-1.2-15.6-19.9-0.6-19.7,7.1c0,0,2-9.9-4.3-9.9
					c-6.3,0-9.3,5-9.3,14.9S512.4,257,519.6,255z"/>
				<path d="M516.1,256.3L516.1,256.3c-6.8,0-13.7-4.6-13.7-13.4c0-10.5,3.4-15.8,10.2-15.8c1.5,0,2.8,0.5,3.7,1.5
					c0.9,1,1.4,2.4,1.6,3.9c2.9-4.7,8.7-9.4,13.4-9.4c2.1,0,5.6,1,6.1,7.6c1,13.2-11.8,23.6-17.5,25.1
					C518.6,256.1,517.4,256.3,516.1,256.3z M512.5,228.8c-5.7,0-8.5,4.6-8.5,14.1c0,7.7,6.1,11.8,12,11.8l0,0c1.2,0,2.3-0.1,3.4-0.4
					c5.3-1.4,17.2-11.1,16.3-23.4c-0.3-4-1.8-6.1-4.4-6.1c-5,0-12.1,6.8-13.4,11.5c-0.1,1-0.2,1.7-0.2,1.7l-1.4,7l-0.3-7.2
					c0-0.6,0.1-1.3,0.3-2c0.1-1.5,0.1-4.6-1.3-6.1C514.4,229.1,513.6,228.8,512.5,228.8z"/>
			</g>
			<g>
				
					<ellipse transform="matrix(-0.8973 -0.4414 0.4414 -0.8973 840.4678 732.3152)" fill="#009AFE" cx="505.4" cy="268.4" rx="8.9" ry="14.5"/>
				<path d="M501.6,282.8L501.6,282.8c-1.1,0-2.1-0.2-3-0.7c-2.4-1.2-3.9-3.8-4.3-7.3c-0.3-3.4,0.5-7.2,2.3-10.8
					c3-6.1,8-10.1,12.6-10.1c1.1,0,2.1,0.2,3,0.7c4.8,2.4,5.7,10.5,2,18.1C511.2,278.8,506.1,282.8,501.6,282.8z M509.2,255.6
					c-3.9,0-8.4,3.8-11.1,9.2c-1.6,3.3-2.4,6.9-2.1,9.9c0.3,2.9,1.5,5,3.3,5.9c0.7,0.3,1.4,0.5,2.2,0.5c3.9,0,8.4-3.8,11.1-9.2
					c3.3-6.8,2.8-13.9-1.2-15.9C510.8,255.8,510,255.6,509.2,255.6z"/>
			</g>
			<g>
				
					<ellipse transform="matrix(-0.9864 -0.1642 0.1642 -0.9864 774.0958 528.6094)" fill="#009AFE" cx="408.9" cy="232.3" rx="11.1" ry="16.7"/>
				<path d="M407.4,249.8C407.4,249.8,407.4,249.8,407.4,249.8c-0.5,0-0.9,0-1.4-0.1c-6.5-1.1-10.5-9.7-8.9-19.3
					c1.6-9.5,8.1-16.5,14.7-15.4c6.5,1.1,10.5,9.7,8.9,19.3C419.2,243.1,413.5,249.8,407.4,249.8z M410.4,216.5
					c-5.3,0-10.3,6.1-11.6,14.1c-1.4,8.6,1.9,16.4,7.5,17.4c5.7,0.9,11.3-5.4,12.7-14c1.4-8.6-1.9-16.4-7.5-17.4
					C411.1,216.6,410.8,216.5,410.4,216.5z"/>
			</g>
			<circle fill="#FFFFFF" cx="412.8" cy="213.9" r="2.6"/>
			<g>
				<path fill="#F8E12E" d="M385.9,228.1c4.9,1.2,10,3.9,10,9.8c0,11.2-17.4,12.4-19.3,12.4s-9.9-1.8-9.9-8.2c0-6.4,10-7.1,10-7.1
					S358,238,358,227.2c0-9.7,8.1-11.4,17.1-8.8l4.3,2.1l-4.2-2.2c-1.7-1.1-3.6-3.1-3.6-7c0-7.1,7.5-6.4,10.6-6.4s19.1,6,18.1,16.2
					c-0.6,5.9-8.1,7-14.3,6.8c0,0-0.1,0-0.1,0l-12.8-1.7L385.9,228.1z"/>
				<path d="M376.7,251.1c-2.4,0-10.7-2.2-10.7-9.1c0-2.9,1.7-4.7,3.8-5.9c-3-0.1-5.6-0.6-7.6-1.5c-3.3-1.5-5-4-5-7.4
					c0-6.8,4-10.7,10.9-10.7c1.4,0,2.8,0.1,4.3,0.4c-1-1.3-1.7-3.1-1.7-5.6c0-7.3,7.2-7.3,9.6-7.3l1.8,0c2.5,0,11,3.1,15.6,8.2
					c2.5,2.8,3.7,5.8,3.4,8.9c-0.3,3.1-2.5,6.7-10.9,7.5c4.3,2,6.6,5.1,6.6,9.2C396.7,248.8,380.9,251.1,376.7,251.1z M376.7,234.1
					l0.2,1.7c0,0-0.5,0.1-1.4,0.2c-2.4,0.4-7.9,1.8-7.9,6.1c0,5.9,7.9,7.4,9.1,7.4c0.2,0,18.4-0.7,18.4-11.6c0-4.4-3.2-7.4-9.4-9
					l-12.8-1.8l0.2-1.7l12.8,1.7l0.9,0c5.4,0,12-1.1,12.5-6.1c0.3-2.6-0.7-5.2-2.9-7.6c-4.5-4.9-12.5-7.7-14.4-7.7l-1.8,0
					c-3.9,0-7.9,0.7-7.9,5.6c0,2.8,1.1,4.9,3.2,6.2l4.2,2.2l-0.8,1.5l-4.3-2.1c-2.3-0.7-4.6-1-6.6-1c-4.2,0-9.3,1.6-9.3,9.1
					c0,2.7,1.3,4.6,4,5.8c2,0.9,4.9,1.4,8.3,1.4c1.7,0,3.2-0.1,4.2-0.2C376.2,234.1,376.7,234.1,376.7,234.1z"/>
			</g>
			<g>
				<path fill="#F8E12E" d="M449.8,239.2c-3-0.6-14-3.1-15.8-3.1c-7.2-0.2-16.9,1-15.6,8.3c1.8,9.8,18.7,17.3,25.6,12.1
					c4.2-3.2,2.2-6.7,0.2-9l-5.6-4.5c0,0,5.6,4.2,5.8,4.3c7,2.8,16.5,2.8,16.5-7.3c0-8.8-8.9-10.4-15-10.5l-7.5,0.6l7.5-0.7
					c3-0.6,6-2,6-5.1c0-7.9-10.4-10.1-13.8-10.1s-17.2,2.7-17.2,12.5c0,5.8,7.2,8.2,13.1,9.2C434,235.9,446.1,238,449.8,239.2z"/>
				<path d="M438.1,259c-8.1,0-19.1-6.5-20.6-14.5c-0.4-2.1,0.1-3.9,1.3-5.3c2-2.4,5.8-3.4,9.5-3.8c-5.5-1.9-8.3-4.8-8.3-8.7
					c0-10,13.4-13.3,18-13.3c4.6,0,14.6,2.7,14.6,10.9c0,1.5-0.6,3.3-3,4.7c7.8,1,12.1,4.9,12.1,11.1c0,6.2-3.5,9.7-9.7,9.7
					c-1.8,0-3.8-0.3-5.8-0.9c0.9,1.4,1.2,2.7,1.1,4c-0.2,1.6-1.1,3-2.8,4.3C442.9,258.3,440.7,259,438.1,259z M432.3,236.9
					c-6.1,0-10.4,1.2-12.3,3.4c-0.9,1.1-1.2,2.4-0.9,3.9c1.3,7.3,11.4,13.1,18.9,13.1c2.2,0,4.1-0.5,5.4-1.5c1.3-1,2-2,2.1-3.1
					c0.1-1.4-0.5-2.9-2-4.6l-5.5-4.3l1-1.3c2,1.5,5.4,4,5.7,4.2c2.4,0.9,5,1.5,7.2,1.5c3.6,0,8-1.4,8-8c0-7.8-7.7-9.6-14.2-9.7
					l-7.4,0.6l-0.2-1.7l7.5-0.7c3.4-0.7,5.2-2.1,5.2-4.3c0-7-9.5-9.2-12.9-9.2c-3.6,0-16.3,2.8-16.3,11.7c0,5.2,6.7,7.4,12.4,8.4
					c0.5,0.1,12.2,2.1,15.9,3.3l-0.4,1.6c-1-0.2-2.8-0.6-4.8-1c-4.1-0.9-9.7-2.1-10.9-2.1C433.4,236.9,432.9,236.9,432.3,236.9z"/>
			</g>
			<g>
				<path fill="#F8E12E" d="M406.2,193.4c-1.6-6.7-2.7-18.5,9.1-18.5c9.8,0,9.7,14,7.4,21.1l-2.8,4.7l3-4.5c1.4-1.7,3.5-3.3,6.4-3.3
					c5.4,0,10.7,16.9-4,25.1c0,0-11.7,4.2-11.9-10.6c0-0.2,0-0.3,0-0.5l0.5-17.4l-0.6,17.5c-1.3,5.5-3.9,10.3-9.1,10.6
					c-12.7,0.7-11.7-19.4-11.7-19.4s-1-9,8.1-9.7c2.7-0.2,4.6,2.4,5.7,5l1.7,5L406.2,193.4z"/>
				<path d="M421.7,219.3c-3,0-7.7-1.2-8.9-8.4c-1.9,4.7-4.8,7.2-8.7,7.4c-0.2,0-0.5,0-0.7,0h0c-2.8,0-5.2-1-7.1-3
					c-5.3-5.6-4.8-16.9-4.7-17.3c0,0-0.4-4.3,2.1-7.4c1.5-1.9,3.8-2.9,6.7-3.1c1.6-0.1,3,0.6,4.3,1.9c-0.5-4.2-0.3-8.8,2.1-11.9
					c1.8-2.3,4.7-3.5,8.5-3.5c3,0,5.3,1.1,6.9,3.4c3.1,4.3,2.9,11.5,1.9,16.4c1.6-1.2,3.3-1.8,5.1-1.8c2.5,0,4.8,2.7,5.9,6.7
					c1.5,5.9,0,14.7-9.4,20C425.4,218.7,423.8,219.3,421.7,219.3z M412.9,189.4l1.7,0.1l-0.5,17.4l0,0.4c0.1,6.8,2.7,10.4,7.6,10.4
					c1.8,0,3.2-0.5,3.2-0.5c8.5-4.7,9.9-12.7,8.5-18c-0.8-3.1-2.6-5.4-4.2-5.4c-2.1,0-4.1,1-5.7,3l-3,4.5l-1.4-0.9l2.8-4.7
					c1.6-5.2,1.9-13-1.1-17.1c-1.3-1.8-3.2-2.7-5.6-2.7c-3.3,0-5.7,1-7.2,2.9c-3,3.8-2,10.8-1.1,14.6l1.6,4.8l-1.6,0.5l-1.7-5
					c-0.9-2-2.4-4.5-4.6-4.5l-0.2,0c-2.4,0.2-4.3,1-5.6,2.5c-2.1,2.5-1.8,6.2-1.8,6.2c0,0.2-0.5,11.2,4.3,16.2
					c1.6,1.6,3.5,2.5,5.9,2.5h0c0.2,0,0.4,0,0.6,0c4.1-0.2,6.9-3.6,8.4-9.9L412.9,189.4z"/>
			</g>
			<circle fill="#FFFFFF" cx="495" cy="263.1" r="2.9"/>
			<g>
				<path fill="#F8E12E" d="M486.9,258.3c4,3.1,8.2,7.8,8.2,13.1c0,10.6-25.9,6.1-25.9-1.1c0,0-1.7-9.5,13.9-5.9
					c0,0-18.1-2.8-18.1-12.8c0-10,12.8-10.9,23.2-0.8c0,0-13.6-11.3,0-13.2c0.6-0.1,2.7-0.1,3.9,0.3c4,1.2,12.5,4.8,12.5,14
					C504.5,260.8,495.3,261.5,486.9,258.3l-8.9-5.2L486.9,258.3z"/>
				<path d="M484.9,278.6c-7,0-16.7-3.1-16.7-8.2l0,0c0,0-0.5-2.7,1.4-4.9c1.1-1.3,2.8-2.1,4.9-2.5c-5-2-10.5-5.5-10.5-11.3
					c0-5.4,3.5-8.8,9.1-8.8c2.9,0,6,0.9,9.1,2.6c-0.9-1.6-1.4-3.3-0.9-4.9c0.7-2,2.9-3.3,6.5-3.8c0.2,0,0.6-0.1,1-0.1
					c0.5,0,2.1,0,3.3,0.4c3.9,1.2,13.1,5,13.1,14.8c0,5.7-3.6,9-9.9,9c-1.6,0-3.3-0.2-5.1-0.6c2.8,2.8,5.5,6.7,5.5,11.2
					C495.9,275.9,491.8,278.6,484.9,278.6z M476.8,264.5c-2.8,0-4.7,0.7-5.9,2c-1.4,1.6-1,3.7-1,3.7c0,3.4,7.6,6.7,15,6.7
					c2.8,0,9.3-0.5,9.3-5.5c0-5.5-4.9-10.2-7.8-12.5l-8.8-5.2l0.8-1.4l8.9,5.2c2.8,1,5.6,1.6,8.1,1.6c3.8,0,8.3-1.3,8.3-7.3
					c0-8.7-8.3-12.1-11.9-13.2c-1.1-0.3-3-0.3-3.6-0.3c-2.1,0.3-4.6,1-5.2,2.7c-0.6,1.8,1,4.6,4.2,7.8c0.5,0.4,0.9,0.8,1.4,1.3
					l-1.1,1.2c0,0-0.6-0.5-1.5-1.3c-4.1-3.5-8.8-5.6-12.9-5.6c-4.7,0-7.4,2.7-7.4,7.1c0,7.2,10.6,10.5,15.2,11.6
					c0.7,0.1,1.4,0.3,2.3,0.5l-0.3,1.6c0,0-0.9-0.1-2.3-0.5C479.2,264.6,477.9,264.5,476.8,264.5z"/>
			</g>
			<g>
				<circle fill="#FFFFFF" cx="139.9" cy="261.8" r="8.4"/>
				<path fill="#211915" d="M139.9,271c-5.1,0-9.2-4.1-9.2-9.2c0-5.1,4.1-9.2,9.2-9.2s9.2,4.1,9.2,9.2
					C149.1,266.9,145,271,139.9,271z M139.9,254.3c-4.2,0-7.5,3.4-7.5,7.5c0,4.2,3.4,7.5,7.5,7.5s7.5-3.4,7.5-7.5
					C147.5,257.7,144.1,254.3,139.9,254.3z"/>
			</g>
			<g>
				<ellipse fill="#FFFFFF" cx="240.4" cy="247.1" rx="8.6" ry="8.4"/>
				<path fill="#211915" d="M240.4,256.4c-5.2,0-9.5-4.2-9.5-9.3s4.3-9.3,9.5-9.3s9.5,4.2,9.5,9.3S245.6,256.4,240.4,256.4z
					 M240.4,239.5c-4.3,0-7.8,3.4-7.8,7.6c0,4.2,3.5,7.6,7.8,7.6c4.3,0,7.8-3.4,7.8-7.6C248.2,242.9,244.7,239.5,240.4,239.5z"/>
			</g>
			<g>
				<circle fill="#FFFFFF" cx="352.4" cy="246.5" r="8.4"/>
				<path fill="#211915" d="M352.4,255.7c-5.1,0-9.2-4.1-9.2-9.2c0-5.1,4.1-9.2,9.2-9.2s9.2,4.1,9.2,9.2
					C361.6,251.6,357.4,255.7,352.4,255.7z M352.4,239c-4.2,0-7.5,3.4-7.5,7.5s3.4,7.5,7.5,7.5c4.2,0,7.5-3.4,7.5-7.5
					S356.5,239,352.4,239z"/>
			</g>
			<g>
				<circle fill="#FFFFFF" cx="457.9" cy="262.6" r="7.9"/>
				<path fill="#211915" d="M457.9,271.3c-4.8,0-8.7-3.9-8.7-8.7s3.9-8.7,8.7-8.7s8.7,3.9,8.7,8.7S462.7,271.3,457.9,271.3z
					 M457.9,255.6c-3.9,0-7,3.2-7,7s3.2,7,7,7s7-3.2,7-7S461.8,255.6,457.9,255.6z"/>
			</g>
			<path fill="#020101" d="M276.3,90.4"/>
			<g>
				<polygon fill="#F8E12E" points="298.8,64.9 307.7,64.9 301.4,47.9 313.1,53.3 313.1,33.5 301.4,38.9 307,25.1 298.4,25.1 
					297.1,25.1 288.5,25.1 294.1,38.9 282.3,33.5 282.3,53.3 294.1,47.9 287.8,64.9 296.7,64.9 				"/>
				<path fill="#211915" d="M314,32.2l-11,5.1l5.3-13.1h-21l5.3,13.1l-11-5.1v22.4l11.1-5.1l-6.1,16.2h22.3l-6-16.2l11.1,5.1V32.2z
					 M312.3,52l-12.4-5.7l6.6,17.7H289l6.6-17.7L283.2,52V34.8l12.5,5.7l-5.9-14.7h16l-5.9,14.7l12.5-5.7V52z"/>
			</g>
			<path fill="#009AFE" d="M297.6,64c-10.1,0-18.3,8.2-18.3,18.3s8.2,18.3,18.3,18.3s18.3-8.2,18.3-18.3S307.6,64,297.6,64z"/>
			<path fill="#211915" d="M297.6,61.8c-11.3,0-20.5,9.2-20.5,20.5s9.2,20.5,20.5,20.5s20.5-9.2,20.5-20.5S308.9,61.8,297.6,61.8z
				 M297.6,100.6c-10.1,0-18.3-8.2-18.3-18.3S287.5,64,297.6,64s18.3,8.2,18.3,18.3S307.6,100.6,297.6,100.6z"/>
			<g>
				<path id="path8897_2_" fill="#F8E12E" d="M293.4,63.2l0,14.1c-15.4,0.3-17.8,2.5-18.1,2.8c0,0,0,0,0,0v7.6v0.1c0,0,0,0,0,0
					c0.1,0.1,0.5,0.5,2.1,1c-0.1-0.2-0.1-0.5-0.2-0.7c-0.1-0.4-0.1-0.7-0.2-1.1c2.6-0.9,8.4-2.2,20.3-2.2c11.9,0,17.7,1.3,20.3,2.2
					c-0.1,0.4-0.1,0.7-0.2,1.1c0,0.2-0.1,0.5-0.2,0.7c1.5-0.5,2-0.9,2.1-1c0,0,0,0,0,0v-0.1v-7.5v-0.1c0,0,0,0,0,0
					c-0.3-0.4-2.7-2.5-18.1-2.8v-14L293.4,63.2z"/>
				<path fill="#211915" d="M315.9,90.1l0.4-1.8c0-0.1,0.1-0.2,0.1-0.4c0-0.1,0-0.2,0.1-0.3c-2.7-0.8-8.4-1.9-19.3-1.9
					c-10.9,0-16.6,1.1-19.3,1.9c0,0.1,0,0.2,0.1,0.3c0,0.1,0.1,0.2,0.1,0.3l0.4,1.8l-1.4-0.5c-0.9-0.3-1.4-0.6-1.8-0.8l-0.8,0.5
					l0-1.5v-9l0.8,0.4c1.4-0.9,5.5-2.4,17.4-2.7l0-14.1l9.3,0.1v14c12,0.3,16.1,1.7,17.4,2.7l0.6-0.3l0.1,1.2v9.1l-0.8-0.4
					c-0.4,0.3-1,0.5-1.9,0.8L315.9,90.1z M276.1,80.5v6l0.6-0.2c3-1,9-2.2,20.5-2.2c11.6,0,17.6,1.2,20.5,2.2l0.6,0.2v-5.9
					c-0.7-0.5-3.9-2.1-17.4-2.4l-0.8,0v-14l-6,0l0,14.1l-0.8,0C280.1,78.4,276.8,80.1,276.1,80.5z"/>
			</g>
			<g>
				<polygon fill="#EFE500" points="303.8,390.6 303.8,388.4 303.8,370.8 290.4,370.8 290.4,388.4 290.4,390.6 288.2,390.6 
					268.1,390.6 268.1,402 288.2,402 290.4,402 290.4,404.3 290.4,446.4 303.8,446.4 303.8,404.3 303.8,402 306.1,402 326.1,402 
					326.1,390.6 306.1,390.6 				"/>
				<polygon fill="#EFE500" points="181.6,476 179.4,476 166,476 163.8,476 162.5,476 162.5,482.1 182.9,482.1 182.9,476 				"/>
				<polygon fill="#EFE500" points="284.7,457 277.9,457 277.9,467.3 316.4,467.3 316.4,457 309.5,457 				"/>
				<polygon fill="#EFE500" points="160.3,484.3 153.5,484.3 153.5,494.7 192,494.7 192,484.3 185.1,484.3 				"/>
				<polygon fill="#EFE500" points="179.4,417.9 179.4,415.7 179.4,398.1 166,398.1 166,415.7 166,417.9 163.8,417.9 143.7,417.9 
					143.7,429.4 163.8,429.4 166,429.4 166,431.6 166,473.7 179.4,473.7 179.4,431.6 179.4,429.4 181.6,429.4 201.7,429.4 
					201.7,417.9 181.6,417.9 				"/>
				<polygon fill="#EFE500" points="306.1,448.6 303.8,448.6 290.4,448.6 288.2,448.6 286.9,448.6 286.9,454.8 307.3,454.8 
					307.3,448.6 				"/>
				<polygon fill="#EFE500" points="431,417.9 428.8,417.9 428.8,415.7 428.8,398.1 415.4,398.1 415.4,415.7 415.4,417.9 
					413.2,417.9 393.1,417.9 393.1,429.4 413.2,429.4 415.4,429.4 415.4,431.6 415.4,473.7 428.8,473.7 428.8,431.6 428.8,429.4 
					431,429.4 451.1,429.4 451.1,417.9 				"/>
				<polygon fill="#EFE500" points="409.7,484.3 402.9,484.3 402.9,494.7 441.4,494.7 441.4,484.3 434.5,484.3 				"/>
				<polygon fill="#EFE500" points="431,476 428.8,476 415.4,476 413.2,476 411.9,476 411.9,482.1 432.3,482.1 432.3,476 				"/>
			</g>
			<path fill="#020101" d="M431,395.9h-17.9v19.8h-22.3v15.9h22.3v42.1h-3.5v8.4h-9.1v14.8h43v-14.8h-9.1v-8.4H431v-42.1h22.3v-15.9
				H431V395.9z M441.4,484.3v10.3h-38.5v-10.3h6.8h24.8H441.4z M432.3,476v6.1h-20.4V476h1.3h2.2h13.4h2.2H432.3z M451.1,417.9v11.4
				H431h-2.2v2.2v42.1h-13.4v-42.1v-2.2h-2.2h-20.1v-11.4h20.1h2.2v-2.2v-17.6h13.4v17.6v2.2h2.2H451.1z"/>
			<path fill="#020101" d="M306.1,368.6h-17.9v19.8h-22.3v15.9h22.3v42.1h-3.5v8.4h-9.1v14.8h43v-14.8h-9.1v-8.4h-3.5v-42.1h22.3
				v-15.9h-22.3V368.6z M316.4,457v10.3h-38.5V457h6.8h24.8H316.4z M307.3,448.6v6.1h-20.4v-6.1h1.3h2.2h13.4h2.2H307.3z
				 M326.1,390.6V402h-20.1h-2.2v2.2v42.1h-13.4v-42.1V402h-2.2h-20.1v-11.4h20.1h2.2v-2.2v-17.6h13.4v17.6v2.2h2.2H326.1z"/>
			<path fill="#020101" d="M181.6,395.9h-17.9v19.8h-22.3v15.9h22.3v42.1h-3.5v8.4h-9.1v14.8h43v-14.8h-9.1v-8.4h-3.5v-42.1h22.3
				v-15.9h-22.3V395.9z M192,484.3v10.3h-38.5v-10.3h6.8h24.8H192z M182.9,476v6.1h-20.4V476h1.3h2.2h13.4h2.2H182.9z M201.7,417.9
				v11.4h-20.1h-2.2v2.2v42.1H166v-42.1v-2.2h-2.2h-20.1v-11.4h20.1h2.2v-2.2v-17.6h13.4v17.6v2.2h2.2H201.7z"/>
			<g>
				<path fill="#EFE500" d="M314.7,530.8l-2.9-1.1l-0.3,1.1l-4,9.6c3.1,1,6.8,2.6,10.6,5.2c1,0.7,2,1.4,2.9,2.2
					c2.2,1.8,4.5,4,6.7,6.7l8.1-6.7l0.7-0.6c-0.4-0.6-0.9-1.1-1.4-1.6C329.7,539.3,323,533.9,314.7,530.8z"/>
				<path fill="#EFE500" d="M298.2,527.7l-0.9,0c-3.3,0-6.5,0.3-9.4,0.8c-0.7,0.1-1.3,0.3-1.9,0.4l0.8,1.8l3.9,9.1
					c2.5-0.6,5.1-1,7.9-1l0.3,0c0.9,0,3.2,0.1,6.5,0.9l3.7-9l0.7-1.6c-1-0.2-2-0.5-3-0.7C304,528.1,301.2,527.8,298.2,527.7z"/>
				<path fill="#EFE500" d="M416.6,545.6l-1.2-4.9c-3.8,1.2-7.2,2.8-10.1,4.9c-1,0.7-2,1.4-2.9,2.2c-2.3,1.9-4.3,4.1-6.1,6.4
					l8.3,7.2c3.9-5.5,8.4-9.3,13.3-11.3l-0.6-2.3L416.6,545.6z"/>
				<path fill="#EFE500" d="M248,562c2-4.8,4.4-9.7,7.5-14.2h-38.7v10.5h-2.2v-10.5h-14.6c4.4,4.2,7.8,9.2,10.4,14.2H237v-7.8h2.2
					v7.8H248z"/>
				<path fill="#EFE500" d="M329.1,556.2c1.3,1.8,2.6,3.7,3.9,5.8c0.4,0.7,0.8,1.5,1.3,2.2c2.3,4.3,4.5,9.2,6.3,15.1l0.2,0.7
					l1.3-0.7l9-4.3c-1.2-3.4-2.6-7.1-4.3-10.8c-0.3-0.7-0.7-1.5-1.1-2.2c-2.2-4.4-4.8-8.9-7.9-13L329.1,556.2z"/>
				<path fill="#EFE500" d="M391,562c-0.4,0.7-0.8,1.5-1.1,2.2c-2.1,4.2-3.6,8.5-4.7,12.3l6.4,2.7l3.4,1.3l0.5-1.3
					c0.9-2.6,2-5.3,3.2-8c1.2-2.6,2.5-4.9,3.8-7.1c0.2-0.4,0.4-0.7,0.7-1l-1.4-1.2l-7-6.1C393.4,557.9,392.2,560,391,562z"/>
				<path fill="#EFE500" d="M102.7,579.3H128c1.3-4.8,3.1-10,5.4-15.1h-14.5v10.8h-2.2v-10.8h-13.9V579.3z"/>
				<path fill="#EFE500" d="M135.4,579.3h3.3c2-5.8,4.4-10.9,7.1-15.1c0.5-0.8,1-1.5,1.5-2.2l0,0l-7-5.8c-1.3,1.9-2.4,3.8-3.5,5.8
					c-0.4,0.7-0.8,1.5-1.1,2.2c-2,4.2-3.6,8.6-4.9,12.8c-0.2,0.7-0.4,1.5-0.6,2.2l0.1,0H135.4z"/>
				<path fill="#EFE500" d="M134.4,562c2.6-5.2,5.9-10.1,10-14.2h-41.8V562h13.9v-7.8h2.2v7.8H134.4z"/>
				<path fill="#EFE500" d="M196.7,547.8c-0.9-0.8-1.9-1.5-2.9-2.2c-3.3-2.3-7.1-4.1-11.5-5.3l-1.3,5.3l-0.5,2.2l-0.5,1.8
					c6.4,1.7,11.3,5.2,15.2,9.8l7.3-5.6C200.8,551.6,198.9,549.6,196.7,547.8z"/>
				<path fill="#EFE500" d="M253.8,579.3l4.8,1.7c0.2-0.6,0.3-1.1,0.5-1.7c1.4-4.7,3.2-10,5.7-15.1c0.4-0.7,0.7-1.5,1.1-2.2
					c0.7-1.2,1.4-2.5,2.1-3.7l-6.5-5.6l-2.2-2l-1.9-1.7c-2.8,4.1-5.1,8.5-6.9,13c-0.3,0.7-0.6,1.5-0.9,2.2
					c-1.6,4.2-2.9,8.3-3.8,12.2L253.8,579.3z"/>
				<path fill="#EFE500" d="M176.6,539.2c-1.7-0.2-3.5-0.3-5.3-0.3c-3.2,0-6.1,0.4-8.8,1.1l2.1,5.6l0.8,2.2l0.5,1.4
					c1.9-0.4,3.9-0.6,5.9-0.6c2.1,0,4.1,0.2,6,0.5l0.3-1.4l0.5-2.2l1.4-5.8c-0.4-0.1-0.9-0.2-1.3-0.3
					C178.1,539.4,177.4,539.3,176.6,539.2z"/>
				<path fill="#EFE500" d="M283.7,529.5c-0.7,0.2-1.5,0.4-2.2,0.7l-1.7,0.6c-7.5,2.8-13.5,7.4-18.3,12.9c-0.5,0.6-1,1.2-1.5,1.9
					c-0.2,0.3-0.5,0.6-0.7,0.9l-0.7,0.8l0.7,0.6l0,0l2.2,1.9l7.7,6.7c2.1-3.2,4.5-6.1,7.2-8.6c0.8-0.8,1.7-1.5,2.6-2.2
					c2.8-2.2,6-3.9,9.5-5.1l-4.2-9.7L283.7,529.5L283.7,529.5z"/>
				<polygon fill="#EFE500" points="237.1,488.9 213.7,494.2 237.1,494.2 				"/>
				<polygon fill="#EFE500" points="176.9,502.6 156.5,507.3 156.5,510.7 214.6,510.7 214.6,502.3 216.8,502.3 216.8,510.7 
					259.5,510.7 259.5,502.3 261.7,502.3 261.7,510.7 319.7,510.7 319.7,502.3 322,502.3 322,510.7 379.4,510.7 379.4,502.3 
					381.7,502.3 381.7,510.7 439.1,510.7 439.1,509.8 404.8,501.6 404.8,506.8 402.6,506.8 402.6,501.1 380.6,495.8 380.6,496.5 
					344.6,496.5 344.6,506.8 342.3,506.8 342.3,496.5 284,496.5 284,506.8 281.8,506.8 281.8,496.5 239.4,496.5 239.4,506.8 
					237.1,506.8 237.1,496.5 203.9,496.5 179.1,502.1 179.1,506.8 176.9,506.8 				"/>
				<polygon fill="#EFE500" points="342.3,494.2 342.3,486.7 321.7,481.8 321.7,487.5 319.5,487.5 319.5,481.2 312.1,479.5 
					278.6,479.5 261.4,483.4 261.4,487.5 259.2,487.5 259.2,483.9 239.4,488.4 239.4,494.2 281.8,494.2 281.8,486.4 284,486.4 
					284,494.2 				"/>
				<polygon fill="#EFE500" points="373.9,494.2 344.6,487.2 344.6,494.2 				"/>
				<path fill="#EFE500" d="M458.1,555.4l-7.6,6.6l-0.8,0.7c0.3,0.5,0.7,1,1,1.5c2.9,4.6,5.3,9.8,7.1,15.1h3l7.1-3
					c-1-3.3-2.2-6.7-3.7-10c-0.3-0.7-0.6-1.4-0.9-2c-0.4-0.7-0.7-1.5-1.1-2.2h-0.2v-0.3C460.8,559.5,459.5,557.4,458.1,555.4z"/>
				<path fill="#EFE500" d="M339.8,547.8c3.4,4.5,6.2,9.4,8.5,14.2h40.3c2.6-5.1,6-10,10.4-14.2h-18v10.5h-2.2v-10.5H339.8z"/>
				<polygon fill="#EFE500" points="154.3,507.8 141.5,510.7 154.3,510.7 				"/>
				<path fill="#EFE500" d="M451.3,547.8c-0.9-0.8-1.8-1.5-2.7-2.2c-2.3-1.7-4.7-3.1-7.4-4.2c-0.7-0.3-1.5-0.5-2.2-0.8
					c-0.7-0.2-1.4-0.4-2.2-0.6l-1.6,5.6l-0.6,2.2l-0.5,1.9c1.7,0.6,3.4,1.4,4.9,2.3c0.8,0.5,1.5,1,2.2,1.6c2.6,2,5,4.5,7.1,7.3
					l8.4-7.3C455.1,551.5,453.3,549.6,451.3,547.8z"/>
				<path fill="#EFE500" d="M154.4,554.7c0.7-0.6,1.5-1.1,2.2-1.6c2.3-1.5,4.7-2.6,7.2-3.3l-0.8-2l-0.8-2.2l-1.9-5
					c-1.3,0.4-2.5,0.9-3.7,1.4c-0.8,0.3-1.5,0.7-2.2,1.1c-1.4,0.8-2.7,1.6-3.9,2.5c-1,0.7-1.9,1.4-2.8,2.2c-2.2,2-4.2,4.2-6,6.6
					l7.1,5.8C150.5,558.1,152.4,556.3,154.4,554.7z"/>
				<path fill="#EFE500" d="M178.8,530.8v6.5c7.6,1.2,13.7,4.3,18.7,8.3h17.1v-8.1h2.2v8.1h40.3c0.7-0.9,1.4-1.8,2.1-2.7v-5.4h2.2
					v2.9c3.6-3.8,7.8-7.1,12.7-9.6h-35.1v9.5h-2.2v-9.5H178.8z"/>
				<path fill="#EFE500" d="M102.7,530.8v14.8h44.2c2.3-2,4.8-3.7,7.5-5v-3h2.2v2c4.3-1.8,9.2-2.8,14.7-2.8c1.8,0,3.6,0.1,5.3,0.3
					v-6.2h-58v9.5h-2.2v-9.5H102.7z"/>
				<path fill="#EFE500" d="M452,512.9h-10.6v10.6h-2.2v-10.6h-57.5v10.6h-2.2v-10.6H322v10.6h-2.2v-10.6h-58v10.6h-2.2v-10.6h-42.7
					v10.6h-2.2v-10.6h-58v10.6h-2.2v-10.6h-22.6l-29,6.6v9h13.7v-8.6h2.2v8.6h58v-8.6h2.2v8.6h58v-8.6h2.2v8.6h40.1
					c0.7-0.3,1.5-0.5,2.3-0.7v-7.9h2.2v7.2c4.1-1.1,8.6-1.7,13.6-1.7l1,0c6.2,0.1,11.8,1.2,16.9,3.1h26.6v-8.6h2.2v8.6h58v-8.6h2.2
					v8.6h56.4v-8.6h2.2v8.6h32.8v-5.2L452,512.9L452,512.9z"/>
				<path fill="#EFE500" d="M391.1,581.6l-5.2-2.2l-1.3-0.6l-0.1,0.6c-0.2,0.8-0.4,1.5-0.5,2.2c-1,4.4-1.4,7.8-1.6,9.4v0l9.3,1.8
					c0.4-1.8,1.2-5.4,2.6-9.9L391.1,581.6z"/>
				<path fill="#EFE500" d="M463.1,605.9l0.4-0.2C463.3,605.8,463.2,605.8,463.1,605.9C463.1,605.9,463.1,605.9,463.1,605.9z"/>
				<path fill="#EFE500" d="M382.3,578.8c1.1-4.4,2.8-9.4,5.1-14.5h-38.2c2.4,5.3,4.2,10.5,5.5,15.1h25.3v-6.4h2.2V578.8z"/>
				<path fill="#EFE500" d="M357.2,588.7c2.1-0.3,4.3-0.4,6.6-0.4c5.6,0,11.1,0.9,16.3,2.2v-8.9h-24.6
					C356.2,584.3,356.7,586.7,357.2,588.7z"/>
				<path fill="#EFE500" d="M344.2,594.1c0.3,1.5,0.5,3,0.7,4.5l11-4.7c-0.1-0.6-0.3-1.6-0.5-2.8
					C351.4,591.8,347.7,592.9,344.2,594.1z"/>
				<path fill="#EFE500" d="M468.8,579.3c-0.1-0.3-0.2-0.6-0.2-0.9l-2,0.9l-5.3,2.2l-2.4,1c2.3,7.5,3.7,15,4.2,20.9
					c3.4-1.1,6.6-2.3,9.6-3.5c-0.2-2.9-1-10-3.2-18.4C469.2,580.8,469,580.1,468.8,579.3z"/>
				<polygon fill="#EFE500" points="404.8,499.3 439.1,507.5 441.4,508.1 495.7,521 497,511.3 404.8,490.4 402.6,489.9 316,469.1 
					275.5,469.1 179.1,489.4 176.9,489.9 102.6,505.5 102.2,517.4 130,511 131.5,510.7 154.3,505.5 156.5,505 176.9,500.3 
					179.1,499.8 201.4,494.7 203.7,494.2 237.1,486.6 237.9,486.4 259.2,481.6 261.4,481.1 278.3,477.2 312.5,477.3 319.5,478.9 
					321.7,479.5 402.6,498.8 				"/>
				<path fill="#EFE500" d="M474.7,599.1c8.8-3.7,14.8-7,14.9-7.1l0.3-0.2l5.8,0.6v-10.9h-24C473.6,589.3,474.4,595.9,474.7,599.1z"
					/>
				<path fill="#EFE500" d="M462.9,540.3h-2.2v-9.5h-56.4v9.5H402v-9.5h-58v9.5h-2.2v-9.5h-21.6c7.2,3.6,13,8.9,17.8,14.8h40.7v-8.1
					h2.2v8.1h20.5c6.6-5.3,15.1-8.9,26.3-8.9c4.1,0,7.8,0.6,11.3,1.6v-0.8h2.2v1.5c4.1,1.6,7.8,3.8,11,6.5h43.5v-14.8h-32.8V540.3z"
					/>
				<path fill="#EFE500" d="M102.7,581.6V592l1.1-0.1l0.5-0.1l0.3,0.2c0.1,0.1,4.7,2.6,11.6,5.7v-9.3h2.2v10.2
					c1.8,0.8,3.7,1.5,5.7,2.3c0.1-1.8,0.8-9.7,3.2-19.4H102.7z"/>
				<path fill="#EFE500" d="M461.9,557.3v-2.1h2.2v6.1c0.1,0.3,0.3,0.5,0.4,0.8h31.1v-14.2h-41.1
					C457.4,550.6,459.8,553.8,461.9,557.3z"/>
				<path fill="#EFE500" d="M471.1,579.3h24.6v-15.1h-30C468,569.3,469.7,574.5,471.1,579.3z"/>
				<path fill="#EFE500" d="M198.7,564.3c2.9,4.7,5,10,6.4,15.1l0.2,1.6l3.3-1.6l5.3-2.3c-1.1-4-2.7-8.4-4.8-12.7
					c-0.4-0.7-0.7-1.5-1.1-2.2c-1.2-2.2-2.5-4.4-4.1-6.5l-7.3,5.6c0.2,0.3,0.4,0.6,0.6,0.9C197.8,562.8,198.2,563.5,198.7,564.3z"/>
				<path fill="#EFE500" d="M208.4,599l6.2-5.7l1-0.9c-2.6,0.6-5.1,1.4-7.6,2.3C208.2,596.4,208.3,597.9,208.4,599z"/>
				<path fill="#EFE500" d="M214.6,579.8c0-0.1-0.1-0.3-0.1-0.4h-0.4l-5.1,2.2l-3,1.3c0.8,3.5,1.4,6.7,1.7,9.5
					c2.9-1,5.8-1.8,8.8-2.5c-0.2-1.8-0.7-4.8-1.5-8.4C214.9,581,214.8,580.4,214.6,579.8z"/>
				<path fill="#EFE500" d="M126.5,616.8l6.2-6.3c0-0.7,0.1-2.1,0.3-4c-2.3-0.7-4.5-1.4-6.6-2.2L126.5,616.8z"/>
				<path fill="#EFE500" d="M138,581.6h-3.1h-5.3c-2.8,10.9-3.2,19.6-3.3,19.9l0,0.4c2.2,0.8,4.5,1.6,6.9,2.3
					c0.6-5.3,1.9-13.2,4.3-21.2C137.7,582.4,137.9,582,138,581.6z"/>
				<path fill="#EFE500" d="M242.7,579.3c1-4.6,2.4-9.8,4.4-15.1h-8v10.8H237v-10.8h-25.4c1.4,2.9,2.5,5.9,3.4,8.6h1.9v6.4H242.7z"
					/>
				<path fill="#EFE500" d="M253.4,581.6l-6.4-2.2l-1.9-0.8l-0.1,0.8c-0.2,0.8-0.3,1.5-0.5,2.2c-0.6,3.1-1.1,5.9-1.4,8.2
					c4.5,1.1,8.7,2.6,12.7,4.3c0.3-2.3,1-6.2,2.2-10.9L253.4,581.6z"/>
				<path fill="#EFE500" d="M353.1,581.6c-0.2-0.7-0.4-1.5-0.6-2.2c-0.2-0.7-0.4-1.4-0.7-2.2l-4.5,2.2l-4.7,2.2l-1.2,0.6
					c0.9,3,1.6,6.3,2.3,9.8c3.5-1.3,7.2-2.3,11.2-3C354.5,586.9,353.9,584.4,353.1,581.6z"/>
				<path fill="#EFE500" d="M242.5,596l10.8-0.6c-3.3-1.4-6.8-2.6-10.4-3.4C242.7,593.7,242.6,595.1,242.5,596z"/>
				<path fill="#EFE500" d="M218.8,589.5c3.8-0.7,7.7-1.2,11.7-1.2c3.8,0,7.2,0.4,10.5,1c0.3-2.2,0.7-4.9,1.3-7.7h-24.9
					C218.1,584.9,218.5,587.6,218.8,589.5z"/>
			</g>
			<path fill="none" d="M497.4,630.3l-1.4-0.1v3.3c0,6.9-0.4,13.6-1.2,20.3l2.6,0.3V630.3z"/>
			<path fill="#FFFFFF" d="M490.4,655.5c-3.4,1.9-30.6,16.4-53.5,16.4c-11.9,0-23-4.7-34.8-9.7c-12.1-5.1-24.6-10.4-38.3-10.4
				c-13,0-22.4,4.5-32.4,9.2c-9.9,4.7-20.1,9.6-34.2,10c-14.2-0.4-24.4-5.3-34.3-10c-10-4.7-19.4-9.2-32.4-9.2
				c-13.7,0-26.2,5.3-38.3,10.4c-11.8,5-22.9,9.7-34.8,9.7c-20.9,0-45.2-12-52-15.6c1.7,12.7,4.9,24.9,9.3,36.6
				c10.6,4.8,27.8,11.3,42.7,11.3c11.4,0,22.3-4.6,33.9-9.5c12.3-5.2,25-10.6,39.2-10.6c13.5,0,23.6,4.8,33.4,9.4
				c9.7,4.6,19.7,9.4,33.3,9.8c13.6-0.4,23.6-5.2,33.3-9.8c9.8-4.6,19.8-9.4,33.4-9.4c14.2,0,26.9,5.4,39.2,10.6
				c11.6,4.9,22.5,9.5,33.9,9.5c18.8,0,41.2-10.4,49.5-14.6c3.8-10.8,6.6-22.1,8.2-33.8L490.4,655.5z"/>
			<path fill="#FFFFFF" d="M402.1,722.8c-12.1-5.1-24.6-10.4-38.3-10.4c-13,0-22.4,4.5-32.4,9.2c-9.9,4.7-20.1,9.6-34.2,10
				c-14.2-0.4-24.4-5.3-34.3-10c-10-4.7-19.4-9.2-32.4-9.2c-13.7,0-26.2,5.3-38.3,10.4c-11.8,5-22.9,9.7-34.8,9.7
				c-8,0-16.6-1.8-24.4-4.2c8.8,13.1,19.3,25.1,31.3,35.7c9-1.4,17.8-5,27-8.9c12.3-5.2,25-10.6,39.2-10.6c13.5,0,23.6,4.8,33.4,9.4
				c9.7,4.6,19.7,9.4,33.3,9.8c13.6-0.4,23.6-5.2,33.3-9.8c9.8-4.6,19.8-9.4,33.4-9.4c14.2,0,26.9,5.4,39.2,10.6
				c10.9,4.6,21.3,9,32.1,9.4c13-11.4,24.2-24.3,33.4-38.6c-9.6,3.5-21.1,6.6-31.6,6.6C425,732.5,413.9,727.8,402.1,722.8z"/>
			<path fill="#FFFFFF" d="M104.6,627.5c0.3,0.2,29.3,16.3,52.7,16.3c11.4,0,22.3-4.6,33.9-9.5c12.3-5.2,25-10.6,39.2-10.6
				c13.5,0,23.6,4.8,33.4,9.4c9.7,4.6,19.7,9.4,33.3,9.8c13.6-0.4,23.6-5.2,33.3-9.8c9.8-4.6,19.8-9.4,33.4-9.4
				c14.2,0,26.9,5.4,39.2,10.6c11.6,4.9,22.5,9.5,33.9,9.5c23.4,0,52.5-16.2,52.7-16.3l0.3-0.2l6.1,0.6v-33.2l-5.7-0.6
				c-3.4,1.9-30.6,16.4-53.5,16.4c-11.9,0-23-4.7-34.8-9.7c-12.1-5.1-24.6-10.4-38.3-10.4c-13,0-22.4,4.5-32.4,9.2
				c-9.9,4.7-20.1,9.6-34.2,10c-14.2-0.4-24.4-5.3-34.3-10c-10-4.7-19.4-9.2-32.4-9.2c-13.7,0-26.2,5.3-38.3,10.4
				c-11.8,5-22.9,9.7-34.8,9.7c-23,0-50.1-14.6-53.5-16.4l0,0v33.2l0.5-0.1L104.6,627.5z"/>
			<path fill="#003483" d="M191.2,781c12.3-5.2,25-10.6,39.2-10.6c13.5,0,23.6,4.8,33.4,9.4c9.7,4.6,19.7,9.4,33.3,9.8
				c13.6-0.4,23.6-5.2,33.3-9.8c9.8-4.6,19.8-9.4,33.4-9.4c14.2,0,26.9,5.4,39.2,10.6c2.1,0.9,4.1,1.7,6.2,2.6
				c8.3-5.1,16.1-10.8,23.4-17c-10.3-0.9-20.1-5.1-30.5-9.5c-12.1-5.1-24.6-10.4-38.3-10.4c-13,0-22.4,4.5-32.4,9.2
				c-9.9,4.7-20.1,9.6-34.2,10c-14.2-0.4-24.4-5.3-34.3-10c-10-4.7-19.4-9.2-32.4-9.2c-13.7,0-26.2,5.3-38.3,10.4
				c-8.7,3.7-17.1,7.2-25.6,8.8c6.9,5.9,14.2,11.3,22,16.3C189.4,781.8,190.3,781.4,191.2,781z"/>
			<path fill="#003483" d="M157.4,730.3c11.4,0,22.3-4.6,33.9-9.5c12.3-5.2,25-10.6,39.2-10.6c13.5,0,23.6,4.8,33.4,9.4
				c9.7,4.6,19.7,9.4,33.3,9.8c13.6-0.4,23.6-5.2,33.3-9.8c9.8-4.6,19.8-9.4,33.4-9.4c14.2,0,26.9,5.4,39.2,10.6
				c11.6,4.9,22.5,9.5,33.9,9.5c11.2,0,23.6-3.7,33.6-7.5c5.8-9.5,10.8-19.5,14.7-29.9c-9.7,4.8-30.3,13.8-48.4,13.8
				c-11.9,0-23-4.7-34.8-9.7c-12.1-5.1-24.6-10.4-38.3-10.4c-13,0-22.4,4.5-32.4,9.2c-9.9,4.7-20.1,9.6-34.2,10
				c-14.2-0.4-24.4-5.3-34.3-10c-10-4.7-19.4-9.2-32.4-9.2c-13.7,0-26.2,5.3-38.3,10.4c-11.8,5-22.9,9.7-34.8,9.7
				c-14.5,0-30.7-5.8-41.5-10.6c4.1,10.2,9.2,20.1,15.1,29.3C139.4,728.1,148.8,730.3,157.4,730.3z"/>
			<path fill="#003483" d="M496.1,630.1l-4.3-1.1c-3.4,1.9-31.9,17-54.9,17c-11.9,0-23-4.7-34.8-9.7c-12.1-5.1-24.6-10.4-38.3-10.4
				c-13,0-22.4,4.5-32.4,9.2c-9.9,4.7-20.1,9.6-34.2,10c-14.2-0.4-24.4-5.3-34.3-10c-10-4.7-19.4-9.2-32.4-9.2
				c-13.7,0-26.2,5.3-38.3,10.4c-11.8,5-22.9,9.7-34.8,9.7c-23,0-50.1-14.6-53.5-16.4l0,0v3.9c0,6.8,0.4,13.5,1.2,20.2
				c3.6,1.9,30.4,16.1,52.3,16.1c11.4,0,22.3-4.6,33.9-9.5c12.3-5.2,25-10.6,39.2-10.6c13.5,0,23.6,4.8,33.4,9.4
				c9.7,4.6,19.7,9.4,33.3,9.8c13.6-0.4,23.6-5.2,33.3-9.8c9.8-4.6,19.8-9.4,33.4-9.4c14.2,0,26.9,5.4,39.2,10.6
				c11.6,4.9,22.5,9.5,33.9,9.5c23.4,0,52.5-16.2,52.7-16.3l0.3-0.2l4.9,0.5c0.8-6.7,1.2-13.4,1.2-20.3V630.1z"/>
			<path fill="#FFFFFF" d="M363.8,772.7c-13,0-22.4,4.5-32.4,9.2c-9.9,4.7-20.1,9.6-34.2,10c-14.2-0.4-24.4-5.3-34.3-10
				c-10-4.7-19.4-9.2-32.4-9.2c-13.7,0-26.2,5.3-38.3,10.4c-0.5,0.2-0.9,0.4-1.4,0.6c31.2,19.3,68.8,30.6,109.2,30.6
				c39.4,0,76.1-10.7,106.9-29.2c-1.6-0.6-3.1-1.3-4.7-2C390,778,377.5,772.7,363.8,772.7z"/>
			<polygon points="498.4,595 498.6,592.7 496.1,592.5 496.1,594.7 			"/>
			<path d="M157.4,610.6c11.9,0,23-4.7,34.8-9.7c12.1-5.1,24.6-10.4,38.3-10.4c13,0,22.4,4.5,32.4,9.2c9.9,4.7,20.1,9.6,34.3,10
				c14.1-0.4,24.3-5.3,34.2-10c10-4.7,19.4-9.2,32.4-9.2c13.7,0,26.2,5.3,38.3,10.4c11.8,5,22.9,9.7,34.8,9.7
				c23,0,51.8-15.7,55.1-17.6l4.1,1.7v-2.2L493,591l-3.4,1c-0.3,0.2-29.3,16.3-52.7,16.3c-11.4,0-22.3-4.6-33.9-9.5
				c-12.3-5.2-25-10.6-39.2-10.6c-13.5,0-23.6,4.8-33.4,9.4c-9.7,4.6-19.7,9.4-33.3,9.8c-13.7-0.4-23.7-5.2-33.3-9.8
				c-9.8-4.6-19.8-9.4-33.4-9.4c-14.2,0-26.9,5.4-39.2,10.6c-11.6,4.9-22.5,9.5-33.9,9.5c-23.4,0-52.5-16.2-52.7-16.3l-0.3-0.2
				l-0.5,0.1v2.2l0,0C107.2,596,134.4,610.6,157.4,610.6z"/>
			<path d="M103.8,629.6c3.4,1.9,30.6,16.4,53.5,16.4c11.9,0,23-4.7,34.8-9.7c12.1-5.1,24.6-10.4,38.3-10.4c13,0,22.4,4.5,32.4,9.2
				c9.9,4.7,20.1,9.6,34.3,10c14.1-0.4,24.3-5.3,34.2-10c10-4.7,19.4-9.2,32.4-9.2c13.7,0,26.2,5.3,38.3,10.4
				c11.8,5,22.9,9.7,34.8,9.7c23,0,51.5-15.2,54.9-17l4.3,1.1v-2.2l-2.3-1.4c-0.3-0.2-0.7-0.3-1.1-0.3H492
				c-0.3,0.2-31.7,17.5-55.1,17.5c-11.4,0-22.3-4.6-33.9-9.5c-12.3-5.2-25-10.6-39.2-10.6c-13.5,0-23.6,4.8-33.4,9.4
				c-9.7,4.6-19.7,9.4-33.3,9.8c-13.7-0.4-23.7-5.2-33.3-9.8c-9.8-4.6-19.8-9.4-33.4-9.4c-14.2,0-26.9,5.4-39.2,10.6
				c-11.6,4.9-22.5,9.5-33.9,9.5c-23.4,0-52.5-16.2-52.7-16.3l-0.3-0.2l-0.5,0.1L103.8,629.6L103.8,629.6z"/>
			<path d="M192.1,662.3c12.1-5.1,24.6-10.4,38.3-10.4c13,0,22.4,4.5,32.4,9.2c9.9,4.7,20.1,9.6,34.3,10c14.1-0.4,24.3-5.3,34.2-10
				c10-4.7,19.4-9.2,32.4-9.2c13.7,0,26.2,5.3,38.3,10.4c11.8,5,22.9,9.7,34.8,9.7c23,0,50.1-14.6,53.5-16.4l4.1,0.4
				c0.1-0.7,0.2-1.5,0.3-2.2l-4.9-0.5l-0.3,0.2c-0.3,0.2-29.3,16.3-52.7,16.3c-11.4,0-22.3-4.6-33.9-9.5
				c-12.3-5.2-25-10.6-39.2-10.6c-13.5,0-23.6,4.8-33.4,9.4c-9.7,4.6-19.7,9.4-33.3,9.8c-13.7-0.4-23.7-5.2-33.3-9.8
				c-9.8-4.6-19.8-9.4-33.4-9.4c-14.2,0-26.9,5.4-39.2,10.6c-11.6,4.9-22.5,9.5-33.9,9.5c-21.9,0-48.8-14.2-52.3-16.1
				c0.1,0.9,0.2,1.8,0.3,2.7c6.8,3.6,31.2,15.6,52,15.6C169.2,672,180.3,667.3,192.1,662.3z"/>
			<path d="M436.9,730.3c-11.4,0-22.3-4.6-33.9-9.5c-12.3-5.2-25-10.6-39.2-10.6c-13.5,0-23.6,4.8-33.4,9.4
				c-9.7,4.6-19.7,9.4-33.3,9.8c-13.7-0.4-23.7-5.2-33.3-9.8c-9.8-4.6-19.8-9.4-33.4-9.4c-14.2,0-26.9,5.4-39.2,10.6
				c-11.6,4.9-22.5,9.5-33.9,9.5c-8.6,0-18-2.2-26.4-5c0.6,1,1.3,2,2,3c7.9,2.4,16.4,4.2,24.4,4.2c11.9,0,23-4.7,34.8-9.7
				c12.1-5.1,24.6-10.4,38.3-10.4c13,0,22.4,4.5,32.4,9.2c9.9,4.7,20.1,9.6,34.3,10c14.1-0.4,24.3-5.3,34.2-10
				c10-4.7,19.4-9.2,32.4-9.2c13.7,0,26.2,5.3,38.3,10.4c11.8,5,22.9,9.7,34.8,9.7c10.6,0,22-3.1,31.6-6.6c0.7-1.1,1.4-2.1,2-3.2
				C460.5,726.6,448.1,730.3,436.9,730.3z"/>
			<path d="M403,694.8c-12.3-5.2-25-10.6-39.2-10.6c-13.5,0-23.6,4.8-33.4,9.4c-9.7,4.6-19.7,9.4-33.3,9.8
				c-13.7-0.4-23.7-5.2-33.3-9.8c-9.8-4.6-19.8-9.4-33.4-9.4c-14.2,0-26.9,5.4-39.2,10.6c-11.6,4.9-22.5,9.5-33.9,9.5
				c-14.9,0-32.1-6.5-42.7-11.3c0.4,1,0.8,2,1.2,3c10.8,4.8,27,10.6,41.5,10.6c11.9,0,23-4.7,34.8-9.7c12.1-5.1,24.6-10.4,38.3-10.4
				c13,0,22.4,4.5,32.4,9.2c9.9,4.7,20.1,9.6,34.3,10c14.1-0.4,24.3-5.3,34.2-10c10-4.7,19.4-9.2,32.4-9.2
				c13.7,0,26.2,5.3,38.3,10.4c11.8,5,22.9,9.7,34.8,9.7c18.1,0,38.7-9,48.4-13.8c0.4-1,0.8-2,1.1-3.1c-8.2,4.2-30.7,14.6-49.5,14.6
				C425.5,704.3,414.5,699.7,403,694.8z"/>
			<path d="M363.8,744.5c-13.5,0-23.6,4.8-33.4,9.4c-9.7,4.6-19.7,9.4-33.3,9.8c-13.7-0.4-23.7-5.2-33.3-9.8
				c-9.8-4.6-19.8-9.4-33.4-9.4c-14.2,0-26.9,5.4-39.2,10.6c-9.2,3.9-18,7.6-27,8.9c0.7,0.6,1.5,1.3,2.2,1.9
				c8.6-1.6,16.9-5.1,25.6-8.8c12.1-5.1,24.6-10.4,38.3-10.4c13,0,22.4,4.5,32.4,9.2c9.9,4.7,20.1,9.6,34.3,10
				c14.1-0.4,24.3-5.3,34.2-10c10-4.7,19.4-9.2,32.4-9.2c13.7,0,26.2,5.3,38.3,10.4c10.3,4.4,20.2,8.5,30.5,9.5
				c0.8-0.7,1.7-1.4,2.5-2.1c-10.8-0.5-21.1-4.8-32.1-9.4C390.7,749.9,377.9,744.5,363.8,744.5z"/>
			<path d="M403,781c-12.3-5.2-25-10.6-39.2-10.6c-13.5,0-23.6,4.8-33.4,9.4c-9.7,4.6-19.7,9.4-33.3,9.8
				c-13.7-0.4-23.7-5.2-33.3-9.8c-9.8-4.6-19.8-9.4-33.4-9.4c-14.2,0-26.9,5.4-39.2,10.6c-0.9,0.4-1.9,0.8-2.8,1.2
				c0.8,0.5,1.5,1,2.3,1.5c0.5-0.2,0.9-0.4,1.4-0.6c12.1-5.1,24.6-10.4,38.3-10.4c13,0,22.4,4.5,32.4,9.2c9.9,4.7,20.1,9.6,34.3,10
				c14.1-0.4,24.3-5.3,34.2-10c10-4.7,19.4-9.2,32.4-9.2c13.7,0,26.2,5.3,38.3,10.4c1.6,0.7,3.1,1.3,4.7,2c0.8-0.5,1.6-1,2.4-1.4
				C407.1,782.8,405.1,781.9,403,781z"/>
			<path fill="none" d="M202.8,353.3h-94.5v280.1c0,97.2,86,176.3,191.7,176.3s191.7-79.1,191.7-176.3V353.3H383.7
				c-21.3,4.4-53.9,7.3-90.5,7.3S224.1,357.8,202.8,353.3z"/>
			<path fill="#DC0302" d="M409.6,341.1c0-10.8-52.1-19.5-116.3-19.5s-116.3,8.7-116.3,19.5c0,1.1,0.6,2.3,1.7,3.3h229.2
				C408.9,343.3,409.6,342.2,409.6,341.1z"/>
			<path d="M407.8,344.4c-3.4,3.3-11.9,6.4-24.1,8.9h107.9v280.1c0,97.2-86,176.3-191.7,176.3s-191.7-79.1-191.7-176.3V353.3h94.5
				c-12.2-2.5-20.7-5.6-24.1-8.9H99.3v289c0,102.1,90,185.3,200.6,185.3c110.6,0,200.6-83.1,200.6-185.3v-289H407.8z"/>
			<path d="M383.7,353.3c12.2-2.5,20.7-5.6,24.1-8.9H178.6c3.4,3.3,11.9,6.4,24.1,8.9H383.7z"/>
		</g>
		<line fill="none" x1="397.8" y1="576.5" x2="388.5" y2="584.2"/>
		<path fill="#EFE500" d="M434.6,539.5c-2.2-0.4-4.5-0.6-6.9-0.6c-3.7,0-7.1,0.4-10.2,1.2l1.4,5.5l1.1,3.7c2-0.6,4.1-0.9,6.2-0.9
			c2,0,3.9,0.2,5.7,0.7l1-3.5L434.6,539.5z"/>
		<path fill="none" d="M473,601.9c-0.5-6.6-5.7-63.5-45.3-63.5c-38.9,0-45.1,46.6-45.8,53.6l9.6,1.9c0.6-3.1,2.8-12.6,7.1-22.1
			c5.7-12.4,13-20,21.5-22.5l-1.1-3.7l-1.4-5.5c3.1-0.8,6.5-1.2,10.2-1.2c2.4,0,4.7,0.2,6.9,0.6l-1.7,6.1l-1,3.5
			c21.5,5.4,30.7,41,31.3,58.3L473,601.9z"/>
	</g>
</g>
</svg>
